<svg width="20" height="15" viewBox="0 0 20 15" fill="none" xmlns="http://www.w3.org/2000/svg">
<path fill-rule="evenodd" clip-rule="evenodd" d="M8.30461 13.5728C8.09827 13.3785 7.32699 12.6388 6.96739 12.2857C6.88726 12.2073 6.81314 12.1689 6.69995 12.1719C3.40349 12.2533 2.17845 9.40596 2.95774 7.35161C3.55473 5.77651 5.20848 4.81822 6.83818 5.11431C8.20645 5.36157 8.54901 5.90771 10.6896 8.10552C11.2815 8.71399 12.2602 7.80466 11.6371 7.16363C10.956 6.46359 10.2909 5.74432 9.58273 5.07378C8.20745 3.77137 6.58676 3.38349 4.79478 3.93804C2.38379 4.68183 0.972447 7.21017 1.52336 9.70611C2.02519 11.9802 3.98244 13.5756 6.27324 13.5777C6.44252 13.5777 8.13533 13.582 8.30461 13.5728ZM8.79942 2.82378C8.81144 2.84006 8.81445 2.8471 8.81946 2.85015C9.23214 3.05569 9.6238 3.29909 9.99641 3.5728C10.0195 3.5901 10.0775 3.58282 10.1066 3.5645C12.147 2.2509 14.7713 2.70387 16.2558 4.64019C17.8064 6.65994 17.3346 9.20681 16.0515 10.6456C14.0952 12.8373 11.0672 12.6102 9.37038 10.8692C8.45386 9.92902 7.53133 8.99483 6.61281 8.05669C5.89061 7.32104 4.95806 8.34783 5.61014 9.00005C8.87756 12.2571 9.42347 13.2287 11.7403 13.5411C13.7837 13.8148 15.8161 13.0855 17.2124 11.3741C19.1306 9.01854 18.9723 5.6432 17.1202 3.52984C14.7142 0.785616 11.0431 0.912902 8.79942 2.82378ZM20 7.15972C20 11.1768 17.586 14.4817 12.9633 14.9986C12.4565 14.9986 6.3143 15.0086 5.81848 14.9791C-0.362769 14.5832 -2.35907 5.86437 3.49163 2.89019C4.5574 2.34786 5.81147 2.11898 7.18976 2.3062C7.22782 2.31231 7.28191 2.29461 7.30896 2.26714C11.4138 -1.99316 19.2317 -0.186681 20 7.15972Z" fill="#EBECF0"/>
</svg>
