<svg width="20" height="18" viewBox="0 0 20 18" fill="none" xmlns="http://www.w3.org/2000/svg">
<path d="M9.25215 16.88C11.8216 16.3574 13.9434 15.9249 13.9679 15.9191L14.0125 15.9083L11.587 12.5867C10.2526 10.7601 9.16146 9.25797 9.16146 9.24934C9.16146 9.2407 11.6661 1.29194 11.6805 1.26387C11.6856 1.25452 13.3899 4.64231 15.8125 9.47677L19.9683 17.7688L20 17.8322H12.2909H4.58179L9.25215 16.88Z" fill="#EBECF0"/>
<path d="M0 15.8666C0 15.8622 1.14294 13.5778 2.53995 10.7903L5.07989 5.72261L8.04304 2.86383C9.67108 1.2912 11.0076 0.00215921 11.0127 0C11.002 0.0476842 10.9861 0.0940332 10.9652 0.138189L7.74795 8.07399L4.58831 15.8687H2.29308C1.03282 15.8766 0 15.8716 0 15.8666Z" fill="#EBECF0"/>
</svg>
