<svg width="20" height="16" viewBox="0 0 20 16" fill="none" xmlns="http://www.w3.org/2000/svg">
<path fill-rule="evenodd" clip-rule="evenodd" d="M4.15407 0C3.01288 0 2.16848 0.998816 2.20628 2.08203C2.24254 3.12271 2.19542 4.47051 1.8561 5.56966C1.51577 6.672 0.940167 7.37033 0 7.46V8.47217C0.940167 8.56183 1.51577 9.26017 1.8561 10.3626C2.19542 11.4617 2.24254 12.8095 2.20628 13.8502C2.16848 14.9332 3.01288 15.9322 4.15423 15.9322H15.8474C16.9887 15.9322 17.8329 14.9334 17.7951 13.8502C17.7588 12.8095 17.8059 11.4617 18.1452 10.3626C18.4857 9.26017 19.0598 8.56183 20 8.47217V7.46C19.0598 7.37033 18.4857 6.672 18.1452 5.56966C17.8059 4.47067 17.7588 3.12271 17.7951 2.08203C17.8329 0.998983 16.9887 0 15.8474 0H4.15407ZM13.5593 9.80725C13.5593 11.2988 12.4467 12.2034 10.6005 12.2034H7.45762C7.36772 12.2034 7.2815 12.1677 7.21793 12.1041C7.15436 12.0405 7.11864 11.9543 7.11864 11.8644V4.0678C7.11864 3.97789 7.15436 3.89167 7.21793 3.8281C7.2815 3.76452 7.36772 3.72882 7.45762 3.72882H10.5826C12.122 3.72882 13.1323 4.56271 13.1323 5.84305C13.1323 6.74167 12.4528 7.54625 11.5868 7.68708V7.73408C12.7656 7.86342 13.5593 8.67967 13.5593 9.80725ZM10.2578 4.80339H8.46575V7.33458H9.97508C11.1418 7.33458 11.7852 6.86475 11.7852 6.02492C11.7852 5.23797 11.232 4.80339 10.2578 4.80339ZM8.46575 8.339V11.1285H10.3237C11.5385 11.1285 12.182 10.641 12.182 9.72492C12.182 8.80867 11.5205 8.33883 10.2456 8.33883L8.46575 8.339Z" fill="#EBECF0"/>
</svg>
