<svg width="703" height="935" viewBox="0 0 703 935" fill="none" xmlns="http://www.w3.org/2000/svg">
<g clip-path="url(#clip0_916_13)">
<path d="M301.088 76.0018C301.088 76.0018 304.502 104.124 336.228 105.57C367.954 107.016 365.896 80.0803 365.896 80.0803C365.896 80.0803 369.765 81.0747 374.304 74.2771C374.304 74.2771 383.579 63.2472 388.118 56.4495" fill="#D9DADD"/>
<path d="M301.088 76.0018C301.088 76.0018 304.502 104.124 336.228 105.57C367.954 107.016 365.896 80.0803 365.896 80.0803C365.896 80.0803 369.765 81.0747 374.304 74.2771C374.304 74.2771 383.579 63.2472 388.118 56.4495" stroke="black" stroke-width="2" stroke-linecap="round" stroke-linejoin="round"/>
<path d="M520.332 148.268C520.332 148.268 520.822 154.681 509.801 159.394C498.779 164.107 487.17 161.123 477.977 156.665C468.784 152.207 466.023 141.568 466.023 141.568C457.76 141.67 461.713 142.426 444.976 138.545C428.239 134.663 452.047 148.325 452.047 148.325C458.171 158.14 466.73 167.033 473.399 173.219C475.863 175.508 478.07 177.417 479.8 178.871L479.976 179.025L480.057 179.084C482.313 180.976 483.709 182.03 483.709 182.03C483.709 182.03 485.563 183.45 488.834 185.212L488.859 185.21L488.991 185.29C491.087 186.408 493.763 187.661 496.883 188.777L496.962 188.81L497.065 188.841C498.884 189.476 500.865 190.073 502.963 190.557L502.193 192.229C501.884 192.988 499.809 194.953 496.654 197.361L496.642 197.362C488.815 203.34 474.418 212.039 464.492 211.882C456.742 211.752 452.58 212.56 450.423 213.293C449.289 213.676 448.697 214.044 448.434 214.244C448.35 214.302 448.266 214.36 448.169 214.419L447.817 214.601C440.965 217.447 434.311 218.085 428.246 217.49C425.47 217.238 422.812 216.718 420.319 216.032C419.131 215.71 417.978 215.346 416.873 214.953C413.936 213.926 411.276 212.71 408.97 211.493L408.945 211.495L408.918 211.471C404.937 209.363 402.019 207.251 400.554 206.111C399.854 205.559 398.943 205.383 398.072 205.579C383.822 208.912 378.425 206.641 376.427 204.82C375.911 204.356 375.259 204.097 374.599 204.07C374.129 204.041 373.656 204.142 373.217 204.356C369.496 206.137 360.585 209.501 344.265 210.748C321.634 212.478 335.857 216.552 301.616 215.298C267.375 214.044 265.53 206.444 247.732 205.224C229.934 204.004 222.978 212.276 194.828 207.977C170.951 204.331 164.544 203.066 152.226 201.234C150.205 200.936 148.03 200.612 145.59 200.283C145.372 200.248 145.142 200.214 144.912 200.18C127.016 197.677 125.937 183.568 125.741 181.002C125.545 178.437 124.467 164.328 141.775 159.135C143.58 158.597 145.317 158.154 146.998 157.807C149.213 157.341 151.326 157.024 153.346 156.818C164.555 155.717 172.915 158.045 179.592 157.535C188.393 156.862 204.737 155.613 225.246 159.207C245.754 162.8 248.84 153.533 256.384 152.957C263.928 152.38 273.692 147.764 291.49 148.984C309.288 150.204 311.606 147.446 305.026 144.079C299.485 141.238 287.682 138.876 286.132 134.969C285.629 133.692 284.429 132.88 283.097 132.995C278.387 133.407 269.265 133.691 259.755 131.205C258.955 130.995 258.105 131.125 257.417 131.564C253.056 134.401 236.452 144.83 226.502 146.183C225.913 146.254 225.361 146.477 224.909 146.86C223.545 148.035 219.694 150.6 211.987 151.189C201.929 151.957 193.03 151.347 186.351 146.697C179.673 142.047 175.411 135.922 175.019 130.791C174.694 126.546 176.026 121.296 179.234 117.942C179.234 117.942 200.508 111.529 217.743 124.082C219.591 125.424 222.163 124.324 222.443 122.032C222.937 118.072 223.135 112.716 221.423 109.183C218.418 102.962 205.748 102.64 202.172 105.493C200.587 106.763 197.821 106.484 195.406 107.649C195.406 107.649 206.613 97.4132 207.87 97.3171C209.127 97.221 211.25 91.8982 221.308 91.1296C231.366 90.3609 243.351 81.7042 243.351 81.7042C243.351 81.7042 251.368 70.7703 264.333 74.9402C264.333 74.9402 266.749 73.4654 281.935 73.5951C281.935 73.5951 292.287 76.6744 301.088 76.0018C301.088 76.0018 301.989 71.2497 307.611 64.55C307.611 64.55 306.982 70.3908 309.595 71.4813C312.208 72.5718 338.807 73.1194 357.291 83.3182C357.291 83.3182 360.375 83.7921 358.928 76.4456L357.274 66.5476C357.274 66.5476 354.938 52.5344 343.329 49.5511C331.719 46.5679 321.759 48.6192 314.901 58.1743C314.901 58.1743 318.166 34.7021 336.437 25.5649C354.708 16.4277 375.119 18.7384 381.503 19.5407C385.819 20.0881 388.013 23.1459 388.982 25.0715C389.788 26.6743 390.726 28.1895 391.797 29.63C394.038 32.6454 397.131 37.8664 398.257 40.1929C401.262 46.4141 398.221 72.8236 402.518 79.4104C402.518 79.4104 413.415 92.0984 431.424 91.1093C435.24 90.908 438.804 89.2165 441.586 86.5655C444.215 84.0681 448.605 81.2813 454.592 82.3333C454.592 82.3333 464.16 75.1514 473.941 87.3054C473.941 87.3054 486.416 85.062 499.103 102.154C499.103 102.154 509.652 107.799 513.441 124.282C504.819 110.749 488.474 111.998 484.8 113.569C481.126 115.14 486.45 118.603 486.45 118.603C508.019 119.535 517.734 132.972 517.734 132.972C518.818 136.566 519.818 141.534 520.332 148.268Z" fill="#D9DADD" stroke="black" stroke-width="2.18" stroke-linecap="round" stroke-linejoin="round"/>
<path opacity="0.5" d="M130.348 165.981C130.348 165.981 133.97 184.76 155.002 180.96L159.542 180.793C159.542 180.793 197.208 189.81 212.493 182.798L218.428 181.854L221.952 186.435L229.623 183.385L243.355 181.045L263.22 175.063L272.144 172.021L283.484 171.154L292.004 166.632L304.847 158.284L307.165 155.527C307.165 155.527 309.919 159.122 317.44 157.928L309.058 163.742L306.73 169.365L298.577 175.535L294.948 178.354L289.222 202.053L274.233 204.489L242.115 197.912L212.038 201.501L191.823 201.755L158.644 197.84L134.115 190.451L126.168 184.105L125.842 176.195L127.868 169.615L130.349 165.994L130.348 165.981Z" fill="#5891A0"/>
<path d="M513.454 124.293C513.658 124.484 515.831 126.602 517.734 132.972L513.454 124.293Z" fill="#D9DADD"/>
<path d="M513.454 124.293C513.658 124.484 515.831 126.602 517.734 132.972" stroke="black" stroke-width="2.18" stroke-linecap="round" stroke-linejoin="round"/>
<path d="M357.291 83.3182C338.806 73.1194 312.207 72.5717 309.595 71.4812C306.982 70.3907 307.611 64.5499 307.611 64.5499C308.538 63.4469 309.628 62.3186 310.909 61.2015C310.16 62.6522 310.206 64.2484 310.426 65.483C310.642 66.6534 311.666 67.4783 312.831 67.4925C318.97 67.5652 339.608 68.5554 356.178 78.3587C357.542 79.1576 359.188 78.0255 358.928 76.4456C360.375 83.7921 357.291 83.3182 357.291 83.3182Z" fill="#D9DADD" stroke="black" stroke-width="2.18" stroke-linecap="round" stroke-linejoin="round"/>
<path d="M380.087 191.974L377.86 198.918L374.599 204.07C374.129 204.041 373.656 204.142 373.217 204.356C369.496 206.137 360.585 209.501 344.265 210.748C321.634 212.478 335.857 216.552 301.616 215.298C267.375 214.044 265.53 206.444 247.732 205.224C229.934 204.004 222.978 212.276 194.828 207.977C170.951 204.331 164.544 203.066 152.226 201.234C151.084 202.172 149.825 202.746 148.454 202.851C148.216 202.869 147.988 202.873 147.747 202.866C146.504 202.819 145.538 201.758 145.568 200.491C145.575 200.426 145.57 200.349 145.59 200.283C145.372 200.248 145.142 200.214 144.912 200.18C127.016 197.677 125.937 183.568 125.741 181.002C125.741 181.002 138.879 192.887 152.38 193.158L152.393 193.157L156.936 193.855C156.936 193.855 195.497 200.185 212.805 194.991C212.805 194.991 237.951 193.07 245.396 191.211C252.842 189.352 265.886 194.728 265.886 194.728C265.886 194.728 286.793 187.97 294.948 178.354L300.838 175.001L305.392 169.557L307.9 165.147L312.724 162.069L317.53 159.095L323.608 155.56L326.555 152.755L334.531 149.565C334.531 149.565 347.098 154.475 354.889 154.163L359.169 157.874L368.071 166.961L373.038 173.548L377.607 183.688L380.087 191.974Z" fill="#5891A0"/>
<path d="M584.146 222.09C579.215 223.757 573.125 226.803 561.417 222.537C549.71 218.271 538.573 204.931 538.573 204.931C525.902 204.609 509.737 191.652 509.737 191.652C507.368 191.434 505.1 191.052 502.963 190.557C491.377 187.882 483.709 182.03 483.709 182.03C483.709 182.03 463.575 166.797 452.047 148.326C452.047 148.326 428.239 134.663 444.976 138.545C461.713 142.426 457.76 141.67 466.023 141.568C466.023 141.568 468.784 152.207 477.977 156.665C487.17 161.123 498.779 164.107 509.801 159.394C520.822 154.681 520.332 148.268 520.332 148.268C527.011 152.918 533.787 158.851 540.27 160.936C546.752 163.021 554.688 167.575 561.464 173.508C568.241 179.441 559.44 180.113 579.279 191.499C599.119 202.884 589.077 220.423 584.146 222.09Z" fill="#D9DADD" stroke="black" stroke-width="2" stroke-linecap="round" stroke-linejoin="round"/>
<path opacity="0.5" d="M589.943 202.631C589.943 202.631 569.042 219.374 535.886 184.494C535.886 184.494 525.493 182.708 513.394 173.311C513.394 173.311 511.191 174.769 505.95 173.88C505.95 173.88 501.283 175.527 497.854 174.498C497.854 174.498 478.085 164.372 472.365 152.566L467.373 145.167L466.01 141.569L457.831 141.433L455.176 140.616L457.946 148.739L467.442 160.463L479.137 172.174L491.227 181.456L511.932 187.614L525.123 194.244L535.543 198.711L544.965 206.158L558.387 216.318L568.838 220.68L578.233 223.149L581.892 222.869L586.366 220.527L588.759 218.074L590.238 212.942L590.957 206.462L589.918 202.632L589.943 202.631Z" fill="#5891A0"/>
<path d="M358.928 76.4456C359.188 78.0255 357.542 79.1576 356.178 78.3587C339.609 68.5554 318.97 67.5652 312.831 67.4925C311.667 67.4783 310.642 66.6534 310.427 65.483C310.206 64.2484 310.16 62.6522 310.909 61.2015C312.07 60.1839 313.396 59.1665 314.901 58.1742C321.759 48.6191 331.719 46.5678 343.329 49.5511C354.938 52.5343 357.274 66.5475 357.274 66.5475L358.928 76.4456Z" fill="#EBECF0" stroke="black" stroke-width="2" stroke-linecap="round" stroke-linejoin="round"/>
<path d="M517.734 132.972C517.734 132.972 508.019 119.535 486.45 118.603C486.45 118.603 481.126 115.14 484.8 113.569C488.474 111.998 504.819 110.749 513.441 124.282L513.453 124.281L517.734 132.972Z" fill="#EBECF0" stroke="black" stroke-width="2" stroke-linecap="round" stroke-linejoin="round"/>
<path d="M222.443 122.032C222.163 124.324 219.591 125.424 217.743 124.081C200.508 111.529 179.234 117.942 179.234 117.942C179.901 117.233 180.651 116.621 181.484 116.105C184.771 114.1 190.259 110.132 195.406 107.649C197.821 106.484 200.587 106.763 202.172 105.493C205.748 102.64 218.418 102.962 221.423 109.183C223.135 112.716 222.937 118.072 222.443 122.032Z" fill="#EBECF0" stroke="black" stroke-width="2" stroke-linecap="round" stroke-linejoin="round"/>
<path opacity="0.5" d="M359.156 81.421C359.156 81.421 360.767 79.1691 365.895 80.0675L366.308 85.4803L363.293 90.8713L359.835 98.2443L350.085 104.872L339.43 105.609L327.19 104.958L318.145 100.785L309.354 93.6515L301.922 79.7956L302.113 73.0335L304.648 68.4791L307.597 64.5381L307.782 69.9297L309.581 71.4694L316.694 71.8677L326.25 73.6274L337.452 75.5839L347.326 79.3577L357.277 83.3063L359.144 81.422L359.156 81.421Z" fill="#5891A0"/>
<g opacity="0.3">
<path d="M344.877 86.6924C344.84 89.3529 337.327 91.9913 329.165 90.0992C320.98 88.2348 316.5 83.2359 317.797 81.008C319.1 78.7022 324.748 79.4576 331.699 80.8875C338.618 82.3972 344.975 84.0014 344.877 86.6924Z" fill="#EBECF0"/>
</g>
<path d="M272.143 172.008C272.143 172.008 234.652 183.001 216.854 181.781C216.854 181.781 221.008 186.495 217.584 191.336C217.584 191.336 264.124 172.827 281.239 174.538C283.685 174.777 286.101 173.792 287.811 172.01L293.972 165.579L272.131 172.022L272.143 172.008Z" fill="#5891A0"/>
<path opacity="0.5" d="M393.839 100.368C393.839 100.368 392.942 102.036 385.476 104.129C378.01 106.222 372.413 106.121 372.413 106.121L360.311 106.297C360.311 106.297 349.531 114.668 360.259 122.325C370.986 129.981 376.636 121.667 386.231 122.946C395.826 124.226 404.35 136.476 416.923 135.515C429.496 134.554 427.16 120.541 427.16 120.541C427.16 120.541 426.642 113.756 410.155 104.875L403.449 101.685L393.838 100.355L393.839 100.368Z" fill="#5891A0"/>
<path d="M355.153 104.498L352.563 103.032L358.539 99.1562L363.485 92.5597L365.933 84.206L365.908 80.0794L369.33 79.018L379.722 67.2189L382.492 64.9171L382.699 70.1007L383.51 78.7343L384.053 85.3371L385.033 89.2358C385.033 89.2358 385.791 96.3382 393.852 100.38C393.852 100.38 391.796 103.427 385.49 104.141C379.183 104.855 375.451 105.992 375.451 105.992L366.542 106.582L357.712 105.219L355.153 104.498Z" fill="#5891A0"/>
<path d="M373.703 149.152C375.039 150.082 378.385 150.845 378.385 150.845L389.316 154.371L402.148 157.299L416.89 160.404L425.243 160.321L435.468 161.9L447.035 165.48L456.967 171.172C456.967 171.172 463.96 175.966 473.387 173.22L479.963 179.014L488.846 185.211L496.948 188.798L502.95 190.546L502.179 192.217L496.641 197.349L488.018 204.498L473.091 211.547L459.632 212.163L450.409 213.281L447.803 214.589L439.165 217.069L428.233 217.491L418.614 215.723L408.931 211.483L400.541 206.112L394.102 195.329L384.689 178.386L375.644 159.325L373.703 149.152Z" fill="#4B808C"/>
<path d="M534.205 189.138C534.205 189.138 518.848 186.763 511.234 178.146C511.234 178.146 509.366 181.669 500.107 178.997C500.107 178.997 482.256 179.561 456.488 140.245L448.903 139.457L440.307 137.843L439.151 140.422L442.88 142.717L448.719 145.987L452.827 149.762L465.477 165.374L476.156 176.028L488.858 185.197L502.961 190.532L509.735 191.627L515.167 195.688L525.041 201.114L534.936 204.499L538.571 204.905L535.567 198.684L534.139 194.071L534.203 189.112L534.205 189.138Z" fill="#5891A0"/>
<path d="M584.146 222.09C584.146 222.09 552.706 216.107 534.205 189.138L534.271 195.802L537.218 203.744L542.719 209.374L550.146 216.367L558.148 221.123L568.419 224.131L576.088 223.545L584.134 222.091L584.146 222.09Z" fill="#5891A0"/>
<path d="M330.388 198.275C329.53 198.805 326.76 200.281 325.793 200.536C320.29 202.001 305.925 204.66 305.365 197.672C304.696 189.246 312.156 183.761 316.163 181.919C322.869 178.827 321.318 175.075 326.151 172.125C330.984 169.175 349.748 166.49 355.463 175.071C361.177 183.653 353.664 199.193 345.636 199.393C338.366 199.575 335.18 195.29 330.388 198.275Z" fill="#7DACB7"/>
<path d="M356.717 155.74C356.717 155.74 363.937 161.019 374.723 157.86L379.77 168.969L392.942 193.224L399.181 203.868L398.072 205.579L391.429 207.015L381.228 206.905L375.468 203.848L376.822 200.055L379.066 194.336L378.563 187.756L376.768 179.159L370.735 170.215L363.326 161.969L356.716 155.727L356.717 155.74Z" fill="#5891A0"/>
<path d="M519.641 141.87C519.641 141.87 495.914 165.332 466.795 128.994L461.991 122.072L463.247 129.407C463.247 129.407 452.226 134.12 431.325 125.396L434.169 132.984L438.962 137.959L444.977 138.557L451.71 140.275L463.497 141.774L466.024 141.581L469.888 150.11L477.978 156.678L485.918 159.8L494.812 161.842L503.516 161.887L511.851 159.25L516.366 155.447L520.315 150.862L520.111 145.537L519.629 141.884L519.641 141.87Z" fill="#6DA3AF"/>
<path opacity="0.5" d="M514.826 129.827C514.826 129.827 496.248 147.528 461.304 120.525C461.304 120.525 460.635 128.317 431.129 122.831L432.877 129.148L448.65 136.974L467.393 136.819L475.935 146.5L495.665 155.791L511.825 152.788L516.359 149.887L520.122 145.523L519.422 136.352L514.826 129.827Z" fill="#6DA3AF"/>
<path d="M302.705 71.0145C302.705 71.0145 305.853 88.5393 322.883 96.2689C339.914 103.998 356.192 98.7292 365.248 86.5032L363.473 92.5607L359.836 98.2572L350.086 104.885L336.228 105.57L318.158 100.797L309.368 93.6635L301.48 81.1325L300.945 74.1292L302.692 71.0154L302.705 71.0145Z" fill="#5891A0"/>
<path d="M174.992 128.948C174.992 128.948 187.816 149.153 221.174 138.863C254.533 128.572 261.68 112.544 261.68 112.544C261.68 112.544 264.876 117.964 269.371 117.375C269.371 117.375 270.602 123.551 286.03 126.849C301.457 130.147 317.231 137.973 317.231 137.973C317.231 137.973 318.705 145.356 308.931 147.522L305.05 144.064L298.278 140.673L288.276 137.876L286.157 134.967L283.123 132.993L276.376 133.083L262.304 131.797L257.443 131.563L254.054 133.718L241.599 141.185L232.976 144.192L226.527 146.181L222.945 148.623L216.043 150.647L206.078 151.318L192.342 150.123L186.389 146.694L178.992 139.764L175.479 134.833L175.03 128.958L174.992 128.948Z" fill="#5891A0"/>
<path opacity="0.5" d="M190.001 116.345C190.001 116.345 189.626 139.416 220.337 131.869C251.047 124.323 262.138 109.929 262.138 109.929C262.138 109.929 263.031 115.667 270.575 115.09C278.119 114.514 310.525 132.641 321.891 132.766L317.218 137.974L309.772 139.833L290.227 132.295L272.314 125.923L255.315 127.222L243.859 133.194L226.485 142.327L198.437 147.309L184.603 140.367L176.471 133.248L174.911 128.064L176.846 121.608L179.233 117.929L186.042 116.338L189.988 116.346L190.001 116.345Z" fill="#5891A0"/>
<path d="M194.573 106.681C198.567 103.176 202.343 99.4556 206.776 96.4074C206.858 96.3238 207.472 96.0833 207.759 96.0356C207.722 96.0384 207.697 96.0404 207.659 96.0432C207.596 96.048 207.513 96.1189 207.56 96.0766C207.583 96.049 207.621 96.0461 207.715 95.9487C210.273 93.1857 213.856 91.08 217.532 90.3733C219.759 89.8934 222.172 89.8638 224.371 89.3475C230.918 87.8022 237.06 84.4428 242.613 80.6512L242.331 80.9308C243.703 79.2003 245.194 77.8479 246.882 76.6093C251.955 72.8286 258.713 71.7316 264.694 73.7129L263.666 73.8301C265.204 73.1062 266.867 73.0179 268.506 72.7894C273.076 72.3499 277.68 72.2044 282.245 72.3587C288.289 73.9998 294.734 75.107 300.977 74.7203C301.656 74.6684 302.239 75.1786 302.328 75.8427C303.596 83.3319 307.476 90.5828 313.121 95.6087C325.165 106.932 355.306 109.144 362.55 91.238C364.033 87.8089 364.755 83.8575 364.626 80.1775L366.192 78.8322C369.268 78.7003 371.548 75.778 373.261 73.3636C378.151 67.6874 382.624 61.6818 387.77 56.2054C390.761 54.9704 382.766 65.8511 382.357 66.2951C380.07 69.2954 377.782 72.2956 375.334 75.1791C373.588 77.8154 369.783 82.1315 365.585 81.3169L367.152 79.9716C367.304 84.2819 366.518 88.3931 364.867 92.2736C359.912 104.547 345.48 108.153 333.638 106.594C329.708 106.301 325.551 105.354 321.874 103.906C319.989 103.238 318.138 102.192 316.383 101.23C314.852 100.224 312.758 98.8102 311.473 97.5409C305.31 92.0256 301.223 84.3905 299.836 76.1622L301.186 77.2846C297.84 77.5145 294.522 77.2907 291.263 76.8431C288.552 76.4568 283.253 75.4555 281.932 74.8855C276.298 74.9677 270.523 74.6866 265.024 76.0486C264.987 76.0515 264.866 76.1252 264.987 76.0515L263.959 76.1687C256.721 73.6384 248.721 76.8429 244.089 82.7575C237.209 87.3859 229.673 91.5355 221.343 92.4172C218.189 92.684 214.775 93.5126 212.213 95.3985C211.007 96.1744 210.079 97.4323 208.819 98.3156C208.7 98.415 208.243 98.5531 208.017 98.5832C207.954 98.588 208.019 98.6089 208.019 98.6089C208.084 98.6298 208.166 98.5461 208.022 98.6474C207.659 98.8558 207.18 99.2149 206.738 99.5454C203.171 102.347 199.694 105.502 196.263 108.603C195.742 109.068 194.942 109.026 194.484 108.494C194.026 107.961 194.065 107.145 194.586 106.68L194.573 106.681Z" fill="black"/>
<path d="M301.088 76.002C301.088 76.002 301.659 66.9273 314.901 58.1744C314.901 58.1744 318.166 34.7022 336.437 25.5651C354.708 16.4279 375.119 18.7386 381.503 19.5408C385.819 20.0883 388.013 23.146 388.982 25.0717C389.788 26.6744 390.726 28.1897 391.796 29.6173C394.037 32.6327 397.13 37.8537 398.256 40.1803C401.261 46.4014 398.22 72.8109 402.518 79.3977C402.518 79.3977 411.514 89.8829 426.689 91.0455C432.337 91.4783 437.965 89.6549 442.271 85.9327C444.953 83.6248 449.105 81.3594 454.591 82.3206C454.591 82.3206 464.159 75.1387 473.94 87.2927C473.94 87.2927 486.415 85.0493 499.103 102.142C499.103 102.142 509.651 107.786 513.44 124.269C513.44 124.269 518.861 129.015 520.331 148.255" stroke="black" stroke-width="2.18" stroke-linecap="round" stroke-linejoin="round"/>
<path d="M452.047 148.326C452.047 148.326 428.239 134.663 444.976 138.545C461.713 142.426 457.76 141.671 466.023 141.568C466.023 141.568 468.784 152.207 477.977 156.665C487.17 161.123 498.779 164.107 509.801 159.394C520.822 154.681 520.332 148.268 520.332 148.268C527.011 152.918 533.787 158.851 540.27 160.936C546.752 163.021 554.688 167.575 561.464 173.508C568.241 179.441 559.44 180.113 579.279 191.499C599.119 202.884 589.077 220.424 584.146 222.091C579.215 223.757 573.125 226.803 561.417 222.537C549.71 218.271 538.573 204.931 538.573 204.931C525.902 204.609 509.737 191.653 509.737 191.653C494.453 190.24 483.709 182.03 483.709 182.03C483.709 182.03 463.575 166.797 452.047 148.326Z" stroke="black" stroke-width="2" stroke-linecap="round" stroke-linejoin="round"/>
<path d="M314.901 58.1743C321.759 48.6192 331.719 46.5679 343.328 49.5512C354.938 52.5344 357.274 66.5476 357.274 66.5476L358.928 76.4457C359.188 78.0256 357.542 79.1577 356.191 78.3579C339.621 68.5546 318.983 67.5644 312.844 67.4916C311.679 67.4774 310.655 66.6526 310.439 65.4821C310.223 64.3117 310.16 62.6523 310.921 61.2007" stroke="black" stroke-width="2" stroke-linecap="round" stroke-linejoin="round"/>
<path d="M307.611 64.5501C307.611 64.5501 306.982 70.391 309.595 71.4815C312.208 72.572 338.807 73.1196 357.291 83.3184C357.291 83.3184 360.375 83.7923 358.928 76.4458" stroke="black" stroke-width="2" stroke-linecap="round" stroke-linejoin="round"/>
<path d="M374.414 202.303C381.233 193.409 376.714 180.943 370.804 172.777C370.464 172.3 369.58 170.987 369.252 170.509C368.849 170.023 366.747 167.513 366.314 166.979C362.388 162.26 357.73 158.075 353.414 153.721C352.846 153.236 353.57 152.29 354.175 152.76C357.155 155.022 360.231 157.213 362.924 159.845C363.897 160.829 366.086 162.829 367.007 163.791C368.13 165.085 370.214 167.532 371.338 168.84C372.564 170.655 374.032 172.479 375.149 174.354C380.637 182.953 383.501 195.61 376.208 204.102C375.017 205.392 373.168 203.547 374.413 202.291L374.414 202.303Z" fill="black"/>
<path d="M392.674 99.5279C403.752 97.0429 415.601 104.485 420.755 114.335C421.018 114.792 420.372 115.28 420.025 114.881C414.49 109.137 407.983 104.577 400.398 102.305C397.913 101.553 395.369 101.038 392.753 100.386C392.318 100.329 392.254 99.6504 392.687 99.527L392.674 99.5279Z" fill="black"/>
<path d="M395.785 100.684C391.991 91.7489 392.994 81.6994 395.292 72.5572C395.407 72.0711 396.151 72.2078 396.087 72.7029C395.137 80.6196 394.711 88.7802 396.759 96.5452C397.033 97.6467 397.411 98.7918 397.835 99.7013C398.432 101.062 396.457 102.026 395.798 100.683L395.785 100.684Z" fill="black"/>
<path d="M517.746 132.958C517.746 132.958 508.031 119.522 486.461 118.59C486.461 118.59 481.138 115.126 484.812 113.555C488.486 111.984 504.83 110.735 513.452 124.268L517.746 132.958Z" stroke="black" stroke-width="2" stroke-linecap="round" stroke-linejoin="round"/>
<path d="M179.234 117.942C179.234 117.942 200.508 111.53 217.742 124.069C219.59 125.411 222.162 124.312 222.454 122.019C222.936 118.06 223.135 112.716 221.435 109.169C218.43 102.948 205.759 102.626 202.183 105.48C200.598 106.749 197.833 106.47 195.418 107.635C190.271 110.119 184.782 114.086 181.496 116.092C176.663 119.041 174.638 125.647 175.03 130.778C175.422 135.908 179.684 142.033 186.363 146.683C193.041 151.334 201.94 151.944 211.998 151.175C219.706 150.586 223.556 148.021 224.921 146.846C225.372 146.463 225.924 146.241 226.5 146.158C236.45 144.804 253.054 134.375 257.416 131.552C258.115 131.098 258.954 130.983 259.766 131.191C269.277 133.677 278.397 133.38 283.108 132.969C284.44 132.854 285.641 133.678 286.142 134.943C287.694 138.862 299.484 141.226 305.036 144.052C311.617 147.42 309.298 150.177 291.5 148.957C273.702 147.737 263.938 152.354 256.394 152.93C248.851 153.507 245.765 162.774 225.256 159.18C204.748 155.587 188.403 156.836 179.602 157.508C170.801 158.181 159.094 153.915 141.786 159.108C124.478 164.301 125.556 178.411 125.752 180.976C125.948 183.541 127.026 197.65 144.922 200.153C162.818 202.656 166.688 203.651 194.838 207.95C222.989 212.25 229.944 203.977 247.742 205.197C265.54 206.418 267.386 214.017 301.626 215.271C335.867 216.525 321.645 212.451 344.276 210.722C360.583 209.476 369.494 206.111 373.215 204.33C374.314 203.808 375.583 204.033 376.505 204.853C378.553 206.658 383.981 208.849 398.083 205.552C398.94 205.345 399.852 205.533 400.564 206.085C405.351 209.809 425.53 223.813 447.815 214.576C448.035 214.481 448.242 214.375 448.433 214.232C449.198 213.644 452.652 211.677 464.49 211.869C478.419 212.095 501.131 194.878 502.192 192.216" stroke="black" stroke-width="2" stroke-linecap="round" stroke-linejoin="round"/>
<path d="M487.617 184.351C481.335 196.803 465.699 199.224 453.288 197.824C452.588 197.774 452.606 196.689 453.313 196.674C453.313 196.674 458.012 196.599 458.013 196.612C461.031 196.381 464.21 196.112 467.15 195.371C474.261 193.77 481.551 189.871 485.289 183.342C485.965 181.767 488.267 182.766 487.605 184.364L487.617 184.351Z" fill="black"/>
<path d="M384.358 64.3489C383.695 72.5533 383.655 80.9553 385.611 89.0112C385.804 89.7189 384.76 90.1212 384.444 89.4616C381.519 83.6214 381.256 76.8682 381.359 70.4483C381.423 68.3018 381.565 66.188 381.866 64.0104C381.964 63.3062 382.597 62.8192 383.288 62.9212C383.966 63.0242 384.445 63.6585 384.371 64.3479L384.358 64.3489Z" fill="black"/>
<path d="M386.251 104.341C374.81 107.705 361.927 109.567 350.563 104.836C349.922 104.55 349.636 103.797 349.915 103.144C350.172 102.531 350.857 102.233 351.468 102.445C362.579 106.188 374.644 105.37 386.068 103.606C386.516 103.508 386.709 104.215 386.265 104.353L386.251 104.341Z" fill="black"/>
<path d="M337.104 148.478C328.709 153.3 319.591 157.106 312.477 163.804C309.045 167.382 306.227 171.545 302.359 174.717C298.532 178.08 293.958 180.623 289.123 181.896C288.579 182.054 288.226 181.242 288.735 180.945C294.989 177.229 300.71 172.831 305.375 167.185C308.442 163.131 312.087 159.369 316.445 156.817C322.821 152.873 329.571 149.518 336.828 147.674C337.274 147.562 337.541 148.238 337.115 148.452L337.104 148.478Z" fill="black"/>
<path d="M308.699 154.584C306.241 158.333 302.844 161.198 299.297 163.766C292.202 169.056 283.728 172.193 274.977 173.185C272.796 173.442 270.554 173.561 268.304 173.243C266.126 173.035 264.388 171.813 262.209 172.251C261.984 172.294 261.77 172.143 261.728 171.914C261.702 171.748 261.766 171.588 261.898 171.501C262.835 170.848 264.207 170.602 265.352 170.695C270.575 171.186 275.656 170.153 280.739 168.99C286.826 167.557 292.594 165.091 297.88 161.616C301.422 159.307 304.666 156.582 307.98 153.942C308.368 153.564 309.031 154.12 308.712 154.583L308.699 154.584Z" fill="black"/>
<path d="M210.082 161.514C217.372 167.704 219.74 178.18 218.994 187.449C218.844 188.789 218.641 190.107 218.401 191.429C218.322 191.887 217.89 192.19 217.441 192.109C217.017 192.025 216.748 191.646 216.754 191.232C216.942 181.116 215.56 170.475 209.557 162.083C209.241 161.759 209.718 161.219 210.07 161.515L210.082 161.514Z" fill="black"/>
<path d="M210.609 203.816C213.944 193.021 212.376 181.271 208.062 170.983C207.926 170.697 208.363 170.457 208.524 170.741C214.262 180.624 215.056 193.336 211.027 203.991C210.921 204.257 210.503 204.095 210.621 203.815L210.609 203.816Z" fill="black"/>
<path d="M257.432 201.09C264.032 196.612 269.082 190.214 273.641 183.672C273.881 183.332 274.437 183.663 274.238 184.04C270.582 191.299 265.141 198.217 257.658 201.576C257.364 201.688 257.165 201.239 257.444 201.089L257.432 201.09Z" fill="black"/>
<path d="M315.465 139.024C320.217 130.223 331.027 129.191 339.615 131.85C347.895 133.797 355.505 139.06 363.511 140.887C368.208 141.947 375.339 142.254 380.195 142.76C391.489 143.6 402.759 144.119 414.005 142.834C424.682 142.057 438.348 148.289 445.461 156.312C445.616 156.519 445.562 156.807 445.36 156.965C445.156 157.109 444.899 157.064 444.734 156.883C442.816 154.953 440.312 153.467 437.904 152.077C429.419 147.281 419.701 144.231 410.017 146.093C400.035 147.036 389.958 146.723 379.973 146.131C371.352 145.526 362.353 145.259 354.387 141.468C342.863 135.962 326.96 128.43 316.594 139.737C316.189 140.388 315.058 139.829 315.466 139.037L315.465 139.024Z" fill="black"/>
<path d="M459.509 173.326C448.779 168.289 437.757 162.396 425.836 161.953C423.074 162.061 420.014 162.23 417.31 161.933C402.248 160.104 387.808 155.66 373.874 149.732C373.613 149.623 373.5 149.309 373.62 149.055C373.727 148.802 374.009 148.69 374.256 148.774C388.38 153.049 402.889 157.565 417.551 158.961C420.237 159.194 423.148 159.049 425.82 158.935C434.508 159.097 442.751 162.544 450.394 166.411C453.742 168.193 457.011 170.098 460.114 172.312C460.688 172.707 460.144 173.69 459.51 173.339L459.509 173.326Z" fill="black"/>
<path d="M306.166 125.904C314.987 124.34 323.981 122.878 332.091 118.956C337.495 116.195 342.1 111.082 348.516 110.811C349.604 110.818 350.727 110.952 351.687 111.769C351.835 111.886 351.852 112.104 351.724 112.243C351.584 112.409 351.368 112.386 351.207 112.27C347.565 110.781 343.689 113.683 340.69 115.641C337.444 118.173 334.198 120.872 330.336 122.47C326.507 124.156 322.525 125.338 318.473 126.099C314.421 126.86 310.312 127.2 306.187 126.999C305.553 126.983 305.501 125.968 306.141 125.906L306.166 125.904Z" fill="black"/>
<path d="M400.565 206.098C400.565 206.098 381.487 175.379 374.645 156.679L400.565 206.098Z" fill="#D9DADD"/>
<path d="M399.396 206.845C394.344 198.987 389.644 190.935 385.281 182.663C380.905 174.392 376.67 165.968 374.043 156.906C373.835 156.173 374.902 155.743 375.223 156.467C381.168 169.056 387.829 181.255 394.745 193.318C394.746 193.331 401.722 205.351 401.736 205.363C402.613 206.909 400.409 208.355 399.396 206.845Z" fill="black"/>
<path d="M271.241 109.234C273.081 116.769 266.869 123.682 260.841 127.045C260.574 127.195 260.315 126.789 260.566 126.602C265.765 122.141 270.274 116.442 270.815 109.292C270.821 109.046 271.185 109.006 271.242 109.259L271.241 109.234Z" fill="black"/>
<path d="M258.173 124.075C260.606 115.865 262.67 107.295 261.997 98.6511C261.971 98.3176 262.458 98.2289 262.533 98.5585C264.485 107.221 261.838 116.261 258.656 124.271C258.527 124.565 258.071 124.393 258.173 124.075Z" fill="black"/>
<path d="M262.734 81.4874C274.435 85.6635 278.84 99.7894 277.589 111.38C277.559 111.821 276.888 111.808 276.879 111.357C276.448 100.256 273.187 87.3716 262.5 82.2278C262.033 82.0828 262.254 81.3305 262.734 81.4874Z" fill="black"/>
<path d="M537.667 205.813C528.963 195.847 532.885 182.297 542.261 174.588C542.673 174.183 543.339 174.79 542.983 175.256C542.159 176.389 541.319 177.486 540.479 178.569C538.266 181.886 536.366 185.476 535.658 189.452C534.811 194.587 536.35 200.172 539.574 204.132C540.582 205.396 538.745 207.008 537.666 205.8L537.667 205.813Z" fill="black"/>
<path d="M510.387 186.429C509.795 179.508 512.239 169.284 520.49 169.027C520.716 169.01 520.756 169.368 520.518 169.399C513.153 171.162 511.564 179.824 510.817 186.422C510.811 186.681 510.395 186.7 510.387 186.429Z" fill="black"/>
<path d="M505.154 184.971C500.438 182.003 497.332 176.615 496.593 171.073C496.546 170.793 496.968 170.683 497.065 170.959C498.736 176.121 501.563 180.834 505.382 184.644C505.571 184.798 505.355 185.124 505.142 184.985L505.154 184.971Z" fill="black"/>
<path d="M506.119 178.563C504.39 171.999 506.191 164.946 509.246 159.088C509.412 158.778 509.782 158.647 510.098 158.816C510.401 158.974 510.518 159.352 510.378 159.659C507.571 165.46 505.956 171.97 506.491 178.47C506.533 178.686 506.187 178.79 506.131 178.562L506.119 178.563Z" fill="black"/>
<path d="M473.772 88.5698C466.707 87.7938 459.405 90.545 454.064 95.2881C452.025 95.7535 457.448 91.4171 457.907 91.1368C460.971 88.8643 464.528 87.2507 468.248 86.4504C469.662 86.252 475.434 84.8304 475.228 87.4393C475.158 88.18 474.476 88.6837 473.759 88.5708L473.772 88.5698Z" fill="black"/>
<path d="M464.825 141.943C463.519 138.418 463.007 134.703 462.358 131.011C461.811 127.324 461.398 123.575 461.604 119.818C461.616 119.65 461.746 119.524 461.911 119.537C462.064 119.551 462.174 119.671 462.186 119.825C462.503 123.478 463.321 127.067 464.25 130.608C465.103 134.168 466.43 137.628 467.221 141.193C467.552 142.715 465.353 143.387 464.811 141.931L464.825 141.943Z" fill="black"/>
<path d="M455.001 83.5536C452.15 85.139 450.541 88.4099 449.744 91.5542L449.382 93.1043C449.319 93.4317 448.809 93.3803 448.809 93.0449C448.545 88.6011 449.655 82.9428 454.194 81.0994C455.802 80.6282 456.505 82.8838 455 83.5407L455.001 83.5536Z" fill="black"/>
<path d="M438.135 139.209C433.212 135.186 429.818 128.672 430.649 122.171C430.661 122.002 430.815 121.862 430.981 121.888C431.147 121.901 431.273 122.059 431.272 122.214C431.324 125.216 432.192 128.13 433.823 130.611C435.335 133.024 437.596 135.135 439.853 136.704C441.436 137.886 439.774 140.31 438.147 139.208L438.135 139.209Z" fill="black"/>
<path d="M433.65 203.479C436.331 208.112 441.176 210.942 446.291 211.854C447.998 212.175 449.771 212.375 451.475 212.335C451.827 212.308 452.114 212.583 452.141 212.942C452.166 213.263 451.934 213.538 451.635 213.6C447.038 214.506 442.396 214.5 437.824 213.752C431.54 212.775 425.534 210.305 420.218 206.763C419.218 206.092 417.048 204.335 416.057 203.611C415.252 202.847 413.045 200.771 412.266 200.017C411.517 199.146 409.664 196.913 408.9 196.017C407.506 194.162 406.303 192.151 405.043 190.222C404.841 189.902 405.322 189.569 405.537 189.901C406.848 191.503 408.39 193.811 409.722 195.348C410.497 196.23 412.378 198.331 413.125 199.177C413.9 199.879 416.053 201.908 416.856 202.66L419.555 204.711C428.552 211.403 440.396 214.304 451.339 212.371L451.524 213.634C444.319 214.017 436.223 210.83 433.202 203.733C433.053 203.447 433.504 203.219 433.652 203.505L433.65 203.479Z" fill="black"/>
<path d="M354.973 24.6904C368.285 22.3185 385.154 29.0928 387.4 44.0804C387.447 44.3607 387.038 44.4694 386.941 44.1929C382.571 29.5482 368.708 25.0342 355.002 25.0752C354.776 25.0925 354.722 24.7225 354.96 24.6914L354.973 24.6904Z" fill="black"/>
<path d="M356.182 27.1138C363.543 26.7835 372.601 30.3101 374.939 38.0659C375.024 38.3561 374.609 38.5426 374.462 38.2829C370.483 31.7234 363.405 28.6261 356.182 27.4364C356.004 27.4242 356.006 27.1272 356.182 27.1138Z" fill="black"/>
<path d="M159.6 179.408C159.444 184.478 158.524 189.657 156.935 193.855C155.737 197.043 154.155 199.667 152.226 201.234C151.084 202.172 149.825 202.746 148.454 202.851C148.215 202.869 147.988 202.873 147.747 202.866C146.504 202.819 145.538 201.758 145.568 200.491C145.575 200.426 145.57 200.349 145.59 200.283C145.728 199.111 146.737 198.247 147.902 198.274C149.273 198.337 150.978 196.491 152.38 193.158C153.784 189.852 154.899 185.083 155.085 179.237C155.262 173.779 154.579 168.645 153.146 164.781C152.001 161.721 150.474 159.773 149.143 159.733C148.065 159.699 147.168 158.877 146.998 157.807C146.974 157.667 146.962 157.5 146.962 157.345C147.005 156.077 148.054 155.081 149.284 155.129C150.756 155.184 152.115 155.764 153.346 156.818C154.93 158.181 156.308 160.321 157.36 163.169C159 167.585 159.794 173.343 159.6 179.408Z" fill="#214859" stroke="black" stroke-miterlimit="10"/>
<path d="M222.723 151.014C221.958 151.601 218.368 152.275 217.694 151.398C217.468 151.093 217.812 151.789 217.694 151.398C217.191 149.785 221.039 149.168 222.527 148.448C230.672 144.484 232.514 130.862 227.654 119.067C224.658 111.8 220.018 106.684 214.59 104.661C211.036 103.333 207.342 103.486 204.189 105.081C202.703 105.827 197.492 107.967 196.563 106.567C195.462 104.897 199.498 101.944 201.2 101.052C206.003 98.5308 210.964 97.9194 216.287 99.8994C223.434 102.566 229.051 107.723 232.747 116.704C239.083 132.088 234.097 143.139 225.139 149.539C224.816 149.77 223.1 150.985 222.723 151.014Z" fill="#214859"/>
<path d="M222.958 151.615C222.321 152.038 221.163 152.281 220.298 152.386C219.336 152.537 217.729 152.518 217.259 151.831C217.515 152.366 218.786 150.966 218.233 151.176L218.23 151.138C217.995 151.207 218.755 150.891 217.348 151.011C216.899 151.755 217.223 151.524 217.127 151.596C216.97 151.195 217.082 150.503 217.373 150.184C218.421 148.994 219.896 148.778 221.211 148.278C224.384 147.261 226.776 144.472 228.051 141.304C232.817 129.2 226.825 110.538 214.631 105.367C211.5 104.11 207.905 104.062 204.864 105.481C202.943 106.312 197.673 109.011 196.029 106.866C195.488 106.069 195.892 104.903 196.351 104.287C198.733 101.202 202.127 99.6139 205.594 98.6394C212.731 96.7136 220.211 99.9478 225.552 104.791C230.875 109.751 234.073 116.68 235.564 123.778C238.093 134.693 232.749 146.519 222.97 151.601L222.958 151.615ZM222.512 150.41C228.491 147.231 233.482 141.38 234.661 134.465C236.38 124.36 231.913 112.742 224.701 105.746C219.689 101.213 212.607 98.0776 205.904 99.8929C202.745 100.754 199.379 102.378 197.393 105.02C197.177 105.333 197.039 105.679 197.031 105.912C197.048 106.13 197.055 106.22 197.29 106.318C199.588 106.607 202.18 105.274 204.346 104.321C211.302 101.016 219.297 105.024 223.646 110.806C230.157 119.379 233.17 131.508 229.216 141.822C227.843 145.204 225.213 148.346 221.608 149.499C220.515 149.918 219.166 150.15 218.381 150.958C218.255 151.136 218.335 151.181 218.362 151.373C218.267 151.457 218.607 151.264 218.147 152.034C216.701 152.145 217.446 151.804 217.199 151.874C217.127 151.764 217.082 151.664 217.033 151.526C216.465 151.698 217.746 150.259 218.042 150.829C218.178 150.948 218.18 150.974 218.208 151.01C218.185 151.038 218.601 151.187 218.967 151.184C220.194 151.181 221.423 151.048 222.538 150.421L222.512 150.41Z" fill="black"/>
<path d="M367.458 83.9734C367.181 83.9946 367.043 83.3472 366.782 83.2381C368.473 78.8901 366.304 71.8568 362.83 66.7682C359.186 61.4474 353.302 56.9428 346.28 54.0863C339.246 51.2308 331.946 50.3695 325.736 51.6826C319.8 52.9362 314.781 54.6099 313.089 58.9579C312.721 59.9279 310.356 60.9214 309.416 60.5288C309.416 60.5288 309.143 60.2658 309.318 59.2462C310.183 54.0194 317.781 49.5168 324.974 47.9994C331.894 46.5417 339.944 47.4618 347.644 50.589C355.345 53.7162 361.809 58.7053 365.865 64.6267C370.079 70.7813 371.205 77.2364 369.05 82.7939C368.786 83.4849 368.162 83.9196 367.47 83.9725L367.458 83.9734Z" fill="#214859" stroke="black" stroke-miterlimit="10"/>
<path d="M512.547 121.692C511.718 114.815 505.264 110.947 499.276 109.211C489.871 106.447 479.908 108.795 472.872 115.68C465.627 121.988 461.19 132.442 466.082 141.68C466.263 142.066 466.122 142.528 465.744 142.712C465.439 142.864 465.092 142.787 464.86 142.56C462.315 139.877 460.627 136.162 460.237 132.218C459.429 124.294 463.5 116.667 468.965 111.386C475.685 104.499 485.866 101.205 495.272 103.157C504.035 104.797 514.88 111.348 513.915 121.717C513.802 122.551 512.585 122.515 512.521 121.681L512.547 121.692Z" fill="#214859" stroke="black" stroke-miterlimit="10"/>
<path d="M567.078 181.762C563.95 177.73 556.809 177.463 552.39 178.717C545.419 180.656 541.373 185.468 539.54 192.6C537.357 199.437 538.739 208.75 545.312 212.686C545.578 212.859 545.655 213.201 545.486 213.472C545.351 213.689 545.105 213.785 544.873 213.725C542.252 213.023 539.783 211.328 538.049 208.996C534.554 204.296 534.239 197.856 535.691 192.366C537.331 185.364 542.506 179.279 549.185 176.82C555.337 174.415 564.662 174.309 567.962 181.255C568.208 181.83 567.421 182.277 567.066 181.775L567.078 181.762Z" fill="#214859" stroke="black" stroke-miterlimit="10"/>
</g>
<path d="M145.825 200.5L150.512 201.969L5.68643 664.004L0.999975 662.535L145.825 200.5Z" fill="#214859"/>
<path d="M150.034 201.819L5.20932 663.854L6.16354 664.153L150.989 202.119L150.034 201.819ZM1.47709 662.684L146.302 200.65L145.348 200.35L0.522864 662.385L1.47709 662.684Z" fill="black"/>
<path d="M481.283 158.912L487 160.5L597.271 558.754L592.537 560.064L481.283 158.912Z" fill="#214859" stroke="black"/>
<path d="M545 213.388L551.5 217.5L702.038 761.659L697.305 762.968L545 213.388Z" fill="#214859" stroke="black"/>
<path d="M345.249 106.005L350.412 105.551L332.534 933.695L327 933.577L345.249 106.005Z" fill="#214859" stroke="black"/>
<path d="M217.744 150L222.487 151.275L136.743 470.234L132 468.959L217.744 150Z" fill="#214859"/>
<path d="M222.004 151.145L136.26 470.105L137.226 470.364L222.97 151.405L222.004 151.145ZM132.483 469.089L218.227 150.13L217.261 149.87L131.517 468.83L132.483 469.089Z" fill="black"/>
<defs>
<clipPath id="clip0_916_13">
<rect width="465.29" height="225.12" fill="white" transform="translate(113 35.4536) rotate(-4.37)"/>
</clipPath>
</defs>
</svg>
