<svg width="28" height="28" viewBox="0 0 28 28" fill="none" xmlns="http://www.w3.org/2000/svg">
<path fill-rule="evenodd" clip-rule="evenodd" d="M27.1073 9.5217C27.1048 9.50398 27.1006 9.48795 27.098 9.47107C27.0921 9.43816 27.0862 9.40526 27.0778 9.37404C27.0727 9.35463 27.0651 9.33607 27.0592 9.31751C27.0499 9.28882 27.0406 9.26098 27.0297 9.23314C27.0221 9.21373 27.0128 9.19432 27.0035 9.1766C26.9917 9.1496 26.979 9.1243 26.9639 9.09983C26.9537 9.08127 26.9419 9.06354 26.931 9.04582C26.9158 9.02135 26.8997 8.99773 26.882 8.97495C26.8694 8.95808 26.8559 8.9412 26.8424 8.92517C26.8238 8.90323 26.8044 8.88214 26.7841 8.86189C26.7689 8.8467 26.7546 8.83067 26.7386 8.81717C26.7166 8.79776 26.6947 8.7792 26.6728 8.76148C26.655 8.74798 26.6382 8.73448 26.6205 8.72182C26.6137 8.7176 26.6078 8.7117 26.601 8.70748L14.2612 0.480917C13.8714 0.221042 13.3643 0.221042 12.9737 0.480917L0.634647 8.70748C0.627897 8.7117 0.622 8.7176 0.61525 8.72182C0.596687 8.73448 0.579802 8.74798 0.562927 8.76148C0.540146 8.7792 0.518206 8.79776 0.497112 8.81717C0.481081 8.83067 0.465917 8.8467 0.450729 8.86189C0.430479 8.88214 0.411045 8.90323 0.393326 8.92517C0.378982 8.9412 0.365504 8.95808 0.352848 8.97495C0.335973 8.99773 0.319936 9.02135 0.304749 9.04582C0.292936 9.06354 0.281969 9.08127 0.271 9.09983C0.256656 9.1243 0.244002 9.1496 0.231346 9.1766C0.222909 9.19432 0.213603 9.21373 0.206009 9.23314C0.194196 9.26098 0.18494 9.28882 0.175659 9.31751C0.169753 9.33607 0.163006 9.35463 0.157944 9.37404C0.149506 9.40526 0.143594 9.43816 0.137688 9.47107C0.134313 9.48795 0.130071 9.50398 0.128384 9.5217C0.121634 9.57064 0.117432 9.62126 0.117432 9.67273V17.8993C0.117432 17.9499 0.121634 18.0005 0.128384 18.0512C0.130071 18.0672 0.134313 18.0841 0.137688 18.101C0.143594 18.1339 0.149506 18.1659 0.157944 18.198C0.163006 18.2174 0.169753 18.2359 0.175659 18.2545C0.18494 18.2824 0.194196 18.311 0.206009 18.3397C0.213603 18.3583 0.222909 18.3769 0.231346 18.3954C0.244002 18.4216 0.256656 18.4469 0.271 18.473C0.281969 18.4908 0.292936 18.5085 0.304749 18.5262C0.319936 18.5507 0.335973 18.5734 0.352848 18.5962C0.365504 18.6139 0.378982 18.6308 0.393326 18.6469C0.411045 18.6679 0.430479 18.6899 0.450729 18.7093C0.465917 18.7253 0.481081 18.7405 0.497112 18.7549C0.518206 18.7743 0.540146 18.7928 0.562927 18.8105C0.579802 18.824 0.596687 18.8375 0.61525 18.8502C0.622 18.8544 0.627897 18.8603 0.634647 18.8645L12.9737 27.0911C13.1686 27.221 13.393 27.286 13.6174 27.286C13.8419 27.286 14.0663 27.221 14.2612 27.0911L26.601 18.8645C26.6078 18.8603 26.6137 18.8544 26.6205 18.8502C26.6382 18.8375 26.655 18.824 26.6728 18.8105C26.6947 18.7928 26.7166 18.7743 26.7386 18.7549C26.7546 18.7405 26.7689 18.7253 26.7841 18.7093C26.8044 18.6899 26.8238 18.6679 26.8424 18.6469C26.8559 18.6308 26.8694 18.6139 26.882 18.5962C26.8997 18.5734 26.9158 18.5507 26.931 18.5262C26.9419 18.5085 26.9537 18.4908 26.9639 18.473C26.979 18.4469 26.9917 18.4216 27.0035 18.3954C27.0128 18.3769 27.0221 18.3583 27.0297 18.3397C27.0406 18.311 27.0499 18.2824 27.0592 18.2545C27.0651 18.2359 27.0727 18.2174 27.0778 18.198C27.0862 18.1659 27.0921 18.1339 27.098 18.101C27.1006 18.0841 27.1048 18.0672 27.1073 18.0512C27.1141 18.0005 27.1174 17.9499 27.1174 17.8993V9.67273C27.1174 9.62126 27.1141 9.57064 27.1073 9.5217ZM14.7776 3.6146L23.8682 9.67442L19.808 12.3904L14.7776 9.02558V3.6146ZM12.4573 3.6146V9.02558L7.42767 12.3904L3.36671 9.67442L12.4573 3.6146ZM2.43774 11.8445L5.34109 13.786L2.43774 15.7275V11.8445ZM12.4573 23.9574L3.36671 17.8976L7.42767 15.1824L12.4573 18.5464V23.9574ZM13.6174 16.5307L9.51428 13.786L13.6174 11.0413L17.7214 13.786L13.6174 16.5307ZM14.7776 23.9574V18.5464L19.808 15.1824L23.8682 17.8976L14.7776 23.9574ZM24.7971 15.7275L21.8946 13.786L24.7971 11.8445V15.7275Z" fill="#EBECF0"/>
</svg>
