<svg width="18" height="20" viewBox="0 0 18 20" fill="none" xmlns="http://www.w3.org/2000/svg">
<path d="M17.794 5.88001C17.7939 5.54372 17.722 5.24656 17.5765 4.99152C17.4336 4.74073 17.2197 4.53053 16.9327 4.36434C14.5637 2.99836 12.1924 1.63656 9.82417 0.269197C9.18571 -0.0993985 8.56668 -0.0859608 7.93295 0.287926C6.99001 0.844022 2.26908 3.54875 0.862307 4.36357C0.282957 4.69896 0.00104438 5.21223 0.000905127 5.87938C0 8.62644 0.000905127 11.3734 0 14.1206C0 14.4495 0.0689985 14.7408 0.20804 14.9921C0.35098 15.2504 0.567932 15.4664 0.861541 15.6364C2.26839 16.4512 6.98994 19.1557 7.93267 19.7119C8.56668 20.086 9.18571 20.0994 9.82438 19.7307C12.1927 18.3632 14.5641 17.0015 16.9335 15.6355C17.2271 15.4656 17.444 15.2495 17.587 14.9914C17.7258 14.7402 17.7949 14.4488 17.7949 14.1198C17.7949 14.1198 17.7949 8.62714 17.794 5.88001Z" fill="#EBECF0"/>
<path d="M8.92466 9.97314L0.208008 14.992C0.350948 15.2504 0.5679 15.4664 0.861509 15.6363C2.26835 16.4511 6.98991 19.1557 7.93264 19.7119C8.56664 20.086 9.18568 20.0994 9.82435 19.7306C12.1927 18.3632 14.5641 17.0015 16.9334 15.6355C17.227 15.4656 17.444 15.2495 17.5869 14.9913L8.92466 9.97314Z" fill="#EBECF0"/>
<path d="M17.7939 5.87994C17.7938 5.54365 17.7218 5.24649 17.5764 4.99146L8.92456 9.97313L17.5868 14.9913C17.7257 14.7401 17.7947 14.4487 17.7948 14.1197C17.7948 14.1197 17.7948 8.62707 17.7939 5.87994Z" fill="#EBECF0"/>
<path d="M14.0567 8.09668V9.03479H14.9948V8.09668H15.4639V9.03479H16.402V9.50384H15.4639V10.4419H16.402V10.911H15.4639V11.8491H14.9948V10.911H14.0567V11.8491H13.5876V10.911H12.6495V10.4419H13.5876V9.50384H12.6495V9.03479H13.5876V8.09668H14.0567ZM14.9948 9.50384H14.0567V10.4419H14.9948V9.50384Z" fill="#14303F"/>
<path d="M8.94377 3.38574C11.3907 3.38574 13.527 4.71463 14.6713 6.68988L14.6601 6.67086L11.7812 8.32852C11.214 7.36814 10.1741 6.72003 8.98134 6.70669L8.94377 6.70648C7.12478 6.70648 5.65008 8.18109 5.65008 10.0001C5.65008 10.5949 5.80867 11.1525 6.08447 11.6342C6.6522 12.6253 7.71947 13.2938 8.94377 13.2938C10.1756 13.2938 11.249 12.6168 11.8138 11.6151L11.8001 11.6391L14.6747 13.3044C13.543 15.2629 11.4359 16.5877 9.01745 16.6141L8.94377 16.6145C6.48917 16.6145 4.34676 15.2774 3.20537 13.2918C2.64816 12.3224 2.32935 11.1985 2.32935 10.0001C2.32935 6.34714 5.29066 3.38574 8.94377 3.38574Z" fill="#14303F"/>
</svg>
