<svg width="18" height="20" viewBox="0 0 18 20" fill="none" xmlns="http://www.w3.org/2000/svg">
<path d="M17.7778 0L16.1109 18.0554L8.8888 20L1.66658 18.0554L0 0H17.7778ZM14.4189 3.67129H8.88231H3.24764L3.51712 5.85165H8.88231H9.18368L8.88231 5.97709L3.7132 8.12997L3.88463 10.2612L8.88231 10.2774L11.5609 10.2859L11.3894 13.1276L8.88227 13.8335V13.8313L8.86172 13.837L6.44042 13.2258L6.29349 11.4618H6.28546H4.03959H4.03168L4.32565 14.8671L8.88234 16.2147V16.2122L8.89056 16.2147L13.4228 14.8917L14.0107 8.12997H8.88234H8.8697L8.88234 8.12449L14.1986 5.85165L14.4189 3.67129Z" fill="#EBECF0"/>
</svg>
