<svg width="20" height="20" viewBox="0 0 20 20" fill="none" xmlns="http://www.w3.org/2000/svg">
<circle cx="10" cy="10" r="10" fill="#EBECF0"/>
<path d="M3.08579 11.5364C3.08529 11.6657 3.02427 11.7821 2.92675 11.8644H2.92625C2.82622 11.9485 2.69118 12 2.54264 12C2.39411 12 2.25857 11.9481 2.15804 11.864L2.15854 11.8644C2.06102 11.7821 2 11.6657 2 11.5369C2 11.408 2.06102 11.2912 2.15904 11.2093C2.25907 11.1252 2.39461 11.0737 2.54314 11.0737C2.69168 11.0737 2.82672 11.1252 2.92725 11.2098L2.92675 11.2093C3.02427 11.2917 3.08529 11.408 3.08579 11.5373V11.5364ZM8.52524 11.9239H7.55148L4.9878 8.30481C4.92878 8.22338 4.87427 8.12941 4.83075 8.03052L4.82625 8.01978H4.80375C4.82425 8.1831 4.83576 8.37193 4.83576 8.56345C4.83576 8.60999 4.83526 8.65652 4.83376 8.70306V8.69635V11.9239H3.97303V7.00045H5.0098L7.48796 10.5345C7.59249 10.6804 7.66001 10.7815 7.69002 10.8366H7.70502C7.68001 10.6692 7.66601 10.4759 7.66601 10.2795C7.66601 10.2423 7.66651 10.2057 7.66751 10.1685V10.1739V7H8.52524V11.9239ZM12.7174 11.9239H9.70405V7.00045H12.5978V7.69402H10.5948V9.08878H12.4403V9.77877H10.5948V11.2348H12.7174V11.9239ZM17 7.69402H15.4576V11.9244H14.5669V7.69402H13.0279V7.00045H16.9995L17 7.69402Z" fill="#042530"/>
<path d="M7.10154 13.8262C7.24923 13.8262 7.37436 13.8456 7.47692 13.8846C7.57949 13.9226 7.67436 13.9774 7.76154 14.0492L7.54769 14.3031C7.48615 14.2528 7.41949 14.2144 7.34769 14.1877C7.2759 14.16 7.19897 14.1462 7.11692 14.1462C7.01744 14.1462 6.92615 14.1723 6.84308 14.2246C6.76103 14.2769 6.69538 14.361 6.64615 14.4769C6.59692 14.5918 6.57231 14.7436 6.57231 14.9323C6.57231 15.1179 6.5959 15.2682 6.64308 15.3831C6.69128 15.4969 6.75641 15.5805 6.83846 15.6338C6.92154 15.6872 7.01538 15.7138 7.12 15.7138C7.23077 15.7138 7.32256 15.6949 7.39538 15.6569C7.46923 15.6179 7.53487 15.5749 7.59231 15.5277L7.79077 15.7785C7.7159 15.8523 7.62205 15.9154 7.50923 15.9677C7.39744 16.02 7.26154 16.0462 7.10154 16.0462C6.9159 16.0462 6.75026 16.0041 6.60462 15.92C6.45897 15.8349 6.34462 15.7097 6.26154 15.5446C6.17846 15.3785 6.13692 15.1744 6.13692 14.9323C6.13692 14.6944 6.17949 14.4933 6.26462 14.3292C6.35077 14.1641 6.46667 14.039 6.61231 13.9538C6.75897 13.8687 6.92205 13.8262 7.10154 13.8262ZM8.77032 14.3246C8.93237 14.3246 9.06981 14.36 9.18263 14.4308C9.29545 14.5015 9.38109 14.6015 9.43955 14.7308C9.49904 14.859 9.52878 15.0092 9.52878 15.1815C9.52878 15.4462 9.46263 15.6564 9.33032 15.8123C9.19801 15.9682 9.01083 16.0462 8.76878 16.0462C8.52673 16.0462 8.33955 15.9697 8.20724 15.8169C8.07493 15.6631 8.00878 15.4523 8.00878 15.1846C8.00878 15.0144 8.03852 14.8646 8.09801 14.7354C8.1575 14.6062 8.24365 14.5056 8.35647 14.4338C8.47032 14.361 8.60827 14.3246 8.77032 14.3246ZM8.77032 14.6308C8.65647 14.6308 8.57134 14.6754 8.51493 14.7646C8.45955 14.8538 8.43186 14.9938 8.43186 15.1846C8.43186 15.3774 8.45955 15.5185 8.51493 15.6077C8.57032 15.6959 8.65493 15.74 8.76878 15.74C8.88263 15.74 8.96724 15.6959 9.02263 15.6077C9.07801 15.5185 9.1057 15.3764 9.1057 15.1815C9.1057 14.9918 9.07801 14.8528 9.02263 14.7646C8.96724 14.6754 8.88314 14.6308 8.77032 14.6308ZM9.95448 16V15.7185H10.1837V14.6508H9.95448V14.3708H10.4929L10.5683 14.7446C10.6278 14.6072 10.7027 14.5031 10.7929 14.4323C10.8832 14.3615 10.9965 14.3262 11.1329 14.3262C11.1853 14.3262 11.2314 14.3303 11.2714 14.3385C11.3114 14.3467 11.3504 14.3574 11.3883 14.3708L11.316 15.0062H11.0453V14.6877C10.9396 14.6969 10.8483 14.7451 10.7714 14.8323C10.6945 14.9185 10.634 15.0323 10.5899 15.1738V15.7185H10.9145V16H9.95448ZM12.131 15.3092C12.1433 15.4621 12.1884 15.5723 12.2663 15.64C12.3443 15.7077 12.4392 15.7415 12.551 15.7415C12.6289 15.7415 12.7022 15.7292 12.771 15.7046C12.8397 15.68 12.9074 15.6456 12.974 15.6015L13.1433 15.8338C13.0674 15.8974 12.9766 15.9487 12.871 15.9877C12.7663 16.0267 12.651 16.0462 12.5248 16.0462C12.3484 16.0462 12.1997 16.0097 12.0786 15.9369C11.9586 15.8641 11.8679 15.7631 11.8063 15.6338C11.7448 15.5046 11.714 15.3559 11.714 15.1877C11.714 15.0256 11.7438 14.8795 11.8033 14.7492C11.8638 14.619 11.951 14.5159 12.0648 14.44C12.1797 14.3631 12.3176 14.3246 12.4786 14.3246C12.7022 14.3246 12.8797 14.3974 13.011 14.5431C13.1422 14.6887 13.2079 14.8903 13.2079 15.1477C13.2079 15.2072 13.2053 15.261 13.2002 15.3092H12.131ZM12.4802 14.6108C12.3817 14.6108 12.3007 14.6462 12.2371 14.7169C12.1745 14.7877 12.1376 14.8985 12.1263 15.0492H12.8125C12.8104 14.9118 12.7822 14.8046 12.7279 14.7277C12.6735 14.6497 12.591 14.6108 12.4802 14.6108Z" fill="#14303F"/>
</svg>
