<svg width="20" height="8" viewBox="0 0 20 8" fill="none" xmlns="http://www.w3.org/2000/svg">
<path d="M1.44772 6.76047C1.44705 6.95319 1.3657 7.12657 1.23566 7.24927H1.235C1.10163 7.37463 0.921579 7.45132 0.723526 7.45132C0.525473 7.45132 0.344759 7.37397 0.210723 7.2486L0.21139 7.24927C0.0813551 7.12657 0 6.95319 0 6.76114C0 6.56909 0.0813551 6.39504 0.212057 6.27301C0.345425 6.14764 0.52614 6.07095 0.724193 6.07095C0.922246 6.07095 1.10229 6.14764 1.23633 6.27367L1.23566 6.27301C1.3657 6.39571 1.44705 6.56909 1.44772 6.7618V6.76047ZM8.70032 7.33796H7.40197L3.98373 1.94452C3.90504 1.82315 3.83236 1.68312 3.77434 1.53574L3.76834 1.51974H3.73833C3.76567 1.76314 3.78101 2.04455 3.78101 2.32995C3.78101 2.39931 3.78034 2.46866 3.77834 2.53801V2.52801V7.33796H2.6307V0.000666478H4.01307L7.31728 5.26741C7.45666 5.4848 7.54668 5.6355 7.58669 5.71752H7.6067C7.57335 5.46812 7.55468 5.18005 7.55468 4.8873C7.55468 4.83196 7.55535 4.77727 7.55668 4.72193V4.72993V0H8.70032V7.33796ZM14.2898 7.33796H10.2721V0.000666478H14.1304V1.03428H11.4597V3.11283H13.9204V4.1411H11.4597V6.31102H14.2898V7.33796ZM20 1.03428H17.9435V7.33862H16.7558V1.03428H14.7039V0.000666478H19.9993L20 1.03428Z" fill="#EBECF0"/>
</svg>
