<svg width="18" height="19" viewBox="0 0 18 19" fill="none" xmlns="http://www.w3.org/2000/svg">
<path d="M15.7022 9.87808H16.9191V16.3641C16.9184 16.8874 16.7103 17.389 16.3403 17.759C15.9703 18.129 15.4686 18.3372 14.9454 18.3378H1.97368C1.45043 18.3372 0.948786 18.129 0.578789 17.759C0.208792 17.389 0.000644007 16.8874 0 16.3641V3.39122C0.00096582 2.86817 0.209255 2.36685 0.579218 1.99711C0.949181 1.62738 1.45064 1.4194 1.97368 1.41875H8.45973V2.63557H1.97368C1.77322 2.63579 1.58102 2.71543 1.43916 2.85706C1.29731 2.99869 1.21736 3.19076 1.21682 3.39122V16.3641C1.21703 16.5648 1.29684 16.7572 1.43874 16.8991C1.58063 17.041 1.77301 17.1208 1.97368 17.121H14.9454C15.146 17.1208 15.3384 17.041 15.4803 16.8991C15.6222 16.7572 15.702 16.5648 15.7022 16.3641V9.87808ZM12.9036 0.28833V1.50515H15.9213L8.73636 8.69168L9.59665 9.55197L16.7832 2.36544V5.38315H18V0.28833H12.9036Z" fill="#14303F"/>
</svg>
