<svg width="20" height="12" viewBox="0 0 20 12" fill="none" xmlns="http://www.w3.org/2000/svg">
<path d="M20 11.2928C19.7089 11.4029 19.3876 11.4027 19.0967 11.2921C18.8058 11.1816 18.5654 10.9684 18.4208 10.6928L15.5458 6.717L15.1292 6.16117L11.7933 10.6978C11.6575 10.9619 11.4301 11.1674 11.1538 11.276C10.8774 11.3846 10.5709 11.3888 10.2917 11.2878L14.59 5.52117L10.5917 0.312001C10.8792 0.208397 11.1936 0.207024 11.482 0.308112C11.7704 0.4092 12.0151 0.606575 12.175 0.867001L15.155 4.892L18.1517 0.883668C18.2886 0.624324 18.516 0.424325 18.7907 0.321692C19.0654 0.219059 19.3683 0.220949 19.6417 0.327001L18.09 2.38617L15.9883 5.122C15.93 5.17406 15.8833 5.23787 15.8513 5.30925C15.8193 5.38063 15.8028 5.45795 15.8028 5.53617C15.8028 5.61438 15.8193 5.69171 15.8513 5.76308C15.8833 5.83446 15.93 5.89827 15.9883 5.95033L19.9917 11.2937L20 11.2928ZM0.00167666 5.4495L0.351677 3.72033C1.31334 0.301169 5.23334 -1.12133 7.93001 0.995335C9.50917 2.23617 9.90334 3.99283 9.82584 5.97283H0.93001C0.785843 9.50866 3.33751 11.6437 6.60001 10.5528C7.12889 10.3625 7.60229 10.0439 7.9778 9.62559C8.35332 9.20732 8.61921 8.70244 8.75167 8.15616C8.92417 7.60116 9.20834 7.50616 9.73001 7.66616C9.64308 8.34315 9.40376 8.99161 9.03007 9.56276C8.65637 10.1339 8.15802 10.6129 7.57251 10.9637C6.60536 11.4927 5.4957 11.7024 4.40219 11.5627C3.30869 11.4231 2.28734 10.9413 1.48418 10.1862C0.690034 9.29232 0.210073 8.16324 0.11751 6.97116C0.11751 6.77533 0.0508433 6.592 0.00584333 6.41617C0.00178669 6.09424 -0.000157798 5.77229 9.99689e-06 5.45033L0.00167666 5.4495ZM0.940843 5.21117H8.98584C8.93584 2.64783 7.31834 0.829501 5.16084 0.812835C2.75918 0.779501 1.04084 2.55783 0.93501 5.1995L0.940843 5.21117Z" fill="#EBECF0"/>
</svg>
