<svg width="19" height="20" viewBox="0 0 19 20" fill="none" xmlns="http://www.w3.org/2000/svg">
<path fill-rule="evenodd" clip-rule="evenodd" d="M18.4235 6.64321C18.4235 5.28874 17.969 4.18096 17.2146 3.31317C17.3357 2.99872 17.739 1.73649 17.0979 0.0286943C17.0979 0.0286943 16.1112 -0.304642 13.8645 1.30094C12.9257 1.02537 11.919 0.887598 10.919 0.88315C9.91896 0.887598 8.91228 1.02537 7.97449 1.30094C5.72669 -0.304642 4.73891 0.0286943 4.73891 0.0286943C4.09779 1.73649 4.50224 2.99872 4.62335 3.31317C3.87 4.18096 3.41223 5.28874 3.41223 6.64321C3.41223 11.3988 6.15892 12.4633 8.77117 12.7766C8.77117 12.7766 6.89337 13.9399 6.89337 15.8955C6.22336 16.2133 3.38778 17.1866 2.33777 15.29C2.33777 15.29 1.71665 14.0988 0.535535 14.0111C0.535535 14.0111 -0.613372 13.9955 0.45442 14.7655C0.45442 14.7655 1.22554 15.1477 1.7611 16.5811C1.7611 16.5811 2.35666 19.6011 6.85559 18.2444C6.90115 18.2678 6.87226 19.7055 6.87226 20H14.9679C14.9679 20 14.9812 17.1144 14.9812 16.1966C14.9812 13.9399 13.4745 13.1499 13.0512 12.7666C15.6723 12.4599 18.4235 11.411 18.4235 6.64321Z" fill="#EBECF0"/>
</svg>
