<svg width="19" height="21" viewBox="0 0 19 21" fill="none" xmlns="http://www.w3.org/2000/svg">
<path d="M13.0475 19.6261C13.0513 19.0385 13.0551 16.999 13.0551 16.1916C13.0551 15.0247 12.6481 14.2611 12.1917 13.8746C15.0252 13.5645 18 12.5075 18 7.69947C18 6.33334 17.5086 5.21577 16.6925 4.34135C16.8232 4.02471 17.2596 2.75184 16.5657 1.02893C16.5657 1.02893 15.4997 0.692652 13.0702 2.31312C12.0535 2.03461 10.9666 1.8968 9.8855 1.89127C8.8043 1.8968 7.71745 2.03474 6.70063 2.31312C4.27122 0.692652 3.20531 1.02893 3.20531 1.02893C2.51141 2.75184 2.9478 4.02471 3.07848 4.34135C2.26238 5.21577 1.771 6.33334 1.771 7.69947C1.771 12.5075 4.74564 13.5645 7.57919 13.8746C7.12288 14.2611 6.7158 15.0247 6.7158 16.1916C6.7158 16.999 6.71965 19.0385 6.72338 19.6261M1 14.592C2.27716 14.6805 3.01359 15.8172 3.01359 15.8172C4.14876 17.73 5.99196 17.1768 6.71631 16.8573" stroke="#14303F" stroke-width="1.25" stroke-linecap="round" stroke-linejoin="round"/>
</svg>
