<svg width="29" height="30" viewBox="0 0 29 30" fill="none" xmlns="http://www.w3.org/2000/svg">
<path d="M19.7862 28.5721C19.7919 27.7023 19.7974 24.6833 19.7974 23.488C19.7974 21.7607 19.195 20.6304 18.5194 20.0583C22.7139 19.5992 27.1174 18.0345 27.1174 10.9172C27.1174 8.89492 26.39 7.24059 25.1819 5.94619C25.3754 5.47746 26.0214 3.59324 24.9942 1.04282C24.9942 1.04282 23.4161 0.545035 19.8199 2.94381C18.3149 2.53153 16.7058 2.32754 15.1055 2.31934C13.5051 2.32754 11.8962 2.53172 10.391 2.94381C6.79476 0.545035 5.2169 1.04282 5.2169 1.04282C4.18973 3.59324 4.83571 5.47746 5.02916 5.94619C3.82109 7.24059 3.0937 8.89492 3.0937 10.9172C3.0937 18.0345 7.49704 19.5992 11.6915 20.0583C11.0161 20.6304 10.4135 21.7607 10.4135 23.488C10.4135 24.6833 10.4192 27.7023 10.4247 28.5721M1.95239 21.1202C3.84296 21.2511 4.9331 22.9338 4.9331 22.9338C6.61348 25.7653 9.34196 24.9464 10.4142 24.4735" stroke="#EBECF0" stroke-width="2" stroke-linecap="round" stroke-linejoin="round"/>
</svg>
