<svg width="20" height="20" viewBox="0 0 20 20" fill="none" xmlns="http://www.w3.org/2000/svg">
<path d="M0.418115 11.0094C-0.139372 10.4519 -0.139372 9.54808 0.418115 8.99058L8.99058 0.418115C9.54808 -0.139372 10.4519 -0.139372 11.0094 0.418115L19.5819 8.99058C20.1394 9.54808 20.1394 10.4519 19.5819 11.0094L11.0094 19.5819C10.4519 20.1394 9.54808 20.1394 8.99058 19.5819L0.418115 11.0094Z" fill="#EBECF0"/>
<path d="M7.24918 2.18683L6.3811 3.05493L8.62318 5.29701C8.53246 5.4916 8.48182 5.70861 8.48182 5.93746C8.48182 6.58718 8.89003 7.14153 9.46396 7.35803V12.8428C8.89003 13.0593 8.48182 13.6136 8.48182 14.2633C8.48182 15.1016 9.16139 15.7812 9.99968 15.7812C10.838 15.7812 11.5175 15.1016 11.5175 14.2633C11.5175 13.6743 11.182 13.1636 10.6917 12.912V7.36553L12.8349 9.50875C12.7486 9.69939 12.7006 9.91104 12.7006 10.1339C12.7006 10.9722 13.3802 11.6518 14.2185 11.6518C15.0568 11.6518 15.7363 10.9722 15.7363 10.1339C15.7363 9.29561 15.0568 8.61603 14.2185 8.61603C14.0555 8.61603 13.8987 8.64168 13.7515 8.68918L11.4498 6.38739C11.4938 6.24525 11.5175 6.0941 11.5175 5.93746C11.5175 5.09916 10.838 4.41959 9.99968 4.41959C9.84304 4.41959 9.69196 4.44332 9.54975 4.48739L7.24918 2.18683Z" fill="#042530"/>
</svg>
