<svg width="28" height="28" viewBox="0 0 28 28" fill="none" xmlns="http://www.w3.org/2000/svg">
<path fill-rule="evenodd" clip-rule="evenodd" d="M13.6174 20.536C17.3453 20.536 20.3674 17.5139 20.3674 13.786C20.3674 10.0581 17.3453 7.03601 13.6174 7.03601C9.88951 7.03601 6.86743 10.0581 6.86743 13.786C6.86743 17.5139 9.88951 20.536 13.6174 20.536ZM13.6174 18.286C16.1027 18.286 18.1174 16.2712 18.1174 13.786C18.1174 11.3007 16.1027 9.28601 13.6174 9.28601C11.1321 9.28601 9.11743 11.3007 9.11743 13.786C9.11743 16.2712 11.1321 18.286 13.6174 18.286Z" fill="#EBECF0"/>
<path d="M20.3674 5.91101C19.7461 5.91101 19.2424 6.4147 19.2424 7.03601C19.2424 7.65733 19.7461 8.16101 20.3674 8.16101C20.9888 8.16101 21.4924 7.65733 21.4924 7.03601C21.4924 6.4147 20.9888 5.91101 20.3674 5.91101Z" fill="#EBECF0"/>
<path fill-rule="evenodd" clip-rule="evenodd" d="M1.97814 5.09658C1.24243 6.54048 1.24243 8.43066 1.24243 12.211V15.361C1.24243 19.1413 1.24243 21.0316 1.97814 22.4754C2.62528 23.7455 3.6579 24.7782 4.928 25.4253C6.3719 26.161 8.26208 26.161 12.0424 26.161H15.1924C18.9728 26.161 20.863 26.161 22.3068 25.4253C23.5769 24.7782 24.6096 23.7455 25.2567 22.4754C25.9924 21.0316 25.9924 19.1413 25.9924 15.361V12.211C25.9924 8.43066 25.9924 6.54048 25.2567 5.09658C24.6096 3.82648 23.5769 2.79386 22.3068 2.14672C20.863 1.41101 18.9728 1.41101 15.1924 1.41101H12.0424C8.26208 1.41101 6.3719 1.41101 4.928 2.14672C3.6579 2.79386 2.62528 3.82648 1.97814 5.09658ZM15.1924 3.66101H12.0424C10.1151 3.66101 8.80496 3.66277 7.79227 3.7455C6.80583 3.82609 6.30138 3.97217 5.94948 4.15148C5.10275 4.58291 4.41434 5.27132 3.9829 6.11806C3.8036 6.46996 3.65751 6.97441 3.57692 7.96085C3.49419 8.97354 3.49243 10.2837 3.49243 12.211V15.361C3.49243 17.2884 3.49419 18.5984 3.57692 19.6111C3.65751 20.5977 3.8036 21.1021 3.9829 21.454C4.41434 22.3007 5.10275 22.9891 5.94948 23.4205C6.30138 23.5998 6.80583 23.746 7.79227 23.8265C8.80496 23.9092 10.1151 23.911 12.0424 23.911H15.1924C17.1198 23.911 18.4298 23.9092 19.4426 23.8265C20.4291 23.746 20.9335 23.5998 21.2854 23.4205C22.1321 22.9891 22.8205 22.3007 23.2519 21.454C23.4313 21.1021 23.5774 20.5977 23.6579 19.6111C23.7406 18.5984 23.7424 17.2884 23.7424 15.361V12.211C23.7424 10.2837 23.7406 8.97354 23.6579 7.96085C23.5774 6.97441 23.4313 6.46996 23.2519 6.11806C22.8205 5.27132 22.1321 4.58291 21.2854 4.15148C20.9335 3.97217 20.4291 3.82609 19.4426 3.7455C18.4298 3.66277 17.1198 3.66101 15.1924 3.66101Z" fill="#EBECF0"/>
</svg>
