<svg width="20" height="20" viewBox="0 0 20 20" fill="none" xmlns="http://www.w3.org/2000/svg">
<path d="M19.5171 13.8854C19.5171 13.8854 17.0296 20.5932 8.46602 19.0317C8.33127 19.0066 8.20203 18.9597 8.07115 18.9202C8.04054 18.9112 8.00962 18.9014 7.97902 18.8926C7.85044 18.8526 7.72316 18.8116 7.59667 18.7675C7.58219 18.7625 7.56837 18.7577 7.55369 18.7525C7.43847 18.712 7.32387 18.669 7.21076 18.6256C7.18113 18.614 7.15166 18.6028 7.12219 18.5907C7.00031 18.5426 6.87906 18.4923 6.75909 18.4397C6.73698 18.4299 6.71565 18.4202 6.69318 18.4103C6.58817 18.3636 6.4845 18.3152 6.38168 18.266C6.35498 18.2525 6.32813 18.24 6.30125 18.2273C6.28661 18.22 6.27084 18.2126 6.25585 18.2052C6.18947 18.172 6.12465 18.1375 6.05925 18.1033C6.0088 18.0772 5.95753 18.0519 5.90739 18.025C5.81479 17.9745 5.72348 17.9233 5.63264 17.8708C5.59894 17.8516 5.56492 17.8331 5.53154 17.8137C5.40817 17.7411 5.2861 17.6658 5.16583 17.5896C5.13181 17.5678 5.09815 17.5447 5.06461 17.5222C4.98618 17.4714 4.9077 17.4206 4.83087 17.3676C4.82273 17.362 4.81494 17.3562 4.80696 17.3505C4.77718 17.3303 4.74888 17.3096 4.71925 17.2881C4.63819 17.2318 4.55796 17.1742 4.47855 17.1156C4.44015 17.0866 4.40187 17.0575 4.36379 17.0283C4.29185 16.9735 4.22027 16.9173 4.14927 16.8607C4.11397 16.8324 4.07815 16.8044 4.04285 16.7757C3.95627 16.7044 3.86997 16.6318 3.78551 16.5586C3.76954 16.5446 3.75263 16.5309 3.73635 16.5163C3.73471 16.5156 3.73357 16.5143 3.73177 16.5128C3.63592 16.4289 3.54183 16.3427 3.44856 16.2549C3.42042 16.2292 3.3924 16.2016 3.3641 16.1746C3.29444 16.1077 3.22543 16.0403 3.15757 15.972C3.12939 15.9443 3.10156 15.9163 3.07455 15.8883C2.98684 15.7981 2.90023 15.7078 2.81561 15.6155C2.81252 15.6113 2.80943 15.6089 2.80571 15.6048C2.80422 15.6032 2.80211 15.601 2.80066 15.5992C2.71408 15.5038 2.62911 15.4063 2.54594 15.3085C2.52265 15.281 2.49925 15.2529 2.47627 15.2251C2.41428 15.1503 2.35322 15.0758 2.29334 15.0003C2.26845 14.9689 2.24355 14.9371 2.21897 14.9056C2.15177 14.8188 2.08535 14.7314 2.02105 14.6425C2.00899 14.6259 1.99616 14.6096 1.98457 14.5934C1.98211 14.5906 1.98003 14.5876 1.97839 14.5849C1.90387 14.4818 1.83193 14.3769 1.76128 14.2717C1.73933 14.2395 1.71866 14.2063 1.69749 14.1731C1.64637 14.0953 1.59623 14.0175 1.54774 13.9387C1.52238 13.8984 1.49827 13.8579 1.47385 13.8173C1.42974 13.7437 1.38661 13.6701 1.34477 13.5959C1.32085 13.5539 1.29725 13.5129 1.27412 13.4698C1.26124 13.447 1.24727 13.4235 1.23475 13.3997C1.21275 13.3599 1.19291 13.3184 1.17142 13.2779C1.13823 13.2143 1.10453 13.1503 1.07248 13.0855C-0.280048 10.3813 -0.500752 7.0701 1.27005 4.52493L2.6522 2.77194C1.09279 5.78591 1.79365 9.45601 3.74449 12.1168C3.81494 12.2136 3.88708 12.3092 3.96078 12.4047C3.98359 12.4335 4.00649 12.4625 4.02931 12.4901C4.09064 12.5683 4.1533 12.6454 4.21663 12.7218C4.23945 12.7486 4.26172 12.775 4.285 12.8026C4.36966 12.9026 4.45624 13.0018 4.54512 13.0987C4.54935 13.1034 4.55342 13.1076 4.55749 13.1122C4.64148 13.2038 4.72708 13.2943 4.81416 13.3835C4.84117 13.4108 4.86868 13.4379 4.8962 13.4652C4.96457 13.535 5.0344 13.6028 5.10536 13.6701C5.1322 13.6968 5.15921 13.7225 5.18708 13.7491C5.28293 13.8383 5.3796 13.927 5.47808 14.0136C5.48833 14.0225 5.4989 14.0308 5.50833 14.0391C5.59949 14.1184 5.69177 14.1955 5.7852 14.2724C5.81776 14.2989 5.85095 14.3254 5.88414 14.3518C5.95753 14.4108 6.03177 14.4683 6.10649 14.5254C6.14215 14.5528 6.17874 14.5806 6.21573 14.608C6.29694 14.6682 6.37898 14.7274 6.46183 14.786C6.48997 14.8051 6.51733 14.8258 6.54583 14.8449C6.63146 14.9042 6.7187 14.9618 6.80626 15.0181C6.83913 15.04 6.8717 15.0627 6.90489 15.0839C7.02567 15.1604 7.14774 15.2356 7.27111 15.3082C7.30285 15.3264 7.33459 15.3435 7.36583 15.3611C7.45894 15.415 7.55221 15.468 7.64723 15.5188C7.69866 15.5474 7.75158 15.5733 7.80363 15.6008C7.88144 15.6409 7.95925 15.6816 8.038 15.72C8.06778 15.7346 8.09675 15.7483 8.1259 15.7621C8.22634 15.8105 8.32708 15.857 8.42896 15.9032C8.45307 15.9137 8.47647 15.9245 8.50074 15.935C8.61941 15.9869 8.73933 16.0367 8.86027 16.0843C8.89135 16.0967 8.92246 16.1086 8.95369 16.121C9.06371 16.1636 9.17455 16.205 9.28669 16.2445C9.3041 16.2507 9.32152 16.2571 9.33843 16.2633C9.46344 16.3063 9.58923 16.3472 9.71604 16.386C9.74841 16.3961 9.78082 16.4059 9.81401 16.4156C9.94387 16.454 10.073 16.4955 10.2061 16.5257C13.7197 17.3253 17.4279 16.6072 19.5171 13.8854ZM7.12093 9.58509C7.31299 9.86 7.52555 10.1873 7.78027 10.4082C7.8724 10.5099 7.96908 10.609 8.06755 10.7065C8.09228 10.7319 8.11784 10.7563 8.1434 10.7812C8.23878 10.874 8.33643 10.9653 8.43671 11.054C8.44093 11.0571 8.44469 11.0613 8.44876 11.0643C8.4499 11.0656 8.45088 11.0659 8.4517 11.0672C8.56305 11.1645 8.67796 11.2584 8.79448 11.3507C8.82039 11.3706 8.84606 11.3912 8.87228 11.4114C8.98931 11.5011 9.10864 11.5893 9.23103 11.6733C9.23479 11.6759 9.23769 11.6785 9.24144 11.6811C9.2953 11.7185 9.35033 11.7534 9.40485 11.7892C9.43123 11.8061 9.45612 11.8243 9.48246 11.8403C9.57001 11.8964 9.65843 11.951 9.74841 12.0034C9.76113 12.0112 9.7735 12.0177 9.78602 12.025C9.86332 12.0696 9.94227 12.1137 10.0211 12.1564C10.0484 12.1717 10.0764 12.1853 10.1044 12.2C10.1587 12.2283 10.2134 12.2574 10.2688 12.2849C10.2771 12.2889 10.2857 12.2927 10.2937 12.2962C10.4065 12.3517 10.5202 12.4054 10.6366 12.4558C10.6614 12.4669 10.6871 12.4766 10.7123 12.4871C10.8053 12.5265 10.899 12.5651 10.9933 12.6012C11.0333 12.6163 11.0739 12.6308 11.1135 12.6453C11.1993 12.6772 11.2851 12.7062 11.3717 12.7352C11.4109 12.7476 11.4493 12.7605 11.4885 12.7726C11.6116 12.8107 11.7333 12.8591 11.8617 12.8803C18.4736 13.9759 20 8.88509 20 8.88509C18.6239 10.8668 15.9592 11.8123 13.1156 11.0744C12.9894 11.0411 12.865 11.0049 12.7414 10.966C12.7033 10.9545 12.6662 10.9422 12.6286 10.9296C12.5407 10.9011 12.4533 10.8709 12.3666 10.8393C12.327 10.8248 12.2873 10.8103 12.2484 10.7953C12.1535 10.7589 12.0596 10.7211 11.9666 10.6818C11.9411 10.6707 11.9155 10.6609 11.8906 10.6495C11.774 10.5987 11.6591 10.5453 11.5457 10.4893C11.4873 10.4607 11.4302 10.4306 11.3726 10.4011C11.3393 10.384 11.306 10.3668 11.2728 10.3497C11.1992 10.3097 11.126 10.2683 11.0539 10.2263C11.0367 10.2164 11.0189 10.207 11.0014 10.1967C10.9121 10.1443 10.8239 10.0903 10.7365 10.0349C10.7096 10.0178 10.6836 9.9991 10.6567 9.98145C10.5989 9.94411 10.5415 9.90627 10.4848 9.86787C10.3631 9.78388 10.2446 9.6957 10.1275 9.6065C10.1005 9.58525 10.0737 9.5645 10.047 9.54325C8.8025 8.56043 7.81604 7.2175 7.34661 5.69472C6.85522 4.11538 6.96121 2.34258 7.81291 0.903875L6.76653 2.3809C5.4861 4.22376 5.55561 6.69061 6.55444 8.63961C6.72219 8.96638 6.91048 9.28325 7.12093 9.58509ZM14.09 7.30517C14.1445 7.32552 14.1989 7.34356 14.254 7.36223C14.2782 7.36963 14.3022 7.37793 14.3265 7.38509C14.4043 7.40959 14.4816 7.43801 14.562 7.45311C18.2131 8.15852 19.2031 5.57957 19.4668 5.20004C18.5993 6.44897 17.1418 6.74877 15.3529 6.31476C15.2118 6.28028 15.0565 6.22924 14.9201 6.18106C14.7454 6.11879 14.5737 6.04783 14.4064 5.96752C14.0886 5.81491 13.7861 5.62979 13.5052 5.41781C11.9048 4.20337 10.9107 1.88665 11.9549 0L11.3898 0.778904C10.6349 1.8899 10.5609 3.26963 11.0845 4.49675C11.6369 5.79906 12.7689 6.82086 14.09 7.30517Z" fill="#EBECF0"/>
</svg>
