<svg width="25" height="26" viewBox="0 0 25 26" fill="none" xmlns="http://www.w3.org/2000/svg">
<path fill-rule="evenodd" clip-rule="evenodd" d="M15.2083 8.11577V9.09175C16.1499 8.50679 17.2369 8.16584 18.8886 8.16584C24.2643 8.16584 24.9524 12.1839 24.9524 15.6843V25.2313L18.7369 25.2861V16.1551C18.7369 14.6223 18.1879 14.3314 17.1728 14.3314C16.2078 14.3314 15.6087 14.6364 15.6087 16.1551V25.2861L9.31181 25.2313V8.11576L15.2083 8.11577ZM6.25625 8.10546V25.2789H0V8.10547H6.25625V8.10546ZM4.69219 9.66952H1.56406V23.7148H4.69219V9.66954V9.66952ZM13.6443 9.67983H10.8759V23.6813L14.0447 23.7095V16.1551C14.0447 13.2068 16.0044 12.7673 17.1728 12.7673C18.5992 12.7673 20.3009 13.3554 20.3009 16.1551V23.7095L23.3884 23.6813V15.6843C23.3884 11.344 22.17 9.72989 18.8886 9.72989C16.9163 9.72989 16.0623 10.3148 15.2255 11.0187L15.0081 11.2032H13.6443V9.67983ZM3.12812 0.286072C4.85329 0.286072 6.25625 1.68904 6.25625 3.4142C6.25625 5.13937 4.85329 6.54232 3.12812 6.54232C1.40297 6.54232 0 5.13937 0 3.4142C0 1.68904 1.40297 0.286072 3.12812 0.286072ZM3.12812 1.85013C2.26633 1.85013 1.56406 2.5524 1.56406 3.4142C1.56406 4.27599 2.26633 4.97826 3.12812 4.97826C3.98992 4.97826 4.69219 4.27599 4.69219 3.4142C4.69219 2.5524 3.98992 1.85013 3.12812 1.85013Z" fill="#EBECF0"/>
</svg>
