<svg width="59" height="49" viewBox="0 0 59 49" fill="none" xmlns="http://www.w3.org/2000/svg">
<path d="M36.892 17.2747H18.5081V34.2493H36.892V17.2747Z" stroke="#14303F" stroke-width="3" stroke-linecap="round" stroke-linejoin="round"/>
<path d="M34.3059 17.2747V9.71106" stroke="#14303F" stroke-width="3" stroke-linecap="round" stroke-linejoin="round"/>
<path d="M34.3059 9.71106H41.1146" stroke="#14303F" stroke-width="3" stroke-linecap="round" stroke-linejoin="round"/>
<path d="M50.9335 12.0266C52.3185 12.0266 53.4413 10.9899 53.4413 9.71106C53.4413 8.43225 52.3185 7.39557 50.9335 7.39557C49.5485 7.39557 48.4258 8.43225 48.4258 9.71106C48.4258 10.9899 49.5485 12.0266 50.9335 12.0266Z" stroke="#14303F" stroke-width="3" stroke-linecap="round" stroke-linejoin="round"/>
<path d="M36.892 25.762H44.8669" stroke="#14303F" stroke-width="3" stroke-linecap="round" stroke-linejoin="round"/>
<path d="M27.7001 34.2493V41.3831" stroke="#14303F" stroke-width="3" stroke-linecap="round" stroke-linejoin="round"/>
<path d="M21.403 34.2493V41.9705" stroke="#14303F" stroke-width="3" stroke-linecap="round" stroke-linejoin="round"/>
<path d="M21.4029 41.9705H14.4606" stroke="#14303F" stroke-width="3" stroke-linecap="round" stroke-linejoin="round"/>
<path d="M18.5081 25.762H10.4871" stroke="#14303F" stroke-width="3" stroke-linecap="round" stroke-linejoin="round"/>
<path d="M7.74407 28.0775C9.12905 28.0775 10.2518 27.0408 10.2518 25.762C10.2518 24.4832 9.12905 23.4465 7.74407 23.4465C6.35908 23.4465 5.23633 24.4832 5.23633 25.762C5.23633 27.0408 6.35908 28.0775 7.74407 28.0775Z" stroke="#14303F" stroke-width="3" stroke-linecap="round" stroke-linejoin="round"/>
<path d="M27.7 9.71104C29.085 9.71104 30.2077 8.67435 30.2077 7.39554C30.2077 6.11673 29.085 5.08005 27.7 5.08005C26.315 5.08005 25.1923 6.11673 25.1923 7.39554C25.1923 8.67435 26.315 9.71104 27.7 9.71104Z" stroke="#14303F" stroke-width="3" stroke-linecap="round" stroke-linejoin="round"/>
<path d="M17.9042 20.1223H9.58813" stroke="#14303F" stroke-width="3" stroke-linecap="round" stroke-linejoin="round"/>
<path d="M9.58813 20.1223V6.86349" stroke="#14303F" stroke-width="3" stroke-linecap="round" stroke-linejoin="round"/>
<path d="M27.7001 17.1172V10.1239" stroke="#14303F" stroke-width="3" stroke-linecap="round" stroke-linejoin="round"/>
<path d="M9.58806 6.39527C10.973 6.39527 12.0958 5.35859 12.0958 4.07978C12.0958 2.80096 10.973 1.76428 9.58806 1.76428C8.20307 1.76428 7.08032 2.80096 7.08032 4.07978C7.08032 5.35859 8.20307 6.39527 9.58806 6.39527Z" stroke="#14303F" stroke-width="3" stroke-linecap="round" stroke-linejoin="round"/>
<path d="M50.9335 12.0266C52.3185 12.0266 53.4413 10.9899 53.4413 9.71106C53.4413 8.43225 52.3185 7.39557 50.9335 7.39557C49.5485 7.39557 48.4258 8.43225 48.4258 9.71106C48.4258 10.9899 49.5485 12.0266 50.9335 12.0266Z" stroke="#14303F" stroke-width="3" stroke-linecap="round" stroke-linejoin="round"/>
<path d="M47.9095 28.0775C49.2945 28.0775 50.4172 27.0408 50.4172 25.762C50.4172 24.4832 49.2945 23.4465 47.9095 23.4465C46.5245 23.4465 45.4017 24.4832 45.4017 25.762C45.4017 27.0408 46.5245 28.0775 47.9095 28.0775Z" stroke="#14303F" stroke-width="3" stroke-linecap="round" stroke-linejoin="round"/>
<path d="M27.7 46.6014C29.085 46.6014 30.2077 45.5648 30.2077 44.286C30.2077 43.0071 29.085 41.9705 27.7 41.9705C26.315 41.9705 25.1923 43.0071 25.1923 44.286C25.1923 45.5648 26.315 46.6014 27.7 46.6014Z" stroke="#14303F" stroke-width="3" stroke-linecap="round" stroke-linejoin="round"/>
<path d="M4.6602 44.286C6.04519 44.286 7.16794 43.2493 7.16794 41.9705C7.16794 40.6917 6.04519 39.655 4.6602 39.655C3.27522 39.655 2.15247 40.6917 2.15247 41.9705C2.15247 43.2493 3.27522 44.286 4.6602 44.286Z" stroke="#14303F" stroke-width="3" stroke-linecap="round" stroke-linejoin="round"/>
<path d="M36.9658 32.2573H45.2635" stroke="#14303F" stroke-width="3" stroke-linecap="round" stroke-linejoin="round"/>
<path d="M36.9658 32.2573V39.5784" stroke="#14303F" stroke-width="3" stroke-linecap="round" stroke-linejoin="round"/>
<path d="M36.9658 39.5784H45.2635" stroke="#14303F" stroke-width="3" stroke-linecap="round" stroke-linejoin="round"/>
<path d="M45.2634 39.5784V47.0526" stroke="#14303F" stroke-width="3" stroke-linecap="round" stroke-linejoin="round"/>
<path d="M45.2635 47.0526H36.9658" stroke="#14303F" stroke-width="3" stroke-linecap="round" stroke-linejoin="round"/>
<path d="M54.4922 34.5728C55.8772 34.5728 57 33.5361 57 32.2573C57 30.9785 55.8772 29.9418 54.4922 29.9418C53.1073 29.9418 51.9845 30.9785 51.9845 32.2573C51.9845 33.5361 53.1073 34.5728 54.4922 34.5728Z" stroke="#14303F" stroke-width="3" stroke-linecap="round" stroke-linejoin="round"/>
</svg>
