<svg width="468" height="265" viewBox="0 0 468 265" fill="none" xmlns="http://www.w3.org/2000/svg">
<g clip-path="url(#clip0_622_491)">
<path d="M464.47 117.44C461.85 135.4 457.38 147.17 457.38 147.17C448.38 147.17 432.38 146.11 432.38 146.11C432.38 146.11 416.38 145.17 393.38 141.17C370.38 137.17 370.38 132.17 349.38 132.17C343.84 132.17 339.83 132.45 336.93 132.86C328.84 134 329.38 136.17 329.38 136.17C329.38 136.17 329.17 136.49 328.77 137.05C328.58 137.32 328.34 137.65 328.05 138.03C327.96 138.15 327.87 138.28 327.77 138.41C327.57 138.67 327.36 138.95 327.14 139.25C327.03 139.39 326.91 139.55 326.79 139.7C326.63 139.9 326.46 140.11 326.3 140.32C325.55 141.27 324.68 142.32 323.71 143.42L323.66 143.48L323.61 143.53C322.61 144.66 321.51 145.84 320.33 146.99C320.13 147.18 319.93 147.38 319.72 147.57C319.51 147.78 319.28 147.99 319.05 148.2C318.65 148.57 318.24 148.93 317.83 149.29L317.76 149.35H317.75C317.29 149.75 316.82 150.14 316.34 150.51C316.11 150.69 315.88 150.87 315.64 151.04C315.39 151.23 315.14 151.41 314.88 151.59C314.75 151.69 314.61 151.78 314.47 151.87C314.25 152.03 314.03 152.17 313.8 152.32C313.33 152.62 312.86 152.9 312.38 153.17C310.13 154.42 308.38 155.23 306.88 155.97C306.7 156.05 306.51 156.15 306.33 156.24C305.61 156.59 304.95 156.95 304.3 157.34C303.98 157.53 303.67 157.73 303.36 157.95C303.2 158.06 303.05 158.17 302.89 158.29C302.77 158.38 302.65 158.47 302.53 158.57C302.22 158.81 301.91 159.07 301.59 159.37C301.47 159.48 301.35 159.59 301.23 159.71C300.99 159.94 300.74 160.19 300.49 160.45C300.37 160.57 300.26 160.7 300.14 160.83C300.08 160.89 300.03 160.95 299.98 161.01C299.93 161.07 299.88 161.12 299.83 161.18C299.73 161.29 299.62 161.41 299.52 161.54C299.49 161.56 299.47 161.59 299.45 161.62C299.27 161.83 299.08 162.05 298.9 162.28C298.89 162.29 298.88 162.3 298.88 162.31C298.74 162.48 298.6 162.65 298.47 162.83C297.48 164.09 296.39 165.62 295.12 167.51C294.59 168.31 294.02 169.17 293.42 170.1C293.4 170.15 293.36 170.18 293.32 170.22C292.96 170.51 290.94 172.15 287.87 173.77C287.7 173.86 287.53 173.95 287.35 174.04C286.73 174.36 286.07 174.68 285.37 174.97C285.14 175.07 284.9 175.17 284.66 175.27C284.12 175.49 283.55 175.7 282.97 175.9C282.93 175.91 282.89 175.92 282.86 175.93C282.12 176.18 281.35 176.41 280.55 176.6H280.54C279.52 176.86 278.47 177.05 277.38 177.17C272.67 177.69 267.7 181.22 264.03 184.46C263.84 184.63 263.65 184.8 263.46 184.96C263.44 184.98 263.42 185 263.4 185.02C263.22 185.19 263.04 185.36 262.86 185.52C262.65 185.72 262.44 185.92 262.24 186.11C259.5 188.74 255.94 190.33 252.16 190.58L230.08 192.06C229.09 192.12 228.24 192.8 227.96 193.75C227.88 194.03 227.78 194.35 227.67 194.7C227.6 194.94 227.52 195.2 227.43 195.47C226.36 198.67 224.31 203.72 220.87 208.51C220.74 208.69 220.64 208.9 220.6 209.11C220.54 209.37 220.55 209.63 220.64 209.89C221.28 211.85 222.72 217.49 220.6 223.67C220.47 224.05 220.42 224.45 220.48 224.85C220.83 227.08 221.81 235.46 218.38 243.17C214.95 250.88 209.33 252.72 205.9 253.09C205.32 253.15 204.81 253.17 204.38 253.17H199.38C199.38 253.17 194.38 254.17 191.38 235.17C188.38 216.17 190.38 206.17 190.38 206.17V206.15C190.6 205.43 196.44 186.09 199.38 182.17C199.73 181.7 199.93 181.31 200.01 180.97C200.04 180.86 200.05 180.76 200.05 180.67C200.06 180.31 199.91 180.05 199.64 179.84C198.31 178.84 194.08 179.75 193.38 181.17C192.4 183.14 193.35 192.83 178.19 200.75C177.91 200.9 177.68 201.13 177.54 201.4C177.43 201.6 177.37 201.81 177.36 202.04C177.21 205.47 176.16 218.24 168.78 227.67C168.66 227.82 168.56 228 168.5 228.18C168.44 228.36 168.4 228.55 168.4 228.75V228.79C168.48 231.92 168.58 246.1 164.26 253.18C159.38 261.17 152.38 261.17 150.38 261.17C149.39 261.17 147.68 260.68 146.2 259.7C146.18 259.7 146.17 259.69 146.16 259.67C145.87 259.49 145.59 259.28 145.32 259.05C144.85 258.64 144.43 258.18 144.11 257.65C143.66 256.93 143.38 256.1 143.38 255.17V255.13C143.45 254.88 143.82 253.38 144.05 250.54C144.08 250.28 144.1 250.02 144.12 249.74C144.14 249.44 144.16 249.13 144.17 248.8C144.23 247.74 144.27 246.54 144.27 245.19V245.05C144.27 243.19 144.21 241.07 144.04 238.68V238.65L144.02 238.39C143.9 236.72 143.73 234.91 143.5 232.98C143.5 232.96 143.5 232.94 143.49 232.92C143.46 232.62 143.42 232.31 143.38 232V231.9C143.24 230.88 143.14 229.95 143.06 229.09C142.96 228.02 142.89 227.07 142.86 226.21C142.82 225.19 142.83 224.31 142.87 223.52V223.46V223.41C142.9 222.94 142.93 222.49 142.98 222.09C142.99 221.94 143.02 221.79 143.04 221.65C143.1 221.26 143.17 220.89 143.25 220.55C143.26 220.5 143.28 220.44 143.29 220.39C143.38 220.04 143.48 219.71 143.59 219.4L143.6 219.37C143.93 218.4 144.34 217.56 144.79 216.61L144.85 216.49C145.01 216.13 145.18 215.77 145.35 215.37L145.73 214.45L145.78 214.33V214.3C146.36 212.8 146.91 210.9 147.37 208.17C147.82 205.49 147.98 203.01 148.07 200.68V200.6C148.08 200.49 148.08 200.37 148.09 200.26C148.25 195.73 148.2 191.79 149.54 188.19C149.56 188.14 149.58 188.08 149.6 188.03C150.2 186.47 151.06 184.98 152.33 183.52C152.36 183.48 152.4 183.44 152.44 183.39C152.46 183.37 152.49 183.34 152.52 183.31C152.95 182.83 153.43 182.35 153.96 181.88C154.44 181.44 154.96 181.01 155.52 180.59C154.9 180.89 154.26 181.18 153.59 181.46C153.26 181.6 152.92 181.74 152.57 181.88C151.87 182.16 151.14 182.43 150.38 182.7H150.36C150.07 182.8 149.77 182.91 149.47 183.01C149.15 183.11 148.82 183.22 148.48 183.33H148.46C148.25 183.41 148.03 183.48 147.8 183.55L147.72 183.57C147.25 183.72 146.77 183.86 146.28 184.01C146 184.09 145.72 184.18 145.43 184.26C144.98 184.39 144.52 184.52 144.05 184.65C143.86 184.7 143.66 184.76 143.47 184.81L143.36 184.84C141.84 185.26 140.22 185.69 138.48 186.13C138.28 186.18 138.08 186.23 137.88 186.29C137.8 186.31 137.73 186.32 137.65 186.35C137.17 186.47 136.67 186.59 136.16 186.72C135.95 186.77 135.74 186.83 135.53 186.88C135.15 186.98 134.77 187.07 134.38 187.17C133.88 187.29 133.39 187.41 132.91 187.51C132.34 187.63 131.78 187.74 131.23 187.84C131.16 187.85 131.09 187.86 131.03 187.87C130.57 187.95 130.11 188.02 129.66 188.07C129.17 188.14 128.68 188.19 128.2 188.23C127.9 188.26 127.6 188.29 127.3 188.31C127.26 188.31 127.22 188.31 127.18 188.31C126.93 188.32 126.69 188.34 126.45 188.34C126.26 188.35 126.06 188.36 125.87 188.36H125.85C125.63 188.36 125.41 188.36 125.2 188.36H125.18C124.85 188.36 124.53 188.36 124.22 188.34C124.03 188.34 123.83 188.33 123.65 188.32C123.41 188.31 123.17 188.29 122.94 188.27C122.43 188.24 121.94 188.19 121.45 188.12H121.41C121.35 188.11 121.3 188.1 121.24 188.09C120.94 188.05 120.66 188.01 120.37 187.96C120.31 187.95 120.26 187.94 120.2 187.93C119.93 187.88 119.65 187.83 119.39 187.77C118.57 187.6 117.79 187.39 117.05 187.15C116.93 187.11 116.82 187.08 116.71 187.03C114.41 186.27 112.5 185.24 110.95 184.13C107.53 181.72 105.81 179.01 105.38 178.15C105 177.4 103.47 175.49 102.15 173.13C101.79 172.48 101.44 171.8 101.14 171.1C100.95 170.66 100.78 170.21 100.64 169.76C100.56 169.54 100.5 169.31 100.44 169.08C100.38 168.85 100.32 168.63 100.28 168.4C100.27 168.39 100.27 168.37 100.27 168.36C100.23 168.18 100.2 167.99 100.18 167.81C100.15 167.63 100.13 167.45 100.12 167.28C99.95 165.04 100.71 162.87 103.26 161.23C103.3 161.2 103.34 161.18 103.38 161.15C103.43 161.12 103.48 161.09 103.53 161.06C103.99 160.77 104.45 160.49 104.9 160.24C104.17 160.87 104.03 161.45 104.38 162.15C105.3 163.99 110.45 172.6 119.06 179.42C120.39 180.48 122.29 180.44 123.59 179.35C126.45 176.94 131.32 172.58 133.38 169.15C136.38 164.15 130.38 158.15 130.38 158.15C130.38 158.15 125.03 150.47 115.72 154.8C118.15 153.55 120.35 152.18 122.38 150.15C124.17 148.36 126.33 146.71 128.38 145.32C132.07 142.8 135.38 141.15 135.38 141.15C135.38 140.9 135.4 140.65 135.43 140.39C136.11 134.42 144.38 126.15 144.38 126.15C142.35 125.84 140.56 125.31 138.99 124.63C136.69 123.64 134.85 122.34 133.4 120.96C131.65 119.32 130.46 117.58 129.68 116.16C129.23 115.33 128.91 114.61 128.71 114.09C128.48 113.5 128.38 113.15 128.38 113.15C128.38 113.15 128.26 113.16 128.03 113.18C127.92 113.2 127.79 113.21 127.64 113.22C123.94 113.53 107.35 114.69 99.38 111.15C95.79 109.55 93.15 108.43 90.65 107.98C90.64 107.98 90.63 107.98 90.62 107.98C86.86 107.32 83.38 108.16 77.38 111.16C68.87 115.41 63.26 111.7 56.85 112.97H56.83C55.71 113.19 54.57 113.57 53.38 114.16C53.2 114.25 53.01 114.34 52.81 114.42C52.75 114.46 52.68 114.49 52.61 114.51C52.48 114.57 52.35 114.63 52.21 114.68C52 114.76 51.78 114.84 51.56 114.92C51.49 114.95 51.42 114.98 51.34 115C50.72 115.22 50.07 115.42 49.37 115.61C49.35 115.61 49.32 115.61 49.3 115.63C48.65 115.8 47.97 115.96 47.26 116.11C47.14 116.14 47.01 116.17 46.88 116.19C46.67 116.23 46.46 116.28 46.25 116.32C46.06 116.35 45.87 116.39 45.68 116.43C45.41 116.47 45.14 116.52 44.86 116.57C44.61 116.61 44.35 116.65 44.1 116.69C44.05 116.7 43.99 116.71 43.94 116.72C43.74 116.75 43.54 116.78 43.34 116.81C43.22 116.83 43.1 116.84 42.98 116.86C42.28 116.96 41.57 117.05 40.87 117.14C40.32 117.2 39.76 117.26 39.21 117.32C38.95 117.35 38.69 117.38 38.43 117.4C38.22 117.42 38.02 117.44 37.81 117.46C37.72 117.47 37.63 117.47 37.54 117.48C37.21 117.51 36.88 117.54 36.56 117.57C36.35 117.59 36.15 117.6 35.94 117.62H35.87C35.48 117.65 35.09 117.68 34.7 117.71C34.28 117.74 33.87 117.76 33.47 117.79C33.17 117.81 32.88 117.82 32.59 117.84C32.05 117.87 31.52 117.9 31 117.92C30.63 117.94 30.27 117.96 29.91 117.97C29.84 117.97 29.76 117.98 29.69 117.98C29.61 117.98 29.54 117.98 29.47 117.98H29.45C29.22 117.99 29 118 28.77 118.01C28.4 118.02 28.04 118.03 27.68 118.04C27.32 118.04 26.97 118.06 26.62 118.07C26.4 118.08 26.19 118.09 25.98 118.09C22.88 118.16 20.47 118.15 19.38 118.15C18.78 118.15 17.88 118.08 16.8 117.93H16.79C16.79 117.93 16.69 117.91 16.64 117.91C16.33 117.86 16 117.81 15.66 117.75C15.49 117.72 15.32 117.69 15.14 117.66C15.12 117.66 15.09 117.65 15.07 117.64C14.91 117.61 14.76 117.58 14.6 117.55C14.52 117.55 14.45 117.52 14.37 117.5C14.29 117.49 14.21 117.47 14.12 117.45C13.98 117.42 13.83 117.39 13.68 117.35C13.52 117.32 13.36 117.28 13.2 117.24C13.18 117.23 13.15 117.23 13.12 117.22C12.99 117.19 12.86 117.15 12.73 117.12C12.61 117.09 12.48 117.06 12.35 117.02C12.22 116.99 12.09 116.95 11.96 116.91C11.92 116.9 11.87 116.89 11.83 116.88C11.81 116.87 11.79 116.87 11.76 116.86C11.69 116.84 11.63 116.82 11.57 116.8C11.05 116.65 10.52 116.48 9.99997 116.3C9.76997 116.22 9.54997 116.14 9.32997 116.05C8.91997 115.9 8.50997 115.74 8.11997 115.56C8.02997 115.52 7.94997 115.49 7.86997 115.45C7.79997 115.42 7.73997 115.39 7.67997 115.36C7.42997 115.24 7.17997 115.12 6.93997 115C6.19997 114.63 5.48997 114.21 4.83997 113.75C4.69997 113.66 4.55997 113.56 4.42997 113.45C4.31997 113.37 4.21997 113.29 4.11997 113.21C3.69997 112.87 3.31997 112.51 2.96997 112.13C2.95997 112.12 2.94997 112.11 2.92997 112.09C2.72997 111.87 2.53997 111.64 2.36997 111.4C2.03997 110.96 1.77997 110.5 1.56997 110.02C1.49997 109.88 1.44997 109.73 1.39997 109.58C1.36997 109.53 1.35997 109.48 1.34997 109.43C1.28997 109.26 1.23997 109.08 1.19997 108.9C1.14997 108.67 1.09997 108.43 1.06997 108.18C0.959966 107.25 1.04997 106.24 1.37997 105.15C2.07997 102.81 3.33997 101.01 4.83997 99.6398C9.75997 95.1498 17.38 95.1498 17.38 95.1498L27.11 88.4098C29.26 86.9298 31.74 85.9998 34.33 85.7098L45.85 84.4298C47.52 84.2498 49.13 83.7198 50.58 82.8798L63.87 75.1798C65.56 74.1998 67.42 73.5798 69.35 73.3398C69.38 73.3298 69.41 73.3298 69.45 73.3298C70.1 73.2398 70.77 73.2098 71.44 73.2198L74.51 73.3298L76 73.3798L86.41 73.7498L89.79 73.8798L124.47 75.1198L125.37 75.1498C126.79 75.1498 128 74.7798 129.11 74.2598C130.34 73.6798 131.43 72.9098 132.52 72.2598L136.68 69.7598C138.45 68.6998 140.45 68.1098 142.5 68.0298L160.03 67.3798C164.18 67.2298 168.25 66.1498 171.93 64.2198C174.47 62.8798 176.83 61.6498 179.02 60.5098C187.39 56.1698 193.3 53.2198 197.42 51.2198C202.14 48.9298 207.18 47.4398 212.35 46.5998C217.81 45.7298 224.52 43.3698 232.6 40.8698C234.45 40.2998 236.37 39.7198 238.37 39.1498C241.01 38.3998 242.95 37.8698 244.54 37.4998H244.55C251.38 35.8998 251.59 37.0798 271.87 34.6498C296.87 31.6498 301.37 26.1498 310.37 23.1498C313.18 22.2098 316.53 21.5198 320.11 21.0098C327.99 19.8898 336.99 19.6498 343.87 19.6498C353.87 19.6498 372.37 7.14977 382.87 4.64977C386.83 3.69977 394.62 2.95977 402.88 2.39977C416.96 1.43977 432.37 1.00977 432.37 1.00977C436.64 5.64977 440.42 10.4098 443.74 15.2598C468.18 50.9098 468.33 90.9198 464.46 117.42L464.47 117.44Z" fill="#D9DADD"/>
<path d="M465.46 117.59C464.33 125.2 462.77 132.75 460.66 140.16C459.95 142.64 459.21 145.07 458.31 147.53C458.16 147.93 457.78 148.18 457.37 148.18C435.52 147.94 413.75 145.86 392.25 141.99C384.17 140.67 376.28 138.11 368.52 135.59C360.76 133.22 352.66 133.02 344.57 133.27C340.6 133.45 336.52 133.65 332.74 134.8C331.89 135.07 330.77 135.55 330.36 136.13C330.36 136.13 330.36 136.11 330.36 136.09C330.36 136.07 330.36 136.06 330.34 135.96L330.21 136.75C329.31 138.06 328.39 139.3 327.4 140.56C324.85 143.79 321.31 147.65 318.39 150.15C315.65 152.62 312.17 154.51 308.85 156.11C305.56 157.7 302.56 159.31 300.3 162.18L300.06 162.4C300.14 162.36 300.22 162.28 300.27 162.2L300.2 162.3L299.68 162.93L299.6 163.02C299.77 162.87 299.89 162.57 299.87 162.35L299.64 162.98C299.18 163.53 298.73 164.22 298.27 164.85C296.95 166.63 295.45 168.82 294.25 170.68C293.4 171.74 290.6 173.4 288.85 174.41C286.41 175.79 283.5 176.9 280.77 177.61L281.25 177.34C281.11 177.48 280.96 177.58 280.77 177.61C277.45 178.19 274.61 178.49 271.74 180.16C267.74 182.24 264.72 185.31 261.43 188.13C258.51 190.43 254.68 191.6 251.03 191.68L236.94 192.62L230 193.09C229.08 193.2 228.87 194.17 228.66 194.91C228.31 196.08 227.9 197.2 227.47 198.32C225.99 202.09 224.1 205.72 221.75 209.02C221.64 209.17 221.65 209.16 221.62 209.23C221.6 209.28 221.59 209.3 221.58 209.39C221.57 209.46 221.58 209.51 221.6 209.58C223.06 214.2 223.14 219.28 221.6 223.89C221.49 224.27 221.44 224.4 221.48 224.72C222.73 233.97 221.26 245.04 213.5 251.17C210.49 253.48 206.65 254.37 202.92 254.19H199.39L199.59 254.17C198.75 254.28 198.03 253.96 197.4 253.54C192.04 249.3 190.84 237.59 189.81 231.11C188.84 222.71 188.08 214.15 189.51 205.75C190.86 201.11 193.01 194.69 194.93 189.52C196.03 186.75 196.96 184.04 198.67 181.51C198.89 181.2 199.06 180.92 199.08 180.65C199.08 180.63 199.08 180.68 199.1 180.68C199.1 180.68 198.98 180.6 198.77 180.53C198.53 180.48 198.26 180.43 197.96 180.44C196.7 180.46 195.14 180.8 194.35 181.59C194.25 181.7 194.2 182.03 194.14 182.24C193.03 190.84 186.88 197.38 179.42 201.24L178.94 201.51C178.74 201.6 178.44 201.79 178.4 202.02C177.89 210.68 175.7 219.43 170.76 226.71L169.54 228.4C169.5 228.47 169.48 228.51 169.45 228.62C169.4 229.66 169.48 231.09 169.44 232.16C169.07 240.75 168.75 250.52 162.52 257.15C158.48 261.49 150.95 264.07 145.68 260.56L146.23 260.73C146.09 260.74 145.75 260.66 145.56 260.48C145.37 260.31 145.33 260.2 145.3 260.15L145.67 260.55C144.78 259.93 143.97 259.28 143.38 258.34C142.79 257.46 142.4 256.32 142.42 255.2C142.68 253.86 142.94 252.45 143.05 251.02C143.44 247.18 143.25 242.67 143.09 238.78C143.09 238.75 143.09 238.71 143.09 238.68V238.76L142.55 233.13V233.01C142.55 233.14 142.58 233.28 142.65 233.4C142.21 230.99 142.04 228.42 141.92 225.94C141.92 223.55 141.88 221.58 142.72 219.1L142.66 219.43C142.66 219.26 142.7 219.1 142.78 218.95C142.43 219.78 143.97 216.18 143.86 216.45C145.24 213.63 146.08 210.69 146.55 207.48C148.04 199.41 145.54 189.75 151.65 182.9C152.35 182.11 153.95 180.62 154.99 179.83L156.03 181.53C152.6 183.12 150.39 183.86 147.47 184.75C144.95 185.55 140.54 186.66 137.97 187.36L135.84 187.89C135.76 187.91 135.68 187.92 135.61 187.92C135.57 187.92 135.86 187.89 135.85 187.89C131.31 189.23 124.97 189.79 121.19 189.15C114.68 188.27 108.22 184.84 104.66 178.88L104.48 178.55L104.29 178.25C102.24 175.27 100.13 172.28 99.35 168.64L99.63 169.17C98.92 168.13 99.01 165.66 99.69 163.97C100.29 162.39 101.81 161.03 102.92 160.36L104.47 159.43C104.94 159.15 105.55 159.3 105.84 159.77C106.1 160.2 105.99 160.75 105.61 161.06C105.32 161.34 105.15 161.45 105.34 161.79C108.91 168.18 113.81 173.86 119.47 178.48C120.44 179.44 121.99 179.51 123.02 178.63L124.34 177.5C125.21 176.74 126.08 175.96 126.92 175.16C128.6 173.57 130.22 171.91 131.59 170.13C132.95 168.52 133.67 166.56 133.03 164.45C132.05 161.22 129.65 158.3 126.9 156.27C124.3 154.48 120.95 154.11 117.98 155.09C117.35 155.29 116.74 155.57 116.12 155.8C115.01 156.23 114.19 154.56 115.32 153.98C119.03 152.32 121.65 149.45 124.7 146.88C127.93 144.35 131.35 142.21 134.99 140.32L134.44 141.21C134.59 137.89 136.23 135.16 137.96 132.52C139.68 130 141.61 127.7 143.73 125.5L144.29 127.2C137.88 126.29 131.37 122.27 128.74 116.21L128.86 116.69L128.12 115.12C128 114.85 127.86 114.61 127.77 114.32L127.48 113.48L128.52 114.2C127.2 114.32 124.97 114.48 123.36 114.55C115.28 114.77 107.03 115.1 99.28 112.21C96.34 110.95 93.47 109.57 90.53 109.01L90.7 109.03C90.46 109.03 90.14 108.91 89.97 108.73L90.5 109C87.84 108.49 85.13 109.02 82.51 110.03C79.78 111.01 77.27 112.6 74.46 113.46C71.53 114.36 68.39 114.45 65.47 114.15C61.23 113.73 57.69 113.25 54.25 114.92C53 115.47 53.1 115.51 51.63 116.01C52.03 115.88 49.62 116.64 49.68 116.61L49.42 116.64C49.55 116.64 49.69 116.62 49.8 116.55L49.61 116.62C45.22 117.75 40.6 118.27 36.09 118.64C31.84 118.97 26.19 119.16 21.62 119.16C19.16 119.22 16.29 119.03 14.68 118.56L14.94 118.65L14.18 118.5L14.3 118.52L13.86 118.43L13.48 118.34C13.75 118.4 13 118.23 13.01 118.23L12.81 118.15C12.82 118.18 12.92 118.2 12.95 118.21L12.11 117.99L12.18 118.01C12 117.96 11.76 117.89 11.64 117.87L11.44 117.79C11.44 117.79 11.49 117.82 11.51 117.83C11.53 117.83 11.48 117.83 11.47 117.82L11.35 117.78L11.1 117.7L10.6 117.54C8.91002 117.01 7.24002 116.35 5.73002 115.43L4.80002 114.88L4.34002 114.6C3.19002 113.78 1.93002 112.64 1.11002 111.23C-1.31998 107.41 0.950024 101.12 5.32002 98.02C8.88002 95.45 13.09 94.35 17.44 94.17L16.87 94.35L22.77 90.26C25.74 88.19 28.85 85.73 32.51 85.03C34.65 84.6 40.98 84.02 43.3 83.73C45.63 83.48 47.83 83.35 49.85 82.19L56.04 78.61C58.51 77.29 63.04 74.31 65.57 73.3C68.89 71.96 71.56 72.26 75.24 72.37L80.94 72.57C88 72.85 107.77 73.52 115.13 73.8C118.02 73.87 122.63 74.1 125.45 74.17C127.54 74.17 129.26 73.21 131.15 71.99L136.05 69.03C139.43 66.76 143.73 67.02 147.58 66.86L158.98 66.44C162.72 66.4 166.33 65.68 169.71 64.22C177.5 60.26 187.23 55.26 195.09 51.33C200.17 48.62 205.81 46.74 211.49 45.77C215.21 45.21 218.8 44.16 222.43 43.06C229.4 40.82 238.05 38.11 244.37 36.54C248.02 35.52 252.79 35.48 256.52 35.18C260.52 34.9 264.52 34.5 268.51 34.04C276.49 33.14 284.44 32 292.04 29.63C299.8 27.43 306.65 22.53 314.64 20.95C322.67 19.27 330.79 18.85 338.87 18.66L341.9 18.62C344.91 18.71 347.67 18.28 350.49 17.32C362.03 13.61 372.08 6.16 384.01 3.34C392.07 1.94 400.09 1.56 408.2 1.03C416.23 0.58 424.29 0.24 432.35 0C432.66 0 432.94 0.12 433.14 0.33C455.25 23.82 467.32 57.23 467.27 90.84C467.36 99.78 466.68 108.75 464.83 117.49L465.45 117.58L465.46 117.59ZM464.1 117.39C465.56 99.74 466.24 81.95 462.81 64.51C458.23 40.38 447.5 18.85 431.61 1.73L432.4 2.06C416.41 2.73 400.2 2.99 384.38 5.43C376.68 7.14 369.6 11.4 362.39 14.65C355.99 17.55 349.13 21.04 341.88 20.72L338.87 20.76C328.93 21.09 318.78 21.32 309.39 24.62C303.8 26.86 298.47 29.91 292.61 31.59C280.86 35.14 268.74 36.17 256.62 37.19C252.97 37.47 248.26 37.56 244.79 38.49C238.5 40.07 230.04 42.7 222.97 44.95C219.33 46.05 215.59 47.14 211.79 47.71C206.23 48.67 200.91 50.44 195.92 53.1C192.83 54.7 183.9 59.14 180.67 60.8C177.2 62.52 174.01 64.39 170.46 66.03C166.86 67.61 162.87 68.38 159.01 68.42L147.61 68.84C143.96 69.05 140.2 68.63 137.03 70.72L132.17 73.66C130.59 74.67 128.74 75.79 126.59 76.07C125.62 76.19 124.55 76.12 123.59 76.09L120.74 75.99C110.4 75.65 91.11 74.91 80.83 74.56C77.81 74.56 72.4 74.06 69.47 74.34C69.54 74.34 69.62 74.33 69.69 74.3L69.5 74.34C68.39 74.48 67.31 74.75 66.27 75.15C65.22 75.54 64.29 76.11 63.23 76.73L57.02 80.33C54.93 81.48 49.61 85 47.14 85.25C43.95 85.67 39.42 86.16 36.36 86.5C32.93 86.72 29.58 87.66 26.82 89.85C24.64 91.34 20.13 94.5 17.97 95.98C17.8 96.1 17.6 96.16 17.4 96.16C13.63 96.3 9.56002 97.35 6.48002 99.61C3.59002 101.68 1.24002 105.79 2.35002 109.24C2.35002 109.18 2.32002 109.12 2.28002 109.07L2.37002 109.27C2.44002 109.43 2.46002 109.53 2.56002 109.75C3.15002 111.05 4.29002 112.09 5.42002 112.93C6.12002 113.33 6.82002 113.79 7.51002 114.17C8.38002 114.61 9.33002 114.99 10.23 115.32L12.29 115.99L12.09 115.91C12.34 115.97 12.45 116.01 12.65 116.06C13.63 116.31 14.04 116.42 15.27 116.65L15.53 116.74C15.42 116.68 15.28 116.65 15.15 116.65H15.31L16.8 116.91L16.64 116.9C16.76 116.9 16.87 116.92 16.99 116.94L16.79 116.92H16.84H16.93L19.18 117.12C28.22 117.12 37 116.91 45.82 115.36C46.68 115.21 48.17 114.84 49.04 114.64L48.85 114.71C49.01 114.64 49.19 114.59 49.37 114.58L49.11 114.61C49.72 114.4 51.09 114.03 51.63 113.8C51.73 113.76 51.87 113.72 51.94 113.68L52.2 113.57L52.34 113.52C52.31 113.52 52.28 113.53 52.26 113.56L52.44 113.46L53.36 113.03C59.58 109.84 67.06 113.7 73.83 111.47C77.95 110.09 81.71 107.48 86.15 106.89C87.68 106.66 89.27 106.69 90.79 106.96L91.32 107.23C91.17 107.06 90.87 106.94 90.65 106.95L90.83 106.97C94.18 107.61 97.11 109.07 100.01 110.3C102.79 111.43 105.91 111.95 109.02 112.26C115.23 112.84 121.62 112.67 127.85 112.17C128.46 112.06 129.09 112.15 129.32 112.79C129.48 113.27 129.67 113.81 129.9 114.25L130.56 115.65C130.64 115.81 130.68 115.97 130.68 116.14L130.56 115.66C133.36 120.86 138.7 124.34 144.53 125.14C145.33 125.24 145.66 126.28 145.09 126.83C144.09 127.85 143.1 128.97 142.17 130.09C139.63 133.3 136.68 136.99 136.37 141.17C136.35 141.55 136.13 141.87 135.82 142.03C132.36 143.82 128.95 145.95 125.88 148.37C122.81 151 119.93 154 116.17 155.68L115.29 153.88C120.76 151.14 127.53 152.57 131.19 157.57C132.42 158.7 134.32 161.59 134.9 163.87C136.51 169.13 131.5 173.22 128.23 176.54C127.37 177.36 126.49 178.15 125.59 178.93L124.24 180.09C123.1 181.06 121.47 181.43 120.02 181.01C118.16 180.41 116.9 178.83 115.43 177.64C111.05 173.58 107.22 168.95 104.15 163.83C103.58 162.85 102.76 161.6 103.43 160.45C103.66 160.01 103.95 159.73 104.23 159.48L105.37 161.11C102.42 162.7 100.46 164.46 101.25 168.35C101.26 168.13 101.14 167.83 100.97 167.69L101.25 168.22C101.92 171.19 103.68 173.89 105.43 176.39C106.09 177.23 106.48 178.23 107.15 179.08C110.06 183 114.49 185.64 119.25 186.69C122.15 187.39 125.28 187.49 128.43 187.16C131.76 186.85 134.64 186.03 137.4 185.34C139.38 184.84 144.52 183.47 146.83 182.75C147.16 182.67 147.81 182.44 148.13 182.35L148 182.4C148.79 182.15 149.56 181.8 150.35 181.65C150.43 181.65 150.02 181.71 150.04 181.71C150.89 181.38 151.75 181.08 152.59 180.74C153.71 180.5 155.61 178.67 156.4 180.16C156.58 180.58 156.46 181.07 156.11 181.34L154.58 182.61L153.14 184.05C151.54 185.72 149.97 188.99 149.63 191.73C149.15 194.23 149.19 198.46 149.06 200.67C148.86 206.29 148.11 212.13 145.58 217.23L144.54 219.65L144.49 219.78V219.8L144.59 219.35C144.59 219.47 144.57 219.58 144.53 219.69C144.12 220.86 143.94 222.19 143.86 223.43C143.86 223.48 143.85 223.55 143.84 223.59L143.85 223.38V223.44V223.53C143.69 226.44 144.31 231.61 144.47 232.82L145.01 238.53V238.59V238.61C144.99 238.33 145.16 242.76 145.16 242.75C145.31 246.96 145.22 251.22 144.32 255.37L144.35 255.13C144.32 256.64 145.41 257.99 146.66 258.78L147.03 259.18C147.01 259.14 146.98 259.05 146.8 258.89C146.62 258.72 146.3 258.65 146.18 258.66L146.73 258.83C147.77 259.52 149.1 260.04 150.23 260.13C157.19 260.51 163.19 255.23 165.11 248.73C167.12 242.38 167.45 235.51 167.39 228.86C167.36 228.31 167.5 227.79 167.78 227.3C173.27 220.19 175.79 211.12 176.34 202.2C176.31 201.21 176.85 200.26 177.73 199.81L177.96 199.68L178.42 199.42C185.15 195.92 191 190.03 192.03 182.27C192.17 181.6 192.26 180.99 192.68 180.37C194.02 178.8 196.02 178.46 197.94 178.38C200.57 178.28 202.05 180.31 200.27 182.61C196.26 189.49 193.58 199.71 191.36 206.32C190.19 214.37 190.79 222.72 191.77 230.79C192.57 236.1 194.24 249.9 199.15 252.12C199.18 252.14 199.31 252.12 199.18 252.14L199.38 252.12H202.91C216.96 253.08 221.26 236.63 219.55 225.38C219.4 224.7 219.43 223.79 219.68 223.19C221.06 219.06 221 214.49 219.74 210.35C219.48 209.69 219.49 209 219.78 208.34C219.97 207.99 220.15 207.72 220.35 207.44C222.49 204.37 224.22 201.01 225.59 197.53C226.13 196.19 226.58 194.81 226.98 193.44C227.37 191.84 229.09 190.9 230.63 190.98C232.42 190.87 235.03 190.67 236.79 190.57C238.81 190.29 252.38 189.76 254.24 189.24C257.58 188.59 260.46 186.57 262.8 184.16C267.07 180.36 272.13 176.64 278 176.01L280.29 175.61C280.29 175.61 279.78 175.91 279.83 175.86C279.96 175.72 280.13 175.64 280.31 175.59L282.72 174.89L282.64 174.91C283.53 174.57 284.44 174.26 285.32 173.84C287.88 172.81 291.51 170.37 292.58 169.51C294.24 166.87 296.24 164.14 298.11 161.63L297.88 162.26C297.88 162.01 298.01 161.7 298.19 161.53L298.11 161.62L298.69 160.93L298.62 161.03C298.71 160.9 298.84 160.77 298.97 160.67L298.73 160.89L299.21 160.34C301.48 157.57 304.88 155.74 307.98 154.25C311.09 152.78 314.73 150.72 317.05 148.61C320.85 145.24 324.23 141.47 327.24 137.41C327.69 136.8 328.13 136.19 328.55 135.58L328.42 136.37C328.18 133.14 333.94 132.33 336.28 131.91C344.51 130.85 352.74 130.83 361 131.84C366.46 132.53 371.72 134.44 376.9 136.11C392.45 140.89 408.77 142.6 424.88 144.43C435.66 145.42 446.57 145.97 457.39 146.12L456.46 146.76C458.15 142.04 459.5 137.09 460.66 132.19C461.81 127.25 462.75 122.26 463.49 117.24L464.11 117.33L464.1 117.39Z" fill="black"/>
<path d="M224.38 97.1698C222.14 114.36 215.99 123.17 213.03 126.52C212.02 127.66 211.38 128.17 211.38 128.17L212.34 131.1L209.63 133.26L202.77 138.73L201.42 139.81L190.5 148.51L184.08 153.63L178.55 158.04L152.41 178.88L142.39 181.17L116.78 187.03L116.71 187.05C114.41 186.29 112.5 185.26 110.95 184.15L108.88 183.13L103.53 176.62L102.15 173.15C101.79 172.5 101.44 171.82 101.14 171.12C100.95 170.68 100.78 170.23 100.64 169.78C100.56 169.56 100.5 169.33 100.44 169.1C100.38 168.87 100.32 168.65 100.28 168.42C100.27 168.41 100.27 168.39 100.27 168.38C100.23 168.2 100.2 168.01 100.18 167.83C100.15 167.65 100.13 167.47 100.12 167.3C99.95 165.06 100.71 162.89 103.26 161.25C103.3 161.22 103.34 161.2 103.38 161.17C103.43 161.14 103.48 161.11 103.53 161.08C103.99 160.79 104.45 160.51 104.9 160.26C106.25 159.07 109.61 157.67 115.62 154.87C115.65 154.86 115.68 154.84 115.71 154.83H115.72C118.15 153.57 120.35 152.2 122.38 150.17C124.17 148.38 126.33 146.73 128.38 145.34C132.07 142.82 135.38 141.17 135.38 141.17C135.38 140.92 135.4 140.67 135.43 140.41C136.11 134.44 144.38 126.17 144.38 126.17C142.35 125.86 140.56 125.33 138.99 124.65C136.69 123.66 134.85 122.36 133.4 120.98C131.65 119.34 130.46 117.6 129.68 116.18C129.23 115.35 128.91 114.63 128.71 114.11C128.48 113.52 128.38 113.17 128.38 113.17C128.38 113.17 128.26 113.18 128.03 113.2C127.92 113.22 127.79 113.23 127.64 113.24C123.94 113.55 107.35 114.71 99.38 111.17C95.79 109.57 93.15 108.45 90.65 108C90.64 108 90.63 108 90.62 108C86.86 107.34 83.38 108.18 77.38 111.18C68.87 115.43 63.26 111.72 56.85 112.99H56.83C55.71 113.21 54.57 113.59 53.38 114.18C53.22 114.26 53.05 114.34 52.88 114.42C52.79 114.46 52.7 114.5 52.61 114.53C52.48 114.59 52.35 114.65 52.21 114.7C52.07 114.76 51.92 114.81 51.78 114.87C51.63 114.92 51.49 114.97 51.34 115.02C50.72 115.24 50.07 115.44 49.37 115.63C49.35 115.63 49.32 115.63 49.3 115.65C48.65 115.82 47.97 115.98 47.26 116.13C47.13 116.16 47.01 116.19 46.88 116.21C46.67 116.25 46.46 116.3 46.25 116.34C46.06 116.38 45.87 116.41 45.68 116.45C45.41 116.49 45.14 116.54 44.86 116.59C44.61 116.63 44.35 116.67 44.1 116.71C44.05 116.72 43.99 116.73 43.94 116.74C43.74 116.77 43.54 116.8 43.34 116.83C43.22 116.85 43.1 116.86 42.98 116.88C42.28 116.98 41.57 117.07 40.87 117.16C40.32 117.22 39.76 117.28 39.21 117.34C38.95 117.37 38.69 117.4 38.43 117.42C38.22 117.44 38.02 117.46 37.81 117.48C37.39 117.52 36.98 117.56 36.56 117.59C36.35 117.61 36.15 117.62 35.94 117.64C35.52 117.67 35.11 117.7 34.7 117.73C34.28 117.76 33.87 117.78 33.47 117.81C33.17 117.83 32.88 117.84 32.59 117.86C32.05 117.89 31.52 117.92 31 117.94C30.63 117.96 30.27 117.98 29.91 117.99C29.84 117.99 29.76 118 29.69 118C29.61 118 29.54 118 29.47 118H29.45C29.22 118.01 29 118.02 28.77 118.03C28.4 118.04 28.04 118.05 27.68 118.06C27.32 118.06 26.97 118.08 26.62 118.09C26.4 118.1 26.19 118.11 25.98 118.11C22.88 118.18 20.47 118.17 19.38 118.17C18.78 118.17 17.88 118.1 16.8 117.95H16.79C16.79 117.95 16.69 117.93 16.64 117.93C16.33 117.88 16 117.83 15.66 117.77C15.49 117.74 15.32 117.71 15.14 117.68C14.96 117.65 14.78 117.61 14.6 117.57C14.52 117.57 14.45 117.54 14.37 117.52C14.29 117.51 14.21 117.49 14.12 117.47C13.98 117.44 13.83 117.41 13.68 117.37C13.52 117.34 13.36 117.3 13.2 117.26C13.18 117.25 13.15 117.25 13.12 117.24C12.99 117.21 12.86 117.17 12.73 117.14C12.61 117.11 12.48 117.08 12.35 117.04C12.18 117 12.01 116.95 11.83 116.9C11.81 116.89 11.79 116.89 11.76 116.88C11.69 116.86 11.63 116.84 11.57 116.82C11.05 116.67 10.52 116.5 9.99997 116.32C9.76997 116.24 9.54997 116.16 9.32997 116.07C8.91997 115.92 8.50997 115.76 8.11997 115.58C8.02997 115.54 7.94997 115.51 7.86997 115.47C7.80997 115.44 7.73997 115.42 7.67997 115.38C7.55997 115.33 7.42997 115.27 7.30997 115.21C7.17997 115.15 7.05997 115.09 6.93997 115.02C6.19997 114.65 5.48997 114.23 4.83997 113.77C4.69997 113.68 4.55997 113.58 4.42997 113.47C4.31997 113.39 4.21997 113.31 4.11997 113.23C3.69997 112.89 3.31997 112.53 2.96997 112.15C2.95997 112.14 2.94997 112.13 2.92997 112.11C2.72997 111.89 2.53997 111.66 2.36997 111.42C2.03997 110.98 1.77997 110.52 1.56997 110.04C1.49997 109.9 1.44997 109.75 1.39997 109.6C1.36997 109.55 1.35997 109.5 1.34997 109.45C1.28997 109.28 1.23997 109.1 1.19997 108.92C1.14997 108.69 1.09997 108.45 1.06997 108.2C0.959966 107.27 1.04997 106.26 1.37997 105.17C2.07997 102.83 3.33997 101.03 4.83997 99.6598C9.75997 95.1698 17.38 95.1698 17.38 95.1698L27.11 88.4298C29.26 86.9498 31.74 86.0198 34.33 85.7298L45.85 84.4498C47.52 84.2698 49.13 83.7398 50.58 82.8998L63.87 75.1998C65.56 74.2198 67.42 73.5998 69.35 73.3598H69.38L69.45 73.3498C70.1 73.2598 70.77 73.2298 71.44 73.2398L74.51 73.3498H75.98C75.98 73.3498 75.98 73.3698 76 73.3998L86.41 73.7698L89.79 73.8998L124.47 75.1398L129.1 74.2398C129.1 74.2398 129.1 74.2698 129.11 74.2798C130.34 73.6998 131.43 72.9298 132.52 72.2798L136.68 69.7798C138.45 68.7198 140.45 68.1298 142.5 68.0498L160.03 67.3998C164.18 67.2498 168.25 66.1698 171.93 64.2398C174.47 62.8998 176.83 61.6698 179.02 60.5298L200.38 84.0798L201.37 85.1698C201.37 85.1698 202.73 84.5998 204.78 83.9898C206.3 83.5298 208.21 83.0598 210.23 82.7798C217.45 81.7998 226.18 83.3098 224.37 97.1698H224.38Z" fill="#EBECF0"/>
<path d="M440.82 110.3C439.32 110.84 438.38 111.12 438.38 111.12L425.53 121.34L377.85 117.96L341.69 115.39L308.98 113.07L296.12 104.02L306.42 95.2898L309.02 93.0898L328.77 73.1698H299.38L299.44 73.1398C331.38 54.1498 332.38 37.1698 335.38 35.1698C338.38 33.1698 342.38 35.1698 342.38 35.1698C342.38 35.1698 357.38 42.1698 367.38 42.1698C377.38 42.1698 379.38 34.1698 391.38 34.1698C403.38 34.1698 439.38 22.1698 435.38 19.1698C431.38 16.1698 391.38 21.1698 388.38 15.1698C386.14 10.6898 397.17 5.00979 402.89 2.41979C416.97 1.45979 432.38 1.02979 432.38 1.02979C436.65 5.66979 440.43 10.4298 443.75 15.2798C443.75 15.2798 440.38 26.1698 441.38 34.1698C442.38 42.1698 437.38 46.1698 424.38 48.1698C411.38 50.1698 410.38 57.1698 411.18 61.1898C411.98 65.1998 423.38 60.1698 420.38 64.1698C417.38 68.1698 401.38 68.1698 410.38 74.1698C419.38 80.1698 458.38 81.1698 459.53 92.8798C460.44 102.18 446.57 108.21 440.82 110.3Z" fill="#9AC2CC"/>
<path d="M320.12 21.0298C309.87 46.8898 310.38 39.1698 295.12 50.4798C280.1 61.5998 287.21 78.8098 287.43 79.3498H287.44L276.93 140.67L243.74 137.91L228.47 118.54L224.74 113.82V100.14H224.75C226.21 101.96 228.58 110.33 230.38 112.17C238.81 120.79 248.53 126.68 253.38 130.17C254.89 131.26 256.6 127.85 256.6 127.85L259.48 131.1C259.48 131.1 271.64 118.23 273.38 110.17C273.38 110.16 275.38 89.1698 275.38 89.1698C277.77 78.1198 272.47 85.9998 273.38 68.1698C274.94 37.6998 245.19 37.6198 244.56 37.5198C251.39 35.9198 251.6 37.0998 271.88 34.6698C296.88 31.6698 301.38 26.1698 310.38 23.1698C313.19 22.2298 316.54 21.5398 320.12 21.0298Z" fill="#9AC2CC"/>
<path d="M295.12 167.51C294.59 168.31 294.02 169.17 293.42 170.1C293.4 170.15 293.36 170.18 293.32 170.22C292.96 170.51 290.94 172.15 287.87 173.77C287.7 173.86 287.53 173.95 287.35 174.04C286.73 174.36 286.07 174.68 285.37 174.97C285.14 175.07 284.9 175.17 284.66 175.27C284.12 175.49 283.55 175.7 282.97 175.9C282.93 175.91 282.89 175.92 282.86 175.93C282.12 176.18 281.35 176.41 280.55 176.6H280.54C279.52 176.86 278.47 177.05 277.38 177.17C272.67 177.69 267.7 181.22 264.03 184.46C263.84 184.63 263.65 184.8 263.46 184.96C263.44 184.98 263.42 185 263.4 185.02C263.22 185.19 263.04 185.36 262.86 185.52C262.65 185.72 262.44 185.92 262.24 186.11C259.5 188.74 255.94 190.33 252.16 190.58L230.08 192.06C229.09 192.12 228.24 192.8 227.96 193.75C227.88 194.03 227.78 194.35 227.67 194.7L217 187.59L205.88 180.17L183.38 165.17L179.89 160.02L177.88 157.05L176.4 154.87L211.49 139.05L221.86 141.57L234.6 144.67L249.73 148.35L270.9 153.5L285.84 162.15L295.12 167.51Z" fill="#9AC2CC"/>
<path d="M299.83 161.18C299.73 161.29 299.62 161.41 299.52 161.54C299.49 161.56 299.47 161.59 299.45 161.62C299.27 161.83 299.08 162.05 298.9 162.28C298.89 162.29 298.88 162.3 298.88 162.31C298.74 162.48 298.6 162.65 298.47 162.83C297.48 164.09 296.39 165.62 295.12 167.51C294.59 168.31 294.02 169.17 293.42 170.1C293.4 170.15 293.36 170.18 293.32 170.22C292.96 170.51 290.94 172.15 287.87 173.77C287.7 173.86 287.53 173.95 287.35 174.04C286.73 174.36 286.07 174.68 285.37 174.97C285.14 175.07 284.9 175.17 284.66 175.27C284.12 175.49 283.55 175.7 282.97 175.9C282.93 175.91 282.89 175.92 282.86 175.93C282.12 176.18 281.35 176.41 280.55 176.6H280.54C279.52 176.86 278.47 177.05 277.38 177.17C272.67 177.69 267.7 181.22 264.03 184.46C263.84 184.63 263.65 184.8 263.46 184.96L261.63 184.25L258.98 183.23L258.25 182.95L257.34 182.6L256.08 181.84L254.46 180.87L246.3 175.99C246.3 175.99 281.38 173.17 269.38 168.17C257.38 163.17 233.38 149.17 226.38 157.17C219.38 165.17 213.38 148.17 213.38 148.17L214.17 147.56L217.88 144.67L221.86 141.57L233.88 132.23L260.81 144.05L266.19 146.41L296.92 159.9L299.83 161.18Z" fill="#4B808C"/>
<path d="M220.6 223.67C220.47 224.05 220.42 224.45 220.48 224.85C220.83 227.08 221.81 235.46 218.38 243.17C214.95 250.88 209.33 252.72 205.9 253.09C205.32 253.15 204.81 253.17 204.38 253.17H199.38C199.38 253.17 194.38 254.17 191.38 235.17C188.38 216.17 190.38 206.17 190.38 206.17V206.15C190.6 205.43 196.44 186.09 199.38 182.17C199.73 181.7 199.93 181.31 200.01 180.97C200.04 180.86 200.05 180.76 200.05 180.67L200.59 180.25L200.7 180.17L202.38 178.88L204.33 180.17L217.05 188.6L227.43 195.47C226.36 198.67 224.31 203.72 220.87 208.51C220.74 208.69 220.64 208.9 220.6 209.11C220.54 209.37 220.55 209.63 220.64 209.89C221.28 211.85 222.72 217.49 220.6 223.67Z" fill="#9AC2CC"/>
<path d="M144.11 257.65V253.68L144.32 246.03L143.57 233.74L142.87 226.22L143.02 221.07L145.32 216.17L147.38 210.17L148.38 205.17L148.29 198.88L148.72 192.98L150.38 186.6L152.88 182.67L156.22 180.24L162.61 175.57L167.3 171.05L170.99 166.44L175.42 162.88L178.2 161.11L183.38 165.17L184.76 180.59L177.55 194.75L172.38 211.17L167.38 224.17L164.38 241.17L160.38 254.17L150.38 259.17L146.19 259.7L144.11 257.65Z" fill="#9AC2CC"/>
<path d="M464.47 117.44C461.85 135.4 457.38 147.17 457.38 147.17C448.38 147.17 432.38 146.11 432.38 146.11C432.38 146.11 416.38 145.17 393.38 141.17C370.38 137.17 370.38 132.17 349.38 132.17C343.84 132.17 339.83 132.45 336.93 132.86C328.84 134 329.38 136.17 329.38 136.17C329.38 136.17 329.17 136.49 328.77 137.05C328.58 137.32 328.34 137.65 328.05 138.03C327.96 138.15 327.87 138.28 327.77 138.41C327.58 138.67 327.37 138.95 327.14 139.25C327.03 139.39 326.91 139.55 326.79 139.7C326.63 139.9 326.46 140.11 326.3 140.32C325.55 141.27 324.68 142.32 323.71 143.42L323.66 143.48L323.61 143.53C322.61 144.66 321.51 145.84 320.33 146.99C320.13 147.18 319.93 147.38 319.72 147.57C319.51 147.78 319.28 147.99 319.05 148.2C318.65 148.57 318.24 148.93 317.83 149.29L317.76 149.35H317.75C317.29 149.75 316.82 150.14 316.34 150.51L316.23 150.44L300.82 141.17L276.79 142.9L260.81 144.05L252.16 144.67H205.94L184.08 153.63L180.37 155.15L177.88 157.05L162.43 168.83L152.41 178.88L129.18 187.86L128.2 188.23H128.18L127.1 188.66L125.5 188.42L125.2 188.38H125.18L117.05 187.17L116.78 187.03L110.95 184.15L108.88 183.13L103.53 176.62L102.15 173.15L101.37 171.17L100.28 168.42C100.28 168.42 100.27 168.39 100.27 168.38L102.74 163.67L105.38 165.17C105.38 165.17 105.39 165.19 105.4 165.22C105.79 166.04 111.09 176.95 116.73 181.35C116.75 181.37 116.76 181.38 116.78 181.39C117.98 182.32 119.19 182.95 120.38 183.13C121.04 183.23 121.82 183.22 122.7 183.11C125.95 182.72 130.53 180.99 135.03 178.4C142.24 174.24 149.27 167.86 150.38 161.17C150.38 161.17 152.65 156.47 156.61 155.18C157.32 154.95 158.09 154.83 158.91 154.87H158.97C158.97 154.87 176.54 141.87 196.46 134.52C196.46 134.52 205.38 131.17 205.38 127.17C205.38 123.17 211.66 124.88 212.02 126.02C212.1 126.26 212.46 126.49 213.03 126.52C215.18 126.62 220.22 123.77 223.38 107.17C223.81 104.89 224.27 103.1 224.74 101.71C224.86 101.34 224.99 101.01 225.11 100.7C228.55 92.1698 232.53 103.77 233.38 107.17C234.38 111.17 246.23 127.88 255.3 126.02C263.66 124.32 272.79 93.6998 273.41 75.5798C273.47 73.9998 273.46 72.5298 273.38 71.1698C273.35 70.6398 273.33 70.1398 273.32 69.6898C273.28 68.4098 273.32 67.4298 273.43 66.6798V66.6498C274.52 59.2498 282.2 76.8598 287.43 79.3498H287.44C288.79 79.9998 290.15 80.0298 291.43 79.6798C295.8 78.5298 299.38 73.1698 299.38 73.1698L299.44 73.1398C300.68 72.5598 320.82 62.8998 339.3 40.8898C339.3 40.8898 361.05 54.6098 386.22 40.8898C411.38 27.1698 389.38 55.1698 391.38 61.1698C393.38 67.1698 393.25 74.5398 389.31 77.3498C385.38 80.1698 373.38 82.1698 369.38 80.1698C365.38 78.1698 357.38 77.1698 350.38 81.1698C343.38 85.1698 331.21 91.3398 308.79 100.76C303.06 103.17 303.07 103.75 306.27 103.28C315.57 101.92 351.84 91.6698 351.84 91.6698C351.84 91.6698 371.51 85.6198 382.44 89.8898C393.38 94.1698 443.3 93.1698 451.34 91.6698C459.38 90.1698 451.38 95.1698 442.38 96.1698C433.38 97.1698 398.38 100.17 384.38 97.1698C370.38 94.1698 335.38 104.17 343.38 104.17C351.38 104.17 382.38 101.22 393.38 106.69C404.38 112.17 413.93 116.18 421.66 110.17C424.85 107.69 432.7 108.5 440.82 110.3C452.37 112.86 464.47 117.44 464.47 117.44Z" fill="#4B808C"/>
<path d="M155.53 180.59C145.68 188.01 149.38 196.17 147.38 208.17C145.38 220.17 141.38 216.17 143.38 232C145.38 247.84 143.38 255.17 143.38 255.17C143.38 255.17 141.38 265.17 128.38 263.17C115.38 261.17 120.38 241.17 118.38 233.17C116.38 225.17 112.38 228.17 114.38 210.17C116.38 192.17 117.05 187.17 117.05 187.17C121.39 188.56 127.09 188.99 134.38 187.17C144.15 184.73 150.58 183 155.53 180.59Z" fill="#9AC2CC"/>
<path d="M156.19 180.46C155.67 181.87 154.2 182.99 153.2 184.06C149.09 188.58 149.29 194.65 149.09 200.55C148.96 204.29 148.6 208.08 147.64 211.78C146.9 215.38 144.45 218.54 144 222.13C143.77 223.86 143.83 225.68 143.94 227.49C144.42 233.02 145.26 238.59 145.26 244.18C145.1 249.71 145.61 256.44 141.34 260.74C137.04 265.04 129.85 265.4 124.54 262.95C120.89 261.03 119.21 256.81 118.58 252.99C117.4 246.5 118.54 240.02 117.44 233.63C116.88 230.83 115.43 228.92 114.12 226.21C111.92 220.77 113.02 214.76 113.47 209.18L116.01 187.04C116.08 186.41 116.74 185.99 117.34 186.2C121.9 187.65 126.88 187.58 131.57 186.69C138.72 185.03 146 183.32 152.87 180.73C153.74 180.45 154.93 180.04 155.82 180.41L156.16 180.47L156.19 180.46ZM155.02 181.01C154.92 181.17 154.87 181.35 154.89 181.47C154.9 181.66 154.98 181.68 154.73 181.83C152.23 183.38 149.27 184.07 146.52 185.01C136.9 187.68 126.7 191.41 116.74 188.14L118.07 187.3L115.48 209.39C115.05 214.71 113.99 220.38 115.97 225.39C117.1 227.67 118.9 230.4 119.41 233.16C120.02 235.99 119.93 238.87 119.97 241.7C120.2 248.17 119.29 257.38 125.51 261.18C129.94 263.21 136.33 262.96 139.92 259.33C143.73 255.33 143.05 249.39 143.27 244.19C143.42 236.64 141.36 229.5 142.02 221.85C142.47 217.98 144.91 214.96 145.7 211.26C146.6 207.77 146.96 204.13 147.09 200.46C147.27 193.71 147.23 186.75 152.73 181.68C153.01 181.45 153.17 181.09 153.52 181.12C153.8 181.21 154.56 181.2 155.01 181L155.02 181.01Z" fill="black"/>
<path d="M133.38 169.17C131.32 172.6 126.45 176.96 123.59 179.37C122.29 180.46 120.39 180.5 119.06 179.44C110.45 172.62 105.3 164.01 104.38 162.17C104.03 161.47 104.17 160.89 104.9 160.26C108.96 157.89 112.48 156.48 115.62 154.87C115.65 154.86 115.68 154.84 115.71 154.83H115.72C125.03 150.49 130.38 158.17 130.38 158.17C130.38 158.17 136.38 164.17 133.38 169.17Z" fill="#EBECF0" stroke="black" stroke-width="2" stroke-linecap="round" stroke-linejoin="round"/>
<path d="M262.86 185.52C262.65 185.72 262.44 185.92 262.24 186.11C259.5 188.74 255.94 190.33 252.16 190.58L230.08 192.06C229.09 192.12 228.24 192.8 227.96 193.75C227.88 194.03 227.78 194.35 227.67 194.7C227.6 194.94 227.52 195.2 227.43 195.47C226.36 198.67 224.31 203.72 220.87 208.51C220.74 208.69 220.64 208.9 220.6 209.11C220.54 209.37 220.55 209.63 220.64 209.89C221.28 211.85 222.72 217.49 220.6 223.67C220.47 224.05 220.42 224.45 220.48 224.85C220.83 227.08 221.81 235.46 218.38 243.17C214.95 250.88 209.33 252.72 205.9 253.09C205.32 253.15 204.81 253.17 204.38 253.17H203.77L203.59 253.09C203.59 253.09 220.38 225.17 190.38 224.17C190.38 224.17 189.38 222.17 190.38 206.17V206.15L192.38 203.17C192.38 203.17 219.18 187.29 200.59 180.25C200.52 180.22 200.45 180.2 200.38 180.17H212.38L216.08 181.42L217.11 181.76L218.53 182.11L219.09 182.25L221.74 183.15C221.74 183.15 232.98 179.92 233.68 174.54L232.83 173.53L230.45 170.73L230.41 170.68L230.39 170.65H230.38L228.93 168.34L230.77 164.16L233.59 167.04L235.73 169.22L241.99 174.14L242.04 174.18L242.12 174.24H242.13L251.66 179.71L252.91 180.23L254.46 180.87L260.98 183.59L261.14 183.76L261.63 184.25L261.8 184.43L262.86 185.52Z" fill="#5891A0"/>
<path d="M264.03 184.46C263.84 184.63 263.65 184.8 263.46 184.96C263.44 184.98 263.42 185 263.4 185.02C263.22 185.19 263.04 185.36 262.86 185.52C262.65 185.72 262.44 185.92 262.24 186.11C259.5 188.74 255.94 190.33 252.16 190.58L230.08 192.06C229.09 192.12 228.24 192.8 227.96 193.75C227.88 194.03 227.78 194.35 227.67 194.7C227.6 194.94 227.52 195.2 227.43 195.47C226.36 198.67 224.31 203.72 220.87 208.51C220.74 208.69 220.64 208.9 220.6 209.11C220.54 209.37 220.55 209.63 220.64 209.89C221.28 211.85 222.72 217.49 220.6 223.67C220.47 224.05 220.42 224.45 220.48 224.85C220.83 227.08 221.81 235.46 218.38 243.17C214.95 250.88 209.33 252.72 205.9 253.09C205.9 253.09 222.24 241.33 209.81 223.25C209.81 223.25 216.45 218.66 215.41 205.42H215.42C215.47 205.18 217.37 196.94 217.05 188.6C217.04 188.26 217.02 187.93 217 187.59C216.88 185.51 216.6 183.45 216.11 181.52C216.1 181.49 216.09 181.45 216.08 181.42C216.07 181.37 216.06 181.33 216.05 181.28L217.11 181.76L222.43 184.18H222.44L222.48 184.2L222.52 184.24H222.53L225.51 187.01C225.51 187.01 234.56 186.71 241.47 181.93L241.4 181.86L241.38 181.84L232.83 173.52L232.33 173.04L230.45 170.72L230.41 170.67L230.39 170.64L232.4 166.02C232.4 166.02 232.41 166.04 232.42 166.04L233.59 167.03L241.99 174.13L242.04 174.17L242.12 174.23H242.13L250.26 178.87L252.91 180.22L256.08 181.83L258.25 182.94L258.64 183.14L258.98 183.22L261.14 183.75L264.03 184.45V184.46Z" fill="#214859"/>
<path d="M155.1 179.69C157.59 178.49 159.89 176.97 161.92 175.1C163.95 173.24 165.74 171.09 167.39 168.83C169.15 166.38 171.45 164.48 173.78 162.77C180.82 157.75 188.68 154.06 196.68 150.9C201.8 149.13 207 146.6 212.54 146.8C213.09 146.84 213.74 147.25 213.69 147.97C213.68 148.05 213.63 148.12 213.56 148.16L213.08 148.39C212.81 148.52 212.77 148.67 212.65 148.72C211.62 148.76 210.52 148.84 209.45 149.1C205.36 149.97 201.32 151.27 197.4 152.78C189.56 155.88 181.82 159.51 174.95 164.41C170 167.58 167.56 172.76 163.26 176.6C161.1 178.59 158.6 180.24 155.97 181.51C155.47 181.75 154.87 181.55 154.63 181.05C154.39 180.55 154.6 179.96 155.1 179.72V179.69Z" fill="black"/>
<path d="M198.38 91.1704C198.38 91.1704 185.38 104.17 180.38 115.17C175.38 126.17 135.38 141.17 135.38 141.17" fill="#5891A0"/>
<path d="M198.71 91.5002C192.24 99.5502 185.2 107.04 180.85 116.5C173.83 127.12 147.9 137.3 135.74 142.11C135.22 142.31 134.65 142.05 134.45 141.53C134.25 141.01 134.52 140.43 135.04 140.24C141.43 137.76 147.75 135.01 153.95 132.08C161.62 128.35 169.36 124.56 175.85 119.06C177.85 117.35 179.15 115.6 180.21 113.21C181.4 110.86 182.83 108.64 184.32 106.48C186.32 103.62 188.47 100.88 190.72 98.2302C192.98 95.5902 195.37 93.0702 198.07 90.8502C198.47 90.5102 199.09 91.0802 198.72 91.5002H198.71Z" fill="black"/>
<path d="M115.62 154.87C112.48 156.48 108.96 157.89 104.9 160.26C106.25 159.07 109.61 157.67 115.62 154.87Z" stroke="black" stroke-width="2" stroke-linecap="round" stroke-linejoin="round"/>
<path d="M90.28 108.93C90.21 109.08 90.24 109.02 90.3 108.9C90.46 108.55 90.84 107.44 91.09 107.14C91.17 107.03 91.23 106.98 91.18 107.14C92.35 107.75 91.47 109.5 90.29 108.93H90.28Z" fill="black"/>
<path d="M199.64 179.84C198.31 178.84 194.08 179.75 193.38 181.17C192.4 183.14 193.35 192.83 178.19 200.75C177.91 200.9 177.68 201.13 177.54 201.4C177.43 201.6 177.37 201.81 177.36 202.04C177.21 205.47 176.16 218.25 168.77 227.68C168.52 228 168.39 228.39 168.4 228.79C168.48 231.92 168.58 246.1 164.26 253.18C159.38 261.17 152.38 261.17 150.38 261.17C149.19 261.17 146.95 260.46 145.32 259.05C145.32 259.05 169 246.25 150.38 228.54C149.76 227.95 149.79 226.96 150.44 226.41C156.27 221.48 179.47 200.27 155.53 193.66C155.53 193.66 154.54 193.16 154.46 192.16C154.38 191.16 155.38 190.16 156.38 190.16C157.38 190.16 175.38 193.16 179.38 181.16C183.38 169.16 177.54 161.42 177.54 161.42L177.61 161.38L180.22 159.8L180.78 159.47L185.81 161.34L187.19 161.85L187.81 162.28L190.62 164.26L191.02 164.55L191.57 164.93L193.12 166.02L194.48 167.92L194.76 168.3L196.76 171.09L199.63 179.83L199.64 179.84Z" fill="#5891A0"/>
<path d="M210.36 180.29C210.36 180.29 205.17 181.62 200.27 180.9L200.01 180.97C200.13 180.46 199.98 180.1 199.64 179.84C198.31 178.84 194.08 179.75 193.38 181.17C192.4 183.14 193.35 192.83 178.19 200.75C177.91 200.9 177.68 201.13 177.54 201.4C177.43 201.6 177.37 201.81 177.36 202.04C177.21 205.47 176.16 218.24 168.78 227.67C168.53 227.99 168.39 228.38 168.4 228.79C168.48 231.92 168.58 246.1 164.26 253.18C159.38 261.17 152.38 261.17 150.38 261.17C150.38 261.17 167.38 255.02 162.38 225.59C162.38 225.59 170.22 216.62 173.78 197.67C173.8 197.56 173.82 197.45 173.84 197.34C173.84 197.34 188.85 190.17 190.63 164.27C190.63 164.23 190.64 164.2 190.64 164.16L191.03 164.56L194.77 168.31L194.94 168.49L196.01 169.56C196.01 169.56 202.05 178.95 209.81 180.21H209.82C210 180.25 210.18 180.27 210.36 180.29Z" fill="#14303F"/>
<path d="M123.38 260.17C123.38 260.17 144.35 238.67 124.07 221.5C123.46 220.99 122.79 220.56 122.04 220.28C121.29 220 120.38 219.42 120.38 218.17C120.38 217.03 121.03 216.54 121.59 216.33C122.5 215.99 123.38 215.56 124.13 214.94C127.47 212.17 134.16 204.37 131.22 187.84L149.17 183.41L152.87 182.67L151.79 184.48L149.55 188.1L148.7 192.97L148.06 200.67L147.36 208.16L145.77 214.32L143.59 219.38L142.86 223.45L143.05 229.08L143.56 233.73L144.03 238.64L144.26 245.05L144.05 250.53L143.05 256.23L141.37 259.2L138.41 261.77L133.88 263.66L127.21 262.92L123.38 260.16V260.17Z" fill="#5891A0"/>
<path d="M232.61 40.8901C232.61 40.8901 222.38 47.1701 220.38 59.1701C218.56 70.1201 213.4 77.7401 210.24 82.7801C209.93 83.2701 209.64 83.7301 209.38 84.1701C206.59 88.8201 198.69 91.6301 197.6 92.0001C197.6 92.0001 197.59 92.0001 197.58 92.0101H197.57C197.51 92.0301 197.48 92.0401 197.48 92.0401L197.26 92.3401H197.25V92.3601C197.25 92.3601 197.22 92.4001 197.19 92.4201L181.14 113.82H181.1H181.05L178.17 113.42H178.16L171.51 112.51C153.63 69.8401 132.54 72.2901 132.54 72.2901L136.7 69.7901C138.47 68.7301 140.47 68.1401 142.52 68.0601L160.05 67.4101C164.2 67.2601 168.27 66.1801 171.95 64.2501C174.49 62.9101 176.85 61.6801 179.04 60.5401C187.41 56.2001 193.32 53.2501 197.44 51.2501C202.16 48.9601 207.2 47.4701 212.37 46.6301C217.83 45.7601 224.54 43.4001 232.62 40.9001L232.61 40.8901Z" fill="#9AC2CC"/>
<path d="M133.88 263.67C133.88 263.67 141.38 255.17 139.38 241.17C137.38 227.17 137.19 229.59 137.28 217.88C137.28 217.88 145.29 208.95 142.83 195.06C140.37 181.17 152.88 182.67 152.88 182.67L151.29 185.54L149.47 188.69L148.32 197.79L147.38 208.16L145.79 214.32L143.02 221.06L143.38 228L144.04 238.64L144.18 249.25L143.38 255.15L141.37 259.19L138.41 261.76L133.88 263.65V263.67Z" fill="#14303F"/>
<path d="M328.77 137.05C328.58 137.32 328.34 137.65 328.05 138.03C327.96 138.15 327.87 138.28 327.77 138.41C327.58 138.67 327.37 138.95 327.14 139.25C327.03 139.39 326.91 139.55 326.79 139.7C326.63 139.9 326.46 140.11 326.3 140.32C325.55 141.27 324.68 142.32 323.71 143.42L323.66 143.48L323.61 143.53C322.61 144.66 321.51 145.84 320.33 146.99C320.13 147.18 319.93 147.38 319.72 147.57C319.51 147.78 319.28 147.99 319.05 148.2C318.65 148.57 318.24 148.93 317.83 149.29L317.76 149.35H317.75C317.29 149.75 316.82 150.14 316.34 150.51C316.11 150.69 315.88 150.87 315.64 151.04C315.39 151.23 315.14 151.41 314.88 151.59C314.75 151.69 314.61 151.78 314.47 151.87C314.25 152.03 314.03 152.17 313.8 152.32C313.33 152.62 312.86 152.9 312.38 153.17C310.13 154.42 308.38 155.23 306.88 155.97C306.69 156.06 306.51 156.15 306.33 156.24C305.61 156.59 304.95 156.95 304.3 157.34C303.98 157.53 303.67 157.73 303.36 157.95C303.2 158.06 303.05 158.17 302.89 158.29C302.77 158.38 302.65 158.47 302.53 158.57C302.22 158.81 301.91 159.07 301.59 159.37C301.47 159.47 301.35 159.59 301.23 159.71C300.99 159.94 300.74 160.19 300.49 160.45C300.37 160.57 300.26 160.7 300.14 160.83C300.08 160.89 300.03 160.95 299.98 161.01C299.93 161.07 299.88 161.12 299.83 161.18C299.73 161.29 299.62 161.41 299.52 161.54C299.49 161.56 299.47 161.59 299.45 161.62C299.27 161.83 299.08 162.05 298.9 162.28C298.89 162.29 298.88 162.3 298.88 162.31C298.74 162.48 298.6 162.65 298.47 162.83C297.48 164.09 296.39 165.62 295.12 167.51C294.59 168.31 294.02 169.17 293.42 170.1C293.4 170.15 293.36 170.18 293.32 170.22C292.96 170.51 290.94 172.15 287.87 173.77C287.7 173.86 287.53 173.95 287.35 174.04C286.73 174.36 286.07 174.68 285.37 174.97C285.14 175.07 284.9 175.17 284.66 175.27C284.12 175.49 283.55 175.7 282.97 175.9C282.93 175.91 282.89 175.92 282.86 175.93C282.27 176.02 281.8 175.33 282.2 174.83C284.48 171.96 287.28 166.28 277.88 162.67C276.33 162.07 274.99 161.65 273.81 161.34H273.79C271.8 160.83 270.22 160.67 268.75 160.62H268.73C263.71 160.45 259.85 161.61 244.89 155.16C244.76 155.1 244.63 155.05 244.5 155C244.15 154.84 243.8 154.69 243.43 154.54C242.61 154.19 241.76 153.84 240.87 153.5C240.84 153.5 240.81 153.48 240.78 153.47C227.26 148.2 218.32 147.49 214.17 147.56C212.58 147.58 211.69 147.71 211.52 147.74H211.47L208.47 148.19L203.73 148.91C203.67 148.92 203.61 148.93 203.55 148.96L198.29 151.35L189.94 155.15L180.86 159.5L180.22 159.81L179.89 160.02L177.59 161.49L174.65 163.37L174.61 163.4H174.6L169.96 168.28L164.63 173.81L164.29 174.17L158.61 178.88L157.73 179.6C157.73 179.6 157.62 179.68 157.55 179.71L156.22 180.24L148.49 183.33L148.27 183.42L147.81 183.55L138.49 186.13L136.12 186.79L135.53 186.88L129.18 187.86L125.85 188.37L125.5 188.42L124.01 188.65C123.92 188.66 123.84 188.66 123.76 188.64L121.45 188.14L117.05 187.17C117.05 187.17 147.88 183.67 156.38 172.17C164.88 160.67 167.08 159.86 172.48 155.76C177.22 152.17 188.58 145.57 198.73 141.3C201.49 140.14 203.82 138.15 205.39 135.59L206 134.61C206.83 133.25 208.55 132.73 210 133.39C211.2 133.93 212.49 134.2 213.77 134.2C215.15 134.2 216.53 133.89 217.8 133.27C218.47 132.95 219.17 132.57 219.89 132.12C223.99 129.61 226.38 125.05 226.38 120.24V120.1C226.38 118.65 228.13 117.92 229.16 118.95L232.54 122.33C232.74 122.53 232.93 122.73 233.12 122.95C235.27 125.35 251.14 142.49 264.03 136.79C276.8 131.15 278.96 85.3698 279.38 78.1698C279.41 77.6998 279.38 76.1698 281.31 77.0398L287.44 79.3598C288.73 79.8498 290.12 79.9498 291.43 79.6798C292.31 79.4998 293.17 79.1398 293.94 78.6298L303.22 72.4498C303.83 72.0298 304.58 72.7598 304.18 73.3898L297.44 84.1698C296.67 85.3998 297.33 87.0298 298.74 87.3798L304.39 88.7998C306.56 89.3398 308.31 90.9598 309.02 93.0898L309.95 95.8698C310.52 97.5898 310.07 99.4798 308.79 100.76L306.27 103.28L305.45 104.1C304.91 104.64 305.51 105.53 306.21 105.22L311.15 103.08C312.84 102.34 314.47 104.23 313.49 105.8L309.05 112.93C309.05 112.93 309 113.02 308.98 113.07C308.94 113.19 308.93 113.31 308.96 113.44C309 113.65 309.04 113.85 309.1 114.05C309.59 116.02 311.04 120.97 314.17 125.72C316.21 128.84 318.98 131.87 322.67 133.9H322.68C324.37 134.84 326.26 135.56 328.36 135.99C328.84 136.09 329.05 136.65 328.77 137.05Z" fill="#214859"/>
<path d="M205.38 83.1698C205.22 83.4198 205.02 83.6998 204.79 83.9898C202.97 86.3798 199.42 90.1198 197.6 91.9998C197.48 92.1298 197.36 92.2498 197.25 92.3598C197.23 92.3798 197.22 92.3998 197.19 92.4198C197.02 92.5998 196.87 92.7498 196.75 92.8698C196.71 92.9198 196.67 92.9598 196.64 92.9898C196.53 93.1098 196.47 93.1698 196.47 93.1698L189.93 100.67L188.15 102.91L184.22 107.86L182.65 110.89L182.6 110.98L181.14 113.82L180.99 114.03L180.83 114.27L180.81 114.29L180.24 115.07L177.13 119.35H177.12L176.9 119.67L175.88 120.46H175.87L175.78 120.55L173.65 122.21L173.46 122.35L167.9 126.67L159.9 130.67L152.43 134.48L139.9 139.67L138.76 139.86H138.75L136.6 140.22L135.45 140.41C136.13 134.44 144.4 126.17 144.4 126.17C142.37 125.86 140.58 125.33 139.01 124.65C136.71 123.66 134.87 122.36 133.42 120.98C131.67 119.34 130.48 117.6 129.7 116.18C129.25 115.35 128.93 114.63 128.73 114.11L128.75 114.08L128.39 112.21L128.27 111.61V111.57L127.12 105.67C127.12 105.67 134.32 115.08 138.86 111.12C143.4 107.17 146.28 102.43 145.34 93.7998L147.24 97.1898L150.55 102.09L154.6 106.85L158.78 110.64L163.71 113.86L167.39 115.44C167.39 115.44 167.54 115.46 167.78 115.47C168.79 115.52 171.46 115.36 171.52 112.5C171.54 112.12 171.5 111.67 171.4 111.17C170.4 106.17 161.63 90.1498 161.63 90.1498C161.63 90.1498 160.66 79.8398 171.53 82.9998C171.53 82.9998 189.6 92.1998 200.41 84.0798C201.48 83.2798 202.48 82.3098 203.38 81.1398C203.38 81.1398 207.4 80.1698 205.4 83.1698H205.38Z" fill="#5891A0"/>
<path d="M393.38 141.17C370.38 137.17 370.38 132.17 349.38 132.17C343.84 132.17 339.83 132.45 336.93 132.86C329.83 123.83 331.19 119.83 332.8 118.19C333.37 117.61 334.11 117.24 334.9 117.03C360.7 110.18 384.38 111.17 384.38 111.17C384.38 111.17 394.38 111.17 387.38 113.17C380.38 115.17 376.38 119.17 375.35 120.08C374.33 120.99 372.38 127.17 382.67 130.49C392.96 133.81 393.38 141.17 393.38 141.17Z" fill="#214859"/>
<path d="M196.46 93.1701C196.46 93.1701 182.7 96.1701 173.54 93.1701C164.38 90.1701 173.38 111.17 180.38 115.17L184.21 107.86L189.92 100.67L196.46 93.1701Z" fill="#214859"/>
<path d="M161.61 129.21C159.37 128.06 156.29 127.35 153.35 126.91C148.69 126.2 144.38 126.17 144.38 126.17L138.99 124.65L133.4 120.98L129.68 116.18C140.46 119.94 148.24 116.02 151.41 113.86C152.37 113.21 153.67 113.38 154.4 114.29C156.68 117.11 158.25 119.83 159.33 122.16C161.25 126.31 161.61 129.21 161.61 129.21Z" fill="#214859"/>
<path d="M127.82 111.56L127.75 112.21C127.69 112.81 127.21 113.28 126.61 113.33C121.51 113.71 106.76 114.45 99.39 111.18C95.8 109.58 93.16 108.46 90.66 108.01C90.65 108.01 90.64 108.01 90.63 108.01C86.87 107.35 83.39 108.19 77.39 111.19C68.88 115.44 63.27 111.73 56.86 113H56.84C55.72 113.22 54.58 113.6 53.39 114.19C53.23 114.27 53.06 114.35 52.89 114.43C52.87 114.44 52.84 114.45 52.82 114.45C52.76 114.49 52.69 114.52 52.62 114.54C52.49 114.6 52.36 114.66 52.22 114.71C52.08 114.77 51.93 114.82 51.79 114.88C51.72 114.9 51.64 114.93 51.57 114.95C51.5 114.98 51.43 115.01 51.35 115.03C50.73 115.25 50.08 115.45 49.38 115.64C49.36 115.64 49.34 115.64 49.31 115.66C48.66 115.83 47.98 115.99 47.27 116.14C47.14 116.17 47.02 116.2 46.89 116.22C46.68 116.26 46.47 116.31 46.26 116.35C46.07 116.39 45.88 116.42 45.69 116.46C45.42 116.5 45.15 116.55 44.87 116.6C44.62 116.64 44.36 116.68 44.11 116.72C44.06 116.73 44 116.74 43.95 116.75C43.75 116.78 43.55 116.81 43.35 116.84C43.23 116.86 43.11 116.87 42.99 116.89C42.29 116.99 41.58 117.08 40.88 117.17C40.33 117.23 39.77 117.29 39.22 117.35C38.96 117.38 38.7 117.41 38.44 117.43C38.23 117.45 38.03 117.47 37.82 117.49C37.4 117.53 36.99 117.57 36.57 117.6C36.36 117.62 36.16 117.63 35.95 117.65C35.53 117.68 35.12 117.71 34.71 117.74C34.29 117.77 33.88 117.79 33.48 117.82C33.18 117.84 32.89 117.85 32.6 117.87C32.06 117.9 31.53 117.93 31.01 117.95C30.64 117.97 30.28 117.99 29.92 118C29.85 118 29.77 118.01 29.7 118.01C29.63 118.01 29.56 118.01 29.5 118.01C29.49 118.01 29.48 118.01 29.48 118.01H29.46C29.23 118.02 29.01 118.03 28.78 118.04C28.41 118.05 28.05 118.06 27.69 118.07C27.33 118.07 26.98 118.09 26.63 118.1C26.41 118.11 26.2 118.11 25.99 118.12C22.89 118.19 20.48 118.18 19.39 118.18C18.79 118.18 17.89 118.11 16.81 117.96H16.8C16.8 117.96 16.7 117.94 16.65 117.94C16.34 117.89 16.01 117.84 15.67 117.78C15.5 117.75 15.33 117.72 15.15 117.69C14.97 117.66 14.79 117.62 14.61 117.58C14.53 117.58 14.46 117.55 14.38 117.53C14.3 117.52 14.22 117.5 14.13 117.48C13.99 117.45 13.84 117.42 13.69 117.38C13.53 117.35 13.37 117.31 13.21 117.27C13.19 117.26 13.16 117.26 13.13 117.25C13 117.22 12.87 117.18 12.74 117.15C12.62 117.12 12.49 117.09 12.36 117.05C12.23 117.02 12.1 116.98 11.97 116.94C11.9 116.93 11.83 116.91 11.77 116.89C11.7 116.87 11.64 116.85 11.58 116.83C11.06 116.68 10.53 116.51 10.01 116.33C9.77998 116.25 9.55998 116.17 9.33998 116.08C8.92998 115.93 8.51998 115.77 8.12998 115.59C8.03998 115.55 7.95998 115.52 7.87998 115.48C7.80998 115.45 7.74998 115.42 7.68998 115.39C7.56998 115.34 7.43998 115.28 7.31998 115.22C7.18998 115.16 7.06998 115.1 6.94998 115.03C6.20998 114.66 5.49998 114.24 4.84998 113.78C4.70998 113.69 4.56998 113.59 4.43998 113.48C4.32998 113.4 4.22998 113.32 4.12998 113.24C3.70998 112.9 3.32998 112.54 2.97998 112.16C2.96998 112.15 2.95998 112.14 2.93998 112.12C2.73998 111.9 2.54998 111.67 2.37998 111.43C2.04998 110.99 1.78998 110.53 1.57998 110.05C1.50998 109.91 1.45998 109.76 1.40998 109.61C1.37998 109.56 1.36998 109.51 1.35998 109.46C1.29998 109.29 1.24998 109.11 1.20998 108.93C1.15998 108.7 1.10998 108.46 1.07998 108.21C0.969976 107.28 1.05998 106.27 1.38998 105.18C1.96998 103.25 2.91998 101.69 4.07998 100.43C4.48998 99.9799 5.16998 99.8899 5.67998 100.22C10.06 103.05 30.39 114.88 33.92 92.9799C34.05 92.1699 34.66 91.5299 35.45 91.3299L40.7 89.9899C41.53 89.7699 42.43 89.9699 43.09 90.5199C45.77 92.7399 53.51 98.0099 61.94 93.1699C69.34 88.9199 71 88.1799 71.69 86.3399C72.44 84.3299 74.04 82.7599 76.12 82.2399L76.39 82.1699H79.39C79.39 82.1699 82.1 82.1699 85.79 83.8799C86.18 84.0599 86.44 84.4299 86.49 84.8599C86.7 86.6199 87.11 90.6099 91.38 93.1699C96.97 96.5199 103.15 90.6199 106.01 88.8399C107.38 87.9899 109.15 88.2299 110.27 89.4099C112.83 92.0999 118.36 88.8999 125.04 88.2599C125.76 88.1899 126.4 88.7299 126.43 89.4599L127.06 106.41L127.1 106.75L127.8 111.23C127.82 111.34 127.82 111.44 127.8 111.55L127.82 111.56Z" fill="#9AC2CC"/>
<path d="M128.38 112.17V112.2L128.37 112.21L128.03 113.2C127.92 113.22 127.79 113.23 127.64 113.24C123.94 113.55 107.35 114.71 99.38 111.17C95.79 109.57 93.15 108.45 90.65 108C90.64 108 90.63 108 90.62 108C86.86 107.34 83.38 108.18 77.38 111.18C68.87 115.43 63.26 111.72 56.85 112.99H56.83C55.71 113.21 54.57 113.59 53.38 114.18C53.22 114.26 53.05 114.34 52.88 114.42C52.79 114.46 52.7 114.5 52.61 114.53C52.48 114.59 52.35 114.65 52.21 114.7C52.07 114.76 51.92 114.81 51.78 114.87C51.63 114.92 51.49 114.97 51.34 115.02C50.72 115.24 50.07 115.44 49.37 115.63C49.35 115.63 49.33 115.63 49.3 115.65C48.65 115.82 47.97 115.98 47.26 116.13C47.13 116.16 47.01 116.19 46.88 116.21C46.67 116.25 46.46 116.3 46.25 116.34C46.06 116.37 45.87 116.41 45.68 116.45C45.41 116.49 45.14 116.54 44.86 116.59C44.61 116.63 44.35 116.67 44.1 116.71C44.05 116.72 43.99 116.73 43.94 116.74C43.74 116.77 43.54 116.8 43.34 116.83C43.22 116.85 43.1 116.86 42.98 116.88C42.28 116.98 41.57 117.07 40.87 117.16C40.32 117.22 39.76 117.28 39.21 117.34C38.95 117.37 38.69 117.4 38.43 117.42C38.13 117.45 37.84 117.48 37.54 117.5C36.98 117.55 36.43 117.6 35.87 117.64C35.48 117.67 35.09 117.7 34.7 117.73C34.28 117.76 33.87 117.78 33.47 117.81C33.17 117.83 32.88 117.84 32.59 117.86C32.05 117.89 31.52 117.92 31 117.94C30.63 117.96 30.27 117.98 29.91 117.99C29.84 117.99 29.76 118 29.69 118C29.61 118 29.54 118 29.47 118C29.47 118 29.47 118 29.49 118C30.13 117.83 37.15 115.8 43.64 105.41C44.09 104.69 44.9 104.28 45.75 104.39C51.49 105.17 73.66 106.97 79.52 89.6102C79.89 88.5102 81.28 88.1602 82.14 88.9202C87.57 93.7202 104.08 106.12 126.17 102.56L127.06 106.42L128.24 111.58V111.62L128.38 112.18V112.17Z" fill="#14303F"/>
<path d="M105.38 165.17C102.22 165.67 101.38 171.17 101.38 171.17H101.37L101.14 171.12C100.95 170.68 100.78 170.23 100.64 169.78C100.56 169.56 100.5 169.33 100.44 169.1C100.38 168.87 100.32 168.65 100.28 168.42C100.27 168.41 100.27 168.39 100.27 168.38C100.23 168.2 100.2 168.01 100.18 167.83C100.15 167.65 100.13 167.47 100.12 167.3C99.95 165.06 100.71 162.89 103.26 161.25L105.38 165.17Z" fill="#214859"/>
<path d="M328.77 137.05L323.71 143.42L323.66 143.48L323.61 143.53L317.83 149.29L317.76 149.35H317.75L316.23 150.44L312.38 153.17C312.38 153.17 307.38 152.17 303.38 154.17C299.38 156.17 302.38 157.17 295.58 160.62C290.96 162.97 280.21 162.12 273.81 161.34H273.79C270.93 160.99 268.94 160.65 268.75 160.62H268.73L264.38 161.17C256.6 161.17 251.81 158.18 244.5 155C244.15 154.84 243.8 154.69 243.43 154.54C242.61 154.19 241.76 153.84 240.87 153.5C231.36 149.84 237.38 148.17 237.38 148.17L241.34 148.49H247.7L252.38 148.17H257.38L267.38 146.17L271.38 145.17L276.38 143.17L276.79 142.9L279.38 141.17L282.38 139.17L288.38 133.17L290.38 130.17L292.38 124.17L293.38 120.17L293.78 114.31L293.38 107.17L291.38 98.1698L289.38 92.1698L291.81 90.9598C294.1 89.8098 296.75 89.5798 299.21 90.3198L302.38 91.2698C304.26 91.8298 305.75 93.2798 306.37 95.1398L306.83 96.5198C307.17 97.5398 306.95 98.6698 306.25 99.4898L301.78 104.7C301.62 104.89 301.54 105.13 301.54 105.37C301.54 105.49 301.56 105.62 301.61 105.74C301.97 106.61 302.81 107.17 303.74 107.17H307.73C308.62 107.17 309.33 107.93 309.27 108.82L308.98 113.07L308.96 113.44C309 113.65 309.04 113.85 309.1 114.05C310.1 118.78 311.97 122.63 314.17 125.72C316.83 129.47 319.98 132.11 322.67 133.9H322.68C326.1 136.17 328.77 137.05 328.77 137.05Z" fill="#14303F"/>
<path d="M129.23 75.06C127.38 81.17 126.33 88.51 126.33 88.51C102.29 85.84 86.41 73.77 86.41 73.77L89.79 73.9L106.16 74.52L122.98 75.43L124.47 75.14L129.1 74.24C129.1 74.24 129.1 74.27 129.11 74.28C129.15 74.55 129.29 74.81 129.22 75.06H129.23Z" fill="#9AC2CC"/>
<path d="M158.38 156.17H156.55L156.86 150.98L155.53 146.64L151.12 142.12L149.6 141.31L147.87 140.92C147.87 140.92 145.37 139.16 141.37 139.16L145 137.9C145 137.9 148.37 138.35 149.87 139.25L152.37 140.16L154.97 142.01L156.69 143.65L158.67 146.87L159.37 150.16V153.7L158.37 156.16L158.38 156.17Z" fill="#4B808C"/>
<path d="M144.31 149.32C144.31 149.32 146.89 150.12 147.39 149.18C147.89 148.24 148.39 147.54 147.89 146.36L150.04 148.93L151.2 151.33L150.97 153.5L150.4 154.58L149.2 155.15L147.69 154.76L145.91 152.72L144.32 149.31L144.31 149.32Z" fill="#4B808C"/>
<path d="M240.38 84.7398C240.38 84.7398 237.54 79.4698 247.34 75.3498C257.14 71.2298 265.02 79.5198 263.84 83.3898C262.66 87.2598 259 90.4898 257.38 95.8198C255.76 101.15 254.81 111.25 248.31 108.09C241.81 104.93 238.32 99.6698 237.76 95.6098C237.2 91.5498 239.78 87.4198 240.37 84.7398H240.38Z" fill="#EBECF0"/>
<path d="M118.04 187.3C117.09 195.59 116.08 203.9 115.19 212.17C114.85 216.15 114.46 220.41 115.53 224.24C116.54 227.16 118.72 229.73 119.33 232.86C120.44 238.09 119.69 243.53 120.12 248.67C120.39 252.54 120.95 256.85 123.61 259.74C126.27 262.56 130.85 262.73 134.44 262.18C138.24 261.57 141.52 258.62 142.41 254.91C142.69 253.76 144.42 254.01 144.38 255.17C144.33 258.16 148.44 260.49 151.45 260.15C163.99 259.34 166.78 246.3 167.27 235.88C167.4 233.58 167.45 231.28 167.4 228.98C167.38 228.59 167.43 228.14 167.58 227.77C167.74 227.32 168.07 226.97 168.32 226.6C173.51 219.62 175.85 210.65 176.35 202.01C176.38 200.81 177.27 200.03 178.26 199.58C183.9 196.57 189.23 192.07 191.18 185.82C191.74 184.27 191.84 182.55 192.43 180.83C193.44 178.62 199.12 177.36 200.7 179.54C201.42 180.55 200.83 181.91 200.19 182.74C199.58 183.59 199.14 184.54 198.69 185.5C195.73 192.27 193.53 199.39 191.33 206.46C191.09 207.82 190.85 210.56 190.79 212.4C190.4 220.6 192.04 248.03 198.95 252.12C199.02 252.15 199.1 252.17 199.15 252.18C199.18 252.2 199.32 252.18 199.17 252.2L199.37 252.18C201.9 252.11 205.79 252.46 208.2 251.61C218.56 248.23 220.74 235.17 219.57 225.62C219.5 225.15 219.42 224.75 219.46 224.28C219.5 223.89 219.64 223.32 219.78 222.94C221.08 218.86 220.98 214.36 219.7 210.28C219.43 209.55 219.57 208.68 219.98 208.06L220.65 207.1C221.49 205.86 222.26 204.58 222.98 203.26C224.58 200.3 225.89 197.15 226.88 193.93L227.06 193.35C227.15 193.09 227.27 192.84 227.42 192.62C227.99 191.7 229.1 191.11 230.12 191.09L234.7 190.78C239.83 190.41 247.88 189.95 252.96 189.54C255.81 189.19 258.54 188 260.75 186.15C261.88 185.17 263 184.05 264.15 183.09C267.81 180.06 271.7 177.24 276.57 176.32C279.46 175.96 282.5 175.24 285.16 174.01C287.87 172.83 290.49 171.25 292.75 169.44L292.56 169.66C296.09 164.41 299.55 158.39 305.51 155.58C311.22 153 316.44 149.91 320.73 145.23C323.59 142.27 326.24 139.02 328.57 135.65L328.43 136.45C328.18 134.39 330.63 133.45 332.15 132.91C336.19 131.68 340.39 131.47 344.54 131.29C350.02 131.13 355.52 131.15 361.01 131.92C366.47 132.61 371.73 134.52 376.91 136.19C382.06 137.84 387.31 139.09 392.63 140.04C413.99 143.89 435.69 145.97 457.4 146.2L456.47 146.84C460.69 134.73 463.19 121.91 464.51 109.14C468.72 70.83 458.52 30.16 431.67 1.74002L432.43 2.06002C423.42 2.34002 414.4 2.72002 405.41 3.29002C397.63 3.89002 389.71 4.14002 382.1 5.94002C372.49 8.99002 363.9 14.48 354.32 18.17C351.08 19.39 347.71 20.58 344.17 20.68C334.13 20.77 323.88 20.98 314.08 23.2C307.47 24.67 301.75 28.52 295.35 30.69C288.89 32.97 282.13 34.29 275.38 35.24C266.46 36.55 257.37 37.08 248.42 37.83C244.05 38.48 239.71 39.87 235.45 41.1C228.95 43.01 222.55 45.34 215.93 46.94C209.35 48.16 202.74 49.5 196.77 52.7C188.68 56.67 180.67 60.82 172.67 65.01C168.58 67.23 163.86 68.4 159.25 68.45L145.72 68.95L142.36 69.08C140.23 69.19 138.28 69.94 136.49 71.11C133.5 72.71 130.64 75.2 127.26 76C126.1 76.21 124.83 76.21 123.66 76.13C113.04 75.76 90.14 74.92 79.66 74.55L72.89 74.31C71.79 74.27 70.74 74.21 69.65 74.35C66.41 74.56 63.54 76.65 60.78 78.19L54.92 81.58L51.99 83.28C50.1 84.53 47.56 85.42 45.25 85.55C42.29 85.86 37.95 86.38 35.15 86.67C32.42 86.89 29.93 87.75 27.71 89.27C24.92 91.15 20.72 94.14 17.97 96.01C17.8 96.13 17.6 96.19 17.4 96.19C14.35 96.3 11.13 97.02 8.41 98.43C5.67 99.83 3.47 102.13 2.51 105.01C0.0500047 111.73 8.11 115.02 13.43 116.3C15.35 116.75 17.31 117.12 19.26 117.18C19.99 117.19 22.15 117.17 22.92 117.17C26.18 117.14 29.44 117.04 32.68 116.85C39.02 116.41 45.72 115.98 51.68 113.81C53.22 113.16 54.75 112.34 56.42 112.04C61.3 110.96 66.47 112.84 71.16 112.09C74.41 111.72 77.06 110.11 80.06 108.79C83.17 107.44 86.66 106.37 90.12 106.89C93.63 107.4 96.65 108.89 99.65 110.17C102.47 111.41 105.68 111.92 108.86 112.26C115.27 112.87 121.82 112.68 128.26 112.14C128.78 112.1 129.25 112.43 129.38 112.91C131.51 119.47 137.71 124.23 144.52 125.13C145.38 125.24 145.72 126.36 145.11 126.94C141.54 130.9 136.99 135.71 136.42 141.19C136.42 141.6 136.18 141.96 135.84 142.14C132.58 143.83 129.38 145.8 126.46 148.03C123.47 150.33 120.93 153.38 117.49 155.07C114.09 156.93 110.62 158.31 107.36 160.08C101.4 163 99.34 165.48 102.7 172.06C103.63 173.88 104.9 175.58 106.06 177.36C106.79 178.74 107.76 179.99 108.87 181.1C115.41 187.78 125.62 188.48 134.28 186.16C144.79 183.31 156.68 181.47 164.14 172.83C166.66 170.05 168.71 166.59 171.75 164.34C174.75 161.91 178 159.9 181.32 158.06C189.66 153.58 198.42 149.65 207.72 147.68C209.4 147.41 211.15 147.03 212.85 147.43C213.11 147.52 213.43 147.63 213.65 147.98C213.89 148.36 213.35 148.77 213.06 148.42C212.96 148.25 212.46 148.2 212.03 148.22C210.68 148.27 209.34 148.65 208.02 149C202.65 150.54 197.44 152.62 192.3 154.83C185.54 157.84 178.77 161.24 172.99 165.86C169.92 168.17 168.16 171.38 165.6 174.15C164.34 175.61 162.88 176.91 161.37 178.13C153.64 183.95 143.85 185.64 134.76 188.11C127.32 190.03 118.93 190.1 112.08 186.12C108.9 184.27 106.05 181.69 104.28 178.42C102.02 175.02 99.37 171.59 99.03 167.25C98.68 163.92 100.99 161.04 103.86 159.64C107.88 157.18 112.44 155.4 116.44 153.22C119.84 151.52 122.16 148.61 125.15 146.34C128.21 144 131.44 142 134.86 140.22L134.27 141.17C134.29 139.41 134.85 137.88 135.49 136.45C137.49 132.27 140.42 128.75 143.59 125.42L144.18 127.23C136.59 126.21 129.68 120.88 127.32 113.45L128.44 114.22C121.84 114.78 115.25 114.96 108.62 114.33C105.32 113.97 101.97 113.46 98.77 112.06C92.3 109.05 87.69 107.38 80.84 110.67C77.88 111.99 74.76 113.75 71.4 114.11C66.32 114.91 61.63 113.04 56.8 114.02C55.23 114.3 53.85 115.1 52.38 115.69C42.85 118.91 32.79 118.87 22.89 119.16C11.88 119.91 -7.88999 113.58 3.26 99.79C6.88 95.93 12.2 94.38 17.34 94.17L16.77 94.35C19.52 92.5 23.86 89.4 26.51 87.6C28.94 85.9 31.96 84.88 34.86 84.66C37.38 84.42 42.59 83.77 44.96 83.54C48.19 83.5 51.11 81.37 53.85 79.83L59.71 76.44L62.64 74.74C65.62 72.83 69.33 71.97 72.87 72.29C86.59 72.79 109.72 73.61 123.62 74.11L125.31 74.17C128.01 74.2 130 72.6 132.48 71.12C135.44 69.4 138.6 67.08 142.17 67.07C144.21 67.05 156.76 66.48 159.11 66.44C163.53 66.38 167.81 65.31 171.68 63.23C179.68 59.03 187.7 54.88 195.83 50.89C199.9 48.82 204.3 47.26 208.78 46.28C213.2 45.46 217.58 44.6 221.87 43.19C230.55 40.62 239.1 37.36 248.08 35.82C257.11 35.04 266.07 34.55 275.03 33.23C283.91 31.98 292.72 30.09 300.78 26.23C302.81 25.3 304.84 24.28 306.96 23.38C317.61 19.07 329.38 19.01 340.68 18.68L344.06 18.65C347.31 18.55 350.46 17.42 353.53 16.27C362.9 12.66 371.69 7.07002 381.49 3.98002C384.83 3.08002 388.27 2.73002 391.68 2.34002C405.2 1.01002 418.75 0.48002 432.31 0.0200195C451 18.33 462.02 44.45 465.76 70.26C469.29 96.12 466.6 122.78 458.27 147.51C458.13 147.91 457.74 148.16 457.33 148.16C446.38 148.01 435.53 147.46 424.63 146.46C408.38 144.61 391.93 142.88 376.24 138.05C371.08 136.39 366.04 134.54 360.66 133.85C355.37 133.1 349.94 133.08 344.54 133.24C340.57 133.42 336.49 133.62 332.71 134.76C331.88 135.07 330.79 135.4 330.33 136.12C330.33 136.12 330.33 136.11 330.33 136.09C330.33 136.05 330.35 136.09 330.31 135.91L330.17 136.71C325.22 143.64 319.59 150.33 311.99 154.48C310.13 155.5 308.19 156.39 306.35 157.31C300.69 160.02 297.57 165.68 294.17 170.69C289.87 174.36 284.63 176.81 279.11 177.9C273.92 178.25 269.29 181.19 265.37 184.56C264.21 185.52 263.09 186.65 261.95 187.64C258.87 190.27 254.8 191.59 250.79 191.66L248.5 191.81C245.7 191.98 237.69 192.55 234.76 192.73L230.18 193.04C229.3 193.04 228.88 193.74 228.73 194.48C227.24 199.32 225.09 203.98 222.25 208.19L221.61 209.11C221.53 209.24 221.5 209.38 221.52 209.5C222.94 214.01 223.08 218.98 221.64 223.52C221.34 224.47 221.36 224.3 221.51 225.34C223.3 237.24 218.47 254.41 203.92 254.17H199.33C190.14 253.57 188.29 220.37 188.75 212.32C188.85 210.18 188.97 208.08 189.37 205.89C192.11 197.48 194.55 188.23 199 180.67C197.91 180.02 194.13 180.78 194.09 182.03C193.28 188.1 189.87 193.93 184.93 197.6C182.97 199.15 180.86 200.46 178.66 201.62C178.52 201.69 178.52 201.7 178.45 201.76C178.35 201.86 178.3 201.98 178.3 202.1C177.76 211.2 175.38 220.35 169.87 227.81L169.53 228.28C169.41 228.44 169.36 228.55 169.35 228.73C169.44 234.19 169.17 239.64 168.12 245.02C167.28 249.49 165.54 254.15 162.14 257.44C157.75 261.86 149.74 264.26 144.6 259.81C143.28 258.69 142.3 256.97 142.32 255.18L144.3 255.38C142.55 262.63 134.96 265.49 128.18 264.17C123.46 263.65 119.99 259.65 119.01 255.19C117.41 249.02 118.17 242.44 117.76 236.28C117.63 234.27 117.18 232.37 116.36 230.56C115.53 228.67 114.15 226.92 113.55 224.83C112.35 220.57 112.79 216.27 113.13 211.98C114.03 203.63 115.04 195.35 115.99 187.03C116.18 185.68 118.15 185.99 117.97 187.3H118.04Z" fill="black"/>
<path d="M198.71 91.5002C192.24 99.5502 185.2 107.04 180.85 116.5C173.83 127.12 147.9 137.3 135.74 142.11C135.22 142.31 134.65 142.05 134.45 141.53C134.25 141.01 134.52 140.43 135.04 140.24C141.43 137.76 147.75 135.01 153.95 132.08C161.62 128.35 169.36 124.56 175.85 119.06C177.85 117.35 179.15 115.6 180.21 113.21C181.4 110.86 182.83 108.64 184.32 106.48C186.32 103.62 188.47 100.88 190.72 98.2302C192.98 95.5902 195.37 93.0702 198.07 90.8502C198.47 90.5102 199.09 91.0802 198.72 91.5002H198.71Z" fill="black"/>
<path d="M143.38 255.17C143.38 255.17 145.38 247.84 143.38 232C141.38 216.16 145.38 220.17 147.38 208.17C149.38 196.17 145.68 188.01 155.53 180.59" stroke="black" stroke-width="2" stroke-linecap="round" stroke-linejoin="round"/>
<path d="M119.07 179.45C120.4 180.5 122.3 180.47 123.59 179.38C126.45 176.97 131.33 172.61 133.38 169.18C136.38 164.18 130.38 158.18 130.38 158.18C130.38 158.18 125.03 150.49 115.71 154.84C106.39 159.19 103.38 160.18 104.38 162.18C105.3 164.02 110.45 172.63 119.06 179.45H119.07Z" stroke="black" stroke-width="2" stroke-linecap="round" stroke-linejoin="round"/>
<path d="M141.85 222.09C139.21 218.84 134.32 217.74 130.33 216.51C130.15 216.46 130.04 216.27 130.09 216.09C130.14 215.93 130.28 215.84 130.44 215.85C134.62 216.26 139.36 216.78 142.65 219.74C143.23 220.36 143.68 220.94 143.83 221.86C143.96 223.17 142.02 223.4 141.84 222.1L141.85 222.09Z" fill="black"/>
<path d="M176.72 201.96C173.91 198.72 170.19 196.28 166.36 194.35C165.04 193.67 163.67 193.1 162.29 192.48C161.95 192.34 162.11 191.8 162.47 191.86C163.99 192.08 165.49 192.42 166.95 192.9C171.41 194.4 175.62 196.88 178.38 200.84C179.07 201.94 177.48 203 176.72 201.95V201.96Z" fill="black"/>
<path d="M167.96 229.12C164.41 226.95 160.43 225.36 156.34 224.47C155.99 224.4 156.06 223.85 156.42 223.89C159.66 224.16 162.89 224.89 165.95 226.05C166.98 226.45 167.97 226.86 168.99 227.42C169.48 227.68 169.65 228.29 169.39 228.78C169.11 229.3 168.44 229.46 167.95 229.13L167.96 229.12Z" fill="black"/>
<path d="M219.64 209.35C217.82 207.12 214.72 206.25 211.97 205.39C208.83 204.55 205.59 204.04 202.36 203.57C201.89 203.52 201.92 202.77 202.41 202.78C207.96 202.83 218.47 203.06 221.48 208.57C222.15 209.94 220.11 210.82 219.64 209.35Z" fill="black"/>
<path d="M263.09 185.97C249.06 180.87 232.27 171.57 226.13 157.29C226 156.97 226.49 156.73 226.65 157.06C233.15 169.33 246.13 176.31 258.33 181.87C260.12 182.65 261.95 183.43 263.76 184.08C264.96 184.53 264.35 186.37 263.1 185.97H263.09Z" fill="black"/>
<path d="M251.57 191.39C244.71 186.42 238.28 180.86 232.69 174.47C230.88 172.31 229.09 170.02 228.1 167.27C228.04 167.11 228.12 166.94 228.28 166.89C228.44 166.83 228.6 166.92 228.66 167.06C229.3 168.27 230.03 169.42 230.92 170.47C233.57 173.65 236.7 176.49 239.81 179.21C244.04 182.83 248.41 186.32 252.76 189.77C253.76 190.56 252.64 192.11 251.57 191.38V191.39Z" fill="black"/>
<path d="M127.44 113.52C124.48 105.44 124.01 96.4598 126.16 88.1498C126.22 87.8998 126.61 87.9498 126.59 88.2098C126.53 94.4698 126.84 100.69 127.97 106.84C128.34 108.88 128.8 110.95 129.33 112.89C129.64 114.09 127.91 114.67 127.44 113.52Z" fill="black"/>
<path d="M90.41 108.98C83.31 106.24 80.21 98.29 79.98 91.2C79.96 90.91 80.4 90.83 80.48 91.11C80.73 91.95 80.93 92.79 81.16 93.62C82.77 99.02 85.85 104.51 91.04 107.08C92.28 107.53 91.68 109.38 90.41 108.98Z" fill="black"/>
<path d="M56.89 113.98C52.05 113.47 48.26 109.51 45.23 106.04C44.83 105.52 44.42 105 44.03 104.47C43.88 104.27 43.93 103.98 44.13 103.83C44.31 103.7 44.56 103.72 44.71 103.86C46.62 105.57 48.49 107.29 50.55 108.82C52.48 110.19 54.6 111.67 56.96 111.99C58.22 112.09 58.16 113.97 56.89 113.98Z" fill="black"/>
<path d="M197.03 172.35C193.59 168.13 190.02 164.19 185.27 161.48C184.94 161.31 185.14 160.77 185.5 160.87C191.07 162.14 195.88 166.61 197.74 172C197.88 172.42 197.28 172.71 197.03 172.35Z" fill="black"/>
<path d="M226.01 188.55C222.68 184.27 217.19 182.42 212.1 181.18C211.32 181.01 210.54 180.85 209.76 180.63C209.54 180.57 209.41 180.34 209.47 180.12C209.52 179.94 209.68 179.83 209.85 179.82C210.66 179.78 211.48 179.79 212.3 179.8C217.95 180.2 224.42 182.63 226.76 188.24C226.92 188.71 226.26 188.99 226.02 188.57L226.01 188.55Z" fill="black"/>
<path d="M220.55 210.39C216.72 209.93 212.68 209.6 208.95 210.86C208.72 210.95 208.58 210.59 208.8 210.5C211.59 209.27 214.69 209.02 217.7 209.08C218.71 209.11 219.71 209.19 220.72 209.42C220.99 209.48 221.16 209.75 221.1 210.02C221.04 210.28 220.8 210.44 220.54 210.41L220.55 210.39Z" fill="black"/>
<path d="M221.22 207.36C220.44 204.22 219.02 201.18 216.71 198.87C216.5 198.66 216.79 198.3 217.04 198.46C219.34 199.78 220.81 202.19 221.63 204.65C221.9 205.48 222.11 206.31 222.2 207.21C222.23 207.48 222.03 207.73 221.76 207.76C221.5 207.79 221.26 207.61 221.21 207.36H221.22Z" fill="black"/>
<path d="M211.53 175.69C215.1 176.04 218.73 176.76 221.84 178.66C222.09 178.82 221.87 179.23 221.6 179.11C218.34 177.76 214.84 177.1 211.46 176.08C211.24 176.02 211.3 175.67 211.53 175.69Z" fill="black"/>
<path d="M177.7 200.84C176.96 197.9 176.16 194.86 174.41 192.31C174.24 192.06 174.62 191.78 174.8 192.02C176.82 194.48 178.2 197.51 178.68 200.67C178.75 201.28 177.83 201.44 177.69 200.84H177.7Z" fill="black"/>
<path d="M139.06 144.69C139.18 151.28 141.7 158.08 148.49 160.19C149.37 160.56 150.32 160.68 151.22 161C151.41 161.05 151.36 161.36 151.16 161.34C147.21 161.36 143.21 159.35 141.07 155.96C138.96 152.62 138.16 148.54 138.7 144.65C138.73 144.44 139.07 144.46 139.06 144.68V144.69Z" fill="black"/>
<path d="M149.24 138.85C153.45 139.56 157.2 142.45 158.98 146.35C159.19 147.05 159.54 147.8 159.62 148.53L159.83 150.02C159.81 150.98 159.87 152.05 159.66 153C159.46 154.42 158.94 155.92 158.45 157.25C158.41 157.36 158.3 157.41 158.19 157.38C158.08 157.34 158.03 157.22 158.06 157.11C158.41 155.76 158.84 154.31 158.94 152.91C159.87 146.05 155 141.66 149.13 139.26C148.9 139.19 148.99 138.81 149.23 138.85H149.24Z" fill="black"/>
<path d="M147.93 140.49C155.81 142.03 159.2 150.01 156.49 157.22C156.44 157.4 156.15 157.35 156.17 157.16C156.23 156.29 156.36 155.43 156.44 154.58C156.97 147.97 153.83 143.49 147.85 140.86C147.63 140.79 147.72 140.44 147.94 140.48L147.93 140.49Z" fill="black"/>
<path d="M144.42 148.89C145.1 151 146.28 153.04 148.15 154.28C148.92 154.83 149.8 154.82 150.24 153.87C151.53 151.03 148.99 147.58 146.79 145.86C146.68 145.8 146.65 145.66 146.72 145.56C146.78 145.47 146.89 145.45 146.98 145.48C148.08 145.95 148.94 146.77 149.69 147.64C151.14 149.43 152.33 152.09 151.15 154.34C150.54 155.77 148.76 156 147.6 155.04C145.72 153.76 144.3 151.33 144.03 148.95C144 148.7 144.37 148.64 144.43 148.88L144.42 148.89Z" fill="black"/>
<path d="M145.15 93.1099C151 102.87 158.64 112.68 170 116C170.21 116.05 170.15 116.4 169.92 116.35C161.06 114.75 154.04 108.15 149.08 100.97C147.42 98.5399 145.92 95.9999 144.86 93.2399C144.8 93.0699 145.05 92.9399 145.14 93.1099H145.15Z" fill="black"/>
<path d="M63.75 74.72C68.36 73.96 72.58 76.89 75.04 80.56C75.1 80.64 75.09 80.76 75 80.83C74.91 80.9 74.79 80.87 74.73 80.79L73.71 79.55C71.34 76.88 67.61 74.93 64 75.69C63.33 75.9 63.06 74.86 63.75 74.72Z" fill="black"/>
<path d="M85.7601 74.1501C84.0801 75.2901 82.3901 76.5201 81.0101 78.0201C80.5701 78.5301 80.1301 79.1001 80.0701 79.7101C80.0501 79.9501 79.6601 79.9201 79.6801 79.6801C79.7201 78.8601 80.1801 78.2601 80.5901 77.6801C81.9101 76.0101 83.5201 74.6501 85.1901 73.3401C85.7301 72.9301 86.3401 73.7801 85.7701 74.1601L85.7601 74.1501Z" fill="black"/>
<path d="M25.49 89.1501C27.39 89.7901 29.42 90.2501 31 91.5501C31.15 91.7001 30.93 91.9501 30.77 91.8101C29.17 90.7801 27.1 90.5201 25.26 90.1201C24.58 90.0001 24.81 88.9601 25.48 89.1501H25.49Z" fill="black"/>
<path d="M29.7201 86.6798C30.9201 87.6698 32.0901 89.0298 32.0301 90.6698C32.0301 90.7498 31.9601 90.8098 31.8801 90.8098C31.8101 90.8098 31.7501 90.7398 31.7401 90.6698C31.5801 89.2398 30.3301 88.1998 29.1701 87.5198C28.5501 87.1698 29.1501 86.2598 29.7201 86.6798Z" fill="black"/>
<path d="M108.88 163.67C108.88 163.67 115.54 173.31 119.21 175.99" stroke="black" stroke-linecap="round" stroke-linejoin="round"/>
<path d="M199.34 221.02C203.39 219.72 209.16 218.62 212.59 221.83L212.35 222.09C208.46 219.84 203.69 220.94 199.42 221.32L199.34 221.02Z" fill="black"/>
<path d="M233.9 147.55C257.19 149.82 291.82 146.36 293.11 116.59C293.54 108.2 291.71 99.82 289.22 91.75C289.18 91.63 289.25 91.51 289.37 91.47C289.48 91.44 289.6 91.49 289.64 91.6C292.67 99.53 294.63 108.04 294.22 116.65C293.41 136.6 277.45 145.89 259.34 148.13C250.88 149.21 242.27 149.21 233.87 147.8C233.72 147.78 233.75 147.53 233.91 147.56L233.9 147.55Z" fill="black"/>
</g>
<defs>
<clipPath id="clip0_622_491">
<rect width="467.32" height="264.47" fill="white"/>
</clipPath>
</defs>
</svg>
