<svg width="20" height="20" viewBox="0 0 20 20" fill="none" xmlns="http://www.w3.org/2000/svg">
<path d="M19.7617 19.1705L19.3457 18.7742C19.1402 18.5031 18.9216 18.2632 18.6833 18.0445L18.6792 18.0413C18.4346 17.8191 18.1805 17.6078 17.9168 17.4075C17.7055 17.2623 17.4151 17.0873 17.0455 16.8826C16.7417 16.7458 16.5043 16.5059 16.3757 16.2078L16.3724 16.1996L16.3331 16.18C16.5067 16.1628 16.6656 16.1309 16.8179 16.0858L16.799 16.0907L17.2658 15.9622C17.4591 15.9016 17.6826 15.8623 17.9143 15.8533H17.9193C18.1633 15.8434 18.3934 15.8041 18.6128 15.7394L18.5924 15.7444C18.6983 15.7181 18.8072 15.6884 18.9191 15.6551C19.031 15.6218 19.1268 15.592 19.2065 15.5658V15.4274C19.1274 15.309 19.0316 15.1736 18.9191 15.0213C18.8118 14.8755 18.6915 14.7486 18.5563 14.6381L18.5522 14.6348C18.2089 14.3313 17.8532 14.0376 17.4853 13.7537C17.161 13.5007 16.7933 13.2427 16.4117 13.0036L16.356 12.9708C16.1546 12.8382 15.9237 12.7154 15.6805 12.6146L15.6526 12.6048C15.4081 12.5055 15.167 12.3965 14.9296 12.2781C14.8501 12.2388 14.7576 12.2044 14.6618 12.1806L14.6528 12.179C14.557 12.1594 14.4751 12.1102 14.4153 12.0406L14.4145 12.0398C14.3015 11.8908 14.2024 11.7213 14.1238 11.5411L14.1173 11.5247C14.0381 11.3397 13.9524 11.162 13.8601 10.9916C13.662 10.6084 13.4704 10.2189 13.2853 9.82312C13.1002 9.42734 12.9225 9.03101 12.7522 8.63413C12.6337 8.36991 12.5248 8.10596 12.4255 7.84229C12.3158 7.55241 12.1921 7.30429 12.048 7.07091L12.0586 7.08975C11.7049 6.48706 11.3519 5.97281 10.9687 5.48395L10.9916 5.51507C10.6125 5.03685 10.2195 4.6094 9.79692 4.21307L9.79037 4.20734C9.37357 3.81592 8.92483 3.44252 8.45398 3.09695L8.41385 3.06829C7.92472 2.71291 7.38973 2.36298 6.80888 2.01851C6.5755 1.88094 6.30445 1.76875 6.01867 1.69669L5.99738 1.69178L5.08598 1.46413L4.57091 1.42483C4.3995 1.41173 4.22781 1.40518 4.05585 1.40518C3.93465 1.3413 3.83066 1.26515 3.73895 1.17671C3.64887 1.09073 3.55142 1.00966 3.44989 0.935146L3.4417 0.929414C2.94628 0.640354 2.37062 0.37586 1.76875 0.167868L1.69915 0.146577C1.54111 0.0540452 1.35113 0 1.14887 0C1.00475 0 0.866361 0.0278415 0.740255 0.0777923L0.747625 0.0753357C0.436456 0.198985 0.198985 0.450377 0.0966263 0.763184L0.0941697 0.771372C0.0343924 0.912218 0 1.07517 0 1.24713C0 1.54848 0.106453 1.82444 0.284147 2.0398L0.282509 2.03734C0.579485 2.43313 0.80713 2.7443 0.965444 2.97085C1.08391 3.12971 1.20619 3.29485 1.3323 3.46626C1.44776 3.62021 1.55011 3.79627 1.63282 3.98215L1.63937 3.99935C1.68523 4.09679 1.72535 4.21307 1.75483 4.33262L1.75729 4.34573C1.78349 4.45818 1.81652 4.58047 1.85637 4.71258C1.97483 5.0161 2.08702 5.32727 2.19292 5.64609C2.30839 5.9941 2.43613 6.2889 2.58434 6.56977L2.56878 6.53701C2.64794 6.68223 2.72737 6.82416 2.80707 6.96282C2.88678 7.10148 2.97249 7.23687 3.0642 7.36898C3.11743 7.44923 3.18457 7.51556 3.26155 7.56715L3.264 7.56878C3.34507 7.62774 3.3983 7.72027 3.40239 7.82509C3.30904 7.96266 3.24599 8.12807 3.2247 8.30576L3.22388 8.31068C3.19522 8.51785 3.15427 8.7021 3.09859 8.87979L3.10514 8.85522C2.92254 9.40059 2.81772 10.0295 2.81772 10.6821C2.81772 10.8934 2.82837 11.1014 2.85047 11.3069L2.84802 11.2815C2.89715 12.066 3.1338 12.7866 3.51294 13.4106L3.50147 13.3901C3.66279 13.6317 3.83557 13.8421 4.02637 14.0346C4.16394 14.1885 4.36374 14.2851 4.58647 14.2851C4.71094 14.2851 4.82886 14.2548 4.93203 14.2008L4.92794 14.2024C5.21454 14.0992 5.41844 13.8372 5.43318 13.5252V13.5236C5.47249 13.1354 5.53144 12.7882 5.61251 12.4492L5.60187 12.5041C5.62152 12.4525 5.63298 12.3935 5.63298 12.3313C5.63298 12.319 5.63217 12.3067 5.63135 12.2945V12.2961C5.6248 12.2366 5.6611 12.1804 5.74026 12.1274V12.1667C5.81941 12.3518 5.90185 12.5366 5.98755 12.7211C6.07326 12.9056 6.16224 13.0904 6.2545 13.2755C6.49607 13.6431 6.75237 13.9641 7.03406 14.2597L7.03161 14.2573C7.31412 14.5619 7.62201 14.8354 7.95447 15.077L7.97249 15.0893C8.14609 15.2219 8.29839 15.3652 8.43596 15.5216L8.43924 15.5249C8.56862 15.6772 8.72339 15.8025 8.89781 15.8967L8.90599 15.9008V15.8811H8.9453C8.91336 15.8099 8.86177 15.7525 8.7979 15.7132L8.79627 15.7124C8.73157 15.6764 8.67589 15.6404 8.62349 15.601L8.62758 15.6035C8.50912 15.485 8.38683 15.3529 8.26073 15.2072C8.13462 15.0614 8.01916 14.9228 7.91435 14.7912C7.63702 14.408 7.37253 14.0075 7.12086 13.5899C6.8692 13.1723 6.63146 12.7478 6.40763 12.3166C6.30173 12.1053 6.19937 11.8875 6.10056 11.6631C6.00175 11.4387 5.90594 11.2209 5.81313 11.0097C5.77301 10.9286 5.74517 10.8352 5.73452 10.7362V10.7321C5.72961 10.6379 5.67556 10.5568 5.59695 10.5151L5.59532 10.5142C5.49623 10.6829 5.38651 10.8287 5.26122 10.9605L5.26204 10.9597C5.13184 11.0965 5.02538 11.2578 4.94923 11.4347L4.94514 11.4453C4.82968 11.7254 4.74533 12.0504 4.70848 12.3903L4.70685 12.4058C4.66754 12.7558 4.62796 13.1155 4.58811 13.4851L4.5488 13.5047L4.52915 13.5244C4.31625 13.481 4.14101 13.3451 4.04602 13.1616L4.04438 13.1576C3.94503 12.9659 3.85604 12.7776 3.77743 12.5925C3.57435 12.0709 3.44825 11.4674 3.43105 10.8369V10.8295C3.42368 10.7296 3.42041 10.6125 3.42041 10.4954C3.42041 9.95005 3.50639 9.42434 3.66525 8.93138L3.65542 8.96741C3.69473 8.8222 3.78043 8.57763 3.91255 8.2337C4.04466 7.88978 4.07113 7.65204 3.99198 7.52047C3.95103 7.38536 3.87488 7.27154 3.77498 7.18474L3.77416 7.18392C3.67425 7.09712 3.58336 7.00622 3.49984 6.9096L3.49738 6.90632C3.40512 6.77312 3.31614 6.63118 3.23043 6.48051C3.14472 6.32984 3.06884 6.18135 3.00278 6.03505C2.86767 5.72224 2.72928 5.33 2.61464 4.92712L2.59663 4.85424C2.46643 4.39158 2.32149 4.00016 2.14953 3.62349L2.17082 3.67589C2.07992 3.46954 1.97429 3.29103 1.85146 3.12807L1.85637 3.13462C1.72317 2.95665 1.60416 2.78824 1.49934 2.62938C1.36614 2.45796 1.23403 2.29283 1.10301 2.13397C0.969538 1.97265 0.850802 1.79086 0.754176 1.59597L0.746806 1.57959C0.707501 1.50016 0.673108 1.40763 0.649361 1.31182L0.647724 1.30282C0.638716 1.27416 0.633803 1.24058 0.633803 1.20701C0.633803 1.13986 0.653456 1.07681 0.687848 1.0244L0.687029 1.02604C0.696037 0.980183 0.717327 0.940059 0.746806 0.907304C0.778742 0.878644 0.819685 0.857353 0.863904 0.848346H0.865542C0.935146 0.803308 1.01949 0.776286 1.1112 0.776286C1.17999 0.776286 1.24632 0.791844 1.30445 0.819685L1.302 0.818867C1.48133 0.869636 1.62627 0.920406 1.76793 0.978546L1.73845 0.9679C1.98903 1.07381 2.22022 1.17617 2.43203 1.27498C2.67606 1.39125 2.88405 1.51408 3.08058 1.65084L3.06584 1.64101C3.17174 1.70706 3.27738 1.77967 3.38274 1.85883C3.4881 1.93798 3.60028 2.01741 3.71929 2.09712H3.99689C4.20816 2.09712 4.43253 2.10722 4.67 2.12742C4.90992 2.14625 5.13184 2.19129 5.34311 2.26171L5.32345 2.25598C5.71733 2.37308 6.05552 2.51146 6.37651 2.67769L6.34294 2.66214C6.66667 2.827 6.97374 3.00197 7.26417 3.18703C7.74648 3.48755 8.16328 3.79545 8.55552 4.132L8.5416 4.12054C8.95103 4.47101 9.3228 4.83049 9.67163 5.21045L9.67982 5.22028C10.0205 5.59204 10.3456 5.99574 10.6428 6.4191L10.6682 6.45758C10.9417 6.84409 11.2177 7.29119 11.4658 7.75467L11.5002 7.82427C11.5665 7.95038 11.6336 8.10514 11.6918 8.26318L11.7008 8.29021C11.7537 8.44197 11.813 8.59755 11.8785 8.75696C12.0237 9.08724 12.1793 9.42052 12.3452 9.7568C12.5112 10.0931 12.6668 10.4201 12.812 10.7378L13.2476 11.6885C13.4008 12.021 13.5719 12.3076 13.7709 12.5721L13.7619 12.5598C13.9281 12.7375 14.15 12.8619 14.399 12.9053L14.4055 12.9062C14.7068 12.9815 14.9607 13.0667 15.2064 13.1674L15.1679 13.1535C15.285 13.2067 15.4356 13.2632 15.5904 13.3131L15.6232 13.3221C15.7968 13.3754 15.9474 13.4458 16.0858 13.5342L16.0784 13.5301C16.3462 13.68 16.573 13.8274 16.7892 13.9879L16.772 13.9756C16.9964 14.1405 17.2208 14.296 17.4451 14.4424C17.551 14.5215 17.7287 14.637 17.9782 14.7887C18.2277 14.9405 18.3598 15.0824 18.3745 15.2145C18.2812 15.2113 18.1707 15.2088 18.0601 15.2088C17.6572 15.2088 17.2609 15.235 16.8727 15.2858L16.9186 15.2809C16.4797 15.3398 16.0817 15.4471 15.7075 15.6002L15.7403 15.5888C15.6477 15.6289 15.5372 15.6657 15.4225 15.6944L15.407 15.6977C15.2907 15.7149 15.2006 15.8082 15.1892 15.9245C15.2391 15.9867 15.2792 16.0596 15.3063 16.1382L15.3079 16.1431C15.3357 16.2267 15.3693 16.2987 15.4103 16.3659L15.4078 16.361C15.5052 16.5337 15.6101 16.6828 15.728 16.8203L15.7247 16.8162C15.8402 16.9587 15.9704 17.0824 16.1145 17.188L16.1202 17.1921C16.2534 17.298 16.3921 17.4069 16.5362 17.5188C16.668 17.622 16.8171 17.7236 16.9718 17.8153L16.9915 17.8259C17.224 17.9684 17.4943 18.1043 17.776 18.2181L17.8136 18.2312C18.1199 18.3541 18.3827 18.4966 18.6268 18.6661L18.6137 18.6571C18.7725 18.7493 18.9308 18.8517 19.0886 18.9641C19.2464 19.0766 19.3981 19.1855 19.5439 19.2909C19.6037 19.3498 19.6561 19.4153 19.7003 19.4866L19.7028 19.4907C19.7773 19.5758 19.8804 19.634 19.9975 19.6487H20V19.6094C19.9279 19.5545 19.8747 19.4784 19.8493 19.3908L19.8485 19.3875C19.828 19.304 19.7977 19.2311 19.7568 19.1639L19.7584 19.1672L19.7617 19.1705ZM4.55044 3.44415C4.44454 3.44415 4.34545 3.44743 4.25319 3.45398C4.15902 3.46053 4.07141 3.47773 3.9887 3.50557L3.99607 3.50311V3.52276H4.03537C4.08833 3.60192 4.15493 3.69091 4.23518 3.78972C4.31543 3.88853 4.38803 3.98433 4.453 4.07714L4.7699 4.73059L4.8092 4.71094C4.90174 4.64379 4.97298 4.55372 5.01556 4.44808L5.0172 4.44399C5.05978 4.33017 5.08434 4.19751 5.08434 4.05994C5.08434 4.0452 5.08434 4.03046 5.08352 4.01572V4.01818C5.04668 3.98215 5.01638 3.93957 4.99509 3.89207L4.99427 3.88962L4.92794 3.74058C4.88454 3.6718 4.82394 3.61775 4.7527 3.58336L4.75025 3.58254C4.67327 3.54569 4.60776 3.49902 4.55044 3.44415Z" fill="#EBECF0"/>
</svg>
