<svg width="19" height="20" viewBox="0 0 19 20" fill="none" xmlns="http://www.w3.org/2000/svg">
<path d="M10.1232 0.213373C9.61622 -0.0717632 8.95522 -0.0704846 8.44779 0.213373C5.90636 1.61591 3.36487 3.01887 0.822971 4.42076C0.328349 4.68097 -0.00525868 5.21213 6.27491e-05 5.76343V14.2377C-0.00350868 14.7998 0.347299 15.3361 0.854678 15.5927C1.58479 15.9812 2.29414 16.409 3.03746 16.7716C3.89608 17.1935 4.97031 17.2868 5.83943 16.8468C6.54493 16.4822 6.85829 15.6711 6.85736 14.9257C6.86308 12.129 6.85829 9.33222 6.85958 6.53543C6.87636 6.41115 6.783 6.27829 6.64743 6.28129C6.32265 6.27615 5.99743 6.27829 5.67265 6.28043C5.54993 6.26886 5.43015 6.37079 5.43943 6.49415C5.43507 9.27286 5.44029 12.0524 5.43679 14.8316C5.44386 15.216 5.18415 15.5854 4.81367 15.7153C3.958 16.0152 1.5157 14.4294 1.5157 14.4294C1.42607 14.3879 1.36916 14.2907 1.37794 14.1942C1.37794 11.3983 1.37838 8.60236 1.37794 5.80693C1.36562 5.69423 1.43509 5.59272 1.53859 5.54671C4.07167 4.15243 6.60343 2.75467 9.13651 1.35954C9.22451 1.30082 9.34715 1.301 9.43493 1.35997C11.968 2.75467 14.5002 4.15115 17.0337 5.54549C17.1376 5.59143 17.2041 5.69465 17.1935 5.80693C17.1931 8.60236 17.1944 11.3983 17.1927 14.1938C17.2002 14.2927 17.149 14.3886 17.0567 14.432C14.5472 15.8187 12.0092 17.1607 9.52251 18.5877C9.41401 18.6499 9.29108 18.7204 9.16951 18.6519C8.51558 18.2902 7.86958 17.9144 7.21779 17.5492C7.14693 17.5049 7.05672 17.4859 6.98279 17.5354C6.69058 17.6894 6.41572 17.8142 6.08015 17.947C5.60886 18.1336 5.68415 18.2099 6.10922 18.4575C6.87143 18.8889 7.63493 19.3185 8.39715 19.7503C8.89893 20.0634 9.57315 20.0857 10.0911 19.7964C12.6329 18.3956 15.174 16.9932 17.7164 15.5924C18.2224 15.3343 18.5749 14.8002 18.5714 14.2377V5.76343C18.5763 5.22332 18.2554 4.70163 17.7757 4.43757C15.2254 3.0282 12.6739 1.62189 10.1232 0.213373Z" fill="#EBECF0"/>
<path d="M13.9585 6.57585C12.9608 6.04214 11.774 6.01371 10.6653 6.0835C9.8644 6.16264 9.02204 6.38364 8.43854 6.95778C7.84004 7.53493 7.70975 8.46693 7.99404 9.22036C8.19775 9.75278 8.71054 10.099 9.24082 10.2821C9.9239 10.5233 10.6413 10.5979 11.359 10.6724C12.0135 10.7404 12.6683 10.8085 13.2975 11.003C13.5545 11.0881 13.8538 11.2184 13.9325 11.4981C14.0052 11.8292 13.9255 12.2141 13.6566 12.4442C12.8026 13.1201 10.427 13.0166 9.58325 12.4846C9.24211 12.2579 9.09511 11.8567 9.03532 11.4744C9.02868 11.3552 8.93275 11.2459 8.80339 11.255C8.47947 11.2511 8.15554 11.252 7.83161 11.2546C7.71861 11.2451 7.60111 11.3255 7.59489 11.4409C7.52832 13.1921 9.13668 13.9555 10.6456 14.1236C11.5077 14.2057 12.3887 14.201 13.2376 14.016C13.8758 13.8707 14.5156 13.6031 14.9549 13.1116C15.4966 12.5143 15.6031 11.6249 15.3602 10.8809C15.1745 10.3256 14.6437 9.9695 14.1011 9.78628C13.3633 9.53328 12.4888 9.39728 11.8205 9.33364C10.8492 9.24114 9.6949 9.27893 9.41997 8.64064C9.31032 8.30643 9.40361 7.89143 9.71075 7.68585C10.5234 7.13464 12.1773 7.20785 13.0189 7.61964C13.4053 7.81314 13.6293 8.21057 13.7217 8.61178C13.7388 8.72964 13.8181 8.85264 13.9545 8.8475C14.2763 8.85393 14.598 8.84921 14.9196 8.84964C15.0301 8.85736 15.1511 8.795 15.1727 8.68186C15.159 7.84328 14.7308 6.98485 13.9585 6.57585Z" fill="#EBECF0"/>
</svg>
