<svg width="19" height="20" viewBox="0 0 19 20" fill="none" xmlns="http://www.w3.org/2000/svg">
<path d="M7.89149 4.06358L4.57506 2.37643L0.935059 4.20715L4.34149 5.93072L7.89149 4.06358Z" fill="#EBECF0"/>
<path d="M9.41214 4.83643L12.8893 6.605L9.28142 8.43071L5.87 6.70428L9.41214 4.83643Z" fill="#EBECF0"/>
<path d="M14.0558 2.40213L17.6279 4.20713L14.4336 5.82356L10.9486 4.05284L14.0558 2.40213Z" fill="#EBECF0"/>
<path d="M12.5186 1.62429L9.30218 0L6.12146 1.59929L9.43503 3.28357L12.5186 1.62429Z" fill="#EBECF0"/>
<path d="M10.0043 15.5778V20L13.9 18.0414L13.8957 13.6171L10.0043 15.5778Z" fill="#EBECF0"/>
<path d="M13.8943 12.0736L13.89 7.69571L10.0043 9.64214V14.0214L13.8943 12.0736Z" fill="#EBECF0"/>
<path d="M18.5715 11.2529V15.6922L15.2486 17.3629L15.2465 12.9443L18.5715 11.2529Z" fill="#EBECF0"/>
<path d="M18.5715 9.70071V5.35071L15.2422 7.01857L15.245 11.405L18.5715 9.70071Z" fill="#EBECF0"/>
<path d="M8.62857 9.64287L6.00429 8.31358V14.06C6.00429 14.06 2.795 7.17858 2.5 6.56072C2.43731 6.47996 2.35626 6.41531 2.26357 6.37215C1.68643 6.07144 0 5.20715 0 5.20715V15.3572L2.33286 16.6143V11.3086C2.33286 11.3086 5.50786 17.4564 5.54 17.5229C5.70348 17.8812 5.93882 18.2021 6.23143 18.4657C6.685 18.7679 8.62929 19.9464 8.62929 19.9464L8.62857 9.64287Z" fill="#EBECF0"/>
</svg>
