<svg width="1034" height="690" viewBox="0 0 1034 690" fill="none" xmlns="http://www.w3.org/2000/svg">
<rect x="0.75" y="344.75" width="9.5" height="85.75" stroke="#EBECF0" stroke-width="1.5"/>
<path d="M4.84872 384.826V386.954H7.41282V387.856H4.84872V390.097H7.97179V391H3.65897V383.923H7.91538L7.78205 384.826H4.84872Z" fill="white"/>
<rect x="1023.75" y="344.75" width="9.5" height="85.75" stroke="#EBECF0" stroke-width="1.5"/>
<path d="M1027.85 384.826V386.954H1030.41V387.856H1027.85V390.097H1030.97V391H1026.66V383.923H1030.92L1030.78 384.826H1027.85Z" fill="white"/>
<rect x="0.75" y="86.75" width="9.5" height="85.75" stroke="#EBECF0" stroke-width="1.5"/>
<path d="M8.15641 130.959C8.15641 131.352 8.07949 131.68 7.92564 131.944C7.77179 132.207 7.56325 132.417 7.3 132.574C7.03675 132.728 6.74103 132.838 6.41282 132.903C6.08803 132.968 5.75128 133 5.40256 133H3.33077V125.923H5.2641C5.59573 125.923 5.91538 125.952 6.22308 126.01C6.53077 126.068 6.80598 126.166 7.04872 126.303C7.29487 126.436 7.48974 126.619 7.63333 126.851C7.77692 127.08 7.84872 127.368 7.84872 127.713C7.84872 128.01 7.78718 128.263 7.6641 128.472C7.54103 128.68 7.37863 128.85 7.17692 128.979C6.97863 129.106 6.76667 129.197 6.54103 129.251C6.79744 129.296 7.04872 129.378 7.29487 129.497C7.54444 129.614 7.74957 129.79 7.91026 130.026C8.07436 130.258 8.15641 130.569 8.15641 130.959ZM6.64359 127.81C6.64359 127.455 6.53248 127.2 6.31026 127.046C6.08803 126.892 5.77521 126.815 5.37179 126.815H4.52051V128.862H5.44359C5.84017 128.862 6.13932 128.779 6.34103 128.615C6.54274 128.448 6.64359 128.179 6.64359 127.81ZM6.91538 130.954C6.91538 130.639 6.85385 130.395 6.73077 130.221C6.60769 130.043 6.44188 129.92 6.23333 129.851C6.02479 129.779 5.7906 129.744 5.53077 129.744H4.52051V132.077H5.47949C5.70513 132.077 5.92735 132.05 6.14615 131.995C6.36838 131.937 6.55128 131.827 6.69487 131.667C6.84188 131.506 6.91538 131.268 6.91538 130.954Z" fill="white"/>
<path d="M6.81795 45.2974H4.28974L3.79744 47H2.58718L4.83846 39.9231H6.31538L8.57179 47H7.31026L6.81795 45.2974ZM4.5359 44.3795H6.56667L5.55641 40.8462L4.5359 44.3795Z" fill="white"/>
<rect x="1023.75" y="86.75" width="9.5" height="85.75" stroke="#EBECF0" stroke-width="1.5"/>
<path d="M1031.16 130.959C1031.16 131.352 1031.08 131.68 1030.93 131.944C1030.77 132.207 1030.56 132.417 1030.3 132.574C1030.04 132.728 1029.74 132.838 1029.41 132.903C1029.09 132.968 1028.75 133 1028.4 133H1026.33V125.923H1028.26C1028.6 125.923 1028.92 125.952 1029.22 126.01C1029.53 126.068 1029.81 126.166 1030.05 126.303C1030.29 126.436 1030.49 126.619 1030.63 126.851C1030.78 127.08 1030.85 127.368 1030.85 127.713C1030.85 128.01 1030.79 128.263 1030.66 128.472C1030.54 128.68 1030.38 128.85 1030.18 128.979C1029.98 129.106 1029.77 129.197 1029.54 129.251C1029.8 129.296 1030.05 129.378 1030.29 129.497C1030.54 129.614 1030.75 129.79 1030.91 130.026C1031.07 130.258 1031.16 130.569 1031.16 130.959ZM1029.64 127.81C1029.64 127.455 1029.53 127.2 1029.31 127.046C1029.09 126.892 1028.78 126.815 1028.37 126.815H1027.52V128.862H1028.44C1028.84 128.862 1029.14 128.779 1029.34 128.615C1029.54 128.448 1029.64 128.179 1029.64 127.81ZM1029.92 130.954C1029.92 130.639 1029.85 130.395 1029.73 130.221C1029.61 130.043 1029.44 129.92 1029.23 129.851C1029.02 129.779 1028.79 129.744 1028.53 129.744H1027.52V132.077H1028.48C1028.71 132.077 1028.93 132.05 1029.15 131.995C1029.37 131.937 1029.55 131.827 1029.69 131.667C1029.84 131.506 1029.92 131.268 1029.92 130.954Z" fill="white"/>
<path d="M1029.82 45.2974H1027.29L1026.8 47H1025.59L1027.84 39.9231H1029.32L1031.57 47H1030.31L1029.82 45.2974ZM1027.54 44.3795H1029.57L1028.56 40.8462L1027.54 44.3795Z" fill="white"/>
<rect x="0.75" y="430.75" width="9.5" height="85.75" stroke="#EBECF0" stroke-width="1.5"/>
<path d="M4.99231 470.826V473.077H7.65385V473.979H4.99231V477H3.80256V469.923H8.15641L8.02308 470.826H4.99231Z" fill="white"/>
<rect x="1023.75" y="430.75" width="9.5" height="85.75" stroke="#EBECF0" stroke-width="1.5"/>
<path d="M1027.99 470.826V473.077H1030.65V473.979H1027.99V477H1026.8V469.923H1031.16L1031.02 470.826H1027.99Z" fill="white"/>
<rect x="0.75" y="172.75" width="9.5" height="85.75" stroke="#EBECF0" stroke-width="1.5"/>
<path d="M6.17179 211.779C6.65043 211.779 7.05385 211.843 7.38205 211.969C7.71026 212.092 8.01795 212.27 8.30513 212.503L7.68462 213.241C7.2641 212.892 6.77863 212.718 6.2282 212.718C5.87607 212.718 5.55128 212.807 5.25385 212.985C4.95641 213.162 4.71709 213.451 4.5359 213.851C4.35812 214.251 4.26923 214.785 4.26923 215.451C4.26923 216.104 4.3547 216.631 4.52564 217.031C4.69658 217.431 4.92906 217.721 5.22308 217.903C5.52051 218.084 5.85556 218.174 6.2282 218.174C6.60769 218.174 6.92222 218.113 7.17179 217.99C7.42137 217.863 7.64188 217.721 7.83333 217.564L8.40769 218.297C8.17179 218.526 7.87265 218.725 7.51026 218.892C7.14786 219.056 6.70684 219.138 6.18718 219.138C5.58547 219.138 5.04701 218.998 4.57179 218.718C4.09658 218.438 3.72051 218.024 3.44359 217.477C3.17009 216.926 3.03333 216.251 3.03333 215.451C3.03333 214.658 3.17521 213.99 3.45897 213.446C3.74273 212.899 4.12051 212.485 4.59231 212.205C5.06752 211.921 5.59402 211.779 6.17179 211.779Z" fill="white"/>
<rect x="1023.75" y="172.75" width="9.5" height="85.75" stroke="#EBECF0" stroke-width="1.5"/>
<path d="M1029.17 211.779C1029.65 211.779 1030.05 211.843 1030.38 211.969C1030.71 212.092 1031.02 212.27 1031.31 212.503L1030.68 213.241C1030.26 212.892 1029.78 212.718 1029.23 212.718C1028.88 212.718 1028.55 212.807 1028.25 212.985C1027.96 213.162 1027.72 213.451 1027.54 213.851C1027.36 214.251 1027.27 214.785 1027.27 215.451C1027.27 216.104 1027.35 216.631 1027.53 217.031C1027.7 217.431 1027.93 217.721 1028.22 217.903C1028.52 218.084 1028.86 218.174 1029.23 218.174C1029.61 218.174 1029.92 218.113 1030.17 217.99C1030.42 217.863 1030.64 217.721 1030.83 217.564L1031.41 218.297C1031.17 218.526 1030.87 218.725 1030.51 218.892C1030.15 219.056 1029.71 219.138 1029.19 219.138C1028.59 219.138 1028.05 218.998 1027.57 218.718C1027.1 218.438 1026.72 218.024 1026.44 217.477C1026.17 216.926 1026.03 216.251 1026.03 215.451C1026.03 214.658 1026.18 213.99 1026.46 213.446C1026.74 212.899 1027.12 212.485 1027.59 212.205C1028.07 211.921 1028.59 211.779 1029.17 211.779Z" fill="white"/>
<rect x="0.75" y="516.75" width="9.5" height="85.75" stroke="#EBECF0" stroke-width="1.5"/>
<path d="M5.76154 563.138C4.85897 563.138 4.15299 562.829 3.64359 562.21C3.13419 561.591 2.87949 560.672 2.87949 559.451C2.87949 558.644 3.02137 557.969 3.30513 557.426C3.59231 556.879 3.97009 556.468 4.43846 556.195C4.90684 555.918 5.41624 555.779 5.96667 555.779C6.44872 555.779 6.85043 555.851 7.17179 555.995C7.49658 556.138 7.79744 556.338 8.07436 556.595L7.40769 557.287C7.19231 557.092 6.97179 556.947 6.74615 556.851C6.52393 556.756 6.27436 556.708 5.99744 556.708C5.66581 556.708 5.35812 556.797 5.07436 556.974C4.7906 557.149 4.56154 557.438 4.38718 557.841C4.21282 558.241 4.12564 558.779 4.12564 559.456C4.12564 560.444 4.26752 561.15 4.55128 561.574C4.83504 561.998 5.25726 562.21 5.81795 562.21C6.23504 562.21 6.62479 562.111 6.98718 561.913V559.964H5.78718L5.65897 559.056H8.14103V562.487C7.80598 562.679 7.44872 562.836 7.06923 562.959C6.69316 563.079 6.25726 563.138 5.76154 563.138Z" fill="white"/>
<path d="M6.73077 649V645.785H4.42308V649H3.23333V641.923H4.42308V644.805H6.73077V641.923H7.92051V649H6.73077Z" fill="white"/>
<rect x="1023.75" y="516.75" width="9.5" height="85.75" stroke="#EBECF0" stroke-width="1.5"/>
<path d="M1028.76 563.138C1027.86 563.138 1027.15 562.829 1026.64 562.21C1026.13 561.591 1025.88 560.672 1025.88 559.451C1025.88 558.644 1026.02 557.969 1026.31 557.426C1026.59 556.879 1026.97 556.468 1027.44 556.195C1027.91 555.918 1028.42 555.779 1028.97 555.779C1029.45 555.779 1029.85 555.851 1030.17 555.995C1030.5 556.138 1030.8 556.338 1031.07 556.595L1030.41 557.287C1030.19 557.092 1029.97 556.947 1029.75 556.851C1029.52 556.756 1029.27 556.708 1029 556.708C1028.67 556.708 1028.36 556.797 1028.07 556.974C1027.79 557.149 1027.56 557.438 1027.39 557.841C1027.21 558.241 1027.13 558.779 1027.13 559.456C1027.13 560.444 1027.27 561.15 1027.55 561.574C1027.84 561.998 1028.26 562.21 1028.82 562.21C1029.24 562.21 1029.62 562.111 1029.99 561.913V559.964H1028.79L1028.66 559.056H1031.14V562.487C1030.81 562.679 1030.45 562.836 1030.07 562.959C1029.69 563.079 1029.26 563.138 1028.76 563.138Z" fill="white"/>
<path d="M1029.73 649V645.785H1027.42V649H1026.23V641.923H1027.42V644.805H1029.73V641.923H1030.92V649H1029.73Z" fill="white"/>
<rect x="0.75" y="258.75" width="9.5" height="85.75" stroke="#EBECF0" stroke-width="1.5"/>
<path d="M8.25385 301.426C8.25385 302.157 8.15812 302.757 7.96667 303.226C7.77521 303.694 7.52051 304.056 7.20256 304.313C6.88462 304.569 6.53077 304.749 6.14103 304.851C5.75128 304.95 5.35983 305 4.96667 305H3.23333V297.923H4.84872C5.27949 297.923 5.69658 297.969 6.1 298.062C6.50684 298.154 6.87094 298.325 7.19231 298.574C7.51709 298.821 7.77521 299.174 7.96667 299.636C8.15812 300.094 8.25385 300.691 8.25385 301.426ZM7.00256 301.426C7.00256 300.862 6.94615 300.409 6.83333 300.067C6.72393 299.725 6.57692 299.465 6.39231 299.287C6.20769 299.109 6.00085 298.99 5.77179 298.928C5.54273 298.867 5.31026 298.836 5.07436 298.836H4.42308V304.097H5.07949C5.32564 304.097 5.56325 304.058 5.79231 303.979C6.02137 303.901 6.2265 303.764 6.40769 303.569C6.59231 303.374 6.73761 303.104 6.84359 302.759C6.94957 302.41 7.00256 301.966 7.00256 301.426Z" fill="white"/>
<rect x="1023.75" y="258.75" width="9.5" height="85.75" stroke="#EBECF0" stroke-width="1.5"/>
<path d="M1031.25 301.426C1031.25 302.157 1031.16 302.757 1030.97 303.226C1030.78 303.694 1030.52 304.056 1030.2 304.313C1029.88 304.569 1029.53 304.749 1029.14 304.851C1028.75 304.95 1028.36 305 1027.97 305H1026.23V297.923H1027.85C1028.28 297.923 1028.7 297.969 1029.1 298.062C1029.51 298.154 1029.87 298.325 1030.19 298.574C1030.52 298.821 1030.78 299.174 1030.97 299.636C1031.16 300.094 1031.25 300.691 1031.25 301.426ZM1030 301.426C1030 300.862 1029.95 300.409 1029.83 300.067C1029.72 299.725 1029.58 299.465 1029.39 299.287C1029.21 299.109 1029 298.99 1028.77 298.928C1028.54 298.867 1028.31 298.836 1028.07 298.836H1027.42V304.097H1028.08C1028.33 304.097 1028.56 304.058 1028.79 303.979C1029.02 303.901 1029.23 303.764 1029.41 303.569C1029.59 303.374 1029.74 303.104 1029.84 302.759C1029.95 302.41 1030 301.966 1030 301.426Z" fill="white"/>
<path d="M1 1V86.5H10V10H86.5V1H1Z" stroke="#EBECF0" stroke-width="2"/>
<path d="M1 688H86.5V679H10L10 602.5H1L1 688Z" stroke="#EBECF0" stroke-width="2"/>
<rect x="86.75" y="0.75" width="85.75" height="9.5" stroke="#EBECF0" stroke-width="1.5"/>
<path d="M128.79 1.77949C129.268 1.77949 129.675 1.87009 130.01 2.05128C130.345 2.22906 130.6 2.47009 130.774 2.77436C130.952 3.07521 131.041 3.41026 131.041 3.77949C131.041 4.0906 130.986 4.39487 130.877 4.69231C130.771 4.98632 130.598 5.29744 130.359 5.62564C130.123 5.95043 129.81 6.31282 129.421 6.71282C129.031 7.1094 128.554 7.5641 127.99 8.07692H131.205L131.072 9H126.672V8.12821C127.308 7.51624 127.831 6.99658 128.241 6.56923C128.655 6.14188 128.978 5.77265 129.21 5.46154C129.446 5.15043 129.612 4.87009 129.708 4.62051C129.803 4.36752 129.851 4.11111 129.851 3.85128C129.851 3.49573 129.75 3.21538 129.549 3.01026C129.347 2.80513 129.067 2.70256 128.708 2.70256C128.39 2.70256 128.123 2.76068 127.908 2.87692C127.696 2.99316 127.485 3.1812 127.277 3.44103L126.528 2.87179C126.805 2.51966 127.123 2.24957 127.482 2.06154C127.841 1.8735 128.277 1.77949 128.79 1.77949Z" fill="white"/>
<path d="M44.8923 7.68769V8.5H41.0385V7.68769H42.5938V3.19231L41.1908 4.05538L40.7477 3.33077L42.7046 2.13077H43.6185V7.68769H44.8923Z" fill="white"/>
<rect x="86.75" y="678.75" width="85.75" height="9.5" stroke="#EBECF0" stroke-width="1.5"/>
<path d="M128.79 679.779C129.268 679.779 129.675 679.87 130.01 680.051C130.345 680.229 130.6 680.47 130.774 680.774C130.952 681.075 131.041 681.41 131.041 681.779C131.041 682.091 130.986 682.395 130.877 682.692C130.771 682.986 130.598 683.297 130.359 683.626C130.123 683.95 129.81 684.313 129.421 684.713C129.031 685.109 128.554 685.564 127.99 686.077H131.205L131.072 687H126.672V686.128C127.308 685.516 127.831 684.997 128.241 684.569C128.655 684.142 128.978 683.773 129.21 683.462C129.446 683.15 129.612 682.87 129.708 682.621C129.803 682.368 129.851 682.111 129.851 681.851C129.851 681.496 129.75 681.215 129.549 681.01C129.347 680.805 129.067 680.703 128.708 680.703C128.39 680.703 128.123 680.761 127.908 680.877C127.696 680.993 127.485 681.181 127.277 681.441L126.528 680.872C126.805 680.52 127.123 680.25 127.482 680.062C127.841 679.874 128.277 679.779 128.79 679.779Z" fill="white"/>
<path d="M44.8923 685.688V686.5H41.0385V685.688H42.5938V681.192L41.1908 682.055L40.7477 681.331L42.7046 680.131H43.6185V685.688H44.8923Z" fill="white"/>
<rect x="430.75" y="0.75" width="85.75" height="9.5" stroke="#EBECF0" stroke-width="1.5"/>
<path d="M473.497 1.77949C473.785 1.77949 474.048 1.8188 474.287 1.89744C474.53 1.97265 474.752 2.07692 474.954 2.21026L474.508 2.94872C474.203 2.75043 473.868 2.65128 473.503 2.65128C473.017 2.65128 472.631 2.87692 472.344 3.32821C472.056 3.77607 471.899 4.39145 471.872 5.17436C472.094 4.88034 472.342 4.66838 472.615 4.53846C472.892 4.40513 473.186 4.33846 473.497 4.33846C473.863 4.33846 474.197 4.42393 474.497 4.59487C474.802 4.76239 475.044 5.01538 475.226 5.35385C475.407 5.68889 475.497 6.10769 475.497 6.61026C475.497 7.11624 475.395 7.55897 475.19 7.93846C474.988 8.31795 474.711 8.61368 474.359 8.82564C474.007 9.03419 473.607 9.13846 473.159 9.13846C472.568 9.13846 472.091 8.99145 471.728 8.69744C471.369 8.40342 471.108 7.99829 470.944 7.48205C470.779 6.96581 470.697 6.37436 470.697 5.70769C470.697 4.92137 470.809 4.23419 471.031 3.64615C471.256 3.0547 471.578 2.59658 471.995 2.27179C472.412 1.94359 472.913 1.77949 473.497 1.77949ZM473.256 5.2C472.976 5.2 472.718 5.27521 472.482 5.42564C472.25 5.57607 472.05 5.77607 471.882 6.02564C471.896 6.79145 472 7.35727 472.195 7.72308C472.393 8.08547 472.716 8.26667 473.164 8.26667C473.557 8.26667 473.85 8.11966 474.041 7.82564C474.236 7.52821 474.333 7.14017 474.333 6.66154C474.333 6.11795 474.236 5.73846 474.041 5.52308C473.846 5.30769 473.585 5.2 473.256 5.2Z" fill="white"/>
<rect x="430.75" y="678.75" width="85.75" height="9.5" stroke="#EBECF0" stroke-width="1.5"/>
<path d="M473.497 679.779C473.785 679.779 474.048 679.819 474.287 679.897C474.53 679.973 474.752 680.077 474.954 680.21L474.508 680.949C474.203 680.75 473.868 680.651 473.503 680.651C473.017 680.651 472.631 680.877 472.344 681.328C472.056 681.776 471.899 682.391 471.872 683.174C472.094 682.88 472.342 682.668 472.615 682.538C472.892 682.405 473.186 682.338 473.497 682.338C473.863 682.338 474.197 682.424 474.497 682.595C474.802 682.762 475.044 683.015 475.226 683.354C475.407 683.689 475.497 684.108 475.497 684.61C475.497 685.116 475.395 685.559 475.19 685.938C474.988 686.318 474.711 686.614 474.359 686.826C474.007 687.034 473.607 687.138 473.159 687.138C472.568 687.138 472.091 686.991 471.728 686.697C471.369 686.403 471.108 685.998 470.944 685.482C470.779 684.966 470.697 684.374 470.697 683.708C470.697 682.921 470.809 682.234 471.031 681.646C471.256 681.055 471.578 680.597 471.995 680.272C472.412 679.944 472.913 679.779 473.497 679.779ZM473.256 683.2C472.976 683.2 472.718 683.275 472.482 683.426C472.25 683.576 472.05 683.776 471.882 684.026C471.896 684.791 472 685.357 472.195 685.723C472.393 686.085 472.716 686.267 473.164 686.267C473.557 686.267 473.85 686.12 474.041 685.826C474.236 685.528 474.333 685.14 474.333 684.662C474.333 684.118 474.236 683.738 474.041 683.523C473.846 683.308 473.585 683.2 473.256 683.2Z" fill="white"/>
<rect x="258.75" y="0.75" width="85.75" height="9.5" stroke="#EBECF0" stroke-width="1.5"/>
<path d="M302.677 4.58462V6.47692H303.518V7.36923H302.677V9H301.574L301.569 7.36923H298.631V6.56923L300.667 1.77949L301.636 2.1641L299.831 6.47692H301.574L301.713 4.58462H302.677Z" fill="white"/>
<rect x="258.75" y="678.75" width="85.75" height="9.5" stroke="#EBECF0" stroke-width="1.5"/>
<path d="M302.677 682.585V684.477H303.518V685.369H302.677V687H301.574L301.569 685.369H298.631V684.569L300.667 679.779L301.636 680.164L299.831 684.477H301.574L301.713 682.585H302.677Z" fill="white"/>
<rect x="602.75" y="0.75" width="85.75" height="9.5" stroke="#EBECF0" stroke-width="1.5"/>
<path d="M647.287 3.61026C647.287 3.95214 647.188 4.24615 646.99 4.49231C646.791 4.73846 646.497 4.96923 646.108 5.18462C646.576 5.39316 646.937 5.65812 647.19 5.97949C647.443 6.30085 647.569 6.67179 647.569 7.09231C647.569 7.47179 647.47 7.81709 647.272 8.12821C647.074 8.4359 646.786 8.68205 646.41 8.86667C646.038 9.04786 645.585 9.13846 645.051 9.13846C644.521 9.13846 644.072 9.04786 643.703 8.86667C643.337 8.68547 643.058 8.44274 642.867 8.13846C642.679 7.83077 642.585 7.4906 642.585 7.11795C642.585 6.69744 642.709 6.33675 642.959 6.0359C643.209 5.73504 643.542 5.4906 643.959 5.30256C643.586 5.10427 643.311 4.88205 643.133 4.6359C642.956 4.38632 642.867 4.06496 642.867 3.67179C642.867 3.25128 642.974 2.90085 643.19 2.62051C643.409 2.34017 643.687 2.12991 644.026 1.98974C644.364 1.84957 644.716 1.77949 645.082 1.77949C645.468 1.77949 645.829 1.84786 646.164 1.98462C646.499 2.12137 646.769 2.32479 646.974 2.59487C647.183 2.86496 647.287 3.20342 647.287 3.61026ZM643.979 3.67692C643.979 3.9094 644.032 4.09744 644.138 4.24103C644.244 4.38462 644.398 4.50598 644.6 4.60513C644.802 4.70427 645.046 4.80171 645.333 4.89744C645.627 4.71966 645.841 4.53846 645.974 4.35385C646.108 4.16923 646.174 3.94017 646.174 3.66667C646.174 3.34872 646.08 3.09402 645.892 2.90256C645.704 2.71111 645.434 2.61538 645.082 2.61538C644.733 2.61538 644.462 2.70769 644.267 2.89231C644.075 3.07692 643.979 3.33846 643.979 3.67692ZM646.395 7.09744C646.395 6.81026 646.326 6.5812 646.19 6.41026C646.056 6.23932 645.863 6.09573 645.61 5.97949C645.357 5.86325 645.055 5.74359 644.703 5.62051C644.443 5.75385 644.221 5.93504 644.036 6.1641C643.851 6.39316 643.759 6.69915 643.759 7.08205C643.759 7.44444 643.868 7.73333 644.087 7.94872C644.306 8.16068 644.632 8.26667 645.067 8.26667C645.504 8.26667 645.834 8.15385 646.056 7.92821C646.282 7.70256 646.395 7.42564 646.395 7.09744Z" fill="white"/>
<rect x="602.75" y="678.75" width="85.75" height="9.5" stroke="#EBECF0" stroke-width="1.5"/>
<path d="M647.287 681.61C647.287 681.952 647.188 682.246 646.99 682.492C646.791 682.738 646.497 682.969 646.108 683.185C646.576 683.393 646.937 683.658 647.19 683.979C647.443 684.301 647.569 684.672 647.569 685.092C647.569 685.472 647.47 685.817 647.272 686.128C647.074 686.436 646.786 686.682 646.41 686.867C646.038 687.048 645.585 687.138 645.051 687.138C644.521 687.138 644.072 687.048 643.703 686.867C643.337 686.685 643.058 686.443 642.867 686.138C642.679 685.831 642.585 685.491 642.585 685.118C642.585 684.697 642.709 684.337 642.959 684.036C643.209 683.735 643.542 683.491 643.959 683.303C643.586 683.104 643.311 682.882 643.133 682.636C642.956 682.386 642.867 682.065 642.867 681.672C642.867 681.251 642.974 680.901 643.19 680.621C643.409 680.34 643.687 680.13 644.026 679.99C644.364 679.85 644.716 679.779 645.082 679.779C645.468 679.779 645.829 679.848 646.164 679.985C646.499 680.121 646.769 680.325 646.974 680.595C647.183 680.865 647.287 681.203 647.287 681.61ZM643.979 681.677C643.979 681.909 644.032 682.097 644.138 682.241C644.244 682.385 644.398 682.506 644.6 682.605C644.802 682.704 645.046 682.802 645.333 682.897C645.627 682.72 645.841 682.538 645.974 682.354C646.108 682.169 646.174 681.94 646.174 681.667C646.174 681.349 646.08 681.094 645.892 680.903C645.704 680.711 645.434 680.615 645.082 680.615C644.733 680.615 644.462 680.708 644.267 680.892C644.075 681.077 643.979 681.338 643.979 681.677ZM646.395 685.097C646.395 684.81 646.326 684.581 646.19 684.41C646.056 684.239 645.863 684.096 645.61 683.979C645.357 683.863 645.055 683.744 644.703 683.621C644.443 683.754 644.221 683.935 644.036 684.164C643.851 684.393 643.759 684.699 643.759 685.082C643.759 685.444 643.868 685.733 644.087 685.949C644.306 686.161 644.632 686.267 645.067 686.267C645.504 686.267 645.834 686.154 646.056 685.928C646.282 685.703 646.395 685.426 646.395 685.097Z" fill="white"/>
<rect x="774.75" y="0.75" width="85.75" height="9.5" stroke="#EBECF0" stroke-width="1.5"/>
<path d="M819.436 8.09744V9H815.154V8.09744H816.882V3.10256L815.323 4.06154L814.831 3.25641L817.005 1.92308H818.021V8.09744H819.436ZM824.629 1.77949C825.422 1.77949 826.022 2.09915 826.429 2.73846C826.836 3.37778 827.04 4.28205 827.04 5.45128C827.04 6.62735 826.836 7.53675 826.429 8.17949C826.022 8.8188 825.422 9.13846 824.629 9.13846C823.836 9.13846 823.236 8.8188 822.829 8.17949C822.422 7.53675 822.219 6.62735 822.219 5.45128C822.219 4.28205 822.422 3.37778 822.829 2.73846C823.236 2.09915 823.836 1.77949 824.629 1.77949ZM824.629 2.65641C824.222 2.65641 823.91 2.8735 823.691 3.30769C823.472 3.73846 823.363 4.45299 823.363 5.45128C823.363 6.17949 823.407 6.74701 823.496 7.15385L825.496 3.0718C825.397 2.92479 825.275 2.8188 825.132 2.75385C824.988 2.68889 824.821 2.65641 824.629 2.65641ZM825.896 5.45128C825.896 4.79829 825.86 4.27692 825.788 3.88718L823.814 7.91795C823.998 8.14701 824.27 8.26154 824.629 8.26154C825.04 8.26154 825.352 8.04615 825.568 7.61538C825.787 7.18462 825.896 6.46325 825.896 5.45128Z" fill="white"/>
<rect x="774.75" y="678.75" width="85.75" height="9.5" stroke="#EBECF0" stroke-width="1.5"/>
<path d="M819.436 686.097V687H815.154V686.097H816.882V681.103L815.323 682.062L814.831 681.256L817.005 679.923H818.021V686.097H819.436ZM824.629 679.779C825.422 679.779 826.022 680.099 826.429 680.738C826.836 681.378 827.04 682.282 827.04 683.451C827.04 684.627 826.836 685.537 826.429 686.179C826.022 686.819 825.422 687.138 824.629 687.138C823.836 687.138 823.236 686.819 822.829 686.179C822.422 685.537 822.219 684.627 822.219 683.451C822.219 682.282 822.422 681.378 822.829 680.738C823.236 680.099 823.836 679.779 824.629 679.779ZM824.629 680.656C824.222 680.656 823.91 680.874 823.691 681.308C823.472 681.738 823.363 682.453 823.363 683.451C823.363 684.179 823.407 684.747 823.496 685.154L825.496 681.072C825.397 680.925 825.275 680.819 825.132 680.754C824.988 680.689 824.821 680.656 824.629 680.656ZM825.896 683.451C825.896 682.798 825.86 682.277 825.788 681.887L823.814 685.918C823.998 686.147 824.27 686.262 824.629 686.262C825.04 686.262 825.352 686.046 825.568 685.615C825.787 685.185 825.896 684.463 825.896 683.451Z" fill="white"/>
<rect x="172.75" y="0.75" width="85.75" height="9.5" stroke="#EBECF0" stroke-width="1.5"/>
<path d="M214.769 1.77949C215.238 1.77949 215.641 1.86154 215.979 2.02564C216.318 2.18974 216.578 2.40684 216.759 2.67692C216.94 2.94701 217.031 3.24444 217.031 3.56923C217.031 4.00684 216.896 4.37094 216.626 4.66154C216.359 4.95214 216.026 5.14359 215.626 5.2359C215.92 5.26667 216.19 5.34872 216.436 5.48205C216.685 5.61538 216.884 5.80513 217.031 6.05128C217.181 6.29744 217.256 6.60684 217.256 6.97949C217.256 7.38291 217.15 7.74872 216.938 8.07692C216.726 8.40171 216.429 8.65983 216.046 8.85128C215.663 9.04274 215.212 9.13846 214.692 9.13846C214.248 9.13846 213.824 9.05641 213.421 8.89231C213.021 8.72821 212.68 8.48034 212.4 8.14872L213.103 7.53333C213.304 7.76923 213.538 7.94359 213.805 8.05641C214.075 8.16923 214.354 8.22564 214.641 8.22564C215.079 8.22564 215.426 8.11282 215.682 7.88718C215.938 7.65812 216.067 7.34188 216.067 6.93846C216.067 6.48034 215.94 6.16068 215.687 5.97949C215.434 5.79487 215.106 5.70256 214.703 5.70256H214.092L214.226 4.85641H214.656C214.988 4.85641 215.277 4.76581 215.523 4.58462C215.773 4.4 215.897 4.11795 215.897 3.73846C215.897 3.39658 215.779 3.13333 215.544 2.94872C215.311 2.76068 215.022 2.66667 214.677 2.66667C214.379 2.66667 214.116 2.72137 213.887 2.83077C213.658 2.94017 213.432 3.09744 213.21 3.30256L212.6 2.65128C212.911 2.35727 213.248 2.13846 213.61 1.99487C213.973 1.85128 214.359 1.77949 214.769 1.77949Z" fill="white"/>
<rect x="172.75" y="678.75" width="85.75" height="9.5" stroke="#EBECF0" stroke-width="1.5"/>
<path d="M214.769 679.779C215.238 679.779 215.641 679.862 215.979 680.026C216.318 680.19 216.578 680.407 216.759 680.677C216.94 680.947 217.031 681.244 217.031 681.569C217.031 682.007 216.896 682.371 216.626 682.662C216.359 682.952 216.026 683.144 215.626 683.236C215.92 683.267 216.19 683.349 216.436 683.482C216.685 683.615 216.884 683.805 217.031 684.051C217.181 684.297 217.256 684.607 217.256 684.979C217.256 685.383 217.15 685.749 216.938 686.077C216.726 686.402 216.429 686.66 216.046 686.851C215.663 687.043 215.212 687.138 214.692 687.138C214.248 687.138 213.824 687.056 213.421 686.892C213.021 686.728 212.68 686.48 212.4 686.149L213.103 685.533C213.304 685.769 213.538 685.944 213.805 686.056C214.075 686.169 214.354 686.226 214.641 686.226C215.079 686.226 215.426 686.113 215.682 685.887C215.938 685.658 216.067 685.342 216.067 684.938C216.067 684.48 215.94 684.161 215.687 683.979C215.434 683.795 215.106 683.703 214.703 683.703H214.092L214.226 682.856H214.656C214.988 682.856 215.277 682.766 215.523 682.585C215.773 682.4 215.897 682.118 215.897 681.738C215.897 681.397 215.779 681.133 215.544 680.949C215.311 680.761 215.022 680.667 214.677 680.667C214.379 680.667 214.116 680.721 213.887 680.831C213.658 680.94 213.432 681.097 213.21 681.303L212.6 680.651C212.911 680.357 213.248 680.138 213.61 679.995C213.973 679.851 214.359 679.779 214.769 679.779Z" fill="white"/>
<rect x="516.75" y="0.75" width="85.75" height="9.5" stroke="#EBECF0" stroke-width="1.5"/>
<path d="M558.492 9.12308L557.41 8.78974L560.123 2.82564H556.882V1.92308H561.287V2.74872L558.492 9.12308Z" fill="white"/>
<rect x="516.75" y="678.75" width="85.75" height="9.5" stroke="#EBECF0" stroke-width="1.5"/>
<path d="M558.492 687.123L557.41 686.79L560.123 680.826H556.882V679.923H561.287V680.749L558.492 687.123Z" fill="white"/>
<rect x="344.75" y="0.75" width="85.75" height="9.5" stroke="#EBECF0" stroke-width="1.5"/>
<path d="M389.103 1.92308L388.954 2.78462H386.236V4.75385C386.438 4.64786 386.632 4.57607 386.821 4.53846C387.012 4.49744 387.203 4.47692 387.395 4.47692C387.771 4.47692 388.106 4.56581 388.4 4.74359C388.694 4.92137 388.925 5.17778 389.092 5.51282C389.263 5.84786 389.349 6.25299 389.349 6.72821C389.349 7.20342 389.243 7.62222 389.031 7.98462C388.822 8.34701 388.526 8.63077 388.144 8.8359C387.764 9.03761 387.32 9.13846 386.81 9.13846C386.349 9.13846 385.938 9.05641 385.579 8.89231C385.224 8.72479 384.911 8.49744 384.641 8.21026L385.328 7.5641C385.721 8.00513 386.2 8.22564 386.764 8.22564C387.195 8.22564 387.533 8.09573 387.779 7.8359C388.029 7.57265 388.154 7.20171 388.154 6.72308C388.154 6.20342 388.044 5.84103 387.826 5.6359C387.607 5.42735 387.332 5.32308 387 5.32308C386.822 5.32308 386.655 5.34359 386.497 5.38462C386.344 5.42222 386.173 5.48034 385.985 5.55897H385.138V1.92308H389.103Z" fill="white"/>
<rect x="344.75" y="678.75" width="85.75" height="9.5" stroke="#EBECF0" stroke-width="1.5"/>
<path d="M389.103 679.923L388.954 680.785H386.236V682.754C386.438 682.648 386.632 682.576 386.821 682.538C387.012 682.497 387.203 682.477 387.395 682.477C387.771 682.477 388.106 682.566 388.4 682.744C388.694 682.921 388.925 683.178 389.092 683.513C389.263 683.848 389.349 684.253 389.349 684.728C389.349 685.203 389.243 685.622 389.031 685.985C388.822 686.347 388.526 686.631 388.144 686.836C387.764 687.038 387.32 687.138 386.81 687.138C386.349 687.138 385.938 687.056 385.579 686.892C385.224 686.725 384.911 686.497 384.641 686.21L385.328 685.564C385.721 686.005 386.2 686.226 386.764 686.226C387.195 686.226 387.533 686.096 387.779 685.836C388.029 685.573 388.154 685.202 388.154 684.723C388.154 684.203 388.044 683.841 387.826 683.636C387.607 683.427 387.332 683.323 387 683.323C386.822 683.323 386.655 683.344 386.497 683.385C386.344 683.422 386.173 683.48 385.985 683.559H385.138V679.923H389.103Z" fill="white"/>
<rect x="688.75" y="0.75" width="85.75" height="9.5" stroke="#EBECF0" stroke-width="1.5"/>
<path d="M730.995 1.78974C731.802 1.78974 732.407 2.05128 732.81 2.57436C733.214 3.09402 733.415 3.78803 733.415 4.65641C733.415 5.35727 733.337 5.96068 733.179 6.46667C733.026 6.96923 732.786 7.39658 732.462 7.74872C732.14 8.10085 731.728 8.39658 731.226 8.6359C730.726 8.87521 730.13 9.08034 729.436 9.25128L729.185 8.41026C730.115 8.16068 730.826 7.83248 731.318 7.42564C731.81 7.01538 732.103 6.44444 732.195 5.71282C731.986 5.93846 731.754 6.11966 731.497 6.25641C731.241 6.39316 730.945 6.46154 730.61 6.46154C730.224 6.46154 729.879 6.37094 729.574 6.18974C729.274 6.00513 729.034 5.74359 728.856 5.40513C728.682 5.06667 728.595 4.66496 728.595 4.2C728.595 3.6906 728.701 3.25641 728.913 2.89744C729.125 2.53846 729.412 2.26496 729.774 2.07692C730.14 1.88547 730.547 1.78974 730.995 1.78974ZM729.764 4.2C729.764 4.69915 729.867 5.05812 730.072 5.27692C730.28 5.49573 730.556 5.60513 730.897 5.60513C731.168 5.60513 731.409 5.54188 731.621 5.41538C731.832 5.28889 732.034 5.11282 732.226 4.88718C732.222 4.09744 732.126 3.52991 731.938 3.18462C731.754 2.8359 731.438 2.66154 730.99 2.66154C730.593 2.66154 730.289 2.78974 730.077 3.04615C729.868 3.30256 729.764 3.68718 729.764 4.2Z" fill="white"/>
<rect x="688.75" y="678.75" width="85.75" height="9.5" stroke="#EBECF0" stroke-width="1.5"/>
<path d="M730.995 679.79C731.802 679.79 732.407 680.051 732.81 680.574C733.214 681.094 733.415 681.788 733.415 682.656C733.415 683.357 733.337 683.961 733.179 684.467C733.026 684.969 732.786 685.397 732.462 685.749C732.14 686.101 731.728 686.397 731.226 686.636C730.726 686.875 730.13 687.08 729.436 687.251L729.185 686.41C730.115 686.161 730.826 685.832 731.318 685.426C731.81 685.015 732.103 684.444 732.195 683.713C731.986 683.938 731.754 684.12 731.497 684.256C731.241 684.393 730.945 684.462 730.61 684.462C730.224 684.462 729.879 684.371 729.574 684.19C729.274 684.005 729.034 683.744 728.856 683.405C728.682 683.067 728.595 682.665 728.595 682.2C728.595 681.691 728.701 681.256 728.913 680.897C729.125 680.538 729.412 680.265 729.774 680.077C730.14 679.885 730.547 679.79 730.995 679.79ZM729.764 682.2C729.764 682.699 729.867 683.058 730.072 683.277C730.28 683.496 730.556 683.605 730.897 683.605C731.168 683.605 731.409 683.542 731.621 683.415C731.832 683.289 732.034 683.113 732.226 682.887C732.222 682.097 732.126 681.53 731.938 681.185C731.754 680.836 731.438 680.662 730.99 680.662C730.593 680.662 730.289 680.79 730.077 681.046C729.868 681.303 729.764 681.687 729.764 682.2Z" fill="white"/>
<rect x="860.75" y="0.75" width="85.75" height="9.5" stroke="#EBECF0" stroke-width="1.5"/>
<path d="M905.436 8.09744V9H901.154V8.09744H902.882V3.10256L901.323 4.06154L900.831 3.25641L903.005 1.92308H904.021V8.09744H905.436ZM912.988 8.09744V9H908.706V8.09744H910.434V3.10256L908.875 4.06154L908.383 3.25641L910.557 1.92308H911.573V8.09744H912.988Z" fill="white"/>
<path d="M987.892 7.68769V8.5H984.038V7.68769H985.594V3.19231L984.191 4.05538L983.748 3.33077L985.705 2.13077H986.618V7.68769H987.892ZM992.308 2.00154C992.739 2.00154 993.105 2.08308 993.406 2.24615C993.708 2.40615 993.937 2.62308 994.094 2.89692C994.254 3.16769 994.334 3.46923 994.334 3.80154C994.334 4.08154 994.285 4.35538 994.186 4.62308C994.091 4.88769 993.936 5.16769 993.72 5.46308C993.508 5.75538 993.226 6.08154 992.876 6.44154C992.525 6.79846 992.096 7.20769 991.588 7.66923H994.482L994.362 8.5H990.402V7.71538C990.974 7.16462 991.445 6.69692 991.814 6.31231C992.186 5.92769 992.477 5.59538 992.686 5.31538C992.899 5.03538 993.048 4.78308 993.134 4.55846C993.22 4.33077 993.263 4.1 993.263 3.86615C993.263 3.54615 993.172 3.29385 992.991 3.10923C992.809 2.92462 992.557 2.83231 992.234 2.83231C991.948 2.83231 991.708 2.88462 991.514 2.98923C991.323 3.09385 991.134 3.26308 990.946 3.49692L990.272 2.98462C990.522 2.66769 990.808 2.42462 991.131 2.25539C991.454 2.08615 991.846 2.00154 992.308 2.00154Z" fill="white"/>
<rect x="860.75" y="678.75" width="85.75" height="9.5" stroke="#EBECF0" stroke-width="1.5"/>
<path d="M905.436 686.097V687H901.154V686.097H902.882V681.103L901.323 682.062L900.831 681.256L903.005 679.923H904.021V686.097H905.436ZM912.988 686.097V687H908.706V686.097H910.434V681.103L908.875 682.062L908.383 681.256L910.557 679.923H911.573V686.097H912.988Z" fill="white"/>
<path d="M988.892 685.688V686.5H985.038V685.688H986.594V681.192L985.191 682.055L984.748 681.331L986.705 680.131H987.618V685.688H988.892ZM993.308 680.002C993.739 680.002 994.105 680.083 994.406 680.246C994.708 680.406 994.937 680.623 995.094 680.897C995.254 681.168 995.334 681.469 995.334 681.802C995.334 682.082 995.285 682.355 995.186 682.623C995.091 682.888 994.936 683.168 994.72 683.463C994.508 683.755 994.226 684.082 993.876 684.442C993.525 684.798 993.096 685.208 992.588 685.669H995.482L995.362 686.5H991.402V685.715C991.974 685.165 992.445 684.697 992.814 684.312C993.186 683.928 993.477 683.595 993.686 683.315C993.899 683.035 994.048 682.783 994.134 682.558C994.22 682.331 994.263 682.1 994.263 681.866C994.263 681.546 994.172 681.294 993.991 681.109C993.809 680.925 993.557 680.832 993.234 680.832C992.948 680.832 992.708 680.885 992.514 680.989C992.323 681.094 992.134 681.263 991.946 681.497L991.272 680.985C991.522 680.668 991.808 680.425 992.131 680.255C992.454 680.086 992.846 680.002 993.308 680.002Z" fill="white"/>
<path d="M1033 1L947.5 1V10L1024 10V86.5H1033V1Z" stroke="#EBECF0" stroke-width="2"/>
<path d="M1033 688H948V678.947H1024.05V602H1033V688Z" stroke="#EBECF0" stroke-width="2"/>
</svg>
