<svg width="20" height="18" viewBox="0 0 20 18" fill="none" xmlns="http://www.w3.org/2000/svg">
<path d="M16.444 5.76747C16.2365 5.69606 16.0216 5.62849 15.8002 5.56459C15.8366 5.4161 15.87 5.26954 15.8997 5.12547C16.387 2.75976 16.0684 0.853926 14.9803 0.226445C13.9369 -0.375226 12.2306 0.252112 10.5073 1.75186C10.3415 1.89607 10.1754 2.04876 10.0093 2.20878C9.89858 2.10291 9.78808 2.00059 9.67786 1.90273C7.87178 0.299104 6.06146 -0.376686 4.97442 0.252611C3.93206 0.856026 3.62338 2.64769 4.06207 4.88969C4.10444 5.10624 4.15395 5.32739 4.20995 5.55224C3.95374 5.62497 3.70639 5.7025 3.46973 5.78499C1.35229 6.52322 0 7.68021 0 8.88031C0 10.1198 1.45169 11.363 3.65716 12.1168C3.83121 12.1763 4.0118 12.2326 4.19792 12.286C4.13751 12.5291 4.08496 12.7674 4.04085 12.9999C3.62256 15.203 3.94922 16.9523 4.9888 17.5519C6.0626 18.1711 7.86473 17.5346 9.61955 16.0007C9.75824 15.8795 9.89744 15.7509 10.0369 15.6161C10.2176 15.7901 10.3981 15.9549 10.5776 16.1094C12.2773 17.5721 13.9561 18.1627 14.9947 17.5614C16.0674 16.9404 16.4161 15.0612 15.9635 12.7749C15.9289 12.6002 15.8887 12.4218 15.8435 12.2403C15.97 12.2029 16.0943 12.1642 16.2154 12.1241C18.5082 11.3644 20 10.1363 20 8.88031C20 7.67587 18.6041 6.51108 16.444 5.76747ZM15.9467 11.3131C15.8374 11.3493 15.7251 11.3843 15.6108 11.4182C15.3577 10.6169 15.0161 9.76482 14.598 8.88448C14.997 8.0251 15.3254 7.18391 15.5714 6.3878C15.776 6.447 15.9746 6.50944 16.1659 6.57534C18.0167 7.21246 19.1456 8.15447 19.1456 8.88031C19.1456 9.65347 17.9264 10.6571 15.9467 11.3131ZM15.1253 12.9408C15.3254 13.9518 15.354 14.8658 15.2214 15.5804C15.1023 16.2225 14.8628 16.6506 14.5666 16.822C13.9363 17.1868 12.5884 16.7126 11.1348 15.4617C10.9681 15.3183 10.8003 15.1652 10.6319 15.0031C11.1954 14.3868 11.7587 13.6703 12.3084 12.8745C13.2752 12.7887 14.1887 12.6485 15.017 12.457C15.0578 12.6216 15.0941 12.783 15.1253 12.9408ZM6.81845 16.759C6.20265 16.9764 5.71219 16.9827 5.41572 16.8117C4.78485 16.4479 4.52259 15.0433 4.88033 13.1592C4.92131 12.9435 4.97008 12.7218 5.02629 12.4953C5.84558 12.6764 6.75234 12.8068 7.72151 12.8854C8.27491 13.664 8.8544 14.3798 9.43838 15.0065C9.31079 15.1296 9.1837 15.2469 9.05732 15.3574C8.28135 16.0357 7.50375 16.5169 6.81845 16.759ZM3.93349 11.3084C2.95827 10.975 2.15289 10.5418 1.60085 10.0691C1.1048 9.64428 0.854358 9.22253 0.854358 8.88031C0.854358 8.15205 1.94011 7.22314 3.75097 6.59178C3.97069 6.51517 4.2007 6.44298 4.43939 6.37516C4.68966 7.18925 5.01796 8.04041 5.41415 8.9011C5.01283 9.77458 4.67987 10.6393 4.42715 11.4629C4.25698 11.414 4.09212 11.3625 3.93349 11.3084ZM4.90055 4.72561C4.52469 2.80472 4.77432 1.35567 5.40247 0.992053C6.07157 0.604692 7.55113 1.15699 9.11054 2.54164C9.21022 2.63014 9.31029 2.72277 9.41065 2.8186C8.82955 3.44256 8.25536 4.15292 7.70688 4.927C6.76626 5.01418 5.86587 5.15423 5.03804 5.34177C4.98599 5.13241 4.93989 4.92671 4.90055 4.72561ZM13.5276 6.85586C13.3297 6.51403 13.1266 6.18029 12.9195 5.85565C13.5576 5.93632 14.169 6.0434 14.7431 6.17445C14.5708 6.72688 14.3559 7.30449 14.103 7.89662C13.9216 7.55219 13.7297 7.20492 13.5276 6.85586ZM10.0095 3.42921C10.4036 3.85616 10.7983 4.33284 11.1865 4.85003C10.7953 4.83155 10.3993 4.82194 10 4.82194C9.60449 4.82194 9.21139 4.83134 8.82265 4.8495C9.21122 4.33711 9.60929 3.86107 10.0095 3.42921ZM6.4689 6.86177C6.27121 7.20456 6.08289 7.54995 5.90432 7.89598C5.65552 7.30591 5.44266 6.72567 5.2688 6.16541C5.83942 6.03771 6.44793 5.9333 7.082 5.85416C6.87196 6.18178 6.66712 6.51806 6.4689 6.86177ZM7.10026 11.9674C6.44515 11.8943 5.8275 11.7953 5.25701 11.6711C5.43366 11.1008 5.65121 10.5082 5.90528 9.90544C6.08431 10.2512 6.27338 10.5968 6.47228 10.9403C6.67488 11.2903 6.88481 11.6331 7.10026 11.9674ZM10.0332 14.3916C9.62823 13.9547 9.22432 13.4714 8.82984 12.9516C9.21278 12.9666 9.60321 12.9743 10 12.9743C10.4077 12.9743 10.8106 12.9651 11.2073 12.9474C10.8178 13.4767 10.4246 13.9607 10.0332 14.3916ZM14.1112 9.87472C14.3785 10.484 14.6038 11.0735 14.7828 11.6341C14.2029 11.7664 13.5768 11.8729 12.9171 11.9521C13.1247 11.6231 13.3297 11.2836 13.5311 10.9344C13.7348 10.5811 13.9283 10.2273 14.1112 9.87472ZM12.791 10.5076C12.4783 11.0497 12.1574 11.5671 11.8315 12.0556C11.2381 12.098 10.6249 12.1199 10 12.1199C9.37761 12.1199 8.7722 12.1006 8.18922 12.0627C7.85024 11.5678 7.52229 11.0488 7.21165 10.5122C6.90183 9.9771 6.61674 9.43745 6.35836 8.90082C6.61667 8.36294 6.90108 7.82268 7.20912 7.28851L7.20905 7.28861C7.51792 6.75301 7.84298 6.23653 8.17882 5.74476C8.77363 5.6998 9.38355 5.67634 9.99996 5.67634C10.6192 5.67634 11.2299 5.69997 11.8245 5.74533C12.1552 6.23351 12.4781 6.74832 12.7882 7.28398C13.1018 7.82567 13.3898 8.36234 13.6504 8.88868C13.3906 9.42406 13.1032 9.96614 12.791 10.5076ZM14.5535 0.966634C15.2232 1.35286 15.4837 2.91049 15.0629 4.95302C15.036 5.08335 15.0058 5.2161 14.973 5.35063C14.1432 5.15918 13.2422 5.01671 12.2989 4.92821C11.7493 4.14562 11.1798 3.43416 10.6082 2.81821C10.7619 2.67037 10.9153 2.52939 11.0682 2.39636C12.5447 1.11138 13.9247 0.604051 14.5535 0.966634ZM10 7.09438C10.9863 7.09438 11.7859 7.89395 11.7859 8.88031C11.7859 9.86664 10.9863 10.6662 10 10.6662C9.01367 10.6662 8.21407 9.86664 8.21407 8.88031C8.21407 7.89395 9.01367 7.09438 10 7.09438Z" fill="#EBECF0"/>
</svg>
