<?xml version="1.0" encoding="UTF-8"?>
<svg xmlns="http://www.w3.org/2000/svg" viewBox="0 0 471.73 481.13">
  <defs>
    <style>
      .cls-1 {
        fill: #5891a0;
      }

      .cls-1, .cls-2, .cls-3, .cls-4, .cls-5, .cls-6, .cls-7, .cls-8, .cls-9 {
        stroke: #000;
        stroke-linecap: round;
        stroke-linejoin: round;
      }

      .cls-1, .cls-2, .cls-3, .cls-4, .cls-5, .cls-6, .cls-7, .cls-9 {
        stroke-width: 1.6px;
      }

      .cls-10 {
        fill: #032028;
      }

      .cls-11 {
        fill: #042530;
      }

      .cls-12, .cls-6 {
        fill: #ebecf0;
      }

      .cls-13 {
        fill: #fff;
      }

      .cls-14 {
        fill: #a5a7ad;
      }

      .cls-15 {
        fill: #dcdee2;
      }

      .cls-16 {
        fill: #d9dadd;
      }

      .cls-17 {
        fill: #c6c8ce;
      }

      .cls-18, .cls-3 {
        fill: #214859;
      }

      .cls-19 {
        fill: #14303f;
      }

      .cls-20, .cls-5 {
        fill: #31697c;
      }

      .cls-2 {
        fill: #c0c4ce;
      }

      .cls-4 {
        fill: #0c2028;
      }

      .cls-7, .cls-8 {
        fill: none;
      }

      .cls-8 {
        stroke-width: .8px;
      }

      .cls-21 {
        opacity: .4;
      }

      .cls-22 {
        opacity: .6;
      }
    </style>
  </defs>
  <g id="Color">
    <path class="cls-7" d="M162.94,187.48h0"/>
    <path class="cls-6" d="M163,192.84c-.5,2.07-1.91,3.78-5.39,3.04-7.58-1.59-5.59-9.18-5.59-12.37s-.8-3.19-.8-5.59,1.19-5.98,1.19-11.17-2.39-15.96-2.39-18.35,1.2-5.19,1.67-5.99c.47-.8,3.52-2.79,5.91,0,.76,.89,1.44,2.09,2.04,3.32,1.26,2.66,2.06,5.46,2.06,5.46,.63,17.1,1.29,34.4,1.29,40.89,0,.25,0,.49,0,.75Z"/>
    <path class="cls-7" d="M163.01,192.82s0,0,0,.01"/>
    <path class="cls-9" d="M203.49,156.81c0,1.7-.76,3.22-1.97,4.31-2.08,.51-4.68,.92-7.92,.66-1.73-1.07-2.86-2.89-2.86-4.97,0-1.21,.39-2.33,1.05-3.27h0c3.24-.56,6.95-.74,10.7,.05,.64,.93,1.01,2.03,1.01,3.22Z"/>
    <path d="M193.53,162.58c-3.78-.45-7.37-1.68-10.72-3.27-.18-.08-.25-.3-.17-.48,.08-.17,.28-.25,.45-.18,3.41,1.3,6.99,2.21,10.56,2.34,1.09,.06,.97,1.7-.12,1.59h0Z"/>
    <path class="cls-7" d="M202.48,153.6c3.25,.68,6.54,2.09,9.59,4.58,0,0,4.39,3.59-.8,1.99,0,0-1.2-.4-4.39-.4-1.21,0-2.93,.75-5.37,1.34"/>
    <path d="M191.91,154.33c-3.57,.45-7.14,1.39-10.44,2.86-.12,.06-.27,0-.32-.11-.05-.11,0-.24,.1-.3,3.24-1.86,6.75-3.17,10.4-4.02,.43-.1,.86,.17,.96,.6,.11,.46-.22,.92-.68,.97h0Z"/>
    <path d="M182.53,156.32c-2.09,1.03-4.57-.74-5.47-2.59-.09-.18,.15-.36,.29-.23,1.47,1.36,3.25,2.08,5.15,2.6,.1,.02,.13,.16,.04,.21h0Z"/>
    <path d="M183.69,155.99c-1.45,.25-2.57-1.06-3.05-2.26-.07-.17,.14-.33,.29-.23,1.07,.81,2,1.18,2.83,2.28,.05,.07,.01,.18-.08,.2h0Z"/>
    <path d="M185.53,155.26c-.97,.2-1.53-.75-1.69-1.53-.02-.12,.06-.22,.18-.24,.43,.08,.79,.38,1.07,.6,.26,.24,.53,.42,.57,1,0,.08-.05,.16-.12,.18h0Z"/>
    <path d="M187.27,154.66c-.56,0-.73-.33-.87-.63-.14-.31-.2-.66-.12-1.04,.03-.12,.14-.2,.26-.17,.35,.17,.59,.47,.76,.73,.15,.26,.32,.48,.14,.99-.02,.08-.1,.13-.18,.13h0Z"/>
    <path d="M190.79,157.02c-.08,.44-.09,.41-.1,.4-.01-.03-.01-.12,0-.33,.06-.58,.26-1.14,.09-.06h0Z"/>
    <path d="M181.79,157.09c-1.88,1.34-4.51-.05-5.68-1.72-.12-.16,.08-.37,.25-.27,1.68,1.1,3.35,1.55,5.36,1.79,.1,0,.16,.14,.07,.2h0Z"/>
    <circle class="cls-13" cx="200.1" cy="156.98" r="1.8"/>
    <path class="cls-9" d="M217.9,146.68l.83-6.58c.01-.09,0-.19-.06-.27-1.15-1.72-5.64-3.29-8.19-4.07-.42-.13-.71,.4-.39,.69,.61,.57,1.26,1.24,1.58,1.81,.71,1.25-5.85-3.61-14.78-3.83-5.27-.13-8.27-.11-9.84-.06-.42,.01-.55,.57-.18,.77l.2,.1c.38,.2,.24,.77-.19,.77-4.58,0-17.17,.37-21.36,4.63,0,0-2.55,2.22-1.81,3.07,.6,.69,9.57,.66,13.02,.62,.4,0,.56,.51,.23,.74h0c-.32,.22-.18,.73,.21,.74,5.18,.21,25.37,1.02,30.1,.79,4.54-.22,8.87,.27,10.18,.44,.22,.03,.43-.13,.45-.35Z"/>
    <path d="M217.81,205.47c-.67-.41-1.41-.81-2.12-1.13-.26-.12-.38-.42-.27-.69,.1-.23,.34-.35,.57-.3,.86,.17,1.66,.39,2.48,.67,1.1,.41,.35,2.03-.67,1.45h0Z"/>
    <path class="cls-7" d="M226.26,210.91c.2,.24,.39,.48,.57,.73,3.39,4.59,8.98,4.19,8.98,4.19"/>
    <path d="M215.71,209.39c-7.64-2.95-11.53-10.57-4.96-16.97,.35-.35,.93,.14,.64,.54-5.03,6.67-1.88,12.01,4.64,15.76,.39,.21,.09,.84-.32,.67h0Z"/>
    <path class="cls-9" d="M226.26,210.91c-6.35,.66-8.11-6.16-8.11-6.16,2.16,.99,5.46,2.9,8.11,6.16Z"/>
    <line class="cls-7" x1="226.26" y1="210.91" x2="226.26" y2="210.91"/>
    <path d="M225.77,159.55c1.39,9.9,.38,20.8-5.14,29.37-.28,.44-1,.04-.76-.43,3.98-9.08,4.98-19.06,5.23-28.88-.02-.4,.61-.47,.67-.06h0Z"/>
    <path d="M198,224.22c3.15,.41,6.23,.67,9.43,1.13,2.77,.44,6.58,1.09,9.37,1.07,6.39,.17,12.41,2.77,18.74,2.71,.46-.05,.89,.3,.89,.78,.01,.44-.33,.8-.77,.81-3.37,.07-6.45-.49-9.68-1.13-3.15-.69-6.14-1.41-9.26-1.49-1.58-.06-3.23-.18-4.83-.43-2.76-.5-6.65-1.11-9.41-1.48-1.6-.26-3.17-.67-4.68-1.21-.43-.14-.27-.83,.18-.76h0Z"/>
    <path d="M273.6,224.99c-4.35,1.56-9.57,1.74-14.09,2.69-1.59,.25-3.25,.37-4.83,.43-3.12,.08-6.11,.79-9.26,1.49-3.23,.64-6.31,1.2-9.68,1.13-.44-.02-.78-.39-.77-.83,.02-.47,.43-.81,.89-.76,6.33,.06,12.35-2.54,18.74-2.71,2.78,.02,6.62-.64,9.37-1.07,3.21-.46,6.28-.71,9.44-1.13,.45-.07,.62,.63,.18,.76h0Z"/>
    <path class="cls-7" d="M235.7,224.9s-3.89-1.09-11.47-1.49c0,0-19.76-1.33-23.24,1.73"/>
    <path class="cls-7" d="M235.61,239.65h-3.82c-.95,0-1.9-.08-2.84-.23-5.02-.84-20.72-4.19-27.95-14.28,0,0,2.29,27.73,34.71,27.36"/>
    <path class="cls-8" d="M226.26,228.78s-.83,1.01-.83,2.21v5.31s-.1,1.57,1.34,2.72"/>
    <path class="cls-8" d="M223.21,228.11s2.22,2.25,2.23,3.96"/>
    <path class="cls-8" d="M222.81,238.08s2.23-.86,2.63-1.78"/>
    <path class="cls-8" d="M219.61,227.48s-1.16,.28-1.26,1.3,0,5.29,0,5.29c0,0-.18,2.02,1.26,3.06"/>
    <path class="cls-8" d="M215.39,227.21s2.57,1.95,2.92,3.26"/>
    <path class="cls-8" d="M215.39,235.58s2.66-.8,2.96-1.9"/>
    <path class="cls-8" d="M211.52,226.81s-.49,1.95,.13,3.66,.42,1.54,1.72,4.22"/>
    <path class="cls-8" d="M234.49,239.65s.92-.63,1.12-1.85,0-6.16,0-6.16c0,0-.04-1.56-1.12-1.7"/>
    <path class="cls-8" d="M236.89,240.05s-.92-.63-1.12-1.85,0-6.16,0-6.16c0,0,.04-1.56,1.12-1.7"/>
    <path class="cls-8" d="M208.18,226.24s-.19,2.66,.35,3.7,1.49,3.01,1.49,3.01"/>
    <path class="cls-8" d="M210.94,233.47s1.03-.79,1.18-1.64"/>
    <path class="cls-8" d="M205.02,225.75l.47,2.05s.86,3.01,1.63,3.3,1.57-.85,1.57-.85"/>
    <path class="cls-7" d="M308.68,187.48h0"/>
    <path class="cls-2" d="M320.38,177.93c0,2.39-.8,2.39-.8,5.59s1.99,10.77-5.59,12.37c-3.48,.74-4.89-.97-5.39-3.04,0-.25,0-.5,0-.75,0-6.5,.66-23.81,1.29-40.91h0c.06-.21,.65-2.24,1.6-4.43,.68-1.57,1.53-3.21,2.5-4.34,2.39-2.79,5.44-.8,5.91,0,.47,.8,1.67,3.59,1.67,5.99s-2.39,13.16-2.39,18.35,1.2,8.78,1.2,11.17Z"/>
    <path class="cls-7" d="M308.61,192.84s0,0,0-.01"/>
    <path class="cls-7" d="M309.91,151.18s0,.01,0,.01"/>
    <path class="cls-9" d="M268.13,156.81c0,1.7,.76,3.22,1.97,4.31,2.08,.51,4.68,.92,7.92,.66,1.73-1.07,2.86-2.89,2.86-4.97,0-1.21-.39-2.33-1.05-3.27h0c-3.24-.56-6.95-.74-10.7,.05-.64,.93-1.01,2.03-1.01,3.22Z"/>
    <path d="M288.81,159.31c-3.35,1.58-6.94,2.81-10.72,3.25-.43,.05-.81-.26-.86-.68-.05-.43,.25-.81,.68-.86,3.6-.14,7.19-1.05,10.62-2.36,.41-.17,.69,.47,.28,.65h0Z"/>
    <path class="cls-7" d="M270.1,161.12c-2.44-.6-4.16-1.34-5.37-1.34-3.19,0-4.39,.4-4.39,.4-5.19,1.6-.8-1.99-.8-1.99,3.05-2.5,6.34-3.9,9.59-4.58"/>
    <path d="M290.11,157.27c-3.27-1.5-6.84-2.48-10.39-2.96-.43-.05-.73-.45-.67-.87,.06-.45,.5-.75,.94-.65,1.83,.4,3.63,.93,5.38,1.58,1.75,.66,3.44,1.4,5.07,2.33,.37,.2,.05,.78-.32,.58h0Z"/>
    <path d="M289.12,156.11c1.91-.52,3.67-1.24,5.15-2.61,.15-.13,.38,.06,.29,.23-.47,.96-1.26,1.79-2.24,2.34-.98,.52-2.2,.83-3.24,.25-.09-.05-.07-.2,.04-.21h0Z"/>
    <path d="M290.91,153.68c-.17,1.44-1.66,2.26-2.96,2.38-.18,.01-.27-.23-.14-.34,1.07-.79,1.62-1.68,2.92-2.17,.09-.03,.18,.04,.17,.13h0Z"/>
    <path d="M287.72,153.68c.12,.58-.18,.87-.47,1.14-.3,.26-.68,.46-1.12,.5-.12,.01-.22-.07-.23-.19,.1-.42,.4-.77,.63-1.05,.24-.26,.44-.52,1.02-.54,.08,0,.15,.06,.17,.13h0Z"/>
    <path d="M285.26,152.95c.3,.47,.13,.78-.04,1.07-.18,.29-.44,.54-.81,.68-.11,.04-.24-.01-.28-.13-.05-.38,.07-.75,.18-1.03,.13-.27,.22-.54,.75-.67,.08-.02,.16,.02,.2,.08h0Z"/>
    <path d="M280.9,157.01c.05,.44,.04,.42,.02,.41-.05-.06-.14-.52-.14-.69-.05-.68,.06-.16,.12,.28h0Z"/>
    <path d="M289.9,156.88c2.01-.24,3.68-.69,5.35-1.79,.09-.06,.21-.03,.26,.07-.68,1.81-3.98,3.28-5.69,1.92-.08-.07-.03-.2,.07-.2h0Z"/>
    <circle class="cls-13" cx="271.51" cy="156.98" r="1.8"/>
    <path class="cls-9" d="M253.71,146.68l-.83-6.58c-.01-.09,0-.19,.06-.27,1.15-1.72,5.64-3.29,8.19-4.07,.42-.13,.71,.4,.39,.69-.61,.57-1.26,1.24-1.58,1.81-.71,1.25,5.85-3.61,14.78-3.83,5.27-.13,8.27-.11,9.84-.06,.42,.01,.55,.57,.18,.77l-.2,.1c-.38,.2-.24,.77,.19,.77,4.58,0,17.17,.37,21.36,4.63,0,0,2.55,2.22,1.81,3.07-.6,.69-9.57,.66-13.02,.62-.4,0-.56,.51-.23,.74h0c.32,.22,.18,.73-.21,.74-5.18,.21-25.37,1.02-30.1,.79s-8.87,.27-10.18,.44c-.22,.03-.43-.13-.45-.35Z"/>
    <path d="M255.97,204.63c-.74,.13-1.55,.36-2.29,.59-.27,.09-.57-.06-.66-.33-.08-.24,.02-.49,.23-.61,.75-.44,1.46-.84,2.29-1.18,1.11-.42,1.6,1.31,.44,1.54h0Z"/>
    <path class="cls-7" d="M235.81,215.83s5.59,.4,8.98-4.19c.18-.25,.38-.49,.57-.73"/>
    <path d="M255.6,208.71c6.52-3.76,9.64-9.1,4.62-15.75-.29-.4,.29-.89,.64-.54,4.5,4.26,4.52,10.37-.42,14.28-1.37,1.14-2.88,2.04-4.54,2.68-.19,.07-.41-.02-.48-.21-.07-.18,.01-.38,.18-.47h0Z"/>
    <path class="cls-9" d="M245.35,210.91c6.35,.66,8.11-6.16,8.11-6.16-2.16,.99-5.46,2.9-8.11,6.16Z"/>
    <line class="cls-7" x1="245.35" y1="210.91" x2="245.35" y2="210.91"/>
    <path d="M246.51,159.61c.26,9.82,1.25,19.8,5.23,28.88,.24,.47-.48,.88-.76,.43-5.52-8.57-6.53-19.47-5.14-29.37,.06-.4,.68-.35,.67,.06h0Z"/>
    <path class="cls-7" d="M235.91,224.9s3.89-1.09,11.47-1.49c0,0,19.76-1.33,23.24,1.73"/>
    <path class="cls-7" d="M236.01,239.65h3.82c.95,0,1.9-.08,2.84-.23,5.02-.84,20.72-4.19,27.95-14.28,0,0-2.29,27.73-34.71,27.36"/>
    <path class="cls-8" d="M245.35,228.78s.83,1.01,.83,2.21v5.31s.1,1.57-1.34,2.72"/>
    <path class="cls-8" d="M248.41,228.11s-2.22,2.25-2.23,3.96"/>
    <path class="cls-8" d="M248.81,238.08s-2.23-.86-2.63-1.78"/>
    <path class="cls-8" d="M252.01,227.48s1.16,.28,1.26,1.3,0,5.29,0,5.29c0,0,.18,2.02-1.26,3.06"/>
    <path class="cls-8" d="M256.23,227.21s-2.57,1.95-2.92,3.26"/>
    <path class="cls-8" d="M256.23,235.58s-2.66-.8-2.96-1.9"/>
    <path class="cls-8" d="M260.09,226.81s.49,1.95-.13,3.66c-.62,1.72-.42,1.54-1.72,4.22"/>
    <path class="cls-8" d="M263.44,226.24s.19,2.66-.35,3.7-1.49,3.01-1.49,3.01"/>
    <path class="cls-8" d="M260.67,233.47s-1.03-.79-1.18-1.64"/>
    <path class="cls-8" d="M266.59,225.75l-.47,2.05s-.86,3.01-1.63,3.3-1.57-.85-1.57-.85"/>
    <path class="cls-3" d="M313.37,131.14c-.17,1.16-.33,2.28-.47,3.34-.04,.27-.07,.53-.11,.79-.07,.52-.14,1.02-.2,1.51-.03,.25-.06,.49-.09,.73-.09,.71-.17,1.39-.25,2.04s-.14,1.25-.21,1.82c-.02,.18-.04,.36-.06,.53-.08,.8-.16,1.51-.22,2.13-.02,.23-.05,.45-.07,.65-.04,.4-.07,.75-.1,1.03,0,.14-.02,.26-.03,.37,0,.09-.01,.17-.02,.25,0,.07-.01,.14-.02,.2,0,.04,0,.07,0,.1,0,.07-.01,.12-.01,.14,0,0,0,.02-.01,.03-.1,.24-.2,.48-.3,.72-.05,.12-.1,.24-.14,.35-.01,.03-.03,.07-.04,.1-.12,.31-.23,.61-.33,.89-.04,.1-.07,.2-.11,.31-.11,.3-.2,.58-.28,.82-.05,.15-.09,.28-.14,.41-.06,.2-.11,.36-.15,.49-.02,.07-.04,.12-.05,.17-.02,.07-.04,.11-.04,.13,.02-.48,.03-.96,.05-1.45,.04-.96,.07-1.92,.11-2.88h0c.02-.52,.04-1.02,.06-1.52,.01-.42,.03-.84,.04-1.27,.03-.73,.05-1.46,.08-2.18,.02-.55,.04-1.09,.06-1.63,.02-.54,.04-1.07,.06-1.6,.02-.55,.04-1.1,.06-1.64,.01-.45,.03-.9,.05-1.35,0-.06,0-.11,0-.16v-.03s0-.09,0-.13v-.02c.04-1.15,.07-2.28,.11-3.38,.01-.4,.02-.8,.04-1.19,.02-.6,.04-1.19,.06-1.77,.01-.37,.02-.74,.03-1.1,.02-.49,.03-.98,.05-1.47,0-.2,.01-.41,.02-.61,.01-.48,.03-.94,.04-1.39,0-.17,0-.34,.01-.51s0-.33,.01-.49c.01-.5,.03-.99,.04-1.46,0-.12,0-.24,0-.36,0-.13,0-.26,0-.38v-.04c0-.34,.02-.66,.02-.98v-.49s.01-.07,.01-.11c0-.05,0-.09,0-.14v-.07c0-.21,0-.43,.01-.64,0-.22,0-.43,0-.65,0-.09,0-.18,0-.27,0-.25,0-.48,.01-.72,.02-1.35,.03-2.55,.03-3.58,0-.46,0-.92,0-1.38,0-.35,0-.7-.02-1.05,0-.24,0-.48-.01-.72,0-.07,0-.14,0-.21,0-.07,0-.14,0-.2,0-.16,0-.32-.01-.48,0-.16,0-.33-.02-.48,0-.16,0-.33-.02-.48,0-.36-.03-.73-.05-1.09,0-.01,0-.03,0-.04,0-.04,0-.07,0-.11,0-.04,0-.08,0-.12-.02-.42-.04-.84-.07-1.25-.02-.41-.05-.83-.08-1.24-.02-.41-.06-.82-.09-1.23-.06-.79-.13-1.58-.2-2.35,0-.02,0-.04,0-.07-.07-.8-.16-1.58-.24-2.35-.02-.16-.04-.33-.05-.49v-.1s-.02-.06-.02-.08c-.01-.13-.03-.25-.04-.37,0-.03,0-.07-.01-.11v-.02s0-.05,0-.07c-.04-.34-.08-.68-.13-1.01-.04-.35-.09-.71-.14-1.06-.06-.43-.12-.86-.18-1.28s-.12-.83-.18-1.24c-.02-.15-.05-.3-.07-.45-.08-.55-.17-1.09-.26-1.61-.03-.17-.06-.34-.09-.52-.03-.17-.06-.34-.09-.51-.04-.25-.09-.5-.14-.75,0-.03,0-.06-.01-.09-.07-.39-.14-.76-.22-1.14-.06-.3-.12-.6-.18-.89-.03-.14-.06-.29-.09-.44-.4-1.89-.79-3.46-1.16-4.65-.03-.09-.06-.18-.08-.27-.09-.28-.18-.54-.26-.77,0,0,0,0,0-.01-.04-.12-.08-.23-.13-.33-.05-.23-.11-.45-.17-.68,0-.03-.01-.06-.02-.09,0-.02,0-.05-.02-.07-.02-.09-.05-.17-.07-.26-.01-.06-.03-.11-.05-.17-.03-.11-.06-.22-.1-.33-.03-.1-.06-.2-.09-.29-.05-.14-.09-.28-.14-.42-.04-.11-.08-.22-.13-.34-.06-.15-.11-.3-.17-.44,0,0,0-.02,0-.02-.02-.05-.04-.1-.07-.15-.02-.07-.05-.13-.08-.19-.02-.06-.05-.11-.07-.17h0c-.04-.1-.08-.19-.13-.28-.02-.05-.05-.1-.07-.15-.06-.12-.11-.23-.17-.34-.06-.11-.11-.23-.17-.34-.04-.08-.08-.16-.12-.23-.08-.15-.16-.3-.24-.44-.25-.44-.51-.86-.78-1.26,0,0,0-.01-.01-.02-.09-.14-.19-.27-.28-.41-.04-.06-.08-.12-.13-.17-.05-.07-.11-.15-.17-.23-.01-.03-.04-.06-.06-.08-.05-.07-.1-.14-.16-.2-.03-.05-.07-.09-.11-.14-.09-.12-.18-.23-.28-.34-.19-.24-.39-.47-.6-.69-.06-.07-.12-.14-.19-.2,0,0,0,0-.01-.01,0-.01-.02-.03-.04-.04-.06-.06-.11-.12-.17-.18-.11-.11-.22-.23-.33-.34-.08-.08-.16-.16-.25-.24-.03-.03-.06-.06-.09-.09-.1-.1-.21-.2-.32-.29-.2-.19-.41-.37-.63-.55-.02-.02-.05-.05-.08-.07-.13-.11-.26-.22-.4-.33,0,0-.02-.02-.04-.03-.11-.09-.22-.17-.33-.26-.02-.02-.04-.03-.07-.05-.19-.14-.37-.27-.56-.41-.11-.08-.23-.16-.35-.24-.01,0-.03-.02-.06-.04-.1-.07-.2-.14-.31-.2-.11-.07-.22-.14-.33-.21-.23-.14-.46-.28-.68-.41-.12-.07-.24-.14-.36-.21h0s-.02-.02-.03-.02c-.31-.17-.61-.33-.9-.48,0,0-.01,0-.02,0,0,0-.01,0-.02-.01-.15-.07-.31-.15-.46-.22-.12-.06-.24-.12-.35-.17,0,0-.01,0-.02,0-.13-.06-.26-.12-.39-.18-.02,0-.04-.02-.07-.03-.19-.08-.37-.16-.55-.23-.04-.02-.08-.03-.12-.05-.08-.04-.17-.07-.25-.1-.05-.02-.09-.03-.14-.05-.35-.14-.68-.26-.98-.36-.05-.02-.09-.03-.14-.05-.33-.11-.61-.2-.84-.26h0c-.12-.03-.22-.06-.31-.08-.03,0-.07-.02-.1-.02-.01,0-.03,0-.04,0,0,0-.02,0-.02,0,0,0-.01,0-.02,0-.02,0-.04,0-.06,0-.02,0-.04,0-.06-.01-.02,0-.04,0-.04,0,0,0,0,0,0,0-.03,.01-.11,.05-.24,.11-.02,0-.04,.01-.06,.02-.02,0-.05,.02-.07,.03-.03,0-.06,.02-.09,.04-.02,0-.05,.02-.07,.03-.12,.05-.25,.1-.4,.16h0s0,0-.01,0h0s-.04,.01-.06,.02c-.11,.04-.23,.08-.35,.13-.04,.01-.08,.03-.13,.05-.04,.01-.09,.03-.14,.05-.04,.01-.08,.03-.12,.04-.17,.06-.36,.12-.55,.17-.05,.01-.09,.03-.14,.04-.37,.11-.77,.22-1.21,.32,0,0-.02,0-.03,0-.07,.02-.14,.04-.22,.05-.05,0-.09,.02-.14,.03-.01,0-.03,0-.05,0h0s-.1,.03-.1,.03c-.06,0-.12,.02-.18,.03-.2,.04-.41,.08-.62,.12-.01,0-.03,0-.05,0-.02,0-.03,0-.05,0-.14,.02-.27,.04-.41,.07-.01,0-.03,0-.05,0-.13,.02-.26,.03-.4,.05h0s-.03,0-.05,0c-.16,.02-.32,.04-.49,.06,0,0-.02,0-.03,0-.08,0-.16,.01-.24,.02-.07,0-.14,.01-.21,.02-.03,0-.06,0-.08,0-.05,0-.09,0-.14,0-.09,0-.18,.01-.27,.02-.04,0-.08,0-.13,0,0,0,0,0,0,0,0,0,0,0,0,0,0,0,0,0,0,0,0,0,0,0-.01,0-.29,0-.59,.02-.89,.02-.19,0-.37,0-.56,0-.21,0-.41-.02-.62-.03t0,0c-.18,0-.35-.02-.54-.04-.08,0-.15-.01-.23-.02-.04,0-.08,0-.13-.01-.04,0-.08,0-.12-.01-.09,0-.19-.02-.29-.04-.02,0-.04,0-.06,0-.04,0-.07,0-.12-.02-.02,0-.05,0-.07,0-.03,0-.06,0-.09-.02-.12-.01-.25-.04-.37-.06-.11-.02-.22-.04-.33-.07-.04,0-.08-.02-.13-.03-.16-.03-.32-.07-.48-.11-.1-.02-.21-.05-.31-.08-.13-.03-.26-.07-.38-.11-.21-.06-.41-.13-.62-.2-.1-.03-.19-.07-.29-.11h-.02s-.02-.01-.02-.01c-.1-.03-.2-.07-.29-.11,0,0,0,0,0,0,0,0,0,0,0,0,0,0,0,0,0,0-.01,0-.03,0-.05-.02-.05-.02-.1-.04-.15-.06-.01,0-.03,0-.04-.02,0,0-.01,0-.02,0-.35-.15-.71-.31-1.07-.5-.36-.19-.72-.39-1.08-.61-.27-.17-.54-.34-.79-.51,0,0,0,0-.01,0-.25-.17-.48-.33-.71-.49,0,0-.01,0-.02-.02t0,0c-.75-.54-1.34-1.02-1.81-1.45,0,0,0,0-.01,0-.02-.02-.04-.04-.06-.06h0c-.05-.05-.09-.09-.14-.13-.02-.02-.04-.03-.05-.05l-.19-.19c-.1-.11-.2-.21-.29-.3-.05-.05-.09-.1-.13-.15-.06-.06-.11-.12-.15-.18,0,0-.01-.01-.02-.02h0c-.17-.2-.3-.38-.41-.54-.1-.15-.18-.27-.24-.39,0,0,0,0,0,0,0,0,0-.02-.01-.03-.04-.07-.07-.13-.1-.18h0s0-.02,0-.02c0-.01,0-.02-.02-.04,0-.02-.02-.03-.02-.05,0,0,0,0,0-.01-.01-.02-.02-.04-.03-.06,0,0,0-.02,0-.02,0,0,0-.02-.02-.03,0-.02-.02-.04-.03-.05,0,0,0,0,0-.01h0s-.02-.04-.04-.05c0,0,0-.01-.02-.01,0,0,0,0-.01,0-.01,0-.03,0-.04,0,0,0,0,0-.02,.01,0,0-.02,0-.03,.02,0,0-.01,0-.02,.02-.07,.07-.16,.19-.31,.38-.02,.02-.03,.04-.05,.06-.12,.14-.26,.32-.45,.53-.01,.01-.03,.03-.04,.05-.01,.01-.03,.03-.05,.05,0,0-.01,.01-.02,.02t0,0c-.13,.14-.28,.3-.46,.48-.09,.09-.2,.19-.32,.28-.06,.05-.12,.1-.19,.15-.13,.11-.28,.22-.44,.33-.04,.03-.09,.07-.14,.1,0,0,0,0-.02,0-.09,.07-.19,.13-.29,.2-.2,.14-.41,.27-.64,.42l-.15,.1s-.01,0-.02,.01c0,0,0,0,0,0-.12,.07-.24,.14-.36,.22-.09,.06-.18,.11-.27,.16-.85,.51-1.83,1.06-2.88,1.62-.04,.02-.07,.04-.11,.06-.34,.19-.7,.37-1.06,.56-.02,0-.04,.02-.06,.03-.03,.02-.06,.03-.09,.05h0c-.11,.06-.21,.12-.31,.17-.34,.18-.68,.35-1.02,.53-.15,.07-.31,.15-.46,.23-.53,.27-1.06,.54-1.6,.8-.84,.41-1.68,.82-2.5,1.2-.04,.02-.09,.04-.13,.07l-.06,.03-.05,.02c-.37,.17-.73,.34-1.09,.51-.06,.02-.12,.05-.17,.08-.03,.01-.07,.03-.1,.04-.07,.04-.14,.07-.21,.1-.02,0-.04,.02-.06,.03,0,0,0,0-.01,0l-.06,.02s-.02,.01-.03,.02c-.05,.02-.09,.04-.14,.07-.3,.14-.61,.27-.9,.41-.07,.03-.14,.06-.2,.09-.03,0-.06,.02-.09,.04-.19,.09-.38,.17-.57,.26-.03,0-.05,.02-.08,.04-.03,.01-.07,.03-.1,.04-.13,.06-.25,.11-.37,.16-.07,.03-.14,.07-.21,.1-.51,.23-.99,.43-1.43,.62-.03,0-.06,.02-.08,.03-.05,.02-.1,.05-.15,.07h0s-.01,0-.02,0c-.05,.02-.1,.04-.14,.06-.04,.02-.08,.04-.13,.05-.34,.15-.66,.27-.94,.39-.09,.04-.17,.07-.26,.1-.18,.07-.34,.13-.48,.18-.03,.01-.07,.02-.1,.03,0,0,0,0-.01,0h0s-.09,.03-.13,.04c-.04,.01-.07,.02-.11,.03,0,0,0,0,0,0-.06,.02-.11,.03-.15,.04,0,0,0,0-.01,0-.13,.02-.15,0-.08-.07,.02-.02,.05-.04,.08-.07,.01-.01,.03-.02,.05-.04,.04-.03,.09-.06,.14-.09,.23-.14,.46-.29,.68-.45,0,0,.01-.01,.02-.02,.16-.11,.33-.22,.49-.35,.2-.14,.4-.29,.6-.44,.2-.15,.4-.31,.59-.46,.07-.06,.15-.12,.22-.17h0c.6-.49,1.16-.99,1.68-1.45,.66-.59,1.23-1.13,1.64-1.54,.04-.03,.07-.07,.1-.1h0s.07-.07,.11-.11c.14-.14,.25-.25,.33-.34h0s.03-.04,.05-.05c.02-.03,.04-.05,.06-.07,.02-.02,.04-.04,.05-.05l.04-.04c-.35,.07-.71,.13-1.08,.19-.15,.03-.31,.05-.47,.07-.33,.05-.67,.1-1.02,.14-.18,.02-.36,.05-.55,.07-.2,.02-.39,.05-.59,.07-.08,.01-.17,.02-.26,.03-.2,.02-.39,.04-.59,.06h-.02c-.28,.03-.56,.05-.85,.07-1.1,.08-2.24,.14-3.42,.18h0c-.07,0-.14,0-.21,0-.28,0-.56,.01-.84,.01-.37,0-.74,0-1.11,0-.48,0-.95,0-1.44-.01h-.06c-.27,0-.55,0-.82-.02-.55-.01-1.1-.03-1.65-.06,0,0-.02,0-.03,0-.23,0-.47-.02-.7-.04-.44-.02-.89-.05-1.34-.08-.58-.04-1.17-.09-1.76-.14-.47-.04-.93-.08-1.39-.13-.62-.07-1.24-.13-1.86-.21-.45-.06-.89-.11-1.34-.17-.39-.05-.81-.05-1.25,0-.06,0-.12,.01-.18,.03-.07,0-.14,.02-.2,.03-.05,0-.1,.01-.15,.03-.11,.02-.22,.05-.34,.07-.02,0-.04,0-.06,.01-.04,.01-.09,.02-.13,.04-.04,0-.08,.02-.13,.04-.08,.02-.16,.05-.25,.07-.08,.03-.17,.06-.26,.08-.02,0-.04,.01-.06,.02-.01,0-.03,0-.05,.02-.02,0-.05,.01-.07,.02-.12,.04-.23,.08-.34,.13-.17,.07-.34,.14-.51,.21-.12,.05-.23,.1-.35,.16-.01,0-.02,0-.04,.01,0,0-.02,0-.03,.02,0,0-.01,0-.02,0-.02,0-.05,.02-.08,.04,0,0,0,0-.02,0-.03,.01-.06,.03-.08,.04-.06,.03-.13,.06-.19,.09-.06,.03-.12,.06-.17,.09-.05,.02-.09,.05-.14,.07h0c-.08,.04-.16,.08-.24,.13-.01,0-.03,.02-.04,.02-.09,.05-.18,.1-.27,.14-.09,.05-.18,.1-.27,.15-.01,0-.03,.02-.05,.03-.08,.05-.16,.09-.24,.14-.01,0-.03,.02-.05,.03-.08,.05-.16,.09-.24,.14-.21,.13-.43,.27-.65,.41-.08,.05-.16,.1-.24,.15-.02,.01-.04,.03-.06,.04-.04,.02-.08,.05-.12,.07-.14,.09-.28,.19-.42,.28-.02,.01-.04,.03-.07,.05-.18,.12-.36,.25-.55,.37-.02,.02-.05,.04-.07,.05-.08,.06-.16,.11-.24,.17-.02,.01-.05,.03-.07,.06-.08,.06-.16,.11-.24,.17-.02,.02-.05,.04-.07,.06-.15,.11-.3,.21-.45,.33-.11,.08-.22,.16-.33,.25-.16,.12-.32,.24-.48,.37-.08,.06-.16,.12-.24,.19h0c-.1,.08-.2,.16-.3,.24-.11,.08-.21,.17-.32,.25-.14,.11-.28,.22-.41,.34-.18,.14-.36,.29-.54,.44-.04,.03-.07,.06-.1,.09-.11,.08-.21,.18-.33,.27-.18,.15-.35,.3-.53,.45-.04,.03-.07,.07-.11,.1-.07,.06-.14,.12-.21,.18-.04,.03-.07,.07-.11,.1-.07,.06-.14,.12-.21,.18-.2,.18-.41,.35-.61,.53-.05,.05-.1,.09-.16,.14-.07,.06-.13,.12-.2,.17-.01,.01-.03,.02-.04,.04-.03,.03-.06,.05-.08,.07-.03,.03-.06,.05-.08,.07-.04,.04-.07,.07-.11,.1-.04,.04-.08,.08-.13,.12-.17,.15-.34,.31-.51,.47-.05,.04-.09,.08-.13,.12-.21,.19-.43,.39-.64,.6-.21,.2-.42,.4-.64,.6-.11,.1-.21,.2-.32,.3-.16,.15-.32,.3-.48,.45-.05,.05-.1,.1-.16,.15-.17,.16-.34,.34-.52,.5-.04,.04-.07,.07-.11,.11-.05,.05-.1,.1-.15,.15-.15,.15-.31,.3-.47,.46-.31,.3-.61,.61-.92,.91-.1,.1-.2,.2-.3,.3-.12,.12-.24,.25-.37,.37-.02,.02-.05,.04-.07,.07-.04,.04-.07,.07-.11,.11-.11,.12-.23,.23-.35,.35-.37,.38-.75,.76-1.11,1.14-.03,.04-.07,.07-.1,.1-.96,1-1.88,1.97-2.73,2.89-.07,.07-.14,.15-.2,.22-.05,.05-.09,.1-.14,.14-.11,.12-.21,.23-.31,.34-.08,.09-.16,.17-.24,.26-.02,.02-.05,.05-.07,.07-.06,.06-.11,.12-.16,.18-.71,.78-1.36,1.5-1.94,2.16-.12,.14-.24,.27-.35,.39,0,0,0,.01-.01,.02-.05,.06-.09,.11-.14,.16-.06,.07-.11,.13-.17,.2-.01,.01-.02,.02-.03,.04-.07,.07-.13,.14-.19,.21-.04,.04-.07,.08-.11,.12-.04,.05-.08,.09-.12,.14-.12,.13-.22,.25-.33,.37-.05,.06-.09,.11-.14,.16-.18,.2-.34,.39-.48,.56,0,0,0,0,0,.01-.02,.02-.04,.04-.06,.07-.17,.2-.32,.37-.44,.51,0,0,0,.01,0,.01,0,0-.01,.02-.02,.02-.03,.04-.07,.07-.09,.11,0,0-.02,.02-.03,.03h0s0,0,0,0c0,.01-.01,.02-.03,.03-.07,.08-.11,.14-.14,.17,0,0-.01,.01-.02,.02,.07-.22,.15-.44,.23-.66,.03-.08,.06-.16,.09-.24,.14-.35,.28-.71,.44-1.07,.05-.12,.1-.23,.15-.34,.06-.14,.13-.27,.19-.41,.02-.04,.03-.07,.05-.11,.07-.14,.14-.29,.21-.43,.24-.48,.49-.97,.76-1.46h0c.09-.17,.18-.33,.27-.49,.09-.17,.19-.34,.28-.5,.09-.16,.18-.32,.27-.48,.16-.26,.32-.53,.48-.79,.14-.24,.3-.48,.45-.72,.32-.5,.64-1,.97-1.5,.22-.33,.44-.66,.67-.98,.68-.98,1.38-1.96,2.09-2.89,.23-.31,.47-.62,.7-.93,.87-1.14,1.73-2.22,2.55-3.22,.08-.1,.16-.2,.24-.3,.09-.11,.18-.21,.27-.32,.06-.07,.11-.13,.16-.19,.38-.45,.74-.89,1.08-1.29,.02-.02,.04-.04,.06-.07,.38-.44,.73-.85,1.06-1.23,0,0,0,0,0,0,.08-.1,.16-.19,.25-.28,.22-.26,.43-.5,.63-.72,.03-.03,.05-.06,.07-.08h0s.03-.04,.05-.06c.48-.55,.88-.98,1.16-1.28,.11-.12,.2-.21,.27-.29,.12-.12,.18-.19,.18-.19-.11-.03-.23-.07-.35-.09-.07-.02-.15-.03-.24-.05-.05,0-.1-.02-.16-.02-.04,0-.07-.01-.12-.01-.11-.01-.23-.03-.35-.03-.18-.01-.38-.02-.58-.02-.12,0-.24,0-.36,0-.09,0-.18,0-.27,.01t0,0c-.32,.01-.65,.05-.99,.09-.03,0-.06,0-.08,0-.02,0-.04,0-.07,0-.1,0-.2,.03-.31,.04-.29,.04-.59,.09-.9,.15-.26,.05-.53,.1-.8,.16-.08,.01-.17,.04-.26,.06-.17,.04-.34,.08-.52,.12-.17,.04-.35,.08-.53,.13-.07,.02-.14,.04-.21,.06-.25,.07-.51,.13-.76,.2-.09,.02-.18,.05-.27,.07-.09,.02-.18,.05-.27,.08-.18,.05-.37,.11-.55,.16-.18,.06-.37,.11-.56,.17-.19,.06-.38,.12-.56,.18-.19,.06-.38,.12-.57,.19-.17,.05-.34,.11-.5,.17-.02,0-.05,.01-.07,.02-.14,.05-.29,.1-.43,.15-.24,.08-.48,.16-.73,.25-.06,.02-.11,.04-.17,.06-.25,.09-.51,.18-.76,.27-1.84,.67-3.7,1.4-5.48,2.14-.07,.03-.13,.05-.19,.08h0s-.06,.03-.09,.04c-.09,.04-.18,.08-.27,.12-.05,.02-.1,.04-.15,.06-.51,.21-1.02,.43-1.51,.64-.18,.08-.36,.16-.54,.23-.1,.05-.2,.09-.31,.14-.07,.03-.14,.07-.22,.09-.1,.05-.2,.09-.29,.13-.42,.19-.83,.37-1.23,.55-.16,.07-.33,.14-.48,.22-.43,.19-.84,.38-1.24,.56-.05,.02-.09,.04-.14,.06-.1,.05-.2,.1-.31,.14-1.01,.47-1.89,.88-2.6,1.22-.06,.03-.11,.05-.16,.08-.06,.03-.12,.06-.18,.08-.08,.04-.16,.07-.23,.11-.1,.05-.19,.09-.28,.14-.15,.07-.28,.14-.4,.2-.07,.03-.13,.07-.19,.09-.11,.05-.2,.09-.27,.13-.04,.02-.08,.04-.11,.05-.06,.03-.09,.05-.11,.06,.02-.02,.04-.04,.06-.06,.02-.02,.04-.04,.06-.06,.04-.05,.08-.09,.13-.13,.09-.09,.19-.18,.28-.27,.14-.14,.29-.27,.44-.4,.04-.03,.07-.07,.11-.1,.05-.04,.09-.08,.14-.12,.11-.09,.23-.19,.34-.28,.03-.03,.06-.05,.08-.07,.14-.11,.27-.22,.41-.33,.05-.05,.11-.09,.16-.13,.19-.15,.39-.29,.59-.44,.05-.04,.09-.07,.14-.1,.11-.08,.22-.16,.33-.24,.01,0,.03-.02,.05-.03,.14-.1,.28-.2,.42-.29,.15-.1,.3-.2,.46-.3,.16-.11,.32-.21,.48-.31,.17-.11,.34-.21,.52-.32,.08-.05,.16-.1,.25-.15,.12-.07,.23-.14,.35-.2,.17-.1,.34-.2,.51-.29,.05-.02,.09-.05,.14-.07,.13-.07,.26-.14,.39-.21,.25-.13,.49-.26,.73-.38,0,0,0,0,0,0,.05-.02,.1-.05,.16-.08h0c.16-.08,.31-.15,.47-.23,.02,0,.04-.02,.07-.03,.08-.04,.17-.08,.26-.13,0,0,.02,0,.03-.01,.24-.11,.47-.22,.7-.32,.04-.02,.07-.03,.11-.05,.23-.1,.46-.2,.68-.29,.08-.04,.17-.07,.25-.1,0,0,0,0,0,0,.08-.03,.17-.07,.25-.1,.08-.03,.16-.07,.24-.1,.08-.03,.16-.07,.24-.1,.08-.03,.15-.06,.23-.09h0s.06-.03,.09-.04c.2-.07,.38-.15,.56-.21,.06-.02,.12-.04,.18-.07,.08-.03,.15-.06,.23-.08,.13-.05,.26-.09,.37-.13,.06-.02,.12-.04,.18-.06,.1-.03,.19-.07,.28-.1,.14-.04,.27-.08,.38-.12,.06-.02,.11-.04,.16-.05,.08-.03,.16-.05,.22-.07,.02,0,.05-.01,.07-.02,.07-.02,.12-.04,.17-.05,.02,0,.04-.01,.06-.02,.02,0,.04,0,.05-.01,0,0,0,0,.01,0,.03,0,.05-.01,.05-.01,0,0-3.2-1.59-13.56-3.19-10.37-1.59-18.55,13.36-18.55,13.36-.06,.15-.13,.33-.19,.51-.02,.07-.05,.13-.07,.2-.12,.35-.24,.75-.37,1.18,0,.04-.02,.08-.04,.13-.14,.49-.28,1.02-.42,1.61-.06,.24-.12,.49-.18,.75-.07,.28-.14,.58-.2,.89-.06,.25-.11,.5-.16,.76-.03,.14-.06,.29-.09,.44-.06,.3-.13,.6-.18,.91-.06,.31-.12,.63-.18,.95-.07,.33-.12,.65-.18,.99-.18,1.01-.35,2.07-.52,3.19-.06,.34-.1,.68-.15,1.02-.07,.54-.15,1.08-.22,1.64-.09,.66-.17,1.33-.25,2-.12,1.02-.23,2.06-.33,3.13-.07,.71-.13,1.43-.19,2.16-.09,1.09-.16,2.2-.23,3.32h0c-.03,.53-.06,1.06-.08,1.59-.02,.53-.05,1.07-.07,1.6,0,.35-.02,.71-.03,1.07,0,.22-.01,.45-.01,.68-.02,.8-.03,1.59-.03,2.39,0,.32,0,.65,0,1,0,.25,0,.52,0,.79,0,.17,0,.34,0,.52,0,.09,0,.18,0,.27,0,.48,.01,.98,.02,1.51,0,.07,0,.14,0,.21,0,.09,0,.18,0,.27,0,.2,0,.4,0,.6,0,.08,0,.16,0,.24,0,.08,0,.17,0,.26,0,.05,0,.1,0,.15v.11s0,.09,0,.14c0,.2,0,.4,.01,.61,0,.5,.02,1.01,.04,1.54,0,.14,0,.29,0,.44,0,.22,0,.44,.02,.67,0,.17,0,.34,.01,.5v.07c0,.18,0,.37,.01,.55,0,.07,0,.14,0,.21,0,.14,0,.27,.01,.41,0,.17,0,.34,.01,.5h0c0,.1,0,.2,0,.3v.08c0,.11,0,.22,0,.33,0,.2,.01,.41,.02,.61,0,.31,.02,.63,.03,.95,0,.07,0,.15,0,.23,.03,.93,.06,1.88,.09,2.86,0,.16,.01,.33,.02,.5h0c0,.15,0,.3,.01,.45,.07,2.37,.16,4.85,.25,7.41,0,.2,.01,.39,.02,.59,0,.13,0,.26,.01,.4,.01,.35,.02,.71,.04,1.07,0,.17,.01,.34,.02,.52,0,.26,.02,.52,.03,.78v.06c0,.13,0,.26,.01,.39,0,.11,0,.21,0,.32,.01,.37,.03,.73,.04,1.1,.04,1.19,.09,2.39,.13,3.59,.02,.51,.04,1.01,.06,1.52,.02,.69,.05,1.38,.07,2.08,0,0-.17-.61-.49-1.54-.09-.25-.18-.52-.28-.81-.03-.07-.05-.14-.08-.21-.09-.25-.19-.51-.3-.78-.14-.35-.28-.71-.44-1.07-.04-.1-.08-.2-.13-.29-.11-.25-.23-.5-.34-.75h0s-2.92-27.42-2.92-27.42l-1.51,4.86s-4.39-14.27-4.39-27.04,7.18-31.91,7.18-31.91l-3.99,3.19s7.4-27.73,28.23-39.2c20.84-11.47,24.43-6.68,24.43-6.68,0,0,3.27-6.22,9.09-12.16,.14-.14,.28-.29,.43-.43,.18-.18,.37-.36,.55-.55,.38-.36,.76-.73,1.16-1.08,.2-.18,.4-.36,.6-.54,.14-.12,.27-.23,.41-.35,.14-.12,.27-.24,.41-.35,.37-.31,.75-.61,1.13-.91,.17-.13,.34-.27,.52-.4,.23-.17,.46-.34,.69-.5,.23-.17,.47-.33,.7-.49,.2-.14,.41-.27,.61-.41,.19-.13,.38-.24,.57-.37,.23-.14,.46-.28,.68-.41h0c.95-.56,1.93-1.08,2.94-1.53,.2-.1,.41-.19,.61-.27,0,0,0,0,0,.01,0,.01-.02,.03-.04,.06-.16,.23-.68,1-1.32,2.08h0c-.07,.12-.14,.24-.2,.36-.06,.1-.11,.19-.17,.29-.08,.15-.17,.31-.26,.47-.06,.1-.11,.21-.17,.31-.02,.03-.03,.07-.05,.09-.06,.11-.11,.21-.16,.32-.05,.09-.09,.18-.14,.27-.03,.05-.06,.1-.08,.16-.05,.11-.11,.22-.16,.34-.3,.61-.59,1.26-.84,1.92-.05,.14-.1,.27-.15,.4,0,.02-.02,.05-.02,.07-.05,.14-.1,.27-.15,.41-.17,.5-.32,1.01-.43,1.51-.04,.14-.07,.27-.09,.41,0,0,0,.02,0,.03-.03,.14-.06,.28-.07,.42v.08c-.04,.14-.06,.27-.07,.41h0c-.02,.16-.03,.31-.04,.46h0c0,.16-.01,.31-.01,.45,0,.98,.2,1.88,.68,2.63,0,0,.06-.14,.17-.39,.15-.35,.42-.91,.78-1.59,.04-.07,.07-.14,.11-.21,.2-.35,.41-.74,.65-1.14,.1-.16,.2-.32,.3-.48,.22-.36,.47-.73,.74-1.09,.1-.14,.2-.28,.31-.42,.13-.17,.26-.34,.4-.51,.14-.17,.27-.34,.41-.5,.14-.17,.29-.33,.44-.49,.15-.16,.3-.32,.46-.48,.28-.28,.58-.56,.89-.82,.15-.13,.31-.26,.48-.38,.16-.12,.32-.24,.49-.35,.3-.2,.61-.39,.92-.56,.08-.05,.16-.09,.24-.13,.1-.05,.2-.1,.3-.14,.22-.1,.44-.19,.67-.27,0,.04-.09,.26-.19,.62-.03,.11-.07,.22-.1,.35-.02,.08-.05,.18-.07,.27-.47,1.82-1.04,5.18,.36,6.97,0,0,.02-.08,.09-.22,.32-.68,1.75-2.69,7.33-2.31,.28,.01,.57,.04,.88,.07,.04,0,.08,0,.12,.01,.27,.03,.55,.06,.83,.1,.15,.02,.3,.04,.45,.07,.08,0,.16,.02,.24,.04,.37,.06,.76,.13,1.17,.21,.13,.02,.26,.05,.39,.08,.85,.18,1.77,.39,2.75,.66h0c.28,.08,.58,.16,.88,.25,0,0-.03,0-.05,0s-.05,0-.07,0c-.14-.01-.4-.02-.75,.02-.13,.01-.27,.04-.42,.07-.12,.02-.25,.05-.39,.08-.13,.03-.27,.07-.41,.12-.39,.12-.84,.28-1.34,.52-.23,.1-.46,.22-.71,.35-.44,.23-.92,.52-1.42,.85,0,0,.43-.08,1.18-.2,.32-.06,.7-.11,1.14-.18,4.77-.68,15.78-1.69,22.81,1.98,.02,0,.04,.02,.06,.03,.16,.08,.32,.16,.47,.25,3.43,1.86,5.69,3.83,7.16,5.52,.02,.02,.04,.04,.05,.06,2.1,2.44,2.58,4.3,2.63,4.5,0,0,0,.01,0,.01,0,0,4.35-.7,9.68,1.24h0c1.69,.61,3.48,1.49,5.25,2.74,7.4,5.2,9.79,17.57,9.79,17.57,0,0-.05-.05-.14-.13-.88-.82-5.67-5.28-7.84-7.45t0,0c-.2-.2-.27-.24-.24-.13h0c.18,.61,3.86,5.84,7.34,11.26,3.06,4.75,5.96,9.63,6.23,11.66,.08,.61,.26,1.33,.5,2.12,1.64,5.31,6.37,14.06,6.81,19.14,.5,5.83-.37,37.92-1.73,47.21Z"/>
    <path class="cls-19" d="M308.29,64.8c-5.41-4.71-11.95-5.41-11.95-5.41,0,0-3.54,2.17-8.27,2.66-2.67,.29-5.73,.04-8.74-1.44-.07-.04-.15-.07-.22-.11-8.06-4.02-4.16-6.08-6.99-2.61-.5,.61-1.52,1.47-2.87,2.46-.02,0-.03,.02-.05,.04,0,0,0,0,0,0-.03,.02-.06,.04-.08,.06-.02,.01-.05,.04-.08,.06h0c-2.09,1.53-4.88,3.34-7.62,5.03-5.73,3.54-11.24,6.56-9.6,5.28,1.55-1.21,3.13-2.86,4.28-4.17,.05-.06,.1-.12,.15-.18,.04-.04,.07-.08,.1-.12,.92-1.05,1.5-1.81,1.5-1.81-1.9,.57-4.05,1.05-6.4,1.44h0s-.02,0-.03,0c-.96,.16-1.96,.3-2.98,.42-2.38,.29-4.89,.49-7.5,.58h-.01s-.02,0-.02,0c-2.07,.07-4.2,.07-6.34,0-8.79-.28-28.37,28.6-28.67,29.04,2.18-9.85,13.83-25.1,13.83-25.1-.62-.13-1.39-.11-2.27,.03h0c-2.59,.39-6.16,1.79-9.85,3.54-8.01,3.8-16.59,9.23-16.98,9.47,4.98-6.13,13.45-9.41,13.45-9.41,0,0-2.51-.95-10-1.53h0c-1.08-.08-2.26-.16-3.55-.23h-.27c-10.49-.53-17.08,15.2-17.08,15.2-1.17,4.13-2.47,18.71-.95,33.39,.36,3.49,1.07,9.04,1.96,15.62,.32,2.32,.65,4.77,1,7.3,.24,1.75,.49,3.54,.75,5.35,.42,2.99,.85,6.04,1.28,9.11,0,0-1.08-2.7-2.61-5.22l-.28-1.31-1.69-7.93-1.41-6.61-2.36-11.11-1,4.99s-5.52-13.01-7.04-25.42h0c-.04-.35-.08-.68-.12-1.03-1.32-12.69,3.84-32.48,3.84-32.48l-3.64,3.59s4.5-28.35,24.04-41.91c19.54-13.56,23.61-9.17,23.61-9.17,0,0,6.04-15.06,17.9-22.23h0c.33-.2,.65-.39,.99-.58-.12,.21-4.09,7.34-3.44,11.99,.12,.88,.41,1.66,.91,2.3,0,0,2.25-7.89,7.33-10.63,.12-.07,.24-.13,.37-.19,0,0-1.02,4.25,.08,6.94,.18,.47,.44,.89,.77,1.23,0,0,.47-3.54,8.84-3.28h.02c1.69,.06,3.7,.26,6.09,.68-.12,0-.66,0-1.55,.3h0c-.35,.12-.75,.29-1.21,.53-.66,.34-1.43,.82-2.28,1.51-.09,.07-.18,.14-.27,.22,.06-.01,.57-.17,1.42-.4,4.77-.68,15.78-1.69,22.81,1.98,.02,0,.04,.02,.06,.03,.16,.08,.32,.16,.47,.25,3.43,1.86,5.69,3.83,7.16,5.52,.02,.02,.04,.04,.05,.06,2.1,2.44,2.58,4.3,2.63,4.5,0,0,0,.01,0,.01,0,0,4.35-.7,9.68,1.24h0c1.69,.61,3.48,1.49,5.25,2.74,7.4,5.2,9.79,17.57,9.79,17.57,0,0-.05-.05-.14-.13-.88-.82-5.67-5.28-7.84-7.45t0,0c-.2-.2-.27-.24-.24-.13h0c.18,.61,3.86,5.84,7.34,11.26,3.06,4.75,5.96,9.63,6.23,11.66,.08,.61,.26,1.33,.5,2.12Z"/>
    <path class="cls-7" d="M311.5,146.78v-.02"/>
    <path class="cls-7" d="M247.77,11.97s0,0-.02,0"/>
    <path class="cls-7" d="M227.83,.8h0"/>
    <line class="cls-7" x1="159.65" y1="145.75" x2="159.65" y2="145.74"/>
    <path class="cls-6" d="M311.01,113.5c0,1.27-.02,2.81-.05,4.57,0,.44-.01,.89-.02,1.36,0,.04,0,.09,0,.14,0,.04,0,.07,0,.11,0,.16,0,.33,0,.49,0,.32-.01,.64-.02,.98v.04c0,.13,0,.25,0,.38,0,.12,0,.24,0,.36,0,.48-.02,.96-.04,1.46,0,.33-.02,.66-.03,1,0,.46-.02,.92-.04,1.39,0,.2-.01,.41-.02,.61-.08,2.81-.18,5.86-.29,9.07v.03c-.09,2.76-.2,5.64-.3,8.57-.01,.42-.03,.84-.04,1.27-.14,3.77-.28,7.61-.42,11.4-.03,.76-.06,1.51-.08,2.27-.04,1.01-.07,2-.11,3-.01,.49-.03,.98-.05,1.46,0,.25-.02,.5-.03,.75-.03,.74-.05,1.46-.08,2.18-.04,1-.07,1.98-.11,2.95-.01,.44-.03,.87-.05,1.3-.05,1.39-.09,2.75-.14,4.06,0,.3-.02,.59-.03,.89v.35c-.01,.11-.02,.22-.02,.33-.01,.35-.02,.71-.03,1.06,0,.31-.02,.62-.03,.92,0,.29-.02,.59-.03,.88,0,.2-.01,.41-.02,.61-.02,.6-.04,1.18-.06,1.75,0,.19,0,.38-.01,.57,0,.34-.02,.68-.03,1.02,0,.45-.02,.89-.03,1.32,0,.29-.01,.57-.02,.85,0,.17,0,.34-.01,.5,0,.32-.01,.62-.02,.92-.02,1.05-.04,2.02-.06,2.89,0,.55-.01,1.06-.02,1.52,0,.35,0,.68,0,.98,0,.27,0,.55,0,.82,0,.36-.01,.72-.03,1.09,0,.36-.02,.72-.04,1.09,0,.06,0,.12,0,.17-.02,.38-.04,.77-.07,1.16-.02,.37-.05,.75-.08,1.12,0,.09-.01,.17-.02,.26-.03,.29-.05,.58-.08,.87-.05,.54-.1,1.08-.16,1.63-.05,.42-.09,.84-.15,1.27-.04,.34-.08,.69-.14,1.05-.03,.27-.07,.55-.11,.82-.07,.47-.14,.94-.21,1.41,0,.06-.01,.13-.03,.19-.07,.47-.14,.93-.22,1.4-.05,.27-.09,.55-.14,.82-.04,.25-.09,.5-.14,.76-.01,.07-.02,.15-.04,.22-.16,.87-.33,1.74-.5,2.62-.05,.26-.11,.51-.16,.77-.05,.24-.1,.48-.15,.72-.1,.49-.21,.99-.32,1.48,0,.02,0,.04-.01,.06-.08,.38-.17,.77-.26,1.16-.08,.36-.17,.73-.25,1.09-.1,.41-.2,.82-.3,1.24-.72,2.97-1.54,6-2.45,9.08-.13,.44-.26,.89-.4,1.33-.57,1.88-1.17,3.78-1.81,5.68-.31,.93-.62,1.85-.94,2.78-.38,1.09-.77,2.19-1.17,3.29-.37,1.02-.78,2.03-1.22,3.03-.14,.32-.28,.64-.43,.96-.18,.39-.36,.78-.55,1.16-.13,.27-.27,.54-.4,.8-.33,.65-.67,1.3-1.02,1.94-2.42,4.43-5.31,8.59-8.14,12.22-.14,.18-.28,.36-.42,.54-1.91,2.41-3.77,4.57-5.44,6.41-.14,.16-.29,.32-.43,.48-.14,.14-.27,.29-.41,.44h0c-1.68,1.81-3.1,3.24-4.07,4.19-.04,.04-.07,.07-.11,.1h0s-.08,.09-.13,.13c-.11,.11-.22,.21-.32,.31-.06,.06-.11,.1-.16,.15-.45,.43-.7,.66-.7,.66-4.65,8.06-11.49,13.19-18.11,16.44-3.54,1.74-7.03,2.95-10.08,3.78-1.41,.39-2.73,.69-3.92,.93-3.8,.77-6.29,.89-6.29,.89h-.2s-.31-.01-.89-.07h0c-.52-.05-1.26-.13-2.18-.27h-.07c-1.14-.18-2.55-.42-4.15-.77h-.05c-8.72-1.94-23.09-7.14-31.05-20.94,0,0-12.59-11.45-20.32-25.62-1.4-2.56-2.63-5.21-3.61-7.89-6.26-17.2-10.22-34.41-10.37-46.73,0-.25,0-.5,0-.75,0-6.5-.66-23.8-1.29-40.89-.57-15.43-1.1-30.69-1.1-37.7,0-14.76,2.79-29.12,4.39-33.12,0,0,8.18-14.96,18.55-13.36,10.37,1.6,13.56,3.19,13.56,3.19,0,0-8.77,2.39-14.35,7.97,.67-.33,24.02-11.93,30.31-9.96,0,0-13.16,13.96-16.35,23.53,.34-.41,22.8-27.12,31.51-25.93,8.78,1.2,17.31,1.12,23.41-.04,0,0-3.47,3.63-6.66,5.62-2.32,1.45,8.44-3.21,15.71-7.1l.11-.06c1.33-.72,2.55-1.4,3.54-2.02,.99-.62,1.76-1.17,2.19-1.6,.19-.19,.35-.35,.49-.51,1.36-1.49,.71-1.43,1.59-.15,.58,.85,1.84,2.25,4.8,4.1,.72,.45,1.44,.82,2.17,1.12,.09,.04,.18,.07,.27,.1,1.65,.66,3.31,.98,4.89,1.08,.71,.05,1.41,.05,2.08,.02h.01c2.95-.14,5.42-.91,6.7-1.39,.6-.23,.94-.39,.94-.39,0,0,.23,.05,.64,.16,1.04,.29,3.21,1.02,5.63,2.44,.88,.51,1.78,1.12,2.68,1.83,1.53,1.21,3.04,2.73,4.32,4.62v.02c.74,1.07,1.38,2.26,1.92,3.59,.39,.96,.71,1.99,.97,3.09,.04,.11,.09,.22,.13,.34,.98,2.7,2.36,8.98,3.27,16.73v.02c.36,3.03,.65,6.28,.82,9.64,0,.04,0,.08,0,.12h0c.1,2.06,.16,4.15,.16,6.26Z"/>
    <path class="cls-6" d="M311.01,304.79c-1.4,25.14,2.99,39.51-20.55,53.07-23.54,13.56-54.66,12.77-54.66,12.77,0,0-31.12,.8-54.66-12.77-23.54-13.56-19.15-27.93-20.55-53.07-1.27-22.85,13.74-34.88,16.49-36.88,.04-.03,.08-.06,.12-.08,.09-.07,.16-.11,.21-.14,.04-.03,.07-.05,.09-.06h.01c.07-11.16-.54-20.16-.54-20.16,7.73,14.17,20.32,25.62,20.32,25.62,7.97,13.81,22.33,19,31.05,20.93h.05c1.6,.36,3.01,.61,4.15,.77h.07c.91,.14,1.65,.22,2.18,.27h0c.57,.06,.89,.07,.89,.07h.2s2.49-.12,6.29-.89c1.19-.24,2.51-.55,3.92-.93,3.05-.83,6.54-2.04,10.08-3.78,6.62-3.26,13.45-8.38,18.11-16.44,0,0,.25-.23,.7-.66,.05-.05,.1-.09,.16-.15,.1-.09,.2-.2,.32-.31,.04-.04,.08-.08,.13-.12h0s.07-.07,.11-.11c.97-.95,2.39-2.38,4.07-4.19h0c.14-.15,.27-.3,.41-.44,.14-.15,.29-.31,.43-.48,1.67-1.84,3.53-4,5.44-6.41,.14-.18,.28-.36,.42-.54,2.84-3.63,5.72-7.79,8.14-12.22,0,0-.02,.27-.05,.78-.14,2.41-.55,10.16-.49,19.39,.05,.03,.19,.13,.41,.27,.03,.03,.07,.05,.11,.08,.05,.04,.1,.07,.16,.11,3.28,2.46,17.48,14.46,16.24,36.7Z"/>
    <path class="cls-7" d="M296.84,298.01c-2.08-8.52-2.69-20.32-2.75-30.39"/>
    <path class="cls-7" d="M177.52,267.61c-.06,10.07-.67,21.88-2.75,30.4"/>
    <line class="cls-7" x1="294.1" y1="267.61" x2="294.1" y2="267.61"/>
    <path class="cls-1" d="M470.61,427.21c1.69,8.77-3.41,17.42-11.9,20.17-18.71,6.05-38.37,11.35-58.82,15.84-50.26,11.03-105.34,17.11-163.08,17.11-82.05,0-158.72-12.28-223.85-33.59-8.45-2.76-13.53-11.41-11.83-20.14,4.84-24.73,18.03-67.87,53.16-94.28,51.04-38.38,122.05-64.28,123.22-64.7-.02,0-.05,.03-.09,.06-.05,.03-.12,.08-.21,.14-.04,.02-.07,.05-.12,.08-2.53,1.74-15.68,10.9-17.48,14.15-1.99,3.59-7.98,15.56-7.58,21.94,.4,6.38,0,6.78,.8,28.32,.74,20.05,20.49,32.15,23.22,33.73,.22,.12,.43,.25,.64,.39,2.66,1.69,21.83,13.02,59.1,13.95h.02c8.17-.2,15.47-.91,21.92-1.9h.03c1.68-.26,3.3-.54,4.86-.84,4.17-.78,7.93-1.68,11.29-2.62,12.7-3.56,19.62-7.71,21.05-8.62,.2-.13,.4-.25,.61-.37,.98-.57,4.05-2.43,7.65-5.48,1.15-.97,2.35-2.07,3.56-3.28h.01s0-.02,0-.02c2.35-2.36,4.71-5.16,6.71-8.38h0s0-.04,0-.04c1.34-2.16,2.51-4.5,3.41-7.02v-.02s.03-.07,.03-.07c.29-.82,.55-1.64,.77-2.5,.56-2.08,.92-4.27,1.02-6.57,0-.12,.01-.23,.02-.35,.8-21.54,.4-21.94,.8-28.32,.04-.59,.02-1.22-.05-1.89v-.02c-.1-1.05-.31-2.19-.61-3.38-.69-2.8-1.84-5.86-3.03-8.65v-.02s-.01,0-.01,0c-1.48-3.45-3.03-6.46-3.88-7.98-.27-.5-.82-1.14-1.56-1.87h0c-2.15-2.15-5.93-5.07-9.3-7.56h-.02c-2.72-2.02-5.19-3.74-6.34-4.54-.06-.04-.11-.07-.16-.11-.04-.03-.07-.05-.11-.08-.2-.14-.33-.24-.38-.27,.17,.06,1.38,.5,3.48,1.3,14.99,5.73,75.03,29.78,119.74,63.39,35.41,26.63,48.54,70.27,53.28,94.89Z"/>
    <path class="cls-20" d="M464.2,444.93c-22.79,8.02-38.68,12.67-64.24,18.27-.05,.01-.11,.01-.16,0-82.01-16.73-142.07-84.71-142.07-84.71h.03s4.85-.84,4.85-.84c0,0,.01,0,.02,0l11.28-2.62,4.57-1.06s.04,0,.05-.02l11.97-4.66s.04-.02,.06-.03l9.09-5.44s.04-.03,.06-.05l3.5-3.22,3.56-3.28h.01s0-.02,0-.02l6.71-8.38h0s0-.04,0-.04l3.41-7.02v-.02s.03-.07,.03-.07l.77-2.5,.88-2.84s.02-.07,.02-.1l.13-3.63,.23-6.38,.36-19.92,.18-4.26v-.02l.06-1.39s0-.1-.02-.14l-.65-1.85-3.03-8.65v-.02s-.01,0-.01,0l-5.43-9.85h0s-7.96-6.48-7.96-6.48l-1.34-1.08h-.02s-3.62-2.94-3.62-2.94c-.16-.13-.19-.37-.06-.53h0c.1-.13,.28-.18,.44-.12,15.41,5.91,75.02,29.87,119.47,63.29,44.97,33.82,52.3,85.58,53.86,100.5,0,.05-.19,1.47-.93,2.79-.55,.97-.7,2.05-1.4,3.26-.53,.93-.89,1.93-1.4,2.79-1.2,2.06-3.2,3.24-3.26,3.26Z"/>
    <path class="cls-7" d="M294.1,267.61h0"/>
    <polygon class="cls-15" points="233.67 249.98 227.05 249.31 221.76 247.99 214.47 244.68 209.84 239.38 205.21 234.09 201.9 228.79 201.07 225.75 204.31 228.84 209.5 232.65 214.85 235.58 220.79 237.18 227.5 239.38 234.07 240.05 238.7 240.05 245.91 239.01 253.31 237.13 258.24 234.69 261.6 232.95 266.32 230.09 269.25 227.16 269.53 228.11 269.01 229.6 268.09 232.1 265.44 236.08 262.8 238.72 258.82 243.36 255.51 245.34 252.87 247.33 248.9 248.65 243.6 249.31 237.64 249.98 233.67 249.98"/>
    <polygon class="cls-19" points="200.21 225.1 203.89 228.45 210.61 233.68 217.21 236.29 226.11 239.01 237.35 239.97 245.91 239.01 252.39 236.91 259.5 234.04 267.47 228.78 270.14 226.81 269.85 225.14 266.23 225.53 260.09 226.81 252.01 227.48 245.91 228.4 235.91 230.33 228.34 229.12 221.91 227.85 216.85 227.21 207.56 226.16 201.86 225.14 200.21 225.1"/>
    <polygon class="cls-13" points="206.45 230.61 205.06 225.91 208 225.99 211.89 226.61 215.92 226.92 216.87 228.78 218.31 229.6 218.85 227.27 221.53 227.48 224.12 228.31 224.6 229.85 225.25 231.14 226.51 228.4 232.58 229.8 236.25 229.83 245.15 228.57 245.91 230.47 246.18 230.99 248.14 228.11 251.56 227.27 252.66 228.03 252.99 229.48 253.93 229.06 256.56 226.49 263.44 226.24 266.59 225.75 270.62 225.14 268.67 227.36 266.78 229.02 263.76 231.43 262.65 230.47 261.81 232.52 260.19 233.59 259.14 232.07 258.24 234.69 255.96 235.58 253.27 234.07 252.21 237.18 247.85 238.08 245.91 236.6 244.84 239.01 239.16 239.65 235.17 239.65 226.11 239.01 225.43 236.58 223.6 237.72 219.39 237.13 218.35 235.45 218.35 234.07 215.9 235.4 213.01 234.52 212.35 231.97 210.94 233.47 209.34 232.39 208.79 230.45 207.12 231.1 206.45 230.61"/>
    <polygon class="cls-17" points="237.99 229.87 232.02 229.74 226.97 228.84 220.73 227.48 215.97 227.48 212.52 226.95 205.79 225.89 201.86 225.14 202.87 224.13 205.02 223.53 208.9 223.15 213.59 222.73 222.38 223.31 229.45 223.83 234.25 224.61 238.49 224.61 244.8 223.2 251.32 223.29 258.24 223.14 265.07 223.47 269.19 224.13 269.85 225.14 267.16 225.53 262.26 226.53 255.61 227.48 252.39 227.41 249.08 227.92 241.58 229.6 237.99 229.87"/>
    <path class="cls-5" d="M319.57,304c-.4,6.38,0,6.78-.8,28.32-.8,21.54-23.54,33.91-23.54,33.91,0,0-19.15,13.15-59.43,14.16h-.02c-40.28-1.01-59.43-14.16-59.43-14.16,0,0-22.74-12.37-23.54-33.91-.8-21.54-.4-21.94-.8-28.32-.4-6.39,5.59-18.35,7.58-21.94,1.8-3.25,14.95-12.4,17.48-14.15-2.74,2-17.75,14.03-16.49,36.88,1.4,25.14-2.99,39.51,20.55,53.07,23.54,13.56,54.66,12.77,54.66,12.77,0,0,31.12,.8,54.66-12.77,23.54-13.56,19.15-27.93,20.55-53.07,1.23-22.24-12.96-34.24-16.24-36.7,3.07,2.12,15.48,10.83,17.22,13.97,1.99,3.59,7.98,15.56,7.58,21.94Z"/>
    <path class="cls-7" d="M294.1,267.62s-.02-.01-.02-.01"/>
    <path d="M198.2,223.22c.92,.65,1.78,1.3,2.93,1.38,0,0,1.18,.13,1.18,.13,4.77,.37,9.48,1.6,14.27,1.68,6.46,.12,12.57,2.78,18.96,2.72,.46-.05,.89,.3,.89,.78,.01,.44-.33,.8-.77,.81-1.78,.07-3.34-.12-4.98-.32-4.77-.56-9.43-2.23-14.17-2.31-3.22-.06-6.49-.76-9.64-1.27-2.39-.47-4.98-.4-7.27-1.4-.78-.44-1.4-1-1.96-1.65-.14-.16-.12-.41,.04-.55,.15-.13,.37-.12,.51,0h0Z"/>
    <path class="cls-7" d="M235.7,224.9s-3.89-1.09-11.47-1.49c0,0-19.76-1.33-23.24,1.73"/>
    <path class="cls-8" d="M226.26,228.78s-.83,1.01-.83,2.21v5.31s-.1,1.57,1.34,2.72"/>
    <path class="cls-8" d="M225.43,232.07c0-1.71-2.23-3.96-2.23-3.96"/>
    <path class="cls-8" d="M222.81,238.08s2.23-.86,2.63-1.78"/>
    <path class="cls-8" d="M219.61,227.48s-1.16,.28-1.26,1.3,0,5.29,0,5.29c0,0-.18,2.02,1.26,3.06"/>
    <path class="cls-8" d="M215.39,227.21s2.57,1.95,2.92,3.26"/>
    <path class="cls-8" d="M215.39,235.58s2.66-.8,2.96-1.9"/>
    <path class="cls-8" d="M211.52,226.81s-.49,1.95,.13,3.66,.42,1.54,1.72,4.22"/>
    <path class="cls-8" d="M234.49,229.93c1.07,.14,1.12,1.7,1.12,1.7,0,0,.2,4.94,0,6.16s-1.12,1.85-1.12,1.85"/>
    <path class="cls-8" d="M210.02,232.95s-.94-1.97-1.49-3.01-.35-3.7-.35-3.7"/>
    <path class="cls-8" d="M210.94,233.47s1.03-.79,1.18-1.64"/>
    <path class="cls-8" d="M208.69,230.25s-.81,1.14-1.57,.85-1.63-3.3-1.63-3.3l-.47-2.05"/>
    <path class="cls-8" d="M245.08,228.78s.83,1.01,.83,2.21v5.31s.1,1.57-1.34,2.72"/>
    <path class="cls-8" d="M248.14,228.11s-2.22,2.25-2.23,3.96"/>
    <path class="cls-8" d="M248.54,238.08s-2.23-.86-2.63-1.78"/>
    <path class="cls-8" d="M251.74,227.48s1.16,.28,1.26,1.3,0,5.29,0,5.29c0,0,.18,2.02-1.26,3.06"/>
    <path class="cls-8" d="M255.96,227.21s-2.57,1.95-2.92,3.26"/>
    <path class="cls-8" d="M255.96,235.58s-2.66-.8-2.96-1.9"/>
    <path class="cls-8" d="M259.82,226.81s.49,1.95-.13,3.66-.42,1.54-1.72,4.22"/>
    <path class="cls-8" d="M236.86,239.65s-.92-.63-1.12-1.85,0-6.16,0-6.16c0,0,.04-1.56,1.12-1.7"/>
    <path class="cls-8" d="M263.17,226.24s.19,2.66-.35,3.7-1.49,3.01-1.49,3.01"/>
    <path class="cls-8" d="M260.4,233.47s-1.03-.79-1.18-1.64"/>
    <path class="cls-8" d="M266.32,225.75l-.47,2.05s-.86,3.01-1.63,3.3-1.57-.85-1.57-.85"/>
    <path class="cls-16" d="M310.94,119.19v.48s-.04,1.47-.04,1.47v.04c0,.13,0,.25,0,.38,0,.12,0,.24,0,.36l-.21,9.78-.2,3.76v.03l-.56,10.91-.87,28.97-.02,.58v.33c-.02,.35-.03,.71-.04,1.06l-.08,11.74-.28,9.16c0,.07,0,.14-.02,.21l-1.07,6.4c0,.06-.01,.13-.03,.19l-.5,2.98c-.01,.07-.02,.15-.04,.22l-.6,3.1-.06,.29c-.05,.24-.1,.48-.15,.72-.1,.49-.21,.99-.32,1.48,0,.02,0,.04-.01,.06-.08,.38-.17,.77-.26,1.16-.08,.36-.17,.73-.25,1.09-.1,.41-.2,.82-.3,1.24-.72,2.97-1.54,6-2.45,9.08-.13,.44-.26,.89-.4,1.33-.57,1.88-1.17,3.78-1.81,5.68-.31,.93-.62,1.85-.94,2.78-.38,1.09-.77,2.19-1.17,3.29-.37,1.02-.78,2.03-1.22,3.03-.14,.32-.28,.64-.43,.96-.18,.39-.36,.78-.55,1.16-.13,.27-.27,.54-.4,.8-.33,.65-.67,1.3-1.02,1.94,0,0-.02,.27-.05,.78l-.14,.27c-.02,.05-.05,.1-.08,.14l-4.12,6.41s-.03,.05-.05,.07l-3.67,5.04s-.05,.06-.07,.09l-4.99,5.9c-.07,.08-.14,.15-.21,.21l-1.46,1.16h0s-2.86,2.3-2.86,2.3c-.14,.11-.27,.25-.36,.41l-.95,1.59h0s-.3,.5-.3,.5l-1.34,2.23c-.04,.07-.08,.13-.13,.19l-4.08,4.98s-.07,.08-.1,.12l-4.49,4.49c-.08,.08-.16,.14-.26,.2l-6.24,4.02c-.09,.06-.19,.11-.29,.14l-2.18,.82-10.08,3.78-2.23,.83c-.17,.07-.35,.1-.54,.1h-4.23c-.1,0-.2,0-.3,.03l-4.01,.8h-.07c-.19,.05-.39,.06-.58,.02l-1.54-.28h-.07s-4.15-.77-4.15-.77h-.05c8.61-14.41,1.12-24.75,.15-25.99-.07-.09-.13-.18-.18-.28-3.23-6.5-1.37-12.35-.4-14.6,.26-.6,1.11-3.21,1.76-3.17l3.31,.66s1.94-.66,1.99-.66h6.62c.08,0,1.24,.01,1.32,0l6.62-1.99c.11-.02,1.22,.05,1.32,0l2.65-1.32c.1-.04,1.24-.61,1.32-.66l3.31-1.99c.11-.08,1.24-1.22,1.32-1.32l3.31-3.31c.05-.06,.62-.6,.66-.66l2.65-3.31c.24-.09-.02-1.29,0-1.32l1.99-3.31c.07-.14,.63-1.17,.66-1.32l1.39-2.97c.1-.56-.13-1.14-.58-1.49l-.85-.65c-.19-.15-.41-.25-.64-.29l-2.89-.57c-.07-.01-.15-.02-.22-.03l-4.23-.2s-.08,0-.12,0l-1.96-.25c-.99-.13-1.59-1.15-1.24-2.08,2.24-6-1.18-12.1-1.18-12.1-3.9,5.27-10.97,8.33-13.63,9.34-.63,.24-4.35,.85-4.32,1.52v.03c0,.69-.51,2.55-1.4,2.55h-2.79c-.43,0-.77-.41-1.02-.92-.24-.51-.38-1.13-.38-1.56,0-.71-2.82-1.33-3.52-1.5-9.2-2.19-14.51-9.58-14.83-10.04,0,0,0-.01,0-.02h0c-2.02-3.77,.89-4.3,2.15-4.36,.33-.01,.65,.07,.92,.26l1.53,1.01,4.84,3.24c.1,.07,.2,.15,.28,.25l3.44,3.81c.07,.07,.14,.14,.22,.2l2.49,1.85c.13,.1,.27,.17,.42,.22l2.34,.82c.14,.05,.28,.07,.43,.08l4.47,.22c.26,.01,.52-.04,.75-.15l4.02-1.94c.16-.08,.31-.18,.43-.31l1.68-1.72s.07-.07,.12-.11l2.16-1.8c.08-.07,.17-.12,.26-.17l3.29-1.77c.5-.27,.81-.79,.81-1.36v-1.01c0-.43-.17-.86-.49-1.15-10.15-9.18-9.34-38.47-9.42-41.16-.08-2.73-2.71-5.18-8.41-4.61-4.1,.41-6.16,2.1-7,3.01h0c-.26,.28-.4,.49-.44,.57l-.02,.03c-10.44,13.46-21.26,13.51-22.03,13.5h-.1c-53.42,2.59-25.83-28.83-22.08-32.85,.26-.27,.6-.45,.96-.48l15.04-1.64c.08,0,.16,0,.24,0,2.66,.13,49.47,2.04,63.1-25.8,14.03-28.64,0-50.58,0-50.58l.11-.06,2.48-1.23c.1-.05,.19-.11,.28-.18l.77-.61,2.49-1.98c.06-.05,.12-.09,.19-.13,.13-.07,.27-.13,.41-.17l.24-.06c.32-.07,.65-.05,.94,.07,.21,.08,.41,.22,.56,.39l1.7,1.88c.1,.11,.21,.2,.34,.28l4.26,2.61s.07,.05,.11,.07c.08,.04,.17,.08,.27,.1,.03,.01,.07,.02,.1,.03l4.79,1.05,.5,.11c.16,.04,.33,.05,.5,.03l1.08-.12h.01l2.29-.25c.1,0,.19-.03,.28-.06l2.98-.9c.07-.02,.15-.04,.22-.05l.92-.14,1.47-.22s.08,0,.12,0c.24-.02,.48,.02,.71,.12l3.82,1.61c.1,.04,.19,.09,.27,.15l.82,.56,2.68,1.83,.62,.42c.07,.05,.14,.11,.21,.17l2.66,2.61c.11,.11,.21,.24,.28,.38l.55,1.03v.02s1.92,3.59,1.92,3.59l.38,.72c.06,.11,.11,.23,.14,.35l.59,2.37,1.85,7.45s.02,.09,.03,.14l1.4,9.14v.02s0,.06,0,.09l.81,9.55s0,.08,0,.12l.09,11.95Z"/>
    <path class="cls-14" d="M245.91,223.5s2.12,2.52,.27,5.07l4.26-.81,4.66-.36,5.57-.65,5.92-1.01,3.26-1.14-2.92-.87-5.61-.51-8.29-.1-7.13,.38Z"/>
    <path d="M235.8,229.14c6.47,.22,12.66-2.58,19.17-2.69,4.82-.2,9.6-1.4,14.41-1.8,.73-.09,1.41-.11,2.06-.52,.63-.35,1.23-.83,1.68-1.44,.1-.14,.3-.16,.43-.06,.11,.08,.15,.22,.11,.34-.28,.85-.85,1.58-1.55,2.15-2.04,1.47-4.99,1.15-7.34,1.68,0,0-4.8,.8-4.8,.8-1.63,.25-3.31,.4-4.94,.44-3.21,.03-6.28,.7-9.49,1.41-3.3,.64-6.43,1.26-9.87,1.27-.44,0-.79-.37-.79-.81,0-.48,.44-.84,.91-.78h0Z"/>
    <path class="cls-17" d="M245.91,239.01s6.55,.08,5.63,8.31l7.28-3.97,2.65-2.65,3.31-4.63,1.99-3.31,2.76-4.66,.62-1.62-2.64,1.91-3.01,2.7-4.69,2.78-5.31,2.38-5.69,1.82-2.9,.94Z"/>
    <path class="cls-7" d="M235.61,239.65h-3.82c-.95,0-1.9-.08-2.84-.23-5.02-.84-20.72-4.19-27.95-14.28,0,0,1.62,5.73,6.86,12.26,4.77,5.94,12.36,12.75,27.8,12.58"/>
    <path class="cls-7" d="M235.64,224.9s3.89-1.09,11.47-1.49c0,0,19.76-1.33,23.24,1.73"/>
    <path class="cls-7" d="M235.74,239.65h3.82c.95,0,1.9-.08,2.84-.23,5.02-.84,20.72-4.19,27.95-14.28,0,0-1.65,6.4-6.89,12.92-4.77,5.95-12.35,12.09-27.8,11.91"/>
    <polygon class="cls-13" points="213.8 159.58 210.33 156.58 206.24 154.73 203.49 153.75 198.83 152.91 194.39 153.06 189.52 153.75 186.45 154.75 182.26 156.53 181.15 157.11 183.16 158.98 184.78 159.88 187.36 160.59 193.79 161.94 197.23 161.94 202.31 161.12 205.9 160.08 208.23 160.08 211.96 160.54 213.69 160.64 213.8 159.58"/>
    <polygon class="cls-13" points="258.01 159.81 261.48 156.82 265.57 154.96 268.32 153.99 272.98 153.15 277.42 153.3 282.3 153.99 285.36 154.98 289.55 156.77 290.66 157.34 288.65 159.21 287.03 160.11 284.46 160.82 278.02 162.17 274.58 162.17 269.5 161.35 265.91 160.31 263.58 160.31 259.85 160.78 258.12 160.87 258.01 159.81"/>
    <path class="cls-16" d="M205.02,282.57s-8.1,15.96,0,29.77c8.1,13.81,23.57,29.05,43.79,32.85s13.46,22.79,13.46,22.79l22.43-7.13,10.63-6.17,8.33-6.8,4.33-8.65,1.7-6.65,.95-12.15,.38-11.72,.08-7.14-.3-5.1-.9-4.82-1.67-5.37-3.12-6.38-3.46-5.93-4.44-4.52-2.42-1.37-.67-3.95,.2-8.19,.33-6.87-.97,.09-1.01,1.69-1.62,2.5-2.36,3.42-4.09,5.27-1.83,2.47-3.02,3.87-3.1,2.73-2.65,2.52-3.13,4.92-5.1,5.1-3.13,2.19-8.09,4.47-4.61,1.83-10.37,2.57-5.38,.37-4-.69-6.48-1.66-6.83-2.52-9.48-5.67-2.36-1.97"/>
    <path class="cls-18" d="M262.26,367.97s-.93,4.64-4.54,10.52,0,0,0,0l9.74-1.64,7.9-1.86,11.92-4.36,11.46-6.33,7.62-6.04,5.27-6.63,3.72-6.09,2.59-5.78,.79-5.74,.4-11.28,.45-12.96-.02-5.79-.53-4.8-1.48-5.74-2.57-6.13-2.08-4.16-3.07-4.16-5.71-4.13-4.57-3.41,3.72,5.58,3.18,5.28,2.79,6.96,1.54,7.18,.23,8.32-.38,11.88v8.15l-.95,7.75-1.09,4.77-2.12,5.09-1.68,3.27-5.49,5.95-3.97,3.01-7.06,4.4-8.95,4.04-12.15,3.77-4.9,1.09"/>
    <g class="cls-21">
      <path class="cls-13" d="M244.6,246.22c.19,.6-3.96,2.29-9.36,2.27-5.4,.01-9.54-1.67-9.36-2.27,.17-.64,4.32-.03,9.36-.06,5.04,.02,9.18-.58,9.36,.06Z"/>
    </g>
    <g class="cls-22">
      <path class="cls-12" d="M291.64,174.55c.81,2.13-5.8,6.46-15.3,7.07-9.49,.65-16.94-2.81-16.45-5.05,.45-2.3,7.61-2.73,15.82-3.32,8.22-.49,15.13-.91,15.93,1.29Z"/>
    </g>
    <path class="cls-19" d="M313.37,131.14c-.17,1.16-.33,2.28-.47,3.34-.04,.27-.07,.53-.11,.79-.07,.52-.14,1.02-.2,1.51-.03,.25-.06,.49-.09,.73-.09,.71-.17,1.39-.25,2.04l-.46,4.4-.07,.65-.18,1.73c0,.07-.01,.14-.02,.2,0,.04,0,.07,0,.1,0,.07-.01,.12-.01,.14,0,0,0,.02-.01,.03l-.84,1.61h0s-.69,1.33-.69,1.33l-.06-3.32,.46-7.76c0-.28,.02-.55,.03-.82,0-.2,.01-.4,.02-.59,0-.07,0-.15,0-.22,0-.16,0-.32,.01-.48l.02-.64v-.11s0-.03,0-.03l.26-7.89v-.2s0-.03,0-.03l-.22-8.79,.34-6.32,.06-1.1v-.06l.03-.52,.05-.92-.1-1.6v-.05l-.02-.25-.14-2.39-.07-1.16v-.09s-.21-3.35-.21-3.35c0-.02,0-.04,0-.07l-.08-1.38-.21-1.46v-.1s-.02-.03-.02-.05c0-.02,0-.04,0-.05l-.02-.15h0s0-.03,0-.03l-.23-1.63-.11-.78v-.06s-.04-.19-.04-.19l-.2-1.39-.1-.71-.38-2.6-.1-.68-.07-.27-.05-.2h0s-.12-.5-.12-.5l-1.27-5.03-.95-3.77-.48-1.88-.52-.84-.36-.59-1.67-2.73-.87-1.42-.78-1.28s-.02-.03-.04-.04l-.65-.51-2.15-1.67-.97-.76-.86-.67-.71-.55h0s-.02-.02-.03-.02l-.42-.33-.48-.15s-.01,0-.02,0l-1.21-.39-3.26-1.05-.56-.18h0l-.3-.09-1.02,.29h-.01s-.27,.08-.27,.08l-2.86,.82-.48,.14s0,0-.01,0c0,0-.02,0-.03,0h-1.1s-3.01,.05-3.01,.05h-1.15s-.3,.02-.3,.02h-.75s-.92-.36-.92-.36h0s-.05-.03-.05-.03l-4.64-1.88h0l-.17-.07-.68-.27s0,0-.01,0l-.38-.15-.33-.34s0,0-.01,0l-.28-.29h0s-2.36-2.42-2.36-2.42l-1.05-1.08s0,0,0-.01l-1.12,.84h0s0,0,0,0l-.05,.04s0,0,0,0l-.69,.52h-.01s-2.34,1.76-2.34,1.76l-.26,.19-7.45,3.85-2.66,1.38s-.09,.04-.13,.07l-.06,.03-.05,.02c-.26,.12-.51,.24-.76,.35l-.33,.16-5.02,2.39,.04-.16h0s.31-1.2,.31-1.2h0s.82-.76,.82-.76l2.52-2.32,.48-.44,.19-.17,.04-.04,3.15-8.72,32.68-8.84,1.2-.33,12.88,3.12c3.06,4.75,5.96,9.63,6.23,11.66,.08,.61,.26,1.33,.5,2.12,1.64,5.31,6.37,14.06,6.81,19.14,.5,5.83-.37,37.92-1.73,47.21Z"/>
    <path class="cls-11" d="M313.37,131.14c-.17,1.16-.33,2.28-.47,3.34-.04,.27-.07,.53-.11,.79-.07,.52-.14,1.02-.2,1.51-.03,.25-.06,.49-.09,.73-.09,.71-.17,1.39-.25,2.04l-.46,4.4-.03,.07-1.11,4.39-.58-1.55h0s-.16-.44-.16-.44l.46-7.76c.02-.55,.04-1.1,.06-1.64,0-.16,0-.32,.01-.48l.02-.64v-.14s.26-8.09,.26-8.09v-.03l.12-3.75c0-.17,0-.33,.01-.49l.08-5.9v-.07l.08-5.32-.09-1.27-.04-.5h0s-1.05-14.23-1.05-14.23v-.09s0-.02,0-.02l-.05-.7-.39-2.32-.2-1.19v-.05s-.52-3.01-.52-3.01l-.2-1.23h0s-.19-1.11-.19-1.11l-.36-1.11v-.02s-.51-1.57-.51-1.57l-2.31-7.09-.37-1.14h0s-.17-.54-.17-.54l-.32-.4h0s-1.66-2.07-1.66-2.07l-1.47-1.83-.51-.63-2.62-1.8-2.52-1.73s-.01,0-.02-.01l-4.45-1.68h0l-.43-.17s-.04,0-.04,0c0,0,0,0,0,0l-1.45,.46h0l-.22,.07-2.38,.76s-.03,0-.05,0h0l-.43,.04h-.15s0,.01,0,.01l-1.46,.14-2.93,.28-1.23-.23-2.03-.39-.37-.07h-.07s-1.49-.29-1.49-.29h-.03s-.02-.01-.02-.01h0s-.12-.07-.12-.07h0s-2.11-1.17-2.11-1.17l-.61-.34-1.4-.77s-.01,0-.02-.02t0,0l-.29-.29h0s-1.08-1.07-1.08-1.07l-1.17-1.16h0s-.13-.13-.13-.13l-.21-.21-.4-.4-.2-.2s0,0,0,0l-.42,.28-2.49,1.64s0,0-.02,0c-.09,.07-.19,.13-.29,.2l-.64,.42-.15,.1s-.01,0-.02,.01c0,0,0,0,0,0l-.37,.19-7.6,3.92-4.36,2.25c-.07,.04-.14,.07-.21,.1-.02,0-.04,.02-.06,.03,0,0,0,0-.01,0l-.06,.02-4.36,1.94-.16,.07s-.08,.04-.13,.05l-1.32,.13s.01-.01,.02-.02c0,0,0,0,0,0l2.72-2.18,.85-.68,1.64-1.54s.07-.07,.1-.1h-2.57s-1.34-.02-1.34-.02h-2.85s-1.43,.25-1.43,.25h0l-1.86,.34h-.01s-.02,0-.02,0l-4.25-.41s-.02,0-.03,0l-2.07-.2-6.99-1.11-2.34,.97s-.03,0-.05,.02c-.02,0-.05,.01-.07,.02l-1.21,.5s-.02,0-.04,.01c0,0-.02,0-.03,.02,0,0-.01,0-.02,0-.02,0-.05,.02-.08,.04l-.47,.23s-.09,.05-.14,.07h0l-10.05,1.03-3.43-.11s-.06,0-.08,0c-.02,0-.04,0-.07,0l-1.21,.2s3.32-8.12-10.13-9.31c-12.76-1.13-23.07,5.53-24.08,6.2,1.56-1.18,24.08-17.92,38.06-17.32,0,0-12.99-2.18-16.72-1.25s29.35-21.89,47.51-18.17c0,0-6.06-6.06-11.65-6.99s20.02-5.59,27.94,2.79c-.15-.24-5.16-7.92-7.91-8.38-.13-.02-.21-.04-.26-.05,.78,.07,15.81,2.59,17.49,8.9,0,0,1.86-2.33,1.4-5.12-.42-2.53-2.24-3.82-2.57-4.04,.16,.08,.32,.16,.47,.25l4.65,2.47,2.51,3.05s.04,.04,.05,.06l2.63,4.5s0,.01,0,.01c0,0,4.35-.7,9.68,1.24h0c1.69,.61,3.48,1.49,5.25,2.74,7.4,5.2,9.79,17.57,9.79,17.57,0,0-.05-.05-.14-.13-.88-.82-5.67-5.28-7.84-7.45t0,0c-.2-.2-.27-.24-.24-.13h0c.18,.61,3.86,5.84,7.34,11.26,3.06,4.75,5.96,9.63,6.23,11.66,.08,.61,.26,1.33,.5,2.12,1.64,5.31,6.37,14.06,6.81,19.14,.5,5.83-.37,37.92-1.73,47.21Z"/>
    <path class="cls-10" d="M243.32,61.63c.05,.83,.08,1.32,.08,1.32,0,0-.16-.32-.08-1.32Z"/>
  </g>
  <g id="Outline">
    <path class="cls-7" d="M235.7,295.13s-26.43-1.31-38.4-22.05c0,0-17.55-15.96-23.94-33.51s-10.37-35.11-10.37-47.47c0-12.37-2.39-63.83-2.39-78.59s2.79-29.12,4.39-33.11"/>
    <path class="cls-7" d="M162.94,187.48h0"/>
    <path class="cls-7" d="M163.01,192.83c-.5,2.07-1.91,3.79-5.39,3.06-7.58-1.6-5.59-9.18-5.59-12.37s-.8-3.19-.8-5.59,1.2-5.98,1.2-11.17-2.39-15.96-2.39-18.35,1.2-5.19,1.67-5.98,3.52-2.79,5.91,0c2.39,2.79,4.1,8.78,4.1,8.78"/>
    <path d="M161.32,161.35c-2.06-4.85-5.03-9.25-9.05-12.7-.23-.2,0-.6,.29-.49,4.01,1.44,6.6,5.25,8.59,8.83,.66,1.23,1.21,2.48,1.67,3.83,.14,.42-.08,.87-.5,1.01-.41,.14-.85-.08-1-.47h0Z"/>
    <path d="M159.03,154.11c-.92,3.18-2.07,6.23-3.58,9.16-.06,.12-.22,.17-.34,.11-.12-.06-.17-.2-.12-.32,.58-1.5,1.06-3.04,1.47-4.6,.41-1.55,.76-3.15,1.02-4.7,.07-.44,.48-.73,.92-.66,.47,.07,.77,.55,.64,1.01h0Z"/>
    <path d="M162.66,180.47c-2.71-.48-5.5-1.98-6.45-4.69-.34-.85-.37-1.77-.37-2.65,0-.1,.08-.17,.17-.17,.09,0,.16,.07,.17,.15,.1,.84,.23,1.69,.63,2.41,1.07,2.21,3.69,3.23,6,3.35,1.11,.07,.95,1.74-.16,1.59h0Z"/>
    <path class="cls-9" d="M203.49,156.81c0,1.7-.76,3.22-1.97,4.31-2.08,.51-4.68,.92-7.92,.66-1.73-1.07-2.86-2.89-2.86-4.97,0-1.21,.39-2.33,1.05-3.27h0c3.24-.56,6.95-.74,10.7,.05,.64,.93,1.01,2.03,1.01,3.22Z"/>
    <path d="M193.53,162.58c-3.78-.45-7.37-1.68-10.72-3.27-.18-.08-.25-.3-.17-.48,.08-.17,.28-.25,.45-.18,3.41,1.3,6.99,2.21,10.56,2.34,1.09,.06,.97,1.7-.12,1.59h0Z"/>
    <path class="cls-7" d="M202.48,153.6c3.25,.68,6.54,2.09,9.59,4.58,0,0,4.39,3.59-.8,1.99,0,0-1.2-.4-4.39-.4-1.21,0-2.93,.75-5.37,1.34"/>
    <path d="M191.91,154.33c-3.57,.45-7.14,1.39-10.44,2.86-.12,.06-.27,0-.32-.11-.05-.11,0-.24,.1-.3,3.24-1.86,6.75-3.17,10.4-4.02,.43-.1,.86,.17,.96,.6,.11,.46-.22,.92-.68,.97h0Z"/>
    <g>
      <path class="cls-13" d="M183.73,155.89c-.91-.35-1.97-1.01-2.94-2.27"/>
      <path d="M183.69,155.99c-1.45,.25-2.57-1.06-3.05-2.26-.07-.17,.14-.33,.29-.23,1.07,.81,2,1.18,2.83,2.28,.05,.07,.01,.18-.08,.2h0Z"/>
    </g>
    <path d="M185.53,155.26c-.97,.2-1.53-.75-1.69-1.53-.02-.12,.06-.22,.18-.24,.43,.08,.79,.38,1.07,.6,.26,.24,.53,.42,.57,1,0,.08-.05,.16-.12,.18h0Z"/>
    <path d="M187.27,154.66c-.56,0-.73-.33-.87-.63-.14-.31-.2-.66-.12-1.04,.03-.12,.14-.2,.26-.17,.35,.17,.59,.47,.76,.73,.15,.26,.32,.48,.14,.99-.02,.08-.1,.13-.18,.13h0Z"/>
    <path d="M190.79,157.02c-.08,.44-.09,.41-.1,.4-.01-.03-.01-.12,0-.33,.06-.58,.26-1.14,.09-.06h0Z"/>
    <circle class="cls-13" cx="200.1" cy="156.98" r="1.8"/>
    <path class="cls-4" d="M217.9,146.68l.83-6.58c.01-.09,0-.19-.06-.27-1.15-1.72-5.64-3.29-8.19-4.07-.42-.13-.71,.4-.39,.69,.61,.57,1.26,1.24,1.58,1.81,.71,1.25-5.85-3.61-14.78-3.83-5.27-.13-8.27-.11-9.84-.06-.42,.01-.55,.57-.18,.77l.2,.1c.38,.2,.24,.77-.19,.77-4.58,0-17.17,.37-21.36,4.63,0,0-2.55,2.22-1.81,3.07,.6,.69,9.57,.66,13.02,.62,.4,0,.56,.51,.23,.74h0c-.32,.22-.18,.73,.21,.74,5.18,.21,25.37,1.02,30.1,.79,4.54-.22,8.87,.27,10.18,.44,.22,.03,.43-.13,.45-.35Z"/>
    <path d="M180.25,165.48c7.04,1.53,14.15,3.17,21.4,2.78,.34-.03,.43,.5,.09,.58-7.23,1.72-14.97,.07-21.69-2.8-.32-.14-.14-.65,.2-.55h0Z"/>
    <path d="M217.81,205.47c-.67-.41-1.41-.81-2.12-1.13-.26-.12-.38-.42-.27-.69,.1-.23,.34-.35,.57-.3,.86,.17,1.66,.39,2.48,.67,1.1,.41,.35,2.03-.67,1.45h0Z"/>
    <path class="cls-7" d="M226.26,210.91c.2,.24,.39,.48,.57,.73,3.39,4.59,8.98,4.19,8.98,4.19"/>
    <path d="M215.71,209.39c-7.64-2.95-11.53-10.57-4.96-16.97,.35-.35,.93,.14,.64,.54-5.03,6.67-1.88,12.01,4.64,15.76,.39,.21,.09,.84-.32,.67h0Z"/>
    <path class="cls-9" d="M226.26,210.91c-6.35,.66-8.11-6.16-8.11-6.16,2.16,.99,5.46,2.9,8.11,6.16Z"/>
    <line class="cls-7" x1="226.26" y1="210.91" x2="226.26" y2="210.91"/>
    <path d="M225.77,159.55c1.39,9.9,.38,20.8-5.14,29.37-.28,.44-1,.04-.76-.43,3.98-9.08,4.98-19.06,5.23-28.88-.02-.4,.61-.47,.67-.06h0Z"/>
    <path class="cls-7" d="M306.62,80.38c.04,.11,.09,.22,.13,.34,.98,2.7,2.36,8.98,3.27,16.73v.02c.36,3.03,.65,6.28,.82,9.64,.11,2.1,.17,4.23,.17,6.38,0,1.27-.02,2.81-.05,4.57,0,.37-.01,.74-.02,1.12v.24s0,.09,0,.14c0,.2,0,.4-.01,.61,0,.32-.01,.64-.02,.98v.04c0,.13,0,.25,0,.38,0,.12,0,.24,0,.36,0,.48-.02,.96-.04,1.46,0,.33-.02,.67-.03,1,0,.46-.02,.92-.04,1.39,0,.2-.01,.41-.02,.61-.08,2.81-.18,5.86-.29,9.07v.03c-.09,2.76-.2,5.64-.3,8.57-.01,.42-.03,.84-.04,1.27-.14,3.77-.28,7.61-.42,11.4-.03,.76-.06,1.51-.08,2.27-.04,1.01-.07,2-.11,3-.02,.49-.03,.97-.05,1.46l-.03,.75c-.03,.74-.06,1.46-.08,2.18-.04,1-.07,1.98-.11,2.95-.01,.44-.03,.88-.05,1.3-.05,1.39-.09,2.75-.14,4.06,0,.22-.01,.44-.02,.66,0,.07,0,.15,0,.23v.35c-.01,.11-.02,.22-.02,.33-.01,.35-.02,.71-.03,1.06-.01,.31-.02,.61-.03,.92,0,.29-.02,.59-.03,.88,0,.2-.01,.41-.02,.61-.02,.6-.04,1.18-.06,1.75,0,.19,0,.38-.01,.57,0,.34-.02,.68-.03,1.02,0,.45-.02,.89-.03,1.32,0,.29-.02,.57-.02,.85,0,.17,0,.34-.01,.5,0,.32-.01,.62-.02,.92-.02,1.05-.04,2.02-.06,2.89,0,.55-.01,1.06-.02,1.52,0,.35,0,.68,0,.98,0,.27,0,.55,0,.82,0,.36-.01,.72-.03,1.09,0,.36-.02,.72-.04,1.09,0,.06,0,.12,0,.17-.01,.38-.04,.77-.07,1.16-.02,.37-.05,.75-.08,1.12,0,.09-.01,.17-.02,.26-.02,.29-.05,.58-.08,.87-.05,.54-.1,1.08-.16,1.63-.05,.42-.09,.84-.15,1.27-.04,.34-.09,.69-.14,1.05-.03,.27-.07,.55-.11,.82-.07,.47-.14,.94-.21,1.41,0,.06-.01,.13-.03,.19-.07,.47-.14,.93-.22,1.4-.05,.27-.09,.55-.14,.82-.04,.25-.09,.51-.14,.76-.01,.07-.02,.15-.04,.22-.16,.87-.33,1.74-.5,2.62-.04,.16-.07,.32-.1,.48-.07,.34-.14,.68-.21,1.02-.1,.49-.21,.99-.32,1.48,0,.02,0,.04-.01,.06-.08,.38-.17,.77-.26,1.16-.08,.36-.17,.73-.25,1.09-.1,.41-.2,.82-.3,1.24-.72,2.97-1.54,6-2.45,9.08-.13,.44-.26,.89-.4,1.33-.57,1.88-1.17,3.78-1.81,5.68-.31,.93-.62,1.85-.94,2.78-.38,1.09-.77,2.19-1.17,3.29-.37,1.02-.78,2.03-1.22,3.03-.14,.32-.28,.64-.43,.96-.18,.39-.36,.78-.55,1.16-.13,.27-.27,.54-.4,.8-.33,.65-.67,1.3-1.02,1.94-2.42,4.43-5.31,8.59-8.14,12.22-.14,.18-.28,.36-.42,.54-1.91,2.41-3.77,4.57-5.44,6.41l-.43,.48c-.14,.14-.27,.29-.41,.44h0c-1.68,1.81-3.1,3.24-4.07,4.19-.04,.04-.08,.07-.11,.11-.04,.04-.08,.08-.13,.12-.11,.11-.22,.21-.32,.31-.06,.05-.11,.1-.16,.15-.45,.43-.7,.66-.7,.66-4.65,8.06-11.49,13.19-18.11,16.44-3.54,1.74-7.03,2.95-10.08,3.78-1.41,.39-2.73,.69-3.92,.93-3.8,.77-6.29,.89-6.29,.89"/>
    <path class="cls-7" d="M308.68,187.48h0"/>
    <path class="cls-7" d="M309.9,151.2s1.7-5.98,4.1-8.78c2.39-2.79,5.44-.8,5.91,0s1.67,3.59,1.67,5.98-2.39,13.17-2.39,18.35,1.2,8.78,1.2,11.17-.8,2.39-.8,5.59c0,3.19,1.99,10.77-5.59,12.37-3.49,.73-4.89-.99-5.39-3.06"/>
    <path d="M308.79,160.81c1.91-5.03,5.01-10.61,10.26-12.65,.15-.05,.32,.03,.37,.18,.04,.11,0,.23-.08,.3-.99,.93-1.93,1.81-2.83,2.76-2.68,2.86-4.64,6.38-6.22,9.94-.37,.95-1.83,.43-1.5-.54h0Z"/>
    <path d="M314.15,153.78c.54,3.14,1.34,6.3,2.48,9.29,.05,.13-.01,.28-.14,.33-.12,.05-.26,0-.32-.12-.75-1.45-1.42-2.95-2-4.48-.59-1.53-1.12-3.07-1.57-4.68-.12-.42,.13-.87,.55-.99,.46-.13,.94,.18,1.01,.65h0Z"/>
    <path d="M308.83,178.88c3.22-.07,6.54-2.26,6.6-5.74,0-.22,.35-.22,.35,0,.37,3.94-3.16,6.81-6.81,7.33-.44,.07-.85-.22-.92-.66-.08-.48,.3-.93,.79-.93h0Z"/>
    <path class="cls-9" d="M268.13,156.81c0,1.7,.76,3.22,1.97,4.31,2.08,.51,4.68,.92,7.92,.66,1.73-1.07,2.86-2.89,2.86-4.97,0-1.21-.39-2.33-1.05-3.27h0c-3.24-.56-6.95-.74-10.7,.05-.64,.93-1.01,2.03-1.01,3.22Z"/>
    <path d="M288.81,159.31c-3.35,1.58-6.94,2.81-10.72,3.25-.43,.05-.81-.26-.86-.68-.05-.43,.25-.81,.68-.86,3.6-.14,7.19-1.05,10.62-2.36,.41-.17,.69,.47,.28,.65h0Z"/>
    <path class="cls-7" d="M270.1,161.12c-2.44-.6-4.16-1.34-5.37-1.34-3.19,0-4.39,.4-4.39,.4-5.19,1.6-.8-1.99-.8-1.99,3.05-2.5,6.34-3.9,9.59-4.58"/>
    <path d="M290.11,157.27c-3.27-1.5-6.84-2.48-10.39-2.96-.43-.05-.73-.45-.67-.87,.06-.45,.5-.75,.94-.65,1.83,.4,3.63,.93,5.38,1.58,1.75,.66,3.44,1.4,5.07,2.33,.37,.2,.05,.78-.32,.58h0Z"/>
    <path d="M290.91,153.68c-.17,1.44-1.66,2.26-2.96,2.38-.18,.01-.27-.23-.14-.34,1.07-.79,1.62-1.68,2.92-2.17,.09-.03,.18,.04,.17,.13h0Z"/>
    <path d="M287.72,153.68c.12,.58-.18,.87-.47,1.14-.3,.26-.68,.46-1.12,.5-.12,.01-.22-.07-.23-.19,.1-.42,.4-.77,.63-1.05,.24-.26,.44-.52,1.02-.54,.08,0,.15,.06,.17,.13h0Z"/>
    <path d="M285.26,152.95c.3,.47,.13,.78-.04,1.07-.18,.29-.44,.54-.81,.68-.11,.04-.24-.01-.28-.13-.05-.38,.07-.75,.18-1.03,.13-.27,.22-.54,.75-.67,.08-.02,.16,.02,.2,.08h0Z"/>
    <path d="M280.9,157.01c.05,.44,.04,.42,.02,.41-.05-.06-.14-.52-.14-.69-.05-.68,.06-.16,.12,.28h0Z"/>
    <circle class="cls-13" cx="271.51" cy="156.98" r="1.8"/>
    <path class="cls-4" d="M253.71,146.68l-.83-6.58c-.01-.09,0-.19,.06-.27,1.15-1.72,5.64-3.29,8.19-4.07,.42-.13,.71,.4,.39,.69-.61,.57-1.26,1.24-1.58,1.81-.71,1.25,5.85-3.61,14.78-3.83,5.27-.13,8.27-.11,9.84-.06,.42,.01,.55,.57,.18,.77l-.2,.1c-.38,.2-.24,.77,.19,.77,4.58,0,17.17,.37,21.36,4.63,0,0,2.55,2.22,1.81,3.07-.6,.69-9.57,.66-13.02,.62-.4,0-.56,.51-.23,.74h0c.32,.22,.18,.73-.21,.74-5.18,.21-25.37,1.02-30.1,.79s-8.87,.27-10.18,.44c-.22,.03-.43-.13-.45-.35Z"/>
    <path d="M291.56,166.04c-6.73,2.87-14.46,4.52-21.69,2.8-.33-.08-.25-.61,.09-.58,7.25,.39,14.36-1.25,21.4-2.78,.33-.1,.52,.42,.2,.55h0Z"/>
    <path d="M255.97,204.63c-.74,.13-1.55,.36-2.29,.59-.27,.09-.57-.06-.66-.33-.08-.24,.02-.49,.23-.61,.75-.44,1.46-.84,2.29-1.18,1.11-.42,1.6,1.31,.44,1.54h0Z"/>
    <path class="cls-7" d="M235.81,215.83s5.59,.4,8.98-4.19c.18-.25,.38-.49,.57-.73"/>
    <path d="M255.6,208.71c6.52-3.76,9.64-9.1,4.62-15.75-.29-.4,.29-.89,.64-.54,4.5,4.26,4.52,10.37-.42,14.28-1.37,1.14-2.88,2.04-4.54,2.68-.19,.07-.41-.02-.48-.21-.07-.18,.01-.38,.18-.47h0Z"/>
    <path class="cls-9" d="M245.35,210.91c6.35,.66,8.11-6.16,8.11-6.16-2.16,.99-5.46,2.9-8.11,6.16Z"/>
    <line class="cls-7" x1="245.35" y1="210.91" x2="245.35" y2="210.91"/>
    <path d="M246.51,159.61c.26,9.82,1.25,19.8,5.23,28.88,.24,.47-.48,.88-.76,.43-5.52-8.57-6.53-19.47-5.14-29.37,.06-.4,.68-.35,.67,.06h0Z"/>
    <path class="cls-7" d="M311.5,146.78v-.02s0-.07,.01-.14c0-.03,0-.07,0-.1,0-.06,0-.12,.02-.2,0-.07,.01-.16,.02-.25,0-.11,.02-.23,.03-.37,.03-.29,.06-.63,.1-1.03,.02-.2,.04-.42,.07-.65,.07-.61,.14-1.33,.22-2.13,.02-.17,.04-.35,.06-.53,.07-.57,.14-1.17,.21-1.82s.16-1.32,.25-2.04c.03-.24,.06-.48,.09-.73,.06-.49,.13-.99,.2-1.51,.04-.26,.07-.52,.11-.79,.14-1.06,.3-2.18,.47-3.34,1.36-9.28,2.23-41.38,1.73-47.21-.44-5.07-5.18-13.83-6.81-19.14-.25-.79-.42-1.5-.5-2.12-.27-2.03-3.18-6.91-6.23-11.66-3.48-5.42-7.16-10.65-7.34-11.26h0c-.03-.11,.04-.07,.24,.13t0,0c2.17,2.17,6.95,6.63,7.84,7.45,.09,.08,.14,.13,.14,.13,0,0-2.39-12.37-9.79-17.57-1.78-1.25-3.56-2.13-5.25-2.74h0c-5.33-1.94-9.68-1.24-9.68-1.24,0,0,0,0,0-.01-.05-.2-.53-2.06-2.63-4.5-.01-.02-.03-.04-.05-.06-1.47-1.7-3.73-3.66-7.16-5.52-.15-.08-.31-.17-.47-.25-.02-.01-.04-.02-.06-.03-7.03-3.67-18.05-2.65-22.81-1.98-.44,.07-.82,.12-1.14,.18-.75,.12-1.18,.2-1.18,.2,.5-.34,.98-.62,1.42-.85,.25-.13,.48-.25,.71-.35,.5-.23,.95-.4,1.34-.52,.15-.05,.28-.08,.41-.12,.14-.03,.27-.06,.39-.08,.15-.03,.3-.05,.42-.07,.35-.04,.6-.04,.75-.02,.03,0,.06,0,.07,0s.04,0,.05,0"/>
    <path class="cls-7" d="M247.77,11.97s0,0-.02,0c-.3-.09-.6-.17-.88-.25h0c-.98-.27-1.9-.48-2.75-.66-.13-.03-.26-.06-.39-.08-.41-.08-.8-.15-1.17-.21-.07-.01-.15-.02-.22-.04h-.02c-.15-.02-.3-.05-.45-.07-.28-.04-.56-.07-.83-.1-.04,0-.08,0-.12-.01-.31-.03-.6-.06-.88-.07-5.58-.38-7.01,1.62-7.33,2.31-.07,.14-.09,.22-.09,.22-1.41-1.8-.83-5.16-.36-6.97,.19-.76,.36-1.25,.36-1.25-4.84,1.73-7.88,7.95-8.61,9.58-.11,.25-.17,.39-.17,.39-.48-.75-.68-1.65-.68-2.63,0-.14,0-.29,.01-.44h0c0-.15,.02-.3,.04-.45h0c.01-.15,.03-.29,.06-.42v-.08c.03-.14,.06-.28,.09-.42,0,0,0-.02,0-.03,.03-.14,.06-.27,.09-.41,.11-.5,.26-1.01,.43-1.51,.05-.14,.1-.27,.15-.41,0-.02,.01-.05,.02-.07,.05-.14,.1-.27,.15-.4,.26-.66,.55-1.31,.84-1.92,.06-.11,.11-.22,.16-.34,.03-.06,.06-.11,.08-.16,.04-.09,.09-.18,.14-.27,.05-.11,.11-.21,.16-.32,.02-.03,.03-.06,.05-.09,.06-.1,.11-.21,.17-.31,.08-.16,.17-.32,.26-.47,.06-.1,.11-.2,.17-.29,.07-.12,.14-.24,.2-.35h0c.64-1.09,1.16-1.85,1.32-2.08,.01-.02,.03-.04,.04-.06,0,0,0,0,0-.01"/>
    <path class="cls-7" d="M227.83,.8h0c-.2,.09-.41,.18-.61,.27-1.01,.46-1.99,.97-2.94,1.53h0c-1.14,.67-2.23,1.41-3.27,2.18-.18,.13-.35,.27-.52,.4-1.54,1.19-2.96,2.46-4.26,3.77-.15,.14-.29,.29-.43,.43-5.81,5.94-9.09,12.16-9.09,12.16,0,0-3.59-4.79-24.43,6.68-20.83,11.47-28.23,39.2-28.23,39.2l3.99-3.19s-7.18,19.15-7.18,31.91,4.39,27.04,4.39,27.04l1.51-4.86,2.92,27.41h0"/>
    <path class="cls-7" d="M164.99,80.39s8.18-14.96,18.55-13.36,13.56,3.19,13.56,3.19c0,0-8.78,2.39-14.36,7.98,0,0,23.94-11.97,30.32-9.97,0,0-13.17,13.96-16.36,23.54,0,0,22.74-27.13,31.52-25.93,8.78,1.2,17.31,1.12,23.42-.04,0,0-3.47,3.63-6.66,5.62s18.35-7.58,21.54-10.77-1-1.49,6.88,3.44c7.88,4.93,17.06,.54,17.06,.54,0,0,13.17,2.79,16.16,15.76"/>
    <path class="cls-7" d="M296.84,298.01c-2.08-8.52-2.69-20.32-2.75-30.39-.06-9.22,.35-16.98,.49-19.39,.03-.51,.05-.78,.05-.78"/>
    <path class="cls-7" d="M176.98,247.46s2.17,32.6-2.22,50.55"/>
    <path class="cls-7" d="M235.81,370.62s31.12,.8,54.66-12.77c23.54-13.56,19.15-27.93,20.55-53.07,1.24-22.38-13.13-34.38-16.3-36.74-.02-.01-.03-.02-.04-.03-.33-.24-.53-.38-.56-.4h0"/>
    <path class="cls-7" d="M417.33,332.32c-44.71-33.62-104.75-57.66-119.74-63.39-2.09-.8-3.3-1.24-3.48-1.3,0,0-.01,0-.02,0h0"/>
    <path class="cls-7" d="M177.52,267.61h0s-.13,.09-.31,.22c-2.4,1.72-17.89,13.76-16.6,36.96,1.4,25.14-2.99,39.5,20.55,53.07,23.54,13.56,54.66,12.77,54.66,12.77"/>
    <path d="M197.47,220.61c-1.92,.29-3.33,1.32-3.03,3.41,.08,.65,.26,1.29,.4,1.94,.04,.19-.09,.38-.28,.42-.15,.03-.31-.05-.38-.18-.73-1.32-1.21-2.81-.65-4.34,.34-.78,1.01-1.39,1.74-1.67,.73-.29,1.46-.38,2.22-.29,.19,.02,.33,.2,.31,.39-.02,.17-.16,.3-.33,.31h0Z"/>
    <path d="M274.09,219.83c2.63-.34,4.74,1.61,4.11,4.29-.18,.71-.45,1.38-.8,2-.1,.17-.31,.23-.48,.14-.42-.29,.03-.97,.06-1.38,.64-2.52-.29-3.95-2.86-4.35-.42-.03-.43-.67-.02-.71h0Z"/>
    <path class="cls-7" d="M177.52,267.61s-15.91,10.85-17.91,14.44-7.98,15.56-7.58,21.94,0,6.78,.8,28.33c.8,21.54,23.54,33.91,23.54,33.91,0,0,19.15,13.16,59.44,14.16"/>
    <path class="cls-7" d="M294.08,267.61s15.91,10.85,17.91,14.44c1.99,3.59,7.98,15.56,7.58,21.94-.4,6.38,0,6.78-.8,28.33-.8,21.54-23.54,33.91-23.54,33.91,0,0-19.15,13.16-59.44,14.16"/>
    <path d="M220.9,306.25c3.41,4.79,8.94,7.98,14.87,8.04,.44,.03,.78,.4,.75,.84-.02,.43-.39,.76-.82,.75-4.75,.04-9.47-1.99-12.68-5.51-1.06-1.16-1.97-2.42-2.63-3.85-.07-.15,0-.32,.14-.39,.14-.06,.3-.01,.37,.11h0Z"/>
    <path d="M251.12,306.53c-2.74,5.74-8.99,9.44-15.31,9.36-.44,.01-.81-.33-.82-.77-.01-.43,.32-.8,.75-.82,5.92-.06,11.46-3.25,14.87-8.04,.18-.31,.67-.05,.51,.27h0Z"/>
    <path d="M213.84,164.91c3.75-.06,5.7-1.25,4.51-5.22-.05-.18,.06-.37,.25-.4,.14-.03,.28,.05,.34,.17,.37,.78,.68,1.58,.73,2.45,.29,1.91-1.59,3.55-3.37,3.65-.86,.11-1.69,.08-2.52-.1-.15-.03-.24-.18-.21-.33,.03-.13,.15-.22,.28-.22h0Z"/>
    <path d="M257.53,165.06c-4.22,.92-7.42-1.78-5.17-6,.16-.35,.7-.13,.58,.23-1.19,3.98,.77,5.16,4.51,5.22,.33-.02,.39,.48,.07,.54h0Z"/>
    <path class="cls-7" d="M470.61,427.21c1.69,8.77-3.41,17.42-11.9,20.17-18.71,6.05-38.37,11.35-58.82,15.84-50.26,11.03-105.34,17.11-163.08,17.11-82.05,0-158.72-12.28-223.85-33.59-8.45-2.76-13.53-11.41-11.83-20.14,4.84-24.73,18.03-67.87,53.16-94.28,51.04-38.38,122.05-64.28,123.22-64.7-.02,0-.05,.03-.09,.06-.05,.03-.12,.08-.21,.14-.04,.02-.07,.05-.12,.08-2.53,1.74-15.68,10.9-17.48,14.15-1.99,3.59-7.98,15.56-7.58,21.94,.4,6.38,0,6.78,.8,28.32,.74,20.05,20.49,32.15,23.22,33.73,.22,.12,.43,.25,.64,.39,2.66,1.69,21.83,13.02,59.1,13.95h.02c8.17-.2,15.47-.91,21.92-1.9h.03c1.68-.26,3.3-.54,4.86-.84,4.17-.78,7.93-1.68,11.29-2.62,12.7-3.56,19.62-7.71,21.05-8.62,.2-.13,.4-.25,.61-.37,.98-.57,4.05-2.43,7.65-5.48,1.15-.97,2.35-2.07,3.56-3.28h.01s0-.02,0-.02c2.35-2.36,4.71-5.16,6.71-8.38h0s0-.04,0-.04c1.34-2.16,2.51-4.5,3.41-7.02v-.02s.03-.07,.03-.07c.29-.82,.55-1.64,.77-2.5,.56-2.08,.92-4.27,1.02-6.57,0-.12,.01-.23,.02-.35,.8-21.54,.4-21.94,.8-28.32,.04-.59,.02-1.22-.05-1.89v-.02c-.1-1.05-.31-2.19-.61-3.38-.69-2.8-1.84-5.86-3.03-8.65v-.02s-.01,0-.01,0c-1.48-3.45-3.03-6.46-3.88-7.98-.27-.5-.82-1.14-1.56-1.87h0c-2.15-2.15-5.93-5.07-9.3-7.56h-.02c-2.72-2.02-5.19-3.74-6.34-4.54-.06-.04-.11-.07-.16-.11-.04-.03-.07-.05-.11-.08-.2-.14-.33-.24-.38-.27,.17,.06,1.38,.5,3.48,1.3,14.99,5.73,75.03,29.78,119.74,63.39,35.41,26.63,48.54,70.27,53.28,94.89Z"/>
  </g>
</svg>