<svg width="18" height="20" viewBox="0 0 18 20" fill="none" xmlns="http://www.w3.org/2000/svg">
<path d="M8.92522 8.90845C8.0288 8.90845 7.51207 9.78707 7.51207 10.8732C7.50328 11.9758 8.03759 12.8204 8.91643 12.8204C9.80366 12.8204 10.3212 11.9843 10.3212 10.8473C10.3212 9.78707 9.82114 8.90845 8.92522 8.90845Z" fill="#EBECF0"/>
<path d="M16.5912 7.15372H16.111V4.83648C16.111 4.82193 16.1087 4.80748 16.1068 4.79271C16.106 4.70079 16.0767 4.61044 16.0137 4.53883L12.1576 0.134126C12.1565 0.132995 12.1553 0.132521 12.1545 0.13139C12.1316 0.10571 12.1048 0.0843348 12.0764 0.0658774C12.068 0.06026 12.0596 0.0555544 12.0508 0.0505936C12.0262 0.0372795 12.0002 0.026081 11.9734 0.0180196C11.9661 0.0161228 11.9596 0.0131317 11.9524 0.0112349C11.9232 0.00430428 11.893 0 11.8624 0H2.38549C1.95272 0 1.60119 0.351966 1.60119 0.784328V7.15368H1.12105C0.502142 7.15368 0 7.65546 0 8.27473V14.1042C0 14.7229 0.502142 15.2252 1.12105 15.2252H1.60119V19.2157C1.60119 19.6481 1.95272 20 2.38549 20H15.3267C15.759 20 16.111 19.6481 16.111 19.2157V15.2252H16.5912C17.2105 15.2252 17.7121 14.7229 17.7121 14.1042V8.27477C17.7121 7.6555 17.2105 7.15372 16.5912 7.15372ZM2.38549 0.784328H11.4702V4.79701C11.4702 5.0138 11.6459 5.18918 11.8624 5.18918H15.3267V7.15387H2.38549V0.784328ZM11.7337 13.7504L11.3545 14.7675C10.5277 14.526 9.83835 14.2758 9.06274 13.9488C8.93409 13.897 8.79584 13.871 8.65807 13.8626C7.34822 13.7768 6.12478 12.8114 6.12478 10.9161C6.12478 9.17571 7.22769 7.86575 8.9594 7.86575C10.7349 7.86575 11.708 9.21007 11.708 10.7955C11.708 12.1138 11.0964 13.0438 10.3297 13.3887V13.4231C10.7778 13.5522 11.2772 13.6558 11.7337 13.7504ZM1.51569 13.5007L1.78299 12.415C2.13646 12.5959 2.67865 12.7767 3.23905 12.7767C3.84183 12.7767 4.16086 12.5272 4.16086 12.1483C4.16086 11.7861 3.88509 11.5793 3.18725 11.3296C2.22218 10.9934 1.59335 10.4594 1.59335 9.61471C1.59335 8.62389 2.42065 7.86571 3.7904 7.86571C4.4453 7.86571 4.92789 8.004 5.2722 8.15862L4.97962 9.21868C4.74708 9.10648 4.33357 8.94277 3.76494 8.94277C3.19593 8.94277 2.92002 9.20099 2.92002 9.50295C2.92002 9.87319 3.24747 10.0372 3.99729 10.3217C5.02259 10.7009 5.50496 11.2345 5.50496 12.0531C5.50496 13.027 4.7551 13.8538 3.1612 13.8538C2.49809 13.8534 1.84351 13.6811 1.51569 13.5007ZM15.3267 19.0031H2.38549V15.2252H15.3267V19.0031ZM16.1968 13.7674H12.5689V7.96041H13.8879V12.6648H16.1968V13.7674Z" fill="#EBECF0"/>
</svg>
