<svg width="19" height="20" viewBox="0 0 19 20" fill="none" xmlns="http://www.w3.org/2000/svg">
<path d="M9.65126 17.9002H9.6566C9.66927 17.9316 9.17717 19.2919 8.99847 19.7233C8.95779 19.82 8.94379 19.844 8.92178 19.8426C8.52304 19.7924 8.12496 19.7368 7.72755 19.6759C6.97273 19.5612 5.70848 19.3399 5.38974 19.2679L5.31573 19.2512L5.76849 19.1498C6.73868 18.9318 7.20411 18.8138 7.67687 18.6691C8.38301 18.4504 8.97313 18.2176 9.54191 17.9469L9.45856 17.9829C9.50923 17.9569 9.57391 17.9296 9.63926 17.9056L9.6526 17.9016L9.65126 17.9002ZM5.88251 17.0161C5.88651 17.0201 5.6718 17.3641 5.29439 17.9596C5.13436 18.2103 4.95366 18.497 4.89164 18.5944C4.82897 18.6924 4.73828 18.8424 4.69027 18.9278L4.60092 19.0818L4.55624 19.0705C4.44822 19.0411 3.68207 18.7704 3.4807 18.6904C3.19464 18.577 2.96259 18.4684 2.73788 18.3477L2.77589 18.3663C2.57652 18.267 2.40581 18.157 2.24712 18.0309L2.25312 18.0356L3.17397 17.7842C4.50023 17.4228 5.23438 17.2148 5.71514 17.0641C5.80583 17.0367 5.88118 17.0147 5.88184 17.0167L5.88251 17.0161ZM6.41728 17.0014C6.41995 16.9987 6.55464 17.0461 6.71868 17.1081C7.01674 17.2268 7.39148 17.3461 7.77489 17.4422L7.8409 17.4562C8.31633 17.5795 8.89378 17.6829 9.48323 17.7462L9.53857 17.7509C9.60525 17.7562 9.63993 17.7642 9.62993 17.7709C9.60925 17.7842 9.16317 17.9323 8.83577 18.0356C7.55151 18.4264 6.26392 18.8049 4.97299 19.1712C4.97099 19.1712 4.96833 19.1712 4.96566 19.1712C4.92032 19.1712 4.87764 19.1585 4.84097 19.1372L4.8423 19.1378C4.89565 19.0611 4.94899 18.9945 5.005 18.9305L5.003 18.9325C5.41175 18.4457 5.8165 17.9069 6.19057 17.3461L6.23258 17.2795C6.29348 17.1861 6.3546 17.093 6.41595 17.0001L6.41728 17.0014ZM4.0008 15.2737L4.09815 15.3831C4.50157 15.8392 4.97033 16.2259 5.4931 16.53L5.51977 16.5446C5.58178 16.576 5.63513 16.6113 5.68314 16.652L5.6818 16.6513C4.48245 17.0861 3.27977 17.5111 2.07375 17.9263C2.0533 17.9138 2.0333 17.9005 2.01374 17.8862L1.95772 17.8462L2.04508 17.7195C2.32847 17.3088 2.6852 16.8574 3.46603 15.9178L4.0008 15.2737ZM3.61339 15.1257C3.62072 15.133 3.23531 15.6845 2.69654 16.4386L2.20711 17.1241C2.12643 17.2401 2.00307 17.4222 1.93305 17.5308L1.80569 17.7275L1.671 17.6135C1.46763 17.4348 1.28359 17.2468 1.11356 17.0461L1.10689 17.0381C0.876175 16.7654 0.700807 16.4373 0.604788 16.0772L0.600787 16.0599C0.569447 15.9152 0.567447 15.8418 0.59812 15.8325C1.13467 15.7031 1.67189 15.5767 2.20978 15.4531L3.29333 15.199C3.46736 15.157 3.61139 15.1244 3.61339 15.1257ZM10.5188 14.8896L10.5208 14.8923C10.5208 14.959 10.3681 15.5824 10.2407 16.0339C10.134 16.4113 10.044 16.7073 9.87797 17.2314C9.83574 17.3728 9.78907 17.5128 9.73795 17.6515C8.79243 17.4875 7.95292 17.2441 7.1541 16.9207L7.23811 16.9507C7.05719 16.88 6.8796 16.8014 6.70534 16.7147C6.81403 16.6533 6.94739 16.5887 7.08475 16.5326L7.11009 16.5233C8.48903 15.9225 9.91732 15.2377 10.4054 14.9437C10.4374 14.9203 10.4748 14.9023 10.5154 14.891L10.5181 14.8903L10.5188 14.8896ZM7.52751 13.8454C7.51084 13.9014 7.49283 13.9481 7.47216 13.9935L7.47483 13.9861C7.11609 14.831 6.76402 15.5258 6.37394 16.1959L6.42395 16.1026C6.35727 16.2248 6.28726 16.345 6.21391 16.4633C6.20991 16.4633 6.11922 16.4086 6.01054 16.3426C5.39641 15.9732 4.87364 15.5258 4.43489 15.0043L4.42689 14.995L4.37354 14.9283L4.65026 14.8523C5.69847 14.5702 6.58265 14.2562 7.43482 13.8841L7.30813 13.9335C7.42682 13.8834 7.52484 13.8428 7.52617 13.8454H7.52751ZM8.00893 13.6874C8.07495 13.7187 8.12829 13.7487 8.1803 13.7808L8.17297 13.7768C8.84043 14.1568 9.61392 14.4662 10.4301 14.6649L10.4921 14.6776L10.5621 14.6943L10.4661 14.7469C10.0647 14.9703 8.74041 15.5211 7.38814 16.0279C7.24545 16.0812 7.10298 16.135 6.96073 16.1892C6.94072 16.1992 6.91805 16.2072 6.89405 16.2112H6.89271C6.89271 16.2079 6.94872 16.1012 7.01674 15.9732C7.3508 15.3677 7.6722 14.6509 7.93759 13.9074L7.97026 13.8028C7.9896 13.7421 8.00693 13.6901 8.0096 13.6881L8.00893 13.6874ZM3.28532 12.8412C3.29799 12.8412 3.29466 12.8646 3.27532 12.9753C3.25887 13.0828 3.24754 13.1911 3.24131 13.3C3.23798 13.346 3.23598 13.3993 3.23598 13.4527C3.23598 13.8428 3.33667 14.2095 3.51337 14.5276L3.50737 14.5162C3.56871 14.6409 3.61739 14.7443 3.61472 14.7463C3.59205 14.7656 1.58965 15.3511 0.960192 15.5238L0.597453 15.6238C0.574782 15.6305 0.573448 15.6258 0.580783 15.5738C0.734814 14.9737 1.04354 14.4596 1.46096 14.0581L1.46229 14.0568C1.74635 13.7574 2.07441 13.5034 2.43715 13.3047L2.45782 13.2947C2.73077 13.1382 3.00638 12.9868 3.28466 12.8406L3.28532 12.8412ZM10.7948 11.9471V12.0751C10.7855 12.9626 10.7088 13.8248 10.5688 14.6656L10.5821 14.5682C9.97733 14.3915 9.45256 14.1695 8.96046 13.8961L9.00047 13.9161C8.72575 13.7714 8.49437 13.6267 8.27365 13.4687L8.29232 13.4814C8.29499 13.478 8.42035 13.412 8.57038 13.334C9.22651 12.9946 9.76862 12.6719 10.2907 12.3225L10.2267 12.3625C10.4114 12.2391 10.6895 12.0384 10.7508 11.9844L10.7948 11.9471ZM5.57178 11.735C5.46776 11.9891 5.36841 12.1944 5.25838 12.3938L5.27506 12.3605C4.98233 12.9319 4.65893 13.4947 4.23085 14.1808L4.07948 14.4209C4.06415 14.4436 4.05748 14.4362 4.01147 14.3429C3.90945 14.1402 3.82877 13.9054 3.78076 13.6587L3.77809 13.6414C3.76009 13.5214 3.74942 13.3827 3.74942 13.242C3.74942 13.0639 3.76609 12.8906 3.79743 12.7219L3.79476 12.7392C3.8341 12.5498 3.8321 12.5545 3.92145 12.5092C4.30619 12.3118 5.55978 11.7243 5.57178 11.735ZM6.17857 11.485L6.18657 11.4883C6.20324 11.519 6.21858 11.555 6.23191 11.5923L6.23325 11.5977C6.37327 11.9411 6.54131 12.2378 6.74268 12.5085L6.73468 12.4978C6.98673 12.8292 7.26479 13.1193 7.57351 13.374L7.58218 13.3813C7.60152 13.398 7.60685 13.3947 7.11409 13.5814C6.48241 13.8197 5.84517 14.0419 5.20237 14.2482C4.92965 14.3362 4.69894 14.4109 4.6896 14.4149C4.66227 14.4242 4.67027 14.4075 4.75028 14.2835C5.16703 13.6041 5.56778 12.8112 5.90518 11.9857L5.94586 11.8737C5.9972 11.7403 6.04721 11.607 6.05654 11.577C6.06321 11.541 6.08855 11.5116 6.12256 11.5003C6.13856 11.4916 6.15723 11.487 6.17724 11.4863L6.17857 11.485ZM8.15763 10.7048C8.16163 10.7962 8.1643 10.9042 8.1643 11.0115C8.1643 11.2129 8.15563 11.4129 8.13896 11.6103L8.14096 11.5843C8.06961 12.1564 7.94759 12.6745 7.77622 13.1686L7.79222 13.1146C7.58818 12.9419 7.40415 12.7626 7.23345 12.5705L7.22878 12.5652C7.0194 12.3285 6.83403 12.0631 6.682 11.7764L6.67133 11.7544C6.60999 11.639 6.55331 11.503 6.50797 11.3616L6.50263 11.3436C6.54931 11.3103 8.14496 10.6935 8.15696 10.7041L8.15763 10.7048ZM8.57705 10.5441C8.67707 10.5814 8.76375 10.6301 8.84177 10.6895L8.8391 10.6875C9.3412 11.0115 9.94132 11.3509 10.5608 11.6583L10.6721 11.7083C10.7855 11.7584 10.7982 11.7383 10.5388 11.9144C9.94399 12.3118 9.26052 12.6852 8.54438 12.9986L8.45769 13.0326C8.36656 13.0744 8.27454 13.1137 8.18164 13.1506C8.1883 13.0886 8.20097 13.0319 8.21898 12.9779L8.21698 12.9839C8.40235 12.3511 8.51837 11.6217 8.53904 10.8675V10.8555C8.54037 10.5541 8.54037 10.5521 8.56971 10.5448H8.57505L8.57705 10.5441ZM10.6168 9.87531C10.7041 10.3227 10.7608 10.8455 10.7755 11.3789V11.3923C10.7788 11.4196 10.7808 11.451 10.7808 11.483C10.7808 11.5236 10.7775 11.5636 10.7715 11.6023L10.7722 11.5983C10.7488 11.5983 10.2594 11.3109 9.91198 11.0936C9.58392 10.8868 9.26119 10.6724 8.94379 10.4501C8.91445 10.4268 8.91778 10.4261 9.16517 10.3407C9.58592 10.196 10.5848 9.87598 10.6168 9.87598V9.87531ZM11.5336 9.33787L7.52751 10.6441L4.04481 12.1824L3.06995 12.4405C2.82145 12.6756 2.55807 12.9146 2.27979 13.1573C1.97173 13.4247 1.683 13.6674 1.46296 13.8421C1.17223 14.0835 0.912182 14.3415 0.676135 14.6203L0.6688 14.6296C0.429419 14.9136 0.23138 15.2424 0.0906847 15.5998L0.0826833 15.6238C0.030006 15.7785 0 15.9565 0 16.1419C0 16.5106 0.120024 16.8514 0.323398 17.1268L0.320064 17.1221C0.888844 17.8416 1.62499 18.403 2.47183 18.7524L2.50717 18.7651C3.03261 18.9925 3.6734 19.2132 4.33287 19.3879L4.43222 19.4105C5.62312 19.6939 7.02807 19.902 8.46503 19.99L8.53704 19.9933C8.61239 19.998 8.69974 20 8.78842 20C8.88711 20 8.98446 19.9967 9.08115 19.9907L9.06781 19.9913C9.19317 19.7893 9.32386 19.5459 9.44055 19.2952L9.45923 19.2498C10.0167 18.1783 10.5014 16.9294 10.8488 15.6238L10.8782 15.4931C11.0495 14.7423 11.1782 13.8508 11.2369 12.9406L11.2396 12.8892C11.2623 12.5945 11.2703 11.6117 11.2529 11.2776C11.2296 10.7555 11.1749 10.2667 11.0902 9.78796L11.1002 9.85597C11.0929 9.82863 11.0889 9.79729 11.0889 9.76529C11.0889 9.75328 11.0896 9.74128 11.0909 9.72995V9.73128C11.1022 9.72328 11.1402 9.71061 11.6323 9.56725L11.5336 9.33787ZM7.94292 2.3318C7.95559 2.33247 7.96959 2.35847 8.00693 2.44115C8.11029 2.66787 8.43169 3.28132 8.5097 3.39935C8.53437 3.43869 8.57638 3.44069 8.14896 3.37201C7.12409 3.20731 6.79136 3.1513 6.79136 3.14463C6.81136 3.12729 6.83403 3.11196 6.85871 3.10062L6.86071 3.09995C7.21011 2.90191 7.51217 2.69054 7.79156 2.45382L7.78289 2.46116L7.92892 2.33847L7.94292 2.3318ZM4.31686 1.60765L4.74295 2.13909C4.97766 2.43049 5.21304 2.72121 5.26439 2.78389C5.29573 2.81856 5.32573 2.85657 5.3524 2.89725L5.3544 2.90058C5.34307 2.90992 4.73761 2.79256 4.41688 2.71788C4.19106 2.66987 3.96813 2.61097 3.74808 2.54117L3.58138 2.48783L3.58205 2.44716C3.58472 2.24312 3.8421 1.94105 4.27886 1.63366L4.31686 1.60765ZM4.43622 1.5123L4.55358 1.55231C5.45576 1.82103 6.52397 2.03241 7.62152 2.14576L7.69887 2.15243C7.79889 2.1611 7.88358 2.16977 7.88624 2.17243C7.83423 2.20511 7.77222 2.23845 7.70754 2.26912L7.69621 2.27379C7.26679 2.4885 6.79403 2.75122 6.46663 2.95592C6.40995 2.99527 6.34594 3.03127 6.27792 3.06061L6.27059 3.06328C6.22302 3.05661 6.1759 3.04905 6.12923 3.04061L6.0092 3.02127L5.70514 2.72521C5.17103 2.20844 4.75428 1.80836 4.59292 1.65833L4.43622 1.5123ZM7.35414 0.156031H7.35814C7.36081 0.158698 7.37214 0.243382 7.38481 0.343402C7.44549 0.820164 7.54884 1.25158 7.69354 1.663L7.6802 1.61832C7.79156 1.95172 7.79356 1.93239 7.6602 1.89505C7.35214 1.80903 5.96719 1.57165 4.96566 1.43229C4.86608 1.41939 4.76695 1.40473 4.66827 1.38828C4.6556 1.37561 5.39041 0.990865 5.71648 0.838168C6.13389 0.644796 7.27145 0.171368 7.35414 0.156031ZM7.40481 0.000666752C7.33813 -0.00733485 6.26259 0.380076 5.57178 0.659465C4.76162 0.96886 4.06615 1.3256 3.41535 1.74635L3.46003 1.71901C3.29866 1.8297 3.1633 1.96506 3.05661 2.12176L3.05328 2.12709C3.04194 2.1571 3.03594 2.19177 3.03594 2.22778C3.03594 2.22845 3.03594 2.22911 3.03594 2.22978L3.44269 2.61319L4.40755 2.92125L6.70667 3.33267L9.33387 3.78409L9.36054 3.55938L9.3372 3.55538L8.99113 3.50003L8.92045 3.37668C8.56349 2.74677 8.23654 2.10109 7.93959 1.43962C7.79089 1.11289 7.64086 0.707475 7.51684 0.291392L7.49817 0.219377C7.44149 0.01667 7.43549 0.00533435 7.40481 0.000666752ZM6.57265 9.55058C6.38928 9.78596 6.20391 9.99533 6.00587 10.192L6.0052 10.1927C5.45242 10.7602 4.8363 11.2609 4.16683 11.6857L4.12549 11.7103C4.03547 11.7677 3.95412 11.8184 3.94212 11.825C3.92278 11.8364 3.94879 11.807 4.26352 11.4636C4.46156 11.2476 4.61359 11.0689 4.78696 10.8448C4.86764 10.7288 4.96833 10.6328 5.08435 10.5588L5.08835 10.5561C5.53577 10.2327 6.56065 9.53857 6.57265 9.55058ZM7.04207 9.43455C7.05608 9.43189 7.07541 9.45789 7.1581 9.58058C7.32613 9.8313 7.44549 10.1294 7.4955 10.4501L7.49683 10.4628L7.5035 10.5234L7.08942 10.6835C6.34794 10.9715 5.6638 11.2556 5.20104 11.467C5.07168 11.527 4.8443 11.635 4.69494 11.7103C4.54558 11.7857 4.42422 11.8437 4.42422 11.8404C4.42422 11.837 4.51757 11.7664 4.63226 11.6837C5.49243 11.0669 6.23991 10.3754 6.89405 9.60259L6.90872 9.58458C6.97139 9.5079 7.02874 9.44122 7.03607 9.43655L7.04141 9.43522L7.04207 9.43455ZM6.0232 8.63439C6.28126 8.75908 6.5033 8.90311 6.70534 9.07048L6.70001 9.06581C6.64866 9.11982 6.59132 9.16717 6.52864 9.20717L6.52464 9.20918C6.23725 9.41655 5.79983 9.74595 5.54711 9.94732C5.28039 10.16 5.27105 10.1667 5.30106 10.12C5.43975 9.91998 5.57445 9.69127 5.69181 9.45189L5.70581 9.42055C5.78916 9.25118 5.87451 9.04181 5.94786 8.82643L5.95919 8.78709C5.97453 8.72908 5.99653 8.6784 6.02454 8.63239L6.0232 8.63506V8.63439ZM9.84797 7.69687C9.8553 7.70421 9.43789 8.28832 9.1905 8.61839C8.89378 9.01247 8.36567 9.6726 8.00227 10.1014C7.90936 10.2147 7.81334 10.325 7.71421 10.4321C7.70621 10.4348 7.70154 10.3907 7.70087 10.3214C7.69754 9.92398 7.60285 9.54991 7.43749 9.21651L7.44416 9.23118C7.37481 9.09115 7.36347 9.05781 7.37748 9.04448C7.43415 8.99313 8.31633 8.4897 8.87244 8.1923C9.25518 7.9876 9.8413 7.68887 9.84797 7.69687ZM10.4801 7.53884L10.6275 7.63486C11.0255 7.89691 11.3669 8.1503 11.693 8.42102L11.673 8.40501C11.8444 8.54838 12.1771 8.84644 12.2451 8.91845L12.2818 8.95779L12.0371 9.02647C10.7844 9.36832 9.54835 9.76373 8.329 10.2127C8.18964 10.2634 8.07095 10.3061 8.06228 10.3061C8.04494 10.3061 8.02761 10.3221 8.33967 10.0347C9.09715 9.34387 9.76662 8.57838 10.3441 7.74422L10.3734 7.69954L10.4801 7.53884ZM8.07361 6.54864C8.02294 6.78469 7.96826 6.98006 7.90358 7.17077L7.91492 7.13143C7.71954 7.70821 7.48416 8.20631 7.20011 8.67107L7.21878 8.63773L7.1441 8.76042L6.97473 8.59639C6.81403 8.43235 6.62799 8.29366 6.42328 8.18564L6.41128 8.17964C6.35527 8.1543 6.30726 8.12563 6.26192 8.09295L6.26459 8.09429C6.26459 8.06961 6.78136 7.60019 7.17944 7.26279C7.46549 7.0214 8.06628 6.54064 8.07295 6.54798L8.07361 6.54864ZM8.46969 6.47863C8.51237 6.48663 8.90578 6.67 9.20184 6.8187C9.47256 6.95472 9.88331 7.17343 9.90398 7.19277C9.90665 7.19544 9.76262 7.27012 9.58258 7.36014C9.01314 7.64486 8.52571 7.91358 8.0176 8.22431C7.87157 8.31366 7.75088 8.38568 7.74688 8.38568C7.73421 8.38568 7.73888 8.37501 7.82023 8.22631C8.08362 7.74555 8.29566 7.1881 8.42702 6.60065L8.43502 6.55798C8.44702 6.50663 8.45969 6.47463 8.46903 6.4773L8.46969 6.47863ZM15.209 5.78716C15.2751 5.80983 15.3317 5.83783 15.3844 5.87251L15.3817 5.87051C16.1499 6.3146 16.8134 6.81803 17.4075 7.39281L17.4048 7.39014C17.5662 7.54818 17.9609 7.95959 17.9549 7.96226L17.6522 7.98626C15.9765 8.13763 14.4522 8.40101 12.9713 8.77442L13.1773 8.73041C13.0706 8.75508 12.9793 8.77709 12.9726 8.77709C12.9666 8.77709 13.0833 8.6604 13.232 8.51704C13.9895 7.8429 14.6076 7.03074 15.0497 6.11789L15.0697 6.07188C15.143 5.92385 15.2057 5.79449 15.2077 5.78716H15.209ZM14.9777 5.72648C14.9837 5.73315 14.783 6.04721 14.6576 6.22658C14.4742 6.48796 14.2102 6.83137 13.6067 7.59085L12.8119 8.59238C12.7394 8.68663 12.6648 8.77909 12.5879 8.86977C12.5598 8.83443 12.5318 8.79509 12.5052 8.75375L12.5018 8.74775C12.1518 8.22965 11.747 7.78422 11.2876 7.40215L11.2769 7.39348C11.2031 7.33169 11.1282 7.27123 11.0522 7.21211C11.0289 7.19611 11.0089 7.17944 10.9909 7.1601C10.9909 7.1521 11.505 6.93205 11.8977 6.77202C12.6579 6.46663 13.4294 6.19168 14.2122 5.94719C14.5802 5.8345 14.9723 5.72248 14.9777 5.72715V5.72648ZM6.13656 5.71781C6.14456 5.70981 6.56465 5.80783 6.79403 5.87184C7.23945 5.99653 7.59752 6.11989 7.94692 6.25992L7.87024 6.23325C7.87024 6.23658 7.78956 6.30726 7.69087 6.38994C7.29479 6.72068 6.91272 7.06741 6.45529 7.50883C6.37305 7.59152 6.28748 7.67064 6.19857 7.74622C6.19257 7.74622 6.19057 7.72688 6.19324 7.70487C6.21991 7.4775 6.23525 7.21411 6.23525 6.94739C6.23525 6.56998 6.20524 6.19924 6.14656 5.8385L6.1519 5.87784C6.14323 5.83117 6.13723 5.77649 6.13523 5.72114V5.71914L6.13656 5.71781ZM11.6197 4.45822C11.647 4.45822 12.1991 4.60825 12.4838 4.69427C13.314 4.94232 13.9981 5.19837 14.6609 5.4931L14.5462 5.44776L14.767 5.54778L14.6109 5.58378C13.2567 5.88851 12.0911 6.25925 10.9709 6.71801L11.1216 6.66333C11.0322 6.70001 10.9549 6.73001 10.9489 6.73001C10.9655 6.67133 10.9869 6.61999 11.0135 6.57198L11.0115 6.57598C11.3036 5.98986 11.5103 5.30773 11.5943 4.58825L11.597 4.55891C11.6017 4.5029 11.6117 4.45822 11.6197 4.45822ZM11.3896 4.42222C11.3776 4.57091 11.3536 4.70694 11.3189 4.83897L11.3229 4.8223C11.1249 5.48843 10.8655 6.06855 10.5421 6.60599L10.5614 6.57131C10.5188 6.65066 10.4768 6.71801 10.4308 6.78202L10.4348 6.77669C10.3641 6.74668 10.3041 6.71468 10.2474 6.678L10.2521 6.68067C9.92332 6.48596 9.53324 6.29126 9.12849 6.12322L9.06448 6.09989C8.98624 6.06921 8.90911 6.03587 8.8331 5.99987C8.8131 5.98186 9.78529 5.33773 10.3014 5.02834C10.7141 4.78096 11.3783 4.41088 11.3896 4.42288V4.42222ZM8.17297 3.78542C8.1823 3.77676 9.42588 3.99213 9.99133 4.10015C10.4127 4.18084 11.0222 4.30819 11.0589 4.3242C11.0769 4.33087 11.0142 4.36554 10.8115 4.45756C10.0467 4.79363 9.39521 5.1537 8.78109 5.56445L8.82843 5.53444C8.67373 5.63779 8.54438 5.72248 8.54171 5.72248C8.53771 5.68047 8.53571 5.63179 8.53571 5.58312C8.53571 5.56511 8.53571 5.54644 8.53637 5.52844V5.53111C8.53637 5.52777 8.53637 5.52377 8.53637 5.5191C8.53637 4.92899 8.41635 4.36754 8.20031 3.8561L8.21098 3.88411C8.19697 3.8561 8.1843 3.82276 8.1743 3.78809L8.17363 3.78409L8.17297 3.78542ZM7.96493 3.75542C8.01494 3.85277 8.05294 3.96613 8.07161 4.08548L8.07228 4.09215C8.16563 4.45489 8.21898 4.87097 8.21898 5.29973C8.21898 5.45442 8.21231 5.60779 8.19831 5.75915L8.19964 5.73981L8.18964 5.77115L8.03361 5.72114C7.71021 5.61779 7.18344 5.46309 6.73201 5.33773C6.57465 5.29728 6.41906 5.25016 6.26525 5.19637C6.43595 5.007 6.61066 4.8323 6.79403 4.66693L6.80003 4.6616C7.1461 4.35954 7.52551 4.06215 7.92025 3.78542L7.96426 3.75608L7.96493 3.75542ZM5.3424 3.25732C5.40308 3.26332 5.45843 3.27332 5.51244 3.28732L5.5051 3.28599C6.0212 3.39935 6.94272 3.57738 7.53417 3.6774C7.60152 3.6854 7.6622 3.69874 7.72088 3.71874L7.71421 3.71674C7.69087 3.73741 7.6642 3.75475 7.63419 3.76742L7.63219 3.76809C7.53284 3.8181 7.13076 4.05881 6.99673 4.14883C6.67534 4.36154 6.39461 4.58692 6.13656 4.83497L6.13856 4.83297C6.08522 4.88764 6.03054 4.94099 5.97453 4.993C5.96186 4.96166 5.94986 4.92298 5.94119 4.88431L5.94052 4.87898C5.77782 4.29886 5.59312 3.80676 5.37307 3.33467L5.39908 3.39668C5.3773 3.35178 5.35752 3.30599 5.33973 3.25932L5.3424 3.25732ZM3.85077 2.8459C3.89611 2.85657 3.93479 2.86924 3.97146 2.88324L3.96479 2.88124C4.07815 2.91992 4.22818 2.96459 4.40288 3.01394C4.52424 3.04728 4.65893 3.08395 4.80229 3.11996C4.98366 3.16663 5.13503 3.20664 5.13636 3.20931C5.15636 3.23198 5.46243 4.20751 5.56645 4.58158C5.60645 4.72495 5.63646 4.8443 5.63379 4.8463C5.60645 4.8123 5.58112 4.77429 5.56045 4.73361L5.55844 4.72961C5.14103 4.03681 4.62092 3.45202 4.0108 2.97726L3.9968 2.96659C3.94657 2.92836 3.89767 2.88836 3.8501 2.84657L3.85077 2.8459ZM3.07128 2.08842C3.05128 2.12776 3.03927 2.17377 3.03927 2.22311C3.03927 2.26979 3.04994 2.3138 3.06861 2.35247L3.06795 2.35047C3.14396 2.48183 3.23865 2.59319 3.34934 2.6852L3.35134 2.68654C3.35134 2.68654 4.69694 3.99947 4.86231 4.1895C5.54444 4.93499 5.96253 5.93185 5.96253 7.02607C5.96253 7.04007 5.96253 7.05474 5.96253 7.06875V7.06675C5.96319 7.10009 5.96386 7.13943 5.96386 7.17877C5.96386 7.93092 5.78716 8.64106 5.47309 9.27119L5.4851 9.24385C4.46689 11.0722 3.12196 12.5979 1.51497 13.7914L1.47696 13.8181L1.77702 13.7181C2.08108 13.5067 2.43382 13.2947 2.79923 13.1053L2.85324 13.0799C4.23151 12.3198 5.87984 11.5663 7.58485 10.9295L7.85157 10.8422C10.6955 9.77329 14.1008 8.8311 17.6095 8.1823L18.2703 8.08095L18.229 8.01427C18.0223 7.68687 17.8222 7.40815 17.6069 7.14143L17.6202 7.15877C17.0294 6.43595 16.3166 5.83783 15.5098 5.38974L15.4724 5.37107C14.1228 4.65426 12.5565 4.10882 10.9022 3.81876L10.8062 3.80476C10.1994 3.69052 9.59081 3.58627 8.98046 3.49203C7.88869 3.32444 6.79869 3.14663 5.71048 2.95859C5.3564 2.89591 4.82697 2.80789 4.47623 2.73188C4.15083 2.66253 3.88211 2.58852 3.62006 2.50117L3.6754 2.51717C3.45202 2.42982 3.13863 2.34447 3.07128 2.08842Z" fill="#EBECF0"/>
</svg>
