<svg width="20" height="12" viewBox="0 0 20 12" fill="none" xmlns="http://www.w3.org/2000/svg">
<path fill-rule="evenodd" clip-rule="evenodd" d="M10 0C7.333 0 5.667 1.325 5 3.976C6 2.651 7.167 2.154 8.5 2.485C9.261 2.674 9.805 3.223 10.406 3.83C11.387 4.819 12.522 5.964 15 5.964C17.667 5.964 19.333 4.639 20 1.988C19 3.313 17.834 3.81 16.5 3.479C15.739 3.29 15.195 2.741 14.593 2.134C13.613 1.144 12.479 0 10 0ZM5 5.964C2.333 5.964 0.667 7.289 0 9.94C1 8.614 2.167 8.118 3.5 8.449C4.261 8.638 4.805 9.187 5.407 9.794C6.387 10.783 7.522 11.928 10.001 11.928C12.668 11.928 14.334 10.603 15.001 7.952C14.001 9.277 12.834 9.774 11.501 9.443C10.74 9.254 10.196 8.705 9.595 8.098C8.613 7.109 7.478 5.964 5 5.964Z" fill="#EBECF0"/>
</svg>
