<svg width="20" height="20" viewBox="0 0 20 20" fill="none" xmlns="http://www.w3.org/2000/svg">
<path d="M0 10V20H20V0H0V10ZM16.1162 9.2025C16.6244 9.32937 17.0113 9.5575 17.3694 9.925C17.5519 10.12 17.825 10.4781 17.8481 10.5663C17.8544 10.5925 16.9856 11.175 16.4581 11.5006C16.4388 11.5137 16.3606 11.4325 16.2756 11.305C16.0188 10.9306 15.7481 10.7681 15.335 10.7387C14.7294 10.6994 14.3388 11.0156 14.3419 11.5463C14.3388 11.6763 14.3681 11.8069 14.4263 11.9206C14.56 12.1975 14.8106 12.3631 15.585 12.6988C17.0175 13.3138 17.6294 13.7206 18.01 14.2969C18.4362 14.9413 18.5306 15.97 18.2444 16.7381C17.9256 17.5681 17.1375 18.1344 16.0306 18.32C15.6888 18.3819 14.875 18.3719 14.5069 18.3037C13.7031 18.1606 12.9412 17.7631 12.4725 17.2425C12.2869 17.0406 11.9287 16.51 11.9519 16.4744C11.9619 16.4612 12.0431 16.4094 12.1344 16.3569C12.2256 16.3044 12.5606 16.1094 12.8769 15.9269L13.4531 15.5919L13.5738 15.7706C13.7431 16.0275 14.1106 16.3794 14.3325 16.4962C14.9706 16.835 15.8463 16.7863 16.2794 16.3988C16.455 16.2525 16.5531 16.0275 16.54 15.8C16.54 15.5688 16.5106 15.465 16.39 15.2919C16.2338 15.0706 15.9181 14.8819 15.0162 14.4913C13.9844 14.045 13.5381 13.7719 13.135 13.3325C12.8813 13.0425 12.6925 12.7012 12.585 12.3331C12.51 12.05 12.4906 11.34 12.5494 11.0569C12.7613 10.0575 13.5163 9.36437 14.6 9.15937C14.9519 9.09125 15.7719 9.11687 16.1169 9.20187L16.1162 9.2025ZM11.4225 10.0394L11.4287 10.8563H8.82438V18.2556H6.98187V10.8563H4.38125V10.0556C4.38125 9.60938 4.39125 9.23875 4.40375 9.22875C4.41375 9.21562 5.99563 9.20937 7.91625 9.2125L11.4125 9.2225L11.4225 10.0394Z" fill="#EBECF0"/>
</svg>
