<svg width="645" height="363" viewBox="0 0 645 363" fill="none" xmlns="http://www.w3.org/2000/svg">
<rect width="644.5" height="362.531" fill="#D0F5C9"/>
<path d="M200.28 216V182.04C200.28 180.04 200.7 178.26 201.54 176.7C202.42 175.14 203.64 173.9 205.2 172.98C206.76 172.02 208.58 171.54 210.66 171.54C212.06 171.54 213.36 171.78 214.56 172.26C215.8 172.7 216.88 173.32 217.8 174.12L215.22 180.42C214.7 180.06 214.18 179.78 213.66 179.58C213.14 179.38 212.66 179.28 212.22 179.28C211.46 179.28 210.82 179.4 210.3 179.64C209.78 179.88 209.4 180.26 209.16 180.78C208.92 181.26 208.8 181.86 208.8 182.58V216H204.54C203.66 216 202.86 216 202.14 216C201.42 216 200.8 216 200.28 216ZM195.48 192.3V185.04H215.64V192.3H195.48ZM232.293 216.6C230.013 216.6 228.033 216.1 226.353 215.1C224.673 214.06 223.373 212.6 222.453 210.72C221.573 208.8 221.133 206.52 221.133 203.88V184.26H229.653V202.32C229.653 204.56 230.173 206.32 231.213 207.6C232.293 208.84 233.773 209.46 235.653 209.46C236.613 209.46 237.473 209.32 238.233 209.04C239.033 208.72 239.713 208.28 240.273 207.72C240.833 207.16 241.273 206.5 241.593 205.74C241.913 204.98 242.073 204.14 242.073 203.22V184.26H250.593V216H242.493L242.253 209.46L243.753 208.74C243.313 210.22 242.513 211.56 241.353 212.76C240.233 213.96 238.893 214.9 237.333 215.58C235.773 216.26 234.093 216.6 232.293 216.6ZM259.166 216V184.26H267.386L267.626 190.74L265.946 191.46C266.346 190.02 267.126 188.72 268.286 187.56C269.446 186.36 270.826 185.4 272.426 184.68C274.026 183.96 275.686 183.6 277.406 183.6C279.806 183.6 281.806 184.08 283.406 185.04C285.046 186 286.266 187.46 287.066 189.42C287.906 191.34 288.326 193.74 288.326 196.62V216H279.806V197.22C279.806 195.78 279.606 194.58 279.206 193.62C278.806 192.66 278.206 191.96 277.406 191.52C276.606 191.08 275.586 190.88 274.346 190.92C273.386 190.92 272.506 191.08 271.706 191.4C270.906 191.68 270.186 192.1 269.546 192.66C268.946 193.22 268.486 193.86 268.166 194.58C267.846 195.3 267.686 196.1 267.686 196.98V216H263.426C262.546 216 261.746 216 261.026 216C260.306 216 259.686 216 259.166 216ZM308.97 216.6C306.21 216.6 303.71 215.9 301.47 214.5C299.27 213.1 297.53 211.16 296.25 208.68C295.01 206.16 294.39 203.32 294.39 200.16C294.39 196.96 295.01 194.12 296.25 191.64C297.53 189.16 299.27 187.2 301.47 185.76C303.67 184.32 306.17 183.6 308.97 183.6C310.45 183.6 311.87 183.84 313.23 184.32C314.63 184.76 315.87 185.38 316.95 186.18C318.03 186.98 318.91 187.88 319.59 188.88C320.27 189.84 320.67 190.84 320.79 191.88L318.63 192.3V171.6H327.09V216H319.05L318.69 208.68L320.37 208.92C320.33 209.88 319.99 210.82 319.35 211.74C318.71 212.66 317.85 213.5 316.77 214.26C315.73 214.98 314.53 215.56 313.17 216C311.85 216.4 310.45 216.6 308.97 216.6ZM310.83 209.52C312.47 209.52 313.87 209.12 315.03 208.32C316.23 207.52 317.17 206.42 317.85 205.02C318.53 203.62 318.87 202 318.87 200.16C318.87 198.28 318.53 196.64 317.85 195.24C317.17 193.8 316.23 192.7 315.03 191.94C313.87 191.14 312.47 190.74 310.83 190.74C309.27 190.74 307.89 191.14 306.69 191.94C305.49 192.7 304.55 193.8 303.87 195.24C303.23 196.64 302.91 198.28 302.91 200.16C302.91 202 303.23 203.62 303.87 205.02C304.55 206.42 305.49 207.52 306.69 208.32C307.89 209.12 309.27 209.52 310.83 209.52ZM352.917 216V196.14C352.917 194.46 352.397 193.18 351.357 192.3C350.357 191.38 348.997 190.92 347.277 190.92C345.637 190.92 344.177 191.24 342.897 191.88C341.617 192.52 340.417 193.52 339.297 194.88L334.077 189.84C335.997 187.84 338.137 186.3 340.497 185.22C342.897 184.14 345.497 183.6 348.297 183.6C350.857 183.6 353.077 184 354.957 184.8C356.877 185.6 358.357 186.8 359.397 188.4C360.437 190 360.957 192.02 360.957 194.46V216H352.917ZM344.217 216.6C342.217 216.6 340.397 216.2 338.757 215.4C337.157 214.6 335.877 213.5 334.917 212.1C333.997 210.66 333.537 208.98 333.537 207.06C333.537 205.42 333.837 203.98 334.437 202.74C335.037 201.46 335.917 200.42 337.077 199.62C338.277 198.78 339.757 198.14 341.517 197.7C343.317 197.26 345.397 197.04 347.757 197.04H357.117L356.577 202.74H347.637C346.677 202.74 345.817 202.82 345.057 202.98C344.337 203.14 343.717 203.4 343.197 203.76C342.717 204.12 342.337 204.54 342.057 205.02C341.817 205.5 341.697 206.06 341.697 206.7C341.697 207.38 341.877 207.98 342.237 208.5C342.597 209.02 343.077 209.42 343.677 209.7C344.317 209.98 345.037 210.12 345.837 210.12C346.997 210.12 348.097 209.92 349.137 209.52C350.217 209.12 351.177 208.56 352.017 207.84C352.857 207.12 353.517 206.3 353.997 205.38L355.617 209.64C354.777 211 353.757 212.2 352.557 213.24C351.357 214.28 350.057 215.1 348.657 215.7C347.257 216.3 345.777 216.6 344.217 216.6ZM368.56 216V184.26H376.78L376.96 190.32L375.7 190.68C376.1 189.64 376.66 188.7 377.38 187.86C378.14 186.98 379 186.24 379.96 185.64C380.92 185.04 381.94 184.56 383.02 184.2C384.14 183.84 385.24 183.66 386.32 183.66C388 183.66 389.48 183.92 390.76 184.44C392.08 184.96 393.2 185.78 394.12 186.9C395.04 188.02 395.74 189.48 396.22 191.28L394.96 191.04L395.38 190.14C395.9 189.22 396.56 188.36 397.36 187.56C398.16 186.76 399.06 186.08 400.06 185.52C401.06 184.92 402.1 184.46 403.18 184.14C404.26 183.82 405.32 183.66 406.36 183.66C408.84 183.66 410.88 184.16 412.48 185.16C414.12 186.16 415.34 187.64 416.14 189.6C416.98 191.52 417.4 193.92 417.4 196.8V216H408.88V197.4C408.88 195.24 408.44 193.64 407.56 192.6C406.72 191.56 405.42 191.04 403.66 191.04C402.74 191.04 401.88 191.2 401.08 191.52C400.28 191.8 399.6 192.22 399.04 192.78C398.48 193.34 398.04 193.98 397.72 194.7C397.4 195.42 397.24 196.22 397.24 197.1V216H388.72V197.28C388.72 195.28 388.26 193.74 387.34 192.66C386.46 191.58 385.18 191.04 383.5 191.04C382.62 191.04 381.78 191.2 380.98 191.52C380.18 191.8 379.5 192.22 378.94 192.78C378.38 193.3 377.94 193.94 377.62 194.7C377.3 195.42 377.14 196.22 377.14 197.1V216H368.56ZM440.575 216.6C437.135 216.6 434.115 215.9 431.515 214.5C428.955 213.1 426.955 211.18 425.515 208.74C424.115 206.3 423.415 203.52 423.415 200.4C423.415 197.92 423.815 195.66 424.615 193.62C425.415 191.54 426.535 189.76 427.975 188.28C429.415 186.8 431.115 185.66 433.075 184.86C435.075 184.02 437.255 183.6 439.615 183.6C441.775 183.6 443.755 184 445.555 184.8C447.395 185.56 448.975 186.66 450.295 188.1C451.655 189.5 452.695 191.16 453.415 193.08C454.135 195 454.475 197.1 454.435 199.38L454.375 202.02H428.875L427.495 196.74H447.355L446.335 197.82V196.56C446.255 195.44 445.895 194.46 445.255 193.62C444.655 192.78 443.875 192.12 442.915 191.64C441.955 191.12 440.895 190.86 439.735 190.86C437.935 190.86 436.415 191.22 435.175 191.94C433.975 192.62 433.055 193.62 432.415 194.94C431.815 196.22 431.515 197.82 431.515 199.74C431.515 201.62 431.915 203.28 432.715 204.72C433.515 206.12 434.655 207.2 436.135 207.96C437.655 208.72 439.435 209.1 441.475 209.1C442.875 209.1 444.155 208.88 445.315 208.44C446.475 208 447.735 207.24 449.095 206.16L453.115 211.86C451.995 212.86 450.735 213.72 449.335 214.44C447.935 215.16 446.495 215.7 445.015 216.06C443.535 216.42 442.055 216.6 440.575 216.6ZM460.73 216V184.26H468.95L469.19 190.74L467.51 191.46C467.91 190.02 468.69 188.72 469.85 187.56C471.01 186.36 472.39 185.4 473.99 184.68C475.59 183.96 477.25 183.6 478.97 183.6C481.37 183.6 483.37 184.08 484.97 185.04C486.61 186 487.83 187.46 488.63 189.42C489.47 191.34 489.89 193.74 489.89 196.62V216H481.37V197.22C481.37 195.78 481.17 194.58 480.77 193.62C480.37 192.66 479.77 191.96 478.97 191.52C478.17 191.08 477.15 190.88 475.91 190.92C474.95 190.92 474.07 191.08 473.27 191.4C472.47 191.68 471.75 192.1 471.11 192.66C470.51 193.22 470.05 193.86 469.73 194.58C469.41 195.3 469.25 196.1 469.25 196.98V216H464.99C464.11 216 463.31 216 462.59 216C461.87 216 461.25 216 460.73 216ZM501.112 216V176.22H509.632V216H501.112ZM495.172 191.88V184.26H516.173V191.88H495.172ZM538.952 216V196.14C538.952 194.46 538.433 193.18 537.393 192.3C536.393 191.38 535.032 190.92 533.312 190.92C531.672 190.92 530.213 191.24 528.933 191.88C527.653 192.52 526.453 193.52 525.333 194.88L520.112 189.84C522.032 187.84 524.172 186.3 526.532 185.22C528.932 184.14 531.532 183.6 534.332 183.6C536.892 183.6 539.112 184 540.992 184.8C542.912 185.6 544.392 186.8 545.432 188.4C546.472 190 546.993 192.02 546.993 194.46V216H538.952ZM530.252 216.6C528.252 216.6 526.432 216.2 524.792 215.4C523.192 214.6 521.912 213.5 520.952 212.1C520.032 210.66 519.572 208.98 519.572 207.06C519.572 205.42 519.873 203.98 520.473 202.74C521.073 201.46 521.953 200.42 523.113 199.62C524.313 198.78 525.793 198.14 527.553 197.7C529.353 197.26 531.433 197.04 533.793 197.04H543.152L542.612 202.74H533.673C532.713 202.74 531.852 202.82 531.092 202.98C530.372 203.14 529.752 203.4 529.232 203.76C528.752 204.12 528.373 204.54 528.093 205.02C527.853 205.5 527.732 206.06 527.732 206.7C527.732 207.38 527.912 207.98 528.272 208.5C528.632 209.02 529.112 209.42 529.712 209.7C530.352 209.98 531.072 210.12 531.872 210.12C533.032 210.12 534.133 209.92 535.173 209.52C536.253 209.12 537.212 208.56 538.052 207.84C538.892 207.12 539.553 206.3 540.033 205.38L541.652 209.64C540.812 211 539.792 212.2 538.592 213.24C537.392 214.28 536.092 215.1 534.692 215.7C533.292 216.3 531.812 216.6 530.252 216.6ZM554.715 216V171.6H563.235V216H554.715Z" fill="black"/>
<mask id="mask0_1732_934" style="mask-type:luminance" maskUnits="userSpaceOnUse" x="81" y="131" width="100" height="100">
<path d="M181 131H81V231H181V131Z" fill="white"/>
</mask>
<g mask="url(#mask0_1732_934)">
<path d="M138.111 177.761C128.637 185.557 130.356 187.008 127.087 194.154C134.732 192.33 135.821 194.312 145.304 186.511C154.786 178.71 161.808 170.071 165.079 162.924C157.434 164.75 147.595 169.966 138.111 177.761Z" fill="#A1FB8F" stroke="#333333" stroke-width="2" stroke-linecap="round" stroke-linejoin="round"/>
<path d="M123.874 177.761C133.349 185.557 131.629 187.008 134.898 194.154C127.253 192.33 126.164 194.312 116.682 186.511C107.199 178.71 100.177 170.071 96.9067 162.924C104.551 164.75 114.39 169.966 123.874 177.761Z" fill="#A1FB8F" stroke="#333333" stroke-width="2" stroke-linecap="round" stroke-linejoin="round"/>
<path d="M118.402 179.236C123.455 197.224 126.537 195.704 134.492 204.636C136.632 192.868 140.052 192.561 134.996 174.573C129.94 156.586 122.198 141.509 114.241 132.579C112.103 144.346 113.345 161.249 118.402 179.236Z" fill="#A1FB8F" stroke="#333333" stroke-width="2" stroke-linecap="round" stroke-linejoin="round"/>
<path d="M130.564 170.493C125.05 183.026 127.499 183.599 127.844 192.359C134.533 186.696 136.612 188.114 142.126 175.581C147.64 163.048 150.279 150.911 149.935 142.153C143.246 147.816 136.078 157.961 130.564 170.493Z" fill="#A1FB8F" stroke="#333333" stroke-width="2" stroke-linecap="round" stroke-linejoin="round"/>
<path d="M164.97 177.311H97.0156L108.712 229.421H153.274L164.97 177.311Z" fill="#E5E8ED" stroke="#333333" stroke-width="2" stroke-linecap="round" stroke-linejoin="round"/>
<path d="M160.995 189.944H100.99" stroke="#333333" stroke-width="2" stroke-linecap="round" stroke-linejoin="round"/>
<path d="M170.47 229.421H91.5161" stroke="#333333" stroke-width="2" stroke-miterlimit="10"/>
<path d="M123.098 163.297L114.413 133.623" stroke="#333333" stroke-width="2" stroke-linecap="round" stroke-linejoin="round"/>
</g>
</svg>
