<svg width="599" height="636" viewBox="0 0 599 636" fill="none" xmlns="http://www.w3.org/2000/svg">
<rect width="599" height="636" rx="12.5" fill="#DAD7CD"/>
<path d="M95.8763 395.342H99.3793V426.327H132.365V429.899H95.8763V395.342ZM92.6653 433.179H135.576V423.047H102.649V392.062H92.6653V433.179ZM91.2058 390.598H104.108L109.771 396.631V421.582H137.036L142.699 427.615V440.325H97.2191L91.2058 434.644V390.598ZM181.079 426.327C183.337 426.327 185.439 426.092 187.385 425.624C189.37 425.116 191.082 424.335 192.522 423.281C194.001 422.188 195.15 420.782 195.967 419.064C196.784 417.307 197.193 415.159 197.193 412.621C197.193 410.122 196.765 407.994 195.908 406.237C195.091 404.48 193.962 403.074 192.522 402.02C191.082 400.926 189.37 400.145 187.385 399.677C185.439 399.169 183.337 398.915 181.079 398.915H174.657C172.361 398.915 170.22 399.169 168.235 399.677C166.289 400.145 164.596 400.926 163.156 402.02C161.716 403.074 160.568 404.48 159.712 406.237C158.894 407.994 158.486 410.122 158.486 412.621C158.486 415.159 158.894 417.307 159.712 419.064C160.568 420.782 161.716 422.188 163.156 423.281C164.596 424.374 166.289 425.155 168.235 425.624C170.22 426.092 172.361 426.327 174.657 426.327H181.079ZM174.657 423.047C172.906 423.047 171.252 422.871 169.695 422.519C168.138 422.168 166.776 421.602 165.608 420.821C164.441 420.001 163.506 418.927 162.806 417.599C162.105 416.272 161.755 414.612 161.755 412.621C161.755 410.669 162.105 409.029 162.806 407.701C163.506 406.373 164.441 405.3 165.608 404.48C166.815 403.66 168.196 403.074 169.753 402.722C171.31 402.371 172.945 402.195 174.657 402.195H181.079C182.792 402.195 184.427 402.371 185.984 402.722C187.54 403.074 188.903 403.66 190.07 404.48C191.238 405.3 192.172 406.373 192.873 407.701C193.573 409.029 193.923 410.669 193.923 412.621C193.923 414.573 193.573 416.213 192.873 417.541C192.211 418.868 191.296 419.942 190.129 420.762C188.961 421.582 187.599 422.168 186.042 422.519C184.485 422.871 182.831 423.047 181.079 423.047H174.657ZM154.808 412.621C154.808 409.458 155.294 406.783 156.267 404.597C157.279 402.41 158.661 400.633 160.412 399.267C162.203 397.861 164.304 396.865 166.717 396.28C169.169 395.655 171.816 395.342 174.657 395.342H181.079C183.921 395.342 186.548 395.655 188.961 396.28C191.374 396.904 193.456 397.9 195.208 399.267C196.998 400.633 198.38 402.41 199.353 404.597C200.365 406.783 200.871 409.458 200.871 412.621C200.871 415.784 200.365 418.459 199.353 420.645C198.38 422.832 196.998 424.608 195.208 425.975C193.456 427.342 191.374 428.338 188.961 428.962C186.548 429.587 183.921 429.899 181.079 429.899H174.657C171.816 429.899 169.169 429.607 166.717 429.021C164.304 428.396 162.203 427.4 160.412 426.034C158.661 424.628 157.279 422.832 156.267 420.645C155.294 418.459 154.808 415.784 154.808 412.621ZM151.538 412.621C151.538 416.33 152.102 419.493 153.231 422.109C154.399 424.687 155.995 426.795 158.019 428.435C160.081 430.075 162.514 431.286 165.316 432.067C168.158 432.808 171.271 433.179 174.657 433.179H181.079C184.466 433.179 187.56 432.808 190.362 432.067C193.165 431.286 195.578 430.075 197.602 428.435C199.664 426.795 201.26 424.687 202.389 422.109C203.518 419.493 204.082 416.33 204.082 412.621C204.082 408.911 203.518 405.768 202.389 403.191C201.26 400.575 199.664 398.447 197.602 396.807C195.578 395.167 193.165 393.976 190.362 393.234C187.56 392.453 184.466 392.062 181.079 392.062H174.657C171.271 392.062 168.158 392.453 165.316 393.234C162.514 393.976 160.081 395.167 158.019 396.807C155.995 398.447 154.399 400.575 153.231 403.191C152.102 405.768 151.538 408.911 151.538 412.621ZM150.079 412.621C150.079 408.638 150.682 405.26 151.888 402.488C153.095 399.677 154.788 397.392 156.968 395.635C159.147 393.878 161.736 392.609 164.732 391.828C167.768 391.008 171.077 390.598 174.657 390.598H181.079C183.337 390.598 185.458 390.735 187.443 391.008C189.467 391.242 191.452 391.77 193.398 392.59C195.344 393.371 197.271 394.503 199.178 395.987C201.124 397.431 203.128 399.384 205.191 401.844C206.943 403.601 208.383 405.924 209.512 408.814C210.64 411.703 211.205 414.925 211.205 418.478C211.205 422.422 210.601 425.78 209.395 428.552C208.227 431.325 206.553 433.57 204.374 435.288C202.233 437.045 199.664 438.314 196.667 439.095C193.709 439.915 190.459 440.325 186.918 440.325H180.496C176.526 440.325 172.828 439.876 169.403 438.978C165.978 438.08 163.156 436.537 160.938 434.351C158.719 432.398 156.909 430.563 155.508 428.845C154.107 427.088 152.998 425.35 152.18 423.632C151.402 421.914 150.857 420.157 150.546 418.361C150.234 416.565 150.079 414.651 150.079 412.621ZM181.079 421.582C182.597 421.582 184.037 421.446 185.4 421.172C186.801 420.86 188.027 420.352 189.078 419.649C190.129 418.947 190.946 418.029 191.53 416.897C192.153 415.725 192.464 414.3 192.464 412.621C192.464 411.684 192.347 410.825 192.114 410.044C190.518 409.575 188.786 409.341 186.918 409.341H180.496C178.939 409.341 177.46 409.497 176.059 409.809C174.657 410.122 173.412 410.629 172.322 411.332C171.271 412.035 170.434 412.972 169.812 414.144C169.189 415.315 168.878 416.76 168.878 418.478C168.878 419.415 168.955 420.196 169.111 420.821C169.928 421.094 170.804 421.289 171.738 421.407C172.672 421.524 173.645 421.582 174.657 421.582H181.079ZM261.306 402.43C259.555 401.102 257.589 400.184 255.41 399.677C253.269 399.169 251.109 398.915 248.929 398.915H242.565C240.308 398.915 238.187 399.169 236.202 399.677C234.256 400.145 232.563 400.926 231.123 402.02C229.683 403.074 228.534 404.48 227.678 406.237C226.861 407.994 226.452 410.122 226.452 412.621C226.452 415.159 226.861 417.307 227.678 419.064C228.495 420.782 229.624 422.188 231.064 423.281C232.543 424.335 234.256 425.116 236.202 425.624C238.148 426.092 240.269 426.327 242.565 426.327H248.929C250.953 426.327 252.88 426.112 254.709 425.682C256.577 425.214 258.251 424.511 259.73 423.574C261.209 422.598 262.474 421.368 263.525 419.884C264.576 418.361 265.334 416.526 265.802 414.378H249.688V410.864H269.888V412.621C269.888 415.862 269.324 418.595 268.195 420.821C267.066 423.008 265.549 424.784 263.641 426.151C261.734 427.478 259.516 428.435 256.986 429.021C254.456 429.607 251.77 429.899 248.929 429.899H242.565C239.724 429.899 237.097 429.587 234.684 428.962C232.271 428.338 230.169 427.342 228.379 425.975C226.627 424.608 225.245 422.832 224.234 420.645C223.222 418.459 222.716 415.784 222.716 412.621C222.716 409.458 223.222 406.783 224.234 404.597C225.245 402.41 226.627 400.633 228.379 399.267C230.169 397.9 232.271 396.904 234.684 396.28C237.097 395.655 239.724 395.342 242.565 395.342H248.929C250.369 395.342 251.809 395.401 253.249 395.518C254.689 395.596 256.091 395.791 257.453 396.104C258.815 396.416 260.138 396.865 261.423 397.451C262.746 397.998 263.972 398.759 265.101 399.735L261.306 402.43ZM270.063 400.555C268.701 398.759 267.222 397.314 265.626 396.221C264.031 395.128 262.338 394.269 260.547 393.644C258.796 393.019 256.947 392.609 255.001 392.414C253.055 392.18 251.031 392.062 248.929 392.062H242.565C239.179 392.062 236.085 392.453 233.283 393.234C230.48 393.976 228.048 395.167 225.985 396.807C223.961 398.447 222.385 400.575 221.256 403.191C220.127 405.768 219.563 408.911 219.563 412.621C219.563 416.33 220.127 419.493 221.256 422.109C222.385 424.687 223.961 426.795 225.985 428.435C228.048 430.075 230.48 431.286 233.283 432.067C236.085 432.808 239.179 433.179 242.565 433.179H248.929C252.276 433.179 255.41 432.828 258.329 432.125C261.287 431.383 263.855 430.212 266.035 428.611C268.215 426.971 269.927 424.843 271.173 422.227C272.457 419.61 273.099 416.409 273.099 412.621V407.642H246.419V417.599H261.598C260.975 418.654 260.177 419.532 259.204 420.235C258.231 420.938 257.161 421.504 255.993 421.934C254.865 422.324 253.678 422.617 252.432 422.812C251.225 422.968 250.058 423.047 248.929 423.047H242.565C240.814 423.047 239.16 422.871 237.603 422.519C236.046 422.168 234.684 421.602 233.516 420.821C232.349 420.001 231.415 418.927 230.714 417.599C230.013 416.272 229.663 414.612 229.663 412.621C229.663 410.669 230.013 409.029 230.714 407.701C231.415 406.373 232.349 405.3 233.516 404.48C234.723 403.66 236.105 403.074 237.661 402.722C239.218 402.371 240.853 402.195 242.565 402.195H248.929C251.225 402.195 253.425 402.566 255.526 403.308C257.628 404.011 259.496 405.221 261.131 406.94L270.063 400.555ZM228.904 434.058C226.724 432.184 224.934 430.407 223.533 428.728C222.132 427.049 221.023 425.37 220.205 423.691C219.427 421.973 218.882 420.235 218.57 418.478C218.259 416.682 218.103 414.729 218.103 412.621C218.103 408.638 218.707 405.26 219.913 402.488C221.12 399.677 222.793 397.392 224.934 395.635C227.114 393.878 229.702 392.609 232.699 391.828C235.696 391.008 238.985 390.598 242.565 390.598H248.929C251.07 390.598 253.133 390.696 255.118 390.891C257.103 391.086 259.029 391.496 260.897 392.121C262.766 392.707 264.556 393.605 266.269 394.815C268.02 395.987 269.713 397.568 271.348 399.56C272.515 400.731 273.469 401.707 274.209 402.488C274.948 403.269 275.532 403.933 275.96 404.48C276.427 405.026 276.777 405.475 277.011 405.827C277.283 406.139 277.517 406.432 277.711 406.705L275.96 407.935L280.222 412.211V418.478C280.222 422.5 279.56 425.897 278.237 428.669C276.914 431.442 275.104 433.687 272.807 435.405C270.511 437.162 267.806 438.412 264.692 439.154C261.617 439.935 258.309 440.325 254.767 440.325H248.404C244.434 440.325 240.736 439.817 237.311 438.802C233.886 437.826 231.084 436.245 228.904 434.058ZM244.959 409.692C243.792 409.888 242.702 410.2 241.69 410.629C240.717 411.02 239.86 411.567 239.121 412.269C238.381 412.972 237.798 413.851 237.369 414.905C236.98 415.92 236.786 417.111 236.786 418.478C236.786 419.415 236.864 420.196 237.019 420.821C237.837 421.094 238.712 421.289 239.646 421.407C240.58 421.524 241.554 421.582 242.565 421.582H247.82L244.959 419.064V409.692ZM329.935 417.189L317.616 399.677L305.006 417.189H329.935ZM323.63 414.027H311.253L317.5 405.241L323.63 414.027ZM338.634 429.899L332.329 420.821H302.495C301.406 422.305 300.335 423.828 299.284 425.389C298.272 426.912 297.221 428.416 296.132 429.899H291.461C295.587 424.081 299.693 418.322 303.78 412.621C307.905 406.92 312.012 401.16 316.098 395.342H318.901L343.012 429.899H338.634ZM314.522 392.062L285.331 433.179H297.708L304.13 424.101H330.519L336.882 433.179H349.259L320.652 392.062H314.522ZM327.191 396.631L357.55 440.325H342.02L336.123 434.644L333.73 431.247H310.669C310.202 431.949 309.676 432.691 309.092 433.472C308.548 434.253 307.983 435.034 307.399 435.815C306.854 436.635 306.31 437.416 305.765 438.158C305.22 438.939 304.714 439.661 304.247 440.325H288.659L282.47 434.644L313.763 390.598H321.411L327.191 396.631ZM367.674 400.907V429.899H364.23V395.342H367.207L398.558 424.335V395.342H402.061V429.899H399.142L367.674 400.907ZM405.331 392.062H395.347V416.955L368.317 392.062H360.96V433.179H370.944V408.228L398.033 433.179H405.331V392.062ZM359.501 434.644V390.598H368.842L393.888 413.617V390.598H406.79L412.453 396.631V440.325H403.346L378.066 417.072V440.325H365.514L359.501 434.644ZM429.481 401.551L430.299 399.501V394.112H434.035V398.505L431.466 401.551H429.481ZM432.867 404.831L437.246 399.794V390.832H427.088V398.798L424.577 404.831H432.867ZM422.417 406.295L425.628 398.622V389.368H438.706L444.369 395.401V406.12L439.289 411.977H428.547L422.417 406.295ZM460.291 421.875C461.536 423.086 462.918 424.003 464.436 424.628C465.954 425.253 467.53 425.702 469.165 425.975C470.799 426.209 472.473 426.346 474.186 426.385C475.898 426.385 477.552 426.385 479.148 426.385C479.732 426.385 480.51 426.366 481.483 426.327C482.495 426.288 483.566 426.209 484.694 426.092C485.862 425.936 487.03 425.741 488.197 425.507C489.365 425.233 490.416 424.882 491.35 424.452C492.323 424.023 493.101 423.515 493.685 422.929C494.308 422.305 494.619 421.563 494.619 420.704C494.619 419.845 494.289 419.103 493.627 418.478C493.004 417.814 492.187 417.248 491.175 416.779C490.163 416.311 489.015 415.92 487.73 415.608C486.485 415.257 485.239 415.003 483.994 414.847C482.748 414.651 481.581 414.515 480.491 414.437C479.44 414.359 478.584 414.319 477.922 414.319H477.98C477.046 414.28 475.898 414.183 474.536 414.027C473.174 413.87 471.753 413.636 470.274 413.324C468.795 413.011 467.316 412.621 465.837 412.152C464.358 411.645 463.035 411.039 461.867 410.337C460.699 409.634 459.746 408.814 459.006 407.877C458.267 406.9 457.897 405.788 457.897 404.538C457.897 403.171 458.247 402 458.948 401.024C459.687 400.048 460.622 399.228 461.75 398.564C462.918 397.861 464.222 397.314 465.662 396.924C467.102 396.494 468.561 396.162 470.04 395.928C471.519 395.694 472.921 395.538 474.244 395.46C475.606 395.381 476.754 395.342 477.689 395.342C479.206 395.342 480.744 395.421 482.301 395.577C483.896 395.694 485.453 395.928 486.971 396.28C488.489 396.631 489.968 397.119 491.408 397.744C492.848 398.33 494.172 399.091 495.378 400.028L492.284 402.254C491.155 401.473 489.968 400.868 488.723 400.438C487.477 399.97 486.193 399.618 484.87 399.384C483.546 399.15 482.203 399.013 480.841 398.974C479.479 398.896 478.156 398.857 476.871 398.857C475.976 398.857 474.75 398.915 473.193 399.032C471.675 399.15 470.157 399.403 468.639 399.794C467.16 400.145 465.876 400.711 464.786 401.492C463.696 402.234 463.151 403.25 463.151 404.538C463.151 405.788 463.677 406.803 464.728 407.584C465.779 408.326 467.16 408.931 468.873 409.399C470.585 409.829 472.531 410.18 474.711 410.454C476.93 410.688 479.187 410.942 481.483 411.215C483.78 411.489 486.018 411.82 488.197 412.211C490.416 412.562 492.381 413.089 494.094 413.792C495.806 414.456 497.188 415.354 498.239 416.487C499.29 417.58 499.815 418.986 499.815 420.704C499.815 421.914 499.446 422.988 498.706 423.925C498.006 424.862 497.071 425.682 495.904 426.385C494.736 427.049 493.413 427.615 491.934 428.084C490.494 428.513 489.034 428.865 487.555 429.138C486.115 429.411 484.733 429.607 483.41 429.724C482.087 429.841 480.997 429.899 480.141 429.899H475.762C474.166 429.899 472.493 429.841 470.741 429.724C468.99 429.607 467.277 429.353 465.603 428.962C463.93 428.533 462.334 427.947 460.816 427.205C459.298 426.463 457.955 425.448 456.788 424.159L460.291 421.875ZM451.942 422.929C453.499 425.468 455.348 427.439 457.488 428.845C459.629 430.212 461.945 431.227 464.436 431.891C466.927 432.516 469.496 432.887 472.142 433.004C474.828 433.121 477.494 433.179 480.141 433.179C481.308 433.179 482.69 433.101 484.286 432.945C485.881 432.75 487.536 432.457 489.248 432.067C490.961 431.676 492.634 431.168 494.269 430.544C495.943 429.88 497.422 429.099 498.706 428.201C500.029 427.264 501.08 426.19 501.859 424.979C502.676 423.73 503.085 422.305 503.085 420.704C503.085 418.79 502.657 417.17 501.8 415.842C500.983 414.476 499.893 413.343 498.531 412.445C497.208 411.508 495.67 410.766 493.919 410.219C492.206 409.634 490.435 409.185 488.606 408.872C486.777 408.56 484.986 408.326 483.235 408.17C481.483 408.013 479.927 407.877 478.564 407.76C478.097 407.72 477.202 407.642 475.879 407.525C474.555 407.369 473.193 407.174 471.792 406.94C470.391 406.666 469.145 406.334 468.055 405.944C466.966 405.553 466.421 405.085 466.421 404.538C466.421 403.913 466.927 403.445 467.939 403.132C468.951 402.82 470.099 402.586 471.383 402.43C472.707 402.273 473.972 402.195 475.178 402.195C476.424 402.156 477.26 402.137 477.689 402.137C478.934 402.137 480.199 402.195 481.483 402.312C482.768 402.39 484.013 402.586 485.22 402.898C486.465 403.21 487.633 403.66 488.723 404.245C489.851 404.831 490.883 405.592 491.817 406.53L500.341 400.79C498.862 398.759 497.188 397.178 495.32 396.045C493.452 394.874 491.467 393.995 489.365 393.41C487.263 392.824 485.064 392.453 482.768 392.297C480.51 392.141 478.233 392.062 475.937 392.062C474.731 392.062 473.349 392.16 471.792 392.355C470.274 392.511 468.717 392.785 467.121 393.175C465.565 393.566 464.027 394.073 462.509 394.698C461.03 395.323 459.707 396.104 458.539 397.041C457.372 397.978 456.437 399.071 455.737 400.321C455.036 401.531 454.686 402.937 454.686 404.538C454.686 406.373 455.134 407.955 456.029 409.282C456.924 410.61 458.111 411.742 459.59 412.679C461.069 413.617 462.743 414.378 464.611 414.964C466.479 415.549 468.367 416.038 470.274 416.428C472.22 416.779 474.088 417.072 475.879 417.307C477.708 417.502 479.304 417.678 480.666 417.834C481.055 417.873 481.814 417.951 482.943 418.068C484.111 418.185 485.317 418.361 486.563 418.595C487.808 418.79 488.917 419.064 489.89 419.415C490.863 419.767 491.35 420.196 491.35 420.704C491.35 421.133 491.039 421.504 490.416 421.817C489.793 422.09 488.995 422.324 488.022 422.519C487.049 422.676 485.979 422.793 484.811 422.871C483.644 422.949 482.495 423.008 481.367 423.047C480.277 423.086 479.284 423.105 478.389 423.105C477.533 423.105 476.93 423.105 476.579 423.105C475.1 423.105 473.641 423.047 472.201 422.929C470.761 422.773 469.359 422.5 467.997 422.109C466.635 421.68 465.35 421.094 464.144 420.352C462.937 419.61 461.848 418.615 460.875 417.365L451.942 422.929ZM460.407 415.901L457.605 413.031C456.243 412.016 455.173 410.825 454.394 409.458C453.616 408.052 453.226 406.412 453.226 404.538C453.226 402.742 453.596 401.16 454.336 399.794C455.114 398.388 456.126 397.178 457.372 396.162C458.617 395.147 460.038 394.288 461.633 393.585C463.229 392.843 464.864 392.258 466.538 391.828C468.211 391.399 469.865 391.086 471.5 390.891C473.135 390.696 474.614 390.598 475.937 390.598C478.233 390.598 480.549 390.676 482.885 390.832C485.22 390.95 487.497 391.301 489.715 391.887C491.973 392.472 494.133 393.371 496.196 394.581C498.258 395.791 500.185 397.49 501.975 399.677C503.182 400.887 504.136 401.902 504.836 402.722C505.537 403.503 506.082 404.167 506.471 404.714C506.899 405.26 507.21 405.71 507.405 406.061C507.6 406.373 507.794 406.666 507.989 406.94L500.516 411.977C500.711 412.172 500.925 412.348 501.158 412.504C501.431 412.621 501.8 412.875 502.267 413.265C502.734 413.656 503.338 414.222 504.077 414.964C504.856 415.667 505.887 416.682 507.171 418.009C508.106 418.986 508.845 420.235 509.39 421.758C509.935 423.281 510.207 424.882 510.207 426.561C510.207 428.318 509.779 429.88 508.923 431.247C508.067 432.613 506.957 433.804 505.595 434.819C504.233 435.835 502.676 436.694 500.925 437.397C499.173 438.099 497.402 438.666 495.612 439.095C493.821 439.525 492.07 439.837 490.357 440.032C488.684 440.227 487.224 440.325 485.979 440.325C483.682 440.325 481.347 440.325 478.973 440.325C476.599 440.325 474.263 440.13 471.967 439.739C469.71 439.349 467.511 438.705 465.37 437.807C463.229 436.908 461.264 435.542 459.473 433.707C457.955 432.301 456.671 431.071 455.62 430.017C454.608 428.923 453.732 427.947 452.993 427.088C452.292 426.19 451.689 425.37 451.183 424.628C450.716 423.886 450.268 423.164 449.84 422.461L460.407 415.901Z" fill="#3A5A40"/>
<path d="M160.346 490.973H168.552V494.946H155.351V469.962H160.346V490.973ZM191.992 490.185H182.074L180.432 494.946H175.188L184.143 469.926H189.958L198.914 494.946H193.633L191.992 490.185ZM190.636 486.176L187.033 475.725L183.429 486.176H190.636ZM228.556 494.946H223.561L212.251 477.801V494.946H207.256V469.926H212.251L223.561 487.107V469.926H228.556V494.946ZM247.192 469.962C249.808 469.962 252.104 470.476 254.078 471.501C256.076 472.526 257.61 473.994 258.68 475.904C259.775 477.788 260.321 479.984 260.321 482.49C260.321 484.995 259.775 487.192 258.68 489.076C257.61 490.937 256.076 492.382 254.078 493.407C252.104 494.432 249.808 494.946 247.192 494.946H238.487V469.962H247.192ZM247.014 490.686C249.63 490.686 251.652 489.97 253.079 488.539C254.506 487.107 255.219 485.09 255.219 482.49C255.219 479.89 254.506 477.859 253.079 476.405C251.652 474.924 249.63 474.186 247.014 474.186H243.481V490.686H247.014ZM277.654 495.196C275.918 495.196 274.348 494.897 272.944 494.302C271.565 493.706 270.47 492.847 269.662 491.724C268.853 490.602 268.437 489.277 268.413 487.751H273.765C273.836 488.776 274.193 489.59 274.835 490.185C275.501 490.781 276.405 491.08 277.547 491.08C278.712 491.08 279.628 490.807 280.294 490.257C280.96 489.684 281.293 488.946 281.293 488.038C281.293 487.299 281.067 486.691 280.615 486.212C280.163 485.734 279.592 485.366 278.902 485.103C278.237 484.816 277.309 484.507 276.12 484.172C274.502 483.694 273.182 483.228 272.159 482.776C271.16 482.298 270.292 481.595 269.555 480.664C268.841 479.711 268.485 478.445 268.485 476.87C268.485 475.39 268.853 474.101 269.591 473.004C270.328 471.908 271.362 471.072 272.695 470.499C274.027 469.903 275.549 469.604 277.261 469.604C279.83 469.604 281.911 470.235 283.505 471.501C285.122 472.741 286.014 474.485 286.181 476.727H280.686C280.639 475.868 280.27 475.165 279.58 474.615C278.914 474.042 278.023 473.756 276.905 473.756C275.929 473.756 275.144 474.007 274.55 474.508C273.979 475.009 273.694 475.738 273.694 476.691C273.694 477.358 273.908 477.921 274.336 478.373C274.788 478.803 275.335 479.161 275.977 479.447C276.643 479.711 277.57 480.02 278.76 480.378C280.377 480.856 281.697 481.331 282.72 481.81C283.743 482.288 284.623 483.004 285.36 483.957C286.097 484.911 286.466 486.163 286.466 487.716C286.466 489.053 286.121 490.293 285.432 491.438C284.742 492.583 283.731 493.501 282.399 494.194C281.067 494.861 279.485 495.196 277.654 495.196ZM294.578 482.418C294.578 479.961 295.126 477.765 296.22 475.832C297.338 473.876 298.848 472.36 300.751 471.286C302.677 470.19 304.83 469.64 307.208 469.64C309.991 469.64 312.429 470.356 314.522 471.787C316.615 473.219 318.078 475.201 318.911 477.729H313.167C312.596 476.535 311.787 475.64 310.741 475.045C309.718 474.449 308.528 474.15 307.173 474.15C305.722 474.15 304.425 474.495 303.284 475.188C302.166 475.855 301.286 476.812 300.644 478.051C300.025 479.291 299.716 480.749 299.716 482.418C299.716 484.065 300.025 485.519 300.644 486.785C301.286 488.025 302.166 488.991 303.284 489.684C304.425 490.351 305.722 490.686 307.173 490.686C308.528 490.686 309.718 490.387 310.741 489.792C311.787 489.17 312.596 488.265 313.167 487.071H318.911C318.078 489.626 316.615 491.617 314.522 493.049C312.453 494.458 310.015 495.161 307.208 495.161C304.83 495.161 302.677 494.624 300.751 493.55C298.848 492.453 297.338 490.937 296.22 489.004C295.126 487.071 294.578 484.875 294.578 482.418ZM343.442 490.185H333.524L331.883 494.946H326.638L335.593 469.926H341.409L350.364 494.946H345.083L343.442 490.185ZM342.086 486.176L338.483 475.725L334.88 486.176H342.086ZM376.866 477.693C376.866 479.031 376.545 480.283 375.903 481.452C375.284 482.62 374.297 483.563 372.941 484.279C371.609 484.995 369.921 485.353 367.875 485.353H363.701V494.946H358.706V469.962H367.875C369.802 469.962 371.443 470.297 372.799 470.964C374.154 471.631 375.165 472.552 375.831 473.72C376.521 474.888 376.866 476.213 376.866 477.693ZM367.661 481.308C369.041 481.308 370.063 480.999 370.729 480.378C371.395 479.734 371.728 478.839 371.728 477.693C371.728 475.259 370.373 474.042 367.661 474.042H363.701V481.308H367.661ZM390.402 469.962V494.946H385.407V469.962H390.402ZM421.632 494.946H416.637L405.327 477.801V494.946H400.332V469.926H405.327L416.637 487.107V469.926H421.632V494.946ZM448.903 477.479C448.332 476.428 447.547 475.63 446.548 475.08C445.549 474.53 444.382 474.257 443.052 474.257C441.576 474.257 440.269 474.592 439.127 475.259C437.986 475.926 437.094 476.883 436.451 478.123C435.809 479.363 435.488 480.794 435.488 482.418C435.488 484.087 435.809 485.545 436.451 486.785C437.116 488.025 438.031 488.981 439.199 489.648C440.363 490.315 441.719 490.651 443.266 490.651C445.167 490.651 446.727 490.149 447.94 489.147C449.153 488.122 449.947 486.7 450.33 484.888H441.767V481.058H455.254V485.425C454.92 487.166 454.206 488.776 453.113 490.257C452.017 491.737 450.603 492.928 448.867 493.836C447.155 494.718 445.228 495.161 443.087 495.161C440.684 495.161 438.508 494.624 436.558 493.55C434.632 492.453 433.107 490.937 431.992 489.004C430.895 487.071 430.35 484.875 430.35 482.418C430.35 479.961 430.895 477.765 431.992 475.832C433.107 473.876 434.632 472.36 436.558 471.286C438.508 470.19 440.671 469.64 443.052 469.64C445.857 469.64 448.296 470.333 450.366 471.716C452.435 473.076 453.862 474.996 454.647 477.479H448.903Z" fill="#3A5A40"/>
<path d="M240.463 519.35H366.957" stroke="#3A5A40" stroke-linecap="round"/>
<mask id="mask0_1567_550" style="mask-type:luminance" maskUnits="userSpaceOnUse" x="227" y="146" width="158" height="187">
<path d="M384.243 146.773H227.489V332.248H384.243V146.773Z" fill="white"/>
</mask>
<g mask="url(#mask0_1567_550)">
<path d="M336.674 300.676C337.955 299.104 339.16 297.426 340.535 295.993C341.745 294.733 343.12 293.689 344.473 292.651C345.727 291.689 347.051 290.859 348.453 290.19C347.434 291.461 346.465 292.8 345.387 293.995C342.369 297.337 339.476 300.814 337.363 305.091C335.542 308.777 333.967 312.618 333.192 316.865C332.851 318.737 332.484 320.602 332.128 322.47C332.23 322.527 332.333 322.583 332.436 322.64C332.63 322.296 332.835 321.96 333.019 321.608C335.396 317.1 337.56 312.398 340.2 308.126C343.598 302.622 347.596 297.765 352.821 294.705C353.451 294.337 354.115 294.052 354.812 293.835C346.743 302.327 339.467 311.403 337.563 324.958C343.152 310.175 352.359 301.351 365.791 299.484C361.434 301.755 357.26 304.446 353.34 307.736C349.336 311.094 345.951 315.165 343.15 320.103C349.466 323.407 355.717 326.679 361.971 329.95C361.944 330.037 361.917 330.121 361.89 330.207C360.577 329.888 359.27 329.532 357.952 329.256C357.074 329.072 356.179 328.887 355.293 328.887C321.186 328.871 287.08 328.874 252.975 328.898C251.708 328.898 250.444 329.18 249.177 329.316C248.982 329.337 248.78 329.272 248.569 329.126C254.469 325.573 260.934 324.258 267.183 322.02C265.605 317.098 262.647 313.704 259.105 310.799C254.707 307.194 249.831 305.227 244.725 303.847C241.783 303.05 238.814 302.755 235.807 302.836C235.639 302.842 235.47 302.725 235.34 302.514C246.438 299.565 256.325 302.82 265.289 311.07C260.145 302.196 253.086 295.906 245.93 289.689C250.66 291.223 254.947 293.844 258.878 297.353C262.855 300.904 266.753 304.555 269.687 309.487C269.765 309.447 269.844 309.406 269.922 309.368C269.787 308.799 269.654 308.227 269.52 307.658C268.45 303.194 267.526 298.668 266.272 294.28C264.903 289.491 263.398 284.737 261.644 280.138C259.751 275.169 256.893 270.96 253.264 267.684C250.174 264.887 246.894 262.391 243.698 259.759C243.442 259.548 243.206 259.303 243.001 258.951C245.53 259.133 247.95 259.884 250.201 261.222C252.424 262.545 254.556 264.095 257.009 265.735C248.793 245.671 242.531 224.943 236.909 203.881C237.458 205.079 238.06 206.247 238.544 207.483C241.383 214.76 244.185 222.062 247.021 229.341C250.841 239.142 254.658 248.942 258.527 258.716C260.099 262.683 261.661 266.676 263.484 270.473C265.394 274.446 267.612 278.202 269.698 282.054C269.973 282.56 270.265 283.056 270.719 283.422C268.979 276.316 267.239 269.212 265.5 262.106C265.594 262.071 265.689 262.033 265.783 261.997C267.718 266.638 269.652 271.278 271.586 275.918C271.675 275.877 271.764 275.836 271.856 275.796C271.662 275.04 271.451 274.286 271.273 273.525C270.008 268.082 268.704 262.653 267.504 257.187C266.259 251.509 265.046 245.82 263.957 240.096C262.909 234.594 261.985 229.057 261.099 223.512C260.248 218.175 259.4 212.83 258.768 207.453C258.116 201.929 257.519 196.374 257.271 190.809C256.944 183.451 256.955 176.068 256.876 168.696C256.852 166.278 257.009 163.861 257.279 161.432C257.374 162.725 257.473 164.015 257.565 165.308C257.96 170.867 258.319 176.429 258.751 181.982C259.11 186.603 259.435 191.238 259.988 195.826C260.615 201.04 261.382 206.236 262.266 211.394C263.368 217.831 264.538 224.254 265.883 230.621C267.801 239.692 269.873 248.717 271.937 257.743C273.485 264.51 275.217 271.218 276.703 278.005C278.383 285.68 279.885 293.412 281.458 301.123C282.719 307.305 283.986 313.485 285.215 319.675C285.623 321.724 285.92 323.803 286.277 325.865C286.318 326.107 286.404 326.334 286.645 326.524C285.337 315.157 284.029 303.79 282.725 292.423C282.765 292.418 282.806 292.412 282.846 292.41C284.021 297.294 285.199 302.178 286.347 306.942C286.166 303.44 285.983 299.822 285.788 296.207C285.437 289.585 285.059 282.967 284.732 276.346C284.554 272.706 284.483 269.058 284.316 265.415C284.127 261.301 283.103 257.406 281.787 253.674C279.996 248.592 278.002 243.614 276.001 238.646C273.636 232.781 270.857 227.2 267.896 221.75C267.188 220.446 266.613 219.034 265.986 217.695C267.455 218.522 272.291 225.509 275.847 232.301C278.618 237.597 281.171 243.042 283.176 248.888C280.961 225.856 279.156 202.791 275.906 179.946C275.995 179.925 276.087 179.903 276.176 179.881C276.703 181.995 277.232 184.109 277.754 186.226C278.84 190.62 279.823 195.051 281.023 199.398C283.035 206.683 285.164 213.923 287.274 221.167C289.875 230.1 292.161 239.153 293.941 248.376C295.141 254.579 296.149 260.838 297.183 267.085C297.556 269.343 297.753 271.641 298.072 274.27C299.174 255.721 302.227 237.952 306.155 220.365C305.925 222.26 305.706 224.154 305.466 226.043C304.834 231.005 304.18 235.965 303.562 240.931C302.954 245.785 302.322 250.633 301.803 255.501C301.411 259.184 301.171 262.895 300.881 266.594C300.56 270.722 300.155 274.847 299.985 278.986C299.833 282.631 299.931 286.292 299.963 289.946C300.006 294.724 300.055 299.503 300.169 304.278C300.312 310.257 300.484 316.236 300.725 322.209C300.787 323.771 301.146 325.313 301.368 326.863C301.462 326.863 301.554 326.866 301.649 326.866C301.649 326.491 301.646 326.118 301.649 325.743C301.703 321.274 301.66 316.8 301.835 312.338C302.046 307.048 302.462 301.768 302.756 296.481C302.875 294.356 302.919 292.225 302.984 290.098C303.235 281.799 303.453 273.497 303.734 265.198C303.888 260.667 304.078 256.133 304.369 251.612C304.647 247.33 305.093 243.064 305.447 238.79C305.804 234.472 306.141 230.152 306.484 225.832C306.522 225.344 306.563 224.856 306.76 224.374C306.785 224.655 306.828 224.94 306.828 225.222C306.836 230.897 306.909 236.575 306.825 242.248C306.693 251.335 306.498 260.42 306.25 269.502C305.909 282.013 305.933 294.524 306.304 307.032C306.425 311.141 306.695 315.244 306.984 319.35C307.057 317.865 307.117 316.379 307.211 314.897C307.579 309.094 307.949 303.291 308.338 297.492C308.513 294.865 308.7 292.239 308.946 289.621C309.148 287.458 308.114 285.726 307.687 283.786C307.6 283.39 307.484 283.005 307.384 282.615C307.484 282.547 307.584 282.479 307.687 282.411C308.246 283.528 308.808 284.645 309.367 285.761C309.456 285.756 309.545 285.753 309.637 285.748C309.637 284.577 309.583 283.401 309.648 282.235C309.918 277.322 310.25 272.41 310.515 267.497C310.921 259.968 311.304 252.433 311.671 244.901C311.836 241.5 311.985 238.096 312.063 234.689C312.239 226.856 312.414 219.026 312.493 211.191C312.563 204.065 312.363 196.935 312.577 189.817C312.663 186.887 311.766 184.15 312.028 181.228C312.336 177.77 313.047 174.621 315.4 172.36C315.859 171.919 316.415 171.626 316.926 171.263C317.018 171.314 317.112 171.363 317.204 171.415C316.937 173.607 316.875 175.873 316.361 177.976C315.17 182.841 315.07 187.787 315.219 193.143C315.726 192.289 316.129 191.611 316.532 190.934C316.634 191.018 316.74 191.099 316.842 191.183C316.715 192.484 316.683 193.81 316.448 195.081C315.321 201.225 315.518 207.477 315.321 213.7C315.073 221.501 314.784 229.298 314.516 237.096C314.395 240.589 314.322 244.085 314.157 247.573C313.819 254.78 313.438 261.982 313.068 269.185C312.863 273.215 312.657 277.243 312.431 281.27C312.323 283.197 312.166 285.122 312.234 287.106C312.558 285.623 312.901 284.149 313.201 282.661C314.551 275.904 315.702 269.082 317.272 262.402C320.162 250.097 324.358 238.407 329.202 227.056C329.564 226.206 330.001 225.403 330.55 224.642C329.048 229.144 327.51 233.629 326.054 238.155C324.585 242.719 323.175 247.311 321.784 251.91C320.389 256.515 319.182 261.19 318.477 266.025C320.559 260.965 322.529 255.829 324.758 250.864C327.008 245.844 329.472 240.955 332.581 236.624C332.665 236.67 332.746 236.716 332.83 236.762C332.725 237.131 332.654 237.524 332.508 237.865C330.636 242.191 328.686 246.471 326.892 250.842C324.985 255.49 323.094 260.163 321.437 264.949C320.316 268.188 319.608 271.638 318.733 274.999C317.931 278.075 318.171 279.918 319.903 283.924C320.098 283.563 320.289 283.314 320.387 283.016C321.581 279.314 322.645 275.544 323.972 271.912C325.992 266.38 328.186 260.943 330.312 255.471C332.425 250.034 334.589 244.622 336.655 239.161C339.894 230.61 342.877 221.904 346.33 213.484C350.22 203.992 354.51 194.742 358.638 185.394C358.9 184.801 359.283 184.286 359.697 183.787C352.881 202.049 346.365 220.449 340.613 239.256C343.32 232.467 346.324 225.897 349.979 219.796C353.629 213.703 357.473 207.835 362.709 203.623C362.782 203.71 362.858 203.794 362.931 203.881C361.963 205.177 360.991 206.469 360.026 207.77C355.739 213.559 351.93 219.782 348.661 226.474C346.313 231.282 343.925 236.074 341.81 241.034C340.229 244.741 338.86 248.625 337.749 252.577C335.85 259.336 334.075 266.161 332.538 273.053C331.206 279.032 330.274 285.141 329.18 291.195C329.126 291.502 329.205 291.843 329.223 292.171C329.318 292.182 329.41 292.195 329.504 292.206C330.131 289.813 330.806 287.434 331.379 285.021C333.749 275.05 337.539 265.819 341.356 256.601C344.965 247.891 349.131 239.57 353.491 231.39C356.444 225.853 359.429 220.341 362.441 214.85C364.905 210.356 367.342 205.835 369.944 201.461C372.697 196.834 375.63 192.362 378.491 187.831C378.653 187.576 378.859 187.362 379.061 187.104C365.051 216.243 350.39 244.874 338.338 275.27C338.43 275.335 338.519 275.397 338.611 275.462C340.348 272.286 342.085 269.109 343.93 265.941C344.144 266.087 344.252 266.228 344.357 266.369C343.639 268.35 342.896 270.324 342.204 272.318C340.727 276.579 339.314 280.875 337.793 285.116C336.844 287.764 335.748 290.334 334.715 292.935C334.583 293.269 334.451 293.6 334.192 294.253C334.597 293.984 334.78 293.933 334.867 293.795C337.544 289.542 340.464 285.561 343.606 281.799C347.064 277.66 351.176 274.844 355.633 272.671C355.747 272.616 355.885 272.644 356.009 272.616C356.182 272.581 356.352 272.532 356.568 272.571C348.345 280.148 342.185 289.941 336.204 300.115C333.211 305.357 330.704 310.723 329.485 316.835C329.756 316.531 329.872 316.141 330.007 315.762C330.755 313.65 331.449 311.506 332.273 309.438C333.513 306.36 334.924 303.389 336.674 300.676ZM289.805 243.153C289.219 240.34 288.684 237.51 288.038 234.716C287.071 230.537 286.015 226.39 285.015 222.221C284.24 218.994 283.495 215.757 282.735 212.524C282.638 212.546 282.541 212.568 282.444 212.589C282.53 213.435 282.603 214.28 282.706 215.123C283.379 220.592 284.078 226.057 284.732 231.531C285.167 235.185 285.558 238.849 285.931 242.513C286.464 247.728 286.996 252.943 287.455 258.165C287.593 259.718 287.877 261.147 288.411 262.58C289.389 265.198 290.351 267.857 291.029 270.603C293.023 278.709 294.265 287.03 295.514 295.345C295.703 296.603 295.954 297.849 296.176 299.099C296.251 295.147 296.202 291.234 295.919 287.344C295.549 282.265 295.07 277.194 294.498 272.145C293.99 267.654 293.377 263.177 292.655 258.729C291.821 253.566 290.816 248.438 289.805 243.153ZM291.464 290.052C290.826 284.377 290.186 278.701 288.171 273.44C288.041 273.462 287.909 273.484 287.779 273.508C289.181 291.217 290.583 308.926 291.985 326.632C292.075 326.632 292.161 326.635 292.25 326.635C292.304 326.429 292.396 326.226 292.404 326.017C292.485 324.429 292.626 322.838 292.604 321.253C292.507 313.84 292.418 306.427 292.207 299.017C292.123 296.09 291.734 293.171 291.464 290.052ZM323.158 310.715C323.815 306.715 324.417 302.698 325.147 298.716C325.871 294.765 326.725 290.849 327.521 286.916C322.234 298.719 319.633 311.338 319.511 325.052C320.765 320.12 321.937 315.509 323.158 310.715ZM330.115 269.226C330.987 265.936 331.863 262.648 332.735 259.358C328.886 265.282 321.251 290.372 322.016 294.101C322.113 293.946 322.205 293.849 322.251 293.724C323.664 289.976 325.223 286.292 326.446 282.455C327.813 278.178 328.875 273.76 330.115 269.226ZM313.76 307.72C313.636 312.013 313.511 316.309 313.387 320.602C313.468 320.602 313.546 320.605 313.628 320.605C313.868 318.187 314.062 315.762 314.36 313.352C315 308.151 315.697 302.961 316.37 297.765C316.723 295.031 317.191 292.307 317.374 289.556C317.48 287.984 317.115 286.363 316.961 284.767C316.931 284.466 316.891 284.168 316.856 283.867C316.721 283.859 316.586 283.848 316.448 283.84C314.732 291.578 313.898 299.473 313.76 307.72ZM271.837 304.289C273.312 311.3 276.235 317.599 278.497 324.402C278.67 320.103 271.937 295.673 269.938 293.125C269.847 293.161 269.754 293.198 269.666 293.234C270.322 295.318 270.976 297.405 271.689 299.67C271.413 299.437 271.262 299.307 271.113 299.183C271.005 299.456 270.897 299.733 270.786 300.007C271.108 301.381 271.435 302.752 271.837 304.289Z" fill="#3A5A40"/>
<path d="M319.355 206.879C323.005 197.45 328.324 189.758 334.965 183.356C337.542 180.871 340.278 178.7 343.396 177.35C344.857 176.719 346.387 176.616 347.916 177.009C349.396 177.391 350.25 180.074 349.626 182.191C349.069 184.085 347.751 184.98 346.435 185.812C342.124 188.544 338.139 191.85 334.616 195.902C331.577 199.396 328.618 203 325.758 206.708C324.22 208.703 322.913 210.971 321.592 213.194C320.055 215.776 318.615 218.441 317.126 221.067C317.08 221.148 316.98 221.186 316.988 221.181C316.913 216.27 317.569 211.478 319.355 206.879Z" fill="#3A5A40"/>
<path d="M308.708 207.188C309.559 209.543 310.486 211.776 311.148 214.123C312.001 217.14 311.593 220.305 311.661 223.812C311.166 223.314 310.85 223.092 310.645 222.766C309.191 220.471 307.735 218.175 306.328 215.839C303.508 211.155 300.212 207.017 296.627 203.198C294.806 201.258 292.939 199.376 291.164 197.371C290.222 196.306 289.387 195.132 289.216 193.398C289 191.21 290.47 189.289 292.302 189.308C294.133 189.327 295.592 190.406 297.037 191.449C300.747 194.124 303.578 197.951 306.052 202.174C306.987 203.762 307.797 205.464 308.708 207.188Z" fill="#3A5A40"/>
<path d="M308.53 154.654C311.056 156.939 312.607 159.896 313.279 163.53C313.763 166.146 312.96 168.355 311.691 170.482C310.904 169.26 310.124 168.056 309.354 166.84C308.117 164.886 306.79 163.002 305.68 160.947C304.575 158.906 304.037 156.549 303.805 154.115C303.772 153.765 303.889 153.394 303.934 153.058C305.734 152.635 307.12 153.559 308.53 154.654Z" fill="#3A5A40"/>
<path d="M303.616 169.691C303.251 167.937 302.913 166.27 302.532 164.408C306.436 165.991 309.273 168.75 311.258 172.902C312.434 175.361 311.777 177.651 311.185 180.003C311.085 180.399 310.912 180.765 310.713 181.321C307.109 178.567 304.896 174.618 303.616 169.691Z" fill="#3A5A40"/>
<path d="M310.053 206.621C306.242 201.819 304.145 196.173 303.837 189.587C306.444 190.462 308.035 192.405 309.948 195.945C311.49 198.802 312.023 201.859 311.42 205.195C311.191 206.475 310.829 206.865 310.053 206.621Z" fill="#3A5A40"/>
<path d="M304.388 177.662C307.157 179.35 309.397 181.695 310.977 184.798C311.993 186.793 311.825 189.08 311.155 191.257C310.953 191.915 310.637 192.525 310.364 193.181C305.931 189.075 304.248 183.362 303.208 177.068C303.618 177.274 303.972 177.45 304.388 177.662Z" fill="#3A5A40"/>
<path d="M344.425 266.337C344.257 266.231 344.152 266.09 343.995 265.911C344.452 264.987 344.96 264.104 345.465 263.223C345.53 263.271 345.598 263.32 345.662 263.369C345.273 264.347 344.879 265.326 344.425 266.337Z" fill="#3A5A40"/>
</g>
<path d="M391.283 115.86H219.38V353.399H391.283V115.86Z" stroke="#3A5A40"/>
</svg>
