<svg width="397" height="383" viewBox="0 0 397 383" fill="none" xmlns="http://www.w3.org/2000/svg">
<path d="M4.59433 265.191H7.90427V294.439H39.0729V297.812H4.59433V265.191ZM1.56022 300.908H42.107V291.343H10.9936V262.095H1.56022V300.908ZM0.181076 260.713H12.3727L17.7238 266.407V289.961H43.4861L48.8372 295.655V307.653H5.86314L0.181076 302.29V260.713ZM85.1034 294.439C87.2365 294.439 89.2225 294.218 91.0613 293.776C92.937 293.296 94.5552 292.559 95.9159 291.564C97.3135 290.532 98.3984 289.205 99.1707 287.583C99.943 285.925 100.329 283.897 100.329 281.501C100.329 279.142 99.9246 277.134 99.1155 275.475C98.3432 273.816 97.2767 272.489 95.9159 271.494C94.5552 270.462 92.937 269.725 91.0613 269.282C89.2225 268.803 87.2365 268.564 85.1034 268.564H79.0352C76.8654 268.564 74.8426 268.803 72.967 269.282C71.1281 269.725 69.5283 270.462 68.1676 271.494C66.8068 272.489 65.7219 273.816 64.9128 275.475C64.1405 277.134 63.7543 279.142 63.7543 281.501C63.7543 283.897 64.1405 285.925 64.9128 287.583C65.7219 289.205 66.8068 290.532 68.1676 291.564C69.5283 292.596 71.1281 293.333 72.967 293.776C74.8426 294.218 76.8654 294.439 79.0352 294.439H85.1034ZM79.0352 291.343C77.3802 291.343 75.8172 291.177 74.3461 290.845C72.8751 290.514 71.5879 289.979 70.4845 289.242C69.3812 288.468 68.4986 287.454 67.8366 286.201C67.1746 284.948 66.8436 283.381 66.8436 281.501C66.8436 279.658 67.1746 278.11 67.8366 276.857C68.4986 275.604 69.3812 274.59 70.4845 273.816C71.6246 273.042 72.9302 272.489 74.4013 272.157C75.8724 271.826 77.417 271.66 79.0352 271.66H85.1034C86.7216 271.66 88.2663 271.826 89.7374 272.157C91.2085 272.489 92.4957 273.042 93.599 273.816C94.7023 274.59 95.5849 275.604 96.2469 276.857C96.9089 278.11 97.2399 279.658 97.2399 281.501C97.2399 283.344 96.9089 284.892 96.2469 286.146C95.6217 287.399 94.7574 288.413 93.6541 289.187C92.5508 289.961 91.2636 290.514 89.7925 290.845C88.3214 291.177 86.7584 291.343 85.1034 291.343H79.0352ZM60.2789 281.501C60.2789 278.516 60.7386 275.991 61.658 273.927C62.6142 271.863 63.9198 270.185 65.5748 268.895C67.2665 267.568 69.2525 266.629 71.5327 266.076C73.8496 265.486 76.3505 265.191 79.0352 265.191H85.1034C87.7882 265.191 90.2706 265.486 92.5508 266.076C94.831 266.665 96.7986 267.605 98.4535 268.895C100.145 270.185 101.451 271.863 102.37 273.927C103.327 275.991 103.805 278.516 103.805 281.501C103.805 284.487 103.327 287.012 102.37 289.076C101.451 291.14 100.145 292.817 98.4535 294.107C96.7986 295.397 94.831 296.337 92.5508 296.927C90.2706 297.517 87.7882 297.812 85.1034 297.812H79.0352C76.3505 297.812 73.8496 297.535 71.5327 296.982C69.2525 296.393 67.2665 295.453 65.5748 294.163C63.9198 292.836 62.6142 291.14 61.658 289.076C60.7386 287.012 60.2789 284.487 60.2789 281.501ZM57.1896 281.501C57.1896 285.003 57.7229 287.989 58.7894 290.458C59.8927 292.891 61.4006 294.881 63.313 296.43C65.2622 297.978 67.5608 299.12 70.2087 299.857C72.8934 300.558 75.8356 300.908 79.0352 300.908H85.1034C88.3031 300.908 91.2268 300.558 93.8748 299.857C96.5228 299.12 98.8029 297.978 100.715 296.43C102.665 294.881 104.172 292.891 105.239 290.458C106.305 287.989 106.839 285.003 106.839 281.501C106.839 278 106.305 275.033 105.239 272.6C104.172 270.13 102.665 268.121 100.715 266.573C98.8029 265.025 96.5228 263.901 93.8748 263.201C91.2268 262.463 88.3031 262.095 85.1034 262.095H79.0352C75.8356 262.095 72.8934 262.463 70.2087 263.201C67.5608 263.901 65.2622 265.025 63.313 266.573C61.4006 268.121 59.8927 270.13 58.7894 272.6C57.7229 275.033 57.1896 278 57.1896 281.501ZM55.8105 281.501C55.8105 277.742 56.3805 274.553 57.5206 271.936C58.6607 269.282 60.2605 267.126 62.32 265.467C64.3795 263.809 66.8252 262.611 69.6571 261.874C72.5257 261.1 75.6517 260.713 79.0352 260.713H85.1034C87.2365 260.713 89.2409 260.842 91.1165 261.1C93.0289 261.321 94.9045 261.818 96.7434 262.592C98.5823 263.33 100.403 264.399 102.205 265.799C104.044 267.163 105.938 269.006 107.887 271.328C109.542 272.987 110.903 275.18 111.969 277.908C113.036 280.635 113.569 283.676 113.569 287.03C113.569 290.753 112.999 293.923 111.859 296.54C110.756 299.157 109.174 301.277 107.115 302.898C105.092 304.557 102.665 305.755 99.8327 306.492C97.0376 307.266 93.9667 307.653 90.62 307.653H84.5518C80.8005 307.653 77.3067 307.229 74.0703 306.382C70.8339 305.534 68.1676 304.078 66.0713 302.014C63.975 300.171 62.2649 298.438 60.9409 296.817C59.6169 295.158 58.5687 293.518 57.7964 291.896C57.0609 290.274 56.546 288.615 56.2518 286.92C55.9576 285.224 55.8105 283.418 55.8105 281.501ZM85.1034 289.961C86.5378 289.961 87.8985 289.832 89.1857 289.574C90.5097 289.279 91.6682 288.8 92.6611 288.136C93.6541 287.473 94.4265 286.606 94.9781 285.538C95.5665 284.432 95.8608 283.086 95.8608 281.501C95.8608 280.617 95.7504 279.806 95.5298 279.069C94.0219 278.626 92.3853 278.405 90.62 278.405H84.5518C83.0807 278.405 81.6832 278.553 80.3592 278.847C79.0352 279.142 77.8584 279.622 76.8286 280.285C75.8356 280.948 75.0449 281.833 74.4565 282.939C73.868 284.045 73.5738 285.409 73.5738 287.03C73.5738 287.915 73.6474 288.652 73.7945 289.242C74.5668 289.5 75.3943 289.684 76.2769 289.795C77.1596 289.905 78.079 289.961 79.0352 289.961H85.1034ZM160.91 271.881C159.255 270.628 157.398 269.762 155.339 269.282C153.316 268.803 151.275 268.564 149.215 268.564H143.202C141.069 268.564 139.065 268.803 137.189 269.282C135.35 269.725 133.75 270.462 132.39 271.494C131.029 272.489 129.944 273.816 129.135 275.475C128.363 277.134 127.976 279.142 127.976 281.501C127.976 283.897 128.363 285.925 129.135 287.583C129.907 289.205 130.974 290.532 132.334 291.564C133.732 292.559 135.35 293.296 137.189 293.776C139.028 294.218 141.032 294.439 143.202 294.439H149.215C151.128 294.439 152.948 294.236 154.677 293.831C156.442 293.389 158.023 292.725 159.421 291.84C160.818 290.919 162.014 289.758 163.007 288.357C164 286.92 164.717 285.187 165.158 283.16H149.932V279.843H169.02V281.501C169.02 284.561 168.486 287.141 167.42 289.242C166.353 291.306 164.919 292.983 163.117 294.273C161.315 295.526 159.219 296.43 156.828 296.982C154.438 297.535 151.9 297.812 149.215 297.812H143.202C140.517 297.812 138.035 297.517 135.755 296.927C133.475 296.337 131.489 295.397 129.797 294.107C128.142 292.817 126.836 291.14 125.88 289.076C124.924 287.012 124.446 284.487 124.446 281.501C124.446 278.516 124.924 275.991 125.88 273.927C126.836 271.863 128.142 270.185 129.797 268.895C131.489 267.605 133.475 266.665 135.755 266.076C138.035 265.486 140.517 265.191 143.202 265.191H149.215C150.576 265.191 151.937 265.246 153.297 265.357C154.658 265.431 155.982 265.615 157.269 265.91C158.557 266.205 159.807 266.629 161.021 267.181C162.271 267.697 163.43 268.416 164.496 269.338L160.91 271.881ZM169.185 270.112C167.898 268.416 166.5 267.052 164.993 266.02C163.485 264.988 161.885 264.177 160.193 263.588C158.538 262.998 156.791 262.611 154.952 262.427C153.114 262.205 151.201 262.095 149.215 262.095H143.202C140.003 262.095 137.079 262.463 134.431 263.201C131.783 263.901 129.484 265.025 127.535 266.573C125.623 268.121 124.133 270.13 123.067 272.6C122 275.033 121.467 278 121.467 281.501C121.467 285.003 122 287.989 123.067 290.458C124.133 292.891 125.623 294.881 127.535 296.43C129.484 297.978 131.783 299.12 134.431 299.857C137.079 300.558 140.003 300.908 143.202 300.908H149.215C152.378 300.908 155.339 300.576 158.097 299.913C160.892 299.212 163.319 298.107 165.379 296.595C167.438 295.047 169.056 293.038 170.233 290.569C171.447 288.099 172.054 285.077 172.054 281.501V276.802H146.843V286.201H161.186C160.598 287.196 159.844 288.026 158.924 288.689C158.005 289.352 156.994 289.887 155.89 290.292C154.824 290.661 153.702 290.937 152.525 291.122C151.385 291.269 150.282 291.343 149.215 291.343H143.202C141.547 291.343 139.984 291.177 138.513 290.845C137.042 290.514 135.755 289.979 134.651 289.242C133.548 288.468 132.665 287.454 132.003 286.201C131.342 284.948 131.01 283.381 131.01 281.501C131.01 279.658 131.342 278.11 132.003 276.857C132.665 275.604 133.548 274.59 134.651 273.816C135.792 273.042 137.097 272.489 138.568 272.157C140.039 271.826 141.584 271.66 143.202 271.66H149.215C151.385 271.66 153.463 272.01 155.449 272.71C157.435 273.374 159.2 274.517 160.745 276.138L169.185 270.112ZM130.293 301.737C128.234 299.968 126.542 298.291 125.218 296.706C123.894 295.121 122.846 293.536 122.074 291.951C121.338 290.329 120.823 288.689 120.529 287.03C120.235 285.335 120.088 283.492 120.088 281.501C120.088 277.742 120.658 274.553 121.798 271.936C122.938 269.282 124.519 267.126 126.542 265.467C128.602 263.809 131.047 262.611 133.879 261.874C136.711 261.1 139.819 260.713 143.202 260.713H149.215C151.238 260.713 153.187 260.805 155.063 260.989C156.938 261.173 158.759 261.56 160.524 262.15C162.289 262.703 163.981 263.551 165.599 264.693C167.254 265.799 168.854 267.292 170.399 269.172C171.502 270.278 172.403 271.199 173.102 271.936C173.801 272.674 174.352 273.3 174.757 273.816C175.198 274.332 175.529 274.756 175.75 275.088C176.007 275.383 176.228 275.659 176.412 275.917L174.757 277.078L178.784 281.114V287.03C178.784 290.827 178.159 294.034 176.908 296.651C175.658 299.268 173.948 301.387 171.778 303.009C169.608 304.668 167.052 305.847 164.11 306.547C161.205 307.285 158.078 307.653 154.732 307.653H148.719C144.967 307.653 141.474 307.174 138.237 306.216C135.001 305.294 132.353 303.801 130.293 301.737ZM145.464 278.737C144.361 278.921 143.331 279.216 142.375 279.622C141.455 279.99 140.646 280.506 139.947 281.17C139.249 281.833 138.697 282.662 138.292 283.658C137.925 284.616 137.741 285.74 137.741 287.03C137.741 287.915 137.814 288.652 137.961 289.242C138.734 289.5 139.561 289.684 140.444 289.795C141.326 289.905 142.246 289.961 143.202 289.961H148.167L145.464 287.583V278.737ZM225.758 285.814L214.118 269.282L202.202 285.814H225.758ZM219.8 282.828H208.105L214.008 274.535L219.8 282.828ZM233.978 297.812L228.02 289.242H199.83C198.801 290.643 197.789 292.08 196.796 293.554C195.84 294.992 194.847 296.411 193.817 297.812H189.404C193.302 292.32 197.182 286.883 201.044 281.501C204.942 276.12 208.822 270.683 212.684 265.191H215.332L238.115 297.812H233.978ZM211.194 262.095L183.612 300.908H195.307L201.375 292.338H226.31L232.323 300.908H244.018L216.987 262.095H211.194ZM223.165 266.407L251.852 307.653H237.177L231.606 302.29L229.344 299.083H207.553C207.112 299.747 206.616 300.447 206.064 301.184C205.549 301.922 205.016 302.659 204.464 303.396C203.949 304.17 203.434 304.907 202.92 305.608C202.405 306.345 201.927 307.027 201.485 307.653H186.756L180.908 302.29L210.477 260.713H217.704L223.165 266.407ZM261.419 270.444V297.812H258.164V265.191H260.977L290.601 292.559V265.191H293.911V297.812H291.153L261.419 270.444ZM297 262.095H287.567V285.593L262.025 262.095H255.074V300.908H264.508V277.355L290.105 300.908H297V262.095ZM253.695 302.29V260.713H262.522L286.188 282.441V260.713H298.38L303.73 266.407V307.653H295.125L271.238 285.703V307.653H259.377L253.695 302.29ZM319.82 271.052L320.593 269.117V264.03H324.123V268.177L321.696 271.052H319.82ZM323.02 274.148L327.157 269.393V260.934H317.558V268.453L315.186 274.148H323.02ZM313.145 275.53L316.179 268.287V259.552H328.536L333.888 265.246V275.364L329.088 280.893H318.938L313.145 275.53ZM348.932 290.237C350.109 291.38 351.415 292.246 352.849 292.836C354.284 293.425 355.773 293.849 357.318 294.107C358.862 294.329 360.444 294.458 362.062 294.494C363.68 294.494 365.243 294.494 366.751 294.494C367.303 294.494 368.038 294.476 368.958 294.439C369.914 294.402 370.925 294.329 371.992 294.218C373.095 294.07 374.198 293.886 375.302 293.665C376.405 293.407 377.398 293.075 378.281 292.67C379.2 292.264 379.936 291.785 380.487 291.232C381.076 290.643 381.37 289.942 381.37 289.131C381.37 288.32 381.057 287.62 380.432 287.03C379.844 286.404 379.071 285.869 378.115 285.427C377.159 284.985 376.074 284.616 374.86 284.321C373.683 283.989 372.507 283.75 371.33 283.602C370.153 283.418 369.05 283.289 368.02 283.215C367.027 283.142 366.218 283.105 365.592 283.105H365.648C364.765 283.068 363.68 282.976 362.393 282.828C361.106 282.681 359.763 282.46 358.366 282.165C356.968 281.87 355.571 281.501 354.173 281.059C352.776 280.58 351.525 280.009 350.422 279.345C349.319 278.682 348.418 277.908 347.719 277.023C347.02 276.101 346.671 275.051 346.671 273.871C346.671 272.581 347.002 271.476 347.664 270.554C348.362 269.633 349.245 268.859 350.312 268.232C351.415 267.568 352.647 267.052 354.008 266.684C355.368 266.278 356.748 265.965 358.145 265.744C359.543 265.523 360.867 265.375 362.117 265.302C363.404 265.228 364.489 265.191 365.372 265.191C366.806 265.191 368.259 265.265 369.73 265.412C371.238 265.523 372.709 265.744 374.143 266.076C375.577 266.407 376.975 266.868 378.336 267.458C379.697 268.011 380.947 268.73 382.087 269.614L379.163 271.715C378.097 270.978 376.975 270.407 375.798 270.001C374.621 269.559 373.408 269.227 372.157 269.006C370.907 268.785 369.638 268.656 368.351 268.619C367.064 268.545 365.813 268.508 364.6 268.508C363.754 268.508 362.595 268.564 361.124 268.674C359.69 268.785 358.255 269.024 356.821 269.393C355.424 269.725 354.21 270.259 353.18 270.996C352.15 271.697 351.636 272.655 351.636 273.871C351.636 275.051 352.132 276.009 353.125 276.747C354.118 277.447 355.424 278.018 357.042 278.46C358.66 278.866 360.499 279.198 362.558 279.456C364.655 279.677 366.788 279.916 368.958 280.174C371.127 280.432 373.242 280.746 375.302 281.114C377.398 281.446 379.255 281.944 380.873 282.607C382.492 283.234 383.797 284.082 384.79 285.15C385.783 286.183 386.28 287.509 386.28 289.131C386.28 290.274 385.93 291.288 385.231 292.172C384.57 293.057 383.687 293.831 382.584 294.494C381.48 295.121 380.23 295.655 378.832 296.098C377.471 296.503 376.092 296.835 374.695 297.093C373.334 297.351 372.028 297.535 370.778 297.646C369.528 297.756 368.498 297.812 367.689 297.812H363.551C362.043 297.812 360.462 297.756 358.807 297.646C357.152 297.535 355.534 297.296 353.953 296.927C352.371 296.522 350.863 295.969 349.429 295.268C347.995 294.568 346.726 293.61 345.623 292.393L348.932 290.237ZM341.044 291.232C342.515 293.628 344.262 295.49 346.285 296.817C348.307 298.107 350.495 299.065 352.849 299.692C355.203 300.281 357.63 300.631 360.131 300.742C362.669 300.853 365.188 300.908 367.689 300.908C368.792 300.908 370.098 300.834 371.606 300.687C373.113 300.502 374.676 300.226 376.295 299.857C377.913 299.489 379.494 299.01 381.039 298.42C382.62 297.793 384.018 297.056 385.231 296.208C386.482 295.324 387.475 294.31 388.21 293.167C388.983 291.988 389.369 290.643 389.369 289.131C389.369 287.325 388.964 285.796 388.155 284.542C387.383 283.252 386.353 282.183 385.066 281.336C383.816 280.451 382.363 279.751 380.708 279.235C379.09 278.682 377.416 278.258 375.688 277.963C373.959 277.668 372.268 277.447 370.613 277.299C368.958 277.152 367.487 277.023 366.199 276.912C365.758 276.876 364.912 276.802 363.662 276.691C362.411 276.544 361.124 276.359 359.8 276.138C358.476 275.88 357.299 275.567 356.269 275.198C355.24 274.83 354.725 274.387 354.725 273.871C354.725 273.282 355.203 272.839 356.159 272.544C357.115 272.25 358.2 272.028 359.414 271.881C360.664 271.734 361.86 271.66 363 271.66C364.177 271.623 364.967 271.605 365.372 271.605C366.549 271.605 367.744 271.66 368.958 271.77C370.171 271.844 371.348 272.028 372.488 272.323C373.665 272.618 374.768 273.042 375.798 273.595C376.865 274.148 377.839 274.867 378.722 275.751L386.776 270.333C385.379 268.416 383.797 266.923 382.032 265.855C380.267 264.749 378.391 263.919 376.405 263.366C374.419 262.814 372.341 262.463 370.171 262.316C368.038 262.169 365.887 262.095 363.717 262.095C362.577 262.095 361.271 262.187 359.8 262.371C358.366 262.519 356.895 262.777 355.387 263.145C353.916 263.514 352.463 263.993 351.029 264.583C349.631 265.173 348.381 265.91 347.277 266.794C346.174 267.679 345.292 268.711 344.63 269.891C343.968 271.033 343.637 272.36 343.637 273.871C343.637 275.604 344.059 277.097 344.905 278.35C345.751 279.603 346.873 280.672 348.27 281.557C349.668 282.441 351.249 283.16 353.015 283.713C354.78 284.266 356.564 284.727 358.366 285.095C360.205 285.427 361.97 285.703 363.662 285.925C365.39 286.109 366.898 286.275 368.185 286.422C368.553 286.459 369.27 286.533 370.337 286.643C371.44 286.754 372.58 286.92 373.757 287.141C374.934 287.325 375.982 287.583 376.901 287.915C377.821 288.247 378.281 288.652 378.281 289.131C378.281 289.537 377.986 289.887 377.398 290.182C376.81 290.44 376.056 290.661 375.136 290.845C374.217 290.993 373.205 291.103 372.102 291.177C370.999 291.251 369.914 291.306 368.847 291.343C367.818 291.38 366.88 291.398 366.034 291.398C365.225 291.398 364.655 291.398 364.324 291.398C362.926 291.398 361.547 291.343 360.186 291.232C358.825 291.085 357.502 290.827 356.214 290.458C354.927 290.053 353.713 289.5 352.573 288.8C351.433 288.099 350.404 287.159 349.484 285.98L341.044 291.232ZM349.043 284.598L346.395 281.888C345.108 280.93 344.096 279.806 343.361 278.516C342.625 277.189 342.257 275.641 342.257 273.871C342.257 272.176 342.607 270.683 343.306 269.393C344.041 268.066 344.997 266.923 346.174 265.965C347.351 265.007 348.693 264.196 350.201 263.532C351.709 262.832 353.254 262.279 354.835 261.874C356.417 261.468 357.98 261.173 359.524 260.989C361.069 260.805 362.466 260.713 363.717 260.713C365.887 260.713 368.075 260.786 370.282 260.934C372.488 261.044 374.64 261.376 376.736 261.929C378.869 262.482 380.91 263.33 382.859 264.472C384.809 265.615 386.629 267.218 388.321 269.282C389.461 270.425 390.362 271.383 391.024 272.157C391.686 272.895 392.201 273.521 392.569 274.037C392.973 274.553 393.267 274.977 393.451 275.309C393.635 275.604 393.819 275.88 394.003 276.138L386.942 280.893C387.126 281.077 387.328 281.243 387.548 281.391C387.806 281.501 388.155 281.741 388.597 282.11C389.038 282.478 389.608 283.013 390.307 283.713C391.042 284.376 392.017 285.335 393.231 286.588C394.113 287.51 394.812 288.689 395.327 290.127C395.842 291.564 396.099 293.075 396.099 294.66C396.099 296.319 395.695 297.793 394.886 299.083C394.076 300.373 393.028 301.498 391.741 302.456C390.454 303.414 388.983 304.225 387.328 304.889C385.673 305.552 383.999 306.087 382.308 306.492C380.616 306.898 378.961 307.193 377.343 307.377C375.761 307.561 374.382 307.653 373.205 307.653C371.036 307.653 368.829 307.653 366.585 307.653C364.342 307.653 362.135 307.469 359.966 307.1C357.833 306.732 355.755 306.124 353.732 305.276C351.709 304.428 349.852 303.138 348.16 301.406C346.726 300.079 345.512 298.918 344.519 297.922C343.563 296.89 342.735 295.969 342.037 295.158C341.375 294.31 340.805 293.536 340.327 292.836C339.885 292.135 339.462 291.453 339.058 290.79L349.043 284.598Z" fill="#3A5A40"/>
<path d="M65.5126 355.463H73.2664V359.213H60.7928V335.629H65.5126V355.463ZM95.4148 354.72H86.0428L84.492 359.213H79.5363L87.9981 335.596H93.4932L101.955 359.213H96.9656L95.4148 354.72ZM94.1338 350.935L90.7288 341.069L87.3239 350.935H94.1338ZM129.964 359.213H125.244L114.558 343.029V359.213H109.838V335.596H114.558L125.244 351.814V335.596H129.964V359.213ZM147.574 335.629C150.046 335.629 152.215 336.115 154.08 337.082C155.968 338.05 157.418 339.435 158.429 341.238C159.463 343.017 159.98 345.09 159.98 347.455C159.98 349.82 159.463 351.894 158.429 353.672C157.418 355.429 155.968 356.793 154.08 357.76C152.215 358.728 150.046 359.213 147.574 359.213H139.348V335.629H147.574ZM147.405 355.193C149.877 355.193 151.788 354.517 153.136 353.165C154.485 351.814 155.159 349.909 155.159 347.455C155.159 345.001 154.485 343.084 153.136 341.711C151.788 340.314 149.877 339.616 147.405 339.616H144.068V355.193H147.405ZM176.357 359.45C174.717 359.45 173.233 359.167 171.907 358.605C170.604 358.043 169.57 357.232 168.806 356.172C168.042 355.113 167.648 353.863 167.626 352.422H172.683C172.75 353.39 173.087 354.157 173.694 354.72C174.323 355.282 175.177 355.564 176.256 355.564C177.357 355.564 178.223 355.306 178.852 354.787C179.481 354.247 179.796 353.549 179.796 352.692C179.796 351.995 179.582 351.421 179.155 350.969C178.729 350.518 178.189 350.17 177.537 349.922C176.908 349.651 176.032 349.36 174.908 349.043C173.379 348.592 172.132 348.152 171.166 347.725C170.222 347.274 169.401 346.61 168.705 345.732C168.03 344.832 167.693 343.637 167.693 342.15C167.693 340.753 168.042 339.537 168.738 338.501C169.435 337.466 170.413 336.677 171.671 336.136C172.93 335.574 174.368 335.292 175.986 335.292C178.414 335.292 180.38 335.887 181.886 337.082C183.415 338.253 184.257 339.899 184.415 342.015H179.223C179.178 341.204 178.83 340.541 178.178 340.022C177.549 339.481 176.706 339.211 175.649 339.211C174.728 339.211 173.986 339.447 173.424 339.92C172.885 340.393 172.615 341.082 172.615 341.982C172.615 342.611 172.818 343.143 173.222 343.57C173.649 343.975 174.166 344.313 174.773 344.583C175.402 344.832 176.279 345.124 177.402 345.462C178.931 345.913 180.178 346.362 181.144 346.813C182.111 347.265 182.943 347.94 183.639 348.84C184.336 349.74 184.684 350.923 184.684 352.388C184.684 353.651 184.358 354.821 183.707 355.902C183.055 356.983 182.1 357.85 180.841 358.504C179.582 359.134 178.088 359.45 176.357 359.45ZM192.35 347.388C192.35 345.069 192.867 342.995 193.9 341.171C194.957 339.325 196.384 337.893 198.182 336.88C200.002 335.844 202.036 335.325 204.284 335.325C206.913 335.325 209.217 336.001 211.195 337.353C213.172 338.704 214.555 340.575 215.341 342.961H209.914C209.374 341.834 208.61 340.989 207.621 340.427C206.655 339.865 205.531 339.583 204.25 339.583C202.879 339.583 201.654 339.908 200.575 340.562C199.519 341.192 198.687 342.095 198.081 343.265C197.496 344.436 197.204 345.812 197.204 347.388C197.204 348.942 197.496 350.315 198.081 351.51C198.687 352.68 199.519 353.592 200.575 354.247C201.654 354.876 202.879 355.193 204.25 355.193C205.531 355.193 206.655 354.91 207.621 354.348C208.61 353.761 209.374 352.907 209.914 351.78H215.341C214.555 354.191 213.172 356.071 211.195 357.423C209.239 358.753 206.936 359.416 204.284 359.416C202.036 359.416 200.002 358.909 198.182 357.896C196.384 356.861 194.957 355.429 193.9 353.605C192.867 351.78 192.35 349.707 192.35 347.388ZM238.521 354.72H229.149L227.599 359.213H222.643L231.105 335.596H236.6L245.062 359.213H240.072L238.521 354.72ZM237.24 350.935L233.835 341.069L230.43 350.935H237.24ZM270.104 342.928C270.104 344.19 269.8 345.373 269.194 346.475C268.609 347.578 267.676 348.469 266.395 349.145C265.137 349.82 263.541 350.158 261.608 350.158H257.664V359.213H252.944V335.629H261.608C263.429 335.629 264.979 335.946 266.261 336.575C267.542 337.205 268.497 338.074 269.126 339.177C269.778 340.28 270.104 341.53 270.104 342.928ZM261.406 346.34C262.709 346.34 263.676 346.048 264.305 345.462C264.934 344.854 265.249 344.009 265.249 342.928C265.249 340.63 263.968 339.481 261.406 339.481H257.664V346.34H261.406ZM282.894 335.629V359.213H278.174V335.629H282.894ZM312.404 359.213H307.684L296.997 343.029V359.213H292.277V335.596H296.997L307.684 351.814V335.596H312.404V359.213ZM338.172 342.725C337.633 341.733 336.891 340.98 335.947 340.461C335.003 339.942 333.9 339.684 332.643 339.684C331.249 339.684 330.014 340 328.935 340.63C327.856 341.26 327.013 342.163 326.406 343.333C325.8 344.503 325.496 345.855 325.496 347.388C325.496 348.963 325.8 350.339 326.406 351.51C327.035 352.68 327.899 353.583 329.002 354.213C330.103 354.842 331.384 355.159 332.846 355.159C334.641 355.159 336.116 354.686 337.262 353.74C338.408 352.772 339.159 351.43 339.521 349.719H331.43V346.104H344.173V350.226C343.857 351.869 343.183 353.39 342.15 354.787C341.114 356.185 339.778 357.309 338.138 358.166C336.52 358.998 334.7 359.416 332.677 359.416C330.406 359.416 328.35 358.909 326.508 357.896C324.687 356.861 323.247 355.429 322.192 353.605C321.157 351.78 320.642 349.707 320.642 347.388C320.642 345.069 321.157 342.995 322.192 341.171C323.247 339.325 324.687 337.893 326.508 336.88C328.35 335.844 330.394 335.325 332.643 335.325C335.294 335.325 337.599 335.98 339.554 337.285C341.51 338.569 342.858 340.381 343.6 342.725H338.172Z" fill="#3A5A40"/>
<path d="M141.215 382.25H260.741" stroke="#3A5A40" stroke-linecap="round"/>
<mask id="mask0_1567_551" style="mask-type:luminance" maskUnits="userSpaceOnUse" x="128" y="30" width="150" height="176">
<path d="M277.074 30.5488H128.956V205.632H277.074V30.5488Z" fill="white"/>
</mask>
<g mask="url(#mask0_1567_551)">
<path d="M232.126 175.829C233.336 174.345 234.475 172.761 235.774 171.408C236.918 170.218 238.217 169.233 239.496 168.253C240.68 167.345 241.931 166.562 243.256 165.93C242.294 167.13 241.377 168.394 240.359 169.522C237.507 172.677 234.773 175.959 232.777 179.997C231.057 183.476 229.568 187.101 228.836 191.11C228.514 192.878 228.167 194.638 227.83 196.401C227.927 196.455 228.024 196.508 228.121 196.562C228.305 196.237 228.499 195.92 228.673 195.588C230.919 191.333 232.963 186.894 235.458 182.862C238.669 177.666 242.447 173.081 247.384 170.192C247.978 169.845 248.606 169.576 249.265 169.371C241.64 177.387 234.766 185.955 232.966 198.75C238.247 184.796 246.947 176.466 259.639 174.703C255.522 176.847 251.578 179.387 247.874 182.493C244.091 185.663 240.892 189.506 238.245 194.168C244.213 197.286 250.12 200.374 256.03 203.462C256.004 203.544 255.979 203.624 255.953 203.705C254.713 203.404 253.477 203.068 252.231 202.807C251.402 202.634 250.557 202.459 249.719 202.459C217.492 202.444 185.264 202.446 153.039 202.469C151.841 202.469 150.646 202.736 149.449 202.864C149.265 202.884 149.074 202.823 148.875 202.685C154.45 199.331 160.559 198.09 166.463 195.976C164.972 191.33 162.177 188.127 158.831 185.384C154.675 181.982 150.067 180.124 145.242 178.822C142.463 178.07 139.657 177.791 136.816 177.868C136.658 177.873 136.497 177.763 136.375 177.563C146.861 174.78 156.204 177.853 164.674 185.64C159.813 177.264 153.143 171.326 146.381 165.457C150.851 166.905 154.902 169.379 158.616 172.692C162.374 176.044 166.057 179.49 168.829 184.146C168.904 184.108 168.977 184.07 169.052 184.034C168.924 183.496 168.799 182.957 168.671 182.419C167.66 178.205 166.787 173.933 165.603 169.791C164.309 165.27 162.887 160.783 161.23 156.441C159.441 151.751 156.74 147.778 153.312 144.685C150.391 142.045 147.292 139.688 144.272 137.204C144.03 137.005 143.808 136.774 143.614 136.442C146.003 136.613 148.29 137.322 150.417 138.586C152.518 139.834 154.532 141.298 156.85 142.845C149.087 123.905 143.17 104.339 137.858 84.4571C138.376 85.5881 138.945 86.6908 139.402 87.8574C142.085 94.7268 144.732 101.619 147.412 108.491C151.022 117.742 154.629 126.994 158.284 136.219C159.77 139.965 161.245 143.733 162.968 147.318C164.773 151.069 166.869 154.614 168.84 158.25C169.1 158.728 169.376 159.196 169.805 159.542C168.161 152.834 166.517 146.128 164.873 139.42C164.962 139.386 165.051 139.351 165.141 139.317C166.968 143.698 168.796 148.078 170.624 152.458C170.708 152.419 170.792 152.381 170.879 152.342C170.696 151.629 170.496 150.917 170.328 150.199C169.133 145.061 167.9 139.937 166.767 134.776C165.59 129.416 164.444 124.046 163.415 118.643C162.425 113.449 161.552 108.222 160.715 102.988C159.91 97.9505 159.109 92.905 158.512 87.8292C157.896 82.6151 157.332 77.3706 157.097 72.1181C156.788 65.1719 156.799 58.2027 156.725 51.2439C156.702 48.9617 156.85 46.6794 157.105 44.3871C157.194 45.6078 157.289 46.8253 157.375 48.0457C157.748 53.293 158.088 58.543 158.496 63.785C158.836 68.1474 159.142 72.5223 159.665 76.8536C160.258 81.7759 160.982 86.6807 161.817 91.5492C162.859 97.6255 163.964 103.689 165.235 109.699C167.048 118.262 169.006 126.781 170.956 135.301C172.419 141.689 174.055 148.021 175.459 154.428C177.047 161.673 178.466 168.972 179.952 176.251C181.144 182.087 182.341 187.92 183.502 193.763C183.888 195.697 184.169 197.66 184.506 199.607C184.544 199.834 184.625 200.049 184.853 200.228C183.617 189.498 182.382 178.768 181.149 168.038C181.187 168.033 181.225 168.028 181.264 168.025C182.374 172.636 183.487 177.246 184.572 181.744C184.401 178.438 184.227 175.023 184.043 171.61C183.712 165.36 183.354 159.112 183.046 152.862C182.877 149.426 182.811 145.982 182.652 142.544C182.474 138.66 181.506 134.984 180.263 131.461C178.57 126.663 176.687 121.964 174.795 117.274C172.561 111.738 169.935 106.47 167.137 101.325C166.468 100.094 165.925 98.7614 165.332 97.4974C166.721 98.2779 171.29 104.873 174.65 111.285C177.269 116.284 179.681 121.424 181.575 126.942C179.482 105.201 177.777 83.4287 174.706 61.8637C174.79 61.8435 174.877 61.8229 174.961 61.8023C175.459 63.798 175.959 65.7936 176.452 67.7917C177.478 71.939 178.407 76.1219 179.541 80.2256C181.442 87.1027 183.454 93.9362 185.447 100.775C187.906 109.207 190.065 117.753 191.748 126.459C192.881 132.315 193.833 138.223 194.811 144.12C195.163 146.251 195.349 148.42 195.651 150.902C196.692 133.392 199.577 116.619 203.288 100.018C203.071 101.806 202.864 103.594 202.637 105.377C202.04 110.062 201.422 114.744 200.838 119.431C200.263 124.013 199.666 128.59 199.176 133.185C198.806 136.662 198.579 140.164 198.305 143.657C198.002 147.553 197.619 151.447 197.458 155.354C197.315 158.795 197.407 162.251 197.438 165.7C197.478 170.211 197.524 174.721 197.632 179.229C197.767 184.873 197.93 190.517 198.157 196.155C198.216 197.629 198.556 199.085 198.765 200.548C198.854 200.548 198.941 200.551 199.03 200.551C199.03 200.198 199.028 199.845 199.03 199.492C199.082 195.273 199.041 191.049 199.207 186.838C199.406 181.844 199.799 176.86 200.077 171.868C200.189 169.863 200.23 167.852 200.292 165.843C200.529 158.009 200.736 150.173 201.001 142.339C201.147 138.061 201.325 133.781 201.601 129.514C201.864 125.471 202.285 121.444 202.62 117.41C202.956 113.334 203.275 109.256 203.6 105.178C203.636 104.717 203.674 104.257 203.86 103.802C203.883 104.068 203.924 104.336 203.924 104.602C203.932 109.96 204.001 115.32 203.922 120.674C203.796 129.253 203.613 137.829 203.378 146.402C203.056 158.212 203.079 170.021 203.429 181.828C203.544 185.707 203.799 189.58 204.072 193.456C204.141 192.054 204.197 190.652 204.287 189.253C204.634 183.775 204.983 178.298 205.351 172.823C205.517 170.344 205.693 167.865 205.925 165.393C206.117 163.351 205.139 161.717 204.736 159.885C204.654 159.511 204.544 159.148 204.45 158.78C204.544 158.715 204.639 158.651 204.736 158.588C205.264 159.642 205.795 160.696 206.323 161.75C206.408 161.745 206.492 161.742 206.579 161.737C206.579 160.632 206.528 159.521 206.589 158.421C206.844 153.783 207.158 149.147 207.408 144.508C207.791 137.401 208.154 130.289 208.501 123.179C208.657 119.968 208.797 116.755 208.871 113.539C209.037 106.145 209.203 98.7537 209.277 91.3572C209.343 84.6313 209.155 77.9001 209.356 71.1815C209.438 68.4158 208.59 65.832 208.838 63.074C209.129 59.8094 209.8 56.8364 212.024 54.7028C212.458 54.2857 212.983 54.0096 213.466 53.6668C213.553 53.7153 213.642 53.7614 213.729 53.8099C213.476 55.8796 213.417 58.0184 212.933 60.0039C211.807 64.5963 211.712 69.2655 211.853 74.3207C212.332 73.5147 212.713 72.8752 213.093 72.2357C213.19 72.315 213.29 72.3918 213.387 72.471C213.267 73.699 213.236 74.9501 213.014 76.1502C211.95 81.9501 212.136 87.8522 211.95 93.7264C211.715 101.09 211.442 108.45 211.189 115.811C211.074 119.109 211.005 122.409 210.849 125.701C210.53 132.505 210.171 139.302 209.821 146.103C209.627 149.907 209.433 153.709 209.218 157.51C209.116 159.329 208.968 161.146 209.032 163.019C209.338 161.619 209.662 160.228 209.946 158.823C211.222 152.445 212.309 146.005 213.793 139.699C216.524 128.084 220.488 117.049 225.065 106.334C225.408 105.531 225.821 104.774 226.339 104.055C224.92 108.304 223.467 112.539 222.092 116.811C220.703 121.119 219.37 125.454 218.056 129.795C216.739 134.142 215.597 138.555 214.931 143.119C216.899 138.343 218.76 133.494 220.866 128.807C222.993 124.069 225.321 119.454 228.259 115.366C228.338 115.409 228.414 115.453 228.494 115.496C228.394 115.844 228.328 116.215 228.19 116.537C226.421 120.621 224.578 124.66 222.883 128.787C221.081 133.175 219.294 137.586 217.729 142.104C216.67 145.161 216.001 148.418 215.174 151.59C214.416 154.494 214.643 156.234 216.279 160.015C216.463 159.675 216.644 159.44 216.736 159.158C217.864 155.663 218.87 152.105 220.123 148.676C222.033 143.455 224.106 138.322 226.115 133.157C228.111 128.025 230.156 122.915 232.108 117.76C235.169 109.688 237.987 101.471 241.25 93.5218C244.926 84.5622 248.979 75.8301 252.88 67.0063C253.127 66.446 253.49 65.9598 253.88 65.4892C247.44 82.7278 241.283 100.097 235.848 117.85C238.406 111.441 241.244 105.239 244.698 99.4802C248.147 93.7288 251.78 88.1901 256.727 84.2142C256.795 84.2962 256.867 84.3754 256.936 84.4571C256.022 85.6802 255.103 86.9006 254.192 88.1287C250.141 93.5934 246.541 99.4676 243.453 105.784C241.234 110.323 238.978 114.846 236.979 119.528C235.485 123.028 234.191 126.694 233.142 130.424C231.348 136.805 229.67 143.247 228.218 149.753C226.96 155.397 226.079 161.164 225.045 166.879C224.994 167.168 225.068 167.491 225.086 167.8C225.175 167.811 225.262 167.823 225.351 167.834C225.944 165.575 226.582 163.328 227.123 161.051C229.362 151.639 232.943 142.925 236.55 134.224C239.96 126.001 243.897 118.146 248.017 110.425C250.807 105.198 253.628 99.9947 256.474 94.8113C258.802 90.5694 261.104 86.302 263.563 82.1725C266.164 77.8055 268.936 73.5839 271.64 69.3063C271.793 69.0658 271.987 68.8637 272.178 68.6207C258.94 96.1263 245.086 123.154 233.699 151.846C233.785 151.907 233.87 151.966 233.956 152.028C235.598 149.029 237.239 146.031 238.983 143.04C239.184 143.178 239.286 143.311 239.386 143.444C238.707 145.314 238.005 147.177 237.352 149.06C235.955 153.082 234.62 157.137 233.183 161.141C232.287 163.64 231.251 166.066 230.275 168.522C230.15 168.837 230.025 169.149 229.78 169.765C230.163 169.512 230.337 169.463 230.419 169.333C232.948 165.319 235.708 161.561 238.677 158.009C241.944 154.103 245.829 151.444 250.041 149.393C250.148 149.341 250.278 149.367 250.396 149.341C250.559 149.308 250.72 149.262 250.924 149.298C243.154 156.451 237.334 165.695 231.682 175.299C228.854 180.247 226.485 185.313 225.333 191.082C225.589 190.795 225.698 190.427 225.826 190.069C226.533 188.076 227.189 186.052 227.968 184.1C229.14 181.194 230.472 178.39 232.126 175.829ZM187.839 121.529C187.285 118.873 186.78 116.202 186.17 113.565C185.256 109.619 184.258 105.705 183.313 101.77C182.581 98.723 181.876 95.6683 181.159 92.616C181.067 92.6366 180.975 92.6572 180.883 92.6774C180.965 93.4757 181.034 94.2741 181.131 95.0696C181.767 100.232 182.428 105.39 183.046 110.558C183.457 114.007 183.826 117.466 184.179 120.925C184.682 125.847 185.184 130.77 185.618 135.7C185.749 137.166 186.017 138.514 186.522 139.868C187.446 142.339 188.355 144.849 188.996 147.441C190.88 155.093 192.054 162.947 193.233 170.796C193.412 171.984 193.649 173.16 193.859 174.34C193.93 170.61 193.884 166.915 193.616 163.244C193.267 158.449 192.815 153.663 192.274 148.896C191.794 144.657 191.214 140.431 190.533 136.232C189.744 131.358 188.794 126.518 187.839 121.529ZM189.407 165.8C188.804 160.443 188.199 155.085 186.295 150.119C186.173 150.14 186.048 150.16 185.925 150.183C187.25 166.9 188.575 183.617 189.899 200.331C189.984 200.331 190.065 200.333 190.15 200.333C190.201 200.139 190.287 199.947 190.295 199.75C190.372 198.251 190.504 196.749 190.484 195.252C190.392 188.255 190.308 181.258 190.109 174.263C190.03 171.5 189.662 168.745 189.407 165.8ZM219.355 185.305C219.975 181.529 220.544 177.737 221.234 173.979C221.918 170.249 222.725 166.552 223.478 162.84C218.482 173.982 216.024 185.894 215.909 198.839C217.093 194.183 218.201 189.831 219.355 185.305ZM225.928 146.141C226.753 143.035 227.58 139.931 228.404 136.826C224.767 142.418 217.553 166.102 218.275 169.622C218.367 169.476 218.454 169.384 218.497 169.266C219.833 165.728 221.305 162.251 222.462 158.628C223.753 154.591 224.757 150.421 225.928 146.141ZM210.474 182.478C210.357 186.531 210.239 190.586 210.122 194.638C210.198 194.638 210.273 194.641 210.349 194.641C210.576 192.359 210.76 190.069 211.041 187.794C211.646 182.885 212.305 177.986 212.94 173.081C213.275 170.5 213.716 167.928 213.89 165.332C213.989 163.848 213.645 162.318 213.499 160.811C213.471 160.527 213.433 160.245 213.4 159.962C213.272 159.954 213.144 159.944 213.014 159.936C211.393 167.24 210.605 174.693 210.474 182.478ZM170.861 179.239C172.255 185.858 175.017 191.804 177.154 198.225C177.317 194.167 170.956 171.106 169.067 168.701C168.98 168.734 168.893 168.77 168.809 168.804C169.429 170.771 170.047 172.741 170.721 174.88C170.461 174.66 170.318 174.537 170.177 174.419C170.075 174.677 169.973 174.938 169.868 175.197C170.172 176.494 170.481 177.789 170.861 179.239Z" fill="#3A5A40"/>
<path d="M215.761 87.2871C219.21 78.3861 224.236 71.1254 230.511 65.0822C232.946 62.7364 235.532 60.687 238.478 59.4129C239.859 58.8167 241.304 58.7197 242.748 59.0904C244.147 59.4513 244.954 61.9842 244.364 63.9823C243.838 65.7706 242.593 66.615 241.35 67.4004C237.275 69.9793 233.51 73.1004 230.181 76.9252C227.31 80.2232 224.514 83.626 221.811 87.1258C220.358 89.0087 219.123 91.1502 217.875 93.2482C216.422 95.6861 215.062 98.2012 213.655 100.68C213.612 100.757 213.517 100.793 213.525 100.788C213.454 96.1518 214.074 91.6285 215.761 87.2871Z" fill="#3A5A40"/>
<path d="M205.701 87.5786C206.505 89.8018 207.38 91.9099 208.006 94.1254C208.813 96.9732 208.427 99.9612 208.491 103.272C208.024 102.801 207.725 102.591 207.531 102.284C206.158 100.117 204.782 97.9505 203.452 95.7451C200.787 91.3241 197.672 87.4173 194.285 83.8124C192.564 81.9808 190.801 80.2051 189.124 78.3121C188.233 77.3064 187.444 76.1988 187.283 74.5613C187.079 72.4965 188.467 70.6828 190.198 70.7006C191.929 70.7187 193.307 71.7369 194.673 72.7217C198.178 75.2469 200.853 78.8594 203.191 82.8455C204.075 84.3448 204.84 85.9515 205.701 87.5786Z" fill="#3A5A40"/>
<path d="M205.532 37.9886C207.919 40.1452 209.384 42.9367 210.02 46.3674C210.477 48.8364 209.719 50.9214 208.519 52.9299C207.776 51.7759 207.038 50.64 206.311 49.4912C205.142 47.6467 203.888 45.8686 202.839 43.9291C201.795 42.0026 201.287 39.7769 201.068 37.4793C201.037 37.1494 201.147 36.799 201.19 36.4817C202.89 36.0827 204.2 36.955 205.532 37.9886Z" fill="#3A5A40"/>
<path d="M200.889 52.1827C200.544 50.5274 200.225 48.9541 199.865 47.1962C203.554 48.6905 206.234 51.295 208.11 55.2144C209.221 57.535 208.601 59.6968 208.041 61.9176C207.947 62.2911 207.784 62.6363 207.595 63.161C204.19 60.5615 202.099 56.8337 200.889 52.1827Z" fill="#3A5A40"/>
<path d="M206.972 87.0438C203.37 82.5104 201.389 77.1811 201.098 70.9641C203.562 71.7904 205.065 73.6248 206.873 76.9661C208.33 79.6627 208.833 82.5488 208.264 85.6981C208.047 86.9056 207.705 87.2742 206.972 87.0438Z" fill="#3A5A40"/>
<path d="M201.619 59.7072C204.235 61.3011 206.352 63.5142 207.845 66.4436C208.805 68.3265 208.646 70.4859 208.013 72.5402C207.822 73.1619 207.523 73.7375 207.265 74.3568C203.077 70.4807 201.486 65.0875 200.503 59.147C200.891 59.3414 201.226 59.5076 201.619 59.7072Z" fill="#3A5A40"/>
<path d="M239.45 143.413C239.292 143.314 239.192 143.181 239.044 143.012C239.475 142.139 239.955 141.305 240.433 140.474C240.494 140.52 240.558 140.566 240.619 140.612C240.251 141.535 239.879 142.459 239.45 143.413Z" fill="#3A5A40"/>
</g>
<path d="M283.727 1.36853H121.294V225.598H283.727V1.36853Z" stroke="#3A5A40"/>
</svg>
