<svg width="645" height="363" viewBox="0 0 645 363" fill="none" xmlns="http://www.w3.org/2000/svg">
<rect width="644.5" height="362.531" fill="#DAD7CD"/>
<g clip-path="url(#clip0_1732_934)">
<path d="M183.286 233.719H185.654V254.643H207.951V257.056H183.286V233.719ZM181.116 259.271H210.122V252.428H187.864V231.504H181.116V259.271ZM180.129 230.515H188.851L192.679 234.589V251.439H211.108L214.936 255.513V264.096H184.194L180.129 260.26V230.515ZM240.88 254.643C242.406 254.643 243.827 254.485 245.142 254.169C246.484 253.825 247.641 253.298 248.615 252.586C249.615 251.848 250.391 250.899 250.943 249.738C251.496 248.552 251.772 247.101 251.772 245.387C251.772 243.7 251.482 242.263 250.904 241.076C250.351 239.889 249.588 238.94 248.615 238.228C247.641 237.49 246.484 236.963 245.142 236.646C243.827 236.303 242.406 236.132 240.88 236.132H236.539C234.987 236.132 233.54 236.303 232.198 236.646C230.882 236.963 229.738 237.49 228.765 238.228C227.791 238.94 227.015 239.889 226.436 241.076C225.884 242.263 225.607 243.7 225.607 245.387C225.607 247.101 225.884 248.552 226.436 249.738C227.015 250.899 227.791 251.848 228.765 252.586C229.738 253.325 230.882 253.852 232.198 254.169C233.54 254.485 234.987 254.643 236.539 254.643H240.88ZM236.539 252.428C235.355 252.428 234.237 252.309 233.184 252.072C232.132 251.835 231.211 251.452 230.422 250.925C229.633 250.371 229.001 249.646 228.528 248.75C228.054 247.853 227.817 246.732 227.817 245.387C227.817 244.069 228.054 242.961 228.528 242.065C229.001 241.168 229.633 240.443 230.422 239.889C231.238 239.336 232.172 238.94 233.224 238.702C234.276 238.466 235.381 238.347 236.539 238.347H240.88C242.037 238.347 243.142 238.466 244.195 238.702C245.247 238.94 246.168 239.336 246.957 239.889C247.747 240.443 248.378 241.168 248.852 242.065C249.325 242.961 249.562 244.069 249.562 245.387C249.562 246.706 249.325 247.813 248.852 248.71C248.404 249.607 247.786 250.332 246.997 250.886C246.207 251.439 245.287 251.835 244.234 252.072C243.182 252.309 242.064 252.428 240.88 252.428H236.539ZM223.121 245.387C223.121 243.252 223.45 241.445 224.108 239.969C224.792 238.492 225.726 237.292 226.91 236.369C228.12 235.419 229.541 234.748 231.172 234.352C232.829 233.93 234.618 233.719 236.539 233.719H240.88C242.8 233.719 244.576 233.93 246.207 234.352C247.839 234.773 249.246 235.446 250.43 236.369C251.64 237.292 252.574 238.492 253.232 239.969C253.916 241.445 254.258 243.252 254.258 245.387C254.258 247.523 253.916 249.33 253.232 250.806C252.574 252.283 251.64 253.483 250.43 254.406C249.246 255.328 247.839 256.001 246.207 256.423C244.576 256.845 242.8 257.056 240.88 257.056H236.539C234.618 257.056 232.829 256.858 231.172 256.462C229.541 256.041 228.12 255.368 226.91 254.446C225.726 253.496 224.792 252.283 224.108 250.806C223.45 249.33 223.121 247.523 223.121 245.387ZM220.911 245.387C220.911 247.892 221.293 250.029 222.056 251.795C222.845 253.536 223.924 254.959 225.292 256.067C226.686 257.175 228.331 257.992 230.225 258.519C232.145 259.021 234.25 259.271 236.539 259.271H240.88C243.169 259.271 245.26 259.021 247.155 258.519C249.049 257.992 250.68 257.175 252.048 256.067C253.443 254.959 254.521 253.536 255.284 251.795C256.047 250.029 256.429 247.892 256.429 245.387C256.429 242.883 256.047 240.76 255.284 239.019C254.521 237.252 253.443 235.815 252.048 234.708C250.68 233.6 249.049 232.796 247.155 232.295C245.26 231.767 243.169 231.504 240.88 231.504H236.539C234.25 231.504 232.145 231.767 230.225 232.295C228.331 232.796 226.686 233.6 225.292 234.708C223.924 235.815 222.845 237.252 222.056 239.019C221.293 240.76 220.911 242.883 220.911 245.387ZM219.925 245.387C219.925 242.698 220.333 240.417 221.148 238.544C221.964 236.646 223.108 235.103 224.581 233.916C226.055 232.73 227.804 231.873 229.83 231.346C231.882 230.792 234.118 230.515 236.539 230.515H240.88C242.406 230.515 243.84 230.608 245.181 230.792C246.55 230.95 247.891 231.306 249.207 231.86C250.522 232.388 251.825 233.152 253.114 234.154C254.429 235.13 255.784 236.448 257.178 238.109C258.362 239.296 259.336 240.865 260.099 242.817C260.862 244.768 261.243 246.943 261.243 249.343C261.243 252.006 260.835 254.274 260.02 256.146C259.231 258.018 258.099 259.535 256.626 260.695C255.179 261.882 253.443 262.739 251.417 263.266C249.417 263.82 247.22 264.096 244.826 264.096H240.485C237.802 264.096 235.302 263.793 232.987 263.187C230.672 262.58 228.765 261.539 227.265 260.062C225.765 258.744 224.542 257.504 223.595 256.344C222.648 255.157 221.898 253.984 221.345 252.824C220.819 251.663 220.451 250.477 220.24 249.264C220.03 248.051 219.925 246.759 219.925 245.387ZM240.88 251.439C241.906 251.439 242.879 251.347 243.8 251.163C244.747 250.952 245.576 250.609 246.286 250.134C246.997 249.66 247.549 249.039 247.944 248.275C248.365 247.484 248.575 246.521 248.575 245.387C248.575 244.755 248.496 244.175 248.339 243.647C247.26 243.33 246.089 243.172 244.826 243.172H240.485C239.433 243.172 238.433 243.278 237.486 243.488C236.539 243.699 235.697 244.043 234.96 244.517C234.25 244.992 233.684 245.625 233.263 246.416C232.842 247.207 232.632 248.183 232.632 249.343C232.632 249.976 232.685 250.503 232.79 250.925C233.342 251.11 233.934 251.241 234.566 251.321C235.197 251.399 235.855 251.439 236.539 251.439H240.88ZM295.109 238.505C293.925 237.609 292.597 236.989 291.124 236.646C289.677 236.303 288.217 236.132 286.743 236.132H282.442C280.916 236.132 279.482 236.303 278.14 236.646C276.825 236.963 275.68 237.49 274.707 238.228C273.733 238.94 272.957 239.889 272.379 241.076C271.826 242.263 271.549 243.7 271.549 245.387C271.549 247.101 271.826 248.552 272.379 249.738C272.931 250.899 273.694 251.848 274.667 252.586C275.667 253.298 276.825 253.825 278.14 254.169C279.456 254.485 280.889 254.643 282.442 254.643H286.743C288.112 254.643 289.414 254.498 290.65 254.208C291.913 253.892 293.044 253.417 294.044 252.784C295.043 252.125 295.899 251.294 296.609 250.292C297.32 249.264 297.833 248.024 298.148 246.574H287.256V244.201H300.911V245.387C300.911 247.576 300.529 249.422 299.766 250.925C299.003 252.402 297.977 253.601 296.688 254.524C295.399 255.421 293.9 256.067 292.189 256.462C290.479 256.858 288.664 257.056 286.743 257.056H282.442C280.521 257.056 278.745 256.845 277.114 256.423C275.483 256.001 274.063 255.328 272.852 254.406C271.668 253.483 270.734 252.283 270.05 250.806C269.366 249.33 269.024 247.523 269.024 245.387C269.024 243.252 269.366 241.445 270.05 239.969C270.734 238.492 271.668 237.292 272.852 236.369C274.063 235.446 275.483 234.773 277.114 234.352C278.745 233.93 280.521 233.719 282.442 233.719H286.743C287.717 233.719 288.69 233.758 289.663 233.838C290.637 233.891 291.584 234.022 292.505 234.233C293.426 234.444 294.32 234.748 295.189 235.143C296.083 235.512 296.912 236.026 297.675 236.686L295.109 238.505ZM301.029 237.239C300.108 236.026 299.108 235.05 298.03 234.312C296.951 233.574 295.807 232.993 294.596 232.572C293.412 232.15 292.163 231.873 290.847 231.742C289.532 231.583 288.164 231.504 286.743 231.504H282.442C280.153 231.504 278.061 231.767 276.167 232.295C274.273 232.796 272.628 233.6 271.234 234.708C269.866 235.815 268.8 237.252 268.038 239.019C267.274 240.76 266.893 242.883 266.893 245.387C266.893 247.892 267.274 250.029 268.038 251.795C268.8 253.536 269.866 254.959 271.234 256.067C272.628 257.175 274.273 257.992 276.167 258.519C278.061 259.021 280.153 259.271 282.442 259.271H286.743C289.006 259.271 291.124 259.033 293.097 258.559C295.096 258.058 296.833 257.267 298.306 256.185C299.779 255.078 300.937 253.641 301.779 251.874C302.647 250.107 303.081 247.945 303.081 245.387V242.025H285.046V248.75H295.307C294.886 249.461 294.347 250.055 293.689 250.529C293.031 251.004 292.308 251.387 291.518 251.676C290.756 251.94 289.953 252.138 289.111 252.27C288.295 252.375 287.506 252.428 286.743 252.428H282.442C281.258 252.428 280.14 252.309 279.087 252.072C278.035 251.835 277.114 251.452 276.325 250.925C275.535 250.371 274.904 249.646 274.43 248.75C273.957 247.853 273.72 246.732 273.72 245.387C273.72 244.069 273.957 242.961 274.43 242.065C274.904 241.168 275.535 240.443 276.325 239.889C277.141 239.336 278.074 238.94 279.127 238.702C280.179 238.466 281.284 238.347 282.442 238.347H286.743C288.295 238.347 289.782 238.597 291.203 239.098C292.623 239.573 293.886 240.391 294.991 241.55L301.029 237.239ZM273.207 259.864C271.734 258.599 270.524 257.399 269.576 256.265C268.629 255.131 267.88 253.997 267.327 252.863C266.801 251.703 266.432 250.529 266.222 249.343C266.012 248.13 265.907 246.812 265.907 245.387C265.907 242.698 266.314 240.417 267.13 238.544C267.945 236.646 269.076 235.103 270.524 233.916C271.997 232.73 273.746 231.873 275.772 231.346C277.798 230.792 280.022 230.515 282.442 230.515H286.743C288.19 230.515 289.585 230.581 290.927 230.713C292.268 230.844 293.571 231.121 294.833 231.543C296.096 231.939 297.306 232.546 298.464 233.363C299.648 234.154 300.792 235.222 301.897 236.567C302.686 237.358 303.331 238.017 303.831 238.544C304.331 239.072 304.725 239.52 305.015 239.889C305.33 240.258 305.567 240.562 305.725 240.799C305.909 241.01 306.067 241.208 306.199 241.392L305.015 242.223L307.896 245.11V249.343C307.896 252.059 307.449 254.353 306.554 256.226C305.659 258.098 304.436 259.614 302.884 260.774C301.332 261.961 299.503 262.804 297.398 263.305C295.32 263.833 293.083 264.096 290.69 264.096H286.388C283.704 264.096 281.205 263.754 278.89 263.068C276.575 262.409 274.681 261.341 273.207 259.864ZM284.06 243.41C283.271 243.541 282.534 243.752 281.85 244.043C281.192 244.306 280.613 244.675 280.113 245.15C279.614 245.625 279.219 246.218 278.929 246.93C278.667 247.616 278.535 248.42 278.535 249.343C278.535 249.976 278.587 250.503 278.692 250.925C279.245 251.11 279.837 251.241 280.469 251.321C281.1 251.399 281.758 251.439 282.442 251.439H285.993L284.06 249.738V243.41ZM341.499 248.473L333.172 236.646L324.648 248.473H341.499ZM337.237 246.336H328.871L333.094 240.404L337.237 246.336ZM347.38 257.056L343.117 250.925H322.951C322.215 251.927 321.491 252.955 320.781 254.01C320.097 255.039 319.387 256.054 318.65 257.056H315.493C318.281 253.127 321.057 249.237 323.82 245.387C326.608 241.538 329.384 237.648 332.147 233.719H334.041L350.339 257.056H347.38ZM331.081 231.504L311.349 259.271H319.716L324.057 253.14H341.894L346.196 259.271H354.562L335.225 231.504H331.081ZM339.644 234.589L360.166 264.096H349.668L345.683 260.26L344.065 257.965H328.476C328.161 258.44 327.806 258.941 327.411 259.468C327.042 259.996 326.661 260.524 326.266 261.051C325.898 261.605 325.529 262.132 325.162 262.633C324.793 263.161 324.451 263.649 324.135 264.096H313.599L309.415 260.26L330.568 230.515H335.738L339.644 234.589ZM367.01 237.477V257.056H364.681V233.719H366.694L387.886 253.298V233.719H390.254V257.056H388.281L367.01 237.477ZM392.463 231.504H385.715V248.315L367.443 231.504H362.471V259.271H369.22V242.421L387.531 259.271H392.463V231.504ZM361.484 260.26V230.515H367.799L384.729 246.06V230.515H393.451L397.278 234.589V264.096H391.122L374.034 248.393V264.096H365.549L361.484 260.26ZM408.788 237.912L409.341 236.528V232.888H411.866V235.855L410.13 237.912H408.788ZM411.077 240.127L414.037 236.725V230.673H407.17V236.053L405.473 240.127H411.077ZM404.013 241.115L406.183 235.934V229.685H415.023L418.852 233.758V240.997L415.418 244.952H408.157L404.013 241.115ZM429.614 251.637C430.456 252.455 431.39 253.074 432.416 253.496C433.442 253.918 434.507 254.221 435.613 254.406C436.717 254.564 437.849 254.657 439.006 254.682C440.164 254.682 441.282 254.682 442.361 254.682C442.756 254.682 443.281 254.67 443.94 254.643C444.623 254.617 445.347 254.564 446.11 254.485C446.899 254.379 447.688 254.247 448.478 254.089C449.267 253.905 449.977 253.667 450.609 253.378C451.266 253.087 451.793 252.744 452.187 252.349C452.608 251.927 452.819 251.426 452.819 250.846C452.819 250.265 452.595 249.765 452.148 249.343C451.727 248.895 451.174 248.512 450.49 248.196C449.806 247.88 449.03 247.616 448.162 247.405C447.32 247.167 446.478 246.996 445.636 246.89C444.794 246.759 444.005 246.666 443.269 246.613C442.558 246.561 441.98 246.535 441.532 246.535H441.572C440.94 246.508 440.164 246.442 439.243 246.336C438.323 246.231 437.362 246.073 436.362 245.862C435.362 245.651 434.363 245.387 433.363 245.071C432.364 244.728 431.469 244.32 430.68 243.845C429.891 243.37 429.246 242.817 428.746 242.184C428.246 241.524 427.996 240.773 427.996 239.929C427.996 239.006 428.233 238.215 428.707 237.556C429.206 236.897 429.838 236.343 430.601 235.894C431.39 235.419 432.271 235.05 433.245 234.787C434.218 234.497 435.205 234.273 436.204 234.114C437.204 233.956 438.152 233.851 439.046 233.798C439.966 233.745 440.743 233.719 441.374 233.719C442.4 233.719 443.44 233.772 444.492 233.877C445.571 233.956 446.623 234.114 447.649 234.352C448.675 234.589 449.675 234.919 450.648 235.341C451.622 235.736 452.516 236.251 453.332 236.883L451.24 238.386C450.477 237.859 449.675 237.45 448.833 237.16C447.991 236.844 447.123 236.606 446.228 236.448C445.334 236.29 444.426 236.198 443.505 236.171C442.585 236.118 441.69 236.092 440.822 236.092C440.217 236.092 439.388 236.132 438.335 236.211C437.31 236.29 436.283 236.461 435.257 236.725C434.258 236.963 433.389 237.345 432.653 237.872C431.916 238.373 431.548 239.059 431.548 239.929C431.548 240.773 431.903 241.458 432.613 241.986C433.324 242.487 434.258 242.895 435.415 243.212C436.573 243.502 437.888 243.74 439.361 243.924C440.861 244.082 442.387 244.253 443.94 244.438C445.491 244.622 447.004 244.847 448.478 245.11C449.977 245.348 451.306 245.704 452.463 246.178C453.621 246.627 454.555 247.234 455.265 247.998C455.976 248.737 456.331 249.685 456.331 250.846C456.331 251.663 456.081 252.389 455.581 253.021C455.108 253.654 454.476 254.208 453.687 254.682C452.897 255.131 452.003 255.513 451.003 255.83C450.029 256.12 449.043 256.357 448.044 256.542C447.07 256.726 446.136 256.858 445.242 256.937C444.347 257.016 443.611 257.056 443.032 257.056H440.072C438.993 257.056 437.862 257.016 436.678 256.937C435.494 256.858 434.337 256.687 433.206 256.423C432.074 256.133 430.995 255.738 429.969 255.236C428.943 254.735 428.036 254.05 427.247 253.179L429.614 251.637ZM423.971 252.349C425.023 254.063 426.273 255.395 427.72 256.344C429.167 257.267 430.732 257.952 432.416 258.401C434.1 258.822 435.836 259.073 437.625 259.152C439.441 259.232 441.243 259.271 443.032 259.271C443.821 259.271 444.755 259.218 445.834 259.113C446.912 258.981 448.03 258.783 449.188 258.519C450.346 258.256 451.477 257.913 452.582 257.491C453.713 257.043 454.713 256.515 455.581 255.909C456.476 255.276 457.186 254.551 457.712 253.733C458.265 252.89 458.541 251.927 458.541 250.846C458.541 249.554 458.251 248.46 457.672 247.563C457.12 246.64 456.383 245.875 455.463 245.269C454.568 244.636 453.529 244.135 452.345 243.766C451.188 243.37 449.99 243.067 448.754 242.856C447.517 242.645 446.307 242.487 445.124 242.381C443.94 242.276 442.887 242.184 441.966 242.104C441.65 242.078 441.045 242.025 440.151 241.946C439.256 241.841 438.335 241.709 437.388 241.55C436.441 241.366 435.599 241.142 434.862 240.878C434.126 240.615 433.758 240.298 433.758 239.929C433.758 239.507 434.1 239.19 434.784 238.979C435.468 238.769 436.244 238.61 437.112 238.505C438.006 238.4 438.862 238.347 439.677 238.347C440.519 238.32 441.085 238.308 441.374 238.308C442.216 238.308 443.071 238.347 443.94 238.426C444.807 238.478 445.649 238.61 446.465 238.821C447.307 239.032 448.096 239.336 448.833 239.731C449.596 240.127 450.293 240.641 450.924 241.274L456.686 237.398C455.687 236.026 454.555 234.958 453.292 234.194C452.03 233.403 450.688 232.809 449.267 232.413C447.846 232.018 446.36 231.767 444.807 231.662C443.281 231.557 441.743 231.504 440.19 231.504C439.375 231.504 438.441 231.57 437.388 231.701C436.362 231.807 435.31 231.992 434.231 232.255C433.179 232.519 432.14 232.862 431.114 233.284C430.114 233.706 429.22 234.233 428.43 234.866C427.641 235.499 427.01 236.237 426.536 237.081C426.063 237.898 425.826 238.848 425.826 239.929C425.826 241.168 426.128 242.237 426.733 243.133C427.338 244.029 428.141 244.794 429.14 245.427C430.14 246.06 431.271 246.574 432.535 246.97C433.797 247.365 435.073 247.695 436.362 247.958C437.678 248.196 438.941 248.393 440.151 248.552C441.387 248.684 442.466 248.802 443.387 248.908C443.65 248.934 444.163 248.987 444.926 249.066C445.715 249.145 446.531 249.264 447.373 249.422C448.215 249.554 448.964 249.738 449.622 249.976C450.28 250.213 450.609 250.503 450.609 250.846C450.609 251.136 450.398 251.387 449.977 251.598C449.557 251.782 449.017 251.94 448.359 252.072C447.702 252.178 446.978 252.256 446.189 252.309C445.4 252.362 444.623 252.402 443.86 252.428C443.124 252.455 442.453 252.468 441.848 252.468C441.269 252.468 440.861 252.468 440.625 252.468C439.625 252.468 438.638 252.428 437.664 252.349C436.691 252.244 435.744 252.059 434.823 251.795C433.902 251.505 433.034 251.11 432.218 250.609C431.403 250.107 430.667 249.435 430.009 248.591L423.971 252.349ZM429.693 247.603L427.799 245.664C426.878 244.979 426.154 244.175 425.628 243.252C425.102 242.302 424.839 241.195 424.839 239.929C424.839 238.716 425.089 237.648 425.589 236.725C426.115 235.776 426.799 234.958 427.641 234.273C428.483 233.587 429.443 233.007 430.521 232.532C431.6 232.031 432.705 231.636 433.836 231.346C434.968 231.055 436.086 230.844 437.191 230.713C438.296 230.581 439.295 230.515 440.19 230.515C441.743 230.515 443.308 230.568 444.887 230.673C446.465 230.752 448.004 230.99 449.504 231.385C451.03 231.781 452.49 232.388 453.884 233.205C455.279 234.022 456.581 235.169 457.791 236.646C458.607 237.463 459.251 238.149 459.725 238.702C460.198 239.23 460.567 239.678 460.83 240.047C461.119 240.416 461.329 240.72 461.461 240.957C461.593 241.168 461.724 241.366 461.856 241.55L456.805 244.952C456.936 245.084 457.081 245.203 457.238 245.308C457.423 245.387 457.672 245.559 457.989 245.823C458.304 246.086 458.712 246.469 459.212 246.97C459.738 247.444 460.435 248.13 461.304 249.026C461.935 249.686 462.435 250.529 462.803 251.558C463.171 252.586 463.355 253.667 463.355 254.801C463.355 255.988 463.066 257.043 462.488 257.965C461.908 258.888 461.158 259.693 460.238 260.378C459.317 261.064 458.265 261.644 457.081 262.119C455.897 262.593 454.699 262.976 453.49 263.266C452.279 263.556 451.095 263.767 449.938 263.899C448.806 264.031 447.82 264.096 446.978 264.096C445.426 264.096 443.847 264.096 442.242 264.096C440.637 264.096 439.059 263.965 437.507 263.701C435.981 263.438 434.495 263.003 433.047 262.396C431.6 261.789 430.272 260.866 429.061 259.627C428.036 258.678 427.167 257.847 426.457 257.135C425.773 256.396 425.181 255.738 424.681 255.157C424.208 254.551 423.8 253.997 423.458 253.496C423.142 252.995 422.839 252.507 422.55 252.033L429.693 247.603Z" fill="#3A5A40"/>
<path d="M226.866 298.3H232.412V300.983H223.489V284.111H226.866V298.3ZM248.257 297.768H241.552L240.443 300.983H236.898L242.951 284.087H246.882L252.935 300.983H249.366L248.257 297.768ZM247.34 295.061L244.904 288.002L242.469 295.061H247.34ZM272.972 300.983H269.595L261.951 289.405V300.983H258.574V284.087H261.951L269.595 295.689V284.087H272.972V300.983ZM285.57 284.111C287.338 284.111 288.89 284.458 290.224 285.15C291.574 285.843 292.612 286.833 293.335 288.123C294.074 289.396 294.444 290.879 294.444 292.571C294.444 294.263 294.074 295.747 293.335 297.019C292.612 298.276 291.574 299.251 290.224 299.943C288.89 300.636 287.338 300.983 285.57 300.983H279.685V284.111H285.57ZM285.449 298.107C287.217 298.107 288.584 297.623 289.548 296.656C290.513 295.689 290.996 294.327 290.996 292.571C290.996 290.815 290.513 289.444 289.548 288.462C288.584 287.462 287.217 286.963 285.449 286.963H283.061V298.107H285.449ZM306.16 301.152C304.987 301.152 303.925 300.95 302.976 300.548C302.044 300.146 301.305 299.565 300.758 298.807C300.212 298.05 299.93 297.155 299.914 296.124H303.532C303.58 296.817 303.821 297.366 304.255 297.768C304.705 298.17 305.316 298.372 306.088 298.372C306.875 298.372 307.495 298.188 307.945 297.816C308.395 297.43 308.62 296.931 308.62 296.317C308.62 295.819 308.467 295.408 308.161 295.085C307.857 294.762 307.47 294.513 307.004 294.336C306.554 294.142 305.927 293.934 305.123 293.707C304.03 293.384 303.137 293.07 302.446 292.764C301.771 292.441 301.184 291.966 300.686 291.338C300.203 290.694 299.962 289.84 299.962 288.776C299.962 287.776 300.212 286.906 300.71 286.165C301.208 285.425 301.908 284.86 302.808 284.473C303.708 284.071 304.737 283.869 305.894 283.869C307.631 283.869 309.038 284.295 310.115 285.15C311.209 285.988 311.811 287.165 311.924 288.679H308.21C308.178 288.099 307.929 287.625 307.463 287.253C307.013 286.866 306.41 286.673 305.653 286.673C304.995 286.673 304.464 286.842 304.062 287.18C303.676 287.519 303.483 288.012 303.483 288.656C303.483 289.106 303.628 289.486 303.917 289.792C304.223 290.081 304.592 290.323 305.027 290.516C305.477 290.694 306.104 290.903 306.907 291.145C308.001 291.468 308.893 291.789 309.584 292.112C310.276 292.435 310.871 292.918 311.369 293.562C311.868 294.206 312.117 295.052 312.117 296.1C312.117 297.004 311.884 297.841 311.418 298.614C310.951 299.387 310.268 300.008 309.368 300.475C308.467 300.926 307.398 301.152 306.16 301.152ZM317.601 292.523C317.601 290.864 317.971 289.38 318.71 288.075C319.466 286.755 320.486 285.73 321.773 285.006C323.075 284.264 324.53 283.893 326.138 283.893C328.019 283.893 329.667 284.377 331.082 285.344C332.496 286.31 333.485 287.649 334.048 289.356H330.165C329.779 288.55 329.233 287.945 328.525 287.543C327.834 287.141 327.03 286.939 326.114 286.939C325.133 286.939 324.256 287.172 323.485 287.64C322.729 288.09 322.134 288.736 321.7 289.573C321.282 290.411 321.073 291.396 321.073 292.523C321.073 293.635 321.282 294.617 321.7 295.472C322.134 296.309 322.729 296.961 323.485 297.43C324.256 297.88 325.133 298.107 326.114 298.107C327.03 298.107 327.834 297.904 328.525 297.502C329.233 297.082 329.779 296.471 330.165 295.665H334.048C333.485 297.39 332.496 298.735 331.082 299.702C329.683 300.654 328.035 301.128 326.138 301.128C324.53 301.128 323.075 300.765 321.773 300.04C320.486 299.3 319.466 298.276 318.71 296.971C317.971 295.665 317.601 294.182 317.601 292.523ZM350.63 297.768H343.925L342.817 300.983H339.271L345.325 284.087H349.256L355.309 300.983H351.739L350.63 297.768ZM349.713 295.061L347.278 288.002L344.842 295.061H349.713ZM373.223 289.332C373.223 290.235 373.006 291.081 372.572 291.87C372.154 292.659 371.486 293.296 370.57 293.78C369.67 294.263 368.528 294.505 367.145 294.505H364.324V300.983H360.948V284.111H367.145C368.448 284.111 369.557 284.337 370.474 284.787C371.39 285.238 372.074 285.86 372.524 286.649C372.99 287.438 373.223 288.332 373.223 289.332ZM367.001 291.773C367.933 291.773 368.625 291.564 369.075 291.145C369.525 290.71 369.75 290.106 369.75 289.332C369.75 287.688 368.834 286.866 367.001 286.866H364.324V291.773H367.001ZM382.373 284.111V300.983H378.996V284.111H382.373ZM403.483 300.983H400.107L392.462 289.405V300.983H389.085V284.087H392.462L400.107 295.689V284.087H403.483V300.983ZM421.917 289.187C421.531 288.477 421 287.939 420.325 287.567C419.65 287.196 418.861 287.012 417.961 287.012C416.964 287.012 416.081 287.238 415.309 287.688C414.537 288.139 413.934 288.785 413.5 289.622C413.066 290.459 412.849 291.426 412.849 292.523C412.849 293.65 413.066 294.634 413.5 295.472C413.95 296.309 414.568 296.955 415.357 297.406C416.144 297.856 417.061 298.082 418.107 298.082C419.391 298.082 420.446 297.744 421.266 297.067C422.086 296.375 422.623 295.415 422.882 294.191H417.094V291.604H426.21V294.553C425.984 295.729 425.501 296.817 424.762 297.816C424.021 298.816 423.066 299.621 421.892 300.234C420.735 300.829 419.433 301.128 417.986 301.128C416.361 301.128 414.89 300.765 413.573 300.04C412.27 299.3 411.24 298.276 410.485 296.971C409.745 295.665 409.376 294.182 409.376 292.523C409.376 290.864 409.745 289.38 410.485 288.075C411.24 286.755 412.27 285.73 413.573 285.006C414.89 284.264 416.353 283.893 417.961 283.893C419.858 283.893 421.507 284.362 422.905 285.295C424.305 286.214 425.269 287.51 425.8 289.187H421.917Z" fill="#3A5A40"/>
<path d="M281.021 317.463H366.525" stroke="#3A5A40" stroke-linecap="round"/>
<mask id="mask0_1732_934" style="mask-type:luminance" maskUnits="userSpaceOnUse" x="272" y="65" width="107" height="127">
<path d="M378.209 65.8548H272.25V191.11H378.209V65.8548Z" fill="white"/>
</mask>
<g mask="url(#mask0_1732_934)">
<path d="M346.055 169.789C346.92 168.727 347.735 167.594 348.664 166.626C349.483 165.775 350.412 165.07 351.327 164.369C352.174 163.719 353.069 163.159 354.017 162.707C353.328 163.566 352.672 164.47 351.944 165.277C349.904 167.534 347.948 169.882 346.52 172.771C345.29 175.26 344.225 177.853 343.701 180.721C343.471 181.986 343.222 183.245 342.981 184.506C343.051 184.545 343.12 184.583 343.19 184.621C343.321 184.389 343.46 184.162 343.584 183.925C345.191 180.881 346.653 177.705 348.438 174.82C350.735 171.103 353.438 167.823 356.97 165.756C357.395 165.508 357.844 165.315 358.315 165.169C352.861 170.903 347.943 177.033 346.655 186.187C350.433 176.204 356.657 170.245 365.736 168.983C362.791 170.517 359.97 172.334 357.32 174.556C354.614 176.824 352.325 179.573 350.432 182.909C354.701 185.139 358.927 187.349 363.155 189.558C363.136 189.616 363.118 189.674 363.1 189.732C362.213 189.516 361.328 189.276 360.437 189.089C359.844 188.965 359.239 188.84 358.64 188.84C335.586 188.829 312.531 188.831 289.478 188.847C288.621 188.847 287.767 189.038 286.91 189.13C286.779 189.144 286.642 189.101 286.5 189.002C290.488 186.602 294.858 185.715 299.082 184.202C298.015 180.878 296.015 178.587 293.622 176.625C290.649 174.191 287.352 172.862 283.901 171.93C281.913 171.392 279.905 171.193 277.873 171.248C277.76 171.251 277.645 171.172 277.558 171.029C285.059 169.038 291.743 171.237 297.802 176.808C294.324 170.815 289.553 166.567 284.716 162.369C287.913 163.405 290.811 165.175 293.468 167.545C296.156 169.943 298.791 172.408 300.774 175.739C300.828 175.712 300.88 175.685 300.934 175.659C300.842 175.274 300.753 174.888 300.661 174.503C299.938 171.489 299.313 168.432 298.466 165.469C297.541 162.235 296.523 159.025 295.338 155.919C294.058 152.563 292.126 149.721 289.674 147.508C287.584 145.62 285.367 143.933 283.207 142.156C283.034 142.014 282.875 141.849 282.736 141.611C284.445 141.734 286.081 142.241 287.603 143.145C289.106 144.038 290.547 145.085 292.205 146.192C286.651 132.642 282.419 118.645 278.619 104.421C278.989 105.23 279.396 106.019 279.723 106.854C281.642 111.768 283.536 116.699 285.453 121.615C288.036 128.233 290.616 134.852 293.231 141.452C294.294 144.132 295.349 146.827 296.581 149.392C297.873 152.075 299.372 154.612 300.782 157.213C300.968 157.555 301.165 157.89 301.472 158.137C300.296 153.338 299.12 148.541 297.944 143.742C298.008 143.717 298.071 143.692 298.136 143.668C299.443 146.802 300.75 149.936 302.058 153.069C302.118 153.041 302.178 153.014 302.241 152.986C302.11 152.476 301.967 151.967 301.846 151.453C300.992 147.777 300.11 144.112 299.299 140.419C298.457 136.585 297.637 132.743 296.901 128.878C296.193 125.162 295.568 121.423 294.97 117.678C294.394 114.074 293.821 110.465 293.394 106.833C292.953 103.103 292.55 99.3513 292.381 95.5936C292.16 90.6243 292.168 85.6385 292.115 80.6601C292.099 79.0274 292.205 77.3947 292.387 75.7547C292.451 76.628 292.519 77.499 292.58 78.3721C292.847 82.1261 293.09 85.8819 293.382 89.6321C293.625 92.753 293.844 95.8828 294.218 98.9814C294.643 102.503 295.161 106.012 295.758 109.495C296.503 113.842 297.294 118.18 298.203 122.479C299.5 128.605 300.901 134.7 302.296 140.795C303.342 145.365 304.513 149.895 305.517 154.479C306.653 159.662 307.668 164.883 308.731 170.091C309.584 174.266 310.44 178.439 311.271 182.619C311.547 184.003 311.748 185.407 311.989 186.8C312.016 186.962 312.074 187.116 312.237 187.244C311.353 179.568 310.469 171.891 309.587 164.215C309.615 164.212 309.642 164.208 309.67 164.206C310.464 167.505 311.26 170.803 312.036 174.021C311.914 171.655 311.789 169.212 311.658 166.771C311.421 162.299 311.165 157.829 310.944 153.358C310.824 150.9 310.776 148.436 310.663 145.977C310.535 143.198 309.843 140.568 308.954 138.048C307.742 134.615 306.395 131.254 305.042 127.898C303.444 123.938 301.565 120.169 299.564 116.488C299.085 115.608 298.697 114.654 298.272 113.75C299.266 114.308 302.535 119.027 304.938 123.614C306.812 127.19 308.537 130.867 309.892 134.815C308.395 119.261 307.175 103.685 304.978 88.2576C305.038 88.2431 305.101 88.2284 305.161 88.2137C305.517 89.6414 305.875 91.069 306.227 92.4985C306.961 95.4655 307.626 98.458 308.437 101.394C309.797 106.314 311.236 111.202 312.662 116.095C314.421 122.127 315.966 128.241 317.17 134.469C317.98 138.659 318.661 142.885 319.361 147.104C319.613 148.629 319.746 150.18 319.962 151.956C320.706 139.429 322.77 127.43 325.425 115.553C325.27 116.832 325.122 118.112 324.959 119.387C324.532 122.739 324.09 126.088 323.672 129.441C323.261 132.719 322.834 135.994 322.483 139.281C322.219 141.769 322.056 144.274 321.86 146.773C321.643 149.56 321.369 152.346 321.254 155.141C321.152 157.603 321.218 160.075 321.24 162.543C321.269 165.77 321.301 168.996 321.379 172.221C321.475 176.259 321.592 180.297 321.754 184.33C321.797 185.385 322.04 186.426 322.189 187.473C322.253 187.473 322.315 187.475 322.379 187.475C322.379 187.223 322.377 186.97 322.379 186.718C322.416 183.699 322.387 180.677 322.505 177.665C322.648 174.092 322.929 170.526 323.128 166.955C323.208 165.521 323.237 164.082 323.282 162.645C323.451 157.04 323.599 151.434 323.789 145.83C323.893 142.769 324.021 139.708 324.218 136.655C324.406 133.763 324.707 130.882 324.947 127.996C325.187 125.08 325.416 122.162 325.648 119.245C325.674 118.915 325.701 118.586 325.834 118.26C325.85 118.451 325.88 118.642 325.88 118.833C325.886 122.666 325.935 126.5 325.878 130.331C325.788 136.468 325.657 142.604 325.489 148.737C325.259 157.186 325.275 165.634 325.526 174.081C325.608 176.856 325.79 179.626 325.986 182.399C326.035 181.396 326.075 180.393 326.14 179.392C326.388 175.473 326.637 171.555 326.901 167.638C327.019 165.865 327.145 164.091 327.311 162.323C327.449 160.862 326.749 159.693 326.461 158.382C326.402 158.115 326.323 157.855 326.256 157.592C326.323 157.545 326.391 157.5 326.461 157.455C326.838 158.209 327.218 158.963 327.596 159.717C327.657 159.713 327.717 159.711 327.779 159.707C327.779 158.917 327.743 158.122 327.786 157.335C327.969 154.017 328.193 150.7 328.372 147.382C328.646 142.297 328.906 137.209 329.154 132.123C329.266 129.826 329.366 127.527 329.419 125.226C329.537 119.937 329.656 114.649 329.709 109.357C329.756 104.546 329.622 99.7301 329.766 94.9236C329.824 92.945 329.218 91.0965 329.395 89.1234C329.603 86.7879 330.083 84.661 331.674 83.1346C331.985 82.8362 332.36 82.6387 332.706 82.3935C332.768 82.4282 332.832 82.4612 332.894 82.4959C332.713 83.9765 332.671 85.5066 332.325 86.9271C331.519 90.2125 331.451 93.5529 331.552 97.1694C331.895 96.5928 332.167 96.1353 332.439 95.6778C332.508 95.7345 332.58 95.7894 332.649 95.8461C332.563 96.7246 332.541 97.6197 332.382 98.4782C331.621 102.627 331.754 106.85 331.621 111.052C331.453 116.32 331.258 121.586 331.077 126.852C330.995 129.211 330.945 131.572 330.834 133.927C330.606 138.795 330.349 143.657 330.098 148.523C329.96 151.244 329.821 153.964 329.667 156.683C329.594 157.985 329.488 159.285 329.534 160.625C329.753 159.623 329.985 158.628 330.188 157.623C331.101 153.06 331.878 148.453 332.94 143.941C334.893 135.632 337.729 127.737 341.003 120.072C341.249 119.497 341.544 118.956 341.915 118.441C340.9 121.481 339.86 124.511 338.877 127.567C337.883 130.649 336.929 133.75 335.989 136.856C335.047 139.966 334.23 143.123 333.754 146.388C335.162 142.971 336.493 139.502 338 136.149C339.521 132.76 341.186 129.458 343.288 126.533C343.345 126.564 343.399 126.596 343.456 126.626C343.385 126.875 343.338 127.141 343.239 127.371C341.973 130.293 340.655 133.182 339.442 136.135C338.153 139.274 336.875 142.43 335.755 145.662C334.998 147.849 334.519 150.179 333.928 152.448C333.385 154.526 333.548 155.771 334.718 158.475C334.85 158.232 334.979 158.064 335.045 157.862C335.852 155.362 336.572 152.817 337.468 150.364C338.834 146.628 340.317 142.956 341.754 139.261C343.182 135.59 344.645 131.934 346.042 128.246C348.231 122.471 350.247 116.593 352.582 110.906C355.211 104.496 358.111 98.2492 360.901 91.9366C361.078 91.5358 361.338 91.1879 361.617 90.8513C357.01 103.184 352.605 115.61 348.717 128.31C350.547 123.725 352.577 119.288 355.048 115.169C357.515 111.054 360.114 107.092 363.653 104.247C363.702 104.306 363.753 104.363 363.803 104.421C363.149 105.296 362.492 106.169 361.84 107.048C358.942 110.957 356.367 115.16 354.157 119.678C352.57 122.926 350.956 126.161 349.526 129.511C348.457 132.015 347.532 134.637 346.781 137.306C345.498 141.871 344.298 146.48 343.259 151.134C342.359 155.172 341.729 159.297 340.989 163.386C340.953 163.593 341.006 163.824 341.018 164.045C341.082 164.053 341.144 164.061 341.208 164.069C341.632 162.453 342.089 160.846 342.476 159.217C344.077 152.483 346.639 146.249 349.219 140.024C351.659 134.142 354.475 128.522 357.422 122.999C359.418 119.259 361.436 115.537 363.472 111.828C365.138 108.794 366.784 105.741 368.543 102.787C370.404 99.6624 372.387 96.6423 374.322 93.582C374.431 93.41 374.57 93.2654 374.706 93.0916C365.236 112.769 355.326 132.105 347.18 152.631C347.241 152.675 347.302 152.717 347.364 152.762C348.538 150.616 349.712 148.471 350.96 146.331C351.104 146.43 351.177 146.525 351.248 146.621C350.762 147.958 350.26 149.291 349.793 150.638C348.794 153.516 347.839 156.417 346.811 159.281C346.17 161.069 345.429 162.804 344.73 164.561C344.641 164.787 344.552 165.01 344.376 165.451C344.65 165.27 344.775 165.235 344.833 165.142C346.643 162.27 348.617 159.581 350.741 157.04C353.078 154.246 355.857 152.344 358.87 150.876C358.947 150.839 359.04 150.858 359.124 150.839C359.241 150.816 359.356 150.783 359.502 150.808C353.944 155.926 349.78 162.539 345.737 169.41C343.714 172.95 342.019 176.574 341.195 180.701C341.378 180.496 341.456 180.232 341.548 179.976C342.054 178.55 342.523 177.102 343.08 175.706C343.918 173.627 344.871 171.621 346.055 169.789ZM314.373 130.942C313.977 129.042 313.616 127.131 313.179 125.245C312.525 122.422 311.811 119.622 311.135 116.807C310.612 114.627 310.107 112.442 309.595 110.258C309.529 110.273 309.463 110.287 309.397 110.302C309.456 110.873 309.505 111.444 309.575 112.013C310.029 115.706 310.502 119.396 310.944 123.094C311.238 125.561 311.502 128.036 311.755 130.51C312.115 134.032 312.474 137.553 312.784 141.08C312.878 142.129 313.07 143.094 313.431 144.062C314.092 145.83 314.742 147.626 315.201 149.48C316.549 154.954 317.388 160.573 318.232 166.188C318.36 167.038 318.529 167.879 318.68 168.724C318.73 166.055 318.698 163.412 318.506 160.786C318.256 157.355 317.933 153.931 317.546 150.521C317.202 147.488 316.788 144.465 316.3 141.461C315.736 137.974 315.056 134.512 314.373 130.942ZM315.495 162.614C315.063 158.782 314.631 154.949 313.269 151.396C313.181 151.411 313.092 151.425 313.004 151.442C313.952 163.401 314.9 175.36 315.847 187.318C315.908 187.318 315.966 187.319 316.026 187.319C316.063 187.18 316.124 187.043 316.13 186.902C316.185 185.83 316.28 184.755 316.265 183.684C316.199 178.679 316.139 173.673 315.997 168.669C315.941 166.692 315.677 164.721 315.495 162.614ZM336.919 176.568C337.362 173.867 337.769 171.154 338.263 168.465C338.752 165.797 339.329 163.152 339.868 160.496C336.294 168.468 334.536 176.989 334.453 186.25C335.3 182.919 336.093 179.806 336.919 176.568ZM341.621 148.55C342.211 146.328 342.803 144.107 343.392 141.886C340.79 145.887 335.63 162.83 336.146 165.348C336.212 165.244 336.274 165.178 336.305 165.094C337.261 162.563 338.314 160.075 339.141 157.483C340.065 154.595 340.783 151.612 341.621 148.55ZM330.565 174.546C330.482 177.445 330.397 180.346 330.314 183.245C330.368 183.245 330.422 183.247 330.476 183.247C330.638 181.615 330.77 179.976 330.971 178.349C331.404 174.837 331.875 171.332 332.33 167.823C332.569 165.976 332.885 164.136 333.009 162.279C333.08 161.218 332.834 160.123 332.729 159.045C332.709 158.842 332.682 158.64 332.659 158.438C332.567 158.432 332.475 158.425 332.382 158.419C331.223 163.644 330.659 168.976 330.565 174.546ZM302.228 172.228C303.225 176.964 305.201 181.217 306.73 185.811C306.846 182.908 302.296 166.41 300.944 164.689C300.882 164.713 300.82 164.739 300.76 164.763C301.203 166.17 301.645 167.58 302.128 169.11C301.942 168.953 301.839 168.865 301.738 168.78C301.665 168.965 301.592 169.151 301.517 169.337C301.735 170.265 301.956 171.191 302.228 172.228Z" fill="#3A5A40"/>
<path d="M334.348 106.446C336.815 100.078 340.41 94.8834 344.899 90.5601C346.641 88.8819 348.491 87.4158 350.599 86.5043C351.586 86.0777 352.62 86.0083 353.653 86.2735C354.654 86.5317 355.231 88.3438 354.809 89.7732C354.433 91.0526 353.542 91.6567 352.653 92.2186C349.738 94.0635 347.045 96.2964 344.663 99.0326C342.609 101.392 340.609 103.826 338.676 106.33C337.636 107.677 336.753 109.209 335.86 110.71C334.82 112.454 333.848 114.254 332.841 116.027C332.81 116.082 332.742 116.108 332.748 116.104C332.697 112.787 333.141 109.551 334.348 106.446Z" fill="#3A5A40"/>
<path d="M327.151 106.654C327.726 108.245 328.352 109.753 328.8 111.338C329.377 113.375 329.101 115.513 329.147 117.881C328.813 117.544 328.599 117.394 328.46 117.174C327.478 115.624 326.494 114.074 325.542 112.496C323.636 109.334 321.407 106.539 318.984 103.96C317.753 102.649 316.492 101.379 315.292 100.025C314.655 99.3054 314.091 98.513 313.975 97.3415C313.83 95.8643 314.822 94.5668 316.061 94.5795C317.299 94.5925 318.285 95.3209 319.262 96.0254C321.769 97.832 323.683 100.416 325.355 103.268C325.988 104.341 326.535 105.49 327.151 106.654Z" fill="#3A5A40"/>
<path d="M327.03 71.1772C328.738 72.7201 329.786 74.7171 330.241 77.1715C330.568 78.9378 330.025 80.4294 329.167 81.8663C328.635 81.0407 328.107 80.2281 327.587 79.4062C326.751 78.0867 325.854 76.8146 325.104 75.4271C324.357 74.0489 323.993 72.4566 323.837 70.8129C323.814 70.5769 323.893 70.3262 323.924 70.0992C325.14 69.8137 326.077 70.4378 327.03 71.1772Z" fill="#3A5A40"/>
<path d="M323.709 81.3317C323.462 80.1475 323.234 79.022 322.976 77.7644C325.615 78.8334 327.532 80.6967 328.874 83.5006C329.669 85.1608 329.226 86.7074 328.825 88.2961C328.758 88.5633 328.641 88.8103 328.506 89.1857C326.07 87.326 324.574 84.6591 323.709 81.3317Z" fill="#3A5A40"/>
<path d="M328.06 106.272C325.483 103.028 324.066 99.2157 323.858 94.7681C325.621 95.3592 326.696 96.6715 327.989 99.0619C329.032 100.991 329.392 103.056 328.984 105.309C328.829 106.173 328.585 106.436 328.06 106.272Z" fill="#3A5A40"/>
<path d="M324.231 86.7148C326.102 87.8551 327.617 89.4384 328.685 91.5341C329.372 92.8811 329.258 94.4259 328.805 95.8956C328.668 96.3404 328.454 96.7522 328.27 97.1952C325.274 94.4222 324.136 90.5639 323.433 86.314C323.71 86.4531 323.95 86.572 324.231 86.7148Z" fill="#3A5A40"/>
<path d="M351.294 146.598C351.181 146.527 351.109 146.432 351.003 146.311C351.312 145.687 351.655 145.09 351.997 144.496C352.041 144.529 352.086 144.562 352.13 144.594C351.867 145.255 351.601 145.916 351.294 146.598Z" fill="#3A5A40"/>
</g>
<path d="M382.968 44.979H266.77V205.394H382.968V44.979Z" stroke="#3A5A40"/>
</g>
<defs>
<clipPath id="clip0_1732_934">
<rect width="284" height="274" fill="white" transform="translate(180 44)"/>
</clipPath>
</defs>
</svg>
