<svg width="645" height="363" viewBox="0 0 645 363" fill="none" xmlns="http://www.w3.org/2000/svg">
<rect x="0.5" y="0.5" width="643.5" height="361.531" rx="12" fill="#EBECF0" stroke="#14303F"/>
<path d="M271.123 197.915V158.511H278.962V191.59H296.414L295.584 197.915H271.123ZM309.94 173.158V190.106C309.94 191.302 310.159 192.126 310.596 192.577C311.048 193.028 311.674 193.253 312.468 193.253C313.233 193.253 313.997 193.012 314.763 192.53C315.528 192.048 316.167 191.396 316.682 190.572V173.158H324.079V197.915H317.618L317.291 195.025C316.449 196.237 315.341 197.154 313.966 197.775C312.594 198.397 311.157 198.708 309.66 198.708C307.256 198.708 305.47 198.016 304.299 196.633C303.129 195.235 302.543 193.362 302.543 191.015V173.158H309.94ZM338.024 162.551V197.915H330.627V163.321L338.024 162.551ZM354.221 173.158L346.053 184.115L354.901 197.915H346.474L338.303 184.348L346.474 173.158H354.221ZM365.123 187.681C365.374 189.702 366.036 191.155 367.113 192.041C368.189 192.911 369.517 193.346 371.092 193.346C372.231 193.346 373.331 193.16 374.394 192.787C375.454 192.414 376.476 191.916 377.46 191.295L380.432 195.304C379.263 196.299 377.843 197.115 376.172 197.752C374.518 198.389 372.629 198.708 370.506 198.708C367.666 198.708 365.288 198.148 363.368 197.029C361.448 195.895 360.005 194.341 359.037 192.367C358.07 190.393 357.586 188.124 357.586 185.56C357.586 183.12 358.055 180.906 358.991 178.916C359.927 176.912 361.291 175.319 363.086 174.137C364.897 172.941 367.106 172.342 369.71 172.342C372.084 172.342 374.135 172.847 375.867 173.858C377.615 174.868 378.966 176.321 379.917 178.217C380.886 180.113 381.368 182.39 381.368 185.047C381.368 185.467 381.352 185.917 381.322 186.399C381.307 186.881 381.274 187.308 381.228 187.681H365.123ZM369.71 177.285C368.384 177.285 367.316 177.759 366.505 178.706C365.693 179.654 365.201 181.17 365.029 183.252H374.158C374.143 181.449 373.793 180.004 373.106 178.916C372.418 177.829 371.288 177.285 369.71 177.285ZM415.387 186.604C415.387 188.997 414.768 191.115 413.528 192.958C412.305 194.781 410.533 196.206 408.205 197.231C405.897 198.257 403.113 198.77 399.852 198.77C396.418 198.77 393.471 198.267 391.012 197.26C388.552 196.234 386.49 194.924 384.832 193.328L388.95 188.741C390.383 190.032 391.983 191.039 393.758 191.761C395.531 192.464 397.524 192.815 399.738 192.815C401.855 192.815 403.628 192.331 405.058 191.362C406.508 190.393 407.234 188.978 407.234 187.117C407.234 186.053 407.003 185.151 406.546 184.41C406.087 183.65 405.296 182.976 404.173 182.387C403.065 181.798 401.52 181.21 399.537 180.621C395.168 179.291 391.945 177.724 389.865 175.92C387.788 174.096 386.749 171.665 386.749 168.626C386.749 166.365 387.378 164.418 388.635 162.785C389.896 161.132 391.592 159.869 393.73 158.995C395.865 158.102 398.269 157.656 400.94 157.656C403.876 157.656 406.46 158.084 408.692 158.938C410.923 159.774 412.889 160.971 414.585 162.528L410.667 166.944C409.313 165.786 407.842 164.931 406.26 164.38C404.695 163.829 403.103 163.554 401.482 163.554C399.555 163.554 397.962 163.934 396.705 164.694C395.465 165.453 394.846 166.593 394.846 168.113C394.846 169.043 395.102 169.841 395.617 170.506C396.152 171.152 397.047 171.76 398.307 172.329C399.585 172.899 401.348 173.526 403.6 174.21C405.945 174.913 407.997 175.758 409.752 176.746C411.524 177.733 412.906 179.015 413.898 180.592C414.892 182.15 415.387 184.154 415.387 186.604ZM428.512 162.598V175.606C430.589 173.43 433.024 172.342 435.816 172.342C438.032 172.342 439.726 172.987 440.895 174.277C442.067 175.567 442.652 177.386 442.652 179.732V197.915H435.255V181.784C435.255 180.292 435.083 179.25 434.74 178.66C434.411 178.069 433.787 177.774 432.866 177.774C432.085 177.774 431.337 178.046 430.62 178.59C429.917 179.118 429.215 179.849 428.512 180.781V197.915H421.115V163.321L428.512 162.598ZM459.919 160.197C461.2 160.197 462.245 160.593 463.056 161.386C463.868 162.178 464.273 163.165 464.273 164.347C464.273 165.528 463.868 166.522 463.056 167.33C462.245 168.123 461.2 168.519 459.919 168.519C458.623 168.519 457.563 168.123 456.737 167.33C455.925 166.522 455.519 165.528 455.519 164.347C455.519 163.165 455.925 162.178 456.737 161.386C457.563 160.593 458.623 160.197 459.919 160.197ZM464.39 173.158V192.88H470.712V197.915H449.948V192.88H456.993V178.194H450.181V173.158H464.39ZM500.737 173.158L492.45 197.915H483.741L475.363 173.158H483.346L488.189 192.274L493.246 173.158H500.737ZM511.778 187.681C512.029 189.702 512.691 191.155 513.769 192.041C514.844 192.911 516.173 193.346 517.748 193.346C518.886 193.346 519.987 193.16 521.049 192.787C522.109 192.414 523.131 191.916 524.115 191.295L527.087 195.304C525.918 196.299 524.498 197.115 522.827 197.752C521.174 198.389 519.284 198.708 517.162 198.708C514.322 198.708 511.943 198.148 510.023 197.029C508.104 195.895 506.661 194.341 505.692 192.367C504.726 190.393 504.241 188.124 504.241 185.56C504.241 183.12 504.711 180.906 505.646 178.916C506.582 176.912 507.946 175.319 509.742 174.137C511.552 172.941 513.761 172.342 516.365 172.342C518.739 172.342 520.791 172.847 522.523 173.858C524.27 174.868 525.621 176.321 526.572 178.217C527.541 180.113 528.023 182.39 528.023 185.047C528.023 185.467 528.008 185.917 527.977 186.399C527.962 186.881 527.929 187.308 527.883 187.681H511.778ZM516.365 177.285C515.039 177.285 513.972 177.759 513.16 178.706C512.349 179.654 511.857 181.17 511.684 183.252H520.813C520.798 181.449 520.448 180.004 519.761 178.916C519.074 177.829 517.943 177.285 516.365 177.285ZM533.683 197.915V192.973H536.959V178.054H533.683V173.158H542.599L543.958 178.73C544.849 176.601 545.98 175.015 547.351 173.974C548.741 172.933 550.435 172.412 552.431 172.412C553.275 172.412 554.023 172.482 554.68 172.622C555.334 172.746 555.951 172.925 556.529 173.158L555.147 183.509H550.511V178.94C549.109 179.188 547.874 179.95 546.814 181.224C545.754 182.483 544.932 184.037 544.357 185.886V192.973H549.271V197.915H533.683ZM571.503 193.439C572.736 193.439 573.727 193.245 574.475 192.857C575.241 192.468 575.622 191.885 575.622 191.108C575.622 190.58 575.474 190.137 575.178 189.78C574.881 189.422 574.31 189.08 573.469 188.754C572.627 188.427 571.379 188.039 569.723 187.588C567.446 186.982 565.587 186.112 564.152 184.977C562.732 183.843 562.022 182.18 562.022 179.989C562.022 177.782 562.942 175.956 564.786 174.51C566.642 173.065 569.317 172.342 572.814 172.342C575.031 172.342 576.958 172.63 578.596 173.205C580.25 173.764 581.677 174.479 582.879 175.35L579.93 179.685C578.9 179.048 577.792 178.543 576.605 178.17C575.419 177.782 574.227 177.588 573.025 177.588C570.651 177.588 569.467 178.225 569.467 179.499C569.467 179.919 569.614 180.284 569.911 180.595C570.223 180.89 570.801 181.201 571.643 181.527C572.485 181.838 573.72 182.227 575.343 182.693C576.948 183.144 578.345 183.664 579.532 184.255C580.734 184.845 581.662 185.638 582.316 186.632C582.973 187.612 583.3 188.909 583.3 190.525C583.3 192.328 582.763 193.844 581.685 195.071C580.61 196.283 579.179 197.192 577.402 197.799C575.621 198.405 573.671 198.708 571.549 198.708C569.147 198.708 567.025 198.366 565.181 197.682C563.34 196.998 561.773 196.097 560.477 194.978L564.2 190.828C565.166 191.574 566.259 192.196 567.476 192.693C568.709 193.191 570.05 193.439 571.503 193.439Z" fill="#14303F"/>
<path d="M131.808 253.475C171.723 253.475 204.081 221.25 204.081 181.5C204.081 141.75 171.723 109.525 131.808 109.525C91.8932 109.525 59.5356 141.75 59.5356 181.5C59.5356 221.25 91.8932 253.475 131.808 253.475Z" fill="#14303F" stroke="#EBECF0" stroke-width="2"/>
<path d="M164.427 144.438L141.025 220.164L91.9829 177.19L164.427 144.438Z" fill="#EBECF0"/>
<path d="M164.426 144.438L119.1 200.952L113.907 196.402L164.426 144.438Z" fill="#B4B6BD"/>
<path d="M110.788 205.146L113.907 196.402L119.1 200.952L110.788 205.146Z" fill="#B4B6BD"/>
</svg>
