<svg width="645" height="363" viewBox="0 0 645 363" fill="none" xmlns="http://www.w3.org/2000/svg">
<rect x="0.5" y="0.5" width="643.5" height="361.531" rx="12" fill="#EBECF0" stroke="#14303F"/>
<path d="M350.69 153.078H280.582V216.842H350.69V153.078Z" stroke="#30AD2D" stroke-width="10" stroke-linecap="round" stroke-linejoin="round"/>
<path d="M340.828 153.078V124.665" stroke="#30AD2D" stroke-width="10" stroke-linecap="round" stroke-linejoin="round"/>
<path d="M340.828 124.665H366.793" stroke="#30AD2D" stroke-width="10" stroke-linecap="round" stroke-linejoin="round"/>
<path d="M404.238 133.363C409.519 133.363 413.801 129.469 413.801 124.665C413.801 119.861 409.519 115.967 404.238 115.967C398.956 115.967 394.674 119.861 394.674 124.665C394.674 129.469 398.956 133.363 404.238 133.363Z" stroke="#30AD2D" stroke-width="10" stroke-linecap="round" stroke-linejoin="round"/>
<path d="M350.69 184.96H381.103" stroke="#30AD2D" stroke-width="10" stroke-linecap="round" stroke-linejoin="round"/>
<path d="M315.636 216.842V243.64" stroke="#30AD2D" stroke-width="10" stroke-linecap="round" stroke-linejoin="round"/>
<path d="M291.622 216.842V245.846" stroke="#30AD2D" stroke-width="10" stroke-linecap="round" stroke-linejoin="round"/>
<path d="M291.622 245.846H265.146" stroke="#30AD2D" stroke-width="10" stroke-linecap="round" stroke-linejoin="round"/>
<path d="M280.582 184.96H249.993" stroke="#30AD2D" stroke-width="10" stroke-linecap="round" stroke-linejoin="round"/>
<path d="M239.533 193.658C244.814 193.658 249.096 189.764 249.096 184.96C249.096 180.156 244.814 176.262 239.533 176.262C234.251 176.262 229.969 180.156 229.969 184.96C229.969 189.764 234.251 193.658 239.533 193.658Z" stroke="#30AD2D" stroke-width="10" stroke-linecap="round" stroke-linejoin="round"/>
<path d="M315.636 124.665C320.917 124.665 325.199 120.771 325.199 115.967C325.199 111.163 320.917 107.269 315.636 107.269C310.354 107.269 306.072 111.163 306.072 115.967C306.072 120.771 310.354 124.665 315.636 124.665Z" stroke="#30AD2D" stroke-width="10" stroke-linecap="round" stroke-linejoin="round"/>
<path d="M278.279 163.775H246.565" stroke="#30AD2D" stroke-width="10" stroke-linecap="round" stroke-linejoin="round"/>
<path d="M246.565 163.774V113.968" stroke="#30AD2D" stroke-width="10" stroke-linecap="round" stroke-linejoin="round"/>
<path d="M315.636 152.486V126.216" stroke="#30AD2D" stroke-width="10" stroke-linecap="round" stroke-linejoin="round"/>
<path d="M246.565 112.21C251.847 112.21 256.128 108.315 256.128 103.512C256.128 98.7079 251.847 94.8136 246.565 94.8136C241.283 94.8136 237.001 98.7079 237.001 103.512C237.001 108.315 241.283 112.21 246.565 112.21Z" stroke="#30AD2D" stroke-width="10" stroke-linecap="round" stroke-linejoin="round"/>
<path d="M404.238 133.363C409.519 133.363 413.801 129.469 413.801 124.665C413.801 119.861 409.519 115.967 404.238 115.967C398.956 115.967 394.674 119.861 394.674 124.665C394.674 129.469 398.956 133.363 404.238 133.363Z" stroke="#30AD2D" stroke-width="10" stroke-linecap="round" stroke-linejoin="round"/>
<path d="M392.705 193.658C397.987 193.658 402.269 189.764 402.269 184.96C402.269 180.156 397.987 176.262 392.705 176.262C387.424 176.262 383.142 180.156 383.142 184.96C383.142 189.764 387.424 193.658 392.705 193.658Z" stroke="#30AD2D" stroke-width="10" stroke-linecap="round" stroke-linejoin="round"/>
<path d="M315.636 263.242C320.917 263.242 325.199 259.348 325.199 254.544C325.199 249.74 320.917 245.846 315.636 245.846C310.354 245.846 306.072 249.74 306.072 254.544C306.072 259.348 310.354 263.242 315.636 263.242Z" stroke="#30AD2D" stroke-width="10" stroke-linecap="round" stroke-linejoin="round"/>
<path d="M227.772 254.544C233.054 254.544 237.335 250.65 237.335 245.846C237.335 241.042 233.054 237.148 227.772 237.148C222.49 237.148 218.208 241.042 218.208 245.846C218.208 250.65 222.49 254.544 227.772 254.544Z" stroke="#30AD2D" stroke-width="10" stroke-linecap="round" stroke-linejoin="round"/>
<path d="M350.971 209.359H382.615" stroke="#30AD2D" stroke-width="10" stroke-linecap="round" stroke-linejoin="round"/>
<path d="M350.971 209.359V236.861" stroke="#30AD2D" stroke-width="10" stroke-linecap="round" stroke-linejoin="round"/>
<path d="M350.971 236.86H382.615" stroke="#30AD2D" stroke-width="10" stroke-linecap="round" stroke-linejoin="round"/>
<path d="M382.615 236.86V264.937" stroke="#30AD2D" stroke-width="10" stroke-linecap="round" stroke-linejoin="round"/>
<path d="M382.615 264.937H350.971" stroke="#30AD2D" stroke-width="10" stroke-linecap="round" stroke-linejoin="round"/>
<path d="M417.81 218.057C423.092 218.057 427.373 214.163 427.373 209.359C427.373 204.555 423.092 200.661 417.81 200.661C412.528 200.661 408.246 204.555 408.246 209.359C408.246 214.163 412.528 218.057 417.81 218.057Z" stroke="#30AD2D" stroke-width="10" stroke-linecap="round" stroke-linejoin="round"/>
</svg>
