<svg width="426" height="639" viewBox="0 0 426 639" fill="none" xmlns="http://www.w3.org/2000/svg">
<rect width="426" height="639" fill="#EBECF0"/>
<path d="M355.186 337.663V357.146C355.186 361.204 353.219 365.017 349.908 367.365L276.19 419.754V392.393L355.186 337.663Z" fill="#14303F" stroke="black" stroke-miterlimit="10"/>
<path d="M276.19 261.79V431.776C276.19 432.739 276.06 434.886 274.746 437.17C273.813 438.778 272.47 440.15 270.796 441.119L244.591 456.251V280.038C244.591 279.572 244.562 279.105 244.498 278.645C244.433 278.171 244.347 277.712 244.218 277.252C244.16 277.022 244.089 276.792 244.01 276.57C243.938 276.347 243.852 276.132 243.758 275.916C243.679 275.701 243.586 275.493 243.478 275.284C243.478 275.27 243.464 275.248 243.449 275.234C243.363 275.033 243.255 274.839 243.141 274.652C243.033 274.451 242.911 274.25 242.767 274.056C242.645 273.862 242.509 273.669 242.358 273.482C242.221 273.295 242.071 273.116 241.913 272.936C241.762 272.756 241.597 272.584 241.431 272.419C241.266 272.239 241.094 272.081 240.914 271.931C240.735 271.773 240.548 271.622 240.361 271.478C240.196 271.349 240.031 271.227 239.859 271.112C239.801 271.076 239.744 271.033 239.686 270.997C239.528 270.889 239.363 270.789 239.198 270.695L86.7349 182.514L112.861 167.433C116.165 165.522 120.229 165.522 123.533 167.433L149.796 182.593L270.804 252.454C274.136 254.379 276.19 257.941 276.19 261.79Z" fill="#5891A0" stroke="black" stroke-miterlimit="10"/>
<path d="M213.33 298.43C213.345 294.552 211.276 290.969 207.923 289.03L58.7416 202.909C57.4345 202.155 55.8474 202.837 55.4022 204.159C55.3663 204.259 55.3375 204.36 55.3232 204.468C55.2944 204.597 55.2801 204.726 55.2801 204.863L55 218.888V376.723C55 380.773 57.1616 384.522 60.6734 386.547L86.5986 401.513L181.416 456.265L197.194 465.371L197.28 465.422L200.375 467.181L207.592 471.289C210.163 472.754 213.366 470.908 213.373 467.949C213.531 411.927 213.122 354.324 213.33 298.43Z" fill="#5891A0" stroke="black" stroke-miterlimit="10"/>
<path d="M244.592 280.038V456.251L218.666 471.217C215.155 473.242 210.831 473.242 207.32 471.217L200.339 467.188C200.339 467.188 200.361 467.181 200.375 467.181L207.593 471.289C210.163 472.754 213.366 470.908 213.374 467.949C213.532 411.927 213.122 354.324 213.331 298.43C213.345 294.552 211.277 290.969 207.923 289.03L58.7418 202.909C57.4347 202.155 55.8476 202.837 55.4023 204.159C56.142 201.48 57.9159 199.153 60.3863 197.724L86.7352 182.514L239.198 270.695C239.363 270.789 239.529 270.889 239.687 270.997C239.744 271.033 239.802 271.076 239.859 271.112C240.031 271.227 240.196 271.349 240.362 271.478C240.548 271.622 240.735 271.773 240.915 271.931C241.087 272.089 241.259 272.254 241.432 272.419C241.597 272.584 241.755 272.756 241.913 272.936C242.064 273.116 242.214 273.295 242.358 273.482C242.502 273.669 242.638 273.862 242.767 274.056C242.897 274.25 243.026 274.451 243.141 274.652C243.249 274.846 243.356 275.04 243.45 275.234C243.464 275.248 243.478 275.27 243.478 275.284C243.579 275.493 243.672 275.701 243.759 275.916C243.852 276.132 243.931 276.347 244.01 276.57C244.089 276.792 244.153 277.022 244.218 277.252C244.34 277.705 244.434 278.171 244.498 278.645C244.563 279.105 244.592 279.572 244.592 280.038Z" fill="#5891A0" stroke="black" stroke-miterlimit="10"/>
<path d="M370.986 243.549V321.813C370.986 324.183 369.88 326.416 368.005 327.853L355.186 337.663L276.19 392.393V261.79C276.19 257.941 274.136 254.379 270.804 252.454L149.796 182.593L257.03 173.752C259.22 173.566 261.41 174.061 263.313 175.16L365.592 234.206C368.932 236.138 370.986 239.7 370.986 243.549Z" fill="#5891A0" stroke="black" stroke-miterlimit="10"/>
<path d="M197.194 447.123L70.7993 374.152V228.202L197.194 301.174V447.123Z" fill="#042530" stroke="black" stroke-miterlimit="10"/>
<path d="M193.603 438.57C193.603 439.805 192.267 440.574 191.204 439.956L77.2194 373.376C75.4671 372.364 74.3899 370.497 74.3899 368.471V236.756C74.3899 235.52 75.7257 234.752 76.7885 235.37L90.5482 243.32L190.773 301.231C192.525 302.244 193.603 304.111 193.603 306.136V438.57Z" fill="#264756" stroke="black" stroke-miterlimit="10"/>
<path d="M172.619 469.335C153.459 468.847 134.507 464.373 119.835 455.899C105.134 447.41 97.3711 436.444 96.5596 425.363L172.619 469.335Z" fill="#5891A0" stroke="black" stroke-miterlimit="10"/>
<path d="M197.28 465.422L191.973 468.452H191.965L183.8 473.113C182.357 473.939 180.583 473.939 179.139 473.106L178.924 472.984L178.91 472.976L172.619 469.335L96.5594 425.363L89.0475 421.018C87.6184 420.193 86.7279 418.663 86.7136 417.011L86.5986 401.513L181.416 456.265L197.194 465.371L197.28 465.422Z" fill="#5891A0" stroke="black" stroke-miterlimit="10"/>
<path d="M172.503 460.028C172.503 463.008 170.694 464.373 168.46 463.087C166.227 461.802 164.417 458.34 164.417 455.36C164.417 452.38 166.227 451.015 168.46 452.301C170.694 453.586 172.503 457.048 172.503 460.028Z" fill="#214859" stroke="black" stroke-miterlimit="10"/>
<path d="M86.3111 312.377L86.2034 302.402L86.3111 292.484L86.5337 286.574L86.9287 278.674L87.2159 274.214L88.0203 264.368L88.5302 259.306L89.155 253.761L89.7869 248.777L90.2178 245.582L90.4836 243.758L90.9431 243.549L190.062 300.822L191.29 301.569L192.116 302.308L192.877 303.371L193.358 304.506L193.603 306.136V315.529V421.966L193.243 422.038L190.594 420.803L174.033 412.731L164.403 407.776L156.051 403.316L143.275 396.199L131.957 389.585L123.813 384.644L118.707 381.463L113.256 378.001L106.707 373.735L101.665 370.382L96.3221 366.755L93.0114 364.407L91.1442 362.159L90.225 359.961L89.83 357.512L88.2501 344.061L87.3237 333.368L86.663 322.495L86.6558 322.215L86.6127 321.059L86.4045 315.084L86.3111 312.377Z" fill="#366E87"/>
<path opacity="0.88" d="M185.344 312.578V394.677C171.671 388.091 157.229 380.543 142.255 371.875C126.578 362.798 112.244 353.613 99.2453 344.629C98.2974 331.882 97.7229 318.194 97.73 303.651C97.7372 289.252 98.3046 275.679 99.2453 263.04L185.344 312.578Z" fill="#042530"/>
<path d="M213.352 301.425L213.33 298.43L213.101 296.218L212.303 293.676L211.779 292.821L243.227 274.81L274.869 256.691L275.285 257.381L275.687 258.494L276.018 259.83L276.19 261.374V264.016V430.914L276.14 432.731L275.766 434.484L275.278 436.423L274.459 437.708L273.511 438.936L272.685 439.783L271.522 440.66L270.064 441.543L217.941 471.655L215.923 472.438L214.68 472.639L212.296 472.739L209.61 472.273L209.043 471.698L210.293 471.806L211.348 471.346L212.361 470.542L213.079 469.386L213.352 468.495L213.409 465.996L213.352 301.425Z" fill="#214859"/>
<path d="M74.3468 367.71L74.3396 237.064L74.591 235.987L75.4671 235.427L75.9914 235.154L76.6449 235.291L77.4708 235.765L86.5984 241.029L90.1174 243.09L90.5913 243.707L90.34 244.756L88.954 255.248L87.8624 266.307L86.9575 279.859L86.4763 288.161L86.2537 306.746L86.3974 315.651L86.8138 325.878L87.2591 332.363L88.0922 342.252L89.2053 352.184L90.1102 359.279L90.5913 361.103L91.2664 362.539L91.6829 363.092L75.8334 372.242L75.108 371.265L74.7489 370.439L74.3899 369.01L74.3468 367.71Z" fill="#14303F"/>
<path d="M276.132 287.514L276.175 282.057L276.132 262.48L276.089 260.289L275.529 258.056L274.452 256.117L273.059 254.085L269.554 251.772L264.786 249.065L262.301 247.593L262.006 247.054L264.34 246.917L288.212 244.899L369.564 238.206L369.966 239.032L370.511 240.397L370.863 241.618L371 245.237V251.37L370.985 322.718L370.655 323.889L370.03 325.749L367.761 328.198L366.066 329.339L350.87 340.744L277.21 391.689L276.197 392.17L276.19 391.179L276.219 379.215L276.283 359.258L276.132 287.514Z" fill="#214859"/>
<path d="M184.461 472.739L190.744 469.177L196.367 465.924L196.942 465.156L191.118 461.816L182.04 456.567L181.451 456.725V459.317L181.459 467.195V470.937L181.035 472.416L179.936 473.005L179.857 473.45L181.035 473.853L182.514 473.637L184.461 472.739Z" fill="#214859"/>
<path d="M355.186 337.663V357.146C355.186 361.204 353.219 365.017 349.908 367.365L276.19 419.754V392.393L355.186 337.663Z" stroke="black" stroke-miterlimit="10"/>
<path d="M276.19 261.79V431.776C276.19 432.739 276.06 434.886 274.746 437.17C273.813 438.778 272.47 440.15 270.796 441.119L244.591 456.251V280.038C244.591 279.572 244.562 279.105 244.498 278.645C244.433 278.171 244.347 277.712 244.218 277.252C244.16 277.022 244.089 276.792 244.01 276.57C243.938 276.347 243.852 276.132 243.758 275.916C243.679 275.701 243.586 275.493 243.478 275.284C243.478 275.27 243.464 275.248 243.449 275.234C243.363 275.033 243.255 274.839 243.141 274.652C243.033 274.451 242.911 274.25 242.767 274.056C242.645 273.862 242.509 273.669 242.358 273.482C242.221 273.295 242.071 273.116 241.913 272.936C241.762 272.756 241.597 272.584 241.431 272.419C241.266 272.239 241.094 272.081 240.914 271.931C240.735 271.773 240.548 271.622 240.361 271.478C240.196 271.349 240.031 271.227 239.859 271.112C239.801 271.076 239.744 271.033 239.686 270.997C239.528 270.889 239.363 270.789 239.198 270.695L86.7349 182.514L112.861 167.433C116.165 165.522 120.229 165.522 123.533 167.433L149.796 182.593L270.804 252.454C274.136 254.379 276.19 257.941 276.19 261.79Z" stroke="black" stroke-miterlimit="10"/>
<path d="M244.592 280.038V456.251L218.666 471.217C215.155 473.242 210.831 473.242 207.32 471.217L200.339 467.188C200.339 467.188 200.361 467.181 200.375 467.181L207.593 471.289C210.163 472.754 213.366 470.908 213.374 467.949C213.532 411.927 213.122 354.324 213.331 298.43C213.345 294.552 211.277 290.969 207.923 289.03L58.7418 202.909C57.4347 202.155 55.8476 202.837 55.4023 204.159C56.142 201.48 57.9159 199.153 60.3863 197.724L86.7352 182.514L239.198 270.695C239.363 270.789 239.529 270.889 239.687 270.997C239.744 271.033 239.802 271.076 239.859 271.112C240.031 271.227 240.196 271.349 240.362 271.478C240.548 271.622 240.735 271.773 240.915 271.931C241.087 272.089 241.259 272.254 241.432 272.419C241.597 272.584 241.755 272.756 241.913 272.936C242.064 273.116 242.214 273.295 242.358 273.482C242.502 273.669 242.638 273.862 242.767 274.056C242.897 274.25 243.026 274.451 243.141 274.652C243.249 274.846 243.356 275.04 243.45 275.234C243.464 275.248 243.478 275.27 243.478 275.284C243.579 275.493 243.672 275.701 243.759 275.916C243.852 276.132 243.931 276.347 244.01 276.57C244.089 276.792 244.153 277.022 244.218 277.252C244.34 277.705 244.434 278.171 244.498 278.645C244.563 279.105 244.592 279.572 244.592 280.038Z" stroke="black" stroke-miterlimit="10"/>
<path d="M370.986 243.549V321.813C370.986 324.183 369.88 326.416 368.005 327.853L355.186 337.663L276.19 392.393V261.79C276.19 257.941 274.136 254.379 270.804 252.454L149.796 182.593L257.03 173.752C259.22 173.566 261.41 174.061 263.313 175.16L365.592 234.206C368.932 236.138 370.986 239.7 370.986 243.549Z" stroke="black" stroke-miterlimit="10"/>
<path d="M193.603 438.57C193.603 439.805 192.267 440.574 191.204 439.956L77.2194 373.376C75.4671 372.364 74.3899 370.497 74.3899 368.471V236.756C74.3899 235.52 75.7257 234.752 76.7885 235.37L90.5482 243.32L190.773 301.231C192.525 302.244 193.603 304.111 193.603 306.136V438.57Z" stroke="black" stroke-miterlimit="10"/>
<path d="M197.194 447.123L70.7993 374.152V228.202L197.194 301.174V447.123Z" stroke="black" stroke-miterlimit="10"/>
<path d="M213.33 298.43C213.345 294.552 211.276 290.969 207.923 289.03L58.7416 202.909C57.4345 202.155 55.8474 202.837 55.4022 204.159C55.3663 204.259 55.3375 204.36 55.3232 204.468C55.2944 204.597 55.2801 204.726 55.2801 204.863L55 218.888V376.723C55 380.773 57.1616 384.522 60.6734 386.547L86.5986 401.513L181.416 456.265L197.194 465.371L197.28 465.422L200.375 467.181L207.592 471.289C210.163 472.754 213.366 470.908 213.373 467.949C213.531 411.927 213.122 354.324 213.33 298.43Z" stroke="black" stroke-miterlimit="10"/>
<path d="M370.986 273.812L323.588 301.174" stroke="black" stroke-miterlimit="10"/>
<path d="M370.986 269.503L323.588 296.865" stroke="black" stroke-miterlimit="10"/>
<path d="M370.986 265.194L323.588 292.556" stroke="black" stroke-miterlimit="10"/>
<path d="M370.985 260.885L323.588 288.247" stroke="black" stroke-miterlimit="10"/>
<path d="M370.986 278.121L323.588 305.482" stroke="black" stroke-miterlimit="10"/>
<path d="M370.986 282.43L323.588 309.791" stroke="black" stroke-miterlimit="10"/>
<path d="M370.986 286.739L323.588 314.1" stroke="black" stroke-miterlimit="10"/>
<path d="M370.986 291.048L323.588 318.409" stroke="black" stroke-miterlimit="10"/>
<path d="M370.986 295.357L323.588 322.718" stroke="black" stroke-miterlimit="10"/>
<path d="M370.986 299.665L323.588 327.027" stroke="black" stroke-miterlimit="10"/>
<path d="M172.619 469.335C153.459 468.847 134.507 464.373 119.835 455.899C105.134 447.41 97.3711 436.444 96.5596 425.363L172.619 469.335Z" stroke="black" stroke-miterlimit="10"/>
<path d="M197.28 465.422L191.973 468.452H191.965L183.8 473.113C182.357 473.939 180.583 473.939 179.139 473.106L178.924 472.984L178.91 472.976L172.619 469.335L96.5594 425.363L89.0475 421.018C87.6184 420.193 86.7279 418.663 86.7136 417.011L86.5986 401.513L181.416 456.265L197.194 465.371L197.28 465.422Z" stroke="black" stroke-miterlimit="10"/>
<path d="M181.416 456.265L181.452 471.073C181.452 472.603 179.8 473.558 178.479 472.79" stroke="black" stroke-miterlimit="10"/>
<path d="M172.503 460.028C172.503 463.008 170.694 464.373 168.46 463.087C166.227 461.802 164.417 458.34 164.417 455.36C164.417 452.38 166.227 451.015 168.46 452.301C170.694 453.586 172.503 457.048 172.503 460.028Z" stroke="black" stroke-miterlimit="10"/>
<path opacity="0.9" d="M185.344 312.578V394.677C171.671 388.091 157.229 380.543 142.255 371.875C126.578 362.798 112.244 353.613 99.2453 344.629C98.2974 331.882 97.7229 318.194 97.73 303.651C97.7372 289.252 98.3046 275.679 99.2453 263.04L185.344 312.578Z" stroke="black" stroke-miterlimit="10"/>
<path d="M193.603 422.21L193.244 422.038C175.649 413.851 156.827 404.171 137.228 392.702C121.487 383.495 107.016 374.166 93.7947 365.01C91.7193 363.574 90.3333 361.333 89.9957 358.834C87.9346 343.688 86.4624 326.625 86.2398 307.96C85.9525 283.629 87.8413 261.869 90.5487 243.32" stroke="black" stroke-miterlimit="10"/>
</svg>
