<svg width="343" height="617" viewBox="0 0 343 617" fill="none" xmlns="http://www.w3.org/2000/svg">
<ellipse cx="179.619" cy="607.274" rx="161.951" ry="9.56984" fill="#D9D9D9"/>
<path d="M76.6483 329.796L73.8523 329.433L71.2715 324.647L68.946 319.391L67.0373 317.604L62.0772 316.259L59.0527 311.958L60.1012 306.675L56.6331 304.968L55.2889 303.033L52.2511 302.898L49.5223 299.766L49.0788 295.115L48.2319 293.69L45.0058 293.69L41.6588 291.755L40.7179 289.859L36.9138 287.346L33.7549 281.297L33.7684 277.09L35.3276 272.183L33.4457 264.884L33.4457 257.276L35.5427 250.985L33.4457 245.044L30.381 232.529L27.5447 225.298L41.847 218.241L63.8918 215.337L70.5591 214.262L71.2715 234.882L65.1554 235.702L66.5668 236.293L67.2792 242.248L71.1639 279.643L73.5566 309.458L76.6483 329.796Z" fill="#9AC2CC"/>
<path d="M23.2706 222.072L18.5256 220.432L14.7887 214.41L11.7777 205.847L6.75041 199.583L4.90887 195.389L5.43309 190.227L3.51089 189.528L1.64244 183.856L0.378891 177.216L2.23389 168.599L4.65347 163.451L5.44654 160.48L5.43309 155.776L7.67792 153.114L5.45996 148.409L5.23147 142.562L6.87139 138.247L9.22374 135.317L8.64574 131.083L7.91987 121.552L7.36874 118.689L3.73939 116.229L2.2339 108.823L3.59155 105.637L4.66689 106.833L5.67504 107.613L8.26937 107.479L12.6783 105.637L18.5122 100.449L23.2706 94.0636L23.2975 89.6278L24.3325 85.6758L27.9484 80.9845L30.8653 76.7099L32.7338 74.6265L35.2205 74.6265L37.1696 74.7071L39.4547 73.1075L40.5167 70.2578L41.8071 66.2118L44.4686 63.1067L48.891 60.8215L52.0365 58.5095L54.0931 54.9474L57.3595 49.7992L64.9407 45.5649L72.2128 42.191L80.6544 39.7849L84.9021 38.4407L87.456 37.5804L90.0504 34.4887L93.384 32.3514L98.5188 30.4427L103.694 29.5017L106.665 29.7303L109.689 26.0338L113.359 23.8561L117.391 22.7405L121.558 23.3991L123.803 24.5282L124.462 22.7405L125.309 20.1058L127.715 21.0468L131.425 20.5762L135.202 17.0814L138.939 14.4602L143.173 13.5192L145.472 13.5192L148.778 8.38444L151.628 4.82229L154.37 3.89479L158.215 3.18241L162.395 2.29519L167.449 1.32741L174.466 2.18763L177.477 4.12328L183.916 9.76893L191.107 13.4924L196.981 13.5999L201.646 14.9172L205.651 18.0761L208.972 19.6354L215.262 19.2724L221.661 20.1058L223.543 22.4582L223.758 27.4586L226.728 30.7116L234.659 33.8569L247.98 38.8977L252.295 43.8309L254.325 49.8126L256.153 51.0627L260.038 52.5548L264.756 61.0098L266.974 67.5694L268.963 69.4648L271.759 70.5267L277.606 72.5833L282.486 77.7719L284.489 83.1084L285.026 89.3455L283.386 94.198L281.074 96.7386L279.932 97.6526L281.518 100.986L282.701 108.07L284.636 113.635L282.378 119.066L280.402 122.09L282.674 123.609L224.484 119.267L150.701 113.837L126.344 112.882L120.402 114.966L83.1143 123.501L79.3236 124.846L80.1974 140.613L77.845 139.484L76.9041 141.823L71.7961 146.608L61.8625 146.998L64.2149 149.485L65.6263 153.571L64.766 155.87L59.9807 153.571L57.1713 149.821L52.722 150.708L50.1142 152.644L52.5203 155.305L52.4666 157.805L48.6759 157.496L43.0706 152.173L38.4331 149.646L32.3305 150.91L26.6177 154.512L23.5126 158.047L19.6816 164.795L16.8856 172.202L14.3317 178.654L13.4579 190.859L13.9284 199.637L17.2217 210.471L21.4828 217.878L23.2706 222.072Z" fill="#9AC2CC"/>
<path d="M123.494 113.567L126.196 111.148L128.131 108.459L127.15 104.696L125.604 101.98L125.268 100.461L126.895 98.5794L130.054 96.8454L133.669 96.3346L136.223 97.4772L139.06 98.6735L143.173 98.5929L144.584 96.3346L145.055 92.9472L145.996 90.6621L149.84 90.6218L151.816 90.1244L154.666 87.8662L155.862 85.1644L158.335 86.1993L162.543 85.7826L165.997 84.1158L169.264 81.3737L170.191 81.8711L171.912 81.8711L174.412 81.3737L176.012 79.7069L178.888 74.6258L180.232 72.9456L181.684 74.1016L191.336 79.8817L200.127 82.8658L202.573 85.3659L203.017 87.6376L205.235 85.3391L208.098 83.5916L210.154 83.7663L212.466 89.8825L216.687 93.8747L219.564 93.8747L222.803 94.399L224.779 96.3615L231.379 102.397L235.627 103.755L237.173 108.338L240.95 112.048L244.31 112.344L248.692 113.191L251.569 112.344L254.015 114.871L259.002 116.914L264.393 116.901L270.065 116.188L270.065 118.823L270.482 121.794L271.006 123.501L250.803 121.619L132.903 112.411L126.344 112.882L123.494 113.567Z" fill="#D9DADD"/>
<path d="M133.871 109.133C133.871 109.133 126.854 103.03 131.962 101.982C137.07 100.933 142.796 103.084 145.095 101.067C147.393 99.0512 148.24 94.7901 150.875 93.8626C153.509 92.9351 159.007 90.2332 162.838 90.6499C166.669 91.0666 184.722 89.5208 186.509 85.3538C187.881 82.1546 194.87 87.2492 198.029 89.7763C198.93 90.4887 200.22 90.4215 201.027 89.6015L203.339 87.2894L196.766 81.6439L183.606 79.762L170.917 84.4667L155.405 86.819L151.641 90.5827L146.009 90.6499L145.538 94.3465L142.245 99.0512L134.731 96.2284L127.687 98.1103L124.865 100.933L133.884 109.133L133.871 109.133Z" fill="#C4C5C6"/>
<path d="M27.9213 478.612L21.6842 467.765L20.0846 460.479L20.5148 454.081L23.9963 449.766L33.4056 443.556L42.7209 437.372L70.0619 419.911L75.8823 413.701L80.009 407.208L83.1679 400.031L85.789 389.613L86.4611 381.548L86.4611 373.093L84.3104 365.458L81.044 351.465L75.6807 324.11L72.7234 301.165L70.3308 270.181L67.9381 247.746L66.567 236.294L70.3308 234.412L70.035 216.09L70.5593 214.262L75.7882 211.668L86.7703 205.055L98.4379 199.476L108.788 195.901L131.183 191.021L156.736 187.083L185.421 183.736L197.989 180.698L203.326 177.552L207.533 174.703L210.584 174.797L212.09 176.558L213.663 179.891L213.784 184.381L215.558 186.115L220.814 187.835L236.178 193.911L244.472 197.393L249.512 199.799L252.671 203.872L252.187 208.119L250.991 217.919L249.848 219.747L247.846 227.825L244.149 243.552L241.071 256.967L237.939 268.259L234.229 278.085L229.9 286.661L223.072 294.981L223.852 298.06L227.467 311.098L233.1 332.485L238.49 353.427L244.23 355.349L260.333 357.527L289.206 356.962L302.837 355.296L317.502 352.473L328.444 349.704L334.264 349.61L338.565 351.841L341.482 356.21L341.482 366.775L337.88 382.327L331.75 394.21L323.739 406.281L314.303 418.164L297.043 434.671L280.362 448.354L260.266 462.684L242.254 473.625L229.618 479.943L217.83 484.755L193.405 495.979L179.816 502.485L164.451 509.65L151.144 513.521L131.156 517.473L109.743 518.522L97.4835 515.685L80.6945 509.744L58.3405 502.956L51.6464 501.262L44.1995 496.92L32.6932 485.508L27.9213 478.612Z" fill="#D9DADD"/>
<path d="M170.903 249.924L170.433 249.924L170.823 249.063L177.947 246.778L185.461 245.932L191.819 246.872L195.596 248.109L201.054 247.652L205.678 247.571L211.256 249.816L213.407 253.325L213.662 255.556L213.192 256.967L209.912 256.967L206.619 256.497L202.384 255.556L198.634 255.099L191.577 255.099L186.415 254.628L182.181 253.688L176.536 252.276L171.844 250.394L170.903 249.924Z" fill="#D9DADD"/>
<path d="M340.205 372.286C338.31 381.507 334.533 392.382 330.702 402.665C320.365 430.396 311.439 428.985 284.179 459.538C256.919 490.092 185.959 523.455 146.95 531.439C107.941 539.424 79.74 536.614 52.0092 522.984C24.2784 509.354 20.5147 464.243 20.5147 464.243C20.5147 464.243 33.6744 497.135 55.2891 502.31C76.9038 507.486 101.341 517.823 108.398 518.293C115.455 518.763 147.407 519.234 178.431 503.252C209.455 487.269 232.683 479.782 241.044 474.365C249.337 468.988 328.78 426.054 340.219 372.3L340.205 372.286Z" fill="#5A5B5B"/>
<path d="M217.896 248.512C216.015 253.687 213.662 251.805 213.662 251.805C213.662 251.805 213.38 251.348 212.735 250.743C211.296 249.412 208.044 247.396 201.914 248.041C197.129 248.539 194.776 248.109 193.62 247.584C191.55 246.657 189.373 246.025 187.101 245.944C182.92 245.797 176.724 246.321 169.962 249.439C169.653 249.574 169.357 249.708 169.062 249.802C169.438 248.767 172.745 240.366 179.358 238.162C186.402 235.809 192.518 232.516 200.503 237.691C200.503 237.691 202.707 238.955 207.546 236.75C212.721 234.398 219.765 243.323 217.883 248.498L217.896 248.512Z" fill="#C4C5C6"/>
<path d="M25.8112 223.684L21.4828 217.877L19.4262 213.831L19.1977 165.641L24.2788 156.985L30.0454 152.28L35.0727 149.592L39.4951 150.129L45.6246 154.417L48.676 157.496L51.9962 157.805L52.7758 156.084L51.7004 154.31L50.1142 152.643L52.265 151.003L54.8189 149.914L57.3864 150.21L60.5587 153.692L63.1395 156.178L65.2365 155.775L66.043 153.839L64.7391 150.949L62.7228 147.764L67.2124 147.723L71.7962 146.608L74.955 144.511L78.3155 140.613L79.3237 134.859L79.3237 124.845L89.7547 121.552L104.151 118.057L118.964 114.965L286.989 176.005L279.461 178.022L276.235 179.016L276.235 185.038L272.055 194.676L264.581 203.723L257.739 208.199L256.086 212.715L254.392 215.901L251.73 218.428L251.529 213.455L252.671 203.87L247.214 198.467L232.576 192.727L222.494 188.291L214.779 185.872L213.219 182.014L212.09 176.556L208.972 174.258L205.557 176.005L200.503 179.42L195.691 181.248L185.421 183.734L174.668 184.904L160.97 186.382L140.794 189.528L122.419 192.364L105.388 196.988L86.7705 205.053L75.7884 211.667L69.6723 214.409L63.8923 215.336L63.2068 219.544L61.8626 225.015L56.6067 228.55L47.3452 230.432L38.3525 229.934L31.7929 228.308L25.8112 223.684Z" fill="#24596B"/>
<path d="M33.2041 190.859C33.2041 204.785 28.7683 216.506 23.3377 216.076C17.2216 215.605 14.4794 205.604 13.4713 190.859C12.5304 177.067 17.8937 165.641 23.3377 165.641C28.7817 165.641 33.2041 176.933 33.2041 190.859Z" fill="#9AC2CC"/>
<path d="M26.1468 190.242C26.6173 201.009 24.0364 209.975 20.2727 209.975C16.5089 209.975 13.4576 201.237 13.4576 190.47C13.4576 179.703 15.3664 170.025 19.1032 170.495C22.8401 170.966 25.6763 179.421 26.1468 190.228L26.1468 190.242Z" fill="#9AC2CC"/>
<path d="M281.383 175.979L134.368 167.591C122.096 166.892 112.512 156.703 112.566 144.417L112.619 131.069C112.66 120.127 122.015 111.538 132.917 112.411L280.98 124.308C291.841 125.181 300.229 134.201 300.337 145.089L300.458 157.805C300.552 168.236 291.814 176.57 281.397 175.979L281.383 175.979Z" fill="#14303F"/>
<path d="M281.854 172.336L135.605 163.208C125.375 162.563 117.391 154.081 117.391 143.825L117.391 129.872C117.391 121.135 124.878 114.266 133.588 115.005L281.195 127.668C290.833 128.501 298.239 136.566 298.239 146.231L298.239 156.931C298.239 165.83 290.739 172.873 281.854 172.322L281.854 172.336Z" fill="#214859"/>
<path d="M196.9 215.834C197.546 215.552 197.572 214.692 196.941 214.369C193.379 212.608 184.251 208.952 181.953 215.861C180.044 221.614 192.384 217.81 196.9 215.821L196.9 215.834Z" fill="#14303F"/>
<path d="M38.3656 179.42C38.3656 179.42 37.1424 170.67 45.0328 178.802C45.0328 178.802 42.4116 173.829 43.9037 169.809L39.4813 170.468L37.3978 172.686L38.3521 179.407L38.3656 179.42Z" fill="#9AC2CC"/>
<path d="M31.8734 158.841C31.8734 158.841 34.8171 163.452 40.5837 162.981C40.5837 162.981 40.0595 167.269 43.9039 169.823C43.9039 169.823 41.5785 171.907 42.7882 176.141C42.7882 176.141 38.9707 169.568 38.433 176.141C37.8953 182.714 37.8953 175.092 37.8953 175.092L36.4839 168.156L34.1316 163.922L31.8734 158.841Z" fill="#EBECF0"/>
<path d="M182.652 265.435C182.652 265.435 200.987 251.805 205.208 265.435L200.973 263.553L193.634 262.908L188.755 263.083L182.638 265.435L182.652 265.435Z" fill="#214859"/>
<path d="M73.8527 256.55C73.8527 256.55 88.1818 275.302 99.4596 277.184C110.737 279.065 127.19 275.423 142.689 283.824C158.188 292.225 158.201 298.422 176.065 298.14C193.93 297.857 165.997 307.321 165.997 307.321L127.943 301.204L93.357 285.168L84.082 276.055L75.4926 263.244L73.8527 256.537L73.8527 256.55Z" fill="#B1B1B2"/>
<path d="M75.4924 260.731C75.4924 260.731 88.1816 281.875 105.576 287.521C122.969 293.166 136.963 290.343 147.582 295.505C158.201 300.667 182.517 303.019 184.937 288.69C187.357 274.361 210.611 274.052 207.439 297.239C204.267 320.413 237.925 268.258 237.925 268.258L231.5 283.959L223.058 294.981L216.821 303.18L209.186 307.052L195.328 313.37C195.328 313.37 190.623 322.752 177.934 326.529L173.229 323.249L167.583 321.367L160.54 319.486L153.026 321.367L144.571 324.19L141.748 325.602C141.748 325.602 145.982 317.147 153.496 314.324C153.496 314.324 123.494 306.81 102.78 295.519L97.1071 292.225L91.4614 287.05L83.9474 277.654L78.6512 268.137L75.4924 260.744L75.4924 260.731Z" fill="#858689"/>
<path d="M205.557 176.005L206.659 176.893C207.251 177.377 207.251 178.277 206.659 178.761L166.669 210.807C166.454 210.981 166.172 210.713 166.333 210.484C168.255 207.782 172.839 201.599 177.49 197.298C183.606 191.652 182.195 191.181 182.195 191.181C182.195 191.181 173.74 189.3 160.11 190.24C146.479 191.181 135.524 191.679 122.432 192.364L133.884 190.523L144.598 188.359L154.625 187.243L167.987 185.697L179.385 184.434L189.373 183.049L198.016 180.697L203.352 177.551L205.584 176.019L205.557 176.005Z" fill="#858689"/>
<path d="M49.1328 298.059C49.1328 298.059 55.7463 293.032 59.51 288.166L54.8187 291.284L49.1328 293.112L49.321 296.392L49.1328 298.059Z" fill="#14303F"/>
<path d="M40.0458 248.23C40.0458 248.23 42.7611 241.751 48.0842 234.089L41.1884 241.469L40.0458 244.386L40.0458 248.23Z" fill="#14303F"/>
<path d="M59.9935 258.378C59.9935 258.378 63.7573 262.72 66.0962 267.129L66.0962 263.742L63.3272 260.274L59.9935 258.392L59.9935 258.378Z" fill="#14303F"/>
<path d="M34.2791 268.123C34.2791 268.123 37.895 273.42 41.6588 274.831L41.3227 276.054L38.352 275.046L35.3276 272.183L34.2791 268.123Z" fill="#14303F"/>
<path d="M60.8406 307.334L57.628 305.452L55.2891 303.032L64.2146 301.621L69.8602 303.032L72.6695 305.855L73.5567 309.457L70.3306 306.917L65.1555 306.782L60.8406 307.334Z" fill="#214859"/>
<path d="M59.8862 307.752L60.7465 314.701L66.0964 318.25L70.0349 320.401L71.9974 324.514L73.8524 329.434L75.9225 329.797L75.9628 327.001L74.5514 317.605L72.8846 308.935L70.3306 306.918L66.0964 306.811L61.8219 306.945L59.8862 307.752Z" fill="#5891A0"/>
<path d="M71.9975 309.014C71.9975 309.014 73.7181 312.805 68.2607 318.262L70.1695 318.128L68.9462 319.391L71.0835 322.618L72.6696 328.881L75.9226 329.796L76.6485 327.242L73.9735 310.923L71.9841 309.014L71.9975 309.014Z" fill="#214859"/>
<path d="M59.7654 308.181C59.7654 308.181 65.532 312.698 72.1589 311.622L73.5568 309.458L70.855 307.321L66.325 307.321L62.3059 306.998L60.1014 306.676L59.7788 308.181L59.7654 308.181Z" fill="#4B808C"/>
<path d="M73.1671 304.578L72.4546 298.677C72.4546 298.677 62.4403 290.155 56.7544 296.365C51.0684 302.576 49.1328 298.073 49.1328 298.073L50.4636 301.635L54.3214 303.153L60.4509 302.145L66.6611 302.145L73.1671 304.578Z" fill="#BCD9DD"/>
<path d="M64.5641 288.69C64.5641 288.69 69.8469 288.031 70.7878 277.667L71.9841 287.023L72.4412 293.112L72.2799 295.505L68.2473 291.795L64.5641 288.69Z" fill="#214859"/>
<path d="M56.7543 262.613L47.0895 269.737L41.659 274.832L39.2394 275.356L35.0724 272.977L33.7551 275.759L34.6019 284.228L37.9624 288.475L41.659 290.008L50.9608 290.693L63.5828 276.055L61.9429 265.839L56.7543 262.613Z" fill="#D9DADD"/>
<path d="M27.5447 225.298L30.8515 231.589L32.4779 241.119L34.1985 249.762L35.3276 251.644L38.836 244.749L40.9329 248.674L43.0837 251.644L59.0527 252.746L67.9379 247.746L66.4996 240.393L67.9379 233.148L65.1554 218.12L63.9456 219.639L61.8621 225.016L58.1118 228.309L49.7643 230.433L40.9329 230.433L31.7924 228.309L27.5447 225.298Z" fill="#5891A0"/>
<path d="M56.7543 262.613C56.7543 262.613 58.0985 279.846 43.7693 285.088C43.7693 285.088 41.2288 285.639 36.2687 286.11L39.5083 289.47L45.006 293.678L59.1066 286.58L65.1555 274.805L59.7653 264.32L56.7409 262.6L56.7543 262.613Z" fill="#9AC2CC"/>
<path d="M56.7543 262.613C56.7543 262.613 59.5099 269.522 59.5233 276.875C59.5367 284.228 53.4207 287.736 53.4207 287.736L52.0092 288.691C52.0092 288.691 49.1058 288.919 47.5062 288.691C45.9066 288.462 40.7314 289.86 40.7314 289.86L41.6724 291.742L46.8475 294.081L53.4341 292.159L59.5368 288.153L63.986 282.991L65.8276 278.34L66.2174 274.012L64.4431 268.474L56.7677 262.6L56.7543 262.613Z" fill="#4B808C"/>
<path d="M56.7543 262.613C56.7543 262.613 63.7576 270.934 66.1099 276.875L66.1099 271.485L62.8166 266.377L56.7543 262.613Z" fill="#14303F"/>
<path d="M38.8361 244.748C38.8361 244.748 37.1558 254.721 41.2825 259.13C45.4092 263.539 47.6809 262.827 48.6622 268.123C48.6622 268.123 38.6479 275.987 34.2658 268.123L33.1904 261.335L35.5966 250.366L38.8361 244.748Z" fill="#BCD9DD"/>
<path d="M36.9542 278.595C36.9542 278.595 48.232 279.536 50.1139 275.302C50.1139 275.302 45.4092 283.287 36.9542 278.595Z" fill="#9AC2CC"/>
<path d="M37.4247 254.158C37.4247 254.158 36.3897 264.011 41.8471 266.376C41.8471 266.376 32.263 263.567 37.4247 254.158Z" fill="#24596B"/>
<path d="M44.0651 257.277C44.0651 257.277 49.2672 261.673 53.4611 260.732L44.0651 257.277Z" fill="#24596B"/>
<path d="M41.2825 250.368C41.2825 250.368 43.5408 238.794 46.8206 235.42C50.1005 232.046 40.0324 244.372 40.0324 244.372L41.2691 250.368L41.2825 250.368Z" fill="#14303F"/>
<path d="M67.2795 242.248C67.2795 242.248 60.1821 254.574 41.2827 250.367L46.8208 254.292L51.996 256.55L56.741 257.276L61.9834 253.579L68.207 251.334L67.9247 247.745L67.266 242.248L67.2795 242.248Z" fill="#214859"/>
<path d="M65.1556 235.701C65.1556 235.701 60.9214 246.643 47.2912 245.232L50.7054 247.463L53.9181 247.92L57.6281 247.584L61.9833 245.286L67.266 242.248L66.1772 235.567L65.1421 235.701L65.1556 235.701Z" fill="#214859"/>
<path d="M58.1121 233.47C58.1121 233.47 59.1471 236.978 53.9316 240.393L59.9939 239.196L61.9161 236.925L61.9161 234.841L58.1121 233.47Z" fill="#214859"/>
<path d="M63.9592 218.428L63.9592 219.638L63.9054 225.23L62.8032 229.706L64.4297 231.709C64.4297 231.709 65.6529 236.037 69.1747 234.989L71.2447 234.088L70.371 226.789L70.035 216.09L70.5726 214.248L65.4916 214.396L63.892 215.323L63.9726 218.415L63.9592 218.428Z" fill="#14303F"/>
<path d="M98.5183 84.2105C98.5183 84.2105 105.414 87.9071 111.127 81.4952L110.912 84.9364L107.941 87.8668L103.707 88.8211L100.548 87.8668L98.5183 84.1971L98.5183 84.2105Z" fill="#D9DADD"/>
<path d="M18.969 117.453C18.969 117.453 5.90344 123.206 18.0147 137.562L18.969 132.763L21.6978 125.653L24.776 119.053L24.7222 116.808L20.3401 117.063L18.9825 117.44L18.969 117.453Z" fill="#214859"/>
<path d="M45.6376 144.512C45.6376 144.512 33.7011 142.294 36.04 123.488C38.3789 104.683 67.0507 109.858 70.801 117.843L66.0425 115.45L59.9936 113.824L53.0038 114.953L46.8743 119.241L41.9142 126.123L39.4946 133.422L40.7178 139.484L45.6376 144.525L45.6376 144.512Z" fill="#D9DADD"/>
<path d="M18.9689 132.776C18.9689 132.776 13.3501 119.133 23.2703 121.552L18.9689 132.776Z" fill="#14303F"/>
<path d="M173.498 50.8478C173.498 50.8478 177.517 53.4824 177.732 56.2918C177.947 59.1011 181.711 64.7468 184.534 60.9965C187.357 57.2461 184.077 55.5122 184.077 55.5122L181.321 54.4234C181.321 54.4234 175.716 51.9903 174.721 50.8478L173.511 50.8478L173.498 50.8478Z" fill="#14303F"/>
<path d="M192.558 59.4508C192.558 59.4508 191.362 67.3143 188.176 69.7877L191.927 69.4651C191.927 69.4651 200.973 68.0402 211.31 56.7624C211.31 56.7624 199.562 56.2919 194.386 52.9987L191.927 52.9987L192.545 59.4373L192.558 59.4508Z" fill="#14303F"/>
<path d="M125.268 100.462C125.268 100.462 137.07 113.151 147.877 113.151L133.871 112.479L125.564 113.151L123.01 112.909L126.935 110.274L127.661 106.417L126.854 103.553L125.255 100.448L125.268 100.462Z" fill="#858689"/>
<path d="M244.687 77.4364C244.687 77.4364 250.52 77.5573 252.537 76.3206C254.553 75.084 258.317 71.7907 258.317 71.7907L260.037 67.5565L260.185 64.8278L256.919 63.6583L255.091 64.2229L253.263 67.5699L249.821 70.5541L244.673 71.8042L244.673 77.4364L244.687 77.4364Z" fill="#14303F"/>
<path d="M150.19 64.7472C150.19 64.7472 157.247 74.0759 163.833 72.9333L169.116 68.8873L167.046 68.5916L161.306 69.7745L157.005 68.8873L152.555 67.0995L150.176 64.7472L150.19 64.7472Z" fill="#14303F"/>
<path d="M155.862 74.3171C155.862 74.3171 165.769 78.2556 168.565 74.3171C171.36 70.3786 168.565 69.3167 168.565 69.3167L166.562 71.3061L163.188 73.2014L157.744 74.1424L155.862 74.3037L155.862 74.3171Z" fill="#14303F"/>
<path d="M200.328 89.2239C199.898 89.4659 199.36 89.3853 199.024 89.0223C197.626 87.4496 193.634 83.5514 188.754 83.5514C182.638 83.5514 182.974 91.2806 163.779 88.8341C163.779 88.8341 160.661 86.5893 153.792 88.8341L155.378 86.2398L159.733 86.0651L164.599 84.9359L169.264 81.3739L171.912 81.8712L174.412 81.3739L177.141 77.8521L178.875 74.6125L180.219 72.9323L181.671 74.0883L186.657 77.8521L191.322 79.8684L198.486 81.4948L202.855 87.7723L200.328 89.2239Z" fill="#858689"/>
<path d="M215.45 92.7191C215.45 92.7191 224 117.869 239.041 120.678L245.426 119.858L239.041 115.503L233.328 107.277L231.379 102.384L226.446 97.1684L222.803 94.3859L219.564 93.8617L215.45 92.7057L215.45 92.7191Z" fill="#C4C5C6"/>
<path d="M231.379 102.398C231.379 102.398 227.763 116.929 243.746 121.15L252.443 122.01L266.772 123.489L271.006 123.489L269.756 120.168L270.065 116.176L261.677 116.821L254.015 114.845L250.682 111.673L247.859 112.923L242.67 112.184L237.966 109.522L235.492 105.328L233.812 103.151L231.379 102.371L231.379 102.398Z" fill="#858689"/>
<path d="M235.291 100.006L236.473 107.022L240.95 112.05L248.692 113.192L251.569 112.345L248.719 107.197L243.746 99.5353L235.291 100.006Z" fill="#214859"/>
<path d="M265.361 81.8995C265.361 81.8995 270.025 80.2461 268.17 88.2441C266.315 96.2421 267.175 87.8678 267.175 87.8678L265.361 85.9052L262.672 87.8678L256.906 89.1851L250.964 91.739L248.921 96.1883L247.98 104.227L249.862 111.7C249.862 111.7 245.103 97.6803 235.506 101.659L236.743 94.1989L240.063 89.5748L243.598 83.8486C243.598 83.8486 242.805 88.7146 245.157 90.126L247.859 87.451L254.486 84.7089L258.559 83.8486L265.374 81.8861L265.361 81.8995Z" fill="#14303F"/>
<path d="M71.5406 87.8809C71.5406 87.8809 69.3899 99.5351 82.0791 102.358C82.0791 102.358 87.1737 103.568 90.5073 101.081C90.5073 101.081 86.3403 101.484 81.1517 99.0915C75.9631 96.6988 74.0946 93.8895 74.0946 93.8895L72.6832 91.0666L71.5406 87.8809Z" fill="#14303F"/>
<path d="M72.2124 108.46C72.2124 108.46 64.2547 98.3783 69.8735 112.344C69.8735 112.344 72.4006 116.31 71.5941 121.552C70.7875 126.795 73.7045 127.924 73.7045 127.924C73.7045 127.924 71.9167 121.619 73.7045 117.856C75.4922 114.092 75.6401 114.952 75.6401 114.952L72.992 110.624L72.2124 108.446L72.2124 108.46Z" fill="#14303F"/>
<path d="M65.8275 120.383C66.4055 119.98 66.177 119.079 65.4915 118.985C63.6365 118.743 60.2894 118.703 58.6226 121.257C56.6736 124.241 63.2601 122.224 65.841 120.383L65.8275 120.383Z" fill="#14303F"/>
<path d="M57.171 108.54C57.171 108.54 61.5262 115.329 65.5319 113.138C65.8545 112.963 65.8814 112.519 65.5991 112.304L64.3086 111.336L61.0423 110.906L58.6899 109.575L57.171 108.54Z" fill="#14303F"/>
<path d="M277.109 112.345C277.109 112.345 271.033 119.738 274.313 123.502L271.006 123.502L270.065 121.015L270.065 116.203L277.109 112.358L277.109 112.345Z" fill="#14303F"/>
<path d="M202.385 88.7277C202.385 88.7277 200.785 87.4508 200.221 88.7681C200.126 88.9832 199.844 89.01 199.737 88.8084C199.32 88.0019 198.285 86.6443 195.785 84.8296C195.516 84.628 195.26 84.3994 195.045 84.1441C194.252 83.2031 191.819 80.6088 187.316 78.1624L194.588 81.0524L200.126 82.8805L202.573 85.3672L203.003 87.6389L202.385 88.7277Z" fill="#484949"/>
<path d="M5.47314 168.144C5.47314 168.144 11.1188 156.395 21.9261 160.858L23.5257 158.049L20.098 156.785L13.4711 155.763L9.70736 158.264L7.35501 161.086L5.47314 168.13L5.47314 168.144Z" fill="#24596B"/>
<path d="M19.6816 164.796C19.6816 164.796 10.8099 160.064 4.84161 171.154C4.84161 171.154 15.8506 162.497 18.4046 168.143L19.6681 164.796L19.6816 164.796Z" fill="#D9DADD"/>
<path d="M13.35 168.519C13.35 168.519 5.88972 168.801 4.26324 178.816C4.26324 178.816 7.59687 170.307 13.35 168.519Z" fill="#D9DADD"/>
<path d="M16.2271 168.519C16.2271 168.519 12.8934 169.084 9.88245 173.318L16.2271 168.519Z" fill="#D9DADD"/>
<path d="M5.43292 186.088C5.43292 186.088 9.358 176.356 13.767 181.652L14.345 178.654L9.70746 178.022L6.53517 180.845L5.44638 184.246L5.44638 186.101L5.43292 186.088Z" fill="#4B808C"/>
<path d="M5.4731 182.243C5.4731 182.243 4.92198 184.273 5.43278 186.074C5.43278 186.074 5.87636 177.539 14.1297 179.421L14.4927 177.754L11.8312 177.203L8.80673 178.009L6.52157 180.832L5.4731 182.243Z" fill="#14303F"/>
<path d="M7.36854 188.144C7.36854 188.144 6.50826 184.448 8.80684 183.346C11.1054 182.243 11.67 186.935 11.1592 187.876C10.6484 188.816 5.7555 192.459 8.20194 196.747C10.6484 201.035 10.6484 195.39 10.6484 195.39L12.4362 196.331L14.3449 197.742L15.6219 204.678L16.3344 208.348C16.3344 208.348 16.8048 214.168 13.7266 209.947C10.6484 205.726 11.4818 204.678 11.4818 204.678L9.25041 202.433L5.44635 198.616L4.93555 195.363L5.51354 190.846L5.99747 189.502L7.39541 188.117L7.36854 188.144Z" fill="#24596B"/>
<path d="M44.0651 237.692C44.0651 237.692 54.3482 229.237 50.114 237.221C45.8797 245.206 49.7107 245.838 49.7107 245.838C49.7107 245.838 42.4924 250.22 41.8337 245.838C41.1751 241.456 42.2235 240.394 42.2235 240.394L44.0517 237.692L44.0651 237.692Z" fill="#9AC2CC"/>
<path d="M34.2928 233.793C34.2928 233.793 39.5754 230.393 37.5591 240.393L36.1612 241.16L34.2928 240.084L34.1852 237.194L34.2928 233.793Z" fill="#9AC2CC"/>
<path d="M35.0722 229.075C35.0722 229.075 39.5081 235.837 49.2804 233.242C49.2804 233.242 40.7851 231.764 40.0458 230.03L35.0722 229.075Z" fill="#214859"/>
<path d="M47.3448 230.433C47.3448 230.433 51.0682 233.941 58.5823 231.119C58.5823 231.119 60.9346 230.178 60.9346 228.296C60.9346 228.296 60.3298 230.043 54.7648 229.64L47.3448 230.433Z" fill="#214859"/>
<path d="M6.871 138.247C6.871 138.247 5.51335 154.404 15.3529 146.944L16.8852 142.67L14.2103 140.882L11.159 137.575L9.72069 134.147L6.88445 138.261L6.871 138.247Z" fill="#214859"/>
<path d="M25.2195 155.978C25.2195 155.978 12.4362 146.246 5.43292 158.841L5.5808 161.96L8.77996 158.841L12.1539 156.274L16.8855 155.87L20.0847 156.784L22.7865 158.841L25.2061 155.978L25.2195 155.978Z" fill="#D9DADD"/>
<path d="M51.0549 100.462C51.0549 100.462 37.4785 95.3139 33.9299 114.576C30.3812 133.839 39.7905 113.447 39.7905 113.447L41.2288 106.807L45.006 102.64L48.4741 101.403L51.0549 100.449L51.0549 100.462Z" fill="#D9DADD"/>
<path d="M23.2704 116.216C23.2704 116.216 28.7144 115.02 29.7763 114.093C30.8383 113.165 24.7625 119.066 24.7625 119.066L24.7087 116.821L23.2704 116.216Z" fill="#24596B"/>
<path d="M42.0891 94.4136C42.0891 94.4136 36.1343 98.0428 29.0235 99.7231C21.9127 101.403 15.8101 108.541 15.8101 108.541C15.8101 108.541 13.3636 111.996 14.1164 113.985C14.1164 113.985 30.072 108.931 32.5722 104.939C35.0725 100.946 38.8362 98.594 38.8362 98.594L42.0891 94.4136Z" fill="#5891A0"/>
<path d="M2.23358 111.296C2.23358 111.296 15.8906 115.678 23.6063 107.129C31.322 98.5797 48.474 86.2938 48.474 86.2938C48.474 86.2938 44.764 85.8771 43.9172 82.3553L42.5595 79.9492L43.5408 75.0832L43.8365 70.5264L44.9522 66.6281L50.1274 60.2836L44.4817 63.0929L41.8202 66.198L40.2206 71.3194L39.4679 73.0937L37.1827 74.6933L32.7334 74.6127L30.0719 77.8522L24.3322 85.6755L23.5123 87.8799L23.3375 90.9985L22.5041 95.273L18.5118 100.448L14.4927 104.521L8.26905 107.478L4.66657 106.833L3.59123 105.637L2.23358 111.296Z" fill="#EBECF0"/>
<path d="M3.73894 116.229C3.73894 116.229 10.6347 114.576 10.6347 119.267L7.47581 119.267L3.72552 116.229L3.73894 116.229Z" fill="#14303F"/>
<path d="M24.4665 120.841C24.4665 120.841 25.0983 116.458 27.7463 117.87C30.3944 119.281 24.7488 123.515 23.8078 125.384C22.8669 127.252 18.8612 133.288 18.9822 136.621C19.1031 139.955 18.6327 137.132 18.6327 137.132L18.5654 134.887L18.9822 131.89L20.0441 129.148L22.3964 125.384L24.4799 120.841L24.4665 120.841Z" fill="#EBECF0"/>
<path d="M39.7903 78.619C39.7903 78.619 32.8005 79.2777 30.8918 83.9958C28.983 88.7139 31.2009 88.7677 28.4453 90.3807C28.4453 90.3807 33.2038 88.7139 32.2628 85.8911C31.3219 83.0683 39.7903 78.619 39.7903 78.619Z" fill="#9AC2CC"/>
<path d="M38.3252 86.3617C38.3252 86.3617 38.3656 91.5503 31.7925 92.9483C25.2193 94.3597 22.2217 101.309 22.2217 101.309" fill="#9AC2CC"/>
<path d="M54.3481 119.737C54.3481 119.737 43.8902 127.655 47.4657 140.613L44.9387 137.131L43.9036 133.421L44.4682 130.545L45.9602 127.574L48.7024 124.442L51.5252 121.149L54.3481 119.737Z" fill="#14303F"/>
<path d="M69.8737 121.552C69.8737 121.552 56.2301 126.324 58.112 139.954L56.7006 135.72L56.7006 130.545L58.2599 126.23L61.4053 124.442L64.2281 122.56L69.8872 121.552L69.8737 121.552Z" fill="#14303F"/>
<path d="M63.4349 137.334C63.4349 137.334 73.3551 130.492 76.3123 137.334L77.6027 138.248L78.3286 135.263L76.9172 132.898L73.1534 131.957L69.8736 132.441L67.1583 133.422L63.4349 137.334Z" fill="#14303F"/>
<path d="M61.4321 143.665C61.4321 143.665 72.2125 135.721 76.9172 141.823L77.3877 139.001L74.5649 138.06L69.8602 137.589L65.7873 139.35L61.4321 143.652L61.4321 143.665Z" fill="#14303F"/>
<path d="M59.4966 116.82C59.4966 116.82 48.864 122.735 49.4823 135.101C49.4823 135.101 49.1731 137.131 50.5846 139.013C50.5846 139.013 54.308 124.253 59.4966 116.834L59.4966 116.82Z" fill="#EBECF0"/>
<path d="M30.2735 118.286C30.2735 118.286 28.5798 123.34 30.8918 128.582C33.2038 133.825 32.2628 131.486 32.2628 131.486C32.2628 131.486 31.3219 129.604 32.7333 125.84C32.7333 125.84 30.1659 123.421 30.2735 118.286Z" fill="#4B808C"/>
<path d="M33.6745 123.972C33.6745 123.972 30.8516 125.384 32.263 131.486L32.263 136.191L33.4997 138.248L35.5429 140.425L37.4248 142.307C37.4248 142.307 31.7792 127.736 33.661 123.972L33.6745 123.972Z" fill="#D9DADD"/>
<path d="M27.9751 129.484C27.9751 129.484 25.6228 135.923 26.3621 139.35L26.2142 143.679L25.2195 146.542L24.776 148.222C24.776 148.222 24.0367 153.451 31.2012 151.636L36.2016 149.741C36.2016 149.741 29.9108 143.369 29.6823 134.148L27.9751 129.497L27.9751 129.484Z" fill="#5891A0"/>
<path d="M28.9699 129.55C28.9699 129.55 24.6819 149.807 43.2721 148.409C43.2721 148.409 42.0623 146.931 42.0892 144.847L37.4248 142.293L33.4998 138.234L31.8733 134.846L32.2631 131.486L30.4888 129.55L28.9833 129.55L28.9699 129.55Z" fill="#24596B"/>
<path d="M155.862 85.1648L146.735 81.159C146.735 81.159 133.656 72.61 129.005 61.3994C129.005 61.3994 127.231 57.9448 126.733 54.0735C126.733 54.0735 139.396 77.3819 156.79 79.2907C174.184 81.1994 162.529 85.7831 162.529 85.7831L157.166 86.2401L155.849 85.1648L155.862 85.1648Z" fill="#4B808C"/>
<path d="M48.474 86.3081C48.474 86.3081 38.8495 85.9048 47.3045 71.3337C47.3045 71.3337 45.4361 77.0332 47.3045 80.2996C49.173 83.566 53.2594 81.5093 53.2594 81.5093L48.474 86.3081Z" fill="#4B808C"/>
<path d="M70.7069 70.1506C70.7069 70.1506 67.091 89.5878 69.645 95.2603L67.212 88.8216L67.0373 82.1409L67.9782 77.4362L69.6047 72.2879L70.7069 70.1506Z" fill="#14303F"/>
<path d="M88.4911 50.8478C88.4911 50.8478 82.5229 64.9619 77.1327 69.7876C71.7424 74.6133 68.2206 75.0837 67.8577 78.1485C67.4948 81.2132 66.8764 86.3615 66.8764 86.3615L65.9758 90.3941L63.7713 92.0206L60.4512 91.0796L55.276 87.3159L53.2463 81.509L54.8055 75.0972L58.4483 70.1505L62.7363 64.7468L68.4357 58.6308L71.5811 55.7542L74.5384 52.5146L78.7726 50.6328L81.9046 49.7725L84.3107 49.7725L88.4911 50.8209L88.4911 50.8478Z" fill="#4B808C"/>
<path d="M56.6332 72.6373C56.6332 72.6373 64.685 68.0535 68.4487 58.6442L56.6332 72.6373Z" fill="#14303F"/>
<path d="M65.9756 90.3945C65.9756 90.3945 58.1255 78.8612 70.0888 71.3337L66.7686 81.5093L66.8762 86.3619L65.9756 90.3945Z" fill="#EBECF0"/>
<path d="M89.9291 64.6124C89.9291 64.6124 102.766 70.3925 102.296 79.3179C102.296 79.3179 104.178 77.436 104.178 73.6723L103.747 70.4059L102.296 66.6152L100.239 64.8006L97.591 63.322L93.1148 63.5101L89.9291 64.5989L89.9291 64.6124Z" fill="#4B808C"/>
<path d="M89.9291 64.6124C89.9291 64.6124 99.9433 62.865 104.178 71.7904L103.452 69.4515L102.309 67.0857L100.898 65.2038L98.2093 63.5101L93.7466 63.5101L91.5018 64.2629L89.9425 64.5989L89.9291 64.6124Z" fill="#214859"/>
<path d="M94.4993 70.3374C94.4993 70.3374 89.6064 64.1138 83.7323 68.8991C77.8581 73.6844 77.4145 83.067 81.1649 88.2421C84.9152 93.4173 90.0097 95.6083 90.5205 95.4605C90.9506 95.326 83.3559 91.1456 83.45 83.7256C83.4769 81.5749 84.8749 79.6796 86.8912 78.9403C90.6146 77.5692 96.65 74.6254 94.5127 70.3509L94.4993 70.3374Z" fill="#24596B"/>
<path d="M293.266 172.377C288.736 176.598 276.167 179.434 276.167 179.434C276.167 179.69 276.141 179.945 276.127 180.187C274.81 201.681 256.905 208.563 256.905 208.563C255.964 218.429 250.332 217.959 250.332 217.959C250.332 217.959 248.45 224.532 241.406 255.556C234.363 286.58 223.072 295.506 223.072 295.506C225.894 303.961 238.584 353.776 238.584 353.776C259.728 360.82 299.207 358.011 325.056 350.483C340.877 345.886 343.31 356.062 340.46 370.996C340.46 371.063 340.434 371.117 340.42 371.17C340.353 371.533 340.286 371.896 340.205 372.259" stroke="black" stroke-width="1.4" stroke-linecap="round" stroke-linejoin="round"/>
<path d="M20.5148 464.23C20.5148 464.23 17.6919 452.952 26.6308 447.777C35.5698 442.601 50.1274 431.794 65.169 423.339C80.2106 414.884 90.5475 390.917 84.9018 367.877C81.9446 355.833 79.0008 342.889 76.6619 329.783C74.5246 317.833 72.8847 305.749 72.2126 294.094C70.8012 269.657 66.567 236.294 66.567 236.294" stroke="black" stroke-width="1.4" stroke-linecap="round" stroke-linejoin="round"/>
<path d="M195.206 313.048C201.457 310.144 207.882 307.361 213.609 303.517C216.808 301.057 219.752 297.979 222.346 294.914C222.682 294.511 223.273 294.457 223.663 294.793C224.053 295.116 224.107 295.694 223.798 296.097C220.235 300.546 216.028 304.552 210.853 307.039C205.839 309.593 200.677 311.73 195.448 313.706C195.045 313.867 194.776 313.236 195.18 313.061L195.206 313.048Z" fill="black"/>
<path d="M281.854 172.336L135.605 163.209C125.375 162.564 117.391 154.082 117.391 143.825L117.391 129.873C117.391 121.135 124.878 114.266 133.588 115.006L281.195 127.668C290.833 128.502 298.239 136.567 298.239 146.232L298.239 156.931C298.239 165.83 290.739 172.873 281.854 172.322L281.854 172.336Z" stroke="black" stroke-width="1.4" stroke-linecap="round" stroke-linejoin="round"/>
<path d="M117.391 131.755C117.391 123.018 124.784 116.149 133.387 116.888L279.219 129.551C288.749 130.384 296.062 138.449 296.062 148.114L296.062 158.814C296.062 162.712 294.637 166.247 292.311 168.949" stroke="black" stroke-width="1.4" stroke-linecap="round" stroke-linejoin="round"/>
<path d="M281.383 175.979L134.368 167.591C122.096 166.892 112.511 156.703 112.565 144.417L112.619 131.069C112.659 120.127 122.015 111.538 132.916 112.412L280.98 124.308C291.841 125.182 300.229 134.201 300.336 145.089L300.457 157.805C300.551 168.236 291.814 176.57 281.396 175.979L281.383 175.979Z" stroke="black" stroke-width="1.4" stroke-linecap="round" stroke-linejoin="round"/>
<path d="M54.8185 208.092L54.8185 215.539C54.8185 215.539 67.9783 216.077 73.1534 213.254C78.3286 210.431 92.8862 199.153 114.514 194.449C136.129 189.744 145.538 188.333 161.978 186.464C178.431 184.582 197.223 183.641 204.28 177.068C211.323 170.495 214.617 178.95 213.676 185.523C216.929 186.505 220.303 187.607 223.784 188.87C229.322 190.887 234.444 193.051 239.148 195.255C240.976 196.116 242.858 196.841 244.781 197.473C247.724 198.441 251.367 200.229 252.214 203.374C252.389 204.046 252.416 204.665 252.295 206.788C252.066 210.498 251.663 213.644 251.287 216.063" stroke="black" stroke-width="1.4" stroke-linecap="round" stroke-linejoin="round"/>
<path d="M26.1467 190.242C26.6172 201.009 24.0363 209.975 20.2725 209.975C16.5088 209.975 13.4575 201.237 13.4575 190.47C13.4575 179.703 15.3662 170.025 19.1031 170.496C22.84 170.966 25.6762 179.421 26.1467 190.228L26.1467 190.242Z" stroke="black" stroke-width="1.4" stroke-linecap="round" stroke-linejoin="round"/>
<path d="M33.2037 190.861C33.2037 204.786 28.7678 216.508 23.3373 216.078C17.2212 215.607 14.479 205.606 13.4709 190.861C12.5299 177.069 17.8933 165.643 23.3373 165.643C28.7813 165.643 33.2037 176.935 33.2037 190.861Z" stroke="black" stroke-width="1.4" stroke-linecap="round" stroke-linejoin="round"/>
<path d="M18.0279 169.272C20.8507 158.908 26.4291 153.464 33.2039 150.749C33.2039 150.749 39.32 146.044 47.3045 156.395C47.3045 156.395 49.1864 158.747 52.0092 157.806C54.832 156.865 50.1273 152.631 50.1273 152.631C50.1273 152.631 55.3966 147.523 58.3942 151.018C61.3917 154.513 62.8166 157.336 64.685 155.924C66.5535 154.513 66.0964 152.161 62.8031 148.41" stroke="black" stroke-width="1.4" stroke-linecap="round" stroke-linejoin="round"/>
<path d="M19.7216 214.411C23.6736 223.431 30.0182 228.606 36.9542 229.722C36.9542 229.722 49.173 232.074 57.1575 228.31C65.1421 224.547 63.8785 215.339 63.8785 215.339" stroke="black" stroke-width="1.4" stroke-linecap="round" stroke-linejoin="round"/>
<path d="M30.6365 160.185C41.3632 167.646 39.6023 182.969 38.6479 194.355C38.2446 198.239 38.043 202.205 37.0349 205.995L36.9542 206.197L36.9004 206.318C36.9004 206.318 36.8736 206.372 36.8467 206.399C36.4972 206.977 35.6369 206.264 36.2821 205.834C36.0939 205.969 36.1746 205.928 36.1477 205.942C36.4031 205.055 36.4569 204.127 36.5509 203.213C36.9676 198.602 37.1558 192.916 37.3037 188.252C37.586 180.469 37.4785 172.31 33.8491 165.28C32.9216 163.586 31.7656 161.919 30.2601 160.75C29.9375 160.521 30.287 159.97 30.6365 160.185Z" fill="black"/>
<path d="M70.9623 214.397C71.1102 222.099 71.4597 229.802 71.9705 237.477C72.4947 245.112 73.1668 252.707 76.0837 259.858C81.6218 273.838 90.144 287.764 103.599 295.305C103.855 295.412 103.68 295.869 103.411 295.735C98.8679 294.014 94.7681 291.003 91.2597 287.656C83.6784 280.021 78.1807 270.518 74.2153 260.57C71.1371 253.366 70.4381 245.354 69.9004 237.625C69.3627 229.896 69.1745 222.167 69.0804 214.424C69.0804 213.228 70.922 213.134 70.9623 214.397Z" fill="black"/>
<path d="M217.897 248.512C216.015 253.687 213.662 251.805 213.662 251.805C213.662 251.805 213.38 251.348 212.735 250.743C211.297 249.413 208.044 247.396 201.914 248.042C197.129 248.539 194.776 248.109 193.62 247.585C191.55 246.657 189.373 246.025 187.101 245.945C182.921 245.797 176.724 246.321 169.962 249.44C169.653 249.574 169.358 249.708 169.062 249.803C169.438 248.768 172.745 240.366 179.358 238.162C186.402 235.809 192.518 232.516 200.503 237.691C200.503 237.691 202.707 238.955 207.546 236.75C212.721 234.398 219.765 243.324 217.883 248.499L217.897 248.512Z" stroke="black" stroke-width="1.4" stroke-linecap="round" stroke-linejoin="round"/>
<path d="M213.568 250.447C217.628 257.504 214.267 259.494 207.157 257.948C200.705 256.147 194.333 256.644 187.72 256.362C181.052 255.636 174.694 253.525 168.605 250.77C168.121 250.555 167.946 249.977 168.161 249.506C168.161 249.479 169.371 250.703 169.371 250.703C167.785 251.321 165.782 251.092 164.21 250.487C163.914 250.366 164.008 249.896 164.331 249.909C165.917 250.03 167.301 249.425 168.713 248.928C169.465 248.753 170.191 249.372 169.922 250.138L169.882 250.245L169.412 249.063C173.296 250.837 177.41 252.316 181.577 253.351C185.824 254.466 189.911 254.789 194.346 254.56C198.782 254.507 203.272 255.085 207.547 256.093C208.622 256.335 209.455 256.523 210.598 256.496C212.816 256.536 214.039 256.442 213.192 254.117C212.896 253.216 212.345 252.221 211.861 251.254C211.31 250.151 213.017 249.331 213.555 250.434L213.568 250.447Z" fill="black"/>
<path d="M214.603 185.537C214.859 189.449 216.149 193.495 217.453 197.231C219.375 202.662 223.502 210.445 218.69 215.822C215.114 219.881 209.361 220.432 205.544 223.82C204.979 224.478 204.697 225.419 204.535 226.441C204.495 226.737 204.038 226.75 203.998 226.441C203.46 224.129 204.939 221.83 206.955 220.782C210.396 218.725 214.577 217.489 217.211 214.545C221.123 209.612 217.157 203.146 215.477 197.957C214.066 193.911 212.937 189.919 212.722 185.564C212.708 184.3 214.603 184.273 214.603 185.564L214.603 185.537Z" fill="black"/>
<path d="M179.009 201.747C176.535 204.718 177.019 209.02 176.965 212.716C177.261 216.036 176.199 221.346 180.339 222.368C180.689 222.448 180.622 222.999 180.259 222.986C175.218 222.905 175.325 216.359 175.204 212.743C175.245 208.912 175.178 203.71 178.78 201.304C179.076 201.183 179.277 201.586 179.009 201.761L179.009 201.747Z" fill="black"/>
<path d="M196.9 215.835C197.546 215.553 197.572 214.693 196.941 214.37C193.379 212.609 184.251 208.953 181.953 215.862C180.044 221.615 192.384 217.811 196.9 215.822L196.9 215.835Z" stroke="black" stroke-width="1.4" stroke-linecap="round" stroke-linejoin="round"/>
<path d="M220.316 212.38C221.445 215.122 221.727 218.832 219.335 221.064C217.749 222.3 216.028 223.134 214.402 224.249C213.178 225.11 211.78 225.822 210.517 226.561C210.409 226.629 210.261 226.602 210.194 226.481C210.194 225.513 211.014 224.787 211.498 224.182C213.165 222.542 215.154 221.292 217.076 220.002C219.536 218.577 219.187 215.378 218.542 212.971C218.219 211.856 219.886 211.291 220.316 212.367L220.316 212.38Z" fill="black"/>
<path d="M218.286 214.853C220.383 216.977 218.864 219.733 216.525 220.808C214.657 221.937 212.654 222.582 210.96 223.752C210.88 223.806 210.759 223.792 210.705 223.698C210.665 223.631 210.665 223.537 210.705 223.483C211.391 222.609 212.305 221.978 213.205 221.413L215.921 219.813C217.641 218.886 218.864 217.273 217.56 215.593C217.103 215.136 217.802 214.41 218.273 214.867L218.286 214.853Z" fill="black"/>
<path d="M197.021 223.538C197.29 221.535 198.621 219.841 200.234 218.712C201.793 217.677 203.568 217.032 204.751 215.741C204.898 215.553 205.221 215.701 205.181 215.943C204.764 217.959 202.64 219.048 201.162 220.056C199.75 221.024 198.5 222.22 197.384 223.686C197.277 223.847 197.008 223.739 197.035 223.551L197.021 223.538Z" fill="black"/>
<path d="M55.0471 160.359C57.8296 165.534 58.8646 171.422 59.2947 177.229C59.5905 183.022 59.4157 188.977 57.6951 194.542C57.5204 195.12 56.5929 194.972 56.6198 194.354C57.2381 183.076 58.3807 171.462 54.5631 160.588C54.4153 160.292 54.8723 160.05 55.0336 160.346L55.0471 160.359Z" fill="black"/>
<path d="M64.5505 160.346C70.2498 173.466 70.3574 189.166 65.2897 202.487C65.2225 202.621 64.994 202.581 65.0209 202.406C66.5399 191.975 67.5614 181.423 65.9753 170.925C65.5048 167.457 64.8058 163.989 63.8784 160.615C63.7305 160.199 64.3623 159.916 64.5505 160.333L64.5505 160.346Z" fill="black"/>
<path d="M285.026 125.035C285.026 125.035 280.872 122.561 280.402 122.091C279.931 121.62 283.265 118.65 283.48 116.848C283.695 115.047 284.972 113.69 282.687 108.729C282.687 108.729 283.224 98.5942 277.108 95.7714" stroke="black" stroke-width="1.4" stroke-linecap="round" stroke-linejoin="round"/>
<path d="M280.402 97.182C280.402 97.182 288.736 92.8133 283.225 79.3176C280.133 71.7498 273.264 70.4728 269.796 70.3384C268.559 70.2846 267.498 69.4512 267.161 68.2683C265.723 63.026 261.502 50.0007 255.494 51.1298" stroke="black" stroke-width="1.4" stroke-linecap="round" stroke-linejoin="round"/>
<path d="M245.453 71.3469C252.523 69.6935 256.099 63.3758 254.499 56.2785C253.653 51.883 253.424 46.9362 250.776 43.2666C246.34 37.9973 239.001 36.3843 232.656 34.153C230.855 33.7497 228.65 32.8759 226.809 31.8543C224.672 30.6177 222.333 28.5073 222.575 25.7248C222.588 25.4156 222.615 25.0796 222.628 24.8914L222.696 24.2328C222.669 23.2515 222.413 22.2568 221.54 21.6922C217.319 19.1786 211.619 20.8454 206.928 19.6491C204.804 19.1652 203.285 17.2429 201.699 16.0869C199.28 14.4201 196.255 14.447 193.338 14.4604C187.572 13.4388 182.558 10.4144 178.109 6.77165C176.832 5.7635 175.138 4.05636 173.969 2.90035L174.385 3.15575C172.073 2.55086 169.56 2.20135 167.167 2.29544C165.393 2.36265 163.632 2.68528 162.059 3.4918C159.29 5.29302 155.056 4.25801 152.771 5.2796C151.816 5.70975 151.05 6.51619 150.391 7.47057C148.886 9.70194 148.456 12.4172 145.982 14.0303C145.31 14.4738 144.517 14.6486 143.805 14.7427L141.896 14.8906C139.57 15.0384 137.581 16.3423 135.807 18.0226C133.723 20.2405 130.215 22.6735 126.68 21.8804C126.37 21.8401 125.792 21.7594 125.658 21.7998C125.322 22.3509 125.309 23.9774 125.309 24.8108C125.309 25.335 124.878 25.7517 124.354 25.7517C117.66 22.6869 111.1 23.8295 107.283 30.5101C107.081 30.7924 106.772 30.9268 106.449 30.9134C102.981 30.7924 99.3118 31.2092 96.005 32.3114C92.7386 33.3868 89.7276 35.3627 88.0743 38.4006C87.9399 38.656 87.6979 38.8173 87.4425 38.8845C77.2804 41.5192 66.4058 44.4629 58.1928 51.1974C55.249 53.5766 54.7113 57.3672 51.9019 59.9077C49.4151 62.5961 45.1809 62.865 43.2721 65.8491C42.7748 66.5078 42.5597 67.3278 42.2371 68.0402C41.3231 70.7286 41.2155 74.6267 37.9088 75.6886C35.8119 76.1456 34.5752 75.0435 32.989 76.1054C31.6986 76.9926 30.9593 78.7668 29.978 80.0572C28.1499 82.9741 24.9373 85.1921 24.4937 88.6601C24.2517 89.9371 24.534 91.4023 24.3459 92.7062C23.9695 95.1795 22.4774 97.3437 21.0391 99.1852C18.2701 102.788 6.81751 113.004 3.51079 106.82C3.4839 106.753 3.47045 106.78 3.45701 106.74C3.5511 106.861 3.9006 106.874 4.00814 106.793C4.04846 106.793 4.07534 106.74 4.04846 106.793C4.00813 106.82 3.91406 106.968 3.86029 107.116C2.20693 111.296 3.80649 118.031 9.11607 118.461C13.5788 119.039 17.6383 116.364 22.0607 115.813C23.257 115.705 24.4668 115.544 25.4615 116.673C25.9992 117.439 25.8513 118.125 25.7976 118.676C25.4884 120.141 24.8163 121.405 24.1711 122.682C21.7247 127.386 18.7271 132.105 18.8212 137.576C17.8668 139.121 18.3507 132.293 18.5927 132.091C19.5336 127.198 22.5581 123.031 23.9963 118.367C24.0367 118.044 24.0098 117.735 23.9695 117.749C23.9426 117.735 23.7813 117.601 23.4184 117.587C23.0823 117.56 22.6925 117.587 22.2758 117.641C17.7996 118.3 13.6326 121.002 8.84725 120.37C4.69368 120.074 1.56169 116.109 1.31974 112.103C1.07778 110.342 1.13156 104.481 4.10224 104.858C4.85499 105.032 5.20449 105.705 5.54054 106.296C5.72873 106.645 6.25296 106.767 7.00571 106.686C12.3825 105.637 21.98 97.4378 22.222 91.6174C22.0876 89.5473 22.1951 87.3294 23.2033 85.4207C24.534 82.9339 26.6848 81.0655 28.1634 78.7938C29.6554 76.4011 31.6314 72.9868 35.0053 73.4304C36.0269 73.4976 36.8872 73.6858 37.3711 73.5379C38.6078 73.1615 39.0379 71.2528 39.4143 70.0027C41.8607 58.2544 48.9716 63.5236 53.2058 54.1949C58.2062 44.3016 76.8771 39.5835 87.0258 37.0295L86.394 37.5134C90.3191 30.5102 99.1505 28.8433 106.557 29.0181L105.683 29.4885C109.568 22.4046 117.7 20.348 124.798 23.9639L123.413 24.7838C123.507 23.2783 123.252 21.7325 124.314 20.4421C125.658 19.2592 127.177 20.3211 128.629 20.0926C131.72 19.9044 133.696 17.1354 136.022 15.3476C137.621 14.0706 139.651 13.1834 141.694 13.0221C142.42 12.9683 144.383 12.9146 144.988 12.4307C145.808 11.9468 146.439 10.9118 146.99 9.87674C148.657 6.01889 150.929 2.55082 156.064 2.85998C158.335 2.92719 160.177 2.42986 162.113 1.36794C163.672 0.776497 165.433 0.453929 167.073 0.400161C169.842 0.400161 172.759 0.494262 175.313 1.58306L177.262 3.50526C181.819 7.69915 187.384 11.4629 193.54 12.5786C194.763 12.5786 197.909 12.5248 199.737 13.1431C201.807 13.5733 203.729 15.1997 205.154 16.5708C206.512 17.8209 208.272 18.1973 210.208 18.2108C215.249 18.399 225.371 17.4176 224.47 25.1199C223.852 29.4885 229.739 31.3704 233.194 32.3517C237.683 33.79 242.213 35.2149 246.501 37.5C248.625 38.6426 250.736 40.0809 252.255 42.1375C253.8 44.1807 254.567 46.6406 255.064 48.966C255.871 53.7783 257.349 58.4292 256.287 63.3355C255.131 68.3763 250.709 72.0459 245.776 73.1884C244.472 73.4304 244.203 71.562 245.426 71.3469L245.453 71.3469Z" fill="black"/>
<path d="M8.01347 119.242C7.61021 126.554 8.43016 131.501 9.72059 134.848C12.3014 141.596 16.7508 141.824 16.7508 141.824C16.7508 141.824 17.9471 146.058 13.3499 148.397C8.75278 150.75 5.00245 154.513 5.47291 162.498" stroke="black" stroke-width="1.4" stroke-linecap="round" stroke-linejoin="round"/>
<path d="M7.35474 153.114C7.35474 153.114 0.808516 142.925 9.72055 134.86" stroke="black" stroke-width="1.4" stroke-linecap="round" stroke-linejoin="round"/>
<path d="M21.3614 158.559C13.9683 153.868 7.63714 159.137 4.50516 166.019L3.21474 168.976C1.66891 173.076 1.85708 177.835 2.35443 182.163C2.69048 183.682 2.99964 190.51 5.49985 188.938C6.30637 188.44 7.05914 187.553 7.95976 186.787C8.08073 186.68 8.26892 186.693 8.37645 186.814C8.44366 186.895 8.47056 187.002 8.43023 187.096C7.83879 188.857 6.54833 191.263 4.15565 190.887C2.51573 190.376 2.00496 188.978 1.49417 187.647C1.01026 185.86 0.768288 184.206 0.472565 182.405C-0.118882 177.646 -0.441468 172.754 1.29255 168.13C2.34102 165.522 4.16912 161.677 6.31984 159.312C10.3659 154.392 17.2078 153.317 22.4771 157.053C23.5256 157.793 22.3696 159.339 21.3614 158.559Z" fill="black"/>
<path d="M6.64242 189.851C5.33855 194.69 5.27137 197.607 9.5728 200.86C14.1028 205.376 14.385 212.191 17.1944 217.528C17.8799 218.751 18.7133 219.678 19.8693 219.826C23.1357 220.391 26.0392 222.326 28.0689 224.813C34.0641 232.273 32.5586 242.543 35.946 250.985C36.161 251.482 35.9056 252.06 35.3948 252.248C34.9109 252.423 34.3732 252.168 34.1985 251.684C33.1097 248.7 32.4242 245.756 31.7924 242.745C30.6229 236.938 30.3675 230.768 26.4962 226.104C24.7085 223.913 22.2486 222.286 19.5064 221.802C17.6917 221.574 16.2266 220.014 15.4335 218.509C12.5972 213.253 12.409 206.64 8.21515 202.284C7.50273 201.693 6.3064 200.658 5.66118 199.798C4.3842 198.104 3.73898 195.899 3.90029 193.829C4.02127 192.176 4.35729 190.509 5.5133 189.219C5.75526 188.95 6.17196 188.923 6.4408 189.165C6.64243 189.353 6.69622 189.609 6.62901 189.864L6.64242 189.851Z" fill="black"/>
<path d="M48.3261 234.049C43.1913 240.756 37.4516 247.168 35.153 255.422C33.6609 261.175 34.0104 268.084 37.3843 273.098C38.3118 274.308 40.2072 276.566 41.6858 274.993C41.753 274.912 41.8605 274.899 41.9412 274.953C42.1966 275.558 41.3901 276.337 40.7314 276.499C40.0593 276.687 39.3872 276.579 38.7958 276.378C32.6259 273.42 31.7387 264.132 32.2495 258.097C33.0695 252.585 35.731 247.437 38.9571 243.055C41.5245 239.52 44.4817 236.253 48.1379 233.82C48.2589 233.74 48.4337 233.901 48.3261 234.035L48.3261 234.049Z" fill="black"/>
<path d="M48.3527 288.098C44.1991 292.292 37.7604 291.714 34.951 286.243C32.5718 281.834 31.3217 275.422 34.8839 271.282C35.771 270.435 37.0615 271.753 36.2012 272.626C33.2843 276.887 35.2199 284.375 38.7148 287.829C41.4301 290.101 44.925 288.851 48.1376 287.762C48.3393 287.681 48.514 287.964 48.3527 288.098Z" fill="black"/>
<path d="M50.2214 293.865C49.6837 298.342 50.1407 303.396 56.0149 301.944C59.4695 301.447 62.9106 300.627 66.5265 301.366C69.2821 301.944 72.0512 304.108 73.2072 306.393C67.1045 301.151 62.5611 302.522 55.3159 303.96C51.0414 304.753 48.4067 301.904 48.1648 297.871C48.0438 296.392 48.111 294.981 48.3798 293.502C48.4739 292.992 48.9578 292.655 49.4686 292.75C49.9794 292.844 50.3155 293.341 50.2214 293.852L50.2214 293.865Z" fill="black"/>
<path d="M55.2889 303.033C55.2889 303.033 56.7003 308.208 66.5667 306.797C66.5667 306.797 71.7419 304.713 73.8522 311.636" stroke="black" stroke-width="1.4" stroke-linecap="round" stroke-linejoin="round"/>
<path d="M60.9884 306.972C59.1737 315.386 63.1257 316.22 70.2096 317.766C70.4919 317.806 70.6935 318.142 70.4515 318.371C69.6585 319.096 68.731 319.19 67.8707 319.15C65.9619 318.989 64.1473 318.397 62.4133 317.658C58.0312 315.763 57.8564 310.278 59.2141 306.407C59.6173 305.265 61.3513 305.829 61.0018 306.985L60.9884 306.972Z" fill="black"/>
<path d="M67.3329 318.115C67.3329 318.115 70.3305 319.473 71.7419 324.648C73.1533 329.823 74.5243 330.71 76.6616 329.796" stroke="black" stroke-width="1.4" stroke-linecap="round" stroke-linejoin="round"/>
<path d="M161.239 392.355C159.37 402.612 154.827 413.002 146.721 419.885C145.525 421.027 142.151 423.111 140.726 424.038C132.527 429.213 129.61 439.819 131.357 449C131.935 452.105 132.943 455.237 134.879 457.75C135.054 457.939 134.718 458.221 134.556 458.006C126.868 447.562 128.844 430.221 139.92 422.869C141.829 421.632 145.028 419.508 146.708 418.03C154.088 411.309 158.564 401.939 160.809 392.288C160.822 392.167 160.943 392.086 161.064 392.113C161.172 392.14 161.239 392.248 161.225 392.355L161.239 392.355Z" fill="black"/>
<path d="M185.891 417.263C185.112 425.637 180.326 433.326 173.888 438.569C173.659 438.77 173.323 438.407 173.565 438.192C179.439 432.6 183.647 425.194 185.058 417.196C185.098 416.658 185.945 416.725 185.891 417.263Z" fill="black"/>
<path d="M240.654 363.617C244.498 385.218 237.253 410.113 218.394 422.641C218.085 422.842 217.722 422.399 218.031 422.157C233.153 410.18 240.291 390.797 240.466 371.87C240.56 369.142 240.466 366.399 240.237 363.684C240.21 363.442 240.627 363.348 240.667 363.63L240.654 363.617Z" fill="black"/>
<path d="M340.205 372.287C338.31 381.508 334.533 392.382 330.702 402.665C320.365 430.396 311.439 428.985 284.179 459.538C256.919 490.092 185.959 523.455 146.95 531.44C107.941 539.424 79.74 536.615 52.0092 522.984C24.2784 509.354 20.5147 464.243 20.5147 464.243C20.5147 464.243 33.6744 497.136 55.2891 502.311C76.9038 507.486 101.341 517.823 108.398 518.293C115.455 518.764 147.407 519.234 178.431 503.252C209.455 487.269 232.683 479.782 241.044 474.365C249.337 468.988 328.78 426.054 340.219 372.3L340.205 372.287Z" stroke="black" stroke-width="1.4" stroke-linecap="round" stroke-linejoin="round"/>
<path d="M340.46 371.009C340.46 371.009 340.434 371.13 340.42 371.183C340.353 371.546 340.286 371.909 340.205 372.272" stroke="black" stroke-width="1.4" stroke-linecap="round" stroke-linejoin="round"/>
<path d="M141.721 325.521C152.649 319.069 169.237 316.193 178.31 327.148C178.7 327.591 178.014 328.223 177.598 327.793C167.503 317.281 153.16 320.4 141.721 325.521Z" fill="black"/>
<path d="M177.866 267.277C186.617 261.887 199.521 259.454 207.667 267.17C207.99 267.452 207.559 267.963 207.223 267.68C198.688 261.188 187.114 263.379 178.041 267.573C177.853 267.68 177.665 267.385 177.866 267.264L177.866 267.277Z" fill="black"/>
<path d="M218.837 44.5437C218.837 44.5437 212.264 62.4081 193.929 52.5282" stroke="black" stroke-width="1.4" stroke-linecap="round" stroke-linejoin="round"/>
<path d="M223.542 48.7788C223.542 48.7788 208.501 58.1747 202.398 64.2908" stroke="black" stroke-width="1.4" stroke-linecap="round" stroke-linejoin="round"/>
<path d="M181.241 54.289C184.991 55.0552 188.647 58.3754 188.553 62.5559C188.553 62.8382 188.607 63.1204 188.687 63.2952C188.768 63.4968 188.808 63.4834 188.822 63.4834C188.862 63.4968 189.077 63.4296 189.265 63.3086C191.645 61.3192 192.075 57.6765 191.698 54.6655C190.354 47.0842 184.157 39.7583 176.213 38.8711C173.592 38.4679 170.662 38.2259 168.256 36.6801C165.836 35.2015 164.115 32.9297 162.704 30.5908C162.637 30.4699 162.664 30.322 162.785 30.2548C162.906 30.1876 163.054 30.2279 163.121 30.3354C166.427 35.6719 170.218 37.4328 176.361 37.8226C184.856 38.5888 191.672 46.3045 193.11 54.4773C193.567 57.9318 193.069 62.2064 190.085 64.5856C189.212 65.2577 187.733 65.1233 187.316 63.8866C187.128 63.4296 187.101 63.0263 187.088 62.6231C187.222 58.9534 184.44 56.1978 181.093 54.7998C180.784 54.7058 180.918 54.2353 181.227 54.316L181.241 54.289Z" fill="black"/>
<path d="M149.692 38.159C155.163 36.7745 160.459 32.2446 159.814 26.1553C159.828 25.7924 160.11 25.4967 160.473 25.4563C170.729 24.018 181.59 23.104 191.013 18.5069C191.215 18.3724 191.456 18.7085 191.228 18.8429C188.956 20.2543 186.429 21.1549 183.916 21.9615C176.321 24.3004 168.511 25.7387 160.661 26.935L161.32 26.1553C161.266 27.7146 161.145 29.3277 160.486 30.7794C158.712 35.1615 154.236 37.6886 149.813 38.6833C149.477 38.7505 149.343 38.2128 149.706 38.1456L149.692 38.159Z" fill="black"/>
<path d="M187.249 37.0301C187.249 37.0301 187.814 21.9884 195.812 18.2247C203.81 14.4609 210.853 17.2837 200.987 35.6186" stroke="black" stroke-width="1.4" stroke-linecap="round" stroke-linejoin="round"/>
<path d="M116.06 57.5288C123.964 63.9003 121.867 75.3394 115.482 82.0066C115.307 82.2217 114.958 81.9663 115.106 81.7244C119.448 74.3447 122.042 65.0025 115.778 57.8649C115.576 57.6901 115.845 57.3541 116.06 57.5288Z" fill="black"/>
<path d="M100.992 57.9453C104.635 59.1013 108.076 62.1795 108.64 66.0912C108.681 66.3062 108.372 66.4272 108.251 66.239C106.194 63.0801 103.627 60.7816 100.723 58.4292C100.481 58.241 100.696 57.8378 100.978 57.9319L100.992 57.9453Z" fill="black"/>
<path d="M105.158 56.091C110.656 56.8169 115.925 61.7097 115.482 67.5435C115.482 67.7586 115.159 67.7855 115.119 67.5704C114.138 62.234 109.877 58.5375 105.064 56.4943C104.836 56.4271 104.916 56.0507 105.158 56.091Z" fill="black"/>
<path d="M118.493 56.0236C125.039 58.7657 128.897 66.2798 127.916 73.2158C127.889 73.4981 127.459 73.4981 127.432 73.2158C126.599 66.6965 123.561 60.5266 118.224 56.5747C117.902 56.3865 118.171 55.8757 118.507 56.0236L118.493 56.0236Z" fill="black"/>
<path d="M150.445 64.5048C155.378 68.981 162.946 70.4596 168.699 66.7227C171.159 65.728 170.205 72.6507 169.828 73.9142C168.807 78.6996 164.021 81.2669 159.397 80.4873C157.273 80.205 155.271 79.5732 153.389 78.7264C153.201 78.6457 153.12 78.4307 153.201 78.2425C153.268 78.0812 153.456 78.0005 153.617 78.0408C155.593 78.4575 157.569 78.8205 159.518 78.8609C166.454 79.2507 168.699 73.7663 168.188 67.7174L169.6 68.3761C168.014 69.2364 166.32 69.9891 164.492 70.258C159.128 71.2258 153.658 68.7794 149.921 65.0022C149.598 64.6796 150.109 64.1822 150.418 64.5048L150.445 64.5048Z" fill="black"/>
<path d="M153.577 73.7269C157.811 73.9689 162.637 73.4446 165.93 70.568C166.978 69.627 167.53 68.4173 168.255 67.2344C168.511 66.737 169.129 66.5489 169.6 66.8446C169.963 67.0731 170.124 67.5032 170.016 67.893C167.745 74.4662 159.451 75.5819 153.456 74.5872C152.905 74.5066 153.039 73.6462 153.59 73.7269L153.577 73.7269Z" fill="black"/>
<path d="M177.611 56.4395C174.815 55.1759 172.006 54.4366 169.478 56.4663C169.344 56.5738 169.156 56.547 169.062 56.3991C169.008 56.305 169.008 56.1974 169.062 56.1168C169.478 55.3909 170.03 54.6651 170.85 54.2484C173.215 52.8773 176.388 54.1274 177.853 56.1437C177.974 56.305 177.786 56.5336 177.597 56.4395L177.611 56.4395Z" fill="black"/>
<path d="M153.039 60.0554C153.039 60.0554 161.494 59.5849 163.846 54.8802C166.198 50.1755 168.08 49.2347 172.301 50.6461C176.522 52.0575 180.756 45.0004 185.461 49.7051C190.165 54.4098 190.165 56.2782 190.165 57.6896" stroke="black" stroke-width="1.4" stroke-linecap="round" stroke-linejoin="round"/>
<path d="M117.418 35.9808C122.754 35.9135 127.97 34.0989 132.312 31.0341C136.707 27.8752 141.708 24.6626 147.393 25.1465C147.541 25.1465 147.568 25.375 147.407 25.4019C138.817 25.9396 133.642 33.736 125.591 35.7523C122.902 36.4647 120.12 36.8007 117.351 36.4244C117.082 36.384 117.109 35.9539 117.404 35.9808L117.418 35.9808Z" fill="black"/>
<path d="M146.009 57.8377C140.296 58.7383 133.589 56.3187 134.664 49.4096C135.081 45.6593 137.339 41.9761 141.089 40.8336C146.372 39.1668 152.058 40.753 156.924 42.8768C157.058 42.944 157.126 43.1053 157.058 43.2397C156.991 43.3742 156.83 43.4414 156.696 43.3876C150.727 41.5192 142.151 39.2474 137.702 44.9737C134.893 49.3827 134.987 55.4719 140.847 56.8698C142.487 57.3538 144.248 57.5554 145.996 57.5554C146.17 57.5554 146.184 57.8243 146.009 57.8377Z" fill="black"/>
<path d="M153.429 26.9089C152.931 31.9765 147.756 34.8262 143.522 36.5199C143.186 36.6544 142.957 36.1435 143.267 35.9822C146.923 33.6836 151.359 31.1565 152.689 26.8148C152.784 26.3846 153.442 26.4787 153.429 26.9089Z" fill="black"/>
<path d="M107.081 30.7251C104.581 32.7683 102.175 35.403 101.193 38.4677C99.4728 43.4816 103.075 48.3206 108.21 48.8986C113.291 49.7052 118.547 48.6702 123.44 47.1916C123.615 47.1244 123.736 47.42 123.547 47.4873C117.095 49.5708 109.218 51.8291 102.968 48.0384C95.9241 42.702 100.078 33.642 105.952 29.233C106.947 28.4668 108.103 29.9859 107.081 30.7386L107.081 30.7251Z" fill="black"/>
<path d="M52.7216 58.8464C50.3289 61.5079 47.8825 64.2231 45.9469 67.2207C45.2882 68.323 44.6161 69.3983 44.6027 70.5006C45.8662 74.2777 39.5888 81.5633 45.6511 82.7193C45.8259 82.7193 45.799 83.0151 45.6242 82.9882L44.6833 82.8537C40.4894 81.8053 42.6804 76.5226 43.1374 73.6326C43.3525 72.611 43.3794 71.6566 43.0837 70.7022C42.9224 69.0489 43.7424 67.5433 44.4145 66.3067C46.3232 63.0537 48.7428 60.2175 51.364 57.5291C51.7269 57.1662 52.3183 57.1527 52.6947 57.5291C53.0576 57.892 53.0711 58.4834 52.7082 58.8464L52.7216 58.8464Z" fill="black"/>
<path d="M158.685 9.76929C158.685 9.76929 164.331 14.9444 172.786 14.474C181.241 14.0035 187.841 16.786 187.841 16.786" stroke="black" stroke-width="1.4" stroke-linecap="round" stroke-linejoin="round"/>
<path d="M264.89 85.4333C264.89 85.4333 273.345 93.8884 275.226 100.004" stroke="black" stroke-width="1.4" stroke-linecap="round" stroke-linejoin="round"/>
<path d="M265.36 89.588C265.36 89.588 269.998 94.8169 270.979 98.8226" stroke="black" stroke-width="1.4" stroke-linecap="round" stroke-linejoin="round"/>
<path d="M260.199 72.7454C260.199 72.7454 271.947 77.9205 273.358 86.846" stroke="black" stroke-width="1.4" stroke-linecap="round" stroke-linejoin="round"/>
<path d="M273.358 78.9148C273.358 78.9148 281.275 85.3669 281.074 91.7384" stroke="black" stroke-width="1.4" stroke-linecap="round" stroke-linejoin="round"/>
<path d="M123.494 114.093C123.494 114.093 91.1387 120.101 79.3232 124.86L79.3232 144.525" stroke="black" stroke-width="1.4" stroke-linecap="round" stroke-linejoin="round"/>
<path d="M70.801 154.042C70.801 154.042 77.8849 142.159 86.7835 141.353C91.9586 140.882 95.5073 140.801 96.0853 143.665C96.0853 143.665 95.8837 141.823 93.9212 141.823C91.9587 141.823 90.9639 142.764 90.7623 144.175C90.5607 145.587 90.8161 157.349 96.0853 153.343L96.6499 154.983C95.709 163.438 79.256 163.438 79.256 163.438" stroke="black" stroke-width="1.4" stroke-linecap="round" stroke-linejoin="round"/>
<path d="M82.4149 167.095C102.322 171.275 122.821 172.042 143.105 173.157C163.483 174.018 183.875 174.233 204.266 174.313C204.482 174.313 204.656 174.488 204.656 174.703C204.656 174.918 204.481 175.08 204.28 175.093C173.672 175.805 142.998 175.375 112.471 172.794C102.282 171.786 92.0931 170.644 82.2132 167.794C82.0251 167.74 81.9175 167.539 81.9713 167.35C82.0251 167.162 82.2401 167.055 82.4283 167.108L82.4149 167.095Z" fill="black"/>
<path d="M218.246 175.764C226.809 176.409 239.202 177.942 247.845 178.937C255.171 179.676 262.578 180.845 269.917 180.966C271.611 180.845 274.098 180.966 275.28 179.743C275.294 179.757 275.267 179.662 275.321 179.81C274.81 178.695 276.531 177.915 277.028 179.031C278.869 186.572 251.918 181.128 247.603 180.939C237.75 179.662 227.924 178.224 218.179 176.262C217.897 176.208 217.924 175.724 218.246 175.764Z" fill="black"/>
<path d="M94.5798 389.841C104.097 410.098 109.339 432.452 110.011 454.82C110.011 455.048 109.635 455.102 109.608 454.846C107.672 438.272 104.352 421.86 99.4054 405.904C97.779 400.581 96.0046 395.298 94.0152 390.11C93.8808 389.774 94.405 389.505 94.5798 389.854L94.5798 389.841Z" fill="black"/>
<path d="M134.946 363.468C145.485 374.423 158.537 377.501 170.258 366.318C170.46 366.129 170.796 366.439 170.594 366.64C163.215 375.539 151.789 377.542 142.138 370.915C139.207 368.979 136.6 366.613 134.476 363.844C134.247 363.549 134.691 363.172 134.946 363.468Z" fill="black"/>
<path d="M89.5256 64.6118C92.5232 62.5551 96.8381 62.3401 100.024 64.1413C102.524 65.6065 103.667 68.3218 104.191 70.9967L104.473 73.6583C104.487 73.833 104.366 73.9943 104.177 74.0212C103.989 74.048 103.828 73.8867 103.814 73.6986L103.452 71.1446C101.731 63.4155 96.166 63.5499 89.6466 64.8941C89.4853 64.9344 89.3778 64.7059 89.5122 64.5983L89.5256 64.6118Z" fill="black"/>
<path d="M71.7554 68.6991C68.395 75.4335 66.3114 83.2299 68.5159 90.5558C71.5538 99.7635 81.4202 107.076 91.2598 106.014C93.6659 105.718 95.9644 104.804 98.0076 103.46C98.4378 103.164 99.0427 103.272 99.325 103.715C99.6072 104.146 99.4863 104.724 99.0696 105.006C96.8247 106.525 94.2304 107.573 91.5152 107.936C80.7481 109.227 70.0214 101.188 66.9029 91.0262C64.6984 83.3508 66.9432 74.8286 71.4732 68.4974C71.5942 68.3361 71.863 68.4974 71.7554 68.6856L71.7554 68.6991Z" fill="black"/>
<path d="M14.049 178.373C11.6026 177.634 8.63191 178.292 7.04576 180.457C6.44087 181.183 6.0376 182.056 5.60745 182.903C5.51336 183.105 5.17733 182.984 5.24454 182.769C5.98384 178.319 10.1509 175.349 14.6136 176.585C15.1109 176.72 15.4201 177.231 15.2857 177.728C15.1513 178.266 14.5733 178.561 14.049 178.373Z" fill="black"/>
<path d="M13.3367 197.688C11.1053 197.285 9.27724 195.309 8.92775 193.145C8.90086 192.97 9.0084 192.809 9.18315 192.782C9.33101 192.755 9.4654 192.836 9.53261 192.97C10.2182 194.758 11.9522 195.645 13.6996 195.86C14.8019 196.142 14.4793 197.836 13.3502 197.702L13.3367 197.688Z" fill="black"/>
<path d="M45.3151 145.305C36.4838 140.52 37.5457 130.035 42.8552 122.924C46.1485 117.884 51.3506 113.408 57.6414 113.192C62.6015 112.991 67.3196 115.007 70.9893 118.058C71.1103 118.166 71.1237 118.341 71.0296 118.462C70.9221 118.583 70.7473 118.596 70.6129 118.502C66.8223 115.881 62.2117 114.281 57.7355 114.617C51.3371 115.142 46.5383 120.142 43.3929 125.357C39.3065 131.904 38.7554 139.996 45.5168 144.956C45.7453 145.077 45.5437 145.453 45.3151 145.319L45.3151 145.305Z" fill="black"/>
<path d="M78.7317 135.573C74.3497 132.185 69.1073 131.675 65.1016 135.976C64.5908 136.541 64.1203 137.159 63.623 137.75C63.4348 137.979 63.0719 137.697 63.2466 137.468C63.6902 136.823 64.1069 136.151 64.5773 135.519C68.4352 130.438 75.0621 130.384 79.9281 134.121C80.9228 134.914 79.6996 136.393 78.7317 135.573Z" fill="black"/>
<path d="M77.8582 139.726C73.1535 137.051 66.9299 138.194 63.1527 142.025C62.5881 142.576 62.0639 143.181 61.5128 143.759C61.459 143.812 61.3783 143.812 61.338 143.759C61.3246 143.315 62.4806 142.213 62.8301 141.702C66.6611 137.159 73.2879 135.532 78.7723 138.086C79.9686 138.664 79.0142 140.439 77.8582 139.726Z" fill="black"/>
<path d="M69.8869 121.795C59.214 124.053 54.4959 129.739 58.6091 140.519C58.7166 140.775 58.3134 140.963 58.1789 140.721C53.9716 134.04 54.8991 125.626 62.9643 122.628C65.1822 121.728 67.5077 121.311 69.86 121.311C70.1558 121.311 70.1961 121.768 69.9004 121.808L69.8869 121.795Z" fill="black"/>
<path d="M26.4424 134.821C27.1952 137.079 27.2221 139.472 27.007 141.811C26.9801 144.526 23.5659 153.626 24.7622 144.929C25.2058 141.676 25.6494 138.181 25.9854 134.901C25.9854 134.646 26.3752 134.592 26.4559 134.834L26.4424 134.821Z" fill="black"/>
<path d="M42.7073 145.358C37.3843 143.57 31.2682 139.497 31.5639 133.179C31.5236 129.066 26.1871 130.128 23.996 132.037C21.1463 134.187 19.8156 137.817 19.8559 141.339C19.829 143.14 20.0306 144.941 20.1651 146.836C20.1785 147.038 20.0306 147.213 19.829 147.24C19.6812 147.24 19.5333 147.172 19.4661 147.038C16.7508 141.822 18.0816 134.335 23.0013 130.733C25.394 128.958 29.3325 127.695 31.8462 130.088C32.6796 130.948 32.9753 132.171 32.9215 133.22C32.8006 135.034 33.2173 136.741 34.1851 138.274C36.1611 141.298 39.4812 143.422 42.882 144.887C43.1778 145.008 43.003 145.479 42.6938 145.371L42.7073 145.358Z" fill="black"/>
<path d="M59.8994 103.931C54.4554 101.834 45.073 99.7644 42.9222 107.01C42.1829 109.631 41.3226 112.44 40.0725 114.887C39.3198 116.15 38.567 117.736 36.954 118.059C36.8196 118.059 36.7255 117.898 36.8196 117.79C37.2228 117.387 37.532 116.715 37.8143 116.043C38.567 114.228 39.3064 112.239 39.8978 110.37C40.8119 107.695 41.3092 104.55 43.6481 102.614C48.4738 98.8369 55.1948 101.135 60.0608 103.582C60.2624 103.689 60.1145 104.025 59.8994 103.918L59.8994 103.931Z" fill="black"/>
<path d="M50.2214 84.5867C46.9012 88.9016 42.1293 94.8967 39.1048 99.3056C35.4352 104.319 34.2388 110.731 29.7089 115.181C29.4669 115.449 29.0099 115.1 29.225 114.791C33.0022 109.817 33.97 103.325 37.6934 98.3378C41.2959 93.2433 45.4629 88.6328 50.0332 84.412C50.1541 84.3044 50.3424 84.4657 50.2348 84.6001L50.2214 84.5867Z" fill="black"/>
<path d="M89.5124 51.5466C83.8533 48.4819 77.2533 50.8477 73.046 55.2566C68.5026 59.464 64.134 63.8864 60.424 68.7927C57.2113 73.3227 52.9099 79.3043 54.8724 84.9634C55.7865 87.2754 58.1657 88.8346 60.2089 90.1385C63.8248 92.1145 65.5319 90.9047 66.325 87.0469C66.3653 86.6839 66.7148 86.4151 67.0778 86.4958C67.3735 86.5496 67.5751 86.805 67.5751 87.0872C67.602 87.961 67.4945 88.7809 67.2391 89.6143C65.8008 94.1308 61.4456 93.2974 58.3002 91.0257C48.2725 85.2053 53.6358 74.8013 59.2008 67.8518C63.0989 62.9051 67.5885 58.523 72.2529 54.3694C74.5784 52.3128 77.3071 50.3234 80.4928 49.7186C83.6383 49.033 87.0122 49.5707 89.7006 51.2778C89.8754 51.3988 89.7006 51.6542 89.5259 51.5466L89.5124 51.5466Z" fill="black"/>
<path d="M79.162 119.254C74.8337 116.202 71.2581 111.189 71.2043 105.731C71.2043 105.543 71.3522 105.409 71.5404 105.409C71.7017 105.409 71.8227 105.516 71.863 105.664C72.5217 108.151 73.6105 110.422 74.9681 112.6C76.3392 114.751 77.885 116.807 79.4846 118.891C79.6728 119.092 79.3905 119.415 79.162 119.254Z" fill="black"/>
<path d="M76.0971 76.1459C69.5912 86.3618 71.4058 94.5345 82.7643 99.4409C83.1003 99.5753 82.8987 100.126 82.5492 99.992C74.6184 97.7337 68.4217 90.9052 71.7553 82.3695C72.6694 79.9365 74.0405 77.7321 75.8148 75.9039C75.9627 75.7561 76.218 75.9577 76.0836 76.1324L76.0971 76.1459Z" fill="black"/>
<path d="M96.3007 73.6863C96.6367 76.2671 95.8437 78.9555 94.4995 81.1735C92.4966 84.4533 89.2168 85.7841 91.8379 90.0855C93.7333 93.0293 97.1744 95.6237 100.871 95.2607C100.925 95.2473 100.952 95.3413 100.898 95.3547C95.9108 96.6586 89.5125 92.2363 89.0286 87.0073C88.7463 83.9291 91.7304 82.4505 93.3569 80.3804C94.8355 78.4851 96.005 76.2268 96.3141 73.6863L96.3007 73.6863Z" fill="black"/>
<path d="M83.6649 94.7363C87.8185 100.14 95.0503 100.785 101.368 100.274C101.623 100.247 101.704 100.637 101.462 100.705C95.1309 103.057 86.3937 101.498 83.3154 94.9245C83.2079 94.696 83.5574 94.5212 83.6784 94.7363L83.6649 94.7363Z" fill="black"/>
<path d="M118.924 115.007C113.076 113.501 98.9622 109.617 102.35 101.256C102.981 100.059 103.734 98.9167 104.769 98.1774C106.086 97.8145 107.458 97.2634 108.708 96.5913C112.498 94.6019 114.837 90.9725 115.697 86.8324C115.724 86.7114 115.845 86.6308 115.966 86.6576C117.122 91.2414 113.802 96.309 109.702 98.4059C108.318 99.1587 106.893 99.6963 105.266 99.9786L105.764 99.7232C98.1557 107.385 113.789 111.754 119.313 113.165C120.523 113.407 120.133 115.276 118.91 115.007L118.924 115.007Z" fill="black"/>
<path d="M114.42 91.3619C118.009 89.3591 122.001 87.9611 125.08 85.1383C127.97 82.7859 129.825 79.1163 133.467 77.7452C134.032 77.5705 134.556 77.3957 135.296 77.5974C135.739 77.7587 135.484 78.3769 135.054 78.2156C132.096 78.4576 130.147 81.7509 128.373 83.8882C126.383 86.5094 123.695 88.5526 120.886 90.2059C119.81 90.7705 114.568 93.9563 114.071 92.0609C114.044 91.7652 114.192 91.5098 114.42 91.3754L114.42 91.3619Z" fill="black"/>
<path d="M40.4355 111.472C43.9573 112.225 48.0168 112.184 50.9068 109.697C51.1084 109.536 51.3772 109.832 51.2025 110.02C48.5007 113.112 43.9035 114.187 39.965 113.286C38.8359 112.937 39.2795 111.216 40.4355 111.472Z" fill="black"/>
<path d="M57.3053 107.896C59.3619 109.71 61.5933 110.625 64.2951 110.961C64.4833 110.987 64.6177 111.176 64.5908 111.364C64.564 111.498 64.4699 111.606 64.3489 111.646C63.6499 111.861 62.8972 111.969 62.1578 111.861C59.9668 111.606 57.9236 110.073 57.0499 108.084C56.9692 107.923 57.1978 107.775 57.3187 107.909L57.3053 107.896Z" fill="black"/>
<path d="M121.343 113.837C121.343 113.837 132.97 111.081 124.918 101.067C124.918 101.067 128.534 93.5528 137.272 97.9484C146.009 102.344 146.009 90.1251 146.009 90.1251" stroke="black" stroke-width="1.4" stroke-linecap="round" stroke-linejoin="round"/>
<path d="M133.898 81.644C139.315 86.0127 150.203 94.8306 155.028 85.4615C155.593 84.413 157.219 85.2196 156.709 86.3084C153.012 94.9112 143.764 91.5373 138.32 86.8461C137.823 86.4697 131.599 81.1198 133.898 81.644Z" fill="black"/>
<path d="M145.001 79.2372C150.647 83.0144 157.932 87.4906 164.532 83.6865C169.102 80.9309 173.458 77.2881 173.646 71.6963C173.753 69.9488 173.552 68.1476 173.269 66.3329C173.189 65.8221 173.538 65.3382 174.049 65.2576C174.546 65.1769 175.003 65.4995 175.111 65.9834C175.514 67.8519 175.796 69.7875 175.729 71.7769C175.81 78.014 170.581 82.8531 165.661 85.6087C162.113 87.6922 157.663 87.6922 153.913 86.3077C150.243 84.9904 147.017 82.6783 144.503 79.7211C144.235 79.4119 144.678 78.9549 144.987 79.2237L145.001 79.2372Z" fill="black"/>
<path d="M191.94 69.4648C191.94 69.4648 181.711 69.4648 178.888 74.6265C176.065 79.7882 174.869 83.4848 169.129 81.8718" stroke="black" stroke-width="1.4" stroke-linecap="round" stroke-linejoin="round"/>
<path d="M180.528 72.6919C180.528 72.6919 184.05 78.3913 194.4 80.7302C204.737 83.0825 202.815 87.868 202.815 87.868C202.815 87.868 206.619 83.0826 208.971 83.5531C211.324 84.0235 209.455 76.8993 210.383 74.1168C211.31 71.3343 215.544 68.5115 226.822 71.8048C238.1 75.0981 243.248 56.6288 239.968 51.0504C236.689 45.472 231.513 44.5445 224.94 44.074C218.367 43.6035 216.015 37.0304 216.015 37.0304" stroke="black" stroke-width="1.4" stroke-linecap="round" stroke-linejoin="round"/>
<path d="M210.167 81.8998C210.167 81.8998 209.428 90.1396 216.956 93.4195C224.483 96.6993 222.601 92.0081 222.601 92.0081" stroke="black" stroke-width="1.4" stroke-linecap="round" stroke-linejoin="round"/>
<path d="M222.642 93.8757C222.642 93.8757 229.188 102.358 235.291 103.756" stroke="black" stroke-width="1.4" stroke-linecap="round" stroke-linejoin="round"/>
<path d="M240.909 54.5314C240.909 54.5314 243.275 61.4675 242.804 67.0997C242.334 72.7319 250.789 78.3775 237.159 92.9486C237.159 92.9486 228.704 114.093 249.848 113.152" stroke="black" stroke-width="1.4" stroke-linecap="round" stroke-linejoin="round"/>
<path d="M265.36 81.8997C265.36 81.8997 243.49 84.9644 242.684 95.7717" stroke="black" stroke-width="1.4" stroke-linecap="round" stroke-linejoin="round"/>
<path d="M262.672 87.8678C262.672 87.8678 252.2 88.6877 249.861 93.8763C247.523 99.0649 247.509 102.358 248.45 107.049C249.391 111.741 254.66 116.768 259.54 116.849C264.419 116.929 271.732 117.655 276.53 112.359" stroke="black" stroke-width="1.4" stroke-linecap="round" stroke-linejoin="round"/>
<path d="M270.307 116.122C270.307 116.122 268.21 120.88 272.189 123.596" stroke="black" stroke-width="1.4" stroke-linecap="round" stroke-linejoin="round"/>
<path d="M219.725 94.3995C219.725 94.3995 212.265 88.7269 226.836 81.1994C241.407 73.6719 240.963 77.0996 240.963 77.0996" stroke="black" stroke-width="1.4" stroke-linecap="round" stroke-linejoin="round"/>
<path d="M238.369 85.3402C238.369 85.3402 233.046 89.5072 228.301 89.5878" stroke="black" stroke-width="1.4" stroke-linecap="round" stroke-linejoin="round"/>
<path d="M255.211 63.8732C255.211 63.8732 263.021 61.9241 258.787 69.9221C254.553 77.9201 248.921 76.9657 248.921 76.9657" stroke="black" stroke-width="1.4" stroke-linecap="round" stroke-linejoin="round"/>
<path d="M233.785 63.6718C233.785 63.6718 232.938 65.7014 230.115 67.5699" stroke="black" stroke-width="1.4" stroke-linecap="round" stroke-linejoin="round"/>
<path d="M216.485 31.8544C216.485 31.8544 219.308 37.0295 229.174 35.6181" stroke="black" stroke-width="1.4" stroke-linecap="round" stroke-linejoin="round"/>
<path d="M195.22 48.0797C195.22 48.0797 201.538 50.6605 202.909 44.5444C204.28 38.4283 200.516 37.0304 209.442 33.2666" stroke="black" stroke-width="1.4" stroke-linecap="round" stroke-linejoin="round"/>
<path d="M98.841 84.1304C99.6475 85.7838 100.562 87.6387 102.282 88.042C103.357 88.0823 104.527 87.9076 105.562 87.6791C108.318 87.1549 110.361 84.8293 110.724 82.0737C110.764 81.9259 110.683 81.7378 110.791 81.8184C110.616 81.7378 110.536 81.5226 110.63 81.3613C111.033 80.7833 111.557 81.563 111.584 82.02C111.92 85.4611 109.339 88.6738 105.952 89.2652C104.634 89.5206 103.317 89.6954 102.013 89.4937C100.588 89.1577 99.5937 87.8941 99.0426 86.6978C98.6797 85.9181 98.3974 85.1385 98.2495 84.2917C98.2226 84.1169 98.3302 83.9422 98.5184 83.9154C98.6797 83.8885 98.8275 83.9825 98.8813 84.1169L98.841 84.1304Z" fill="black"/>
<path d="M86.9048 111.189C87.9533 112.87 89.0824 114.792 90.4131 116.23C90.8567 116.741 91.3406 117.185 91.8783 117.601C92.0127 117.709 92.0396 117.897 91.9321 118.031C91.8514 118.139 91.7305 118.166 91.6095 118.139C89.4319 117.453 88.0474 115.397 87.1064 113.461C86.7973 112.802 86.5284 112.13 86.3537 111.418C86.3133 111.257 86.4074 111.095 86.5688 111.055C86.7032 111.028 86.8376 111.082 86.9048 111.203L86.9048 111.189Z" fill="black"/>
<path d="M81.4202 114.335C83.5844 116.392 86.1518 118.354 89.1897 118.771C89.351 118.784 89.472 118.946 89.4585 119.107C89.4316 119.255 89.3107 119.362 89.1628 119.362C87.5094 119.362 85.9367 118.717 84.5522 117.924C83.1946 117.05 81.931 116.056 80.8825 114.832C80.7481 114.684 80.775 114.443 80.9229 114.322C81.0707 114.187 81.2992 114.214 81.4337 114.348L81.4202 114.335Z" fill="black"/>
<path d="M75.6538 124.093C79.1352 128.395 79.5923 134.363 78.5975 139.632C78.1943 143.342 75.3446 146.152 72.0782 147.576C64.4835 150.695 56.2705 147.052 49.6839 143.315C37.156 135.532 45.1136 124.658 54.6574 118.824C54.98 118.636 55.2757 119.106 54.9666 119.308C46.9552 125.007 38.8496 135.062 50.5979 141.85C57.1845 145.426 65.7605 149.042 72.7772 144.915C74.1348 144.001 75.5059 142.657 76.2049 141.245L76.1646 141.366C76.3393 140.667 76.5275 139.968 76.6754 139.256C77.6432 134.336 77.3878 129 75.1967 124.429C75.0085 124.147 75.4387 123.838 75.6403 124.093L75.6538 124.093Z" fill="black"/>
<path d="M83.907 137.307C92.2814 128.663 102.618 121.606 114.125 117.91C114.609 117.749 114.891 118.501 114.407 118.689C103.492 123.448 93.5449 130.196 84.4312 137.831C84.1086 138.14 83.5844 137.643 83.907 137.307Z" fill="black"/>
<path d="M68.3412 251.335C68.3412 251.335 60.9212 253.217 57.1709 256.51C53.4206 259.804 36.7525 252.048 39.9114 243.472" stroke="black" stroke-width="1.4" stroke-linecap="round" stroke-linejoin="round"/>
<path d="M57.2377 262.491C62.4801 264.212 66.7815 269.159 67.131 274.804C67.3057 275.907 67.0504 277.479 66.9025 278.609C66.674 279.24 66.3111 280.705 66.0691 281.31C65.8272 281.848 65.1013 283.259 64.8459 283.811C64.1603 284.886 63.4614 285.961 62.7086 286.983C57.9233 291.136 52.2507 295.76 45.4625 294.887C43.1371 294.51 41.1342 292.897 39.9379 290.948C39.6556 290.518 39.7766 289.927 40.2067 289.644C40.6369 289.362 41.2149 289.483 41.5106 289.913C42.5994 291.432 44.078 292.548 45.8389 292.776C51.6055 293.247 56.9151 288.905 61.0284 285.249C61.5392 284.415 62.9774 282.601 63.5689 281.149L63.9453 280.41C64.1603 279.899 64.5098 278.635 64.698 278.098L64.9131 276.511C65.276 273.272 63.9184 270.167 61.8618 267.613C60.4907 265.879 58.8642 264.252 57.0898 262.72C56.9689 262.626 57.0899 262.411 57.2243 262.478L57.2377 262.491Z" fill="black"/>
<path d="M45.1808 270.786C46.7401 267.547 57.2383 262.062 49.2672 269.227C48.864 269.63 44.8179 272.601 45.1808 270.786Z" fill="black"/>
<path d="M60.5177 258.216C64.8729 258.969 67.8974 263.983 66.3112 268.163C66.244 268.405 65.8676 268.352 65.8676 268.11C65.6391 264.104 63.6228 260.972 60.3833 258.552C60.222 258.445 60.3296 258.176 60.5177 258.216Z" fill="black"/>
<path d="M64.7118 288.381C66.8491 288.798 68.4218 290.559 69.2015 292.494C69.3359 292.83 68.8923 293.126 68.6235 292.884C67.1717 291.513 65.7334 290.424 64.3892 288.959C64.1742 288.731 64.3892 288.327 64.7118 288.381Z" fill="black"/>
<path d="M46.9683 245.044C49.8046 246.2 52.6946 247.706 55.7459 247.262C58.5553 246.577 61.7545 244.924 64.2413 243.297C64.4563 243.082 64.8058 243.405 64.6042 243.633C62.9105 245.582 60.7463 246.832 58.5284 248.015C56.2567 249.359 53.1785 249.373 50.7858 248.405C49.1728 247.746 47.7211 246.778 46.6726 245.394C46.5247 245.206 46.7532 244.923 46.9683 245.044Z" fill="black"/>
<path d="M52.4528 240.245C53.9852 239.775 56.23 239.17 57.7087 238.673C58.9991 238.162 60.9885 237.57 61.0826 236.119C61.1498 235.608 61.6202 235.258 62.131 235.326C63.0989 235.46 62.9913 236.562 62.8435 237.288C62.5746 238.202 61.8891 238.915 61.1229 239.439C58.4883 240.985 55.4235 241.227 52.4797 240.81C52.1974 240.77 52.1706 240.326 52.4528 240.259L52.4528 240.245Z" fill="black"/>
<path d="M55.8669 232.167C60.37 234.385 65.6124 235.649 70.3977 233.552C70.8951 233.323 71.4999 233.565 71.6747 234.09C71.836 234.547 71.6209 235.044 71.1908 235.259C66.15 237.894 59.3484 236.845 55.383 232.772C55.0738 232.463 55.4905 231.939 55.8669 232.167Z" fill="black"/>
<path d="M58.878 270.517C62.3998 276.983 58.7705 286.083 52.157 288.96C51.821 289.135 51.5252 288.637 51.8344 288.422C57.9908 283.798 57.8564 277.655 58.2731 270.679C58.2866 270.383 58.7167 270.262 58.878 270.517Z" fill="black"/>
<path d="M34.7631 232.53C35.4083 234.977 34.5615 238.216 35.9863 240.259C36.5374 240.77 37.4784 240.501 38.2042 240.286C38.5 240.179 38.7285 240.582 38.4865 240.77C33.3517 244.695 32.2898 235.487 34.1313 232.436C34.2657 232.154 34.7093 232.221 34.7496 232.53L34.7631 232.53Z" fill="black"/>
<path d="M64.6715 224.277C64.3489 226.199 63.3408 228.525 63.7037 230.245C63.8381 230.648 64.5774 230.675 65.0748 230.823C65.3705 230.863 65.478 231.253 65.2361 231.442C64.4161 232.127 63.0988 232.369 62.2385 231.361C61.0556 229.64 62.0235 227.624 62.7897 226.024C63.0182 225.648 64.4565 223.013 64.6715 224.277Z" fill="black"/>
<path d="M247.066 431.524C228.072 434.845 140.296 447.668 138.791 468.477C138.817 468.866 138.132 468.893 138.159 468.477C139.288 449.846 201.632 438.609 217.735 435.544C227.467 433.864 237.213 432.291 247.012 431.162C247.24 431.135 247.308 431.511 247.066 431.538L247.066 431.524Z" fill="black"/>
<path d="M78.5167 454.565C88.0874 456.379 97.5237 459.068 106.422 463.074C109.353 464.472 112.296 466.017 114.716 468.276C114.81 468.356 114.81 468.504 114.716 468.598C114.635 468.679 114.514 468.692 114.434 468.639C113.735 468.222 113.076 467.765 112.391 467.348C101.865 461.877 89.6601 458.718 78.3823 455.076C78.0732 454.995 78.1807 454.484 78.5033 454.551L78.5167 454.565Z" fill="black"/>
<path d="M24.1978 169.393C24.9371 169.151 25.7974 169.756 26.12 170.751C26.2679 171.208 26.5099 172.606 25.3673 172.969" stroke="black" stroke-width="0.7" stroke-linecap="round" stroke-linejoin="round"/>
<path d="M27.5581 174.259C28.3377 174.259 28.9695 175.106 28.9695 176.141C28.9695 177.176 28.3377 178.023 27.5581 178.023" stroke="black" stroke-width="0.7" stroke-linecap="round" stroke-linejoin="round"/>
<path d="M28.9697 180.833C29.7493 180.833 30.3811 181.68 30.3811 182.715C30.3811 183.75 29.7493 184.597 28.9697 184.597" stroke="black" stroke-width="0.7" stroke-linecap="round" stroke-linejoin="round"/>
<path d="M29.44 187.889C30.2196 187.889 30.8514 188.736 30.8514 189.771C30.8514 190.806 30.2196 191.653 29.44 191.653" stroke="black" stroke-width="0.7" stroke-linecap="round" stroke-linejoin="round"/>
<path d="M28.9697 194.463C29.7493 194.463 30.3811 195.309 30.3811 196.344C30.3811 197.38 29.7493 198.226 28.9697 198.226" stroke="black" stroke-width="0.7" stroke-linecap="round" stroke-linejoin="round"/>
<path d="M28.2841 200.968C29.0502 201.075 29.5745 201.99 29.4266 203.025C29.2788 204.06 28.5529 204.799 27.7733 204.705" stroke="black" stroke-width="0.7" stroke-linecap="round" stroke-linejoin="round"/>
<path d="M26.8189 206.573C27.5448 206.842 27.854 207.85 27.491 208.818C27.1281 209.786 26.2544 210.364 25.5151 210.095" stroke="black" stroke-width="0.7" stroke-linecap="round" stroke-linejoin="round"/>
<path d="M23.566 210.713C24.0365 211.062 24.0096 211.923 23.4988 212.608C22.988 213.294 22.1815 213.563 21.6976 213.213" stroke="black" stroke-width="0.56" stroke-linecap="round" stroke-linejoin="round"/>
</svg>
