<svg width="426" height="639" viewBox="0 0 426 639" fill="none" xmlns="http://www.w3.org/2000/svg">
<rect width="426" height="639" fill="#38888D"/>
<path d="M135.172 339.273L132.539 338.929L130.099 334.423L127.922 329.471L126.119 327.78L121.441 326.525L118.586 322.475L119.578 317.503L116.318 315.893L115.052 314.06L112.186 313.928L109.614 310.982L109.199 306.608L108.409 305.271H105.361L102.212 303.438L101.321 301.656L97.7368 299.287L94.7699 293.586L94.78 289.627L96.2483 285.009L94.4661 278.134V270.965L96.4508 265.041L94.4661 259.442L91.5904 247.655L88.9172 240.841L102.384 234.198L123.152 231.464L129.44 230.442L130.099 249.873L124.347 250.632L125.674 251.199L126.342 256.809L129.997 292.037L132.255 320.125L135.172 339.273Z" fill="#9AC2CC"/>
<path d="M84.8972 237.803L80.4216 236.254L76.908 230.583L74.0627 222.523L69.3339 216.62L67.6024 212.671L68.0885 207.81L66.276 207.152L64.5242 201.806L63.3293 195.548L65.0811 187.427L67.3594 182.587L68.0986 179.793L68.0885 175.357L70.1946 172.846L68.1189 168.421L67.9062 162.913L69.4453 158.842L71.6629 156.088L71.116 152.099L70.4376 143.117L69.9212 140.424L66.4886 138.105L65.0811 131.138L66.3569 128.131L67.3695 129.265L68.3112 129.994L70.7617 129.873L74.9233 128.131L80.4115 123.24L84.8972 117.226L84.9174 113.044L85.8895 109.327L89.2918 104.902L92.0359 100.883L93.7977 98.9182H96.1469L97.9898 98.9992L100.136 97.4904L101.139 94.8173L102.354 90.9999L104.855 88.0735L109.027 85.9167L111.994 83.7397L113.928 80.3881L116.996 75.5277L124.145 71.5483L130.99 68.3688L138.938 66.1108L142.938 64.8349L145.348 64.035L147.788 61.1086L150.927 59.1038L155.777 57.3013L160.648 56.4204L163.443 56.6229L166.288 53.1498L169.751 51.0943L173.548 50.0513L177.467 50.669L179.583 51.7322L180.211 50.0513L181.011 47.5705L183.269 48.4514L186.762 48.0059L190.326 44.7252L193.85 42.2545L197.83 41.3736H199.997L203.105 36.5233L205.799 33.1717L208.371 32.3009L211.996 31.6326L215.935 30.7821L220.704 29.8809L227.306 30.6909L230.151 32.5135L236.216 37.8295L242.98 41.3432L248.509 41.4343L252.914 42.6798L256.681 45.6567L259.809 47.125L265.743 46.7807L271.758 47.5705L273.53 49.7779L273.732 54.4966L276.537 57.5646L284 60.5214L296.546 65.2704L300.616 69.9079L302.52 75.548L304.251 76.7226L307.917 78.13L312.352 86.099L314.448 92.2757L316.311 94.0579L318.954 95.0603L324.452 96.9943L329.059 101.885L330.943 106.918L331.449 112.78L329.9 117.357L327.723 119.747L326.649 120.608L328.148 123.757L329.262 130.43L331.074 135.665L328.948 140.778L327.095 143.623L329.232 145.051L274.411 140.97L204.918 135.857L181.983 134.966L176.383 136.92L141.257 144.96L137.693 146.226L138.503 161.08L136.295 160.007L135.415 162.224L130.595 166.72L121.249 167.095L123.456 169.434L124.793 173.292L123.983 175.439L119.477 173.292L116.824 169.748L112.632 170.588L110.181 172.401L112.439 174.912L112.389 177.271L108.824 176.988L103.539 171.955L99.1745 169.576L93.4231 170.781L88.0463 174.173L85.12 177.504L81.5152 183.863L78.8825 190.83L76.4726 196.905L75.6524 208.408L76.0878 216.671L79.1964 226.887L83.2062 233.854L84.8972 237.803Z" fill="#9AC2CC"/>
<path d="M179.289 135.594L181.841 133.325L183.664 130.794L182.742 127.25L181.284 124.688L180.96 123.26L182.499 121.478L185.466 119.848L188.878 119.372L191.288 120.445L193.962 121.569L197.83 121.499L199.156 119.372L199.602 116.183L200.482 114.026L204.108 113.985L205.981 113.53L208.654 111.393L209.778 108.851L212.117 109.824L216.076 109.429L219.326 107.859L222.415 105.277L223.286 105.743H224.906L227.265 105.277L228.754 103.708L231.477 98.9181L232.733 97.3385L234.11 98.422L243.193 103.87L251.476 106.685L253.784 109.034L254.2 111.17L256.296 109.003L258.989 107.363L260.923 107.525L263.09 113.287L267.069 117.053H269.783L272.841 117.549L274.694 119.392L280.921 125.073L284.911 126.359L286.369 130.683L289.933 134.176L293.093 134.449L297.224 135.249L299.938 134.449L302.236 136.829L306.934 138.753H312.008L317.354 138.074V140.545L317.739 143.35L318.245 144.96L299.209 143.188L188.159 134.51L181.983 134.966L179.289 135.594Z" fill="#D9DADD"/>
<path d="M189.071 131.432C189.071 131.432 182.469 125.681 187.269 124.698C192.068 123.716 197.465 125.741 199.642 123.838C201.819 121.934 202.609 117.924 205.09 117.053C207.571 116.183 212.745 113.631 216.36 114.026C219.975 114.421 236.966 112.963 238.647 109.044C240.327 105.125 254.2 111.181 254.2 111.181L243.871 105.125L223.954 108.224L209.343 110.441L205.799 113.985L200.493 114.046L200.047 117.529L196.949 121.954L189.871 119.301L183.228 121.073L180.575 123.726L189.081 131.442L189.071 131.432Z" fill="#C4C5C6"/>
<path d="M89.2715 479.444L83.3885 469.237L81.8899 462.362L82.2949 456.337L85.5757 452.276L94.4357 446.424L103.215 440.601L128.964 424.147L134.443 418.305L138.341 412.189L141.308 405.425L143.778 395.613L144.406 388.018V380.06L142.381 372.87L139.303 359.687L134.25 333.917L131.476 312.298L129.218 283.116L126.96 261.983L125.674 251.199L129.218 249.427L128.934 232.173L129.44 230.442L134.362 228.011L144.71 221.774L155.696 216.519L165.437 213.157L186.539 208.56L210.608 204.854L237.634 201.695L249.461 198.829L254.493 195.862L258.453 193.179L261.328 193.27L262.746 194.931L264.234 198.08L264.346 202.302L266.016 203.932L270.968 205.563L285.428 211.284L293.245 214.564L297.994 216.822L300.971 220.66L300.515 224.66L299.391 233.894L298.318 235.616L296.434 243.22L292.941 258.034L290.045 270.681L287.088 281.303L283.605 290.568L279.514 298.638L273.084 306.476L273.834 309.382L277.226 321.664L282.532 341.804L287.605 361.529L293.022 363.342L308.19 365.397L335.378 364.861L348.227 363.291L362.029 360.628L372.337 358.016L377.825 357.935L381.875 360.041L384.629 364.152V374.095L381.237 388.758L375.466 399.947L367.912 411.318L359.032 422.517L342.77 438.06L327.044 450.94L308.129 464.448L291.159 474.745L279.251 480.699L268.153 485.236L245.137 495.807L232.348 501.933L217.869 508.687L205.343 512.322L186.509 516.059L166.349 517.031L154.795 514.367L138.979 508.778L117.927 502.379L111.619 500.779L104.602 496.688L93.7674 485.945L89.2715 479.444Z" fill="#D9DADD"/>
<path d="M223.944 264.039H223.509L223.873 263.229L230.586 261.072L237.664 260.282L243.659 261.163L247.213 262.328L252.357 261.902L256.711 261.821L261.966 263.937L263.991 267.249L264.234 269.355L263.789 270.681H260.69L257.592 270.236L253.612 269.355L250.068 268.909H243.426L238.555 268.464L234.576 267.583L229.26 266.256L224.835 264.484L223.944 264.039Z" fill="#D9DADD"/>
<path d="M383.414 379.29C381.622 387.978 378.078 398.215 374.463 407.905C364.722 434.02 356.318 432.693 330.639 461.471C304.96 490.248 238.12 521.678 201.374 529.202C164.627 536.725 138.068 534.072 111.953 521.233C85.8389 508.393 82.2949 465.896 82.2949 465.896C82.2949 465.896 94.6888 496.88 115.052 501.751C135.415 506.621 158.43 516.362 165.073 516.798C171.715 517.233 201.819 517.679 231.032 502.632C260.245 487.585 282.126 480.517 290.004 475.424C297.811 470.361 372.641 429.919 383.414 379.29Z" fill="#5A5B5B"/>
<path d="M87.2869 239.332L83.2062 233.854L81.2621 230.036L81.0596 184.653L85.839 176.491L91.2765 172.067L96.0153 169.535L100.167 170.031L105.949 174.082L108.824 176.988L111.953 177.271L112.682 175.641L111.67 173.98L110.181 172.401L112.206 170.862L114.606 169.839L117.026 170.112L120.013 173.393L122.443 175.742L124.418 175.357L125.177 173.525L123.952 170.811L122.049 167.814L126.281 167.773L130.595 166.72L133.572 164.756L136.741 161.08L137.693 155.653V146.226L147.515 143.117L161.073 139.836L175.026 136.92L333.292 194.414L326.204 196.308L323.166 197.239V202.92L319.227 211.992L312.19 220.518L305.74 224.741L304.18 228.994L302.591 231.991L300.09 234.38L299.897 229.682L300.971 220.66L295.837 215.567L282.035 210.16L272.537 205.988L265.277 203.71L263.809 200.074L262.746 194.931L259.809 192.764L256.589 194.414L251.84 197.634L247.294 199.355L237.634 201.694L227.488 202.788L214.588 204.196L195.592 207.142L178.277 209.825L162.238 214.18L144.71 221.774L134.362 228.011L128.6 230.583L123.152 231.464L122.514 235.433L121.249 240.577L116.287 243.909L107.559 245.691L99.0935 245.215L92.9168 243.676L87.2869 239.332Z" fill="#24596B"/>
<path d="M94.2432 208.408C94.2432 221.531 90.0613 232.558 84.9478 232.163C79.1964 231.717 76.594 222.301 75.6523 208.408C74.7714 195.427 79.814 184.653 84.9478 184.653C90.0816 184.653 94.2432 195.285 94.2432 208.408Z" fill="#9AC2CC"/>
<path d="M87.6008 207.821C88.0463 217.956 85.6161 226.411 82.0721 226.411C78.5281 226.411 75.6523 218.189 75.6523 208.043C75.6523 197.897 77.4446 188.794 80.9684 189.23C84.4921 189.665 87.1654 197.644 87.6109 207.821H87.6008Z" fill="#9AC2CC"/>
<path d="M328.006 194.394L189.527 186.496C177.963 185.838 168.941 176.249 168.992 164.665L169.042 152.089C169.083 141.781 177.892 133.69 188.16 134.51L327.622 145.719C337.849 146.54 345.757 155.035 345.848 165.292L345.959 177.271C346.05 187.093 337.818 194.941 328.006 194.384V194.394Z" fill="#14303F"/>
<path d="M328.452 190.961L190.691 182.364C181.051 181.767 173.538 173.768 173.538 164.108V150.975C173.538 142.742 180.586 136.272 188.787 136.971L327.824 148.899C336.907 149.679 343.873 157.273 343.873 166.386V176.471C343.873 184.855 336.806 191.488 328.442 190.971L328.452 190.961Z" fill="#214859"/>
<path d="M248.438 231.93C249.056 231.657 249.076 230.847 248.469 230.553C245.117 228.892 236.52 225.45 234.353 231.96C232.551 237.378 244.175 233.803 248.428 231.93H248.438Z" fill="#565656"/>
<path d="M99.1137 197.634C99.1137 197.634 97.9594 189.392 105.402 197.057C105.402 197.057 102.931 192.379 104.349 188.592L100.177 189.209L98.2227 191.305L99.1239 197.644L99.1137 197.634Z" fill="#9AC2CC"/>
<path d="M92.9977 178.243C92.9977 178.243 95.7723 182.577 101.21 182.142C101.21 182.142 100.714 186.182 104.339 188.582C104.339 188.582 102.141 190.546 103.286 194.536C103.286 194.536 99.6909 188.339 99.1745 194.536C98.6581 200.733 98.6581 193.543 98.6581 193.543L97.3316 187.002L95.1141 183.023L92.9775 178.243H92.9977Z" fill="#EBECF0"/>
<path d="M235.011 278.65C235.011 278.65 252.276 265.811 256.255 278.65L252.276 276.878L245.36 276.271L240.773 276.433L235.022 278.65H235.011Z" fill="#214859"/>
<path d="M132.539 270.276C132.539 270.276 146.037 287.935 156.669 289.707C167.301 291.479 182.783 288.057 197.394 295.965C212.006 303.873 212.006 309.716 228.825 309.453C245.644 309.189 219.337 318.11 219.337 318.11L183.492 312.349L150.907 297.241L142.168 288.665L134.078 276.605L132.529 270.286L132.539 270.276Z" fill="#CCCDCE"/>
<path d="M134.088 274.215C134.088 274.215 146.036 294.133 162.42 299.449C178.803 304.765 191.987 302.101 201.991 306.972C211.996 311.842 234.9 314.05 237.168 300.552C239.436 287.055 261.359 286.771 258.371 308.602C255.384 330.433 287.088 281.303 287.088 281.303L281.033 296.087L273.084 306.476L267.211 314.202L260.022 317.847L246.96 323.801C246.96 323.801 242.535 332.641 230.576 336.195L226.151 333.096L220.835 331.324L214.152 330.19L207.115 331.324L199.146 333.977L196.493 335.304C196.493 335.304 200.472 327.335 207.56 324.682C207.56 324.682 179.299 317.604 159.787 306.972L154.441 303.874L149.125 299.003L142.047 290.153L137.055 281.182L134.078 274.215H134.088Z" fill="#C4C5C6"/>
<path d="M109.25 309.382C109.25 309.382 115.487 304.653 119.031 300.056L114.606 302.993L109.25 304.714L109.422 307.802L109.25 309.382Z" fill="#14303F"/>
<path d="M100.693 262.449C100.693 262.449 103.245 256.343 108.257 249.124L101.767 256.07L100.693 258.814V262.439V262.449Z" fill="#14303F"/>
<path d="M119.477 272.008C119.477 272.008 123.021 276.099 125.228 280.25V277.06L122.616 273.79L119.477 272.008Z" fill="#14303F"/>
<path d="M95.256 281.192C95.256 281.192 98.6683 286.174 102.202 287.5L101.878 288.654L99.0835 287.703L96.2382 284.999L95.2458 281.182L95.256 281.192Z" fill="#14303F"/>
<path d="M120.277 318.11L117.249 316.348L115.052 314.06L123.456 312.733L128.772 314.06L131.425 316.713L132.255 320.125L129.218 317.725L124.347 317.604L120.277 318.11Z" fill="#214859"/>
<path d="M119.375 318.505L120.196 325.057L125.228 328.398L128.934 330.423L130.787 334.301L132.539 338.929L134.493 339.273L134.524 336.64L133.197 327.78L131.617 319.619L129.218 317.726L125.228 317.624L121.208 317.756L119.375 318.505Z" fill="#5891A0"/>
<path d="M130.787 319.7C130.787 319.7 132.407 323.264 127.273 328.408L129.076 328.276L127.932 329.471L129.947 332.509L131.445 338.412L134.513 339.273L135.192 336.863L132.67 321.492L130.797 319.69L130.787 319.7Z" fill="#214859"/>
<path d="M119.274 318.92C119.274 318.92 124.712 323.173 130.949 322.161L132.266 320.125L129.714 318.11H125.451L121.664 317.807L119.588 317.503L119.274 318.92Z" fill="#4B808C"/>
<path d="M131.891 315.518L131.223 309.959C131.223 309.959 121.785 301.929 116.429 307.772C111.072 313.614 109.25 309.382 109.25 309.382L110.505 312.733L114.14 314.171L119.922 313.23H125.765L131.891 315.518Z" fill="#BCD9DD"/>
<path d="M123.79 300.552C123.79 300.552 128.772 299.935 129.653 290.173L130.777 298.983L131.212 304.714L131.06 306.972L127.263 303.479L123.79 300.552Z" fill="#214859"/>
<path d="M116.429 275.987L107.326 282.711L102.212 287.5L99.9339 287.996L96.0153 285.759L94.7698 288.371L95.5697 296.35L98.7391 300.36L102.212 301.788L110.981 302.436L122.859 288.655L121.32 279.025L116.429 275.987Z" fill="#D9DADD"/>
<path d="M88.9172 240.841L92.0258 246.774L93.5649 255.746L95.1749 263.887L96.2483 265.649L99.5594 259.168L101.534 262.854L103.549 265.649L118.586 266.692L126.96 261.983L125.603 255.067L126.96 248.242L124.347 234.087L123.213 235.504L121.249 240.577L117.705 243.676L109.847 245.691H101.534L92.9169 243.676L88.9172 240.841Z" fill="#5891A0"/>
<path d="M116.429 275.987C116.429 275.987 117.695 292.219 104.197 297.16C104.197 297.16 101.807 297.687 97.1394 298.122L100.187 301.291L105.362 305.261L118.636 298.568L124.337 287.48L119.264 277.607L116.419 275.987H116.429Z" fill="#9AC2CC"/>
<path d="M116.429 275.987C116.429 275.987 119.031 282.498 119.031 289.424C119.031 296.35 113.28 299.661 113.28 299.661L111.953 300.552C111.953 300.552 109.209 300.775 107.711 300.552C106.212 300.329 101.331 301.656 101.331 301.656L102.212 303.438L107.083 305.645L113.28 303.843L119.031 300.066L123.223 295.196L124.955 290.821L125.329 286.741L123.659 281.526L116.429 275.997V275.987Z" fill="#4B808C"/>
<path d="M116.429 275.987C116.429 275.987 123.021 283.825 125.238 289.424V284.351L122.14 279.531L116.429 275.987Z" fill="#14303F"/>
<path d="M99.5594 259.168C99.5594 259.168 97.9697 268.555 101.868 272.716C105.766 276.878 107.903 276.2 108.824 281.192C108.824 281.192 99.3873 288.604 95.2661 281.192L94.2434 274.802L96.5014 264.464L99.5493 259.178L99.5594 259.168Z" fill="#BCD9DD"/>
<path d="M97.7874 291.044C97.7874 291.044 108.409 291.925 110.181 287.946C110.181 287.946 105.756 295.469 97.7874 291.044Z" fill="#9AC2CC"/>
<path d="M98.2229 268.018C98.2229 268.018 97.2407 277.303 102.385 279.521C102.385 279.521 93.3524 276.868 98.2229 268.018Z" fill="#24596B"/>
<path d="M104.48 270.965C104.48 270.965 109.381 275.106 113.33 274.225L104.48 270.965Z" fill="#24596B"/>
<path d="M101.858 264.454C101.858 264.454 103.974 253.549 107.083 250.379C110.191 247.21 100.693 258.814 100.693 258.814L101.858 264.454Z" fill="#14303F"/>
<path d="M126.342 256.809C126.342 256.809 119.659 268.423 101.858 264.464L107.083 268.16L111.953 270.286L116.429 270.975L121.37 267.492L127.233 265.375L126.96 261.993L126.342 256.819V256.809Z" fill="#214859"/>
<path d="M124.347 250.632C124.347 250.632 120.368 260.93 107.528 259.604L110.748 261.7L113.776 262.135L117.269 261.811L121.38 259.644L126.352 256.789L125.329 250.49L124.357 250.622L124.347 250.632Z" fill="#214859"/>
<path d="M117.705 248.546C117.705 248.546 118.677 251.847 113.766 255.067L119.477 253.943L121.289 251.807V249.842L117.705 248.546Z" fill="#214859"/>
<path d="M123.223 234.37V235.504L123.172 240.78L122.14 245.002L123.669 246.886C123.669 246.886 124.823 250.966 128.134 249.974L130.088 249.124L129.268 242.258L128.954 232.183L129.461 230.452L124.681 230.583L123.172 231.464L123.243 234.38L123.223 234.37Z" fill="#14303F"/>
<path d="M155.777 107.95C155.777 107.95 162.268 111.434 167.655 105.399L167.452 108.639L164.658 111.403L160.668 112.304L157.691 111.413L155.777 107.96V107.95Z" fill="#D9DADD"/>
<path d="M80.8468 139.259C80.8468 139.259 68.544 144.676 79.9557 158.204L80.8468 153.688L83.4086 146.995L86.3046 140.778L86.254 138.662L82.1226 138.905L80.8468 139.249V139.259Z" fill="#214859"/>
<path d="M105.959 164.756C105.959 164.756 94.709 162.67 96.9164 144.96C99.1238 127.25 126.119 132.12 129.663 139.644L125.177 137.386L119.477 135.857L112.895 136.91L107.123 140.94L102.445 147.42L100.167 154.286L101.321 159.997L105.949 164.746L105.959 164.756Z" fill="#D9DADD"/>
<path d="M65.0811 133.467C65.0811 133.467 77.9508 137.599 85.211 129.549C92.4711 121.499 108.632 109.925 108.632 109.925C108.632 109.925 105.138 109.53 104.339 106.219L103.063 103.951L103.984 99.3637L104.258 95.0704L105.311 91.4049L110.181 85.4307L104.855 88.0836L102.354 91.01L100.845 95.84L100.136 97.5005L97.9897 99.0093L93.8078 98.9283L91.3067 101.976L85.8996 109.338L85.13 111.413L84.9578 114.35L84.1782 118.38L80.4215 123.25L76.6446 127.088L70.7717 129.873L67.3796 129.265L66.367 128.141L65.0911 133.467H65.0811Z" fill="#EBECF0"/>
<path d="M80.8468 153.688C80.8468 153.688 75.551 140.839 84.8971 143.117L80.8468 153.688Z" fill="#14303F"/>
<path d="M244.347 84.6207C244.347 84.6207 243.223 92.0227 240.226 94.3617L243.76 94.0579C243.76 94.0579 252.276 92.7213 262.017 82.0994C262.017 82.0994 250.949 81.6539 246.079 78.5554H243.76L244.347 84.6207Z" fill="#24596B"/>
<path d="M180.96 123.26C180.96 123.26 192.068 135.219 202.255 135.219L189.061 134.581L181.244 135.219L178.834 134.996L182.54 132.505L183.218 128.88L182.469 126.187L180.96 123.26Z" fill="#858689"/>
<path d="M293.447 101.571C293.447 101.571 298.946 101.683 300.839 100.518C302.733 99.3537 306.277 96.2552 306.277 96.2552L307.907 92.2757L308.049 89.7038L304.97 88.6001L303.239 89.1267L301.518 92.2757L298.277 95.0907L293.427 96.2653V101.571H293.447Z" fill="#24596B"/>
<path d="M204.442 89.6227C204.442 89.6227 211.084 98.4118 217.291 97.3385L222.273 93.5312L220.329 93.2578L214.922 94.3717L210.872 93.5312L206.679 91.8402L204.442 89.6227Z" fill="#14303F"/>
<path d="M209.778 98.6346C209.778 98.6346 219.104 102.341 221.747 98.6346C224.39 94.9286 221.747 93.9261 221.747 93.9261L219.863 95.8095L216.684 97.5917L211.55 98.4726L209.778 98.6346Z" fill="#14303F"/>
<path d="M254.2 111.17C254.2 111.17 246.535 107.322 240.773 107.322C235.011 107.322 235.325 114.603 217.241 112.294C217.241 112.294 214.304 110.178 207.834 112.294L209.333 109.854L213.433 109.692L218.02 108.639L222.415 105.287L224.906 105.753L227.265 105.287L229.837 101.976L231.478 98.9282L232.743 97.3486L234.11 98.4422L238.799 101.986L243.193 103.89L249.947 105.419L253.795 109.054L254.2 111.191V111.17Z" fill="#858689"/>
<path d="M265.915 115.96C265.915 115.96 273.975 139.644 288.141 142.297L294.156 141.527L288.141 137.426L282.754 129.68L280.912 125.073L276.264 120.162L272.841 117.539L269.793 117.043L265.925 115.95L265.915 115.96Z" fill="#C4C5C6"/>
<path d="M280.921 125.073C280.921 125.073 277.519 138.753 292.566 142.742L300.758 143.563L314.255 144.96H318.235L317.06 141.831L317.354 138.074L309.456 138.682L302.236 136.819L299.097 133.832L296.434 135.006L291.554 134.308L287.118 131.796L284.79 127.847L283.2 125.802L280.911 125.063L280.921 125.073Z" fill="#858689"/>
<path d="M302.52 75.5479L303.623 85.8964L303.907 88.7012H306.995L308.808 92.2351C309.213 93.0249 309.75 93.7438 310.387 94.3716C312.676 96.5892 318.326 102.017 319.764 102.979C321.576 104.204 327.328 110.441 327.328 110.441L327.581 113.884L330.325 116.719L331.52 111.758L330.477 105.338L327.723 99.2016L324.088 96.3765L318.235 95.0905L315.562 94.0578L313.699 89.8657L311.461 83.0713L307.917 78.1299L304.251 76.7225L302.52 75.5479Z" fill="#24596B"/>
<path d="M284.597 122.825L285.721 129.437L289.933 134.176L297.224 135.249L299.938 134.449L297.254 129.599L292.566 122.38L284.597 122.825Z" fill="#24596B"/>
<path d="M312.919 105.773C312.919 105.773 317.313 104.214 315.562 111.747C313.81 119.281 314.63 111.393 314.63 111.393L312.919 109.54L310.387 111.393L304.96 112.639L299.36 115.048L297.436 119.241L296.556 126.815L298.328 133.852C298.328 133.852 293.852 120.648 284.8 124.395L285.964 117.367L289.093 113.013L292.424 107.626C292.424 107.626 291.675 112.203 293.892 113.53L296.434 111.008L302.671 108.426L306.499 107.616L312.909 105.763L312.919 105.773Z" fill="#214859"/>
<path d="M114.161 227.292C114.161 227.292 110.181 227.292 106.192 231.272C102.202 235.251 102.212 243.22 110.171 239.241C110.171 239.241 106.192 247.21 94.2332 243.22L102.759 245.64L114.08 245.124L122.13 239.241L123.142 231.454L114.161 231.272V227.292Z" fill="#9AC2CC"/>
<path d="M170.602 212.033C170.602 212.033 158.299 211.466 148.558 197.057C138.817 182.648 139.505 224.903 139.505 224.903L152.679 217.562L163.372 213.39L170.602 212.023V212.033Z" fill="#386B77"/>
<path d="M309.648 222.756C309.648 222.756 301.183 224.315 304.555 214.028C307.927 203.74 326.548 198.809 319.227 211.992L314.134 219.202L309.658 222.756H309.648Z" fill="#386B77"/>
<path d="M187.755 199.558C187.755 199.558 208.492 199.011 221.17 196.703C221.17 196.703 210.781 205.502 187.755 199.558Z" fill="#386B77"/>
<path d="M160.587 194.414C160.587 194.414 179.644 196.804 194.407 195.822" stroke="black" stroke-width="0.44" stroke-linecap="round" stroke-linejoin="round"/>
<path d="M138.078 192.308C138.078 192.308 135.718 201.978 136.083 209.147" stroke="black" stroke-width="0.44" stroke-linecap="round" stroke-linejoin="round"/>
<path d="M139.202 194.303C139.202 194.303 138.28 198.778 138.26 200.844" stroke="black" stroke-width="0.44" stroke-linecap="round" stroke-linejoin="round"/>
<path d="M136.042 191.093C136.042 191.093 134.523 199.244 134.382 201.988" stroke="black" stroke-width="0.44" stroke-linecap="round" stroke-linejoin="round"/>
<path d="M143.455 200.408C143.455 200.408 141.693 207.01 142.877 216.721" stroke="black" stroke-width="0.44" stroke-linecap="round" stroke-linejoin="round"/>
<path d="M129.653 140.029L127.334 138.287L123.416 136.92L119.477 135.867L114.657 136.647L110.181 138.388L106.06 142.439L103.326 146.236L101.574 150.114L100.177 155.693L100.572 159.612L102.931 163.044L104.916 164.766C104.916 164.766 107.235 167.044 113.715 165.151L109.543 162.569L105.159 157.455L104.329 153.131L105.27 149.881L107.518 146.975L112.206 142.59L114.606 140.798L118.788 143.137L125.279 141.78L129.663 140.039L129.653 140.029Z" fill="#24596B"/>
<path d="M129.653 140.251C129.653 140.251 108.237 148.271 111.062 163.45L105.949 159.652L104.328 153.698L105.27 149.871L108.612 145.436L114.009 141.193C114.009 141.193 124.803 137.801 129.643 140.251H129.653Z" fill="#5891A0"/>
<path d="M210.669 69.2598C210.669 69.2598 186.519 70.9508 199.825 82.9802L197.101 82.8486L192.25 81.0158L190.418 77.3503L190.863 72.9962L193.091 68.9864L196.362 67.5992L201.111 67.0524L207.844 68.146L210.669 69.2598Z" fill="#4B808C"/>
<path d="M190.306 101.966C190.306 101.966 182.317 112.304 179.846 117.954C177.376 123.605 181.284 124.698 181.284 124.698C181.284 124.698 165.144 124.313 168.526 133.852L165.407 132.455L161.721 129.852L160.263 126.278L160.658 123.544L162.541 121.661L166.379 120.425L169.953 117.104L171.574 115.099L174.834 113.266L181.142 109.894L183.684 106.887L186.023 104.224L188.878 102.209L190.306 101.976V101.966Z" fill="#4B808C"/>
<path d="M189.689 102.067C189.689 102.067 185.517 106.664 179.745 114.026C173.973 121.387 171.928 120.77 167.655 123.838C163.382 126.906 167.452 133.366 167.452 133.366L163.129 131.918L160.84 129.245L160.263 126.268L160.982 122.572L163.645 121.387L167.452 119.453L170.602 116.294L173.285 114.411L177.659 112.304L181.142 109.884L183.937 106.219L186.853 103.363L189.689 102.067Z" fill="#24596B"/>
<path d="M207.125 85.1979C207.125 85.1979 216.42 76.6213 217.382 70.0497C218.344 63.4781 224.643 74.0089 231.741 71.4876C238.849 68.9662 241.715 80.7729 241.715 80.7729L238.707 76.5302L235.7 74.424H232.642L229.209 75.7505L226.404 76.5201L222.931 75.8011L220.076 76.5201L218.304 78.5554L216.431 81.6032L213.94 83.4461L209.788 84.8131L207.135 85.1877L207.125 85.1979Z" fill="#D9DADD"/>
<path d="M207.834 85.6027C207.834 85.6027 219.509 87.0609 221.493 83.7903C223.478 80.5196 225.169 79.8716 225.169 79.8716L228.257 80.2867L231.528 81.6436L229.776 78.8286L227.032 76.5098L222.911 75.7808L220.056 76.4997L217.99 79.5374L213.919 83.4359L209.768 84.8028L207.824 85.5926L207.834 85.6027Z" fill="#214859"/>
<path d="M226.395 76.5201C226.395 76.5201 230.182 79.001 230.384 81.6539C230.587 84.3068 234.131 89.6229 236.783 86.0789C239.436 82.5348 236.348 80.9147 236.348 80.9147L233.756 79.8819C233.756 79.8819 228.48 77.5833 227.539 76.5201H226.395Z" fill="#14303F"/>
<path d="M310.388 111.393C310.388 111.393 302.054 134.996 315.977 138.014L313.729 138.692L306.479 138.459L301.427 136.363L297.751 131.564L296.546 125.407L297.721 118.663L300.404 114.623L304.505 112.578L310.408 111.413L310.388 111.393Z" fill="#5891A0"/>
<path d="M310.185 112.031C310.185 112.031 290.865 126.663 308.413 138.216L306.469 138.449L301.416 136.353L297.599 131.047L296.525 124.263L297.508 117.955L300.383 114.613L305.689 112.598L310.185 112.041V112.031Z" fill="#4B808C"/>
<path d="M308.484 90.443C308.484 90.443 312.696 97.0754 320.837 102.543C320.837 102.543 322.214 106.766 320.837 110.097L318.245 105.044L312.929 100.012L311.319 98.7056C311.319 98.7056 309.699 103.718 297.933 101.581C286.167 99.4448 297.447 101.581 297.447 101.581L302.246 99.9814L305.264 97.1462L308.494 90.443H308.484Z" fill="#4B808C"/>
<path d="M138.938 66.1106C138.938 66.1106 129.683 69.5838 122.13 77.2895C121.593 77.8363 122.332 78.6868 122.95 78.2211C126.575 75.4972 131.729 72.743 138.321 71.9634C138.908 71.8925 139.242 72.6114 138.827 73.0265L131.83 79.8817L123.223 88.3569C123.152 88.4278 123.102 88.5088 123.071 88.6101C122.413 90.6251 115.335 113.003 125.734 106.826C125.886 106.735 125.998 106.583 126.028 106.411L127.182 100.467C127.182 100.467 127.203 100.396 127.213 100.366L128.559 96.8322C128.6 96.7309 128.661 96.6398 128.742 96.579C129.663 95.8196 135.425 91.4048 140.852 95.4348C146.279 99.4649 141.257 113.762 147.829 114.451C148.254 114.491 148.598 114.117 148.507 113.702L147.758 110.188C147.727 110.056 147.748 109.925 147.798 109.803L148.629 107.94C148.659 107.869 148.7 107.808 148.75 107.758L151.515 104.953C151.596 104.862 151.707 104.811 151.828 104.781C153.449 104.437 165.356 101.763 165.65 97.6119C165.964 93.1566 171.715 96.7006 173.558 95.0805C175.199 93.6527 175.573 89.5619 175.634 88.6607C175.634 88.5493 175.614 88.4278 175.563 88.3265L174.044 85.461C173.832 85.056 174.105 84.5699 174.561 84.5496C175.27 84.5091 176.171 84.3674 176.677 83.8915C176.89 83.6889 177.204 83.6484 177.447 83.8206C179.755 85.5622 190.235 92.5895 198.893 83.9826C199.278 83.608 199.014 82.9498 198.478 82.9296L197.171 82.8687C197.171 82.8687 197.08 82.8688 197.04 82.8485L193.749 81.9473C193.658 81.9271 193.577 81.8764 193.516 81.8258L191.43 80.0538C191.319 79.9526 191.238 79.8209 191.218 79.669L190.367 74.1404C190.347 73.9986 190.367 73.8569 190.438 73.7354L192.321 70.3939C192.352 70.3331 192.402 70.2825 192.453 70.2318L195.217 67.7915C195.298 67.7207 195.4 67.67 195.511 67.6498L199.733 66.7992C199.794 66.7891 199.865 66.7789 199.936 66.7992L201.536 67.0017C201.728 67.022 201.91 66.9612 202.052 66.8296C203.034 65.8676 206.983 61.706 206.923 57.6152C206.923 57.038 206.163 56.8051 205.809 57.2607L204.128 59.4682C204.077 59.5289 204.016 59.5897 203.946 59.6302L198.457 62.7894C198.457 62.7894 190.377 67.7206 179.786 62.8299C179.735 62.8097 179.674 62.7894 179.613 62.7793L177.366 62.4755C177.366 62.4755 177.305 62.4654 177.274 62.4553C176.545 62.2426 166.774 59.4479 164.698 63.3058C162.926 66.6068 160.456 63.5691 161.701 60.1567C161.904 59.5998 161.286 59.1036 160.78 59.4277L160.516 59.5998C160.435 59.6504 160.364 59.7213 160.314 59.8023L158.339 63.1135C158.339 63.1135 158.299 63.1843 158.289 63.2147L157.276 65.9993C157.246 66.0803 157.236 66.1613 157.236 66.2423L157.337 68.5004C157.337 68.5004 155.788 60.2377 145.044 65.1183C144.983 65.1487 144.913 65.169 144.842 65.169L140.933 65.4727C140.882 65.4727 140.832 65.4829 140.781 65.5031L138.959 66.1208L138.938 66.1106Z" fill="#BCD9DD"/>
<path d="M156.516 66.5157C156.516 66.5157 144.183 81.836 174.864 81.8866C174.864 81.8866 181.355 78.7173 179.289 73.219L174.601 74.5859L170.095 75.1733L164.911 75.1125L161.782 73.9683L158.491 71.2951L157.144 67.5081L156.516 66.5157Z" fill="#EBECF0"/>
<path d="M179.958 52.4309C179.958 52.4309 147.788 73.9988 179.29 73.209L173.538 74.7278L166.45 75.3455L161.782 73.9684L158.107 71.3155L157.135 67.5183L157.864 62.9414L160.273 59.7923L163.423 56.6331L165.154 53.6865L169.994 50.426H174.804L179.938 52.441L179.958 52.4309Z" fill="#9AC2CC"/>
<path d="M99.0935 103.039C99.0935 103.039 105.584 111.282 90.7195 116.254C90.7195 116.254 99.8327 113.651 99.0935 103.039Z" fill="#BCD9DD"/>
<path d="M72.1284 131.847C72.1284 131.847 85.0894 128.283 92.066 117.145C92.066 117.145 86.4158 130.187 72.1284 131.847Z" fill="#BCD9DD"/>
<path d="M93.5954 105.844C93.5954 105.844 93.079 110.36 89.5957 112.902C89.5957 112.902 95.013 109.419 93.5954 105.844Z" fill="#BCD9DD"/>
<path d="M239.345 63.4984C239.345 63.4984 249.481 46.6086 255.678 52.4309L256.306 49.5553L255.587 45.3328L252.175 44.6139L246.848 45.6062L243.76 48.2085L241.715 52.5626L239.902 60.5113L239.345 63.4984Z" fill="#5891A0"/>
<path d="M240.226 70.5862C240.226 70.5862 238.9 67.0625 239.355 62.4046C239.811 57.7468 241.148 54.061 241.148 54.061L243.77 48.2083L247.841 45.606L254.21 43.6923L250.089 41.4443L243.001 41.3329L239.922 39.1559C239.922 39.1559 244.195 43.834 240.246 44.6137C240.246 44.6137 243.689 44.5934 242.12 46.2338C242.12 46.2338 235.771 54.0002 229.128 56.1773C222.486 58.3543 226.192 63.964 226.192 63.964L230.404 64.8247L233.331 65.574L236.854 67.8523L240.246 70.5862H240.226Z" fill="#BCD9DD"/>
<path d="M179.958 52.4307C179.958 52.4307 186.377 49.9094 187.673 51.9852C188.969 54.061 194.599 44.5934 199.318 44.6137C204.037 44.6339 212.431 38.3256 212.431 38.3256C212.431 38.3256 215.823 31.2578 230.991 34.7411L228.916 32.3818L225.139 29.8706H219.215L215.934 30.7819L210.669 32.1894L206.912 32.0071L204.037 35.3689L201.606 39.5407L200.007 41.3633L193.85 42.2442L190.326 44.7149L185.78 48.1172L182.013 48.3096L180.221 50.0411L179.978 52.4307H179.958Z" fill="#5891A0"/>
<path d="M275.403 119.585C275.717 119.16 275.727 118.582 275.444 118.137C274.006 115.899 270.766 108.69 283.271 102.513L272.679 107.485L268.133 111.747L268.659 115.96L270.634 118.268L272.841 117.539L273.793 118.268L275.302 119.737L275.413 119.585H275.403Z" fill="#4B808C"/>
<path d="M260.923 107.525C260.923 107.525 254.503 98.3815 258.118 94.3616C261.733 90.3417 259.475 84.6915 259.475 84.6915L253.653 89.1266C253.653 89.1266 246.342 93.6629 242.808 93.9262C239.274 94.1895 236.226 95.6678 236.226 95.6678L233.219 97.1057L234.394 99.2928L243.507 104.396L250.402 106.107L253.329 108.619L254.493 110.462L256.63 109.014L258.969 107.373L260.903 107.535L260.923 107.525Z" fill="#4B808C"/>
<path d="M271.312 108.537C271.312 108.537 265.115 103.556 285.488 94.3615L280.567 96.3866H276.821L272.122 95.2727L265.47 94.8677L260.923 97.5612V99.8597L261.146 106.087L261.875 111.109L265.368 115.939L268.133 116.274V113.266L269.105 111.373L271.059 108.983" fill="#24596B"/>
<path d="M266.877 115.565C266.877 115.565 262.806 111.312 264.801 104.629C266.796 97.946 264.244 98.2295 265.561 97.5714C266.877 96.9132 270.786 95.2627 274.168 96.2145L268.122 94.8678L262.543 96.2145L260.245 99.2523L260.913 102.513L261.237 109.094L263.1 113.287L266.887 115.565H266.877Z" fill="#214859"/>
<path d="M273.206 53.2915C273.206 53.2915 260.812 45.0188 255.617 54.8812C250.413 64.7336 254.422 67.8624 254.422 67.8624L253.612 72.0241L251.84 73.9176C251.84 73.9176 264.771 77.6439 268.143 71.8722L274.573 70.5963C274.573 70.5963 287.615 90.0074 272.851 94.3716L275.717 96.012L280.587 96.4069C280.587 96.4069 289.042 97.1562 289.458 100.093C289.873 103.029 292.566 96.6803 292.566 96.6803L298.307 95.1007L302.499 90.5441L298.793 81.9069L297.011 73.2392L293.457 68.6319L287.767 64.1564L282.744 60.5415L279.129 58.2835L275.778 56.7039L273.975 55.2559L273.226 53.3218L273.206 53.2915Z" fill="#5891A0"/>
<path d="M280.041 59.9643C280.041 59.9643 296.221 66.6169 295.179 77.2692C294.136 87.9215 299.239 85.9774 300.383 89.1265C301.527 92.2756 303.249 89.1265 303.249 89.1265L303.623 84.2762L302.661 78.5451L302.226 73.2088C302.226 73.2088 293.599 64.6019 280.02 59.9542L280.041 59.9643Z" fill="#BCD9DD"/>
<path d="M264.012 92.225C262.462 92.1845 261.46 90.5745 262.088 89.167C263.374 86.2913 265.824 82.0385 268.872 82.9194C273.388 84.2257 275.96 79.4058 277.945 80.9955C279.929 82.5853 277.844 91.0605 269.783 91.9212C267.141 92.2047 265.298 92.2756 264.012 92.2351V92.225Z" fill="#BCD9DD"/>
<path d="M319.359 145.051L317.354 140.545L318.356 137.761L320.837 136.606C320.837 136.606 320.989 124.516 317.354 119.443C313.719 114.37 314.255 115.038 314.255 115.038L313.334 110.998C313.334 110.998 314.711 101.257 318.903 106.33C323.095 111.403 319.976 108.527 319.976 108.527C319.976 108.527 320.827 105.014 320.827 103.768C320.827 102.523 323.45 105.905 323.45 105.905L327.226 112.021L327.723 114.552L330.821 115.94L326.649 120.587L329.019 123.645L329.262 130.409L330.659 134.439L330.325 139.057L328.948 140.758L327.095 143.613L329.829 145.405H324.088L319.359 145.031V145.051Z" fill="#4B808C"/>
<path d="M320.837 102.543C320.837 102.543 332.907 101.328 327.723 114.573L327.338 110.431L324.827 107.626L320.837 102.553V102.543Z" fill="#214859"/>
<path d="M281.944 144.96L281.235 187.782L295.837 188.926L308.98 189.807L323.996 190.678H332.34L337.312 189.209L341.251 184.43L344.268 177.119L343.883 166.386L342.577 158.802L337.676 152.99L333.292 150.266L328.492 148.878L315.187 147.977L281.944 144.96Z" fill="#14303F"/>
<path d="M199.024 141.831V156.139L208.006 156.696V142.388L215.408 142.854V181.554L207.996 181.089V165.748L199.014 165.191V180.532L191.612 180.066V141.365L199.024 141.831Z" fill="#EBECF0"/>
<path d="M244.023 168.219L234.394 167.621V174.537L245.157 175.205V183.417L227.215 182.293V144.778L244.611 145.861V154.073L234.404 153.435V159.49L244.033 160.088V168.219H244.023Z" fill="#EBECF0"/>
<path d="M255.313 147.42L262.32 147.856V176.269L272.385 176.897V185.119L255.303 184.055V147.42H255.313Z" fill="#EBECF0"/>
<path d="M280.162 149.567L287.058 150.003V177.95L296.961 178.567V186.658L280.152 185.605V149.567H280.162Z" fill="#EBECF0"/>
<path d="M326.224 170.254C326.224 181.747 321.283 188.754 313.405 188.268C305.487 187.772 301.143 179.185 301.143 169.262C301.143 158.852 306.013 150.904 313.84 151.39C322.052 151.906 326.224 160.685 326.224 170.264V170.254ZM308.383 169.535C308.383 176.259 310.479 180.501 313.739 180.704C317.06 180.916 318.984 176.552 318.984 170.112C318.984 163.956 317.02 159.166 313.699 158.964C310.468 158.761 308.372 162.964 308.372 169.545L308.383 169.535Z" fill="#EBECF0"/>
<path d="M323.45 150.995C323.45 150.995 337.94 154.559 338.284 163.956C338.527 170.639 338.598 176.33 338.618 179.054C338.628 180.4 338.405 181.737 337.93 183.003C336.816 185.939 334.264 190.749 329.394 190.698L333.282 190.404L337.028 188.481L341.119 182.79L342.02 177.514L341.879 171.479L341.828 165.161L340.218 160.513L337.373 156.422L333.829 153.233L328.847 150.661L323.44 151.005L323.45 150.995Z" fill="#071D26"/>
<path d="M107.67 519.238C107.67 519.238 101.139 505.437 104.602 496.688L108.683 499.108L114.15 507.958L113.158 521.719L107.68 519.228L107.67 519.238Z" fill="#545454"/>
<path d="M108.682 499.118C108.682 499.118 104.916 509.659 111.953 521.243L117.563 523.552L128.276 527.551L137.581 530.478L147.758 532.422L167.999 533.829L177.851 532.746L193 530.69L205.809 528.22L233.27 520.19L249.916 512.94L270.583 503.087L287.898 494.106L302.287 484.8L314.296 476.467L324.898 467.374L329.657 462.392L334.527 456.873L340.157 451.244L346.546 444.753L355.528 436.855L362.343 429.818L367.648 422.892L372.408 413.586L375.658 405.141L378.362 395.511L372.408 404.817L365.806 414.447L355.528 426.354L336.481 443.994L313.425 460.985L294.379 472.892L286.804 477.328L266.675 486.096L248.813 493.893L237.664 499.3L227.063 504.708L210.507 510.986L192.544 515.208L179.229 516.727L167.432 517.041L159.635 515.866L146.32 511.431L128.134 505.588L117.897 502.389L108.652 499.128L108.682 499.118Z" fill="#4F4F4F"/>
<path d="M189.861 459.911L192.534 462.929C193 463.445 193.81 463.455 194.276 462.939C194.782 462.392 194.772 461.552 194.276 460.995C192.362 458.828 188.504 452.702 192.524 441.563C197.688 427.246 206.71 435.387 214.638 433.119C222.567 430.861 219.398 408.017 216.684 402.478C213.97 396.939 215.327 392.079 215.327 392.079L214.193 400.331L212.158 406.549L209.221 413.11L204.756 419.641L199.5 424.755L191.926 430.293L190.246 432.683L187.501 436.794L186.215 441.553L185.821 446.92L186.195 451.234L187.471 455.739L188.787 458.301L189.851 459.921L189.861 459.911Z" fill="#C4C5C6"/>
<path d="M279.261 376.11C279.261 376.11 278.663 341.642 279.261 331.8C279.403 329.532 284.658 356.517 284.243 353.732C282.045 338.858 281.509 339.303 281.509 339.303L284.131 348.042L286.45 357.054L287.604 361.529L291.473 368.121L293.032 378.935L288.799 395.511L285.053 406.781L281.094 413.1L279.271 416.249C279.271 416.249 284.516 389.446 279.271 376.1L279.261 376.11Z" fill="#C4C5C6"/>
<path d="M273.084 422.679C273.084 422.679 277.135 394.306 258.361 368.83C239.598 343.354 244.206 334.878 246.96 330.291C248.074 328.438 273.074 306.476 273.823 309.382C274.512 312.095 274.947 312.905 276.243 318.11C280.233 334.17 282.744 374.136 283.038 407.693L282.076 412.593L279.251 416.259L273.084 422.669V422.679Z" fill="#D3D3D3"/>
<path d="M268.214 262.712C266.442 267.583 264.235 265.811 264.235 265.811C264.235 265.811 263.971 265.375 263.364 264.808C262.017 263.563 258.949 261.659 253.167 262.267C248.661 262.743 246.444 262.327 245.35 261.841C243.406 260.971 241.34 260.373 239.214 260.302C235.275 260.161 229.442 260.657 223.063 263.603C222.78 263.735 222.496 263.846 222.213 263.948C222.567 262.976 225.686 255.057 231.913 252.981C238.556 250.764 244.307 247.665 251.83 252.536C251.83 252.536 253.906 253.721 258.473 251.655C263.343 249.437 269.986 257.852 268.214 262.722V262.712Z" fill="#C4C5C6"/>
<path d="M272.537 205.988C272.537 205.988 289.407 228.001 284.111 253.224C278.815 278.448 284.253 297.19 273.084 306.486L281.337 295.358L286.754 283.156L289.235 273.597L291.432 264.363L294.753 250.389L298.611 234.431L300.09 229.004L300.545 222.007L299.411 217.248L293.234 214.564L284.395 210.828L272.527 205.988H272.537Z" fill="#D3D3D3"/>
<path d="M170.601 212.033C170.601 212.033 199.743 214.504 199.551 223.212C199.359 231.92 175.533 246.309 183.481 261.426C191.44 276.544 230.809 238.137 230.809 238.137L229.057 233.054L228.814 227.242L230.202 219.759L219.306 203.76L210.608 204.854L189.061 208.084L170.591 212.033H170.601Z" fill="#D3D3D3"/>
<path d="M172.728 211.567C172.728 211.567 220.977 208.732 218.162 215.223C215.347 221.713 202.123 248.607 210.588 243.676C218.162 239.251 221.787 241.327 229.311 234.836L228.825 231.353L229.22 222.847L230.212 219.759L234.971 213.866L239.872 206.13L227.448 203.396L212.249 205.056L197.394 206.889L183.492 209.481L172.738 211.567H172.728Z" fill="#C4C5C6"/>
<path d="M256.589 194.414L257.622 195.245C258.179 195.7 258.179 196.551 257.622 196.996L219.954 227.181C219.752 227.343 219.478 227.09 219.63 226.877C221.433 224.336 225.756 218.503 230.141 214.453C235.892 209.137 234.566 208.702 234.566 208.702C234.566 208.702 226.597 206.93 213.757 207.821C200.918 208.712 190.59 209.167 178.267 209.826L189.051 208.084L199.146 206.049L208.583 205.006L221.169 203.548L231.903 202.353L241.31 201.047L249.451 198.839L254.483 195.872L256.579 194.424L256.589 194.414Z" fill="#858689"/>
<path d="M243.872 276.362C243.872 276.362 257.086 284.716 255.982 300.34C254.878 315.964 257.177 316.237 257.177 316.237L264.943 312.865L274.289 301.281L281.296 289.829C281.296 289.829 277.702 267.613 268.528 260.272L267.708 263.937L266.634 265.477L264.245 265.811L264.002 267.249L265.186 269.092L264.245 270.661L261.166 271.127C261.166 271.127 266.037 277.03 257.359 279.41L254.787 277.982L249.886 276.666L243.882 276.362H243.872Z" fill="#D3D3D3"/>
<path d="M287.362 398.832C287.362 398.832 282.947 419.529 300.545 424.765C318.144 430.01 363.244 417.98 372.418 404.817C381.602 391.653 381.238 388.747 381.238 388.747L384.63 374.085V364.132L381.875 360.021L376.61 357.276L368.196 359.008L357.999 361.519L344.36 363.757L326.133 365.58L308.19 365.387L298.581 364.557L293.032 363.332L290.015 379.29V386.55L288.516 394.357L287.372 398.822L287.362 398.832Z" fill="#D3D3D3"/>
<path d="M290.004 393.932C290.004 393.932 299.543 389.274 302.034 383.533C304.525 377.791 309.183 370.967 319.906 370.531C330.629 370.096 357.817 365.549 364.54 360.345L357.989 361.519L351.417 363.008L342.142 364.334L331.885 365.428L318.63 365.711L304.332 365.043L296.1 363.899L295.634 373.488L289.529 387.087L288.506 394.347L290.004 393.912V393.932Z" fill="#C4C5C6"/>
<path d="M287.605 361.53C287.605 361.53 289.873 369.428 289.903 375.949C289.934 382.47 289.62 385.031 289.62 385.031L288.931 392.079L287.362 398.843C287.362 398.843 296.546 391.856 300.15 371.827C300.91 367.575 313.03 366.815 320.463 365.691L303.522 364.841L291.219 362.643L287.605 361.53Z" fill="#B1B1B2"/>
<path d="M339.205 190.992C334.942 194.971 323.105 197.634 323.105 197.634C323.105 197.877 323.085 198.11 323.065 198.343C321.829 218.584 304.95 225.075 304.95 225.075C304.069 234.37 298.753 233.925 298.753 233.925C298.753 233.925 296.981 240.122 290.338 269.335C283.696 298.547 273.074 306.962 273.074 306.962C275.727 314.931 287.685 361.854 287.685 361.854C307.603 368.496 344.795 365.833 369.137 358.755C384.032 354.421 386.33 364.01 383.647 378.075C383.647 378.136 383.627 378.186 383.617 378.247C383.556 378.592 383.485 378.926 383.404 379.28" stroke="black" stroke-width="1.75" stroke-linecap="round" stroke-linejoin="round"/>
<path d="M82.295 465.906C82.295 465.906 79.6421 455.284 88.0465 450.413C96.4508 445.543 110.181 435.366 124.347 427.398C138.513 419.429 148.254 396.848 142.938 375.159C140.154 363.818 137.379 351.627 135.172 339.283C133.157 328.023 131.618 316.642 130.98 305.666C129.653 282.65 125.664 251.22 125.664 251.22" stroke="black" stroke-width="1.75" stroke-linecap="round" stroke-linejoin="round"/>
<path d="M246.848 323.497C252.731 320.763 258.787 318.141 264.184 314.516C267.191 312.197 269.965 309.301 272.416 306.405C272.73 306.03 273.287 305.98 273.661 306.293C274.026 306.597 274.087 307.144 273.793 307.519C272.122 309.655 270.279 311.559 268.274 313.341C266.34 315.143 263.981 316.652 261.602 317.827C256.873 320.227 252.023 322.242 247.091 324.105C246.707 324.257 246.453 323.659 246.838 323.497H246.848Z" fill="black"/>
<path d="M328.452 190.961L190.691 182.364C181.051 181.767 173.538 173.768 173.538 164.108V150.975C173.538 142.742 180.586 136.272 188.787 136.971L327.824 148.899C336.907 149.679 343.873 157.273 343.873 166.386V176.471C343.873 184.855 336.806 191.488 328.442 190.971L328.452 190.961Z" stroke="black" stroke-width="1.75" stroke-linecap="round" stroke-linejoin="round"/>
<path d="M173.548 152.736C173.548 144.504 180.515 138.034 188.615 138.733L325.981 150.661C334.952 151.44 341.838 159.035 341.838 168.148V178.233C341.838 181.899 340.501 185.23 338.304 187.782" stroke="black" stroke-width="1.75" stroke-linecap="round" stroke-linejoin="round"/>
<path d="M328.006 194.394L189.527 186.496C177.963 185.838 168.941 176.249 168.992 164.665L169.042 152.089C169.083 141.781 177.892 133.69 188.16 134.51L327.622 145.719C337.849 146.54 345.757 155.035 345.848 165.292L345.959 177.271C346.05 187.093 337.818 194.941 328.006 194.384V194.394Z" stroke="black" stroke-width="1.75" stroke-linecap="round" stroke-linejoin="round"/>
<path d="M114.606 224.639V231.657C114.606 231.657 127 232.163 131.871 229.51C136.741 226.857 150.461 216.225 170.824 211.8C191.187 207.375 200.037 206.049 215.54 204.277C231.042 202.505 248.742 201.624 255.384 195.427C262.027 189.23 265.125 197.199 264.234 203.396C267.303 204.317 270.482 205.36 273.753 206.545C278.967 208.438 283.787 210.484 288.232 212.57C289.954 213.38 291.726 214.068 293.528 214.656C296.303 215.567 299.735 217.248 300.535 220.215C300.707 220.842 300.728 221.43 300.606 223.435C300.383 226.938 300.009 229.895 299.654 232.163" stroke="black" stroke-width="1.75" stroke-linecap="round" stroke-linejoin="round"/>
<path d="M87.6008 207.821C88.0463 217.956 85.6161 226.411 82.0721 226.411C78.5281 226.411 75.6523 218.189 75.6523 208.043C75.6523 197.897 77.4446 188.794 80.9684 189.23C84.4921 189.665 87.1654 197.644 87.6109 207.821H87.6008Z" stroke="black" stroke-width="1.75" stroke-linecap="round" stroke-linejoin="round"/>
<path d="M94.2432 208.408C94.2432 221.531 90.0613 232.558 84.9478 232.163C79.1964 231.717 76.594 222.301 75.6523 208.408C74.7714 195.427 79.814 184.653 84.9478 184.653C90.0816 184.653 94.2432 195.285 94.2432 208.408Z" stroke="black" stroke-width="1.75" stroke-linecap="round" stroke-linejoin="round"/>
<path d="M79.9558 188.075C82.6189 178.314 87.8641 173.18 94.2433 170.629C94.2433 170.629 99.9947 166.204 107.528 175.945C107.528 175.945 109.3 178.162 111.953 177.271C114.606 176.38 110.181 172.401 110.181 172.401C110.181 172.401 115.143 167.591 117.978 170.882C120.813 174.173 122.14 176.826 123.912 175.499C125.684 174.173 125.238 171.955 122.14 168.421" stroke="black" stroke-width="1.75" stroke-linecap="round" stroke-linejoin="round"/>
<path d="M81.5557 230.583C85.2718 239.089 91.246 243.96 97.7873 245.002C97.7873 245.002 109.3 247.22 116.824 243.676C124.347 240.132 123.152 231.464 123.152 231.464" stroke="black" stroke-width="1.75" stroke-linecap="round" stroke-linejoin="round"/>
<path d="M91.8333 179.519C95.2963 181.544 97.2506 185.25 98.496 188.906C100.987 196.287 99.9845 204.145 99.3972 211.699C99.0327 215.364 98.7998 219.091 97.8581 222.665L97.7872 222.857L97.7366 222.969C97.7366 222.969 97.7163 223.009 97.6859 223.05C97.3417 223.597 96.5519 222.928 97.1594 222.523C96.9772 222.645 97.0582 222.604 97.0379 222.625C97.2708 221.794 97.3214 220.913 97.4227 220.053C97.7872 215.709 97.9695 210.352 98.1315 205.958C98.3542 200.48 98.2732 194.698 96.8556 189.402C95.8734 185.949 94.3141 182.344 91.489 180.046C91.1852 179.833 91.5093 179.317 91.8434 179.519H91.8333Z" fill="black"/>
<path d="M129.815 230.573C129.957 237.823 130.281 245.083 130.767 252.313C131.263 259.513 131.891 266.651 134.645 273.395C139.86 286.569 147.89 299.681 160.567 306.78C160.678 306.84 160.729 306.972 160.668 307.083C160.618 307.185 160.496 307.225 160.395 307.185C156.112 305.564 152.254 302.729 148.953 299.58C140.569 291.044 134.665 280.199 131.091 268.828C129.613 263.492 129.268 257.923 128.823 252.445C128.317 245.164 128.134 237.884 128.053 230.583C128.053 229.459 129.785 229.368 129.825 230.563L129.815 230.573Z" fill="black"/>
<path d="M268.214 262.712C266.442 267.583 264.234 265.811 264.234 265.811C264.234 265.811 263.971 265.375 263.363 264.808C262.017 263.563 258.949 261.659 253.167 262.267C248.661 262.743 246.443 262.327 245.35 261.841C243.406 260.971 241.34 260.373 239.214 260.302C235.275 260.161 229.442 260.657 223.063 263.603C222.779 263.735 222.496 263.846 222.212 263.948C222.567 262.976 225.685 255.057 231.913 252.981C238.555 250.764 244.307 247.665 251.83 252.536C251.83 252.536 253.906 253.721 258.473 251.655C263.343 249.437 269.986 257.852 268.214 262.722V262.712Z" stroke="black" stroke-width="1.75" stroke-linecap="round" stroke-linejoin="round"/>
<path d="M264.143 264.525C267.981 271.218 264.791 273.02 258.108 271.583C254.119 270.641 250.129 270.135 246.069 270.175C244.094 270.216 241.907 270.317 239.811 270.094C233.533 269.405 227.549 267.421 221.807 264.829C221.352 264.626 221.18 264.079 221.392 263.634C221.392 263.634 222.526 264.768 222.526 264.758C221.028 265.355 219.154 265.132 217.666 264.555C217.524 264.495 217.453 264.332 217.514 264.191C217.565 264.079 217.676 264.019 217.787 264.019C218.537 264.039 219.256 263.958 219.944 263.776C220.744 263.644 221.392 263.097 222.192 263.077C222.86 263.016 223.316 263.755 223.022 264.332L222.577 263.229C228.065 265.71 233.968 267.674 239.983 268.322C241.988 268.535 243.922 268.433 246.059 268.393C250.757 268.282 255.435 269.122 259.961 270.134C260.872 270.266 261.915 270.246 262.796 270.185C263.556 270.054 264.032 270.023 264.042 269.203C263.981 267.846 263.171 266.591 262.553 265.284C262.057 264.231 263.627 263.472 264.143 264.505V264.525Z" fill="black"/>
<path d="M265.115 203.386C265.389 207.061 266.563 210.879 267.809 214.392C269.621 219.516 273.499 226.847 268.973 231.9C266.118 234.937 262.169 236.112 258.675 237.924C257.845 238.34 257.096 238.795 256.579 239.433C256.042 240.061 255.779 240.942 255.627 241.894C255.597 242.167 255.151 242.177 255.121 241.894C254.635 239.676 255.992 237.58 257.906 236.557C261.146 234.613 265.085 233.449 267.576 230.685C271.261 226.037 267.525 219.951 265.945 215.061C264.629 211.243 263.525 207.497 263.343 203.386C263.343 202.211 265.105 202.181 265.115 203.386Z" fill="black"/>
<path d="M231.579 218.655C229.25 221.45 229.705 225.51 229.655 228.984C229.918 232.072 228.976 237.175 232.834 238.076C233.168 238.147 233.098 238.674 232.763 238.664C228.025 238.593 228.116 232.426 228.004 229.014C227.984 225.753 228.065 221.966 230.181 219.232C230.505 218.838 230.85 218.483 231.366 218.24C231.488 218.189 231.619 218.24 231.68 218.352C231.741 218.473 231.68 218.595 231.579 218.665V218.655Z" fill="black"/>
<path d="M248.438 231.93C249.056 231.657 249.076 230.847 248.468 230.553C245.117 228.892 236.52 225.45 234.353 231.961C232.551 237.378 244.175 233.803 248.428 231.93H248.438Z" stroke="black" stroke-width="1.75" stroke-linecap="round" stroke-linejoin="round"/>
<path d="M270.492 228.68C271.788 231.657 271.717 235.859 268.538 237.601C266.107 239.059 263.738 240.699 261.267 242.046C261.166 242.106 261.024 242.076 260.963 241.975C260.953 241.063 261.733 240.385 262.189 239.808C263.829 238.198 265.783 236.983 267.667 235.717C269.753 234.32 269.398 231.434 268.821 229.267C268.517 228.224 270.067 227.677 270.482 228.68H270.492Z" fill="black"/>
<path d="M268.588 231.009C272.264 235.656 264.467 237.428 261.703 239.372C260.518 239.454 263.535 237.276 263.809 237.165C265.449 235.95 268.639 235.17 268.396 232.76C268.335 232.355 268.122 231.93 267.879 231.636C267.505 231.191 268.183 230.583 268.588 230.998V231.009Z" fill="black"/>
<path d="M248.56 239.19C248.803 237.307 250.068 235.717 251.577 234.644C253.025 233.682 254.554 233.135 255.729 231.95C255.82 231.819 256.002 231.677 256.154 231.829C256.407 232.355 255.789 233.064 255.577 233.408C254.777 234.462 253.45 235.251 252.438 235.909C251.101 236.821 249.926 237.955 248.873 239.332C248.772 239.474 248.519 239.372 248.549 239.2L248.56 239.19Z" fill="black"/>
<path d="M114.829 179.681C119.527 188.845 120.104 202.059 117.32 211.891C117.147 212.438 116.287 212.296 116.307 211.719C116.631 203.7 117.593 195.68 116.236 187.691C115.831 185.058 115.284 182.405 114.373 179.904C114.241 179.631 114.667 179.398 114.819 179.671L114.829 179.681Z" fill="black"/>
<path d="M123.78 179.661C129.136 191.822 129.238 207.001 124.479 219.364C124.418 219.496 124.195 219.445 124.225 219.293C125.663 209.471 126.605 199.528 125.116 189.645C124.671 186.374 124.013 183.114 123.142 179.934C123 179.55 123.598 179.276 123.78 179.671V179.661Z" fill="black"/>
<path d="M331.449 146.408C331.449 146.408 327.54 144.069 327.095 143.634C326.649 143.198 329.799 140.393 329.991 138.692C330.183 136.991 331.398 135.715 329.242 131.047C329.242 131.047 329.738 121.509 323.986 118.846" stroke="black" stroke-width="1.75" stroke-linecap="round" stroke-linejoin="round"/>
<path d="M327.095 120.162C327.095 120.162 334.953 116.051 329.748 103.343C326.832 96.2148 320.361 95.02 317.101 94.8884C315.936 94.8377 314.934 94.058 314.62 92.934C313.263 88.0028 309.294 75.7203 303.624 76.7835" stroke="black" stroke-width="1.75" stroke-linecap="round" stroke-linejoin="round"/>
<path d="M294.166 95.8299C300.88 94.2098 304.15 88.4179 302.692 81.6438C301.892 77.5023 301.669 72.8444 299.188 69.3916C295.007 64.4299 288.101 62.9111 282.117 60.805C280.426 60.4303 278.34 59.6101 276.608 58.638C274.593 57.4736 272.396 55.4788 272.619 52.8563C272.629 52.5727 272.649 52.2386 272.669 52.0664L272.73 51.4488C272.7 50.5273 272.467 49.5958 271.647 49.0591C267.667 46.6897 262.3 48.2591 257.886 47.1352C255.891 46.6795 254.453 44.867 252.964 43.7836C250.686 42.204 247.841 42.2343 245.097 42.2444C239.659 41.2825 234.941 38.4271 230.749 34.9944C229.544 34.0527 227.954 32.4428 226.84 31.3492L227.235 31.5922C225.058 31.015 222.689 30.691 220.43 30.7821C218.76 30.853 217.099 31.1568 215.621 31.9061C209.019 35.0248 206.832 29.9822 203.014 38.741C202.255 40.4117 200.554 42.447 198.427 42.5179C196.787 42.6495 194.984 42.7102 193.557 43.581C190.347 45.3733 188.514 49.0186 184.271 49.3224C183.309 49.4236 182.165 49.1401 181.335 49.1401C181.274 49.1502 181.092 49.7578 181.072 50.2742C181.021 50.821 181.011 51.3982 181.011 51.9753C181.011 52.6234 180.292 53.0588 179.725 52.7651C177.082 51.469 173.761 50.8817 170.875 51.6816C167.847 52.4208 165.6 54.7599 164.03 57.3521C163.848 57.6154 163.544 57.747 163.25 57.7369C161.63 57.666 159.919 57.7672 158.268 57.9698C153.52 58.557 148.355 60.3797 145.945 64.7844C145.814 65.0173 145.591 65.1793 145.348 65.24C135.779 67.7208 125.532 70.4953 117.796 76.8442C115.021 79.082 114.525 82.6563 111.872 85.046C106.921 89.4507 103.843 87.0711 102.111 95.111C101.534 97.0349 101.017 99.2119 98.6886 99.9106C97.4735 100.184 96.5621 99.8802 95.8432 99.8701C93.332 99.6575 92.522 102.351 91.2158 104.042C89.4944 106.786 86.4668 108.882 86.0516 112.143C85.9099 112.983 85.9504 113.904 85.9808 114.795C86.0213 115.666 85.8491 116.578 85.5656 117.388C83.5101 122.44 79.3382 126.076 74.893 128.992C72.473 130.399 68.2405 132.708 66.3773 129.427L66.2862 129.255C66.2558 129.194 66.2457 129.215 66.2355 129.174C66.2355 129.174 66.2659 129.215 66.2862 129.215C66.2963 129.215 66.3065 129.215 66.3267 129.215C66.4482 129.296 66.671 129.275 66.7621 129.215C66.8026 129.215 66.8228 129.164 66.7924 129.215C66.0128 130.49 65.9621 132.374 66.1039 134.014C66.6406 139.654 71.258 141.244 76.2702 139.776C78.7004 139.33 85.7479 135.665 87.2363 139.047C87.6414 140.89 86.4769 142.611 85.758 144.18C83.4595 148.615 80.6344 153.061 80.7255 158.215C80.7559 158.437 80.3812 158.478 80.3508 158.255C79.4598 153.02 82.133 148.018 84.2898 143.451C84.7961 142.297 85.7378 140.758 85.5656 139.553C84.5125 139.077 82.781 139.715 81.6166 139.968C78.3459 140.93 74.9539 142.5 71.339 142.024C66.185 141.578 63.6332 136.201 64.2104 131.493C64.3927 130.176 64.5749 128.364 65.9115 127.524C66.2457 127.351 66.7317 127.321 67.1165 127.493C67.4506 127.655 67.7545 127.959 67.9266 128.253C68.6354 130.43 72.473 128.161 73.8805 127.331C77.7181 124.81 83.662 119.828 83.9354 114.947C83.2873 109.206 86.5579 106.999 89.5349 102.877C91.0133 100.589 92.7144 97.4298 95.985 97.8348C96.9469 97.9057 97.757 98.0778 98.2127 97.9361C98.9822 97.7943 99.5088 96.5691 99.7923 95.7388C100.005 95.0806 100.643 92.8124 100.835 92.0733C101.352 90.7569 101.949 89.4203 102.941 88.3875C105.027 86.1699 108.45 85.6738 110.475 83.5879C111.579 82.5146 112.439 81.1779 113.138 79.7097C115.518 74.7886 120.783 72.1255 125.4 69.8979C131.719 67.0626 138.28 65.078 144.994 63.5288L144.396 63.9845C148.092 57.3825 156.405 55.8231 163.382 55.9851L162.562 56.4205C166.308 49.7071 173.781 47.8238 180.565 51.2159L179.259 51.9955C179.371 50.4463 179.016 48.1275 180.879 47.4491C182.024 47.1858 183.097 47.7123 184.17 47.5605C187.775 47.2972 189.709 43.5608 192.737 42.0217C194.367 41.0496 196.392 40.8471 198.245 40.756C199.895 40.6041 200.675 39.4194 201.465 37.9208C202.558 35.6526 203.672 33.1212 206.163 31.977C208.553 30.8834 211.044 31.6631 213.332 30.9441C214.142 30.691 214.932 30.2758 215.712 29.9113C217.18 29.3544 218.841 29.0506 220.38 29C222.992 29 225.746 29.0911 228.146 30.1138C229.199 31.177 230.759 32.6959 231.903 33.6275C235.761 36.7968 240.378 39.6016 245.309 40.4724C246.464 40.4724 249.431 40.4218 251.152 40.999C253.106 41.4141 254.909 42.9431 256.255 44.219C257.541 45.3936 259.192 45.748 261.014 45.7682C265.571 46.0011 274.431 44.9582 274.532 51.469L274.461 52.2791C274.421 52.5829 274.431 52.7348 274.421 52.9272C274.431 56.5522 279.646 58.2431 282.673 59.0937C286.906 60.4505 291.169 61.7872 295.209 63.944C297.204 65.0173 299.188 66.3741 300.636 68.3082C302.095 70.2422 302.814 72.5508 303.289 74.738C305.001 83.0614 306.965 91.5569 297.872 96.316C296.809 96.8526 295.756 97.2678 294.531 97.5513C294.055 97.6627 293.579 97.3589 293.467 96.883C293.346 96.3868 293.69 95.8907 294.197 95.8097L294.166 95.8299Z" fill="black"/>
<path d="M70.5184 140.95C70.1337 147.846 70.9133 152.504 72.1284 155.653C74.5687 162.002 78.7507 162.225 78.7507 162.225C78.7507 162.225 79.8746 166.204 75.5509 168.421C71.2272 170.639 67.6832 174.173 68.1287 181.706" stroke="black" stroke-width="1.75" stroke-linecap="round" stroke-linejoin="round"/>
<path d="M69.8908 172.846C69.8908 172.846 63.7242 163.247 72.1184 155.653" stroke="black" stroke-width="1.75" stroke-linecap="round" stroke-linejoin="round"/>
<path d="M83.0947 177.98C76.0168 173.606 70.2249 178.476 67.2176 184.997L66.0025 187.772C65.2633 189.554 64.9899 191.842 64.8887 193.837C64.7469 195.477 65.1823 208.783 68.1491 206.575C68.9085 206.109 69.6173 205.269 70.4679 204.55C70.5894 204.449 70.7615 204.459 70.8628 204.58C70.9337 204.661 70.9438 204.763 70.9134 204.854C70.5388 205.927 70.0629 206.98 69.0605 207.831C67.734 208.945 66.0024 208.529 65.162 207.051C63.9368 205.016 63.8558 202.677 63.4305 200.429C62.9648 197.128 62.8129 193.736 63.2989 190.404C63.4913 188.379 64.6051 186.05 65.4456 184.126C66.4075 182.192 67.5213 180.309 68.939 178.669C72.7867 174.031 79.1761 172.988 84.1579 176.532C85.13 177.231 84.0567 178.679 83.1049 177.95L83.0947 177.98Z" fill="black"/>
<path d="M69.2224 207.456C68.0073 212.074 67.9061 214.706 71.9867 217.825C76.2598 222.078 76.5231 228.498 79.1558 233.53C79.7532 234.583 80.462 235.505 81.6771 235.697C84.7553 236.224 87.4893 238.046 89.403 240.395C92.2686 243.919 93.4938 248.385 94.0204 252.739C94.6583 256.86 95.4684 261.163 96.8252 265.052C97.0277 265.517 96.7948 266.074 96.3088 266.236C95.8532 266.398 95.3469 266.165 95.1849 265.71C93.6761 261.518 92.8762 257.356 92.1573 253.032C91.6004 248.952 90.527 244.81 87.9247 241.61C86.2438 239.545 83.9251 238.016 81.343 237.56C80.4823 237.408 79.6013 236.993 78.9735 236.396C74.5992 231.525 75.3283 223.799 70.711 219.182C70.0427 218.625 68.9086 217.653 68.301 216.843C67.0961 215.253 66.4986 213.177 66.6404 211.213C66.7518 209.654 67.0657 208.094 68.1592 206.869C68.382 206.616 68.7769 206.596 69.03 206.818C69.2224 206.99 69.2731 207.234 69.2123 207.466L69.2224 207.456Z" fill="black"/>
<path d="M108.5 249.083C101.169 258.429 92.8562 267.978 95.9445 280.696C96.5926 283.399 97.7976 286.164 100.076 287.753C100.785 288.189 101.615 288.452 102.243 287.652C102.344 287.51 102.567 287.612 102.547 287.774C102.395 289.1 100.572 289.455 99.5189 288.958C93.7776 286.316 92.8359 277.294 93.3625 271.745C94.132 266.55 96.6432 261.7 99.6809 257.569C102.091 254.237 104.886 251.169 108.328 248.881C108.45 248.8 108.602 248.962 108.5 249.073V249.083Z" fill="black"/>
<path d="M108.521 300.005C106.07 302.618 101.281 303.712 98.2735 301.15C94.608 297.859 93.1701 292.431 94.0713 287.662C94.2637 286.67 95.5193 282.954 97.0888 284.189C97.4128 284.523 97.4229 285.05 97.1191 285.394C94.4763 289.049 95.9952 295.165 98.4355 298.639C100.714 302.071 104.886 300.988 108.328 299.702C108.511 299.621 108.683 299.884 108.531 300.026L108.521 300.005Z" fill="black"/>
<path d="M110.272 305.433C109.797 308.825 110.07 314.06 114.789 313.199C115.406 313.118 117.006 312.845 117.644 312.744C123.152 311.691 128.671 311.843 131.982 317.199C132.012 317.24 131.962 317.28 131.921 317.25C127.476 313.442 123.537 313.088 117.938 314.404C116.793 314.627 115.153 315.002 113.989 315.063C112.45 315.154 110.789 314.566 109.807 313.321C107.954 310.86 108.136 307.914 108.541 305.109C108.632 304.633 109.088 304.309 109.574 304.4C110.06 304.491 110.374 304.957 110.283 305.433H110.272Z" fill="black"/>
<path d="M115.052 314.06C115.052 314.06 116.378 318.931 125.674 317.604C125.674 317.604 130.544 315.65 132.539 322.161" stroke="black" stroke-width="1.75" stroke-linecap="round" stroke-linejoin="round"/>
<path d="M120.418 317.776C118.717 325.755 122.403 326.464 129.096 327.953C130.088 328.368 128.529 329.097 128.134 329.147C125.937 329.522 123.739 328.621 121.745 327.831C121.157 327.537 120.55 327.193 120.064 326.737C117.472 324.176 117.735 320.368 118.737 317.24C118.889 316.774 119.396 316.531 119.861 316.683C120.317 316.834 120.56 317.331 120.428 317.776H120.418Z" fill="black"/>
<path d="M126.393 328.277C126.393 328.277 129.208 329.563 130.544 334.433C131.881 339.304 133.167 340.144 135.172 339.283" stroke="black" stroke-width="1.75" stroke-linecap="round" stroke-linejoin="round"/>
<path d="M214.851 398.205C213.099 407.875 208.806 417.657 201.181 424.127C200.057 425.211 196.878 427.165 195.531 428.036C187.815 432.906 185.061 442.9 186.712 451.548C187.248 454.474 188.2 457.411 190.013 459.77C190.094 459.851 190.083 459.983 189.992 460.053C189.911 460.114 189.79 460.104 189.729 460.023C187.744 457.623 186.681 454.656 186.023 451.679C184.089 442.708 186.793 432.147 194.782 426.932L198.559 424.431C199.429 423.824 200.321 423.034 201.181 422.376C208.128 416.047 212.35 407.217 214.466 398.134C214.486 398.023 214.598 397.942 214.709 397.973C214.811 397.993 214.881 398.094 214.861 398.195L214.851 398.205Z" fill="black"/>
<path d="M238.069 421.666C237.34 429.554 232.834 436.794 226.759 441.725C226.536 441.918 226.232 441.573 226.455 441.381C231.984 436.116 235.943 429.139 237.279 421.605C237.33 421.109 238.1 421.16 238.069 421.666Z" fill="black"/>
<path d="M289.65 371.139C293.285 391.502 286.46 414.943 268.679 426.739C268.396 426.932 268.052 426.507 268.335 426.274C282.582 414.994 289.275 396.717 289.468 378.905C289.549 376.344 289.468 373.762 289.255 371.21C289.235 371.099 289.326 370.987 289.437 370.977C289.538 370.977 289.63 371.038 289.65 371.139Z" fill="black"/>
<path d="M383.414 379.29C381.622 387.978 378.078 398.215 374.463 407.905C364.722 434.02 356.318 432.693 330.639 461.471C304.96 490.248 238.12 521.678 201.374 529.202C164.627 536.725 138.068 534.072 111.953 521.233C85.8389 508.393 82.2949 465.896 82.2949 465.896C82.2949 465.896 94.6888 496.88 115.052 501.751C135.415 506.621 158.43 516.362 165.073 516.798C171.715 517.233 201.819 517.679 231.032 502.632C260.245 487.585 282.126 480.517 290.004 475.424C297.811 470.361 372.641 429.919 383.414 379.29Z" stroke="black" stroke-width="1.75" stroke-linecap="round" stroke-linejoin="round"/>
<path d="M383.657 378.095C383.657 378.156 383.637 378.207 383.627 378.267C383.556 378.612 383.495 378.956 383.414 379.3" stroke="black" stroke-width="1.75" stroke-linecap="round" stroke-linejoin="round"/>
<path d="M196.463 335.243C206.761 329.137 222.364 326.454 230.921 336.782C231.285 337.208 230.647 337.805 230.252 337.39C220.643 327.467 207.328 330.454 196.463 335.253V335.243Z" fill="black"/>
<path d="M230.505 280.382C238.728 275.319 250.949 272.95 258.574 280.281C258.868 280.544 258.463 281.02 258.159 280.767C250.17 274.59 239.193 276.726 230.678 280.665C230.505 280.767 230.323 280.483 230.505 280.372V280.382Z" fill="black"/>
<path d="M269.105 70.5865C269.105 70.5865 262.908 87.4054 245.643 78.11" stroke="black" stroke-width="1.75" stroke-linecap="round" stroke-linejoin="round"/>
<path d="M273.53 74.5659C273.53 74.5659 259.364 83.4158 253.613 89.1774" stroke="black" stroke-width="1.75" stroke-linecap="round" stroke-linejoin="round"/>
<path d="M233.685 79.7603C237.34 80.54 240.631 83.6182 240.581 87.547C240.591 87.8103 240.621 88.0837 240.702 88.2355C240.783 88.4178 240.813 88.4178 240.824 88.4178C240.854 88.4381 241.056 88.3672 241.249 88.2457C243.487 86.3724 243.902 82.9499 243.547 80.1045C242.94 75.8416 240.338 71.9432 237.239 69.027C236.773 68.5612 236.368 68.2271 235.811 67.8524C231.71 64.4603 225.939 65.8576 221.463 63.1541C219.185 61.7567 217.565 59.6202 216.228 57.4229C216.157 57.3115 216.198 57.1698 216.309 57.0989C216.421 57.028 216.562 57.0685 216.633 57.1798C218.031 59.286 219.671 61.2909 221.848 62.4959C223.995 63.7717 226.567 63.8831 229.108 64.2274C234.434 64.6324 239.082 68.1764 241.927 72.5811C244.884 76.9251 246.362 82.96 243.517 87.8001C242.879 88.7418 242.059 89.886 240.651 89.8152C239.598 89.6835 239.183 88.4583 239.214 87.5875C239.244 85.4915 238.363 83.5169 236.713 82.1601C235.801 81.35 234.697 80.6918 233.563 80.2159C233.3 80.1045 233.432 79.6995 233.705 79.7603H233.685Z" fill="black"/>
<path d="M203.976 64.5818C207.763 63.5084 211.692 61.0985 213.018 57.2204C213.525 55.9749 213.514 54.6079 213.504 53.2814C213.525 52.9372 213.788 52.6637 214.122 52.6232C219.023 52.0765 223.934 51.3474 228.794 50.4057C233.584 49.3931 238.566 48.4413 242.889 46.082C243.082 45.9504 243.304 46.2744 243.092 46.3959C240.945 47.7224 238.576 48.5729 236.206 49.3324C229.057 51.5398 221.696 52.8966 214.304 54.0206L214.922 53.2916C215.236 59.4987 209.748 63.9843 204.087 65.088C203.763 65.1589 203.642 64.6526 203.986 64.5818H203.976Z" fill="black"/>
<path d="M239.345 63.4983C239.345 63.4983 239.882 49.3323 247.405 45.7883C254.929 42.2443 261.571 44.9075 252.276 62.1719" stroke="black" stroke-width="1.75" stroke-linecap="round" stroke-linejoin="round"/>
<path d="M172.292 82.8184C179.745 88.8635 177.781 99.5461 171.756 105.875C171.584 106.077 171.26 105.844 171.401 105.611C175.502 98.5133 177.963 90.0178 172.029 83.1323C171.837 82.9601 172.1 82.6462 172.303 82.8083L172.292 82.8184Z" fill="black"/>
<path d="M158.106 83.2031C161.539 84.2865 164.779 87.1926 165.316 90.8784C165.346 91.0911 165.053 91.1923 164.941 91.0101C163.038 88.0837 160.577 85.8662 157.863 83.6689C157.641 83.4968 157.843 83.1221 158.106 83.2031Z" fill="black"/>
<path d="M162.015 81.4614C167.189 82.1399 172.151 86.7572 171.736 92.2453C171.736 92.4478 171.432 92.4681 171.401 92.2656C170.47 87.2432 166.46 83.7498 161.924 81.8259C161.711 81.7551 161.792 81.4108 162.015 81.4513V81.4614Z" fill="black"/>
<path d="M174.581 81.3906C180.748 83.9828 184.383 91.0606 183.451 97.5816C183.431 97.8449 183.016 97.855 182.996 97.5816C182.216 91.4353 179.35 85.6333 174.318 81.907C174.024 81.7348 174.257 81.2488 174.581 81.3906Z" fill="black"/>
<path d="M204.685 89.3899C209.383 93.6124 216.4 94.9996 221.878 91.4758C224.167 90.4835 223.306 97.1058 222.951 98.25C221.959 102.786 217.524 105.186 213.13 104.447C211.125 104.184 209.241 103.586 207.469 102.786C207.297 102.705 207.216 102.503 207.297 102.331C207.368 102.179 207.53 102.098 207.692 102.138C209.555 102.533 211.418 102.877 213.251 102.908C219.843 103.212 221.868 98.169 221.423 92.4176L222.749 93.0353C221.25 93.8453 219.661 94.5541 217.939 94.8073C212.907 95.7186 207.722 93.42 204.219 89.8558C203.925 89.552 204.391 89.0862 204.695 89.3899H204.685Z" fill="black"/>
<path d="M207.631 98.0677C212.147 98.3005 217.798 97.693 220.471 93.6022C221.068 92.8833 221.494 90.8379 222.8 91.648C223.995 92.8023 221.352 95.6577 220.41 96.4273C216.734 99.2422 211.904 99.5562 207.5 98.8778C206.983 98.7866 207.095 97.9968 207.621 98.0677H207.631Z" fill="black"/>
<path d="M230.273 81.7855C227.64 80.5907 224.987 79.9122 222.617 81.8158C222.496 81.907 222.304 81.8867 222.223 81.745C222.172 81.664 222.172 81.5627 222.223 81.4817C222.607 80.7931 223.134 80.1147 223.914 79.7198C225.392 78.849 227.336 79.1123 228.733 79.9527C229.057 80.0641 231.285 81.7956 230.273 81.7855Z" fill="black"/>
<path d="M207.125 85.1979C207.125 85.1979 215.094 84.7524 217.311 80.3275C219.529 75.9025 221.291 75.0114 225.28 76.348C229.27 77.6846 233.249 71.032 237.674 75.467C242.099 79.9021 242.099 81.6641 242.099 82.9905" stroke="black" stroke-width="1.75" stroke-linecap="round" stroke-linejoin="round"/>
<path d="M173.568 62.5161C178.581 62.4553 183.512 60.734 187.603 57.8582C191.744 54.8914 196.452 51.8536 201.809 52.3093C201.951 52.3093 201.971 52.5321 201.829 52.5524C199.298 52.9574 196.817 53.4637 194.691 54.7598C190.296 57.2912 186.367 61.0782 181.284 62.3034C178.753 62.9818 176.13 63.2958 173.528 62.9312C173.275 62.9009 173.305 62.4857 173.578 62.5161H173.568Z" fill="black"/>
<path d="M200.503 83.1121C195.106 83.9424 188.767 81.7349 189.81 75.1735C190.165 71.6801 192.362 68.1563 195.855 67.083C200.827 65.5034 206.194 67.0121 210.77 69.0069C210.902 69.0677 210.963 69.2195 210.902 69.3512C210.841 69.4828 210.689 69.5334 210.568 69.4828C206.011 67.9943 200.928 66.7691 196.28 68.2677C192.088 69.503 189.486 76.0139 191.815 79.6997C193.668 82.302 197.445 82.7779 200.483 82.8285C200.645 82.8083 200.675 83.0817 200.513 83.0918L200.503 83.1121Z" fill="black"/>
<path d="M207.489 53.9702C207.024 58.7495 202.153 61.4227 198.154 63.0226C198.012 63.0732 197.84 63.0024 197.789 62.8606C197.738 62.729 197.789 62.5872 197.911 62.5163C201.323 60.3798 205.464 57.9901 206.771 53.96C206.801 53.5044 207.479 53.5044 207.489 53.96V53.9702Z" fill="black"/>
<path d="M163.828 57.5748C161.468 59.4987 159.2 61.9795 158.279 64.8653C156.669 69.6346 160.02 74.1203 164.891 74.6975C169.68 75.4468 174.622 74.4747 179.239 73.0874C179.411 73.0166 179.523 73.3001 179.34 73.3609C173.042 75.4468 162.886 78.1908 158.076 72.0141C154.117 66.5462 158.117 59.7316 162.764 56.1572C163.706 55.4282 164.79 56.866 163.828 57.5748Z" fill="black"/>
<path d="M112.632 84.0639C109.948 87.2839 106.192 90.6963 104.987 94.7567C104.967 95.0503 104.967 95.0301 105.048 95.3845C105.574 98.6146 102.962 101.622 103.549 104.781C103.762 105.814 104.865 106.381 105.969 106.553C106.04 106.563 106.091 106.624 106.08 106.695C106.08 106.756 106.01 106.806 105.949 106.806C105.362 106.766 104.764 106.665 104.207 106.391C100.926 104.386 103.903 99.3436 103.782 96.4072C103.782 95.911 103.671 95.749 103.559 95.2326C103.438 94.3617 103.721 93.4606 104.005 92.7315C105.716 88.9344 108.511 85.7954 111.366 82.8285C111.71 82.4842 112.267 82.4842 112.622 82.8285C112.966 83.1728 112.966 83.7196 112.642 84.0639H112.632Z" fill="black"/>
<path d="M212.441 37.8297C212.441 37.8297 217.757 42.7002 225.726 42.2547C233.695 41.8091 239.912 44.4317 239.912 44.4317" stroke="black" stroke-width="1.75" stroke-linecap="round" stroke-linejoin="round"/>
<path d="M312.483 109.095C312.483 109.095 320.452 117.064 322.224 122.815" stroke="black" stroke-width="1.75" stroke-linecap="round" stroke-linejoin="round"/>
<path d="M312.919 113.003C312.919 113.003 317.293 117.934 318.205 121.701" stroke="black" stroke-width="1.75" stroke-linecap="round" stroke-linejoin="round"/>
<path d="M308.058 97.1462C308.058 97.1462 319.126 102.017 320.452 110.431" stroke="black" stroke-width="1.75" stroke-linecap="round" stroke-linejoin="round"/>
<path d="M320.452 102.969C320.452 102.969 327.905 109.044 327.723 115.049" stroke="black" stroke-width="1.75" stroke-linecap="round" stroke-linejoin="round"/>
<path d="M179.289 136.09C179.289 136.09 148.821 141.75 137.683 146.226V164.746" stroke="black" stroke-width="1.75" stroke-linecap="round" stroke-linejoin="round"/>
<path d="M129.653 173.727C129.653 173.727 136.326 162.538 144.7 161.779C149.57 161.333 152.922 161.262 153.459 163.956C153.459 163.956 153.266 162.224 151.423 162.224C149.581 162.224 148.639 163.116 148.446 164.442C148.254 165.768 148.507 176.846 153.469 173.079L154.005 174.618C153.125 182.587 137.622 182.587 137.622 182.587" stroke="black" stroke-width="1.75" stroke-linecap="round" stroke-linejoin="round"/>
<path d="M140.609 186.02C154.643 189.078 169.093 189.979 183.39 190.961C207.348 192.46 231.366 192.703 255.374 192.814C255.577 192.814 255.739 192.976 255.739 193.179C255.739 193.371 255.577 193.533 255.384 193.543C226.556 194.212 197.657 193.807 168.91 191.376C159.311 190.425 149.712 189.351 140.406 186.668C140.224 186.617 140.123 186.425 140.184 186.243C140.244 186.06 140.437 185.959 140.619 186.02H140.609Z" fill="black"/>
<path d="M268.548 194.181C276.608 194.789 288.283 196.227 296.434 197.168C301.072 197.695 305.719 198.221 310.347 198.677C313.759 198.961 317.202 199.386 320.523 198.768C321.181 198.586 321.961 198.434 322.275 197.918C321.91 197.128 323.237 196.085 323.915 197.259C325.09 202.302 312.979 200.895 310.154 200.662C305.476 200.247 300.829 199.669 296.191 199.052C286.906 197.847 277.651 196.49 268.467 194.647C268.193 194.596 268.234 194.141 268.538 194.181H268.548Z" fill="black"/>
<path d="M152.061 395.836C160.496 413.708 165.326 433.362 166.44 453.087C166.511 454.403 166.561 455.719 166.592 457.036C166.592 457.258 166.237 457.309 166.217 457.056C164.405 441.442 161.225 425.98 156.608 410.953C155.079 405.941 153.408 400.969 151.525 396.079C151.464 395.927 151.535 395.755 151.687 395.694C151.828 395.643 151.98 395.694 152.051 395.836H152.061Z" fill="black"/>
<path d="M190.083 370.987C200.108 381.326 212.188 384.222 223.347 373.67C223.539 373.478 223.863 373.772 223.66 373.974C223.104 374.572 222.557 375.179 221.969 375.756C214.973 382.834 205.009 383.594 196.858 378.004C194.093 376.182 191.643 373.954 189.638 371.342C189.425 371.058 189.84 370.714 190.073 370.987H190.083Z" fill="black"/>
<path d="M147.302 89.481C150.137 87.5268 154.188 87.3343 157.215 89.0152C160.314 90.8885 161.255 94.6654 161.397 98.0069C161.417 98.4018 160.81 98.4423 160.779 98.0474C159.979 89.1671 155.251 88.0229 147.424 89.7544C147.272 89.7848 147.17 89.5722 147.302 89.481Z" fill="black"/>
<path d="M130.554 93.3389C127.405 99.5865 125.42 107.049 127.506 113.925C130.362 122.592 139.657 129.478 148.922 128.485C151.191 128.202 153.357 127.341 155.271 126.075C155.676 125.792 156.243 125.903 156.517 126.318C156.78 126.724 156.679 127.27 156.274 127.544C154.157 128.971 151.717 129.964 149.165 130.308C139.029 131.523 128.914 123.959 125.988 114.38C123.912 107.15 126.028 99.1207 130.291 93.1668C130.412 93.0149 130.655 93.1668 130.554 93.3389Z" fill="black"/>
<path d="M76.2092 196.642C73.8904 195.953 71.1159 196.571 69.6173 198.606C69.0401 199.285 68.6553 200.105 68.2604 200.905C68.1693 201.097 67.8554 200.976 67.9162 200.773C68.5946 196.581 72.5335 193.776 76.7458 194.951C77.2217 195.072 77.5052 195.558 77.3837 196.024C77.2521 196.531 76.7054 196.814 76.2193 196.632L76.2092 196.642Z" fill="black"/>
<path d="M75.5411 214.838C73.4349 214.453 71.7135 212.641 71.3794 210.555C71.349 210.393 71.4503 210.241 71.6123 210.21C71.754 210.18 71.8857 210.251 71.9363 210.383C72.473 211.598 73.4146 212.469 74.6399 212.843C75.0753 212.995 75.5208 213.005 75.8752 213.127C76.8777 213.43 76.5638 214.959 75.5309 214.848L75.5411 214.838Z" fill="black"/>
<path d="M105.655 165.485C97.9796 161.354 98.1618 152.463 102.384 145.8C105.584 140.464 110.667 135.421 117.259 135.219C121.876 135.006 126.342 136.89 129.835 139.806C129.947 139.907 129.967 140.079 129.866 140.191C129.764 140.302 129.602 140.312 129.481 140.221C125.927 137.761 121.573 136.201 117.35 136.556C111.933 136.991 107.559 140.9 104.754 145.324C102.961 147.927 101.503 150.954 101.068 154.063C100.369 158.204 102.324 162.548 105.847 165.13C106.06 165.242 105.868 165.596 105.655 165.475V165.485Z" fill="black"/>
<path d="M137.126 156.331C132.974 153.142 128.063 152.635 124.276 156.706C123.79 157.243 123.355 157.82 122.889 158.387C122.717 158.599 122.372 158.336 122.534 158.113C122.96 157.506 123.344 156.878 123.8 156.291C127.506 151.501 133.622 151.441 138.26 154.974C139.171 155.714 138.027 157.091 137.126 156.341V156.331Z" fill="black"/>
<path d="M136.316 160.24C132.205 157.951 126.858 158.559 123.304 161.678C122.454 162.346 121.654 163.227 120.925 164.027C120.884 164.088 120.793 164.098 120.742 164.047C120.702 164.007 120.692 163.936 120.732 163.885C121.198 163.298 121.644 162.68 122.15 162.103C125.896 157.769 131.871 156.311 137.166 158.691C138.3 159.237 137.389 160.898 136.316 160.24Z" fill="black"/>
<path d="M128.802 143.35C118.707 145.527 114.323 150.772 118.17 160.979C118.272 161.222 117.887 161.404 117.765 161.171C113.806 154.762 114.626 147.056 122.271 144.13C124.357 143.289 126.554 142.894 128.762 142.894C129.045 142.894 129.076 143.32 128.792 143.36L128.802 143.35Z" fill="black"/>
<path d="M87.8743 155.623C88.5831 157.749 88.6135 159.997 88.4008 162.204C88.3806 164.726 85.1504 173.393 86.2845 165.141C86.6997 162.073 87.1148 158.782 87.4287 155.694C87.4287 155.451 87.7933 155.4 87.8642 155.623H87.8743Z" fill="black"/>
<path d="M103.204 165.556C98.5972 163.956 93.4331 160.776 92.775 155.491L92.7142 154.083C92.7851 152.453 91.6105 151.43 90.0309 151.41C84.8667 151.41 81.4746 156.959 81.6872 161.769C81.667 163.46 81.8492 165.161 81.9809 166.953C81.991 167.146 81.8493 167.308 81.6569 167.328C81.5151 167.338 81.3835 167.257 81.3227 167.135C79.6317 163.865 79.5912 159.744 81.1303 156.24C82.6796 152.747 86.092 149.831 90.122 149.952C92.3294 149.962 94.2432 151.886 94.0103 154.124C93.6255 159.602 98.8301 163.105 103.377 165.1C103.67 165.201 103.518 165.667 103.215 165.566L103.204 165.556Z" fill="black"/>
<path d="M119.395 126.521C115.092 124.972 108.925 123.21 105.148 126.471C103.792 127.696 103.336 129.529 102.87 131.28C102.283 133.184 101.615 135.047 100.713 136.839C100.005 138.024 99.3059 139.523 97.7769 139.826C97.6554 139.837 97.5744 139.685 97.6554 139.583C98.3136 138.875 98.8907 137.143 99.2856 136.191C101.361 131.371 101.473 124.405 107.984 123.564C112.024 122.977 116.044 124.395 119.547 126.197C119.74 126.298 119.598 126.612 119.395 126.521Z" fill="black"/>
<path d="M110.272 108.305C107.153 112.375 102.648 118.016 99.792 122.167C98.0909 124.516 96.8657 127.048 95.8025 129.721C94.557 132.414 92.9876 134.946 90.9422 137.113C90.7093 137.366 90.284 137.032 90.4865 136.748C94.0912 131.949 94.9216 126.015 98.4554 121.246C101.848 116.446 105.756 112.092 110.07 108.123C110.181 108.021 110.363 108.173 110.262 108.305H110.272Z" fill="black"/>
<path d="M147.282 77.1885C141.976 74.2925 135.708 76.5506 131.769 80.6819C125.501 86.6156 119.102 92.8935 115.426 100.771C113.087 105.936 113.877 110.067 118.808 112.973C122.292 115.282 124.57 115.059 125.441 110.624C125.481 110.279 125.815 110.036 126.16 110.107C126.433 110.168 126.625 110.401 126.636 110.664C126.666 111.495 126.565 112.264 126.322 113.054C125.917 114.735 124.226 116.314 122.373 116.132C120.752 116.092 119.213 115.251 117.897 114.38C108.429 108.831 113.492 99.1614 118.737 92.5493C122.413 87.8914 126.635 83.7601 131.03 79.8515C133.217 77.9074 135.789 76.0443 138.797 75.4671C141.753 74.8292 144.933 75.3253 147.464 76.9353C147.616 77.0568 147.464 77.2897 147.302 77.1885H147.282Z" fill="black"/>
<path d="M137.541 140.95C133.46 138.064 130.088 133.356 130.048 128.222C130.048 128.05 130.19 127.918 130.362 127.918C130.504 127.918 130.625 128.02 130.655 128.161C131.283 130.511 132.296 132.647 133.582 134.692C134.868 136.718 136.336 138.652 137.835 140.616C138.007 140.808 137.743 141.102 137.531 140.96L137.541 140.95Z" fill="black"/>
<path d="M134.655 100.356C128.539 110.026 130.21 117.621 140.943 122.309C141.257 122.44 141.065 122.947 140.741 122.835C133.187 120.618 127.456 114.401 130.574 106.239C131.425 103.941 132.731 101.875 134.402 100.144C134.544 100.002 134.787 100.194 134.655 100.356Z" fill="black"/>
<path d="M153.681 98.0272C154.005 100.457 153.256 102.999 151.98 105.085C151.038 107.039 148.608 108.254 148.558 110.543C148.76 114.694 153.823 118.815 157.975 118.35C158.025 118.339 158.055 118.42 157.995 118.441C156.84 118.805 155.554 118.775 154.36 118.451C150.765 117.398 147.201 114.573 146.786 110.583C146.502 107.697 149.357 106.29 150.886 104.336C152.284 102.553 153.377 100.417 153.681 98.0272Z" fill="black"/>
<path d="M141.784 117.864C145.692 122.947 152.507 123.574 158.45 123.078C158.683 123.048 158.764 123.412 158.531 123.483C152.557 125.691 144.355 124.243 141.439 118.036C141.348 117.823 141.662 117.661 141.784 117.864Z" fill="black"/>
<path d="M174.986 136.961C169.478 135.543 156.183 131.878 159.372 124.01C159.959 122.886 160.678 121.802 161.65 121.114C162.886 120.78 164.192 120.253 165.367 119.615C168.941 117.742 171.128 114.33 171.948 110.421C171.969 110.31 172.09 110.229 172.201 110.259C173.305 114.573 170.166 119.352 166.298 121.327C164.992 122.035 163.655 122.552 162.126 122.805L162.592 122.562C155.383 129.731 170.186 133.923 175.361 135.229C176.505 135.472 176.15 137.204 174.986 136.961Z" fill="black"/>
<path d="M170.753 114.694C174.135 112.811 177.892 111.494 180.798 108.831C183.512 106.614 185.264 103.161 188.706 101.855C189.233 101.693 189.739 101.531 190.428 101.733C190.843 101.885 190.61 102.462 190.195 102.32C189.901 102.27 189.385 102.402 188.99 102.594C186.803 103.698 185.385 105.763 183.897 107.667C182.023 110.138 179.492 112.061 176.839 113.611C175.877 114.137 170.814 117.155 170.429 115.352C170.399 115.079 170.541 114.836 170.764 114.704L170.753 114.694Z" fill="black"/>
<path d="M101.068 133.629C104.379 134.338 108.196 134.308 110.92 131.969C111.103 131.797 111.386 132.08 111.214 132.262C109.341 134.48 106.394 135.503 103.539 135.614C102.556 135.573 99.7111 135.908 100.035 134.247C100.167 133.801 100.622 133.548 101.068 133.639V133.629Z" fill="black"/>
<path d="M116.945 130.268C118.869 131.959 121.036 132.85 123.537 133.153C123.719 133.184 123.841 133.356 123.8 133.538C123.78 133.67 123.689 133.761 123.567 133.802C122.909 134.004 122.201 134.105 121.502 134.004C119.436 133.771 117.512 132.323 116.692 130.44C116.621 130.288 116.834 130.146 116.945 130.268Z" fill="black"/>
<path d="M177.264 135.857C177.264 135.857 188.22 133.255 180.626 123.838C180.626 123.838 184.039 116.76 192.261 120.901C200.483 125.043 200.483 113.53 200.483 113.53" stroke="black" stroke-width="1.75" stroke-linecap="round" stroke-linejoin="round"/>
<path d="M189.091 105.53C194.194 109.641 204.452 117.945 208.998 109.125C209.525 108.133 211.054 108.902 210.578 109.925C207.054 118.026 198.478 114.876 193.263 110.431C192.807 110.107 186.914 105.014 189.101 105.53H189.091Z" fill="black"/>
<path d="M199.561 103.262C204.877 106.816 211.742 111.039 217.949 107.454C222.131 104.953 226.394 101.409 226.526 96.1639C226.627 94.5236 226.435 92.8225 226.171 91.1112C226.09 90.6252 226.425 90.1695 226.911 90.0986C227.376 90.0278 227.812 90.3315 227.913 90.7872C228.298 92.5389 228.561 94.3616 228.5 96.2551C228.541 102.148 223.782 106.593 219.023 109.277C215.681 111.241 211.499 111.231 207.955 109.935C206.193 109.338 204.583 108.426 203.095 107.383C202.579 107.12 197.404 102.887 199.551 103.262H199.561Z" fill="black"/>
<path d="M243.76 94.058C243.76 94.058 234.13 94.0478 231.467 98.9183C228.804 103.789 227.68 107.262 222.273 105.743" stroke="black" stroke-width="1.75" stroke-linecap="round" stroke-linejoin="round"/>
<path d="M233.017 97.0956C233.017 97.0956 236.338 102.462 246.079 104.67C255.82 106.877 254.007 111.393 254.007 111.393C254.007 111.393 257.592 106.887 259.799 107.323C262.007 107.758 260.245 101.065 261.136 98.4322C262.027 95.7996 266.006 93.1567 276.628 96.2552C287.25 99.3537 292.1 81.9576 289.012 76.7125C285.924 71.4674 281.053 70.5763 274.856 70.1409C268.659 69.7055 266.442 63.4984 266.442 63.4984" stroke="black" stroke-width="1.75" stroke-linecap="round" stroke-linejoin="round"/>
<path d="M260.943 105.774C260.943 105.774 260.255 113.53 267.333 116.628C274.411 119.727 272.649 115.302 272.649 115.302" stroke="black" stroke-width="1.75" stroke-linecap="round" stroke-linejoin="round"/>
<path d="M272.679 117.053C272.679 117.053 278.836 125.033 284.597 126.369" stroke="black" stroke-width="1.75" stroke-linecap="round" stroke-linejoin="round"/>
<path d="M289.893 79.9933C289.893 79.9933 292.12 86.5244 291.685 91.8404C291.25 97.1564 299.208 102.462 286.369 116.193C286.369 116.193 278.4 136.11 298.317 135.229" stroke="black" stroke-width="1.75" stroke-linecap="round" stroke-linejoin="round"/>
<path d="M312.919 105.774C312.919 105.774 292.323 108.659 291.553 118.846" stroke="black" stroke-width="1.75" stroke-linecap="round" stroke-linejoin="round"/>
<path d="M310.387 111.393C310.387 111.393 300.525 112.163 298.317 117.053C296.11 121.944 296.1 125.033 296.991 129.468C297.882 133.903 302.844 138.621 307.441 138.692C312.038 138.763 318.923 139.452 323.45 134.46" stroke="black" stroke-width="1.75" stroke-linecap="round" stroke-linejoin="round"/>
<path d="M317.577 138.014C317.577 138.014 315.602 142.499 319.359 145.051" stroke="black" stroke-width="1.75" stroke-linecap="round" stroke-linejoin="round"/>
<path d="M269.935 117.55C269.935 117.55 262.908 112.203 276.628 105.115C290.349 98.0273 289.933 101.257 289.933 101.257" stroke="black" stroke-width="1.75" stroke-linecap="round" stroke-linejoin="round"/>
<path d="M287.503 109.004C287.503 109.004 282.491 112.932 278.016 113.003" stroke="black" stroke-width="1.75" stroke-linecap="round" stroke-linejoin="round"/>
<path d="M303.36 88.7925C303.36 88.7925 310.711 86.9598 306.722 94.4832C302.732 102.007 297.427 101.126 297.427 101.126" stroke="black" stroke-width="1.75" stroke-linecap="round" stroke-linejoin="round"/>
<path d="M283.19 88.6002C283.19 88.6002 282.39 90.5039 279.737 92.2759" stroke="black" stroke-width="1.75" stroke-linecap="round" stroke-linejoin="round"/>
<path d="M266.887 58.6381C266.887 58.6381 269.54 63.5085 278.836 62.1821" stroke="black" stroke-width="1.75" stroke-linecap="round" stroke-linejoin="round"/>
<path d="M246.859 73.9077C246.859 73.9077 252.813 76.3379 254.099 70.5864C255.385 64.835 251.841 63.5085 260.255 59.9645" stroke="black" stroke-width="1.75" stroke-linecap="round" stroke-linejoin="round"/>
<path d="M156.071 107.869C156.83 109.418 157.691 111.17 159.311 111.555C160.324 111.596 161.427 111.423 162.4 111.211C164.992 110.715 166.916 108.527 167.26 105.925C167.29 105.783 167.219 105.611 167.321 105.682C167.159 105.601 167.088 105.409 167.159 105.247C167.24 105.085 167.432 105.014 167.594 105.085C168.1 105.358 168.09 106.037 168.08 106.523C167.979 110.725 164.263 113.044 160.354 112.983L159.767 112.993C158.126 113.033 156.83 111.616 156.233 110.289C155.899 109.55 155.636 108.811 155.494 108.021C155.463 107.859 155.575 107.697 155.737 107.667C155.879 107.636 156.02 107.728 156.071 107.859V107.869Z" fill="black"/>
<path d="M144.821 133.356C146.188 135.533 147.454 137.781 149.489 139.381C149.621 139.472 149.661 139.664 149.55 139.796C149.479 139.887 149.358 139.927 149.246 139.897C147.201 139.249 145.885 137.325 145.004 135.482C144.71 134.865 144.467 134.237 144.295 133.558C144.254 133.407 144.345 133.255 144.497 133.214C144.619 133.184 144.75 133.245 144.811 133.346L144.821 133.356Z" fill="black"/>
<path d="M139.667 136.323C141.702 138.257 144.153 140.11 146.998 140.505C147.332 140.545 147.302 141.072 146.958 141.062C145.409 141.062 143.92 140.485 142.614 139.705C141.318 138.905 140.153 137.943 139.151 136.789C139.029 136.647 139.039 136.424 139.191 136.303C139.333 136.181 139.546 136.191 139.667 136.333V136.323Z" fill="black"/>
<path d="M134.23 145.517C137.521 149.567 137.936 155.197 137.004 160.149C136.225 166.447 129.056 169.363 123.416 168.675C121.036 168.381 118.525 167.743 116.307 166.832C99.4176 160.574 100.207 149.719 114.454 140.555C114.758 140.373 115.032 140.819 114.748 141.011C107.194 146.428 99.5493 155.784 110.637 162.235C116.844 165.606 124.924 169.009 131.536 165.11C132.822 164.25 134.098 162.984 134.767 161.657L134.726 161.779C134.888 161.121 135.07 160.463 135.212 159.794C136.123 155.157 135.88 150.134 133.815 145.831C133.632 145.568 134.038 145.264 134.23 145.517Z" fill="black"/>
<path d="M142.006 157.962C147.9 151.785 154.917 146.702 162.541 142.864C165.083 141.578 167.756 140.545 170.47 139.685C170.672 139.624 170.895 139.735 170.966 139.938C171.027 140.13 170.926 140.343 170.743 140.424C163.048 143.786 155.828 148.2 149.105 153.233C146.857 154.904 144.649 156.655 142.503 158.458C142.189 158.751 141.713 158.276 142.017 157.962H142.006Z" fill="black"/>
<path d="M127.344 265.365C127.344 265.365 120.357 267.137 116.824 270.236C113.29 273.334 97.5847 266.034 100.562 257.953" stroke="black" stroke-width="1.75" stroke-linecap="round" stroke-linejoin="round"/>
<path d="M116.884 275.876C121.289 277.324 124.914 281.08 125.977 285.688C127.081 290.406 124.975 295.196 122.15 298.821C119.163 301.646 115.892 304.015 112.054 305.575C108.126 307.316 102.911 306.779 100.592 302.668C100.319 302.263 100.44 301.707 100.845 301.443C101.25 301.17 101.797 301.291 102.07 301.696C104.187 304.916 107.974 305.007 111.254 303.549C114.474 302.334 118.282 299.357 120.357 297.423C122.899 294.244 124.853 290.204 123.983 286.113C123.061 281.992 119.892 278.883 116.763 276.098C116.641 276.017 116.743 275.805 116.884 275.855V275.876Z" fill="black"/>
<path d="M105.534 283.683C107.002 281.435 109.341 279.906 111.771 278.843C112.055 278.731 112.328 279.086 112.146 279.319C111.751 279.896 111.305 280.392 110.839 280.878C110.485 281.465 105.199 285.738 105.534 283.683Z" fill="black"/>
<path d="M119.983 271.846C124.084 272.555 126.929 277.283 125.451 281.212C125.38 281.435 125.036 281.384 125.026 281.161C124.813 277.385 122.909 274.438 119.861 272.16C119.71 272.069 119.811 271.805 119.983 271.846Z" fill="black"/>
<path d="M123.932 300.269C125.917 300.654 127.456 302.314 128.165 304.137C128.286 304.451 127.871 304.734 127.628 304.511C126.261 303.236 124.934 302.203 123.659 300.846C123.416 300.633 123.618 300.218 123.932 300.269Z" fill="black"/>
<path d="M107.214 259.442C110.181 260.647 113.31 262.317 116.469 261.295C117.522 260.94 118.545 260.444 119.558 259.989C120.925 259.341 122.322 258.652 123.507 257.771C123.709 257.609 123.993 257.903 123.821 258.105C122.119 260.059 119.841 261.325 117.583 262.5C117.006 262.743 116.378 262.986 115.76 263.107C112.51 263.725 108.976 262.348 106.931 259.776C106.789 259.594 107.002 259.33 107.204 259.442H107.214Z" fill="black"/>
<path d="M112.378 254.926C114.798 254.116 117.34 253.721 119.466 252.475C120.104 252.05 120.438 251.685 120.489 251.179C120.55 250.693 120.985 250.349 121.471 250.399C121.886 250.45 122.2 250.774 122.251 251.169C122.453 253.579 119.75 254.824 117.846 255.239C117.36 255.533 111.052 256.05 112.378 254.926Z" fill="black"/>
<path d="M115.598 247.321C119.841 249.407 124.782 250.592 129.278 248.627C129.754 248.415 130.311 248.638 130.483 249.134C130.635 249.569 130.433 250.035 130.028 250.227C125.279 252.708 118.869 251.726 115.133 247.888C114.839 247.595 115.234 247.109 115.588 247.321H115.598Z" fill="black"/>
<path d="M118.434 283.44C121.755 289.536 118.333 298.102 112.105 300.816C111.963 300.887 111.781 300.826 111.71 300.684C111.65 300.563 111.68 300.431 111.771 300.34C112.358 299.763 113.047 299.327 113.553 298.71C115.143 297.089 116.358 295.024 116.905 292.816C117.786 289.769 117.482 286.771 117.867 283.592C117.877 283.308 118.282 283.197 118.434 283.44Z" fill="black"/>
<path d="M95.7116 247.645C96.3293 249.944 95.5192 253.002 96.8659 254.926C97.3924 255.412 98.2937 255.138 98.9822 254.936C99.2556 254.855 99.448 255.229 99.2252 255.402C94.4357 259.108 93.3725 250.46 95.1243 247.544C95.2458 247.281 95.6711 247.341 95.7116 247.635V247.645Z" fill="black"/>
<path d="M123.891 239.879C123.608 241.59 122.636 243.889 122.98 245.499C123.102 245.883 123.8 245.904 124.266 246.045C124.539 246.086 124.651 246.46 124.428 246.622C123.659 247.271 122.413 247.493 121.603 246.552C120.489 244.931 121.4 243.028 122.119 241.529C122.332 241.185 123.689 238.684 123.891 239.889V239.879Z" fill="black"/>
<path d="M295.685 435.093C277.833 438.212 195.055 450.322 193.698 469.895C193.719 470.25 193.091 470.3 193.111 469.885C194.114 452.378 252.954 441.726 268.062 438.87C277.226 437.291 286.41 435.802 295.644 434.739C295.746 434.729 295.827 434.8 295.847 434.901C295.857 434.992 295.786 435.083 295.695 435.103L295.685 435.093Z" fill="black"/>
<path d="M136.933 456.803C145.945 458.524 154.856 461.015 163.22 464.812C165.984 466.128 168.758 467.587 171.037 469.713C171.128 469.794 171.128 469.936 171.047 470.017C170.976 470.098 170.865 470.108 170.773 470.057C170.115 469.662 169.498 469.227 168.85 468.842C161.488 464.954 153.428 462.564 145.54 459.992L136.822 457.289C136.528 457.208 136.629 456.732 136.943 456.792L136.933 456.803Z" fill="black"/>
<path d="M85.7578 188.187C86.4565 187.964 87.2665 188.531 87.5703 189.463C87.7121 189.888 87.9349 191.204 86.8514 191.559" stroke="black" stroke-width="0.87" stroke-linecap="round" stroke-linejoin="round"/>
<path d="M88.9272 192.764C89.6563 192.764 90.2537 193.553 90.2537 194.536C90.2537 195.518 89.6563 196.308 88.9272 196.308" stroke="black" stroke-width="0.87" stroke-linecap="round" stroke-linejoin="round"/>
<path d="M90.2537 198.961C90.9827 198.961 91.5801 199.751 91.5801 200.733C91.5801 201.715 90.9827 202.505 90.2537 202.505" stroke="black" stroke-width="0.87" stroke-linecap="round" stroke-linejoin="round"/>
<path d="M90.6992 205.603C91.4283 205.603 92.0257 206.393 92.0257 207.375C92.0257 208.357 91.4283 209.147 90.6992 209.147" stroke="black" stroke-width="0.87" stroke-linecap="round" stroke-linejoin="round"/>
<path d="M90.2537 211.8C90.9827 211.8 91.5801 212.59 91.5801 213.572C91.5801 214.554 90.9827 215.344 90.2537 215.344" stroke="black" stroke-width="0.87" stroke-linecap="round" stroke-linejoin="round"/>
<path d="M89.6157 217.926C90.3448 218.028 90.8308 218.888 90.6992 219.86C90.5675 220.832 89.879 221.541 89.1499 221.44" stroke="black" stroke-width="0.87" stroke-linecap="round" stroke-linejoin="round"/>
<path d="M88.2285 223.212C88.9171 223.465 89.2006 224.417 88.8665 225.328C88.5323 226.239 87.702 226.786 87.0134 226.533" stroke="black" stroke-width="0.87" stroke-linecap="round" stroke-linejoin="round"/>
<path d="M85.1706 227.11C85.6161 227.444 85.5857 228.244 85.0997 228.892C84.6136 229.54 83.8542 229.793 83.4087 229.459" stroke="black" stroke-width="0.7" stroke-linecap="round" stroke-linejoin="round"/>
<ellipse cx="223" cy="601" rx="153" ry="9" fill="#316E72"/>
</svg>
