<svg width="426" height="639" viewBox="0 0 426 639" fill="none" xmlns="http://www.w3.org/2000/svg">
<rect width="426" height="639" fill="#EBECF0"/>
<g clip-path="url(#clip0_1700_83)">
<path d="M220.767 595.86C300.822 595.86 365.72 592.027 365.72 587.299C365.72 582.57 300.822 578.737 220.767 578.737C140.711 578.737 75.8137 582.57 75.8137 587.299C75.8137 592.027 140.711 595.86 220.767 595.86Z" fill="#D9D9D9"/>
<path d="M128.604 339.052L126.101 338.728L123.791 334.446L121.71 329.744L120.001 328.145L115.562 326.942L112.855 323.094L113.793 318.367L110.689 316.84L109.486 315.109L106.767 314.988L104.325 312.186L103.928 308.025L103.17 306.75H100.282L97.2865 305.019L96.4444 303.323L93.0396 301.075L90.2122 295.663L90.2243 291.899L91.6198 287.509L89.9355 280.979V274.172L91.8124 268.544L89.9355 263.229L87.1924 252.032L84.6538 245.563L97.455 239.25L117.186 236.652L123.154 235.69L123.791 254.138L118.317 254.871L119.58 255.4L120.218 260.728L123.695 294.183L125.836 320.857L128.604 339.052Z" fill="#9AC2CC"/>
<path d="M80.8282 242.677L76.5812 241.21L73.2365 235.822L70.5415 228.161L66.0419 222.557L64.3936 218.805L64.8628 214.187L63.1424 213.562L61.47 208.487L60.3391 202.547L61.9994 194.837L64.165 190.232L64.8749 187.574L64.8628 183.365L66.8721 180.984L64.8869 176.774L64.6824 171.543L66.1502 167.683L68.2556 165.062L67.7383 161.274L67.0886 152.747L66.5953 150.185L63.3469 147.984L61.9994 141.359L63.2146 138.508L64.1771 139.578L65.0794 140.276L67.4014 140.156L71.3476 138.508L76.5692 133.867L80.8282 128.154L80.8523 124.186L81.7786 120.65L85.015 116.453L87.6258 112.629L89.2982 110.765H91.5239L93.2684 110.837L95.3137 109.406L96.2642 106.856L97.4192 103.236L99.8013 100.459L103.76 98.414L106.575 96.3456L108.416 93.1588L111.339 88.5529L118.125 84.7647L124.634 81.7462L132.189 79.5936L135.991 78.391L138.277 77.6214L140.599 74.8554L143.583 72.9432L148.179 71.2356L152.811 70.3937L155.47 70.5983L158.176 67.2912L161.461 65.3429L165.07 64.3448L168.8 64.934L170.809 65.9442L171.399 64.3448L172.157 61.9877L174.31 62.8295L177.631 62.4085L181.012 59.2819L184.356 56.9368L188.146 56.095H190.204L193.163 51.5011L195.714 48.3143L198.168 47.4845L201.609 46.8471L205.351 46.0534L209.874 45.1876L216.155 45.9572L218.85 47.6889L224.613 52.7398L231.049 56.071L236.307 56.1672L240.482 57.3457L244.067 60.1718L247.039 61.5668L252.669 61.2421L258.396 61.9877L260.081 64.0923L260.273 68.5659L262.931 71.4762L270.03 74.2901L281.953 78.7999L285.815 83.2134L287.632 88.5649L289.268 89.6833L292.745 91.0182L296.968 98.5825L298.953 104.451L300.734 106.147L303.236 107.097L308.469 108.937L312.837 113.579L314.63 118.353L315.111 123.933L313.643 128.274L311.574 130.547L310.551 131.365L311.971 134.347L313.03 140.685L314.762 145.664L312.741 150.523L310.972 153.228L313.006 154.587L260.923 150.702L194.884 145.844L173.083 144.99L167.765 146.855L134.391 154.49L130.998 155.694L131.78 169.8L129.675 168.79L128.833 170.882L124.261 175.163L115.37 175.512L117.475 177.737L118.738 181.393L117.968 183.449L113.685 181.393L111.171 178.038L107.188 178.831L104.854 180.563L107.008 182.944L106.96 185.18L103.567 184.904L98.5501 180.142L94.3993 177.881L88.9372 179.012L83.824 182.234L81.0448 185.397L77.6159 191.434L75.1133 198.061L72.8275 203.833L72.0454 214.752L72.4665 222.606L75.4142 232.298L79.228 238.925L80.8282 242.677Z" fill="#9AC2CC"/>
<path d="M170.532 145.603L172.951 143.439L174.683 141.033L173.805 137.666L172.421 135.237L172.12 133.878L173.577 132.194L176.404 130.643L179.64 130.186L181.925 131.208L184.465 132.278L188.146 132.206L189.409 130.186L189.83 127.155L190.673 125.111L194.113 125.075L195.882 124.63L198.433 122.61L199.503 120.192L201.717 121.118L205.483 120.746L208.575 119.254L211.499 116.801L212.328 117.246H213.869L216.106 116.801L217.538 115.31L220.113 110.764L221.315 109.261L222.615 110.295L231.254 115.466L239.122 118.136L241.312 120.373L241.709 122.405L243.694 120.349L246.257 118.785L248.097 118.942L250.166 124.413L253.944 127.985H256.519L259.418 128.454L261.187 130.21L267.094 135.61L270.896 136.825L272.28 140.925L275.661 144.244L278.668 144.509L282.59 145.266L285.165 144.509L287.354 146.769L291.818 148.597L296.643 148.586L301.72 147.948V150.305L302.093 152.963L302.562 154.49L284.48 152.807L178.954 144.569L173.083 144.99L170.532 145.603Z" fill="#D9DADD"/>
<path d="M179.82 141.636C179.82 141.636 173.54 136.176 178.112 135.238C182.684 134.3 187.809 136.224 189.866 134.42C191.923 132.616 192.681 128.804 195.04 127.974C197.397 127.145 202.318 124.727 205.747 125.1C209.176 125.473 225.334 124.09 226.934 120.362C228.162 117.5 234.417 122.058 237.245 124.318C238.051 124.956 239.206 124.896 239.928 124.162L241.997 122.094L236.114 117.043L224.335 115.359L212.978 119.568L199.094 121.673L195.725 125.04L190.684 125.1L190.263 128.407L187.315 132.616L180.59 130.091L174.285 131.775L171.76 134.3L179.832 141.636H179.82Z" fill="#C4C5C6"/>
<path d="M84.9908 472.191L79.4083 462.487L77.9766 455.968L78.3616 450.244L81.4777 446.384L89.8994 440.828L98.237 435.296L122.708 419.674L127.918 414.118L131.612 408.309L134.439 401.888L136.785 392.568L137.386 385.353V377.788L135.461 370.958L132.538 358.439L127.738 333.966L125.091 313.438L122.949 285.718L120.808 265.646L119.58 255.401L122.949 253.717L122.684 237.325L123.154 235.69L127.834 233.369L137.663 227.453L148.106 222.462L157.37 219.263L177.414 214.897L200.286 211.374L225.96 208.38L237.209 205.662L241.986 202.847L245.751 200.298L248.482 200.382L249.83 201.958L251.238 204.94L251.346 208.957L252.934 210.508L257.638 212.047L271.39 217.483L278.813 220.598L283.324 222.751L286.152 226.394L285.718 230.194L284.648 238.962L283.625 240.597L281.833 247.824L278.524 261.894L275.769 273.896L272.966 283.998L269.645 292.789L265.771 300.462L259.659 307.905L260.357 310.66L263.593 322.324L268.635 341.458L273.459 360.194L278.596 361.914L293.009 363.862L318.852 363.357L331.052 361.866L344.178 359.341L353.972 356.863L359.181 356.779L363.03 358.775L365.641 362.684V372.136L362.417 386.049L356.931 396.681L349.761 407.48L341.315 418.111L325.866 432.879L310.936 445.121L292.949 457.941L276.828 467.729L265.518 473.382L254.967 477.687L233.106 487.728L220.943 493.549L207.191 499.959L195.28 503.422L177.39 506.958L158.225 507.896L147.252 505.358L132.225 500.043L112.217 493.97L106.226 492.455L99.5605 488.57L89.2618 478.36L84.9908 472.191Z" fill="#D9DADD"/>
<path d="M212.966 267.595H212.545L212.894 266.825L219.27 264.78L225.996 264.023L231.686 264.864L235.067 265.971L239.952 265.562L244.091 265.49L249.083 267.498L251.009 270.638L251.237 272.634L250.816 273.896H247.88L244.933 273.475L241.142 272.634L237.786 272.225H231.47L226.85 271.803L223.06 270.962L218.007 269.699L213.808 268.015L212.966 267.595Z" fill="#D9DADD"/>
<path d="M364.498 377.066C362.802 385.316 359.422 395.045 355.993 404.245C346.741 429.054 338.752 427.792 314.353 455.126C289.954 482.462 226.441 512.31 191.527 519.453C156.612 526.597 131.371 524.083 106.551 511.888C81.7302 499.694 78.3616 459.336 78.3616 459.336C78.3616 459.336 90.1401 488.763 109.486 493.392C128.832 498.023 150.705 507.271 157.021 507.692C163.337 508.112 191.936 508.534 219.704 494.235C247.471 479.936 268.261 473.238 275.745 468.391C283.168 463.581 354.272 425.17 364.511 377.079L364.498 377.066Z" fill="#5A5B5B"/>
<path d="M255.026 266.332C253.343 270.961 251.237 269.278 251.237 269.278C251.237 269.278 250.984 268.869 250.407 268.328C249.119 267.137 246.208 265.333 240.722 265.91C236.439 266.356 234.333 265.971 233.298 265.501C231.446 264.672 229.497 264.107 227.464 264.034C223.721 263.903 218.176 264.371 212.123 267.161C211.847 267.282 211.582 267.402 211.318 267.486C211.654 266.56 214.614 259.044 220.533 257.072C226.838 254.967 232.312 252.021 239.459 256.651C239.459 256.651 241.432 257.781 245.763 255.809C250.395 253.705 256.699 261.689 255.015 266.319L255.026 266.332Z" fill="#C4C5C6"/>
<path d="M83.1022 244.119L79.2281 238.924L77.3874 235.304L77.1829 192.191L81.7307 184.447L86.892 180.238L91.3917 177.833L95.3499 178.313L100.836 182.149L103.567 184.904L106.539 185.181L107.237 183.641L106.274 182.054L104.854 180.562L106.78 179.095L109.065 178.121L111.363 178.386L114.203 181.501L116.513 183.725L118.39 183.364L119.111 181.632L117.944 179.047L116.14 176.197L120.158 176.161L124.261 175.163L127.088 173.287L130.096 169.8L130.998 164.652V155.693L140.334 152.747L153.22 149.62L166.478 146.854L316.868 201.463L310.13 203.268L307.242 204.157V209.545L303.501 218.167L296.812 226.261L290.688 230.266L289.208 234.306L287.692 237.156L285.309 239.417L285.13 234.968L286.152 226.393L281.267 221.559L268.166 216.424L259.142 212.455L252.237 210.291L250.84 206.839L249.83 201.956L247.039 199.9L243.983 201.463L239.459 204.518L235.152 206.154L225.96 208.378L216.336 209.425L204.075 210.747L186.017 213.562L169.57 216.099L154.327 220.236L137.663 227.451L127.834 233.368L122.36 235.821L117.186 236.651L116.573 240.415L115.37 245.31L110.666 248.473L102.376 250.156L94.3272 249.711L88.4561 248.256L83.1022 244.119Z" fill="#24596B"/>
<path d="M89.7191 214.752C89.7191 227.211 85.7489 237.697 80.8883 237.313C75.4141 236.891 72.9597 227.944 72.0574 214.752C71.2153 202.413 76.0157 192.191 80.8883 192.191C85.7609 192.191 89.7191 202.293 89.7191 214.752Z" fill="#9AC2CC"/>
<path d="M83.4026 214.2C83.8237 223.833 81.5137 231.854 78.145 231.854C74.7762 231.854 72.0452 224.037 72.0452 214.404C72.0452 204.772 73.7536 196.113 77.0982 196.534C80.4429 196.955 82.9814 204.519 83.4026 214.188V214.2Z" fill="#9AC2CC"/>
<path d="M311.85 201.44L180.265 193.936C169.281 193.31 160.703 184.195 160.751 173.203L160.799 161.261C160.836 151.472 169.209 143.788 178.966 144.569L311.489 155.212C321.21 155.993 328.718 164.063 328.815 173.804L328.923 185.18C329.007 194.513 321.186 201.969 311.863 201.44H311.85Z" fill="#14303F"/>
<path d="M312.272 198.181L181.372 190.014C172.216 189.437 165.07 181.849 165.07 172.673V160.19C165.07 152.374 171.771 146.228 179.567 146.889L311.682 158.218C320.308 158.964 326.937 166.179 326.937 174.826V184.399C326.937 192.36 320.224 198.661 312.272 198.168V198.181Z" fill="#214859"/>
<path d="M236.234 237.096C236.812 236.844 236.836 236.075 236.271 235.786C233.083 234.21 224.913 230.939 222.856 237.12C221.147 242.267 232.192 238.864 236.234 237.085V237.096Z" fill="#14303F"/>
<path d="M94.3389 204.518C94.3389 204.518 93.2441 196.69 100.306 203.966C100.306 203.966 97.9602 199.516 99.2957 195.92L95.3375 196.509L93.4727 198.494L94.3268 204.507L94.3389 204.518Z" fill="#9AC2CC"/>
<path d="M88.5281 186.107C88.5281 186.107 91.1628 190.233 96.3242 189.811C96.3242 189.811 95.855 193.647 99.2959 195.932C99.2959 195.932 97.2146 197.797 98.2973 201.585C98.2973 201.585 94.8805 195.704 94.3992 201.585C93.9179 207.465 93.9179 200.646 93.9179 200.646L92.6547 194.441L90.5493 190.653L88.5281 186.107Z" fill="#EBECF0"/>
<path d="M223.482 281.472C223.482 281.472 239.892 269.278 243.67 281.472L239.88 279.788L233.311 279.211L228.944 279.368L223.469 281.472H223.482Z" fill="#214859"/>
<path d="M126.101 273.523C126.101 273.523 138.926 290.299 149.021 291.983C159.114 293.666 173.841 290.408 187.713 297.924C201.585 305.44 201.597 310.984 217.586 310.731C233.576 310.478 208.574 318.945 208.574 318.945L174.515 313.473L143.559 299.126L135.257 290.973L127.569 279.512L126.101 273.511V273.523Z" fill="#B1B1B2"/>
<path d="M127.569 277.263C127.569 277.263 138.926 296.18 154.495 301.231C170.063 306.281 182.588 303.756 192.092 308.374C201.597 312.992 223.361 315.096 225.527 302.277C227.693 289.457 248.506 289.181 245.667 309.925C242.828 330.658 272.953 283.997 272.953 283.997L267.203 298.044L259.647 307.905L254.064 315.24L247.231 318.705L234.827 324.357C234.827 324.357 230.616 332.751 219.259 336.13L215.048 333.195L209.994 331.511L203.69 329.829L196.965 331.511L189.397 334.037L186.871 335.3C186.871 335.3 190.66 327.736 197.386 325.21C197.386 325.21 170.533 318.488 151.993 308.387L146.915 305.44L141.862 300.81L135.137 292.404L130.396 283.889L127.569 277.275V277.263Z" fill="#858689"/>
<path d="M243.983 201.463L244.969 202.258C245.499 202.691 245.499 203.496 244.969 203.929L209.176 232.599C208.984 232.754 208.731 232.515 208.875 232.31C210.596 229.892 214.699 224.361 218.861 220.513C224.335 215.462 223.073 215.04 223.073 215.04C223.073 215.04 215.505 213.358 203.305 214.198C191.105 215.04 181.3 215.486 169.582 216.099L179.832 214.452L189.422 212.516L198.396 211.517L210.356 210.134L220.557 209.004L229.497 207.765L237.233 205.661L242.009 202.846L244.007 201.476L243.983 201.463Z" fill="#858689"/>
<path d="M103.976 310.659C103.976 310.659 109.895 306.161 113.264 301.808L109.065 304.598L103.976 306.233L104.145 309.168L103.976 310.659Z" fill="#14303F"/>
<path d="M95.8428 266.079C95.8428 266.079 98.2731 260.283 103.037 253.428L96.8655 260.031L95.8428 262.64V266.079Z" fill="#14303F"/>
<path d="M113.697 275.158C113.697 275.158 117.066 279.043 119.159 282.987V279.957L116.681 276.855L113.697 275.171V275.158Z" fill="#14303F"/>
<path d="M90.6814 283.877C90.6814 283.877 93.9178 288.616 97.2866 289.878L96.9857 290.972L94.3268 290.07L91.6198 287.509L90.6814 283.877Z" fill="#14303F"/>
<path d="M114.455 318.957L111.579 317.273L109.486 315.108L117.475 313.846L122.528 315.108L125.042 317.634L125.836 320.856L122.949 318.584L118.317 318.463L114.455 318.957Z" fill="#214859"/>
<path d="M113.601 319.331L114.371 325.548L119.159 328.723L122.684 330.647L124.441 334.327L126.101 338.729L127.954 339.053L127.99 336.552L126.727 328.146L125.235 320.389L122.949 318.585L119.159 318.489L115.333 318.609L113.601 319.331Z" fill="#5891A0"/>
<path d="M124.441 320.46C124.441 320.46 125.981 323.851 121.096 328.734L122.805 328.614L121.71 329.744L123.623 332.631L125.042 338.234L127.954 339.052L128.604 336.768L126.209 322.168L124.429 320.46H124.441Z" fill="#214859"/>
<path d="M113.493 319.715C113.493 319.715 118.654 323.756 124.585 322.793L125.837 320.857L123.418 318.945H119.364L115.767 318.656L113.793 318.368L113.505 319.715H113.493Z" fill="#4B808C"/>
<path d="M125.488 316.491L124.85 311.212C124.85 311.212 115.887 303.588 110.798 309.143C105.709 314.7 103.976 310.671 103.976 310.671L105.167 313.858L108.62 315.216L114.106 314.314H119.665L125.488 316.491Z" fill="#BCD9DD"/>
<path d="M117.788 302.277C117.788 302.277 122.516 301.687 123.358 292.415L124.429 300.786L124.838 306.233L124.694 308.374L121.084 305.055L117.788 302.277Z" fill="#214859"/>
<path d="M110.798 278.947L102.147 285.321L97.2867 289.879L95.1211 290.348L91.3914 288.219L90.2124 290.708L90.9703 298.285L93.9781 302.085L97.2867 303.456L105.612 304.069L116.909 290.973L115.442 281.833L110.798 278.947Z" fill="#D9DADD"/>
<path d="M84.6538 245.563L87.6135 251.191L89.0692 259.717L90.6093 267.45L91.6198 269.134L94.76 262.965L96.6368 266.477L98.5619 269.134L112.855 270.12L120.807 265.646L119.52 259.068L120.807 252.586L118.317 239.141L117.234 240.5L115.369 245.311L112.013 248.257L104.541 250.157H96.6368L88.4557 248.257L84.6538 245.563Z" fill="#5891A0"/>
<path d="M110.798 278.947C110.798 278.947 112.001 294.365 99.1755 299.054C99.1755 299.054 96.9017 299.547 92.4622 299.969L95.3617 302.975L100.282 306.739L112.903 300.389L118.317 289.855L113.493 280.474L110.786 278.935L110.798 278.947Z" fill="#9AC2CC"/>
<path d="M110.797 278.947C110.797 278.947 113.264 285.128 113.276 291.707C113.288 298.285 107.814 301.423 107.814 301.423L106.55 302.278C106.55 302.278 103.952 302.482 102.52 302.278C101.088 302.073 96.4563 303.324 96.4563 303.324L97.2985 305.007L101.93 307.1L107.826 305.38L113.288 301.797L117.27 297.178L118.918 293.017L119.267 289.145L117.679 284.191L110.809 278.935L110.797 278.947Z" fill="#4B808C"/>
<path d="M110.798 278.947C110.798 278.947 117.066 286.392 119.171 291.707V286.884L116.224 282.315L110.798 278.947Z" fill="#14303F"/>
<path d="M94.7599 262.964C94.7599 262.964 93.256 271.887 96.9496 275.831C100.643 279.776 102.676 279.139 103.555 283.877C103.555 283.877 94.5915 290.912 90.6693 283.877L89.7068 277.804L91.8604 267.99L94.7599 262.964Z" fill="#BCD9DD"/>
<path d="M93.0757 293.245C93.0757 293.245 103.17 294.087 104.854 290.299C104.854 290.299 100.643 297.443 93.0757 293.245Z" fill="#9AC2CC"/>
<path d="M93.4969 271.383C93.4969 271.383 92.5705 280.198 97.4551 282.314C97.4551 282.314 88.8769 279.801 93.4969 271.383Z" fill="#24596B"/>
<path d="M99.4402 274.173C99.4402 274.173 104.096 278.106 107.85 277.264L99.4402 274.173Z" fill="#24596B"/>
<path d="M96.9497 267.992C96.9497 267.992 98.971 257.637 101.907 254.619C104.842 251.6 95.8308 262.628 95.8308 262.628L96.9377 267.992H96.9497Z" fill="#14303F"/>
<path d="M120.218 260.728C120.218 260.728 113.865 271.755 96.9497 267.991L101.907 271.503L106.539 273.523L110.786 274.172L115.478 270.865L121.048 268.856L120.795 265.645L120.206 260.728H120.218Z" fill="#214859"/>
<path d="M118.317 254.87C118.317 254.87 114.527 264.66 102.328 263.397L105.383 265.393L108.259 265.802L111.58 265.501L115.478 263.445L120.206 260.728L119.231 254.75L118.305 254.87H118.317Z" fill="#214859"/>
<path d="M112.013 252.874C112.013 252.874 112.939 256.013 108.271 259.068L113.697 257.997L115.418 255.965V254.101L112.013 252.874Z" fill="#214859"/>
<path d="M117.246 239.417V240.499L117.198 245.502L116.212 249.507L117.667 251.299C117.667 251.299 118.762 255.171 121.914 254.233L123.767 253.427L122.985 246.897L122.684 237.325L123.166 235.677L118.618 235.81L117.186 236.639L117.258 239.405L117.246 239.417Z" fill="#14303F"/>
<path d="M148.178 119.339C148.178 119.339 154.35 122.646 159.464 116.91L159.271 119.988L156.612 122.61L152.822 123.464L149.995 122.61L148.178 119.327V119.339Z" fill="#D9DADD"/>
<path d="M76.9781 149.079C76.9781 149.079 65.2839 154.226 76.124 167.07L76.9781 162.777L79.4205 156.416L82.1757 150.511L82.1275 148.502L78.2053 148.731L76.9902 149.068L76.9781 149.079Z" fill="#214859"/>
<path d="M100.848 173.288C100.848 173.288 90.164 171.304 92.2575 154.479C94.3509 137.655 120.013 142.285 123.37 149.428L119.111 147.287L113.697 145.833L107.441 146.843L101.955 150.679L97.5151 156.836L95.3495 163.366L96.4443 168.79L100.848 173.299V173.288Z" fill="#D9DADD"/>
<path d="M76.978 162.788C76.978 162.788 71.949 150.583 80.828 152.747L76.978 162.788Z" fill="#14303F"/>
<path d="M215.288 89.4911C215.288 89.4911 218.886 91.8481 219.078 94.3616C219.27 96.8749 222.639 101.926 225.166 98.5706C227.693 95.2153 224.757 93.6641 224.757 93.6641L222.29 92.69C222.29 92.69 217.274 90.5132 216.383 89.4911H215.3H215.288Z" fill="#14303F"/>
<path d="M232.348 97.1877C232.348 97.1877 231.277 104.223 228.426 106.436L231.783 106.147C231.783 106.147 239.88 104.872 249.132 94.7825C249.132 94.7825 238.617 94.3616 233.984 91.4153H231.783L232.336 97.1756L232.348 97.1877Z" fill="#14303F"/>
<path d="M172.12 133.878C172.12 133.878 182.684 145.231 192.356 145.231L179.82 144.63L172.385 145.231L170.099 145.014L173.612 142.657L174.262 139.206L173.54 136.644L172.109 133.866L172.12 133.878Z" fill="#858689"/>
<path d="M279.006 113.279C279.006 113.279 284.226 113.387 286.032 112.28C287.836 111.174 291.205 108.228 291.205 108.228L292.745 104.44L292.877 101.998L289.954 100.952L288.318 101.457L286.682 104.452L283.601 107.121L278.993 108.24V113.279H279.006Z" fill="#14303F"/>
<path d="M194.427 101.926C194.427 101.926 200.743 110.272 206.638 109.25L211.366 105.63L209.513 105.366L204.376 106.424L200.526 105.63L196.543 104.031L194.414 101.926H194.427Z" fill="#14303F"/>
<path d="M199.503 110.488C199.503 110.488 208.371 114.011 210.873 110.488C213.375 106.964 210.873 106.014 210.873 106.014L209.08 107.794L206.061 109.49L201.188 110.332L199.503 110.476V110.488Z" fill="#14303F"/>
<path d="M239.302 123.824C238.918 124.041 238.436 123.969 238.135 123.644C236.884 122.237 233.311 118.749 228.943 118.749C223.469 118.749 223.77 125.664 206.589 123.476C206.589 123.476 203.799 121.467 197.651 123.476L199.07 121.155L202.968 120.998L207.323 119.988L211.499 116.801L213.869 117.246L216.106 116.801L218.549 113.651L220.101 110.752L221.304 109.249L222.604 110.283L227.066 113.651L231.242 115.454L237.654 116.909L241.564 122.526L239.302 123.824Z" fill="#858689"/>
<path d="M252.837 126.951C252.837 126.951 260.49 149.452 273.952 151.965L279.667 151.231L273.952 147.335L268.839 139.976L267.094 135.598L262.679 130.932L259.418 128.443L256.519 127.974L252.837 126.939V126.951Z" fill="#C4C5C6"/>
<path d="M267.094 135.611C267.094 135.611 263.858 148.611 278.163 152.387L285.948 153.156L298.773 154.48H302.562L301.443 151.508L301.72 147.937L294.212 148.514L287.355 146.746L284.371 143.908L281.845 145.027L277.2 144.366L272.99 141.984L270.776 138.232L269.272 136.284L267.094 135.586V135.611Z" fill="#858689"/>
<path d="M270.596 133.471L271.654 139.747L275.661 144.246L282.59 145.267L285.165 144.51L282.614 139.904L278.163 133.049L270.596 133.471Z" fill="#214859"/>
<path d="M297.51 117.272C297.51 117.272 301.684 115.792 300.024 122.948C298.364 130.103 299.133 122.611 299.133 122.611L297.51 120.855L295.103 122.611L289.942 123.79L284.624 126.074L282.795 130.055L281.953 137.247L283.637 143.933C283.637 143.933 279.378 131.39 270.788 134.949L271.895 128.275L274.867 124.138L278.031 119.015C278.031 119.015 277.321 123.369 279.426 124.631L281.845 122.238L287.776 119.785L291.422 119.015L297.521 117.26L297.51 117.272Z" fill="#14303F"/>
<path d="M124.032 122.623C124.032 122.623 122.107 133.049 133.464 135.575C133.464 135.575 138.024 136.657 141.008 134.432C141.008 134.432 137.278 134.793 132.634 132.652C127.99 130.512 126.318 127.998 126.318 127.998L125.055 125.473L124.032 122.623Z" fill="#14303F"/>
<path d="M124.633 141.034C124.633 141.034 117.511 132.014 122.54 144.509C122.54 144.509 124.802 148.057 124.08 152.747C123.358 157.437 125.969 158.447 125.969 158.447C125.969 158.447 124.369 152.807 125.969 149.44C127.569 146.073 127.701 146.842 127.701 146.842L125.331 142.97L124.633 141.021V141.034Z" fill="#14303F"/>
<path d="M118.919 151.701C119.436 151.34 119.231 150.534 118.618 150.45C116.958 150.234 113.962 150.198 112.47 152.483C110.725 155.152 116.621 153.348 118.931 151.701H118.919Z" fill="#14303F"/>
<path d="M111.171 141.105C111.171 141.105 115.069 147.179 118.654 145.219C118.943 145.063 118.967 144.665 118.714 144.473L117.559 143.607L114.636 143.222L112.53 142.031L111.171 141.105Z" fill="#14303F"/>
<path d="M308.025 144.51C308.025 144.51 302.586 151.124 305.522 154.491H302.562L301.72 152.266V147.961L308.025 144.521V144.51Z" fill="#14303F"/>
<path d="M241.143 123.38C241.143 123.38 239.711 122.238 239.207 123.417C239.122 123.609 238.869 123.633 238.773 123.453C238.4 122.731 237.474 121.516 235.236 119.893C234.995 119.713 234.766 119.508 234.574 119.28C233.864 118.438 231.686 116.117 227.656 113.928L234.165 116.514L239.122 118.149L241.312 120.374L241.697 122.406L241.143 123.38Z" fill="#484949"/>
<path d="M64.8987 194.43C64.8987 194.43 69.9518 183.919 79.6248 187.912L81.0565 185.399L77.9886 184.268L72.0572 183.354L68.6885 185.591L66.583 188.116L64.8987 194.418V194.43Z" fill="#24596B"/>
<path d="M77.6159 191.435C77.6159 191.435 69.6754 187.202 64.3335 197.123C64.3335 197.123 74.187 189.378 76.473 194.429L77.6039 191.435H77.6159Z" fill="#D9DADD"/>
<path d="M71.9487 194.766C71.9487 194.766 65.2714 195.018 63.8157 203.978C63.8157 203.978 66.7994 196.365 71.9487 194.766Z" fill="#D9DADD"/>
<path d="M74.524 194.766C74.524 194.766 71.5401 195.271 68.8452 199.059L74.524 194.766Z" fill="#D9DADD"/>
<path d="M64.8628 210.484C64.8628 210.484 68.3759 201.777 72.3222 206.515L72.8395 203.833L68.6887 203.268L65.8494 205.793L64.8748 208.836V210.496L64.8628 210.484Z" fill="#4B808C"/>
<path d="M64.8985 207.044C64.8985 207.044 64.4053 208.86 64.8625 210.471C64.8625 210.471 65.2595 202.836 72.6466 204.519L72.9715 203.028L70.5893 202.535L67.8823 203.256L65.837 205.782L64.8985 207.044Z" fill="#14303F"/>
<path d="M66.5951 212.323C66.5951 212.323 65.8251 209.017 67.8825 208.031C69.9398 207.044 70.4451 211.242 69.9879 212.084C69.5307 212.925 65.1514 216.184 67.341 220.02C69.5307 223.856 69.5307 218.806 69.5307 218.806L71.1309 219.648L72.8393 220.91L73.9822 227.115L74.6199 230.399C74.6199 230.399 75.041 235.606 72.2859 231.829C69.5307 228.053 70.2767 227.115 70.2767 227.115L68.2795 225.107L64.8747 221.692L64.4175 218.782L64.9348 214.741L65.3679 213.538L66.6192 212.299L66.5951 212.323Z" fill="#24596B"/>
<path d="M99.4402 256.652C99.4402 256.652 108.644 249.087 104.854 256.23C101.064 263.374 104.493 263.939 104.493 263.939C104.493 263.939 98.0326 267.86 97.443 263.939C96.8536 260.019 97.7919 259.069 97.7919 259.069L99.4283 256.652H99.4402Z" fill="#9AC2CC"/>
<path d="M90.6935 253.163C90.6935 253.163 95.4216 250.121 93.617 259.068L92.3658 259.754L90.6935 258.792L90.5972 256.206L90.6935 253.163Z" fill="#9AC2CC"/>
<path d="M91.3911 248.942C91.3911 248.942 95.3614 254.992 104.108 252.67C104.108 252.67 96.5044 251.348 95.8427 249.797L91.3911 248.942Z" fill="#214859"/>
<path d="M102.376 250.157C102.376 250.157 105.708 253.296 112.434 250.771C112.434 250.771 114.539 249.929 114.539 248.245C114.539 248.245 113.998 249.808 109.017 249.448L102.376 250.157Z" fill="#214859"/>
<path d="M66.1499 167.683C66.1499 167.683 64.9347 182.138 73.7415 175.464L75.113 171.64L72.7189 170.04L69.9878 167.082L68.7005 164.015L66.1619 167.695L66.1499 167.683Z" fill="#214859"/>
<path d="M82.5726 183.546C82.5726 183.546 71.131 174.839 64.8628 186.107L64.9952 188.898L67.8585 186.107L70.8784 183.811L75.1134 183.449L77.9768 184.267L80.395 186.107L82.5607 183.546H82.5726Z" fill="#D9DADD"/>
<path d="M105.696 133.878C105.696 133.878 93.5449 129.273 90.3687 146.506C87.1925 163.739 95.6142 145.496 95.6142 145.496L96.9016 139.555L100.282 135.827L103.386 134.72L105.696 133.867V133.878Z" fill="#D9DADD"/>
<path d="M80.8281 147.973C80.8281 147.973 85.7007 146.903 86.6512 146.074C87.6017 145.243 82.1636 150.523 82.1636 150.523L82.1155 148.514L80.8281 147.973Z" fill="#24596B"/>
<path d="M97.6717 128.467C97.6717 128.467 92.3419 131.714 85.9774 133.217C79.6129 134.72 74.1508 141.106 74.1508 141.106C74.1508 141.106 71.9611 144.197 72.6349 145.977C72.6349 145.977 86.9158 141.455 89.1536 137.884C91.3915 134.312 94.7602 132.207 94.7602 132.207L97.6717 128.467Z" fill="#5891A0"/>
<path d="M61.9993 143.571C61.9993 143.571 74.2229 147.491 81.1288 139.843C88.0347 132.194 103.386 121.203 103.386 121.203C103.386 121.203 100.066 120.83 99.3079 117.679L98.0927 115.527L98.971 111.173L99.2357 107.097L100.234 103.609L104.866 97.9328L99.8132 100.446L97.431 103.224L95.9993 107.806L95.3256 109.393L93.2803 110.824L89.2979 110.752L86.9158 113.651L81.7785 120.65L81.0447 122.622L80.8882 125.412L80.1423 129.236L76.569 133.866L72.9717 137.51L67.4013 140.155L64.1769 139.578L63.2144 138.508L61.9993 143.571Z" fill="#EBECF0"/>
<path d="M63.3465 147.984C63.3465 147.984 69.5185 146.506 69.5185 150.702H66.6911L63.3345 147.984H63.3465Z" fill="#14303F"/>
<path d="M81.8987 152.111C81.8987 152.111 82.4642 148.189 84.8343 149.453C87.2044 150.715 82.1514 154.503 81.3091 156.175C80.467 157.846 76.8817 163.246 76.99 166.228C77.0982 169.211 76.6772 166.685 76.6772 166.685L76.6169 164.677L76.99 161.996L77.9404 159.542L80.0459 156.175L81.9107 152.111H81.8987Z" fill="#EBECF0"/>
<path d="M95.614 114.337C95.614 114.337 89.3578 114.926 87.6494 119.147C85.941 123.368 87.9261 123.416 85.4597 124.859C85.4597 124.859 89.7188 123.368 88.8765 120.843C88.0344 118.317 95.614 114.337 95.614 114.337Z" fill="#9AC2CC"/>
<path d="M94.3027 121.264C94.3027 121.264 94.3389 125.906 88.4557 127.156C82.5724 128.419 79.8894 134.636 79.8894 134.636" fill="#9AC2CC"/>
<path d="M108.644 151.123C108.644 151.123 99.2837 158.207 102.484 169.8L100.222 166.684L99.2957 163.365L99.801 160.792L101.136 158.134L103.591 155.332L106.117 152.386L108.644 151.123Z" fill="#14303F"/>
<path d="M122.54 152.747C122.54 152.747 110.328 157.016 112.013 169.21L110.75 165.422V160.792L112.145 156.932L114.96 155.332L117.487 153.649L122.552 152.747H122.54Z" fill="#14303F"/>
<path d="M116.777 166.866C116.777 166.866 125.656 160.745 128.303 166.866L129.458 167.684L130.108 165.013L128.844 162.897L125.476 162.056L122.54 162.489L120.11 163.366L116.777 166.866Z" fill="#14303F"/>
<path d="M114.984 172.53C114.984 172.53 124.633 165.423 128.844 170.882L129.265 168.357L126.739 167.516L122.528 167.094L118.882 168.67L114.984 172.519V172.53Z" fill="#14303F"/>
<path d="M113.252 148.513C113.252 148.513 103.735 153.805 104.289 164.868C104.289 164.868 104.012 166.684 105.275 168.368C105.275 168.368 108.608 155.163 113.252 148.526V148.513Z" fill="#EBECF0"/>
<path d="M87.096 149.825C87.096 149.825 85.5801 154.346 87.6494 159.036C89.7188 163.727 88.8766 161.634 88.8766 161.634C88.8766 161.634 88.0344 159.95 89.2977 156.583C89.2977 156.583 86.9997 154.419 87.096 149.825Z" fill="#4B808C"/>
<path d="M90.1403 154.912C90.1403 154.912 87.6136 156.175 88.8769 161.634V165.843L89.9838 167.684L91.8126 169.631L93.4969 171.315C93.4969 171.315 88.4439 158.279 90.1282 154.912H90.1403Z" fill="#D9DADD"/>
<path d="M85.039 159.843C85.039 159.843 82.9335 165.604 83.5952 168.67L83.4629 172.543L82.5726 175.104L82.1756 176.607C82.1756 176.607 81.5139 181.285 87.9265 179.661L92.402 177.966C92.402 177.966 86.7715 172.265 86.567 164.016L85.039 159.855V159.843Z" fill="#5891A0"/>
<path d="M85.9294 159.902C85.9294 159.902 82.0914 178.025 98.7305 176.774C98.7305 176.774 97.6476 175.452 97.6717 173.588L93.4969 171.303L89.9838 167.671L88.528 164.64L88.8769 161.634L87.2888 159.902H85.9414H85.9294Z" fill="#24596B"/>
<path d="M199.503 120.193L191.334 116.609C191.334 116.609 179.628 108.961 175.465 98.9311C175.465 98.9311 173.877 95.8404 173.432 92.377C173.432 92.377 184.766 113.23 200.334 114.938C215.902 116.645 205.471 120.746 205.471 120.746L200.671 121.155L199.492 120.193H199.503Z" fill="#4B808C"/>
<path d="M103.386 121.216C103.386 121.216 94.7721 120.855 102.34 107.819C102.34 107.819 100.667 112.918 102.34 115.84C104.012 118.762 107.67 116.922 107.67 116.922L103.386 121.216Z" fill="#4B808C"/>
<path d="M123.286 106.76C123.286 106.76 120.049 124.15 122.335 129.225L120.158 123.464L120.001 117.487L120.843 113.278L122.299 108.672L123.286 106.76Z" fill="#14303F"/>
<path d="M139.203 89.4911C139.203 89.4911 133.862 102.118 129.037 106.436C124.213 110.753 121.06 111.174 120.736 113.916C120.411 116.658 119.857 121.263 119.857 121.263L119.051 124.871L117.078 126.326L114.106 125.485L109.474 122.117L107.658 116.922L109.053 111.186L112.314 106.76L116.152 101.926L121.253 96.4541L124.068 93.8806L126.715 90.9823L130.505 89.2987L133.308 88.5291H135.462L139.203 89.467V89.4911Z" fill="#4B808C"/>
<path d="M110.689 108.985C110.689 108.985 117.896 104.884 121.265 96.4661L110.689 108.985Z" fill="#14303F"/>
<path d="M119.051 124.872C119.051 124.872 112.025 114.553 122.732 107.819L119.761 116.922L119.857 121.264L119.051 124.872Z" fill="#EBECF0"/>
<path d="M140.49 101.806C140.49 101.806 151.98 106.977 151.559 114.962C151.559 114.962 153.244 113.278 153.244 109.911L152.858 106.989L151.559 103.597L149.718 101.974L147.348 100.651L143.342 100.819L140.49 101.794V101.806Z" fill="#4B808C"/>
<path d="M140.49 101.806C140.49 101.806 149.454 100.242 153.244 108.227L152.594 106.135L151.571 104.018L150.308 102.335L147.902 100.819H143.907L141.898 101.493L140.502 101.793L140.49 101.806Z" fill="#214859"/>
<path d="M144.581 106.927C144.581 106.927 140.202 101.359 134.944 105.641C129.686 109.922 129.289 118.316 132.646 122.946C136.003 127.576 140.563 129.536 141.02 129.404C141.405 129.284 134.607 125.544 134.691 118.905C134.715 116.981 135.967 115.285 137.771 114.624C141.104 113.397 146.506 110.764 144.593 106.94L144.581 106.927Z" fill="#24596B"/>
<path d="M322.486 198.217C318.431 201.994 307.182 204.531 307.182 204.531C307.182 204.76 307.158 204.988 307.146 205.205C305.967 224.434 289.941 230.591 289.941 230.591C289.099 239.418 284.058 238.997 284.058 238.997C284.058 238.997 282.374 244.878 276.069 272.634C269.765 300.389 259.659 308.375 259.659 308.375C262.185 315.939 273.543 360.506 273.543 360.506C292.468 366.808 327.803 364.295 350.939 357.56C365.1 353.447 367.277 362.551 364.727 375.912C364.727 375.972 364.703 376.02 364.691 376.068C364.631 376.393 364.571 376.717 364.498 377.042" stroke="black" stroke-width="1.4" stroke-linecap="round" stroke-linejoin="round"/>
<path d="M78.3615 459.324C78.3615 459.324 75.8349 449.234 83.8356 444.604C91.8364 439.974 104.866 430.305 118.329 422.741C131.792 415.177 141.044 393.734 135.991 373.122C133.344 362.347 130.709 350.766 128.616 339.041C126.703 328.35 125.235 317.539 124.633 307.112C123.37 285.249 119.58 255.401 119.58 255.401" stroke="black" stroke-width="1.4" stroke-linecap="round" stroke-linejoin="round"/>
<path d="M234.718 324.069C240.313 321.471 246.063 318.981 251.189 315.542C254.053 313.341 256.688 310.587 259.009 307.845C259.31 307.485 259.839 307.436 260.188 307.737C260.537 308.026 260.586 308.543 260.309 308.904C257.12 312.884 253.354 316.468 248.723 318.693C244.235 320.978 239.615 322.89 234.934 324.658C234.574 324.802 234.333 324.237 234.695 324.081L234.718 324.069Z" fill="black"/>
<path d="M312.272 198.181L181.372 190.015C172.216 189.438 165.07 181.85 165.07 172.673V160.191C165.07 152.374 171.771 146.228 179.567 146.89L311.682 158.218C320.308 158.965 326.937 166.18 326.937 174.827V184.399C326.937 192.36 320.224 198.661 312.272 198.168V198.181Z" stroke="black" stroke-width="1.4" stroke-linecap="round" stroke-linejoin="round"/>
<path d="M165.07 161.875C165.07 154.058 171.687 147.913 179.387 148.574L309.913 159.903C318.443 160.648 324.988 167.864 324.988 176.51V186.083C324.988 189.571 323.713 192.733 321.631 195.15" stroke="black" stroke-width="1.4" stroke-linecap="round" stroke-linejoin="round"/>
<path d="M311.85 201.44L180.265 193.936C169.281 193.31 160.702 184.195 160.751 173.203L160.799 161.261C160.835 151.472 169.209 143.788 178.966 144.57L311.489 155.212C321.211 155.994 328.718 164.063 328.814 173.804L328.922 185.18C329.006 194.513 321.186 201.969 311.862 201.44H311.85Z" stroke="black" stroke-width="1.4" stroke-linecap="round" stroke-linejoin="round"/>
<path d="M109.065 230.17V236.832C109.065 236.832 120.844 237.314 125.475 234.788C130.108 232.262 143.137 222.173 162.495 217.964C181.841 213.755 190.263 212.492 204.977 210.82C219.704 209.137 236.523 208.295 242.84 202.414C249.143 196.534 252.092 204.098 251.249 209.978C254.161 210.857 257.181 211.843 260.296 212.973C265.253 214.777 269.838 216.713 274.048 218.685C275.684 219.455 277.369 220.104 279.09 220.67C281.724 221.536 284.984 223.135 285.743 225.949C285.899 226.55 285.923 227.104 285.815 229.003C285.61 232.322 285.249 235.137 284.913 237.301" stroke="black" stroke-width="1.4" stroke-linecap="round" stroke-linejoin="round"/>
<path d="M83.4026 214.2C83.8237 223.833 81.5137 231.854 78.1449 231.854C74.7762 231.854 72.0452 224.037 72.0452 214.404C72.0452 204.772 73.7535 196.113 77.0982 196.534C80.4429 196.955 82.9814 204.519 83.4026 214.188V214.2Z" stroke="black" stroke-width="1.4" stroke-linecap="round" stroke-linejoin="round"/>
<path d="M89.7187 214.754C89.7187 227.212 85.7483 237.699 80.8878 237.314C75.4136 236.893 72.9592 227.946 72.0569 214.754C71.2147 202.415 76.0152 192.193 80.8878 192.193C85.7604 192.193 89.7187 202.295 89.7187 214.754Z" stroke="black" stroke-width="1.4" stroke-linecap="round" stroke-linejoin="round"/>
<path d="M76.1357 195.439C78.6623 186.167 83.6552 181.297 89.7189 178.868C89.7189 178.868 95.1931 174.659 102.34 183.919C102.34 183.919 104.024 186.023 106.55 185.181C109.077 184.34 104.866 180.552 104.866 180.552C104.866 180.552 109.582 175.982 112.265 179.109C114.948 182.235 116.224 184.761 117.896 183.498C119.568 182.235 119.159 180.131 116.212 176.775" stroke="black" stroke-width="1.4" stroke-linecap="round" stroke-linejoin="round"/>
<path d="M77.6516 235.823C81.1888 243.893 86.8675 248.523 93.0755 249.521C93.0755 249.521 104.012 251.625 111.158 248.258C118.305 244.891 117.174 236.653 117.174 236.653" stroke="black" stroke-width="1.4" stroke-linecap="round" stroke-linejoin="round"/>
<path d="M87.4209 187.31C97.0218 193.985 95.4457 207.693 94.5914 217.88C94.2305 221.355 94.05 224.903 93.1477 228.294L93.0755 228.474L93.0273 228.583C93.0273 228.583 93.0034 228.631 92.9793 228.655C92.6665 229.172 91.8965 228.534 92.4739 228.15C92.3055 228.27 92.3777 228.234 92.3537 228.246C92.5822 227.453 92.6304 226.623 92.7145 225.805C93.0875 221.68 93.2559 216.593 93.3883 212.42C93.641 205.457 93.5448 198.157 90.2963 191.868C89.4661 190.352 88.4315 188.861 87.084 187.815C86.7952 187.61 87.1081 187.117 87.4209 187.31Z" fill="black"/>
<path d="M123.514 235.811C123.647 242.701 123.96 249.593 124.417 256.459C124.886 263.29 125.488 270.085 128.098 276.482C133.055 288.99 140.683 301.448 152.726 308.195C152.955 308.291 152.798 308.7 152.557 308.58C148.491 307.04 144.822 304.346 141.682 301.352C134.896 294.521 129.975 286.019 126.426 277.119C123.671 270.674 123.045 263.506 122.564 256.592C122.083 249.677 121.914 242.762 121.83 235.835C121.83 234.765 123.478 234.681 123.514 235.811Z" fill="black"/>
<path d="M255.027 266.332C253.343 270.961 251.237 269.278 251.237 269.278C251.237 269.278 250.984 268.869 250.407 268.328C249.12 267.138 246.208 265.333 240.722 265.911C236.439 266.356 234.333 265.971 233.298 265.502C231.446 264.672 229.497 264.107 227.464 264.035C223.722 263.903 218.176 264.371 212.123 267.162C211.847 267.282 211.583 267.402 211.318 267.487C211.654 266.561 214.614 259.044 220.533 257.072C226.838 254.967 232.312 252.021 239.459 256.651C239.459 256.651 241.432 257.781 245.763 255.809C250.395 253.705 256.699 261.69 255.015 266.32L255.027 266.332Z" stroke="black" stroke-width="1.4" stroke-linecap="round" stroke-linejoin="round"/>
<path d="M251.153 268.063C254.787 274.376 251.778 276.157 245.415 274.774C239.64 273.162 233.937 273.607 228.018 273.355C222.05 272.705 216.359 270.817 210.909 268.352C210.476 268.159 210.319 267.642 210.512 267.221C210.512 267.197 211.595 268.292 211.595 268.292C210.175 268.845 208.382 268.64 206.975 268.099C206.71 267.99 206.794 267.57 207.084 267.581C208.503 267.69 209.742 267.148 211.006 266.704C211.679 266.547 212.328 267.101 212.088 267.786L212.052 267.882L211.631 266.825C215.108 268.412 218.79 269.735 222.519 270.661C226.321 271.658 229.979 271.947 233.948 271.743C237.919 271.695 241.937 272.212 245.764 273.114C246.726 273.331 247.471 273.499 248.495 273.475C250.48 273.51 251.574 273.426 250.816 271.346C250.551 270.54 250.058 269.65 249.625 268.785C249.132 267.798 250.66 267.064 251.141 268.051L251.153 268.063Z" fill="black"/>
<path d="M252.079 209.991C252.308 213.491 253.463 217.111 254.63 220.453C256.35 225.312 260.044 232.275 255.737 237.085C252.536 240.717 247.387 241.21 243.971 244.241C243.465 244.83 243.213 245.671 243.068 246.586C243.032 246.851 242.623 246.862 242.587 246.586C242.106 244.517 243.429 242.461 245.234 241.523C248.314 239.683 252.056 238.577 254.413 235.943C257.915 231.53 254.365 225.745 252.861 221.103C251.598 217.483 250.588 213.911 250.395 210.015C250.383 208.884 252.079 208.86 252.079 210.015V209.991Z" fill="black"/>
<path d="M220.221 224.493C218.006 227.151 218.44 231 218.391 234.307C218.656 237.277 217.706 242.028 221.411 242.942C221.725 243.013 221.665 243.506 221.34 243.495C216.828 243.422 216.923 237.566 216.815 234.331C216.852 230.903 216.792 226.249 220.016 224.097C220.281 223.989 220.461 224.349 220.221 224.506V224.493Z" fill="black"/>
<path d="M236.234 237.097C236.812 236.845 236.836 236.075 236.271 235.786C233.083 234.211 224.913 230.94 222.856 237.121C221.147 242.268 232.192 238.865 236.234 237.085V237.097Z" stroke="black" stroke-width="1.4" stroke-linecap="round" stroke-linejoin="round"/>
<path d="M257.192 234.006C258.203 236.459 258.455 239.778 256.314 241.775C254.895 242.881 253.354 243.627 251.899 244.625C250.804 245.395 249.552 246.032 248.422 246.693C248.325 246.754 248.193 246.73 248.133 246.622C248.133 245.756 248.867 245.106 249.3 244.565C250.792 243.098 252.572 241.979 254.293 240.825C256.494 239.55 256.182 236.688 255.605 234.535C255.316 233.537 256.808 233.032 257.192 233.994V234.006Z" fill="black"/>
<path d="M255.375 236.219C257.252 238.119 255.893 240.584 253.799 241.546C252.127 242.556 250.335 243.133 248.818 244.18C248.747 244.228 248.638 244.216 248.59 244.132C248.554 244.072 248.554 243.988 248.59 243.939C249.204 243.158 250.022 242.593 250.828 242.087L253.259 240.656C254.798 239.827 255.893 238.384 254.726 236.881C254.317 236.472 254.942 235.822 255.364 236.231L255.375 236.219Z" fill="black"/>
<path d="M236.342 243.989C236.583 242.197 237.774 240.681 239.218 239.671C240.613 238.745 242.202 238.168 243.261 237.013C243.393 236.845 243.682 236.977 243.646 237.194C243.273 238.997 241.372 239.972 240.049 240.873C238.785 241.739 237.666 242.809 236.667 244.121C236.571 244.265 236.331 244.168 236.355 244L236.342 243.989Z" fill="black"/>
<path d="M109.269 187.465C111.76 192.095 112.686 197.363 113.071 202.558C113.336 207.741 113.18 213.069 111.64 218.047C111.483 218.564 110.653 218.432 110.677 217.879C111.231 207.789 112.253 197.399 108.836 187.67C108.704 187.405 109.113 187.189 109.257 187.454L109.269 187.465Z" fill="black"/>
<path d="M117.776 187.454C122.877 199.192 122.973 213.238 118.437 225.155C118.377 225.275 118.172 225.239 118.197 225.083C119.556 215.751 120.47 206.31 119.051 196.918C118.63 193.816 118.004 190.713 117.174 187.694C117.042 187.322 117.607 187.069 117.776 187.442V187.454Z" fill="black"/>
<path d="M315.111 155.863C315.111 155.863 311.393 153.649 310.972 153.229C310.55 152.807 313.534 150.15 313.727 148.538C313.919 146.927 315.062 145.713 313.017 141.275C313.017 141.275 313.498 132.207 308.024 129.682" stroke="black" stroke-width="1.4" stroke-linecap="round" stroke-linejoin="round"/>
<path d="M310.972 130.944C310.972 130.944 318.431 127.036 313.499 114.962C310.731 108.191 304.583 107.049 301.479 106.928C300.372 106.88 299.422 106.135 299.121 105.076C297.834 100.386 294.056 88.7332 288.678 89.7434" stroke="black" stroke-width="1.4" stroke-linecap="round" stroke-linejoin="round"/>
<path d="M279.691 107.831C286.019 106.351 289.22 100.699 287.788 94.3497C287.031 90.4172 286.826 85.9916 284.456 82.7086C280.485 77.9944 273.916 76.5513 268.237 74.5551C266.625 74.1942 264.652 73.4125 263.004 72.4985C261.091 71.3922 258.998 69.5041 259.214 67.0148C259.226 66.7381 259.25 66.4375 259.262 66.2692L259.323 65.6799C259.299 64.802 259.069 63.9121 258.288 63.407C254.51 61.1582 249.408 62.6494 245.21 61.5791C243.309 61.1462 241.949 59.4264 240.529 58.3922C238.364 56.901 235.657 56.9251 233.046 56.937C227.885 56.0231 223.397 53.3173 219.415 50.0583C218.272 49.1564 216.756 47.6291 215.71 46.5948L216.082 46.8233C214.013 46.2822 211.764 45.9695 209.622 46.0536C208.034 46.1138 206.458 46.4024 205.05 47.124C202.572 48.7354 198.782 47.8095 196.737 48.7234C195.882 49.1083 195.196 49.8297 194.607 50.6836C193.26 52.6799 192.875 55.1091 190.66 56.5523C190.059 56.949 189.349 57.1054 188.712 57.1896L187.003 57.3219C184.921 57.4542 183.141 58.6207 181.553 60.124C179.688 62.1082 176.548 64.2849 173.384 63.5754C173.107 63.5393 172.589 63.4671 172.469 63.5033C172.169 63.9963 172.157 65.4514 172.157 66.197C172.157 66.666 171.771 67.0388 171.302 67.0388C165.311 64.2969 159.439 65.3191 156.023 71.2959C155.842 71.5485 155.566 71.6687 155.277 71.6567C152.173 71.5485 148.888 71.9214 145.929 72.9075C143.005 73.8696 140.31 75.6373 138.83 78.3552C138.71 78.5837 138.493 78.728 138.265 78.7881C129.169 81.1452 119.436 83.7788 112.085 89.8039C109.45 91.9324 108.969 95.3237 106.455 97.5965C104.229 100.002 100.439 100.242 98.7305 102.912C98.2853 103.501 98.0928 104.235 97.8041 104.872C96.986 107.277 96.8897 110.765 93.9301 111.715C92.0532 112.124 90.9463 111.138 89.5266 112.088C88.3717 112.882 87.71 114.469 86.8317 115.623C85.1954 118.233 82.32 120.217 81.923 123.32C81.7064 124.462 81.959 125.773 81.7907 126.94C81.4538 129.153 80.1183 131.089 78.8309 132.736C76.3526 135.959 66.102 145.099 63.1423 139.567C63.1183 139.507 63.1062 139.531 63.0942 139.495C63.1784 139.603 63.4912 139.615 63.5875 139.543C63.6236 139.543 63.6476 139.495 63.6236 139.543C63.5875 139.567 63.5033 139.699 63.4552 139.832C61.9753 143.571 63.407 149.597 68.1593 149.981C72.1537 150.498 75.7871 148.105 79.7453 147.612C80.8161 147.516 81.8989 147.372 82.7892 148.382C83.2705 149.067 83.1381 149.681 83.09 150.174C82.8133 151.484 82.2117 152.615 81.6342 153.758C79.4446 157.966 76.7616 162.188 76.8458 167.083C75.9916 168.465 76.4247 162.356 76.6413 162.175C77.4835 157.798 80.1905 154.07 81.4778 149.897C81.5139 149.608 81.4899 149.332 81.4538 149.344C81.4297 149.332 81.2853 149.212 80.9605 149.199C80.6597 149.175 80.3108 149.199 79.9378 149.248C75.9315 149.837 72.2018 152.255 67.9187 151.689C64.2011 151.424 61.3978 147.877 61.1813 144.293C60.9647 142.718 61.0128 137.474 63.6717 137.811C64.3455 137.967 64.6583 138.569 64.9591 139.098C65.1275 139.41 65.5967 139.519 66.2704 139.447C71.0829 138.508 79.6731 131.173 79.8897 125.966C79.7694 124.114 79.8656 122.129 80.768 120.422C81.959 118.197 83.8841 116.525 85.2075 114.493C86.5429 112.352 88.3115 109.298 91.3313 109.695C92.2457 109.755 93.0157 109.923 93.4488 109.791C94.5557 109.454 94.9407 107.746 95.2776 106.628C97.4672 96.1174 103.832 100.832 107.622 92.4856C112.097 83.6345 128.808 79.4135 137.892 77.1285L137.326 77.5615C140.84 71.296 148.744 69.8047 155.373 69.9611L154.591 70.382C158.068 64.0443 165.347 62.2044 171.7 65.4394L170.46 66.1729C170.544 64.826 170.316 63.443 171.266 62.2886C172.469 61.2303 173.829 62.1803 175.129 61.9759C177.895 61.8075 179.664 59.3302 181.746 57.7308C183.177 56.5883 184.994 55.7946 186.822 55.6503C187.472 55.6021 189.229 55.5541 189.771 55.1212C190.505 54.6883 191.069 53.7623 191.563 52.8363C193.055 49.3848 195.088 46.2821 199.684 46.5587C201.717 46.6188 203.365 46.1739 205.098 45.2239C206.494 44.6947 208.07 44.4061 209.538 44.358C212.016 44.358 214.627 44.4422 216.913 45.4163L218.657 47.136C222.736 50.8881 227.717 54.2553 233.227 55.2535C234.321 55.2535 237.137 55.2054 238.773 55.7585C240.626 56.1434 242.346 57.5985 243.622 58.8251C244.837 59.9435 246.413 60.2803 248.145 60.2923C252.657 60.4607 261.717 59.5827 260.911 66.4736C260.357 70.382 265.626 72.0656 268.719 72.9435C272.737 74.2303 276.791 75.5051 280.629 77.5495C282.53 78.5717 284.42 79.8585 285.779 81.6984C287.162 83.5264 287.849 85.7271 288.293 87.8075C289.016 92.1129 290.339 96.2738 289.388 100.663C288.353 105.173 284.396 108.456 279.98 109.478C278.813 109.695 278.572 108.023 279.667 107.831H279.691Z" fill="black"/>
<path d="M67.1724 150.68C66.8115 157.222 67.5454 161.648 68.7004 164.642C71.0103 170.679 74.9927 170.883 74.9927 170.883C74.9927 170.883 76.0635 174.671 71.9488 176.764C67.8342 178.869 64.4775 182.235 64.8985 189.379" stroke="black" stroke-width="1.4" stroke-linecap="round" stroke-linejoin="round"/>
<path d="M66.5828 180.984C66.5828 180.984 60.7236 171.868 68.7003 164.653" stroke="black" stroke-width="1.4" stroke-linecap="round" stroke-linejoin="round"/>
<path d="M79.1194 185.855C72.5023 181.658 66.8356 186.372 64.0323 192.529L62.8774 195.175C61.4938 198.843 61.6622 203.1 62.1073 206.972C62.4081 208.331 62.6848 214.44 64.9226 213.034C65.6445 212.588 66.3183 211.795 67.1244 211.109C67.2326 211.014 67.4011 211.025 67.4973 211.133C67.5575 211.206 67.5815 211.302 67.5455 211.386C67.0161 212.961 65.8611 215.114 63.7195 214.777C62.2517 214.32 61.7946 213.069 61.3374 211.879C60.9043 210.28 60.6877 208.8 60.423 207.189C59.8936 202.931 59.6049 198.555 61.1569 194.418C62.0953 192.084 63.7316 188.645 65.6566 186.529C69.278 182.127 75.4018 181.165 80.118 184.508C81.0565 185.17 80.0218 186.553 79.1194 185.855Z" fill="black"/>
<path d="M65.9451 213.85C64.7781 218.18 64.718 220.789 68.568 223.7C72.6225 227.74 72.8751 233.837 75.3896 238.612C76.0032 239.706 76.7491 240.535 77.7838 240.668C80.7073 241.173 83.3061 242.904 85.1228 245.129C90.4887 251.803 89.1413 260.991 92.1731 268.544C92.3656 268.989 92.137 269.506 91.6798 269.674C91.2467 269.831 90.7654 269.602 90.609 269.169C89.6345 266.5 89.021 263.866 88.4555 261.172C87.4087 255.977 87.1801 250.457 83.7151 246.284C82.1151 244.324 79.9133 242.868 77.459 242.435C75.8347 242.232 74.5234 240.836 73.8135 239.489C71.2749 234.787 71.1065 228.871 67.3528 224.974C66.7152 224.445 65.6444 223.519 65.0669 222.75C63.9239 221.234 63.3464 219.261 63.4908 217.409C63.5991 215.931 63.8998 214.439 64.9345 213.285C65.1511 213.044 65.5241 213.02 65.7647 213.237C65.9451 213.405 65.9933 213.634 65.9331 213.862L65.9451 213.85Z" fill="black"/>
<path d="M103.254 253.392C98.6581 259.393 93.5208 265.129 91.4634 272.514C90.1279 277.661 90.4408 283.842 93.4605 288.328C94.2907 289.41 95.9872 291.43 97.3106 290.023C97.3707 289.95 97.4669 289.939 97.5392 289.987C97.7678 290.528 97.0459 291.225 96.4563 291.37C95.8548 291.538 95.2532 291.442 94.7239 291.262C89.2016 288.616 88.4075 280.306 88.8647 274.907C89.5986 269.976 91.9808 265.37 94.8683 261.45C97.1662 258.287 99.813 255.364 103.085 253.187C103.194 253.116 103.35 253.26 103.254 253.38V253.392Z" fill="black"/>
<path d="M103.278 301.747C99.56 305.499 93.7971 304.982 91.2826 300.088C89.1531 296.143 88.0342 290.407 91.2225 286.703C92.0165 285.945 93.1715 287.124 92.4015 287.905C89.7908 291.717 91.5232 298.417 94.6513 301.507C97.0816 303.539 100.21 302.421 103.085 301.447C103.266 301.374 103.422 301.627 103.278 301.747Z" fill="black"/>
<path d="M104.95 306.907C104.469 310.912 104.878 315.434 110.136 314.135C113.228 313.69 116.308 312.956 119.544 313.618C122.011 314.135 124.489 316.071 125.524 318.115C120.062 313.425 115.995 314.652 109.51 315.938C105.684 316.648 103.326 314.099 103.11 310.491C103.001 309.168 103.062 307.905 103.302 306.582C103.386 306.126 103.819 305.824 104.277 305.909C104.734 305.993 105.035 306.438 104.95 306.895V306.907Z" fill="black"/>
<path d="M109.486 315.109C109.486 315.109 110.749 319.739 119.58 318.476C119.58 318.476 124.212 316.612 126.101 322.806" stroke="black" stroke-width="1.4" stroke-linecap="round" stroke-linejoin="round"/>
<path d="M114.587 318.633C112.963 326.161 116.5 326.907 122.841 328.29C123.093 328.326 123.274 328.626 123.057 328.831C122.348 329.48 121.517 329.564 120.747 329.528C119.039 329.384 117.415 328.854 115.863 328.193C111.941 326.498 111.784 321.591 112.999 318.127C113.36 317.106 114.912 317.61 114.599 318.645L114.587 318.633Z" fill="black"/>
<path d="M120.266 328.602C120.266 328.602 122.949 329.817 124.212 334.447C125.475 339.077 126.702 339.87 128.615 339.052" stroke="black" stroke-width="1.4" stroke-linecap="round" stroke-linejoin="round"/>
<path d="M204.316 395.021C202.643 404.197 198.577 413.493 191.322 419.651C190.251 420.672 187.231 422.537 185.956 423.366C178.618 427.996 176.007 437.485 177.57 445.698C178.088 448.476 178.99 451.278 180.723 453.527C180.879 453.696 180.579 453.948 180.434 453.756C173.552 444.412 175.321 428.898 185.235 422.32C186.943 421.214 189.806 419.313 191.31 417.991C197.916 411.978 201.922 403.595 203.931 394.961C203.943 394.853 204.051 394.78 204.159 394.804C204.256 394.829 204.316 394.925 204.304 395.021H204.316Z" fill="black"/>
<path d="M226.381 417.305C225.683 424.797 221.4 431.676 215.637 436.366C215.432 436.546 215.132 436.222 215.348 436.029C220.606 431.026 224.372 424.401 225.635 417.245C225.671 416.764 226.429 416.824 226.381 417.305Z" fill="black"/>
<path d="M275.396 369.311C278.836 388.636 272.352 410.908 255.472 422.116C255.196 422.296 254.871 421.9 255.147 421.683C268.682 410.968 275.071 393.627 275.228 376.694C275.312 374.253 275.228 371.799 275.023 369.37C274.998 369.154 275.372 369.07 275.407 369.322L275.396 369.311Z" fill="black"/>
<path d="M364.498 377.067C362.802 385.317 359.422 395.045 355.993 404.245C346.741 429.054 338.752 427.792 314.353 455.126C289.954 482.462 226.441 512.31 191.527 519.454C156.612 526.597 131.371 524.083 106.551 511.888C81.7302 499.694 78.3616 459.336 78.3616 459.336C78.3616 459.336 90.1401 488.764 109.486 493.393C128.832 498.023 150.705 507.271 157.021 507.692C163.337 508.113 191.936 508.534 219.704 494.235C247.471 479.936 268.261 473.238 275.745 468.391C283.168 463.581 354.272 425.17 364.511 377.079L364.498 377.067Z" stroke="black" stroke-width="1.4" stroke-linecap="round" stroke-linejoin="round"/>
<path d="M364.727 375.924C364.727 375.924 364.703 376.032 364.691 376.079C364.631 376.404 364.571 376.729 364.498 377.054" stroke="black" stroke-width="1.4" stroke-linecap="round" stroke-linejoin="round"/>
<path d="M186.846 335.228C196.627 329.456 211.474 326.883 219.595 336.683C219.944 337.08 219.33 337.645 218.958 337.261C209.922 327.856 197.085 330.646 186.846 335.228Z" fill="black"/>
<path d="M219.198 283.12C227.03 278.298 238.58 276.121 245.871 283.024C246.16 283.276 245.774 283.733 245.474 283.48C237.835 277.672 227.475 279.632 219.355 283.385C219.186 283.48 219.018 283.216 219.198 283.108V283.12Z" fill="black"/>
<path d="M255.869 83.8511C255.869 83.8511 249.986 99.8335 233.575 90.9944" stroke="black" stroke-width="1.4" stroke-linecap="round" stroke-linejoin="round"/>
<path d="M260.08 87.64C260.08 87.64 246.617 96.0461 241.155 101.518" stroke="black" stroke-width="1.4" stroke-linecap="round" stroke-linejoin="round"/>
<path d="M222.219 92.5697C225.575 93.2552 228.847 96.2256 228.763 99.9657C228.763 100.218 228.812 100.471 228.883 100.627C228.956 100.807 228.992 100.795 229.004 100.795C229.04 100.807 229.232 100.747 229.401 100.639C231.531 98.8593 231.916 95.6003 231.578 92.9066C230.375 86.1239 224.829 79.5698 217.718 78.7761C215.373 78.4153 212.75 78.1988 210.597 76.8159C208.431 75.4931 206.89 73.4606 205.627 71.3681C205.567 71.2599 205.591 71.1276 205.7 71.0675C205.808 71.0074 205.941 71.0434 206.001 71.1396C208.96 75.9139 212.353 77.4893 217.851 77.838C225.454 78.5235 231.555 85.4264 232.842 92.7382C233.251 95.8288 232.805 99.653 230.134 101.782C229.353 102.383 228.029 102.263 227.656 101.156C227.488 100.747 227.464 100.387 227.452 100.026C227.572 96.7427 225.082 94.2774 222.086 93.0267C221.81 92.9426 221.93 92.5217 222.206 92.5939L222.219 92.5697Z" fill="black"/>
<path d="M193.981 78.139C198.878 76.9004 203.618 72.8477 203.04 67.3999C203.053 67.0752 203.305 66.8107 203.63 66.7745C212.81 65.4878 222.531 64.6701 230.965 60.5572C231.146 60.4369 231.361 60.7376 231.157 60.8578C229.124 62.1206 226.862 62.9263 224.613 63.6479C217.815 65.7404 210.825 67.0272 203.799 68.0975L204.388 67.3999C204.34 68.7949 204.232 70.2381 203.642 71.5369C202.054 75.4573 198.048 77.7182 194.089 78.6081C193.788 78.6682 193.668 78.1872 193.993 78.127L193.981 78.139Z" fill="black"/>
<path d="M227.596 77.129C227.596 77.129 228.102 63.672 235.26 60.3048C242.419 56.9375 248.723 59.4629 239.892 75.8662" stroke="black" stroke-width="1.4" stroke-linecap="round" stroke-linejoin="round"/>
<path d="M163.879 95.4682C170.953 101.168 169.076 111.402 163.361 117.367C163.205 117.56 162.892 117.331 163.025 117.115C166.911 110.513 169.233 102.155 163.626 95.7689C163.446 95.6125 163.686 95.3119 163.879 95.4682Z" fill="black"/>
<path d="M150.392 95.8408C153.653 96.875 156.733 99.629 157.238 103.129C157.274 103.321 156.998 103.429 156.889 103.261C155.048 100.435 152.751 98.3783 150.152 96.2737C149.935 96.1054 150.127 95.7446 150.38 95.8288L150.392 95.8408Z" fill="black"/>
<path d="M154.121 94.1819C159.042 94.8313 163.758 99.2087 163.361 104.428C163.361 104.62 163.072 104.644 163.036 104.452C162.158 99.6777 158.345 96.3707 154.037 94.5427C153.833 94.4826 153.904 94.1458 154.121 94.1819Z" fill="black"/>
<path d="M166.056 94.1216C171.915 96.5748 175.368 103.297 174.49 109.503C174.466 109.755 174.081 109.755 174.057 109.503C173.312 103.67 170.592 98.1502 165.816 94.6147C165.527 94.4463 165.768 93.9893 166.069 94.1216H166.056Z" fill="black"/>
<path d="M194.655 101.709C199.07 105.714 205.844 107.037 210.993 103.694C213.195 102.804 212.341 108.997 212.003 110.127C211.09 114.409 206.806 116.706 202.667 116.008C200.766 115.756 198.974 115.19 197.29 114.433C197.122 114.361 197.049 114.168 197.122 114C197.182 113.855 197.35 113.783 197.494 113.819C199.263 114.192 201.031 114.517 202.776 114.553C208.984 114.902 210.993 109.995 210.536 104.583L211.799 105.173C210.38 105.942 208.864 106.616 207.228 106.856C202.427 107.722 197.531 105.534 194.186 102.154C193.897 101.866 194.354 101.421 194.631 101.709H194.655Z" fill="black"/>
<path d="M197.458 109.96C201.248 110.176 205.567 109.707 208.515 107.134C209.453 106.292 209.947 105.21 210.596 104.151C210.825 103.706 211.378 103.538 211.799 103.803C212.124 104.007 212.268 104.392 212.172 104.741C210.139 110.621 202.716 111.619 197.35 110.73C196.857 110.657 196.977 109.888 197.47 109.96H197.458Z" fill="black"/>
<path d="M218.97 94.4937C216.467 93.3632 213.953 92.7018 211.69 94.5177C211.57 94.6138 211.402 94.5899 211.318 94.4575C211.27 94.3734 211.27 94.2771 211.318 94.205C211.69 93.5556 212.184 92.9062 212.918 92.5334C215.035 91.3068 217.875 92.4252 219.186 94.229C219.295 94.3734 219.126 94.5779 218.957 94.4937H218.97Z" fill="black"/>
<path d="M196.977 97.7286C196.977 97.7286 204.544 97.3077 206.649 93.0986C208.754 88.8896 210.439 88.0479 214.217 89.3106C217.995 90.5733 221.784 84.2596 225.996 88.4687C230.206 92.6778 230.206 94.3494 230.206 95.6121" stroke="black" stroke-width="1.4" stroke-linecap="round" stroke-linejoin="round"/>
<path d="M165.094 76.1903C169.87 76.1301 174.539 74.5066 178.425 71.7647C182.359 68.9386 186.835 66.0644 191.923 66.4974C192.056 66.4974 192.08 66.7018 191.936 66.7258C184.247 67.2069 179.615 74.182 172.409 75.9858C170.003 76.6232 167.513 76.9238 165.034 76.5871C164.793 76.551 164.818 76.1662 165.082 76.1903H165.094Z" fill="black"/>
<path d="M190.684 95.7446C185.571 96.5503 179.568 94.3856 180.53 88.2044C180.903 84.8492 182.924 81.554 186.281 80.5318C191.009 79.0406 196.099 80.4597 200.454 82.3598C200.574 82.4199 200.635 82.5642 200.574 82.6845C200.514 82.8048 200.37 82.8649 200.25 82.8168C194.907 81.1452 187.231 79.1127 183.249 84.2358C180.735 88.1803 180.819 93.628 186.064 94.8786C187.532 95.3117 189.108 95.492 190.673 95.492C190.829 95.492 190.841 95.7326 190.684 95.7446Z" fill="black"/>
<path d="M197.326 68.0741C196.88 72.6078 192.248 75.1573 188.459 76.6726C188.158 76.7929 187.953 76.3359 188.23 76.1916C191.503 74.1351 195.473 71.8742 196.663 67.9899C196.748 67.605 197.337 67.6892 197.326 68.0741Z" fill="black"/>
<path d="M155.842 71.4882C153.605 73.3162 151.451 75.6733 150.572 78.4152C149.033 82.9009 152.257 87.2301 156.853 87.7472C161.4 88.4688 166.105 87.5428 170.484 86.22C170.641 86.1599 170.749 86.4244 170.58 86.4846C164.805 88.3486 157.755 90.369 152.161 86.9776C145.856 82.2034 149.574 74.0978 154.832 70.1533C155.722 69.4678 156.757 70.8269 155.842 71.5003V71.4882Z" fill="black"/>
<path d="M107.188 96.647C105.047 99.0282 102.857 101.457 101.124 104.139C100.535 105.125 99.9333 106.087 99.9213 107.073C101.052 110.453 95.4337 116.971 100.86 118.005C101.016 118.005 100.992 118.27 100.836 118.246L99.9935 118.125C96.2398 117.187 98.2008 112.461 98.6098 109.876C98.8024 108.962 98.8264 108.108 98.5618 107.254C98.4174 105.775 99.1513 104.428 99.7529 103.321C101.461 100.411 103.627 97.8737 105.973 95.4685C106.298 95.1438 106.827 95.1318 107.164 95.4685C107.489 95.7932 107.501 96.3223 107.176 96.647H107.188Z" fill="black"/>
<path d="M202.03 52.7401C202.03 52.7401 207.083 57.37 214.651 56.9492C222.219 56.5283 228.126 59.0176 228.126 59.0176" stroke="black" stroke-width="1.4" stroke-linecap="round" stroke-linejoin="round"/>
<path d="M297.088 120.433C297.088 120.433 304.656 127.997 306.339 133.469" stroke="black" stroke-width="1.4" stroke-linecap="round" stroke-linejoin="round"/>
<path d="M297.509 124.15C297.509 124.15 301.66 128.828 302.538 132.412" stroke="black" stroke-width="1.4" stroke-linecap="round" stroke-linejoin="round"/>
<path d="M292.889 109.082C292.889 109.082 303.404 113.712 304.667 121.697" stroke="black" stroke-width="1.4" stroke-linecap="round" stroke-linejoin="round"/>
<path d="M304.667 114.601C304.667 114.601 311.754 120.374 311.574 126.074" stroke="black" stroke-width="1.4" stroke-linecap="round" stroke-linejoin="round"/>
<path d="M170.533 146.073C170.533 146.073 141.573 151.449 130.998 155.706V173.3" stroke="black" stroke-width="1.4" stroke-linecap="round" stroke-linejoin="round"/>
<path d="M123.37 181.814C123.37 181.814 129.71 171.183 137.675 170.462C142.307 170.04 145.483 169.968 146 172.53C146 172.53 145.82 170.882 144.063 170.882C142.307 170.882 141.417 171.724 141.236 172.986C141.056 174.25 141.284 184.773 146 181.189L146.506 182.656C145.664 190.22 130.937 190.22 130.937 190.22" stroke="black" stroke-width="1.4" stroke-linecap="round" stroke-linejoin="round"/>
<path d="M133.765 193.492C151.583 197.231 169.93 197.918 188.085 198.915C206.324 199.685 224.576 199.878 242.827 199.949C243.02 199.949 243.176 200.106 243.176 200.298C243.176 200.491 243.019 200.636 242.839 200.647C215.444 201.284 187.989 200.9 160.666 198.59C151.547 197.689 142.427 196.667 133.584 194.117C133.416 194.069 133.32 193.889 133.368 193.72C133.416 193.552 133.608 193.456 133.777 193.503L133.765 193.492Z" fill="black"/>
<path d="M255.34 201.248C263.004 201.825 274.096 203.196 281.832 204.086C288.389 204.747 295.019 205.793 301.587 205.901C303.104 205.793 305.33 205.901 306.388 204.807C306.4 204.82 306.376 204.735 306.424 204.867C305.967 203.87 307.507 203.172 307.952 204.17C309.6 210.917 285.478 206.046 281.615 205.877C272.797 204.735 264.002 203.448 255.28 201.693C255.027 201.645 255.051 201.212 255.34 201.248Z" fill="black"/>
<path d="M144.653 392.772C153.171 410.895 157.863 430.894 158.465 450.905C158.465 451.109 158.128 451.158 158.104 450.929C156.371 436.101 153.4 421.418 148.972 407.143C147.516 402.38 145.928 397.654 144.148 393.012C144.027 392.712 144.497 392.471 144.653 392.783V392.772Z" fill="black"/>
<path d="M180.783 369.177C190.215 378.978 201.897 381.732 212.388 371.727C212.569 371.558 212.87 371.835 212.689 372.015C206.084 379.977 195.858 381.769 187.22 375.84C184.596 374.108 182.263 371.991 180.362 369.514C180.157 369.25 180.554 368.912 180.783 369.177Z" fill="black"/>
<path d="M140.129 101.805C142.812 99.965 146.674 99.7726 149.526 101.384C151.763 102.695 152.786 105.124 153.255 107.517L153.508 109.898C153.52 110.055 153.412 110.199 153.243 110.223C153.075 110.247 152.931 110.103 152.918 109.935L152.594 107.65C151.054 100.735 146.073 100.855 140.238 102.058C140.093 102.094 139.997 101.889 140.117 101.793L140.129 101.805Z" fill="black"/>
<path d="M124.224 105.462C121.216 111.487 119.352 118.462 121.325 125.016C124.044 133.254 132.875 139.796 141.681 138.846C143.835 138.581 145.892 137.763 147.721 136.561C148.106 136.296 148.647 136.392 148.9 136.789C149.153 137.174 149.045 137.691 148.672 137.944C146.662 139.303 144.34 140.24 141.91 140.565C132.273 141.72 122.672 134.528 119.881 125.437C117.908 118.57 119.917 110.946 123.972 105.281C124.08 105.137 124.32 105.281 124.224 105.45V105.462Z" fill="black"/>
<path d="M72.5745 203.582C70.3849 202.921 67.726 203.509 66.3063 205.446C65.7649 206.096 65.404 206.877 65.019 207.634C64.9348 207.815 64.634 207.707 64.6942 207.515C65.3559 203.533 69.0856 200.876 73.0799 201.982C73.525 202.103 73.8017 202.56 73.6814 203.005C73.5612 203.486 73.0438 203.75 72.5745 203.582Z" fill="black"/>
<path d="M71.9369 220.862C69.9397 220.501 68.3035 218.733 67.9907 216.797C67.9667 216.641 68.0629 216.497 68.2193 216.473C68.3517 216.449 68.472 216.521 68.5321 216.641C69.1457 218.241 70.6977 219.034 72.2617 219.226C73.2484 219.479 72.9596 220.994 71.949 220.874L71.9369 220.862Z" fill="black"/>
<path d="M100.559 173.997C92.6546 169.716 93.605 160.336 98.3572 153.974C101.305 149.465 105.961 145.461 111.592 145.267C116.031 145.088 120.254 146.891 123.539 149.621C123.647 149.717 123.659 149.874 123.575 149.982C123.478 150.09 123.322 150.102 123.202 150.018C119.809 147.673 115.682 146.242 111.676 146.542C105.949 147.012 101.654 151.485 98.8385 156.151C95.181 162.008 94.6877 169.248 100.739 173.685C100.944 173.793 100.764 174.13 100.559 174.01V173.997Z" fill="black"/>
<path d="M130.468 165.291C126.546 162.26 121.854 161.803 118.269 165.651C117.812 166.157 117.391 166.71 116.945 167.238C116.777 167.443 116.452 167.191 116.609 166.986C117.006 166.409 117.379 165.808 117.8 165.242C121.253 160.697 127.184 160.648 131.539 163.992C132.43 164.701 131.335 166.024 130.468 165.291Z" fill="black"/>
<path d="M129.687 169.006C125.476 166.613 119.905 167.635 116.524 171.063C116.019 171.556 115.55 172.097 115.057 172.614C115.009 172.662 114.936 172.662 114.9 172.614C114.888 172.217 115.923 171.231 116.236 170.774C119.665 166.709 125.596 165.254 130.505 167.539C131.575 168.056 130.721 169.644 129.687 169.006Z" fill="black"/>
<path d="M122.552 152.964C112.999 154.984 108.776 160.071 112.458 169.716C112.554 169.945 112.193 170.113 112.073 169.896C108.307 163.919 109.137 156.391 116.356 153.709C118.341 152.904 120.422 152.531 122.528 152.531C122.792 152.531 122.828 152.94 122.564 152.976L122.552 152.964Z" fill="black"/>
<path d="M83.6671 164.618C84.3409 166.638 84.365 168.779 84.1724 170.871C84.1484 173.3 81.0925 181.442 82.1632 173.661C82.5603 170.751 82.9573 167.624 83.2581 164.689C83.2581 164.461 83.607 164.413 83.6792 164.629L83.6671 164.618Z" fill="black"/>
<path d="M98.2249 174.045C93.4605 172.445 87.9864 168.801 88.251 163.149C88.215 159.469 83.4386 160.419 81.4774 162.127C78.9268 164.051 77.7358 167.298 77.7719 170.449C77.7478 172.06 77.9282 173.672 78.0486 175.367C78.0606 175.548 77.9282 175.704 77.7478 175.728C77.6155 175.728 77.4831 175.668 77.423 175.548C74.9927 170.881 76.1838 164.183 80.5871 160.96C82.7287 159.372 86.2538 158.243 88.5037 160.383C89.2496 161.153 89.5143 162.247 89.4661 163.185C89.3579 164.808 89.7309 166.336 90.5971 167.707C92.3657 170.412 95.3374 172.313 98.3812 173.623C98.646 173.732 98.4895 174.153 98.2128 174.056L98.2249 174.045Z" fill="black"/>
<path d="M113.613 136.982C108.74 135.106 100.342 133.254 98.4173 139.737C97.7556 142.082 96.9856 144.595 95.8667 146.784C95.193 147.914 94.5192 149.333 93.0755 149.622C92.9552 149.622 92.871 149.478 92.9552 149.381C93.3161 149.02 93.5928 148.419 93.8455 147.818C94.5192 146.194 95.181 144.415 95.7103 142.743C96.5285 140.35 96.9736 137.536 99.067 135.804C103.386 132.425 109.402 134.481 113.757 136.67C113.938 136.766 113.805 137.066 113.613 136.97V136.982Z" fill="black"/>
<path d="M104.95 119.676C101.979 123.536 97.7075 128.899 95.0004 132.844C91.7159 137.329 90.6451 143.066 86.5907 147.047C86.3741 147.287 85.965 146.974 86.1575 146.698C89.5383 142.248 90.4045 136.44 93.7371 131.978C96.9615 127.42 100.691 123.295 104.782 119.519C104.89 119.423 105.059 119.567 104.962 119.688L104.95 119.676Z" fill="black"/>
<path d="M140.117 90.1162C135.052 87.3744 129.145 89.491 125.379 93.4354C121.313 97.1996 117.403 101.156 114.082 105.545C111.207 109.598 107.357 114.95 109.113 120.013C109.931 122.081 112.061 123.476 113.89 124.643C117.126 126.41 118.654 125.328 119.364 121.877C119.4 121.552 119.713 121.311 120.038 121.384C120.302 121.432 120.483 121.66 120.483 121.913C120.507 122.694 120.41 123.428 120.182 124.174C118.895 128.214 114.996 127.469 112.181 125.436C103.206 120.229 108.006 110.921 112.987 104.704C116.476 100.278 120.495 96.3577 124.669 92.6417C126.751 90.8017 129.193 89.0219 132.045 88.4808C134.86 87.8674 137.88 88.3485 140.286 89.8758C140.442 89.984 140.286 90.2125 140.13 90.1162H140.117Z" fill="black"/>
<path d="M130.853 150.691C126.979 147.96 123.779 143.475 123.731 138.592C123.731 138.424 123.863 138.304 124.032 138.304C124.176 138.304 124.284 138.4 124.321 138.532C124.91 140.757 125.885 142.789 127.1 144.738C128.327 146.662 129.71 148.502 131.142 150.366C131.311 150.546 131.058 150.835 130.853 150.691Z" fill="black"/>
<path d="M128.11 112.124C122.287 121.264 123.911 128.575 134.078 132.965C134.378 133.085 134.198 133.578 133.885 133.458C126.787 131.438 121.24 125.328 124.224 117.692C125.042 115.515 126.27 113.543 127.858 111.908C127.99 111.775 128.219 111.956 128.098 112.112L128.11 112.124Z" fill="black"/>
<path d="M146.193 109.924C146.494 112.233 145.784 114.638 144.581 116.622C142.788 119.556 139.853 120.747 142.199 124.595C143.895 127.229 146.975 129.55 150.284 129.225C150.332 129.213 150.356 129.297 150.308 129.309C145.844 130.476 140.118 126.519 139.684 121.841C139.432 119.087 142.103 117.764 143.558 115.912C144.882 114.217 145.929 112.196 146.205 109.924H146.193Z" fill="black"/>
<path d="M134.884 128.756C138.601 133.59 145.074 134.167 150.729 133.71C150.957 133.686 151.029 134.035 150.813 134.096C145.146 136.2 137.326 134.805 134.571 128.924C134.475 128.72 134.787 128.564 134.896 128.756H134.884Z" fill="black"/>
<path d="M166.442 146.891C161.208 145.544 148.576 142.069 151.608 134.589C152.173 133.518 152.847 132.496 153.773 131.835C154.952 131.51 156.18 131.017 157.298 130.416C160.691 128.636 162.784 125.389 163.554 121.685C163.578 121.576 163.686 121.504 163.795 121.528C164.829 125.629 161.858 130.163 158.188 132.039C156.949 132.712 155.674 133.193 154.218 133.446L154.663 133.218C147.854 140.072 161.846 143.981 166.79 145.243C167.873 145.46 167.524 147.132 166.43 146.891H166.442Z" fill="black"/>
<path d="M162.411 125.737C165.623 123.945 169.196 122.695 171.952 120.169C174.539 118.065 176.199 114.782 179.459 113.555C179.965 113.399 180.434 113.242 181.096 113.423C181.492 113.567 181.264 114.12 180.879 113.976C178.232 114.192 176.487 117.139 174.899 119.051C173.118 121.396 170.712 123.224 168.198 124.703C167.235 125.208 162.543 128.058 162.099 126.362C162.074 126.098 162.207 125.869 162.411 125.749V125.737Z" fill="black"/>
<path d="M96.1916 143.729C99.3437 144.402 102.977 144.366 105.564 142.141C105.744 141.997 105.985 142.261 105.829 142.43C103.41 145.196 99.2956 146.158 95.7705 145.351C94.7599 145.039 95.1569 143.5 96.1916 143.729Z" fill="black"/>
<path d="M111.291 140.529C113.132 142.152 115.129 142.971 117.547 143.271C117.715 143.295 117.836 143.464 117.812 143.632C117.788 143.752 117.703 143.848 117.595 143.884C116.97 144.077 116.296 144.173 115.634 144.077C113.673 143.848 111.844 142.477 111.062 140.698C110.99 140.553 111.195 140.421 111.303 140.541L111.291 140.529Z" fill="black"/>
<path d="M168.607 145.844C168.607 145.844 179.014 143.379 171.807 134.42C171.807 134.42 175.043 127.697 182.864 131.63C190.684 135.562 190.684 124.631 190.684 124.631" stroke="black" stroke-width="1.4" stroke-linecap="round" stroke-linejoin="round"/>
<path d="M179.845 117.043C184.693 120.951 194.438 128.84 198.757 120.458C199.263 119.52 200.718 120.242 200.261 121.216C196.953 128.912 188.675 125.894 183.803 121.697C183.358 121.36 177.787 116.574 179.845 117.043Z" fill="black"/>
<path d="M189.782 114.89C194.836 118.269 201.356 122.274 207.263 118.87C211.354 116.405 215.252 113.146 215.421 108.143C215.516 106.58 215.337 104.968 215.083 103.345C215.012 102.888 215.324 102.455 215.781 102.383C216.226 102.311 216.635 102.599 216.732 103.032C217.093 104.704 217.345 106.436 217.285 108.215C217.358 113.795 212.677 118.125 208.274 120.59C205.098 122.454 201.115 122.454 197.759 121.215C194.474 120.037 191.587 117.968 189.336 115.323C189.097 115.046 189.493 114.637 189.77 114.878L189.782 114.89Z" fill="black"/>
<path d="M231.795 106.147C231.795 106.147 222.639 106.147 220.113 110.765C217.586 115.383 216.515 118.69 211.378 117.247" stroke="black" stroke-width="1.4" stroke-linecap="round" stroke-linejoin="round"/>
<path d="M221.581 109.034C221.581 109.034 224.733 114.133 233.997 116.225C243.249 118.33 241.528 122.611 241.528 122.611C241.528 122.611 244.933 118.33 247.038 118.751C249.144 119.172 247.471 112.798 248.302 110.309C249.132 107.819 252.921 105.294 263.016 108.24C273.11 111.187 277.718 94.663 274.782 89.6723C271.847 84.6816 267.214 83.8518 261.331 83.4308C255.448 83.0099 253.343 77.1293 253.343 77.1293" stroke="black" stroke-width="1.4" stroke-linecap="round" stroke-linejoin="round"/>
<path d="M248.109 117.272C248.109 117.272 247.447 124.644 254.185 127.578C260.922 130.512 259.238 126.315 259.238 126.315" stroke="black" stroke-width="1.4" stroke-linecap="round" stroke-linejoin="round"/>
<path d="M259.274 127.986C259.274 127.986 265.133 135.575 270.596 136.825" stroke="black" stroke-width="1.4" stroke-linecap="round" stroke-linejoin="round"/>
<path d="M275.624 92.7866C275.624 92.7866 277.742 98.992 277.32 104.031C276.9 109.07 284.467 114.121 272.268 127.157C272.268 127.157 264.7 146.073 283.625 145.232" stroke="black" stroke-width="1.4" stroke-linecap="round" stroke-linejoin="round"/>
<path d="M297.509 117.272C297.509 117.272 277.934 120.014 277.213 129.682" stroke="black" stroke-width="1.4" stroke-linecap="round" stroke-linejoin="round"/>
<path d="M295.103 122.611C295.103 122.611 285.73 123.345 283.637 127.987C281.544 132.629 281.531 135.575 282.374 139.772C283.216 143.969 287.932 148.467 292.3 148.539C296.667 148.611 303.212 149.26 307.506 144.522" stroke="black" stroke-width="1.4" stroke-linecap="round" stroke-linejoin="round"/>
<path d="M301.937 147.889C301.937 147.889 300.06 152.145 303.621 154.575" stroke="black" stroke-width="1.4" stroke-linecap="round" stroke-linejoin="round"/>
<path d="M256.664 128.455C256.664 128.455 249.987 123.38 263.028 116.645C276.07 109.911 275.673 112.977 275.673 112.977" stroke="black" stroke-width="1.4" stroke-linecap="round" stroke-linejoin="round"/>
<path d="M273.351 120.35C273.351 120.35 268.586 124.078 264.339 124.15" stroke="black" stroke-width="1.4" stroke-linecap="round" stroke-linejoin="round"/>
<path d="M288.425 101.144C288.425 101.144 295.415 99.4005 291.626 106.556C287.836 113.711 282.795 112.857 282.795 112.857" stroke="black" stroke-width="1.4" stroke-linecap="round" stroke-linejoin="round"/>
<path d="M269.248 100.964C269.248 100.964 268.49 102.78 265.963 104.451" stroke="black" stroke-width="1.4" stroke-linecap="round" stroke-linejoin="round"/>
<path d="M253.764 72.4986C253.764 72.4986 256.29 77.1285 265.121 75.8658" stroke="black" stroke-width="1.4" stroke-linecap="round" stroke-linejoin="round"/>
<path d="M234.73 87.0146C234.73 87.0146 240.385 89.3235 241.612 83.8517C242.84 78.3799 239.471 77.1293 247.46 73.762" stroke="black" stroke-width="1.4" stroke-linecap="round" stroke-linejoin="round"/>
<path d="M148.467 119.267C149.189 120.747 150.007 122.406 151.547 122.767C152.509 122.803 153.556 122.647 154.483 122.442C156.949 121.973 158.778 119.893 159.103 117.427C159.139 117.295 159.066 117.127 159.163 117.199C159.006 117.127 158.934 116.934 159.019 116.79C159.379 116.273 159.848 116.97 159.872 117.379C160.173 120.458 157.863 123.332 154.832 123.861C153.652 124.09 152.473 124.246 151.306 124.066C150.031 123.765 149.141 122.635 148.647 121.564C148.323 120.867 148.07 120.169 147.937 119.412C147.913 119.255 148.01 119.099 148.178 119.075C148.323 119.051 148.455 119.135 148.503 119.255L148.467 119.267Z" fill="black"/>
<path d="M137.784 143.475C138.722 144.979 139.733 146.699 140.924 147.985C141.321 148.443 141.754 148.84 142.235 149.212C142.355 149.309 142.379 149.477 142.283 149.597C142.211 149.693 142.103 149.717 141.995 149.693C140.045 149.08 138.806 147.24 137.964 145.508C137.687 144.918 137.447 144.317 137.29 143.68C137.254 143.536 137.338 143.391 137.483 143.356C137.603 143.331 137.723 143.38 137.784 143.488V143.475Z" fill="black"/>
<path d="M132.875 146.29C134.812 148.13 137.11 149.886 139.829 150.259C139.973 150.27 140.081 150.415 140.069 150.559C140.045 150.692 139.937 150.787 139.805 150.787C138.325 150.787 136.917 150.21 135.678 149.501C134.463 148.719 133.332 147.83 132.393 146.735C132.273 146.602 132.297 146.387 132.43 146.278C132.562 146.158 132.766 146.182 132.887 146.302L132.875 146.29Z" fill="black"/>
<path d="M127.714 155.02C130.83 158.869 131.239 164.208 130.348 168.922C129.987 172.241 127.437 174.755 124.513 176.029C117.716 178.82 110.365 175.56 104.469 172.217C93.2563 165.254 100.379 155.525 108.921 150.306C109.21 150.138 109.474 150.558 109.198 150.739C102.027 155.838 94.7721 164.833 105.287 170.906C111.183 174.106 118.859 177.341 125.139 173.648C126.354 172.831 127.581 171.628 128.207 170.365L128.171 170.473C128.327 169.848 128.496 169.223 128.628 168.586C129.494 164.184 129.266 159.41 127.304 155.321C127.136 155.068 127.521 154.792 127.701 155.02H127.714Z" fill="black"/>
<path d="M135.101 166.842C142.596 159.109 151.848 152.795 162.147 149.488C162.58 149.344 162.833 150.017 162.399 150.185C152.63 154.443 143.727 160.48 135.57 167.311C135.281 167.587 134.812 167.143 135.101 166.842Z" fill="black"/>
<path d="M121.168 268.857C121.168 268.857 114.527 270.541 111.171 273.487C107.814 276.434 92.8952 269.495 95.7225 261.823" stroke="black" stroke-width="1.4" stroke-linecap="round" stroke-linejoin="round"/>
<path d="M111.23 278.838C115.922 280.378 119.772 284.803 120.085 289.854C120.241 290.841 120.013 292.247 119.881 293.258C119.676 293.822 119.351 295.133 119.135 295.674C118.918 296.156 118.268 297.418 118.04 297.912C117.426 298.874 116.801 299.835 116.127 300.75C111.844 304.465 106.767 308.602 100.691 307.821C98.6095 307.484 96.8169 306.041 95.7461 304.297C95.4935 303.912 95.6018 303.384 95.9867 303.13C96.3718 302.878 96.8891 302.986 97.1538 303.371C98.1283 304.73 99.4517 305.728 101.028 305.932C106.189 306.354 110.941 302.469 114.623 299.198C115.08 298.452 116.367 296.829 116.897 295.53L117.234 294.869C117.426 294.412 117.739 293.281 117.907 292.801L118.1 291.381C118.425 288.483 117.21 285.705 115.369 283.42C114.142 281.869 112.686 280.413 111.098 279.043C110.99 278.959 111.098 278.766 111.218 278.826L111.23 278.838Z" fill="black"/>
<path d="M100.439 286.259C101.834 283.361 111.231 278.454 104.096 284.864C103.735 285.225 100.114 287.883 100.439 286.259Z" fill="black"/>
<path d="M114.166 275.013C118.064 275.687 120.771 280.173 119.351 283.912C119.291 284.129 118.954 284.082 118.954 283.865C118.75 280.281 116.945 277.479 114.046 275.314C113.901 275.218 113.998 274.978 114.166 275.013Z" fill="black"/>
<path d="M117.92 302C119.833 302.374 121.241 303.949 121.938 305.68C122.059 305.981 121.662 306.246 121.421 306.029C120.122 304.803 118.834 303.828 117.631 302.518C117.439 302.314 117.631 301.952 117.92 302Z" fill="black"/>
<path d="M102.039 263.229C104.577 264.263 107.164 265.611 109.895 265.213C112.41 264.6 115.273 263.122 117.499 261.666C117.691 261.474 118.004 261.763 117.824 261.967C116.308 263.71 114.371 264.829 112.386 265.887C110.352 267.089 107.597 267.102 105.456 266.236C104.012 265.646 102.713 264.78 101.774 263.542C101.642 263.374 101.846 263.121 102.039 263.229Z" fill="black"/>
<path d="M106.948 258.936C108.319 258.515 110.328 257.974 111.652 257.529C112.807 257.072 114.587 256.542 114.672 255.244C114.732 254.787 115.153 254.474 115.61 254.535C116.476 254.655 116.38 255.641 116.248 256.29C116.007 257.108 115.394 257.746 114.708 258.214C112.35 259.598 109.607 259.814 106.972 259.441C106.719 259.405 106.695 259.008 106.948 258.948V258.936Z" fill="black"/>
<path d="M110.003 251.709C114.034 253.693 118.726 254.824 123.009 252.948C123.454 252.743 123.995 252.959 124.152 253.429C124.296 253.838 124.104 254.282 123.719 254.475C119.207 256.832 113.119 255.894 109.57 252.25C109.293 251.973 109.666 251.505 110.003 251.709Z" fill="black"/>
<path d="M112.698 286.018C115.851 291.803 112.602 299.945 106.683 302.519C106.382 302.675 106.117 302.23 106.394 302.037C111.904 297.9 111.784 292.404 112.157 286.163C112.169 285.899 112.554 285.79 112.698 286.018Z" fill="black"/>
<path d="M91.1144 252.033C91.6919 254.222 90.934 257.12 92.2092 258.948C92.7025 259.405 93.5447 259.165 94.1943 258.972C94.4591 258.876 94.6636 259.237 94.447 259.405C89.8511 262.917 88.9007 254.679 90.5489 251.949C90.6692 251.697 91.0662 251.757 91.1023 252.033H91.1144Z" fill="black"/>
<path d="M117.884 244.65C117.595 246.369 116.693 248.45 117.018 249.989C117.138 250.35 117.8 250.374 118.245 250.506C118.51 250.542 118.606 250.891 118.389 251.06C117.655 251.673 116.476 251.889 115.706 250.987C114.648 249.448 115.514 247.644 116.2 246.213C116.404 245.876 117.691 243.519 117.884 244.65Z" fill="black"/>
<path d="M281.135 430.064C264.134 433.035 185.571 444.507 184.224 463.124C184.247 463.472 183.634 463.496 183.658 463.124C184.669 446.455 240.47 436.402 254.882 433.66C263.593 432.157 272.316 430.75 281.087 429.74C281.291 429.716 281.352 430.052 281.135 430.076V430.064Z" fill="black"/>
<path d="M130.276 450.677C138.842 452.3 147.288 454.706 155.252 458.29C157.876 459.541 160.51 460.923 162.676 462.944C162.76 463.015 162.76 463.148 162.676 463.232C162.603 463.304 162.495 463.316 162.423 463.269C161.798 462.895 161.208 462.487 160.595 462.114C151.174 457.219 140.25 454.393 130.156 451.134C129.879 451.062 129.975 450.605 130.264 450.665L130.276 450.677Z" fill="black"/>
<path d="M81.6582 195.548C82.3199 195.331 83.0899 195.872 83.3787 196.763C83.511 197.172 83.7276 198.422 82.705 198.747" stroke="black" stroke-width="0.7" stroke-linecap="round" stroke-linejoin="round"/>
<path d="M84.6658 199.901C85.3635 199.901 85.929 200.659 85.929 201.585C85.929 202.511 85.3635 203.269 84.6658 203.269" stroke="black" stroke-width="0.7" stroke-linecap="round" stroke-linejoin="round"/>
<path d="M85.9292 205.783C86.627 205.783 87.1925 206.54 87.1925 207.466C87.1925 208.392 86.627 209.15 85.9292 209.15" stroke="black" stroke-width="0.7" stroke-linecap="round" stroke-linejoin="round"/>
<path d="M86.3501 212.095C87.0479 212.095 87.6134 212.853 87.6134 213.779C87.6134 214.705 87.0479 215.463 86.3501 215.463" stroke="black" stroke-width="0.7" stroke-linecap="round" stroke-linejoin="round"/>
<path d="M85.9292 217.977C86.627 217.977 87.1925 218.733 87.1925 219.659C87.1925 220.586 86.627 221.343 85.9292 221.343" stroke="black" stroke-width="0.7" stroke-linecap="round" stroke-linejoin="round"/>
<path d="M85.3156 223.796C86.0013 223.892 86.4706 224.711 86.3382 225.637C86.2059 226.563 85.5562 227.224 84.8584 227.14" stroke="black" stroke-width="0.7" stroke-linecap="round" stroke-linejoin="round"/>
<path d="M84.0041 228.811C84.6538 229.052 84.9306 229.953 84.6057 230.819C84.2809 231.685 83.4989 232.202 82.8372 231.962" stroke="black" stroke-width="0.7" stroke-linecap="round" stroke-linejoin="round"/>
<path d="M81.0927 232.515C81.5138 232.827 81.4898 233.597 81.0326 234.21C80.5754 234.824 79.8535 235.064 79.4204 234.751" stroke="black" stroke-width="0.56" stroke-linecap="round" stroke-linejoin="round"/>
</g>
<defs>
<clipPath id="clip0_1700_83">
<rect width="307" height="552" fill="white" transform="translate(60 44)"/>
</clipPath>
</defs>
</svg>
