<svg width="309" height="549" viewBox="0 0 309 549" fill="none" xmlns="http://www.w3.org/2000/svg">
<path d="M68.0732 292.654L65.59 292.33L63.2882 288.08L61.2348 283.409L59.5348 281.814L55.1223 280.63L52.429 276.81L53.365 272.12L50.2897 270.602L49.0958 268.873L46.3929 268.749L43.9671 265.97L43.5754 261.844L42.8305 260.583H39.9557L36.9855 258.854L36.145 257.173L32.764 254.938L29.9656 249.561L29.9752 245.827L31.3601 241.472L29.6791 234.987V228.225L31.5511 222.638L29.6791 217.356L26.9667 206.239L24.4453 199.811L37.1478 193.546L56.7364 190.967L62.6675 190.003L63.2882 208.331L57.8634 209.047L59.1146 209.582L59.7449 214.873L63.1927 248.1L65.3225 274.594L68.0732 292.654Z" fill="#9AC2CC"/>
<path d="M20.6536 196.946L16.4322 195.485L13.1181 190.136L10.4344 182.534L5.97414 176.966L4.341 173.241L4.79941 168.656L3.08985 168.036L1.43753 162.993L0.310547 157.091L1.96287 149.431L4.11179 144.866L4.80897 142.23L4.79941 138.046L6.78599 135.678L4.8281 131.504L4.62751 126.308L6.07924 122.469L8.17086 119.871L7.65508 116.108L7.0152 107.637L6.5281 105.096L3.29038 102.909L1.96287 96.3381L3.16621 93.5015L4.12129 94.5712L5.0095 95.2589L7.32083 95.1443L11.2462 93.5015L16.4227 88.8886L20.6536 83.2154L20.6728 79.2709L21.5897 75.7658L24.7987 71.5921L27.387 67.8005L29.0488 65.9476H31.2646L33.0028 66.024L35.0276 64.6009L35.9731 62.0796L37.1192 58.4789L39.4782 55.7187L43.4131 53.6844L46.2115 51.6311L48.0357 48.4698L50.9296 43.8853L57.6724 40.1319L64.1287 37.133L71.626 35.0031L75.3986 33.7997L77.6717 33.0453L79.9735 30.2851L82.9342 28.394L87.509 26.694L92.1029 25.8631L94.7389 26.0541L97.4226 22.7782L100.689 20.8394L104.271 19.8557L107.967 20.4382L109.963 21.4411L110.555 19.8557L111.309 17.5157L113.439 18.3466L116.734 17.9264L120.096 14.832L123.42 12.5016L127.173 11.6707H129.217L132.149 7.09586L134.69 3.93456L137.116 3.11321L140.535 2.48283L144.25 1.6806L148.748 0.830566L154.976 1.59462L157.659 3.31374L163.38 8.32789L169.76 11.642L174.975 11.728L179.129 12.9027L182.682 15.7106L185.633 17.0955L191.23 16.7708L196.903 17.5157L198.575 19.5978L198.766 24.0485L201.411 26.9423L208.45 29.7312L220.284 34.2105L224.123 38.5847L225.919 43.9045L227.552 45.0124L231.009 46.3399L235.192 53.8563L237.169 59.6823L238.927 61.3633L241.419 62.3088L246.605 64.133L250.951 68.746L252.728 73.4927L253.205 79.0226L251.744 83.3396L249.69 85.5935L248.678 86.4053L250.092 89.3756L251.142 95.6696L252.852 100.607L250.846 105.43L249.098 108.114L251.113 109.461L199.406 105.612L133.859 100.789L112.226 99.9483L106.945 101.792L73.8132 109.375L70.4513 110.569L71.2154 124.58L69.1333 123.567L68.3024 125.659L63.7562 129.9L54.9409 130.253L57.023 132.459L58.2837 136.098L57.5196 138.123L53.2695 136.098L50.7672 132.755L46.8132 133.548L44.5019 135.257L46.6317 137.626L46.584 139.851L43.2221 139.584L38.2366 134.837L34.1203 132.593L28.6954 133.729L23.624 136.929L20.8638 140.071L17.4637 146.069L14.9805 152.64L12.7075 158.37L11.9338 169.22L12.3445 177.013L15.2766 186.65L19.0587 193.221L20.6536 196.946Z" fill="#9AC2CC"/>
<path d="M109.686 100.541L112.093 98.4014L113.812 96.0137L112.943 92.6709L111.567 90.2546L111.262 88.9079L112.713 87.227L115.512 85.6893L118.73 85.2405L121.004 86.2528L123.525 87.313L127.173 87.2461L128.424 85.2405L128.845 82.232L129.676 80.1976L133.095 80.1595L134.862 79.7297L137.383 77.7145L138.443 75.3172L140.649 76.2341L144.384 75.8616L147.45 74.3813L150.363 71.9458L151.184 72.3851H152.712L154.937 71.9458L156.341 70.4654L158.91 65.9479L160.095 64.458L161.394 65.4799L169.961 70.6183L177.773 73.2733L179.951 75.4891L180.342 77.5043L182.319 75.4605L184.86 73.9132L186.684 74.0661L188.728 79.5005L192.481 83.0533H195.041L197.925 83.5213L199.673 85.2595L205.547 90.6175L209.31 91.8305L210.685 95.9086L214.047 99.2037L217.027 99.4615L220.924 100.216L223.483 99.4615L225.651 101.706L230.083 103.521H234.868L239.91 102.881V105.211L240.273 107.857L240.751 109.375L222.796 107.704L118.052 99.5188L112.226 99.9486L109.686 100.541Z" fill="#D9DADD"/>
<path d="M118.912 96.6153C118.912 96.6153 112.685 91.1905 117.212 90.2641C121.739 89.3377 126.829 91.2478 128.883 89.4523C130.936 87.6567 131.681 83.8746 134.021 83.0533C136.361 82.2319 141.242 79.8251 144.651 80.1976C148.061 80.5701 164.087 79.1948 165.672 75.4986C167.258 71.8025 180.342 77.5138 180.342 77.5138L170.601 71.8025L151.814 74.725L138.032 76.8166L134.69 80.1594L129.685 80.2167L129.265 83.5022L126.342 87.6758L119.666 85.1736L113.401 86.8449L110.899 89.3472L118.921 96.6249L118.912 96.6153Z" fill="#C4C5C6"/>
<path d="M24.7797 424.865L19.2308 415.238L17.8173 408.753L18.1993 403.071L21.2938 399.241L29.6507 393.72L37.9312 388.229L62.2187 372.709L67.3857 367.198L71.0627 361.429L73.8611 355.049L76.1915 345.795L76.7836 338.632V331.125L74.8735 324.344L71.9701 311.909L67.2042 287.602L64.5873 267.211L62.4575 239.686L60.3277 219.753L59.1147 209.582L62.4575 207.91L62.1901 191.636L62.6676 190.003L67.3093 187.71L77.0701 181.827L87.4327 176.87L96.6206 173.7L116.524 169.363L139.226 165.868L164.717 162.888L175.873 160.185L180.619 157.387L184.354 154.856L187.066 154.942L188.403 156.508L189.807 159.478L189.912 163.461L191.488 164.999L196.159 166.536L209.797 171.933L217.17 175.027L221.65 177.157L224.457 180.777L224.028 184.549L222.968 193.259L221.955 194.883L220.179 202.056L216.884 216.028L214.152 227.957L211.363 237.976L208.078 246.715L204.219 254.327L198.155 261.719L198.861 264.46L202.061 276.045L207.066 295.042L211.85 313.647L216.96 315.356L231.267 317.295L256.911 316.789L269.031 315.309L282.049 312.797L291.771 310.333L296.948 310.256L300.768 312.243L303.366 316.12V325.499L300.166 339.329L294.722 349.882L287.597 360.608L279.221 371.171L263.883 385.831L249.051 397.98L231.21 410.721L215.203 420.434L203.971 426.05L193.503 430.328L171.795 440.299L159.732 446.078L146.074 452.448L134.26 455.877L116.496 459.401L97.4801 460.318L86.5827 457.806L71.6644 452.534L51.8084 446.498L45.8583 444.989L39.2396 441.13L29.0203 430.997L24.7797 424.865Z" fill="#D9DADD"/>
<path d="M151.805 221.692H151.394L151.738 220.928L158.07 218.894L164.746 218.149L170.4 218.98L173.752 220.078L178.604 219.677L182.711 219.601L187.668 221.597L189.578 224.72L189.807 226.706L189.387 227.957H186.464L183.542 227.537L179.788 226.706L176.446 226.286H170.18L165.586 225.866L161.833 225.035L156.819 223.784L152.645 222.112L151.805 221.692Z" fill="#D9DADD"/>
<path d="M302.22 330.399C300.529 338.593 297.186 348.249 293.777 357.389C284.589 382.021 276.662 380.769 252.441 407.913C228.22 435.056 165.176 464.701 130.516 471.798C95.8563 478.894 70.8047 476.392 46.1732 464.281C21.5418 452.171 18.1991 412.086 18.1991 412.086C18.1991 412.086 29.8892 441.312 49.0958 445.906C68.3024 450.5 90.0112 459.687 96.2765 460.098C102.542 460.509 130.936 460.929 158.49 446.737C186.044 432.544 206.683 425.878 214.114 421.074C221.477 416.298 292.058 378.152 302.22 330.399Z" fill="#5A5B5B"/>
<path d="M22.9077 198.388L19.0587 193.221L17.225 189.621L17.0339 146.814L21.5419 139.116L26.6707 134.942L31.1404 132.555L35.0562 133.023L40.5097 136.843L43.2221 139.584L46.1733 139.852L46.8609 138.314L45.9059 136.748L44.5019 135.258L46.4121 133.806L48.6756 132.841L50.9582 133.099L53.7757 136.194L56.0679 138.409L57.9303 138.046L58.6466 136.318L57.4909 133.758L55.6954 130.931L59.6876 130.893L63.7562 129.9L66.5642 128.047L69.5535 124.58L70.4513 119.461V110.569L79.7156 107.637L92.504 104.542L105.665 101.792L254.943 156.021L248.258 157.807L245.393 158.686V164.044L241.677 172.601L235.04 180.643L228.956 184.626L227.485 188.637L225.985 191.464L223.626 193.718L223.445 189.286L224.457 180.777L219.615 175.973L206.597 170.872L197.639 166.937L190.791 164.789L189.406 161.36L188.403 156.508L185.633 154.464L182.596 156.021L178.117 159.058L173.829 160.682L164.717 162.888L155.147 163.919L142.98 165.247L125.063 168.026L108.731 170.557L93.6023 174.664L77.07 181.827L67.3091 187.71L61.8748 190.136L56.7364 190.967L56.1347 194.711L54.9409 199.563L50.261 202.705L42.0283 204.386L34.0438 203.937L28.2179 202.485L22.9077 198.388Z" fill="#24596B"/>
<path d="M29.4692 169.22C29.4692 181.598 25.5247 191.999 20.7016 191.626C15.2768 191.206 12.8222 182.324 11.9339 169.22C11.103 156.976 15.8594 146.814 20.7016 146.814C25.5438 146.814 29.4692 156.843 29.4692 169.22Z" fill="#9AC2CC"/>
<path d="M23.2037 168.666C23.6239 178.227 21.3317 186.201 17.9889 186.201C14.6462 186.201 11.9337 178.446 11.9337 168.876C11.9337 159.307 13.6242 150.72 16.9479 151.131C20.2715 151.542 22.793 159.068 23.2132 168.666H23.2037Z" fill="#9AC2CC"/>
<path d="M249.958 156.002L119.342 148.552C108.435 147.932 99.925 138.887 99.9727 127.961L100.02 116.099C100.059 106.376 108.368 98.7451 118.052 99.5188L249.595 110.091C259.241 110.865 266.7 118.878 266.786 128.553L266.891 139.852C266.977 149.116 259.213 156.518 249.958 155.992V156.002Z" fill="#14303F"/>
<path d="M250.378 152.764L120.44 144.656C111.348 144.092 104.261 136.547 104.261 127.436V115.048C104.261 107.284 110.908 101.181 118.645 101.84L249.786 113.09C258.353 113.826 264.924 120.989 264.924 129.585V139.097C264.924 147.005 258.258 153.261 250.369 152.774L250.378 152.764Z" fill="#214859"/>
<path d="M174.908 191.407C175.491 191.149 175.51 190.385 174.937 190.108C171.775 188.541 163.667 185.294 161.623 191.435C159.923 196.545 170.887 193.173 174.898 191.407H174.908Z" fill="#565656"/>
<path d="M34.0629 159.058C34.0629 159.058 32.9741 151.284 39.9939 158.514C39.9939 158.514 37.6635 154.101 39.0006 150.529L35.0657 151.112L33.2224 153.089L34.0724 159.068L34.0629 159.058Z" fill="#9AC2CC"/>
<path d="M28.2943 140.769C28.2943 140.769 30.9113 144.856 36.04 144.446C36.04 144.446 35.572 148.256 38.9912 150.52C38.9912 150.52 36.9187 152.373 37.9979 156.136C37.9979 156.136 34.6074 150.291 34.1203 156.136C33.6332 161.981 33.6332 155.2 33.6332 155.2L32.3821 149.03L30.2905 145.277L28.2753 140.769H28.2943Z" fill="#EBECF0"/>
<path d="M162.244 235.474C162.244 235.474 178.528 223.363 182.281 235.474L178.528 233.802L172.005 233.229L167.678 233.382L162.253 235.474H162.244Z" fill="#214859"/>
<path d="M65.5901 227.575C65.5901 227.575 78.3212 244.232 88.3495 245.903C98.3778 247.575 112.981 244.346 126.763 251.806C140.544 259.265 140.544 264.776 156.408 264.527C172.272 264.279 147.459 272.693 147.459 272.693L113.649 267.259L82.9152 253.009L74.6728 244.92L67.0418 233.545L65.5806 227.585L65.5901 227.575Z" fill="#CCCDCE"/>
<path d="M67.0513 231.291C67.0513 231.291 78.3212 250.077 93.7743 255.091C109.227 260.105 121.663 257.593 131.099 262.187C140.535 266.781 162.139 268.863 164.278 256.132C166.417 243.401 187.095 243.134 184.277 263.725C181.46 284.316 211.363 237.976 211.363 237.976L205.652 251.92L198.155 261.719L192.615 269.007L185.834 272.445L173.514 278.061C173.514 278.061 169.34 286.399 158.06 289.751L153.887 286.828L148.873 285.157L142.569 284.087L135.931 285.157L128.415 287.659L125.913 288.91C125.913 288.91 129.666 281.394 136.352 278.892C136.352 278.892 109.695 272.216 91.2911 262.187L86.2484 259.265L81.2342 254.671L74.5582 246.324L69.8497 237.862L67.0417 231.291H67.0513Z" fill="#C4C5C6"/>
<path d="M43.6234 264.46C43.6234 264.46 49.5067 260 52.8494 255.664L48.6757 258.434L43.6234 260.058L43.7858 262.97L43.6234 264.46Z" fill="#14303F"/>
<path d="M35.553 220.193C35.553 220.193 37.9597 214.434 42.6874 207.624L36.5654 214.176L35.553 216.764V220.183V220.193Z" fill="#14303F"/>
<path d="M53.2695 229.208C53.2695 229.208 56.6123 233.067 58.6944 236.983V233.974L56.2302 230.889L53.2695 229.208Z" fill="#14303F"/>
<path d="M30.4242 237.871C30.4242 237.871 33.6428 242.57 36.976 243.821L36.6704 244.91L34.0344 244.012L31.3506 241.462L30.4147 237.861L30.4242 237.871Z" fill="#14303F"/>
<path d="M54.0241 272.693L51.1684 271.031L49.0959 268.873L57.0231 267.622L62.0372 268.873L64.5395 271.375L65.3227 274.594L62.4574 272.33L57.8635 272.216L54.0241 272.693Z" fill="#214859"/>
<path d="M53.1742 273.066L53.9478 279.245L58.6945 282.397L62.1901 284.307L63.9379 287.965L65.5902 292.329L67.4335 292.654L67.4621 290.171L66.2109 281.814L64.721 274.116L62.4575 272.33L58.6945 272.235L54.9029 272.359L53.1742 273.066Z" fill="#5891A0"/>
<path d="M63.9377 274.193C63.9377 274.193 65.4659 277.554 60.6237 282.406L62.3237 282.282L61.2444 283.409L63.1451 286.274L64.5586 291.842L67.4524 292.654L68.0924 290.381L65.7142 275.883L63.9473 274.183L63.9377 274.193Z" fill="#214859"/>
<path d="M53.0785 273.457C53.0785 273.457 58.2073 277.469 64.0905 276.514L65.3321 274.594L62.9253 272.693H58.9045L55.3325 272.407L53.3746 272.12L53.0785 273.457Z" fill="#4B808C"/>
<path d="M64.9789 270.248L64.3485 265.005C64.3485 265.005 55.4472 257.431 50.3949 262.942C45.3425 268.453 43.6234 264.46 43.6234 264.46L44.8077 267.622L48.2364 268.978L53.6899 268.09H59.2007L64.9789 270.248Z" fill="#BCD9DD"/>
<path d="M57.3381 256.132C57.3381 256.132 62.0371 255.55 62.868 246.343L63.9281 254.652L64.3389 260.058L64.1956 262.187L60.614 258.892L57.3381 256.132Z" fill="#214859"/>
<path d="M50.3948 232.962L41.8087 239.304L36.9855 243.821L34.8366 244.289L31.1405 242.178L29.9657 244.642L30.7202 252.168L33.7096 255.951L36.9855 257.297L45.2565 257.908L56.4595 244.91L55.0078 235.827L50.3948 232.962Z" fill="#D9DADD"/>
<path d="M24.4453 199.811L27.3774 205.408L28.8291 213.87L30.3477 221.549L31.3601 223.211L34.4832 217.098L36.3456 220.575L38.2462 223.211L52.429 224.194L60.3275 219.753L59.0477 213.23L60.3275 206.793L57.8634 193.441L56.7937 194.778L54.9409 199.563L51.5981 202.486L44.1867 204.386H36.3456L28.2179 202.486L24.4453 199.811Z" fill="#5891A0"/>
<path d="M50.3949 232.962C50.3949 232.962 51.5887 248.272 38.8575 252.933C38.8575 252.933 36.6036 253.429 32.2007 253.84L35.0755 256.829L39.9559 260.573L52.4769 254.26L57.854 243.802L53.0691 234.49L50.3853 232.962H50.3949Z" fill="#9AC2CC"/>
<path d="M50.3947 232.962C50.3947 232.962 52.8492 239.103 52.8492 245.636C52.8492 252.169 47.4244 255.292 47.4244 255.292L46.1733 256.132C46.1733 256.132 43.585 256.342 42.1715 256.132C40.758 255.922 36.1545 257.173 36.1545 257.173L36.9855 258.854L41.5794 260.936L47.4244 259.236L52.8492 255.674L56.8033 251.08L58.4364 246.954L58.7898 243.105L57.2139 238.186L50.3947 232.971V232.962Z" fill="#4B808C"/>
<path d="M50.3948 232.962C50.3948 232.962 56.6123 240.354 58.7039 245.636V240.851L55.7814 236.305L50.3948 232.962Z" fill="#14303F"/>
<path d="M34.4833 217.098C34.4833 217.098 32.9838 225.952 36.6608 229.877C40.3378 233.802 42.3531 233.163 43.2222 237.871C43.2222 237.871 34.3209 244.862 30.4338 237.871L29.4691 231.845L31.5989 222.093L34.4737 217.108L34.4833 217.098Z" fill="#BCD9DD"/>
<path d="M32.8118 247.164C32.8118 247.164 42.8305 247.995 44.5019 244.241C44.5019 244.241 40.3282 251.338 32.8118 247.164Z" fill="#9AC2CC"/>
<path d="M33.2226 225.445C33.2226 225.445 32.2961 234.203 37.1479 236.295C37.1479 236.295 28.6287 233.793 33.2226 225.445Z" fill="#24596B"/>
<path d="M39.1249 228.225C39.1249 228.225 43.7474 232.131 47.4722 231.3L39.1249 228.225Z" fill="#24596B"/>
<path d="M36.6513 222.084C36.6513 222.084 38.6474 211.797 41.5795 208.808C44.5116 205.819 35.553 216.764 35.553 216.764L36.6513 222.084Z" fill="#14303F"/>
<path d="M59.7451 214.873C59.7451 214.873 53.4416 225.828 36.6514 222.093L41.5796 225.579L46.1735 227.585L50.3949 228.234L55.0557 224.949L60.5856 222.953L60.3277 219.763L59.7451 214.882V214.873Z" fill="#214859"/>
<path d="M57.8634 209.047C57.8634 209.047 54.11 218.76 41.9996 217.509L45.0368 219.486L47.8924 219.897L51.1875 219.591L55.0651 217.547L59.7545 214.854L58.7899 208.913L57.873 209.037L57.8634 209.047Z" fill="#214859"/>
<path d="M51.5982 207.079C51.5982 207.079 52.5151 210.193 47.8829 213.23L53.2696 212.17L54.9791 210.155V208.302L51.5982 207.079Z" fill="#214859"/>
<path d="M56.8034 193.708V194.778L56.7557 199.754L55.7815 203.737L57.2237 205.513C57.2237 205.513 58.3124 209.362 61.4355 208.426L63.2788 207.624L62.5052 201.148L62.2091 191.645L62.6867 190.012L58.1787 190.136L56.7557 190.967L56.8225 193.718L56.8034 193.708Z" fill="#14303F"/>
<path d="M87.509 74.4671C87.509 74.4671 93.6311 77.7526 98.7121 72.0603L98.5211 75.1166L95.8851 77.724L92.1221 78.5739L89.3141 77.7335L87.509 74.4767V74.4671Z" fill="#D9DADD"/>
<path d="M16.8335 103.998C16.8335 103.998 5.22931 109.108 15.993 121.868L16.8335 117.608L19.2499 111.295L21.9814 105.431L21.9336 103.435L18.0369 103.664L16.8335 103.989V103.998Z" fill="#214859"/>
<path d="M40.5192 128.047C40.5192 128.047 29.9083 126.079 31.9903 109.375C34.0724 92.6708 59.5347 97.2647 62.8775 104.361L58.6465 102.231L53.2694 100.789L47.0614 101.782L41.6175 105.583L37.2051 111.696L35.0561 118.171L36.1449 123.558L40.5096 128.037L40.5192 128.047Z" fill="#D9DADD"/>
<path d="M1.96277 98.535C1.96277 98.535 14.1017 102.432 20.9496 94.8389C27.7975 87.246 43.0405 76.3295 43.0405 76.3295C43.0405 76.3295 39.7455 75.957 38.991 72.8339L37.7876 70.6945L38.6568 66.368L38.9146 62.3185L39.9079 58.8612L44.5018 53.2262L39.4781 55.7285L37.1191 58.4887L35.696 63.0444L35.0275 64.6107L33.0027 66.0337L29.0583 65.9574L26.6992 68.8322L21.5991 75.7755L20.8733 77.7334L20.7109 80.5032L19.9755 84.3043L16.4321 88.8983L12.8697 92.518L7.33029 95.1445L4.13075 94.5714L3.17568 93.5113L1.97227 98.535H1.96277Z" fill="#EBECF0"/>
<path d="M16.8332 117.608C16.8332 117.608 11.8382 105.488 20.6535 107.637L16.8332 117.608Z" fill="#14303F"/>
<path d="M171.05 52.4622C171.05 52.4622 169.989 59.4438 167.162 61.6501L170.496 61.3635C170.496 61.3635 178.528 60.1028 187.716 50.0841C187.716 50.0841 177.277 49.6639 172.683 46.7413H170.496L171.05 52.4622Z" fill="#24596B"/>
<path d="M111.262 88.9078C111.262 88.9078 121.739 100.187 131.347 100.187L118.902 99.5856L111.529 100.187L109.256 99.9772L112.752 97.6277L113.392 94.2085L112.685 91.668L111.262 88.9078Z" fill="#858689"/>
<path d="M217.361 68.4502C217.361 68.4502 222.547 68.5553 224.333 67.457C226.119 66.3586 229.462 63.4361 229.462 63.4361L231 59.6826L231.133 57.2567L228.23 56.2157L226.597 56.7124L224.973 59.6826L221.917 62.3377L217.342 63.4456V68.4502H217.361Z" fill="#24596B"/>
<path d="M133.41 57.1803C133.41 57.1803 139.675 65.4704 145.53 64.458L150.229 60.8669L148.395 60.609L143.295 61.6596L139.475 60.8669L135.521 59.2719L133.41 57.1803Z" fill="#14303F"/>
<path d="M138.443 65.6804C138.443 65.6804 147.239 69.176 149.732 65.6804C152.225 62.1849 149.732 61.2394 149.732 61.2394L147.956 63.0158L144.957 64.6967L140.115 65.5277L138.443 65.6804Z" fill="#14303F"/>
<path d="M180.342 77.5043C180.342 77.5043 173.112 73.875 167.678 73.875C162.244 73.875 162.54 80.742 145.482 78.5645C145.482 78.5645 142.712 76.5683 136.609 78.5645L138.023 76.2627L141.891 76.1099L146.217 75.1166L150.362 71.9553L152.712 72.3946L154.937 71.9553L157.363 68.8322L158.91 65.9574L160.104 64.4675L161.394 65.499L165.816 68.8417L169.961 70.6373L176.331 72.0795L179.96 75.5082L180.342 77.5234V77.5043Z" fill="#858689"/>
<path d="M191.393 82.0219C191.393 82.0219 198.995 104.361 212.357 106.863L218.03 106.138L212.357 102.269L207.276 94.9632L205.537 90.6176L201.154 85.9854L197.925 83.5118L195.051 83.0438L191.402 82.0123L191.393 82.0219Z" fill="#C4C5C6"/>
<path d="M205.547 90.6175C205.547 90.6175 202.338 103.52 216.53 107.283L224.257 108.057L236.988 109.375H240.741L239.634 106.424L239.911 102.881L232.461 103.454L225.651 101.696L222.691 98.8788L220.179 99.9868L215.575 99.3278L211.392 96.9591L209.195 93.2344L207.696 91.3051L205.537 90.6079L205.547 90.6175Z" fill="#858689"/>
<path d="M225.919 43.9047L226.96 53.6656L227.227 56.3111H230.14L231.85 59.6443C232.232 60.3893 232.738 61.0674 233.339 61.6595C235.498 63.7512 240.827 68.8704 242.183 69.7777C243.893 70.9333 249.318 76.8166 249.318 76.8166L249.557 80.0638L252.145 82.7381L253.272 78.0582L252.288 72.003L249.69 66.2152L246.262 63.5506L240.741 62.3376L238.22 61.3635L236.463 57.4094L234.352 51.0009L231.009 46.3401L227.552 45.0126L225.919 43.9047Z" fill="#24596B"/>
<path d="M209.014 88.4971L210.074 94.7338L214.047 99.2036L220.923 100.216L223.483 99.4614L220.952 94.8866L216.53 88.0769L209.014 88.4971Z" fill="#24596B"/>
<path d="M235.727 72.4137C235.727 72.4137 239.872 70.9428 238.22 78.0486C236.568 85.1544 237.341 77.7143 237.341 77.7143L235.727 75.9665L233.339 77.7143L228.22 78.8891L222.939 81.1621L221.124 85.1162L220.293 92.2601L221.965 98.8979C221.965 98.8979 217.743 86.4437 209.205 89.9775L210.303 83.3493L213.254 79.2424L216.396 74.1614C216.396 74.1614 215.69 78.4784 217.781 79.7295L220.179 77.3514L226.062 74.916L229.672 74.1519L235.718 72.4041L235.727 72.4137Z" fill="#214859"/>
<path d="M48.2554 187.032C48.2554 187.032 44.5019 187.032 40.7389 190.786C36.9759 194.539 36.9855 202.056 44.4924 198.302C44.4924 198.302 40.7389 205.819 29.4595 202.056L37.5012 204.338L48.1789 203.851L55.7718 198.302L56.7269 190.958L48.2554 190.786V187.032Z" fill="#9AC2CC"/>
<path d="M101.491 172.639C101.491 172.639 89.8871 172.105 80.6993 158.514C71.5115 144.923 72.161 184.778 72.161 184.778L84.5865 177.854L94.6721 173.919L101.491 172.63V172.639Z" fill="#386B77"/>
<path d="M232.642 182.754C232.642 182.754 224.658 184.224 227.838 174.521C231.019 164.817 248.582 160.166 241.677 172.601L236.873 179.401L232.652 182.754H232.642Z" fill="#386B77"/>
<path d="M117.67 160.873C117.67 160.873 137.23 160.357 149.188 158.179C149.188 158.179 139.389 166.479 117.67 160.873Z" fill="#386B77"/>
<path d="M92.0457 156.021C92.0457 156.021 110.02 158.275 123.945 157.349" stroke="black" stroke-width="0.44" stroke-linecap="round" stroke-linejoin="round"/>
<path d="M70.8143 154.034C70.8143 154.034 68.589 163.155 68.9328 169.917" stroke="black" stroke-width="0.44" stroke-linecap="round" stroke-linejoin="round"/>
<path d="M71.8744 155.916C71.8744 155.916 71.0053 160.137 70.9862 162.086" stroke="black" stroke-width="0.44" stroke-linecap="round" stroke-linejoin="round"/>
<path d="M68.8946 152.888C68.8946 152.888 67.462 160.577 67.3282 163.165" stroke="black" stroke-width="0.44" stroke-linecap="round" stroke-linejoin="round"/>
<path d="M75.8858 161.675C75.8858 161.675 74.224 167.902 75.3414 177.061" stroke="black" stroke-width="0.44" stroke-linecap="round" stroke-linejoin="round"/>
<path d="M62.868 104.724L60.6809 103.081L56.9848 101.792L53.2695 100.799L48.7234 101.534L44.5019 103.177L40.6148 106.997L38.0361 110.579L36.3838 114.237L35.0658 119.499L35.4383 123.195L37.6636 126.433L39.5355 128.056C39.5355 128.056 41.7227 130.205 47.8352 128.419L43.9002 125.984L39.7648 121.161L38.9816 117.083L39.8698 114.017L41.9901 111.276L46.4121 107.14L48.6756 105.45L52.6201 107.656L58.7421 106.376L62.8776 104.733L62.868 104.724Z" fill="#24596B"/>
<path d="M62.868 104.934C62.868 104.934 42.6682 112.498 45.3328 126.815L40.5097 123.233L38.9816 117.617L39.8698 114.007L43.0216 109.824L48.1121 105.822C48.1121 105.822 58.2932 102.623 62.8585 104.934H62.868Z" fill="#5891A0"/>
<path d="M139.284 37.9737C139.284 37.9737 116.505 39.5687 129.055 50.915L126.486 50.7908L121.911 49.0621L120.182 45.6048L120.602 41.4979L122.704 37.7158L125.788 36.4074L130.268 35.8916L136.619 36.9231L139.284 37.9737Z" fill="#4B808C"/>
<path d="M120.077 68.8226C120.077 68.8226 112.542 78.5739 110.211 83.9033C107.881 89.2326 111.567 90.2641 111.567 90.2641C111.567 90.2641 96.3434 89.9011 99.5334 98.898L96.5917 97.58L93.1152 95.1254L91.74 91.754L92.1124 89.1753L93.8889 87.3989L97.5086 86.2336L100.88 83.101L102.408 81.2099L105.483 79.4813L111.434 76.3008L113.831 73.4643L116.037 70.9524L118.73 69.0518L120.077 68.8322V68.8226Z" fill="#4B808C"/>
<path d="M119.494 68.9182C119.494 68.9182 115.56 73.2543 110.116 80.1977C104.672 87.1411 102.742 86.5585 98.712 89.4523C94.6816 92.3462 98.521 98.4396 98.521 98.4396L94.4428 97.0738L92.2843 94.5525L91.74 91.7445L92.4181 88.2585L94.9299 87.1411L98.521 85.3168L101.491 82.337L104.022 80.5606L108.148 78.574L111.434 76.2914L114.07 72.8341L116.82 70.1407L119.494 68.9182Z" fill="#24596B"/>
<path d="M135.941 53.0067C135.941 53.0067 144.709 44.9172 145.616 38.7187C146.523 32.5203 152.464 42.453 159.159 40.0749C165.863 37.6968 168.566 48.833 168.566 48.833L165.73 44.8312L162.893 42.8446H160.009L156.771 44.0958L154.126 44.8217L150.85 44.1435L148.156 44.8217L146.485 46.7414L144.718 49.6161L142.369 51.3543L138.453 52.6437L135.95 52.9971L135.941 53.0067Z" fill="#D9DADD"/>
<path d="M136.609 53.3886C136.609 53.3886 147.621 54.764 149.493 51.6791C151.365 48.5942 152.96 47.9829 152.96 47.9829L155.873 48.3745L158.958 49.6543L157.306 46.9992L154.718 44.8121L150.831 44.1244L148.137 44.8025L146.189 47.6677L142.349 51.3448L138.434 52.6341L136.6 53.3791L136.609 53.3886Z" fill="#214859"/>
<path d="M154.116 44.8217C154.116 44.8217 157.688 47.1616 157.879 49.6639C158.07 52.1662 161.413 57.1803 163.915 53.8376C166.417 50.4948 163.504 48.9667 163.504 48.9667L161.059 47.9925C161.059 47.9925 156.083 45.8245 155.195 44.8217H154.116Z" fill="#14303F"/>
<path d="M233.34 77.7144C233.34 77.7144 225.479 99.9772 238.612 102.823L236.491 103.463L229.653 103.244L224.887 101.266L221.42 96.7394L220.284 90.9326L221.392 84.5718L223.923 80.761L227.791 78.8318L233.359 77.7334L233.34 77.7144Z" fill="#5891A0"/>
<path d="M233.149 78.3162C233.149 78.3162 214.926 92.117 231.477 103.014L229.643 103.234L224.878 101.257L221.277 96.2525L220.265 89.8534L221.191 83.9033L223.903 80.7516L228.908 78.851L233.149 78.3257V78.3162Z" fill="#4B808C"/>
<path d="M231.544 57.9539C231.544 57.9539 235.517 64.2096 243.196 69.367C243.196 69.367 244.495 73.3497 243.196 76.4919L240.751 71.726L235.737 66.9793L234.218 65.7473C234.218 65.7473 232.69 70.4749 221.592 68.4597C210.494 66.4445 221.134 68.4597 221.134 68.4597L225.661 66.9507L228.507 64.2765L231.554 57.9539H231.544Z" fill="#4B808C"/>
<path d="M71.6261 35.0034C71.6261 35.0034 62.8967 38.2793 55.7718 45.5475C55.2656 46.0632 55.9628 46.8654 56.5454 46.4261C59.9646 43.857 64.8259 41.2592 71.0435 40.5237C71.5974 40.4569 71.9126 41.135 71.521 41.5266L64.9215 47.9924L56.8033 55.9864C56.7365 56.0533 56.6887 56.1297 56.66 56.2252C56.0392 58.1258 49.3633 79.233 59.1719 73.407C59.3152 73.321 59.4202 73.1777 59.4488 73.0154L60.5376 67.4091C60.5376 67.4091 60.5568 67.3423 60.5663 67.3136L61.8365 63.9804C61.8747 63.8849 61.9321 63.7989 62.0085 63.7416C62.8776 63.0253 68.312 58.8612 73.4312 62.6624C78.5504 66.4636 73.8132 79.9492 80.0117 80.5987C80.4128 80.6369 80.7375 80.2835 80.6515 79.8919L79.9448 76.5779C79.9161 76.4537 79.9352 76.3295 79.983 76.2149L80.7661 74.4576C80.7948 74.3907 80.833 74.3334 80.8808 74.2856L83.4881 71.6401C83.5646 71.5542 83.6696 71.5064 83.7842 71.4777C85.3123 71.153 96.544 68.6316 96.821 64.7158C97.117 60.5135 102.542 63.8563 104.28 62.3281C105.827 60.9815 106.181 57.123 106.238 56.2729C106.238 56.1679 106.219 56.0532 106.171 55.9577L104.739 53.2549C104.538 52.8729 104.796 52.4144 105.226 52.3953C105.894 52.3571 106.744 52.2234 107.222 51.7745C107.422 51.5835 107.718 51.5453 107.948 51.7076C110.125 53.3504 120.01 59.9786 128.176 51.8605C128.539 51.5071 128.291 50.8863 127.785 50.8672L126.552 50.8099C126.552 50.8099 126.467 50.8099 126.428 50.7908L123.324 49.9408C123.238 49.9217 123.162 49.8739 123.105 49.8262L121.137 48.1548C121.032 48.0593 120.956 47.9351 120.937 47.7919L120.134 42.5771C120.115 42.4434 120.134 42.3097 120.201 42.1951L121.978 39.0434C122.006 38.9861 122.054 38.9383 122.102 38.8905L124.709 36.5888C124.786 36.522 124.881 36.4742 124.986 36.4551L128.969 35.6528C129.026 35.6433 129.093 35.6337 129.16 35.6528L130.669 35.8438C130.85 35.8629 131.022 35.8057 131.156 35.6815C132.082 34.7742 135.807 30.8488 135.75 26.9903C135.75 26.4459 135.034 26.2262 134.699 26.656L133.114 28.7381C133.066 28.7954 133.009 28.8527 132.942 28.8909L127.765 31.8708C127.765 31.8708 120.144 36.522 110.154 31.9089C110.106 31.8898 110.049 31.8708 109.992 31.8612L107.871 31.5747C107.871 31.5747 107.814 31.5651 107.785 31.5556C107.098 31.355 97.8811 28.719 95.9232 32.3579C94.2518 35.4714 91.9215 32.6061 93.0962 29.3875C93.2872 28.8622 92.7046 28.3943 92.2271 28.6999L91.9788 28.8622C91.9024 28.91 91.8355 28.9769 91.7878 29.0533L89.9254 32.1764C89.9254 32.1764 89.8872 32.2432 89.8776 32.2719L88.9225 34.8983C88.8939 34.9747 88.8843 35.0511 88.8843 35.1275L88.9798 37.2574C88.9798 37.2574 87.5186 29.464 77.3852 34.0674C77.3279 34.0961 77.261 34.1152 77.1942 34.1152L73.5076 34.4017C73.4598 34.4017 73.4121 34.4113 73.3643 34.4304L71.6452 35.0129L71.6261 35.0034Z" fill="#BCD9DD"/>
<path d="M88.2062 35.3854C88.2062 35.3854 76.5734 49.8357 105.512 49.8834C105.512 49.8834 111.634 46.894 109.686 41.708L105.264 42.9973L101.014 43.5513L96.1238 43.494L93.1726 42.4147L90.0686 39.8933L88.7984 36.3213L88.2062 35.3854Z" fill="#EBECF0"/>
<path d="M110.316 22.1004C110.316 22.1004 79.9735 42.4435 109.686 41.6986L104.261 43.1312L97.5755 43.7138L93.1726 42.4149L89.7057 39.9126L88.7888 36.331L89.4764 32.0141L91.7495 29.0438L94.7199 26.064L96.353 23.2847L100.918 20.2094H105.455L110.297 22.1099L110.316 22.1004Z" fill="#9AC2CC"/>
<path d="M34.0439 69.8351C34.0439 69.8351 40.1659 77.6094 26.1454 82.2988C26.1454 82.2988 34.7411 79.8443 34.0439 69.8351Z" fill="#BCD9DD"/>
<path d="M8.61011 97.0069C8.61011 97.0069 20.8351 93.645 27.4156 83.1392C27.4156 83.1392 22.0862 95.4406 8.61011 97.0069Z" fill="#BCD9DD"/>
<path d="M28.8578 72.4806C28.8578 72.4806 28.3707 76.7403 25.0852 79.1375C25.0852 79.1375 30.1949 75.852 28.8578 72.4806Z" fill="#BCD9DD"/>
<path d="M166.332 32.5394C166.332 32.5394 175.892 16.6086 181.737 22.1003L182.329 19.3879L181.651 15.4053L178.432 14.7272L173.409 15.6631L170.496 18.1177L168.566 22.2245L166.857 29.7219L166.332 32.5394Z" fill="#5891A0"/>
<path d="M167.162 39.2248C167.162 39.2248 165.911 35.9011 166.341 31.5078C166.771 27.1144 168.031 23.638 168.031 23.638L170.505 18.1176L174.345 15.6631L180.352 13.858L176.465 11.7377L169.779 11.6327L166.876 9.57922C166.876 9.57922 170.906 13.9917 167.181 14.7271C167.181 14.7271 170.429 14.708 168.948 16.2552C168.948 16.2552 162.96 23.5806 156.695 25.634C150.429 27.6875 153.925 32.9786 153.925 32.9786L157.898 33.7904L160.658 34.4972L163.982 36.6461L167.181 39.2248H167.162Z" fill="#BCD9DD"/>
<path d="M110.316 22.1002C110.316 22.1002 116.371 19.7221 117.594 21.68C118.816 23.6379 124.126 14.708 128.577 14.7271C133.028 14.7462 140.945 8.79603 140.945 8.79603C140.945 8.79603 144.145 2.12962 158.452 5.41508L156.494 3.18974L152.932 0.821167H147.344L144.25 1.68076L139.284 3.00827L135.74 2.83636L133.028 6.00722L130.736 9.94213L129.227 11.6613L123.42 12.4922L120.096 14.8226L115.808 18.0317L112.255 18.2131L110.564 19.8463L110.335 22.1002H110.316Z" fill="#5891A0"/>
<path d="M200.342 85.4409C200.638 85.0398 200.647 84.4954 200.38 84.0752C199.024 81.9645 195.967 75.1643 207.763 69.3384L197.772 74.0278L193.484 78.0487L193.981 82.0218L195.843 84.1994L197.925 83.5117L198.823 84.1994L200.246 85.5842L200.351 85.4409H200.342Z" fill="#4B808C"/>
<path d="M186.684 74.066C186.684 74.066 180.629 65.4417 184.039 61.65C187.448 57.8584 185.318 52.5291 185.318 52.5291L179.827 56.7123C179.827 56.7123 172.931 60.991 169.598 61.2393C166.265 61.4877 163.39 62.882 163.39 62.882L160.553 64.2383L161.661 66.3012L170.257 71.1148L176.761 72.7289L179.521 75.0975L180.619 76.8357L182.635 75.4699L184.841 73.9227L186.665 74.0756L186.684 74.066Z" fill="#4B808C"/>
<path d="M196.483 75.021C196.483 75.021 190.638 70.322 209.854 61.6499L205.213 63.5601H201.679L197.247 62.5094L190.972 62.1274L186.684 64.6679V66.836L186.894 72.7097L187.582 77.4468L190.877 82.0026L193.484 82.3178V79.4812L194.401 77.6952L196.244 75.4412" fill="#24596B"/>
<path d="M192.3 81.6493C192.3 81.6493 188.461 77.638 190.342 71.3345C192.224 65.031 189.817 65.2984 191.058 64.6776C192.3 64.0568 195.987 62.5001 199.176 63.3978L193.475 62.1276L188.212 63.3978L186.044 66.2631L186.675 69.3384L186.98 75.5464L188.738 79.5004L192.309 81.6493H192.3Z" fill="#214859"/>
<path d="M198.269 22.9121C198.269 22.9121 186.579 15.1092 181.679 24.4116C176.77 33.7045 180.552 36.6557 180.552 36.6557L179.788 40.581L178.117 42.367C178.117 42.367 190.313 45.8817 193.494 40.4377L199.558 39.2343C199.558 39.2343 211.86 57.5432 197.935 61.6596L200.638 63.2068L205.232 63.5793C205.232 63.5793 213.206 64.286 213.598 67.0557C213.99 69.8254 216.53 63.8371 216.53 63.8371L221.945 62.3472L225.899 58.0494L222.404 49.9026L220.723 41.7271L217.371 37.3815L212.003 33.1601L207.266 29.7504L203.856 27.6206L200.695 26.1307L198.995 24.765L198.288 22.9408L198.269 22.9121Z" fill="#5891A0"/>
<path d="M204.716 29.206C204.716 29.206 219.978 35.4809 218.994 45.5283C218.011 55.5757 222.824 53.742 223.903 56.7123C224.983 59.6826 226.606 56.7123 226.606 56.7123L226.96 52.1374L226.052 46.7317L225.642 41.6984C225.642 41.6984 217.504 33.5803 204.697 29.1965L204.716 29.206Z" fill="#BCD9DD"/>
<path d="M189.597 59.6348C188.136 59.5966 187.19 58.078 187.783 56.7504C188.995 54.038 191.307 50.0267 194.181 50.8576C198.441 52.0897 200.867 47.5435 202.739 49.043C204.611 50.5424 202.643 58.5364 195.041 59.3482C192.548 59.6156 190.81 59.6825 189.597 59.6443V59.6348Z" fill="#BCD9DD"/>
<path d="M241.801 109.461L239.91 105.211L240.856 102.585L243.196 101.496C243.196 101.496 243.339 90.0922 239.91 85.3072C236.482 80.5223 236.988 81.1526 236.988 81.1526L236.119 77.3419C236.119 77.3419 237.418 68.1541 241.372 72.939C245.326 77.7239 242.384 75.0115 242.384 75.0115C242.384 75.0115 243.186 71.6974 243.186 70.5226C243.186 69.3479 245.66 72.5378 245.66 72.5378L249.222 78.3065L249.69 80.6942L252.613 82.0027L248.678 86.3864L250.913 89.2708L251.142 95.6507L252.46 99.4519L252.145 103.807L250.846 105.412L249.098 108.105L251.677 109.795H246.262L241.801 109.442V109.461Z" fill="#4B808C"/>
<path d="M243.196 69.3671C243.196 69.3671 254.58 68.2211 249.69 80.7135L249.328 76.8072L246.959 74.1616L243.196 69.3766V69.3671Z" fill="#214859"/>
<path d="M206.511 109.375L205.843 149.765L219.615 150.845L232.012 151.675L246.176 152.497H254.046L258.735 151.112L262.45 146.604L265.296 139.708L264.933 129.585L263.701 122.431L259.079 116.949L254.943 114.38L250.416 113.071L237.867 112.221L206.511 109.375Z" fill="#14303F"/>
<path d="M128.3 106.424V119.919L136.772 120.444V106.949L143.753 107.389V143.892L136.762 143.452V128.983L128.291 128.458V142.927L121.309 142.488V105.985L128.3 106.424Z" fill="#EBECF0"/>
<path d="M170.744 131.313L161.661 130.75V137.273L171.813 137.903V145.649L154.89 144.589V109.203L171.298 110.225V117.971L161.671 117.369V123.08L170.753 123.644V131.313H170.744Z" fill="#EBECF0"/>
<path d="M181.393 111.696L188.002 112.107V138.906L197.495 139.498V147.253L181.383 146.251V111.696H181.393Z" fill="#EBECF0"/>
<path d="M204.83 113.721L211.334 114.131V140.491L220.675 141.074V148.705L204.821 147.712V113.721H204.83Z" fill="#EBECF0"/>
<path d="M248.277 133.233C248.277 144.073 243.616 150.682 236.186 150.224C228.717 149.756 224.62 141.657 224.62 132.297C224.62 122.479 229.214 114.982 236.596 115.44C244.342 115.927 248.277 124.208 248.277 133.243V133.233ZM231.448 132.555C231.448 138.897 233.425 142.898 236.501 143.089C239.633 143.29 241.448 139.174 241.448 133.099C241.448 127.292 239.595 122.775 236.463 122.584C233.416 122.393 231.439 126.357 231.439 132.564L231.448 132.555Z" fill="#EBECF0"/>
<path d="M245.66 115.068C245.66 115.068 259.327 118.429 259.652 127.292C259.881 133.596 259.948 138.964 259.967 141.533C259.977 142.803 259.767 144.064 259.318 145.257C258.267 148.027 255.86 152.564 251.266 152.516L254.934 152.239L258.468 150.424L262.326 145.057L263.176 140.081L263.042 134.389L262.995 128.429L261.476 124.045L258.792 120.187L255.45 117.178L250.751 114.752L245.651 115.077L245.66 115.068Z" fill="#071D26"/>
<path d="M42.1333 462.4C42.1333 462.4 35.9731 449.382 39.2394 441.13L43.0884 443.413L48.2458 451.76L47.3098 464.74L42.1429 462.39L42.1333 462.4Z" fill="#545454"/>
<path d="M43.0885 443.423C43.0885 443.423 39.5356 453.365 46.1734 464.291L51.4645 466.469L61.5692 470.241L70.3464 473.001L79.9449 474.835L99.0368 476.163L108.33 475.141L122.618 473.202L134.699 470.872L160.601 463.298L176.303 456.459L195.796 447.166L212.127 438.695L225.699 429.918L237.026 422.058L247.026 413.481L251.515 408.782L256.109 403.577L261.419 398.267L267.445 392.145L275.917 384.695L282.345 378.057L287.349 371.525L291.838 362.747L294.904 354.782L297.454 345.699L291.838 354.476L285.611 363.559L275.917 374.791L257.952 391.428L236.205 407.454L218.24 418.686L211.096 422.869L192.109 431.14L175.261 438.494L164.746 443.594L154.746 448.695L139.131 454.616L122.188 458.599L109.629 460.031L98.502 460.327L91.1479 459.22L78.5887 455.036L61.4355 449.525L51.7797 446.508L43.0599 443.432L43.0885 443.423Z" fill="#4F4F4F"/>
<path d="M119.657 406.442L122.178 409.288C122.618 409.775 123.382 409.785 123.821 409.298C124.298 408.782 124.289 407.989 123.821 407.464C122.016 405.42 118.377 399.642 122.169 389.136C127.04 375.631 135.549 383.31 143.027 381.171C150.506 379.041 147.516 357.494 144.957 352.27C142.397 347.046 143.677 342.461 143.677 342.461L142.607 350.245L140.688 356.109L137.918 362.298L133.706 368.459L128.749 373.282L121.605 378.506L120.02 380.76L117.431 384.638L116.219 389.126L115.846 394.188L116.199 398.257L117.403 402.507L118.644 404.923L119.647 406.452L119.657 406.442Z" fill="#C4C5C6"/>
<path d="M203.981 327.4C203.981 327.4 203.417 294.889 203.981 285.606C204.114 283.466 209.071 308.919 208.68 306.292C206.607 292.262 206.101 292.683 206.101 292.683L208.574 300.925L210.762 309.425L211.85 313.647L215.499 319.864L216.97 330.064L212.977 345.699L209.444 356.329L205.709 362.289L203.99 365.259C203.99 365.259 208.937 339.978 203.99 327.39L203.981 327.4Z" fill="#C4C5C6"/>
<path d="M198.155 371.324C198.155 371.324 201.975 344.562 184.268 320.533C166.57 296.503 170.916 288.509 173.514 284.183C174.564 282.435 198.145 261.719 198.852 264.46C199.501 267.02 199.912 267.784 201.134 272.693C204.897 287.841 207.266 325.537 207.543 357.189L206.636 361.811L203.971 365.269L198.155 371.314V371.324Z" fill="#D3D3D3"/>
<path d="M193.561 220.441C191.889 225.035 189.807 223.364 189.807 223.364C189.807 223.364 189.559 222.953 188.986 222.418C187.716 221.243 184.822 219.448 179.368 220.021C175.118 220.47 173.027 220.078 171.995 219.62C170.161 218.798 168.213 218.235 166.207 218.168C162.492 218.034 156.991 218.502 150.974 221.281C150.706 221.406 150.439 221.511 150.172 221.606C150.506 220.689 153.447 213.221 159.321 211.263C165.587 209.171 171.011 206.249 178.108 210.843C178.108 210.843 180.066 211.96 184.373 210.012C188.967 207.92 195.232 215.857 193.561 220.451V220.441Z" fill="#C4C5C6"/>
<path d="M197.639 166.938C197.639 166.938 213.551 187.701 208.555 211.492C203.56 235.283 208.689 252.961 198.155 261.729L205.939 251.232L211.048 239.724L213.388 230.708L215.461 221.998L218.593 208.818L222.232 193.766L223.627 188.646L224.056 182.047L222.987 177.558L217.161 175.027L208.823 171.503L197.629 166.938H197.639Z" fill="#D3D3D3"/>
<path d="M101.491 172.639C101.491 172.639 128.978 174.97 128.797 183.183C128.615 191.397 106.142 204.969 113.64 219.228C121.147 233.487 158.28 197.261 158.28 197.261L156.628 192.467L156.399 186.985L157.707 179.926L147.43 164.836L139.226 165.868L118.902 168.914L101.482 172.639H101.491Z" fill="#D3D3D3"/>
<path d="M103.497 172.2C103.497 172.2 149.006 169.526 146.351 175.648C143.696 181.77 131.223 207.137 139.207 202.486C146.351 198.312 149.77 200.27 156.867 194.148L156.408 190.862L156.781 182.84L157.717 179.927L162.205 174.368L166.828 167.071L155.109 164.493L140.774 166.059L126.763 167.788L113.649 170.233L103.506 172.2H103.497Z" fill="#C4C5C6"/>
<path d="M182.596 156.021L183.57 156.804C184.096 157.234 184.096 158.036 183.57 158.457L148.042 186.927C147.851 187.08 147.593 186.841 147.736 186.641C149.436 184.244 153.514 178.742 157.65 174.922C163.075 169.908 161.823 169.497 161.823 169.497C161.823 169.497 154.307 167.826 142.197 168.666C130.086 169.507 120.344 169.937 108.721 170.557L118.893 168.915L128.415 166.995L137.316 166.011L149.188 164.636L159.312 163.509L168.184 162.277L175.863 160.195L180.61 157.396L182.587 156.031L182.596 156.021Z" fill="#858689"/>
<path d="M170.601 233.315C170.601 233.315 183.064 241.195 182.023 255.932C180.982 270.668 183.15 270.926 183.15 270.926L190.476 267.746L199.291 256.82L205.9 246.018C205.9 246.018 202.51 225.063 193.857 218.139L193.083 221.597L192.071 223.048L189.817 223.363L189.587 224.72L190.705 226.458L189.817 227.938L186.913 228.378C186.913 228.378 191.507 233.946 183.322 236.19L180.896 234.843L176.274 233.602L170.61 233.315H170.601Z" fill="#D3D3D3"/>
<path d="M211.621 348.832C211.621 348.832 207.457 368.353 224.056 373.291C240.655 378.238 283.194 366.892 291.847 354.476C300.51 342.06 300.166 339.319 300.166 339.319L303.366 325.489V316.101L300.768 312.224L295.801 309.635L287.865 311.269L278.247 313.637L265.382 315.748L248.191 317.467L231.267 317.285L222.203 316.502L216.97 315.347L214.123 330.399V337.247L212.71 344.61L211.631 348.822L211.621 348.832Z" fill="#D3D3D3"/>
<path d="M214.114 344.209C214.114 344.209 223.111 339.816 225.46 334.401C227.81 328.985 232.203 322.548 242.317 322.137C252.431 321.727 278.075 317.438 284.417 312.529L278.238 313.637L272.039 315.041L263.291 316.292L253.616 317.324L241.114 317.591L227.628 316.961L219.863 315.882L219.424 324.926L213.665 337.753L212.7 344.601L214.114 344.19V344.209Z" fill="#C4C5C6"/>
<path d="M211.85 313.647C211.85 313.647 213.99 321.097 214.018 327.247C214.047 333.398 213.751 335.814 213.751 335.814L213.101 342.462L211.621 348.841C211.621 348.841 220.284 342.251 223.684 323.36C224.4 319.349 235.832 318.632 242.843 317.572L226.864 316.77L215.26 314.698L211.85 313.647Z" fill="#B1B1B2"/>
<path d="M260.521 152.793C256.5 156.546 245.335 159.058 245.335 159.058C245.335 159.287 245.316 159.507 245.297 159.727C244.132 178.819 228.211 184.941 228.211 184.941C227.38 193.708 222.366 193.288 222.366 193.288C222.366 193.288 220.694 199.133 214.429 226.687C208.164 254.241 198.145 262.178 198.145 262.178C200.647 269.694 211.927 313.952 211.927 313.952C230.713 320.218 265.793 317.706 288.753 311.03C302.802 306.942 304.97 315.987 302.439 329.253C302.439 329.31 302.42 329.358 302.41 329.415C302.353 329.74 302.286 330.055 302.21 330.389" stroke="black" stroke-width="1.75" stroke-linecap="round" stroke-linejoin="round"/>
<path d="M18.1992 412.096C18.1992 412.096 15.6969 402.077 23.6241 397.483C31.5512 392.89 44.502 383.291 57.8635 375.775C71.225 368.258 80.4128 346.96 75.3987 326.502C72.7722 315.805 70.1553 304.306 68.0733 292.664C66.1727 282.043 64.7209 271.308 64.1192 260.955C62.8681 239.247 59.1051 209.601 59.1051 209.601" stroke="black" stroke-width="1.75" stroke-linecap="round" stroke-linejoin="round"/>
<path d="M173.408 277.774C178.957 275.195 184.669 272.722 189.759 269.303C192.596 267.115 195.213 264.384 197.524 261.652C197.82 261.299 198.346 261.251 198.699 261.547C199.043 261.834 199.1 262.35 198.823 262.703C197.247 264.718 195.509 266.514 193.618 268.195C191.794 269.895 189.568 271.318 187.324 272.426C182.864 274.689 178.289 276.59 173.638 278.347C173.275 278.49 173.036 277.927 173.399 277.774H173.408Z" fill="black"/>
<path d="M250.378 152.764L120.44 144.656C111.348 144.092 104.261 136.547 104.261 127.436V115.048C104.261 107.284 110.908 101.181 118.644 101.84L249.786 113.09C258.353 113.826 264.924 120.989 264.924 129.585V139.097C264.924 147.005 258.257 153.261 250.368 152.774L250.378 152.764Z" stroke="black" stroke-width="1.75" stroke-linecap="round" stroke-linejoin="round"/>
<path d="M104.271 116.71C104.271 108.945 110.841 102.842 118.482 103.501L248.048 114.752C256.51 115.488 263.004 122.651 263.004 131.246V140.759C263.004 144.216 261.743 147.358 259.671 149.765" stroke="black" stroke-width="1.75" stroke-linecap="round" stroke-linejoin="round"/>
<path d="M249.958 156.002L119.342 148.552C108.435 147.932 99.925 138.887 99.9727 127.961L100.02 116.099C100.059 106.376 108.368 98.7451 118.052 99.5188L249.595 110.091C259.241 110.865 266.7 118.878 266.786 128.553L266.891 139.852C266.977 149.116 259.213 156.518 249.958 155.992V156.002Z" stroke="black" stroke-width="1.75" stroke-linecap="round" stroke-linejoin="round"/>
<path d="M48.6755 184.53V191.149C48.6755 191.149 60.3657 191.626 64.9596 189.124C69.5535 186.622 82.4948 176.593 101.701 172.42C120.908 168.246 129.255 166.995 143.877 165.324C158.5 163.652 175.194 162.821 181.46 156.976C187.725 151.131 190.648 158.648 189.807 164.493C192.701 165.362 195.7 166.345 198.785 167.463C203.703 169.249 208.25 171.178 212.442 173.146C214.066 173.91 215.737 174.559 217.437 175.113C220.054 175.973 223.292 177.558 224.047 180.356C224.209 180.949 224.228 181.503 224.113 183.394C223.903 186.698 223.55 189.487 223.216 191.626" stroke="black" stroke-width="1.75" stroke-linecap="round" stroke-linejoin="round"/>
<path d="M23.2037 168.666C23.6239 178.227 21.3317 186.201 17.9889 186.201C14.6462 186.201 11.9337 178.446 11.9337 168.876C11.9337 159.307 13.6242 150.72 16.9479 151.131C20.2715 151.542 22.793 159.068 23.2132 168.666H23.2037Z" stroke="black" stroke-width="1.75" stroke-linecap="round" stroke-linejoin="round"/>
<path d="M29.4689 169.22C29.4689 181.598 25.5245 191.999 20.7013 191.626C15.2765 191.206 12.8219 182.324 11.9337 169.22C11.1028 156.976 15.8591 146.814 20.7013 146.814C25.5436 146.814 29.4689 156.843 29.4689 169.22Z" stroke="black" stroke-width="1.75" stroke-linecap="round" stroke-linejoin="round"/>
<path d="M15.9928 150.042C18.5046 140.835 23.452 135.993 29.469 133.586C29.469 133.586 34.8938 129.413 41.9996 138.601C41.9996 138.601 43.6709 140.692 46.1732 139.852C48.6755 139.011 44.5018 135.258 44.5018 135.258C44.5018 135.258 49.1817 130.721 51.8559 133.825C54.5302 136.929 55.7813 139.432 57.4527 138.18C59.1241 136.929 58.7038 134.838 55.7813 131.504" stroke="black" stroke-width="1.75" stroke-linecap="round" stroke-linejoin="round"/>
<path d="M17.502 190.136C21.0071 198.159 26.6421 202.753 32.8118 203.737C32.8118 203.737 43.671 205.828 50.7673 202.486C57.8635 199.143 56.7365 190.967 56.7365 190.967" stroke="black" stroke-width="1.75" stroke-linecap="round" stroke-linejoin="round"/>
<path d="M27.196 141.972C30.4624 143.882 32.3057 147.378 33.4804 150.826C35.8299 157.788 34.8844 165.2 34.3304 172.324C33.9866 175.782 33.767 179.296 32.8787 182.668L32.8119 182.849L32.7641 182.954C32.7641 182.954 32.745 182.993 32.7163 183.031C32.3916 183.546 31.6467 182.916 32.2197 182.534C32.0478 182.649 32.1242 182.611 32.1051 182.63C32.3248 181.846 32.3725 181.016 32.468 180.204C32.8118 176.106 32.9838 171.054 33.1366 166.909C33.3467 161.742 33.2703 156.289 31.9332 151.294C31.0067 148.037 29.5359 144.637 26.8713 142.469C26.5847 142.268 26.8904 141.781 27.2056 141.972H27.196Z" fill="black"/>
<path d="M63.0209 190.127C63.1546 196.965 63.4602 203.813 63.9187 210.632C64.3867 217.423 64.9788 224.156 67.5766 230.517C72.4952 242.943 80.069 255.311 92.0265 262.006C92.1316 262.063 92.1793 262.187 92.122 262.292C92.0743 262.388 91.9596 262.426 91.8641 262.388C87.8242 260.86 84.1853 258.186 81.0718 255.215C73.1638 247.164 67.5957 236.935 64.2242 226.21C62.8298 221.176 62.5051 215.923 62.0849 210.756C61.6073 203.889 61.4354 197.022 61.359 190.136C61.359 189.076 62.9922 188.99 63.0304 190.117L63.0209 190.127Z" fill="black"/>
<path d="M193.561 220.441C191.889 225.035 189.807 223.364 189.807 223.364C189.807 223.364 189.559 222.953 188.986 222.418C187.715 221.243 184.822 219.448 179.368 220.021C175.118 220.47 173.026 220.078 171.995 219.62C170.161 218.798 168.213 218.235 166.207 218.168C162.492 218.034 156.991 218.502 150.974 221.281C150.706 221.406 150.439 221.511 150.172 221.606C150.506 220.689 153.447 213.221 159.321 211.263C165.586 209.171 171.011 206.249 178.107 210.843C178.107 210.843 180.065 211.96 184.373 210.012C188.967 207.92 195.232 215.857 193.561 220.451V220.441Z" stroke="black" stroke-width="1.75" stroke-linecap="round" stroke-linejoin="round"/>
<path d="M189.721 222.151C193.341 228.464 190.332 230.164 184.029 228.807C180.266 227.919 176.503 227.442 172.673 227.48C170.811 227.518 168.748 227.614 166.771 227.403C160.849 226.754 155.205 224.882 149.789 222.437C149.36 222.246 149.197 221.73 149.398 221.31C149.398 221.31 150.467 222.38 150.467 222.37C149.054 222.934 147.287 222.724 145.883 222.179C145.749 222.122 145.683 221.969 145.74 221.835C145.788 221.73 145.893 221.673 145.998 221.673C146.704 221.692 147.383 221.616 148.032 221.444C148.787 221.32 149.398 220.804 150.152 220.785C150.783 220.728 151.212 221.425 150.935 221.969L150.515 220.928C155.692 223.268 161.26 225.121 166.933 225.732C168.824 225.933 170.648 225.837 172.663 225.799C177.095 225.694 181.507 226.487 185.777 227.442C186.636 227.566 187.62 227.547 188.451 227.489C189.167 227.365 189.616 227.337 189.626 226.563C189.568 225.283 188.804 224.099 188.222 222.867C187.754 221.874 189.234 221.157 189.721 222.131V222.151Z" fill="black"/>
<path d="M190.638 164.483C190.896 167.95 192.004 171.551 193.179 174.865C194.888 179.697 198.546 186.612 194.277 191.378C191.584 194.243 187.859 195.351 184.564 197.061C183.781 197.452 183.074 197.882 182.587 198.484C182.081 199.076 181.832 199.907 181.689 200.805C181.66 201.062 181.24 201.072 181.211 200.805C180.753 198.713 182.033 196.736 183.838 195.771C186.894 193.938 190.609 192.839 192.959 190.232C196.435 185.848 192.911 180.108 191.421 175.495C190.18 171.894 189.139 168.361 188.967 164.483C188.967 163.375 190.629 163.347 190.638 164.483Z" fill="black"/>
<path d="M159.006 178.886C156.809 181.522 157.239 185.352 157.191 188.628C157.44 191.541 156.551 196.354 160.19 197.204C160.505 197.271 160.439 197.768 160.123 197.758C155.654 197.691 155.74 191.875 155.634 188.656C155.615 185.581 155.692 182.009 157.688 179.43C157.994 179.058 158.318 178.723 158.805 178.494C158.92 178.446 159.044 178.494 159.101 178.599C159.159 178.714 159.101 178.828 159.006 178.895V178.886Z" fill="black"/>
<path d="M174.908 191.407C175.491 191.149 175.51 190.385 174.937 190.108C171.775 188.542 163.667 185.294 161.623 191.435C159.923 196.545 170.887 193.174 174.898 191.407H174.908Z" stroke="black" stroke-width="1.75" stroke-linecap="round" stroke-linejoin="round"/>
<path d="M195.71 188.341C196.932 191.149 196.865 195.112 193.866 196.755C191.574 198.13 189.339 199.678 187.009 200.948C186.913 201.005 186.78 200.977 186.722 200.881C186.713 200.021 187.448 199.382 187.878 198.837C189.425 197.319 191.268 196.173 193.045 194.979C195.012 193.661 194.678 190.939 194.134 188.895C193.847 187.911 195.308 187.395 195.7 188.341H195.71Z" fill="black"/>
<path d="M193.914 190.538C197.381 194.921 190.027 196.593 187.419 198.427C186.302 198.503 189.148 196.45 189.406 196.344C190.953 195.198 193.962 194.463 193.732 192.19C193.675 191.808 193.475 191.407 193.245 191.13C192.892 190.71 193.532 190.137 193.914 190.528V190.538Z" fill="black"/>
<path d="M175.023 198.255C175.252 196.478 176.446 194.979 177.869 193.966C179.235 193.059 180.677 192.543 181.785 191.426C181.871 191.302 182.042 191.168 182.186 191.311C182.425 191.808 181.842 192.476 181.641 192.801C180.887 193.794 179.636 194.539 178.681 195.16C177.42 196.02 176.312 197.089 175.319 198.388C175.223 198.522 174.984 198.426 175.013 198.264L175.023 198.255Z" fill="black"/>
<path d="M48.8857 142.125C53.3173 150.768 53.8617 163.232 51.2353 172.506C51.0729 173.022 50.2611 172.888 50.2802 172.343C50.5858 164.779 51.4931 157.215 50.2133 149.679C49.8313 147.196 49.3156 144.694 48.456 142.335C48.3318 142.077 48.733 141.857 48.8762 142.115L48.8857 142.125Z" fill="black"/>
<path d="M57.3284 142.106C62.3808 153.576 62.4763 167.893 57.9874 179.554C57.9301 179.678 57.72 179.631 57.7487 179.487C59.1049 170.223 59.9931 160.844 58.5891 151.523C58.1689 148.438 57.5481 145.362 56.7267 142.364C56.593 142.001 57.1565 141.743 57.3284 142.115V142.106Z" fill="black"/>
<path d="M253.205 110.741C253.205 110.741 249.518 108.535 249.098 108.124C248.678 107.713 251.648 105.068 251.83 103.463C252.011 101.859 253.157 100.655 251.123 96.2525C251.123 96.2525 251.591 87.2557 246.166 84.7439" stroke="black" stroke-width="1.75" stroke-linecap="round" stroke-linejoin="round"/>
<path d="M249.098 85.9855C249.098 85.9855 256.51 82.1079 251.601 70.1217C248.85 63.398 242.747 62.271 239.672 62.1469C238.573 62.0991 237.628 61.3637 237.332 60.3035C236.052 55.6523 232.308 44.0673 226.96 45.0701" stroke="black" stroke-width="1.75" stroke-linecap="round" stroke-linejoin="round"/>
<path d="M218.039 63.035C224.371 61.5069 227.456 56.0438 226.081 49.6544C225.326 45.7481 225.116 41.3547 222.776 38.0979C218.832 33.4181 212.318 31.9855 206.674 29.9989C205.079 29.6455 203.111 28.8719 201.478 27.955C199.577 26.8567 197.505 24.9752 197.715 22.5016C197.725 22.2342 197.744 21.919 197.763 21.7566L197.82 21.174C197.791 20.3049 197.572 19.4262 196.798 18.9201C193.045 16.6852 187.983 18.1655 183.819 17.1054C181.937 16.6756 180.581 14.966 179.177 13.9441C177.028 12.4542 174.344 12.4828 171.756 12.4924C166.627 11.585 162.177 8.89174 158.223 5.65403C157.086 4.76581 155.587 3.24726 154.536 2.21578L154.909 2.44499C152.855 1.9006 150.62 1.59499 148.49 1.68094C146.915 1.7478 145.348 2.03431 143.954 2.74106C137.727 5.6827 135.664 0.926419 132.063 9.18783C131.347 10.7637 129.742 12.6834 127.737 12.7502C126.189 12.8744 124.489 12.9317 123.143 13.7531C120.115 15.4435 118.386 18.8819 114.385 19.1684C113.477 19.2639 112.398 18.9964 111.615 18.9964C111.558 19.006 111.386 19.5791 111.367 20.0662C111.319 20.5819 111.309 21.1263 111.309 21.6707C111.309 22.2819 110.631 22.6926 110.096 22.4156C107.604 21.1931 104.471 20.6392 101.749 21.3937C98.8934 22.0909 96.7731 24.2971 95.2928 26.7421C95.1209 26.9904 94.8343 27.1146 94.5573 27.1051C93.0292 27.0382 91.4152 27.1337 89.8584 27.3247C85.3791 27.8787 80.5082 29.5978 78.2351 33.7523C78.111 33.972 77.9008 34.1248 77.6716 34.1821C68.6461 36.5221 58.9808 39.139 51.684 45.1273C49.0671 47.2381 48.5991 50.6094 46.0968 52.8634C41.4265 57.018 38.523 54.7736 36.8899 62.3569C36.3455 64.1715 35.8584 66.2249 33.6617 66.8839C32.5156 67.1418 31.656 66.8553 30.9779 66.8458C28.6094 66.6452 27.8453 69.1857 26.6133 70.7807C24.9897 73.3689 22.134 75.3459 21.7424 78.4213C21.6087 79.214 21.6469 80.0831 21.6755 80.9236C21.7137 81.7449 21.5514 82.6045 21.284 83.3686C19.3452 88.1344 15.4102 91.5631 11.2174 94.3137C8.93479 95.6413 4.9426 97.8189 3.18526 94.7244L3.09928 94.5621C3.07063 94.5048 3.06109 94.5239 3.05154 94.4856C3.05154 94.4856 3.08018 94.5238 3.09928 94.5238C3.10883 94.5238 3.11842 94.5238 3.13752 94.5238C3.25213 94.6002 3.46224 94.5811 3.54819 94.5238C3.5864 94.5238 3.60547 94.4761 3.57682 94.5238C2.84141 95.7272 2.79366 97.5037 2.92737 99.0509C3.43356 104.371 7.78874 105.87 12.5164 104.485C14.8086 104.065 21.4558 100.608 22.8598 103.798C23.2418 105.536 22.1435 107.16 21.4654 108.64C19.2974 112.823 16.6327 117.016 16.7187 121.877C16.7473 122.087 16.3939 122.126 16.3653 121.915C15.5248 116.978 18.0462 112.26 20.0806 107.952C20.5581 106.863 21.4463 105.412 21.284 104.275C20.2907 103.826 18.6575 104.428 17.5591 104.667C14.4742 105.574 11.2748 107.054 7.86515 106.606C3.00382 106.185 0.596991 101.114 1.14138 96.6728C1.3133 95.4312 1.4852 93.7216 2.7459 92.9289C3.06108 92.7665 3.51952 92.7378 3.88245 92.9002C4.19762 93.053 4.48419 93.3395 4.64655 93.6165C5.31511 95.6699 8.93479 93.5306 10.2623 92.7474C13.8821 90.3693 19.4884 85.6703 19.7463 81.0668C19.1351 75.6516 22.2199 73.5695 25.0278 69.6823C26.4222 67.5238 28.0268 64.544 31.1117 64.926C32.019 64.9929 32.7831 65.1552 33.2128 65.0215C33.9387 64.8878 34.4353 63.7322 34.7028 62.949C34.9033 62.3282 35.505 60.1889 35.6865 59.4917C36.1736 58.2501 36.7371 56.9893 37.673 56.0152C39.6405 53.9235 42.8686 53.4556 44.7788 51.4881C45.8198 50.4757 46.6316 49.215 47.2906 47.8302C49.5351 43.1885 54.5015 40.6766 58.8566 38.5755C64.8163 35.9013 71.0052 34.0293 77.3374 32.5681L76.7738 32.9979C80.2599 26.7708 88.101 25.2999 94.6815 25.4527L93.9079 25.8634C97.4417 19.5313 104.49 17.7549 110.889 20.9544L109.657 21.6897C109.762 20.2285 109.428 18.0414 111.185 17.4015C112.264 17.1531 113.277 17.6498 114.289 17.5065C117.689 17.2582 119.513 13.734 122.369 12.2823C123.907 11.3654 125.817 11.1744 127.565 11.0884C129.122 10.9452 129.857 9.82773 130.602 8.41422C131.633 6.27485 132.684 3.88716 135.033 2.80793C137.287 1.77644 139.637 2.51183 141.795 1.83373C142.559 1.59496 143.304 1.20336 144.04 0.859533C145.425 0.334242 146.991 0.0477538 148.443 0C150.907 0 153.505 0.0859335 155.768 1.05056C156.761 2.05339 158.232 3.48603 159.312 4.3647C162.95 7.35409 167.305 9.9996 171.957 10.821C173.045 10.821 175.844 10.7732 177.467 11.3176C179.311 11.7092 181.011 13.1514 182.281 14.3548C183.494 15.4626 185.051 15.797 186.77 15.8161C191.068 16.0357 199.425 15.052 199.52 21.1931L199.453 21.9572C199.415 22.2437 199.425 22.387 199.415 22.5684C199.425 25.9876 204.343 27.5826 207.199 28.3848C211.191 29.6646 215.212 30.9254 219.023 32.9597C220.904 33.9721 222.776 35.2519 224.142 37.0761C225.517 38.9002 226.195 41.0778 226.644 43.1408C228.258 50.9915 230.111 59.0046 221.535 63.4934C220.532 63.9996 219.539 64.3912 218.383 64.6586C217.934 64.7636 217.485 64.4772 217.38 64.0283C217.266 63.5603 217.59 63.0923 218.068 63.0159L218.039 63.035Z" fill="black"/>
<path d="M7.09165 105.593C6.72872 112.097 7.46409 116.491 8.61018 119.461C10.9119 125.449 14.8564 125.659 14.8564 125.659C14.8564 125.659 15.9165 129.413 11.8383 131.504C7.76017 133.596 4.41739 136.929 4.83762 144.035" stroke="black" stroke-width="1.75" stroke-linecap="round" stroke-linejoin="round"/>
<path d="M6.49937 135.678C6.49937 135.678 0.682908 126.624 8.60049 119.461" stroke="black" stroke-width="1.75" stroke-linecap="round" stroke-linejoin="round"/>
<path d="M18.9536 140.52C12.2777 136.394 6.81464 140.988 3.97807 147.139L2.83196 149.756C2.13476 151.437 1.87691 153.595 1.7814 155.477C1.64769 157.024 2.05835 169.574 4.85672 167.492C5.57303 167.052 6.24156 166.26 7.04382 165.581C7.15843 165.486 7.32081 165.495 7.41632 165.61C7.48317 165.686 7.49271 165.782 7.46406 165.868C7.11068 166.88 6.66184 167.874 5.71631 168.676C4.46516 169.726 2.83195 169.335 2.03924 167.94C0.883594 166.021 0.807225 163.815 0.406093 161.694C-0.0332417 158.581 -0.176508 155.381 0.281929 152.239C0.463393 150.329 1.51397 148.132 2.30668 146.318C3.21401 144.493 4.2646 142.717 5.60171 141.17C9.231 136.795 15.2575 135.812 19.9565 139.154C20.8733 139.813 19.861 141.179 18.9632 140.492L18.9536 140.52Z" fill="black"/>
<path d="M5.86908 168.323C4.72299 172.678 4.62746 175.161 8.47642 178.103C12.5068 182.114 12.7552 188.169 15.2384 192.916C15.8019 193.909 16.4704 194.778 17.6165 194.96C20.5199 195.456 23.0986 197.175 24.9037 199.391C27.6066 202.715 28.7622 206.927 29.2589 211.034C29.8606 214.921 30.6247 218.98 31.9045 222.647C32.0955 223.087 31.8758 223.612 31.4174 223.765C30.9876 223.918 30.51 223.698 30.3572 223.268C28.9342 219.314 28.1797 215.389 27.5016 211.311C26.9763 207.462 25.9639 203.555 23.5094 200.537C21.9239 198.589 19.7368 197.147 17.3014 196.717C16.4896 196.574 15.6586 196.182 15.0665 195.619C10.9405 191.025 11.6282 183.738 7.27307 179.382C6.64272 178.857 5.57303 177.94 4.99999 177.176C3.86345 175.677 3.29994 173.719 3.43365 171.866C3.53871 170.395 3.83478 168.924 4.86626 167.769C5.07638 167.53 5.44885 167.511 5.68761 167.721C5.86908 167.883 5.91683 168.113 5.85952 168.332L5.86908 168.323Z" fill="black"/>
<path d="M42.9163 207.586C36.0016 216.401 28.1605 225.408 31.0734 237.403C31.6847 239.953 32.8212 242.561 34.9702 244.06C35.6387 244.471 36.4218 244.719 37.014 243.965C37.1095 243.831 37.3197 243.926 37.3006 244.079C37.1573 245.33 35.4381 245.665 34.4448 245.197C29.0295 242.704 28.1414 234.194 28.638 228.96C29.3639 224.061 31.7324 219.486 34.5977 215.589C36.8708 212.447 39.5067 209.553 42.754 207.395C42.8686 207.318 43.0119 207.471 42.9163 207.576V207.586Z" fill="black"/>
<path d="M42.9356 255.616C40.6243 258.081 36.1068 259.112 33.2703 256.696C29.8129 253.592 28.4567 248.472 29.3067 243.974C29.4881 243.038 30.6725 239.533 32.1528 240.698C32.4585 241.013 32.468 241.51 32.1815 241.835C29.6887 245.282 31.1213 251.051 33.4231 254.327C35.572 257.565 39.5069 256.543 42.7542 255.33C42.9261 255.253 43.0885 255.502 42.9452 255.636L42.9356 255.616Z" fill="black"/>
<path d="M44.5878 260.736C44.139 263.935 44.3969 268.873 48.8475 268.061C49.4301 267.985 50.9391 267.727 51.5408 267.631C56.7364 266.638 61.9416 266.781 65.0647 271.834C65.0933 271.872 65.0456 271.91 65.0074 271.881C60.8146 268.29 57.0993 267.956 51.8178 269.198C50.7385 269.408 49.1914 269.761 48.093 269.819C46.6413 269.905 45.075 269.351 44.1485 268.176C42.4008 265.855 42.5727 263.076 42.9547 260.43C43.0407 259.981 43.4704 259.676 43.9288 259.762C44.3873 259.848 44.6834 260.287 44.5974 260.736H44.5878Z" fill="black"/>
<path d="M49.0958 268.873C49.0958 268.873 50.347 273.467 59.1146 272.216C59.1146 272.216 63.7085 270.373 65.59 276.514" stroke="black" stroke-width="1.75" stroke-linecap="round" stroke-linejoin="round"/>
<path d="M54.1576 272.378C52.5531 279.904 56.0296 280.573 62.3427 281.977C63.2786 282.368 61.8078 283.056 61.4353 283.104C59.3628 283.457 57.2903 282.607 55.4088 281.862C54.8549 281.585 54.2818 281.26 53.8234 280.831C51.3784 278.414 51.6267 274.823 52.5722 271.872C52.7155 271.433 53.193 271.203 53.6324 271.347C54.0622 271.49 54.2914 271.958 54.1672 272.378H54.1576Z" fill="black"/>
<path d="M59.7927 282.282C59.7927 282.282 62.4478 283.495 63.7085 288.089C64.9692 292.683 66.1822 293.476 68.0732 292.664" stroke="black" stroke-width="1.75" stroke-linecap="round" stroke-linejoin="round"/>
<path d="M143.228 348.24C141.576 357.361 137.526 366.587 130.334 372.69C129.274 373.712 126.275 375.555 125.005 376.376C117.727 380.97 115.13 390.397 116.686 398.553C117.193 401.313 118.09 404.083 119.8 406.308C119.876 406.385 119.867 406.509 119.781 406.576C119.704 406.633 119.59 406.624 119.533 406.547C117.661 404.284 116.658 401.485 116.037 398.677C114.213 390.215 116.763 380.254 124.298 375.335L127.861 372.976C128.682 372.403 129.523 371.658 130.334 371.038C136.886 365.068 140.869 356.74 142.865 348.173C142.884 348.068 142.989 347.992 143.094 348.02C143.19 348.039 143.257 348.135 143.238 348.23L143.228 348.24Z" fill="black"/>
<path d="M165.128 370.369C164.44 377.809 160.19 384.638 154.46 389.289C154.25 389.47 153.963 389.146 154.173 388.964C159.388 383.998 163.122 377.417 164.383 370.312C164.431 369.844 165.157 369.891 165.128 370.369Z" fill="black"/>
<path d="M213.78 322.711C217.208 341.917 210.771 364.027 194 375.154C193.733 375.335 193.408 374.934 193.675 374.715C207.113 364.075 213.426 346.836 213.608 330.036C213.684 327.62 213.608 325.184 213.407 322.778C213.388 322.672 213.474 322.567 213.579 322.558C213.675 322.558 213.76 322.615 213.78 322.711Z" fill="black"/>
<path d="M302.22 330.399C300.529 338.593 297.186 348.249 293.777 357.389C284.589 382.021 276.662 380.769 252.441 407.913C228.22 435.056 165.176 464.701 130.516 471.798C95.8563 478.894 70.8047 476.392 46.1732 464.281C21.5418 452.171 18.1991 412.086 18.1991 412.086C18.1991 412.086 29.8892 441.312 49.0958 445.906C68.3024 450.5 90.0112 459.687 96.2765 460.098C102.542 460.509 130.936 460.929 158.49 446.737C186.044 432.544 206.683 425.878 214.114 421.074C221.477 416.298 292.058 378.152 302.22 330.399Z" stroke="black" stroke-width="1.75" stroke-linecap="round" stroke-linejoin="round"/>
<path d="M302.449 329.272C302.449 329.329 302.43 329.377 302.42 329.434C302.353 329.759 302.296 330.084 302.219 330.408" stroke="black" stroke-width="1.75" stroke-linecap="round" stroke-linejoin="round"/>
<path d="M125.884 288.853C135.597 283.094 150.315 280.563 158.385 290.305C158.729 290.706 158.127 291.269 157.755 290.878C148.691 281.518 136.132 284.336 125.884 288.863V288.853Z" fill="black"/>
<path d="M157.994 237.107C165.749 232.332 177.277 230.097 184.468 237.012C184.745 237.26 184.363 237.709 184.077 237.47C176.541 231.644 166.188 233.659 158.156 237.375C157.994 237.47 157.822 237.203 157.994 237.098V237.107Z" fill="black"/>
<path d="M194.401 39.2251C194.401 39.2251 188.556 55.0889 172.272 46.3213" stroke="black" stroke-width="1.75" stroke-linecap="round" stroke-linejoin="round"/>
<path d="M198.575 42.9784C198.575 42.9784 185.213 51.3257 179.788 56.7601" stroke="black" stroke-width="1.75" stroke-linecap="round" stroke-linejoin="round"/>
<path d="M160.992 47.8778C164.44 48.6133 167.544 51.5167 167.496 55.2224C167.506 55.4707 167.535 55.7286 167.611 55.8718C167.687 56.0437 167.716 56.0437 167.726 56.0437C167.754 56.0628 167.945 55.996 168.127 55.8814C170.238 54.1145 170.629 50.8863 170.295 48.2025C169.722 44.1817 167.267 40.5046 164.345 37.754C163.905 37.3147 163.523 36.9995 162.998 36.6461C159.13 33.4466 153.686 34.7646 149.465 32.2146C147.316 30.8966 145.788 28.8814 144.527 26.8089C144.46 26.7038 144.498 26.5701 144.603 26.5032C144.708 26.4364 144.842 26.4745 144.909 26.5796C146.227 28.5662 147.774 30.4572 149.828 31.5938C151.852 32.7971 154.278 32.9022 156.676 33.227C161.699 33.609 166.083 36.9517 168.767 41.1063C171.556 45.2036 172.95 50.8959 170.266 55.4611C169.665 56.3494 168.891 57.4286 167.563 57.3617C166.57 57.2376 166.178 56.0819 166.207 55.2606C166.236 53.2836 165.405 51.4212 163.848 50.1414C162.989 49.3773 161.947 48.7565 160.878 48.3076C160.629 48.2025 160.754 47.8205 161.012 47.8778H160.992Z" fill="black"/>
<path d="M132.971 33.5612C136.543 32.5488 140.248 30.2758 141.499 26.6179C141.977 25.4431 141.967 24.1538 141.958 22.9026C141.977 22.5779 142.225 22.32 142.54 22.2818C147.163 21.766 151.795 21.0784 156.38 20.1902C160.897 19.2351 165.596 18.3374 169.674 16.112C169.856 15.9879 170.066 16.2935 169.865 16.4081C167.84 17.6593 165.606 18.4615 163.371 19.1778C156.628 21.2599 149.684 22.5397 142.712 23.5998L143.295 22.9122C143.591 28.7668 138.415 32.9977 133.076 34.0388C132.77 34.1056 132.655 33.6281 132.98 33.5612H132.971Z" fill="black"/>
<path d="M166.331 32.5394C166.331 32.5394 166.838 19.1778 173.934 15.835C181.03 12.4923 187.295 15.0042 178.528 31.2882" stroke="black" stroke-width="1.75" stroke-linecap="round" stroke-linejoin="round"/>
<path d="M103.086 50.7623C110.116 56.4641 108.263 66.5401 102.58 72.5094C102.418 72.7004 102.112 72.4807 102.246 72.261C106.114 65.566 108.435 57.5529 102.838 51.0583C102.657 50.896 102.905 50.5999 103.096 50.7527L103.086 50.7623Z" fill="black"/>
<path d="M89.7057 51.1252C92.9434 52.1471 95.9996 54.8882 96.5058 58.3647C96.5345 58.5652 96.2575 58.6607 96.1525 58.4888C94.3569 55.7287 92.036 53.637 89.4764 51.5645C89.2663 51.4022 89.4574 51.0488 89.7057 51.1252Z" fill="black"/>
<path d="M93.3923 49.4824C98.2728 50.1223 102.953 54.4774 102.561 59.6539C102.561 59.8449 102.275 59.8641 102.246 59.673C101.367 54.9359 97.5851 51.6409 93.3064 49.8262C93.1058 49.7594 93.1822 49.4346 93.3923 49.4728V49.4824Z" fill="black"/>
<path d="M105.245 49.4156C111.061 51.8606 114.49 58.5366 113.611 64.6873C113.592 64.9356 113.201 64.9451 113.181 64.6873C112.446 58.8899 109.743 53.4174 104.996 49.9027C104.719 49.7403 104.939 49.2819 105.245 49.4156Z" fill="black"/>
<path d="M133.639 56.9606C138.071 60.9433 144.689 62.2517 149.856 58.9281C152.015 57.9921 151.203 64.2383 150.869 65.3175C149.933 69.5963 145.749 71.8599 141.604 71.1627C139.713 70.9143 137.937 70.3508 136.266 69.5963C136.103 69.5199 136.027 69.3289 136.103 69.1665C136.17 69.0233 136.323 68.9469 136.476 68.9851C138.233 69.3575 139.99 69.6823 141.719 69.7109C147.937 69.9974 149.847 65.2412 149.426 59.8164L150.678 60.3989C149.264 61.163 147.765 61.8315 146.141 62.0703C141.394 62.9299 136.504 60.7619 133.2 57.4C132.923 57.1135 133.362 56.6741 133.649 56.9606H133.639Z" fill="black"/>
<path d="M136.418 65.1456C140.678 65.3653 146.007 64.7923 148.529 60.9338C149.092 60.2557 149.493 58.3264 150.725 59.0905C151.852 60.1793 149.36 62.8726 148.471 63.5984C145.004 66.2535 140.449 66.5496 136.294 65.9097C135.807 65.8238 135.912 65.0788 136.409 65.1456H136.418Z" fill="black"/>
<path d="M157.774 49.788C155.291 48.661 152.788 48.0211 150.554 49.8166C150.439 49.9026 150.257 49.8835 150.181 49.7498C150.133 49.6734 150.133 49.5779 150.181 49.5014C150.544 48.852 151.041 48.2121 151.776 47.8396C153.171 47.0183 155.004 47.2666 156.322 48.0593C156.628 48.1644 158.729 49.7976 157.774 49.788Z" fill="black"/>
<path d="M135.941 53.0068C135.941 53.0068 143.457 52.5865 145.549 48.4129C147.641 44.2392 149.302 43.3987 153.065 44.6594C156.828 45.9201 160.582 39.6452 164.756 43.8285C168.929 48.0117 168.929 49.6736 168.929 50.9247" stroke="black" stroke-width="1.75" stroke-linecap="round" stroke-linejoin="round"/>
<path d="M104.29 31.6128C109.017 31.5555 113.669 29.9319 117.527 27.2195C121.433 24.4211 125.874 21.5559 130.927 21.9857C131.06 21.9857 131.08 22.1958 130.946 22.2149C128.558 22.597 126.218 23.0745 124.213 24.297C120.068 26.6847 116.362 30.2566 111.567 31.4122C109.18 32.0521 106.706 32.3483 104.251 32.0044C104.013 31.9758 104.041 31.5842 104.299 31.6128H104.29Z" fill="black"/>
<path d="M129.695 51.0393C124.604 51.8225 118.625 49.7404 119.609 43.5515C119.943 40.2565 122.016 36.9329 125.311 35.9205C130 34.4306 135.062 35.8536 139.379 37.7351C139.503 37.7924 139.561 37.9357 139.503 38.0598C139.446 38.184 139.303 38.2318 139.188 38.184C134.89 36.78 130.096 35.6244 125.712 37.0379C121.758 38.2031 119.303 44.3443 121.5 47.8207C123.248 50.2753 126.81 50.7241 129.675 50.7719C129.828 50.7528 129.857 51.0107 129.704 51.0202L129.695 51.0393Z" fill="black"/>
<path d="M136.285 23.5522C135.845 28.0602 131.251 30.5816 127.479 32.0906C127.345 32.1384 127.183 32.0715 127.135 31.9378C127.087 31.8137 127.135 31.6799 127.25 31.6131C130.468 29.5979 134.375 27.3439 135.607 23.5427C135.635 23.1129 136.275 23.1129 136.285 23.5427V23.5522Z" fill="black"/>
<path d="M95.1018 26.9522C92.8765 28.7669 90.7371 31.1068 89.868 33.8288C88.3494 38.3272 91.5107 42.5582 96.1046 43.1026C100.622 43.8094 105.283 42.8925 109.638 41.584C109.8 41.5172 109.905 41.7846 109.734 41.8419C103.793 43.8094 94.2136 46.3976 89.677 40.5716C85.9426 35.4142 89.7152 28.9866 94.099 25.6152C94.9872 24.9275 96.0091 26.2837 95.1018 26.9522Z" fill="black"/>
<path d="M46.8131 51.9371C44.2822 54.9742 40.7389 58.1928 39.6023 62.0227C39.5832 62.2997 39.5832 62.2806 39.6596 62.6148C40.1563 65.6615 37.6922 68.4981 38.2461 71.4779C38.4467 72.4521 39.4877 72.9869 40.5287 73.1493C40.5956 73.1588 40.6434 73.2162 40.6338 73.283C40.6338 73.3403 40.567 73.3881 40.5096 73.3881C39.9557 73.3498 39.3922 73.2544 38.8669 72.9965C35.7724 71.1054 38.5804 66.3492 38.4658 63.5795C38.4658 63.1115 38.3607 62.9586 38.2557 62.4715C38.1411 61.6502 38.4084 60.8002 38.6759 60.1125C40.2899 56.531 42.926 53.5702 45.6193 50.7719C45.944 50.4471 46.4693 50.4471 46.8036 50.7719C47.1283 51.0966 47.1283 51.6124 46.8227 51.9371H46.8131Z" fill="black"/>
<path d="M140.955 8.32825C140.955 8.32825 145.969 12.9222 153.486 12.5019C161.002 12.0817 166.866 14.5554 166.866 14.5554" stroke="black" stroke-width="1.75" stroke-linecap="round" stroke-linejoin="round"/>
<path d="M235.317 75.5465C235.317 75.5465 242.833 83.0629 244.504 88.4878" stroke="black" stroke-width="1.75" stroke-linecap="round" stroke-linejoin="round"/>
<path d="M235.727 79.233C235.727 79.233 239.853 83.8843 240.713 87.4372" stroke="black" stroke-width="1.75" stroke-linecap="round" stroke-linejoin="round"/>
<path d="M231.143 64.2766C231.143 64.2766 241.582 68.8705 242.833 76.8072" stroke="black" stroke-width="1.75" stroke-linecap="round" stroke-linejoin="round"/>
<path d="M242.833 69.7683C242.833 69.7683 249.862 75.4988 249.69 81.1624" stroke="black" stroke-width="1.75" stroke-linecap="round" stroke-linejoin="round"/>
<path d="M109.686 101.009C109.686 101.009 80.9475 106.348 70.4417 110.569V128.037" stroke="black" stroke-width="1.75" stroke-linecap="round" stroke-linejoin="round"/>
<path d="M62.868 136.509C62.868 136.509 69.162 125.955 77.0605 125.239C81.6544 124.819 84.8157 124.752 85.3219 127.292C85.3219 127.292 85.1404 125.659 83.4022 125.659C81.6639 125.659 80.7757 126.5 80.5942 127.751C80.4128 129.002 80.6516 139.451 85.3314 135.898L85.8376 137.349C85.0067 144.866 70.3845 144.866 70.3845 144.866" stroke="black" stroke-width="1.75" stroke-linecap="round" stroke-linejoin="round"/>
<path d="M73.202 148.104C86.4393 150.988 100.068 151.838 113.554 152.764C136.151 154.178 158.805 154.407 181.45 154.512C181.641 154.512 181.794 154.665 181.794 154.856C181.794 155.037 181.641 155.19 181.46 155.2C154.269 155.83 127.011 155.448 99.8963 153.156C90.8422 152.258 81.7881 151.246 73.0109 148.715C72.839 148.667 72.7435 148.486 72.8008 148.314C72.8581 148.142 73.0396 148.046 73.2115 148.104H73.202Z" fill="black"/>
<path d="M193.876 155.801C201.478 156.375 212.49 157.731 220.179 158.619C224.553 159.116 228.937 159.612 233.301 160.042C236.52 160.309 239.767 160.711 242.9 160.128C243.521 159.956 244.256 159.813 244.552 159.326C244.208 158.581 245.459 157.597 246.099 158.705C247.207 163.461 235.784 162.134 233.12 161.914C228.707 161.522 224.324 160.978 219.949 160.395C211.191 159.259 202.462 157.979 193.799 156.241C193.541 156.193 193.58 155.763 193.866 155.801H193.876Z" fill="black"/>
<path d="M84.0039 346.005C91.9597 362.862 96.5154 381.4 97.566 400.005C97.6329 401.246 97.6806 402.488 97.7093 403.73C97.7093 403.94 97.375 403.987 97.3559 403.749C95.6463 389.021 92.6474 374.437 88.2922 360.264C86.85 355.536 85.2742 350.847 83.4978 346.234C83.4405 346.091 83.5073 345.928 83.6506 345.871C83.7843 345.823 83.9275 345.871 83.9944 346.005H84.0039Z" fill="black"/>
<path d="M119.867 322.567C129.322 332.319 140.716 335.05 151.241 325.098C151.423 324.917 151.728 325.194 151.537 325.385C151.012 325.948 150.496 326.521 149.942 327.066C143.343 333.742 133.945 334.458 126.256 329.186C123.649 327.467 121.338 325.366 119.447 322.902C119.246 322.634 119.638 322.31 119.857 322.567H119.867Z" fill="black"/>
<path d="M79.515 57.0466C82.1892 55.2033 86.0095 55.0218 88.8652 56.6073C91.7878 58.3742 92.676 61.9366 92.8097 65.0883C92.8288 65.4608 92.2557 65.4991 92.2271 65.1266C91.4725 56.7506 87.0123 55.6713 79.6296 57.3045C79.4863 57.3332 79.3908 57.1326 79.515 57.0466Z" fill="black"/>
<path d="M63.718 60.6855C60.7477 66.5783 58.8757 73.6172 60.8432 80.1022C63.5365 88.2776 72.3041 94.7721 81.043 93.8362C83.1824 93.5687 85.2262 92.7569 87.0313 91.5631C87.4134 91.2956 87.9482 91.4007 88.2061 91.7923C88.4544 92.1743 88.3589 92.6901 87.9769 92.9479C85.9808 94.2946 83.679 95.2306 81.2722 95.5553C71.7119 96.7014 62.1707 89.567 59.4105 80.532C57.4526 73.7127 59.4488 66.139 63.4696 60.5231C63.5842 60.3798 63.8135 60.5231 63.718 60.6855Z" fill="black"/>
<path d="M12.4591 158.122C10.272 157.473 7.6551 158.055 6.24159 159.975C5.69719 160.615 5.33424 161.389 4.96176 162.143C4.8758 162.325 4.57976 162.21 4.63706 162.019C5.27697 158.065 8.99218 155.419 12.9653 156.527C13.4142 156.642 13.6816 157.1 13.567 157.54C13.4428 158.017 12.9271 158.285 12.4687 158.113L12.4591 158.122Z" fill="black"/>
<path d="M11.8286 175.285C9.84205 174.922 8.21844 173.213 7.90326 171.245C7.87461 171.092 7.9701 170.949 8.12291 170.92C8.25662 170.892 8.38079 170.959 8.42854 171.083C8.93473 172.229 9.82294 173.05 10.9786 173.404C11.3893 173.547 11.8095 173.556 12.1438 173.671C13.0893 173.958 12.7932 175.4 11.819 175.295L11.8286 175.285Z" fill="black"/>
<path d="M40.2327 128.735C32.9932 124.838 33.1651 116.452 37.1478 110.168C40.1658 105.135 44.9603 100.378 51.1779 100.187C55.533 99.9868 59.7449 101.763 63.0399 104.514C63.1449 104.609 63.1641 104.772 63.0686 104.877C62.9731 104.982 62.8202 104.991 62.7056 104.905C59.3533 102.585 55.2465 101.114 51.2638 101.448C46.1542 101.859 42.0283 105.545 39.3827 109.719C37.6922 112.174 36.3169 115.029 35.9062 117.961C35.2472 121.868 37.0905 125.965 40.4141 128.4C40.6147 128.505 40.4332 128.84 40.2327 128.725V128.735Z" fill="black"/>
<path d="M69.9163 120.101C66.0005 117.092 61.3684 116.615 57.7964 120.454C57.338 120.96 56.9273 121.505 56.488 122.04C56.3256 122.24 56.0009 121.992 56.1537 121.782C56.5549 121.209 56.9178 120.617 57.3476 120.063C60.8432 115.545 66.6118 115.488 70.986 118.821C71.8456 119.518 70.7664 120.817 69.9163 120.11V120.101Z" fill="black"/>
<path d="M69.1525 123.787C65.2749 121.629 60.2321 122.202 56.8798 125.144C56.0775 125.774 55.323 126.605 54.6353 127.359C54.5971 127.417 54.5112 127.426 54.4634 127.378C54.4252 127.34 54.4157 127.273 54.4539 127.226C54.8932 126.672 55.3135 126.089 55.791 125.545C59.3248 121.457 64.9597 120.082 69.9547 122.326C71.0244 122.842 70.1649 124.408 69.1525 123.787Z" fill="black"/>
<path d="M62.0658 107.857C52.5437 109.91 48.4082 114.857 52.0375 124.485C52.133 124.714 51.7701 124.886 51.6555 124.666C47.9211 118.62 48.6948 111.352 55.9056 108.592C57.873 107.799 59.9455 107.427 62.0276 107.427C62.295 107.427 62.3237 107.828 62.0563 107.866L62.0658 107.857Z" fill="black"/>
<path d="M23.4616 119.432C24.1301 121.438 24.1588 123.558 23.9582 125.64C23.9391 128.018 20.8924 136.194 21.9621 128.41C22.3537 125.516 22.7453 122.412 23.0414 119.499C23.0414 119.27 23.3852 119.222 23.4521 119.432H23.4616Z" fill="black"/>
<path d="M37.9214 128.802C33.5758 127.293 28.7049 124.294 28.0841 119.308L28.0268 117.981C28.0937 116.443 26.9858 115.478 25.4958 115.459C20.625 115.459 17.4255 120.693 17.626 125.23C17.6069 126.825 17.7788 128.429 17.903 130.12C17.9125 130.301 17.7789 130.454 17.5974 130.473C17.4637 130.482 17.3395 130.406 17.2822 130.291C15.6872 127.207 15.649 123.319 17.1007 120.015C18.562 116.72 21.7806 113.969 25.5818 114.084C27.6639 114.093 29.469 115.908 29.2493 118.019C28.8864 123.186 33.7954 126.49 38.0837 128.372C38.3607 128.467 38.2175 128.907 37.9309 128.811L37.9214 128.802Z" fill="black"/>
<path d="M53.1929 91.9835C49.1339 90.5222 43.3175 88.8604 39.755 91.9357C38.4752 93.0914 38.0454 94.8201 37.6061 96.4723C37.0522 98.2679 36.4218 100.025 35.5718 101.716C34.9032 102.833 34.2443 104.247 32.8021 104.533C32.6875 104.543 32.6111 104.399 32.6875 104.304C33.3083 103.635 33.8527 102.002 34.2252 101.104C36.1831 96.5583 36.2881 89.9873 42.4293 89.1946C46.24 88.6407 50.0317 89.9778 53.3362 91.6778C53.5177 91.7734 53.384 92.0694 53.1929 91.9835Z" fill="black"/>
<path d="M44.5879 74.8016C41.6463 78.641 37.3962 83.9608 34.7029 87.8766C33.0983 90.0924 31.9427 92.48 30.9399 95.0014C29.7651 97.5419 28.2848 99.9296 26.3555 101.973C26.1359 102.212 25.7347 101.897 25.9257 101.63C29.3258 97.1026 30.109 91.5059 33.4422 87.0075C36.6417 82.4804 40.3283 78.3735 44.3969 74.6297C44.502 74.5341 44.6739 74.6775 44.5784 74.8016H44.5879Z" fill="black"/>
<path d="M79.4959 45.4521C74.4913 42.7206 68.5794 44.8504 64.8642 48.7471C58.9522 54.3439 52.9162 60.2654 49.4492 67.6959C47.243 72.5668 47.988 76.4635 52.6392 79.2045C55.9247 81.3821 58.0736 81.172 58.8949 76.9887C58.9331 76.664 59.2483 76.4348 59.573 76.5016C59.8309 76.559 60.0124 76.7786 60.0219 77.0269C60.0506 77.8101 59.9551 78.536 59.7259 79.281C59.3438 80.8664 57.7488 82.3563 56.001 82.1844C54.4729 82.1462 53.0212 81.3535 51.7796 80.5321C42.8497 75.2983 47.6251 66.1773 52.5723 59.9407C56.0393 55.5473 60.0219 51.6506 64.1669 47.964C66.2299 46.1302 68.6558 44.3729 71.4924 43.8285C74.2812 43.2268 77.2802 43.6948 79.6678 45.2134C79.8111 45.328 79.6678 45.5476 79.515 45.4521H79.4959Z" fill="black"/>
<path d="M70.3081 105.593C66.4591 102.871 63.2787 98.43 63.2405 93.5878C63.2405 93.4254 63.3742 93.3013 63.5365 93.3013C63.6703 93.3013 63.7848 93.3968 63.8135 93.5305C64.4056 95.7463 65.3607 97.7615 66.5737 99.6907C67.7866 101.601 69.1715 103.425 70.585 105.278C70.7474 105.459 70.4991 105.736 70.2985 105.603L70.3081 105.593Z" fill="black"/>
<path d="M67.5861 67.3041C61.8174 76.4251 63.3933 83.5882 73.5171 88.0102C73.8132 88.1343 73.6317 88.6119 73.3261 88.5068C66.2012 86.4152 60.7955 80.551 63.7371 72.8531C64.5394 70.6851 65.7714 68.7368 67.3473 67.1036C67.481 66.9699 67.7102 67.1513 67.5861 67.3041Z" fill="black"/>
<path d="M85.5319 65.1074C85.8375 67.3996 85.1307 69.7968 83.9273 71.7643C83.0391 73.6076 80.7469 74.7537 80.6992 76.9121C80.8902 80.828 85.6656 84.7151 89.5814 84.2758C89.6292 84.2663 89.6578 84.3426 89.6005 84.3617C88.5117 84.7056 87.2988 84.6769 86.1718 84.3713C82.7813 83.378 79.4194 80.7134 79.0278 76.9504C78.7604 74.2284 81.4537 72.9008 82.8959 71.0575C84.2139 69.3766 85.2454 67.3614 85.5319 65.1074Z" fill="black"/>
<path d="M74.3098 83.8174C77.9964 88.6119 84.424 89.204 90.0303 88.736C90.25 88.7074 90.3264 89.0512 90.1067 89.1181C84.4718 91.2002 76.7356 89.8344 73.985 83.9798C73.8991 83.7792 74.1952 83.6264 74.3098 83.8174Z" fill="black"/>
<path d="M105.627 101.83C100.431 100.493 87.891 97.0357 90.8995 89.6148C91.4534 88.5546 92.1315 87.5327 93.0484 86.8833C94.2136 86.5681 95.4456 86.0715 96.5535 85.4698C99.9249 83.7029 101.988 80.4842 102.762 76.7977C102.781 76.6926 102.895 76.6162 103 76.6449C104.041 80.7135 101.081 85.2214 97.4322 87.0838C96.2001 87.7524 94.9394 88.2394 93.4973 88.4782L93.9366 88.249C87.1365 95.0109 101.1 98.965 105.98 100.197C107.059 100.426 106.725 102.059 105.627 101.83Z" fill="black"/>
<path d="M101.635 80.8281C104.825 79.0516 108.368 77.81 111.109 75.2981C113.668 73.2065 115.321 69.9497 118.568 68.7177C119.065 68.5648 119.542 68.412 120.192 68.6031C120.583 68.7463 120.364 69.2907 119.972 69.157C119.695 69.1093 119.208 69.2334 118.835 69.4149C116.773 70.4559 115.435 72.4043 114.031 74.1998C112.265 76.5302 109.877 78.3449 107.375 79.8061C106.467 80.3028 101.692 83.1489 101.329 81.4488C101.3 81.191 101.434 80.9617 101.644 80.8376L101.635 80.8281Z" fill="black"/>
<path d="M35.9061 98.6879C39.0292 99.3565 42.6299 99.3279 45.199 97.1216C45.3709 96.9593 45.6384 97.2267 45.476 97.3986C43.7091 99.4902 40.9298 100.455 38.2365 100.56C37.3101 100.522 34.6263 100.837 34.9319 99.2706C35.0561 98.8503 35.4859 98.6115 35.9061 98.6975V98.6879Z" fill="black"/>
<path d="M50.8819 95.5171C52.6965 97.1121 54.7404 97.9525 57.0994 98.2391C57.2713 98.2677 57.386 98.4301 57.3478 98.602C57.3287 98.7262 57.2427 98.8121 57.1281 98.8503C56.5073 99.0413 55.8387 99.1368 55.1797 99.0413C53.2314 98.8216 51.4167 97.4559 50.6431 95.6795C50.5763 95.5362 50.7768 95.4025 50.8819 95.5171Z" fill="black"/>
<path d="M107.776 100.789C107.776 100.789 118.11 98.3345 110.947 89.4523C110.947 89.4523 114.165 82.7763 121.92 86.6826C129.676 90.5889 129.676 79.7296 129.676 79.7296" stroke="black" stroke-width="1.75" stroke-linecap="round" stroke-linejoin="round"/>
<path d="M118.931 72.1846C123.744 76.0622 133.419 83.8938 137.708 75.5751C138.204 74.6391 139.646 75.365 139.198 76.3296C135.874 83.9702 127.784 80.9999 122.866 76.8071C122.436 76.5015 116.878 71.6975 118.94 72.1846H118.931Z" fill="black"/>
<path d="M128.806 70.0452C133.821 73.3975 140.296 77.3802 146.151 73.9992C150.095 71.6402 154.116 68.2974 154.24 63.3501C154.336 61.8029 154.154 60.1983 153.906 58.5843C153.829 58.1258 154.145 57.696 154.603 57.6292C155.042 57.5623 155.453 57.8488 155.549 58.2786C155.911 59.9309 156.16 61.6501 156.102 63.4361C156.141 68.9946 151.652 73.1874 147.163 75.7183C144.011 77.5712 140.067 77.5616 136.724 76.3391C135.062 75.7756 133.544 74.9161 132.14 73.9323C131.653 73.684 126.772 69.6918 128.797 70.0452H128.806Z" fill="black"/>
<path d="M170.495 61.3636C170.495 61.3636 161.413 61.3541 158.901 65.948C156.389 70.5419 155.329 73.8178 150.229 72.3852" stroke="black" stroke-width="1.75" stroke-linecap="round" stroke-linejoin="round"/>
<path d="M160.362 64.2288C160.362 64.2288 163.495 69.2907 172.683 71.3728C181.87 73.4549 180.161 77.7145 180.161 77.7145C180.161 77.7145 183.542 73.4644 185.624 73.8751C187.706 74.2858 186.044 67.9727 186.885 65.4895C187.725 63.0063 191.478 60.5136 201.497 63.4361C211.516 66.3586 216.091 49.9504 213.178 45.0032C210.265 40.0559 205.671 39.2154 199.826 38.8047C193.981 38.394 191.889 32.5394 191.889 32.5394" stroke="black" stroke-width="1.75" stroke-linecap="round" stroke-linejoin="round"/>
<path d="M186.703 72.4139C186.703 72.4139 186.054 79.7298 192.73 82.6523C199.406 85.5749 197.744 81.4012 197.744 81.4012" stroke="black" stroke-width="1.75" stroke-linecap="round" stroke-linejoin="round"/>
<path d="M197.772 83.0533C197.772 83.0533 203.579 90.5794 209.014 91.8401" stroke="black" stroke-width="1.75" stroke-linecap="round" stroke-linejoin="round"/>
<path d="M214.009 48.0977C214.009 48.0977 216.11 54.2579 215.699 59.2721C215.289 64.2862 222.795 69.2908 210.685 82.2416C210.685 82.2416 203.169 101.028 221.955 100.197" stroke="black" stroke-width="1.75" stroke-linecap="round" stroke-linejoin="round"/>
<path d="M235.727 72.4139C235.727 72.4139 216.301 75.1359 215.575 84.7439" stroke="black" stroke-width="1.75" stroke-linecap="round" stroke-linejoin="round"/>
<path d="M233.34 77.7145C233.34 77.7145 224.037 78.4403 221.955 83.0533C219.873 87.6663 219.863 90.5793 220.704 94.7626C221.544 98.9458 226.224 103.396 230.56 103.463C234.896 103.53 241.391 104.18 245.66 99.4711" stroke="black" stroke-width="1.75" stroke-linecap="round" stroke-linejoin="round"/>
<path d="M240.121 102.823C240.121 102.823 238.258 107.054 241.802 109.461" stroke="black" stroke-width="1.75" stroke-linecap="round" stroke-linejoin="round"/>
<path d="M195.184 83.5214C195.184 83.5214 188.556 78.4786 201.497 71.7931C214.439 65.1076 214.047 68.1543 214.047 68.1543" stroke="black" stroke-width="1.75" stroke-linecap="round" stroke-linejoin="round"/>
<path d="M211.755 75.4606C211.755 75.4606 207.027 79.1662 202.806 79.2331" stroke="black" stroke-width="1.75" stroke-linecap="round" stroke-linejoin="round"/>
<path d="M226.711 56.3972C226.711 56.3972 233.645 54.6685 229.882 61.7647C226.119 68.8609 221.115 68.03 221.115 68.03" stroke="black" stroke-width="1.75" stroke-linecap="round" stroke-linejoin="round"/>
<path d="M207.686 56.2158C207.686 56.2158 206.932 58.0114 204.429 59.6828" stroke="black" stroke-width="1.75" stroke-linecap="round" stroke-linejoin="round"/>
<path d="M192.309 27.9551C192.309 27.9551 194.812 32.549 203.579 31.2978" stroke="black" stroke-width="1.75" stroke-linecap="round" stroke-linejoin="round"/>
<path d="M173.418 42.3576C173.418 42.3576 179.034 44.6498 180.247 39.225C181.46 33.8001 178.117 32.5489 186.054 29.2062" stroke="black" stroke-width="1.75" stroke-linecap="round" stroke-linejoin="round"/>
<path d="M87.7859 74.3907C88.5022 75.852 89.3141 77.5043 90.8422 77.8672C91.7973 77.9054 92.8383 77.7431 93.7552 77.5425C96.2002 77.0745 98.0148 75.0115 98.3395 72.557C98.3682 72.4233 98.3013 72.2609 98.3968 72.3278C98.244 72.2514 98.1772 72.0699 98.244 71.9171C98.3204 71.7643 98.5019 71.6974 98.6547 71.7643C99.1322 72.0221 99.1227 72.6621 99.1131 73.1205C99.0176 77.0841 95.5125 79.2712 91.8259 79.2139L91.2719 79.2234C89.7247 79.2616 88.5022 77.9245 87.9387 76.6734C87.6235 75.9762 87.3752 75.279 87.2415 74.534C87.2129 74.3812 87.3179 74.2284 87.4707 74.1998C87.6045 74.1711 87.7382 74.2571 87.7859 74.3812V74.3907Z" fill="black"/>
<path d="M77.1752 98.4301C78.4645 100.483 79.6583 102.604 81.5781 104.113C81.7022 104.199 81.7404 104.38 81.6354 104.504C81.5685 104.59 81.4539 104.628 81.3488 104.6C79.4196 103.989 78.178 102.174 77.3471 100.436C77.0701 99.8531 76.8409 99.261 76.6785 98.6211C76.6403 98.4778 76.7263 98.3345 76.8695 98.2963C76.9841 98.2677 77.1083 98.325 77.1656 98.4205L77.1752 98.4301Z" fill="black"/>
<path d="M72.3138 101.229C74.2335 103.053 76.5448 104.801 79.2286 105.173C79.5437 105.211 79.5151 105.708 79.1904 105.698C77.7291 105.698 76.3251 105.154 75.0931 104.419C73.8706 103.664 72.7723 102.757 71.8267 101.668C71.7121 101.534 71.7217 101.324 71.8649 101.209C71.9986 101.095 72.1992 101.104 72.3138 101.238V101.229Z" fill="black"/>
<path d="M67.1851 109.901C70.2891 113.721 70.6806 119.031 69.802 123.701C69.0666 129.642 62.3046 132.393 56.9849 131.743C54.7404 131.466 52.3718 130.865 50.2802 130.005C34.3496 124.103 35.0945 113.864 48.5324 105.221C48.8189 105.049 49.0769 105.469 48.8094 105.651C41.6846 110.76 34.4737 119.585 44.9318 125.669C50.7864 128.849 58.4079 132.058 64.6445 128.381C65.8575 127.57 67.0609 126.376 67.6912 125.125L67.6531 125.239C67.8059 124.618 67.9778 123.998 68.1115 123.367C68.971 118.993 68.7418 114.256 66.7935 110.197C66.6216 109.948 67.0036 109.662 67.1851 109.901Z" fill="black"/>
<path d="M74.5199 121.639C80.0784 115.813 86.6971 111.018 93.8889 107.398C96.2861 106.185 98.8075 105.211 101.367 104.399C101.558 104.342 101.768 104.447 101.835 104.638C101.892 104.82 101.797 105.02 101.625 105.097C94.3664 108.267 87.5567 112.432 81.215 117.178C79.0947 118.754 77.0126 120.406 74.9879 122.106C74.6918 122.383 74.2429 121.935 74.5295 121.639H74.5199Z" fill="black"/>
<path d="M60.6904 222.943C60.6904 222.943 54.1004 224.615 50.7672 227.537C47.4339 230.46 32.6207 223.574 35.4286 215.952" stroke="black" stroke-width="1.75" stroke-linecap="round" stroke-linejoin="round"/>
<path d="M50.8245 232.857C54.9791 234.223 58.3983 237.766 59.4011 242.112C60.4421 246.562 58.4556 251.08 55.7909 254.499C52.9735 257.164 49.8885 259.398 46.2688 260.869C42.5631 262.512 37.6445 262.006 35.4573 258.128C35.1995 257.746 35.3141 257.221 35.6961 256.973C36.0781 256.715 36.5939 256.829 36.8518 257.211C38.8479 260.249 42.4199 260.334 45.5143 258.959C48.5514 257.813 52.1425 255.005 54.1004 253.181C56.4977 250.182 58.341 246.371 57.5196 242.513C56.6505 238.626 53.6611 235.693 50.7099 233.067C50.5953 232.991 50.6908 232.79 50.8245 232.838V232.857Z" fill="black"/>
<path d="M40.1181 240.221C41.5029 238.1 43.7092 236.658 46.0014 235.655C46.2688 235.55 46.5267 235.885 46.3548 236.104C45.9823 236.649 45.562 237.117 45.1227 237.575C44.7884 238.129 39.8029 242.159 40.1181 240.221Z" fill="black"/>
<path d="M53.7469 229.056C57.615 229.724 60.2988 234.184 58.9044 237.89C58.8375 238.1 58.5128 238.053 58.5032 237.842C58.3026 234.28 56.5071 231.501 53.6323 229.352C53.4891 229.266 53.5846 229.018 53.7469 229.056Z" fill="black"/>
<path d="M57.4718 255.865C59.3438 256.228 60.7955 257.794 61.4641 259.513C61.5787 259.809 61.1871 260.077 60.9578 259.866C59.6685 258.663 58.4174 257.689 57.214 256.409C56.9847 256.209 57.1758 255.817 57.4718 255.865Z" fill="black"/>
<path d="M41.7034 217.356C44.5018 218.493 47.453 220.069 50.4328 219.104C51.4261 218.77 52.3907 218.302 53.3458 217.872C54.6352 217.261 55.9531 216.611 57.0706 215.78C57.2616 215.628 57.529 215.905 57.3666 216.096C55.7621 217.939 53.6132 219.133 51.4834 220.241C50.939 220.47 50.3469 220.699 49.7643 220.814C46.6985 221.396 43.3652 220.097 41.436 217.671C41.3023 217.499 41.5029 217.251 41.6939 217.356H41.7034Z" fill="black"/>
<path d="M46.5743 213.097C48.857 212.332 51.2542 211.96 53.2599 210.785C53.8616 210.384 54.1768 210.04 54.2245 209.563C54.2818 209.104 54.6925 208.78 55.1509 208.827C55.5425 208.875 55.8386 209.181 55.8863 209.553C56.0773 211.826 53.5273 213.001 51.7318 213.393C51.2733 213.67 45.3232 214.157 46.5743 213.097Z" fill="black"/>
<path d="M49.6114 205.924C53.6131 207.891 58.2739 209.009 62.5144 207.156C62.9633 206.955 63.4886 207.165 63.651 207.633C63.7942 208.044 63.6032 208.484 63.2212 208.665C58.7419 211.005 52.6963 210.078 49.1721 206.459C48.8951 206.182 49.2675 205.723 49.6018 205.924H49.6114Z" fill="black"/>
<path d="M52.2858 239.992C55.4184 245.741 52.1903 253.821 46.3166 256.381C46.1828 256.448 46.011 256.39 45.9441 256.256C45.8868 256.142 45.9155 256.018 46.0014 255.932C46.5554 255.387 47.2048 254.977 47.6824 254.394C49.1818 252.866 50.3279 250.918 50.8437 248.836C51.6746 245.961 51.388 243.134 51.7509 240.135C51.7605 239.867 52.1425 239.762 52.2858 239.992Z" fill="black"/>
<path d="M30.8539 206.229C31.4365 208.398 30.6724 211.282 31.9426 213.096C32.4393 213.555 33.2893 213.297 33.9387 213.106C34.1966 213.03 34.3781 213.383 34.168 213.545C29.6504 217.041 28.6476 208.885 30.2999 206.134C30.4145 205.886 30.8157 205.943 30.8539 206.22V206.229Z" fill="black"/>
<path d="M57.4336 198.904C57.1661 200.518 56.2493 202.686 56.574 204.205C56.6886 204.568 57.3476 204.587 57.7869 204.72C58.0448 204.759 58.1499 205.112 57.9398 205.265C57.2139 205.876 56.0391 206.086 55.2751 205.198C54.2245 203.67 55.0841 201.874 55.7622 200.461C55.9627 200.136 57.2425 197.777 57.4336 198.914V198.904Z" fill="black"/>
<path d="M219.472 383.033C202.634 385.975 124.556 397.397 123.277 415.859C123.296 416.193 122.704 416.241 122.723 415.849C123.668 399.336 179.168 389.289 193.417 386.595C202.061 385.106 210.723 383.701 219.434 382.699C219.529 382.689 219.606 382.756 219.625 382.852C219.634 382.937 219.567 383.023 219.481 383.042L219.472 383.033Z" fill="black"/>
<path d="M69.7349 403.51C78.2351 405.134 86.6398 407.483 94.5287 411.065C97.1361 412.306 99.753 413.682 101.902 415.687C101.988 415.764 101.988 415.897 101.911 415.974C101.845 416.05 101.74 416.06 101.654 416.012C101.033 415.639 100.45 415.229 99.8389 414.866C92.8955 411.198 85.2931 408.944 77.8531 406.518L69.6299 403.968C69.3529 403.892 69.4484 403.443 69.7445 403.5L69.7349 403.51Z" fill="black"/>
<path d="M21.4653 150.147C22.1243 149.937 22.8884 150.472 23.1749 151.351C23.3086 151.752 23.5188 152.994 22.4968 153.328" stroke="black" stroke-width="0.87" stroke-linecap="round" stroke-linejoin="round"/>
<path d="M24.455 154.464C25.1426 154.464 25.7061 155.209 25.7061 156.136C25.7061 157.062 25.1426 157.807 24.455 157.807" stroke="black" stroke-width="0.87" stroke-linecap="round" stroke-linejoin="round"/>
<path d="M25.7061 160.309C26.3937 160.309 26.9572 161.054 26.9572 161.981C26.9572 162.907 26.3937 163.652 25.7061 163.652" stroke="black" stroke-width="0.87" stroke-linecap="round" stroke-linejoin="round"/>
<path d="M26.1263 166.575C26.814 166.575 27.3775 167.32 27.3775 168.246C27.3775 169.173 26.814 169.917 26.1263 169.917" stroke="black" stroke-width="0.87" stroke-linecap="round" stroke-linejoin="round"/>
<path d="M25.7061 172.42C26.3937 172.42 26.9572 173.165 26.9572 174.091C26.9572 175.018 26.3937 175.763 25.7061 175.763" stroke="black" stroke-width="0.87" stroke-linecap="round" stroke-linejoin="round"/>
<path d="M25.1044 178.198C25.792 178.294 26.2505 179.105 26.1263 180.022C26.0022 180.939 25.3527 181.608 24.665 181.512" stroke="black" stroke-width="0.87" stroke-linecap="round" stroke-linejoin="round"/>
<path d="M23.7959 183.184C24.4453 183.422 24.7128 184.32 24.3976 185.18C24.0824 186.039 23.2992 186.555 22.6498 186.316" stroke="black" stroke-width="0.87" stroke-linecap="round" stroke-linejoin="round"/>
<path d="M20.9115 186.86C21.3317 187.176 21.303 187.93 20.8446 188.541C20.3862 189.153 19.6699 189.391 19.2496 189.076" stroke="black" stroke-width="0.7" stroke-linecap="round" stroke-linejoin="round"/>
<ellipse cx="164.539" cy="539.626" rx="144.077" ry="8.51367" fill="#D9D9D9"/>
</svg>
