<svg width="398" height="597" viewBox="0 0 398 597" fill="none" xmlns="http://www.w3.org/2000/svg">
<rect width="397.663" height="597" fill="#EBECF0"/>
<g clip-path="url(#clip0_1703_880)">
<path d="M159.267 141.62C159.267 141.62 160.308 164.612 186.37 167.756C212.431 170.901 212.431 148.943 212.431 148.943C212.431 148.943 215.556 149.987 219.722 144.764C219.722 144.764 228.054 136.408 232.232 131.174" fill="#D9DADD"/>
<path d="M159.267 141.62C159.267 141.62 160.308 164.612 186.37 167.756C212.431 170.901 212.431 148.943 212.431 148.943C212.431 148.943 215.556 149.987 219.722 144.764C219.722 144.764 228.054 136.408 232.232 131.174" stroke="black" stroke-width="1.9" stroke-linecap="round" stroke-linejoin="round"/>
<path d="M335.402 213.74C335.402 213.74 335.402 218.963 326.017 222.097C316.632 225.231 307.258 222.097 299.956 217.919C292.665 213.74 291.053 204.944 291.053 204.944C284.234 204.515 287.446 205.373 273.895 201.194C260.343 197.016 279.102 209.551 279.102 209.551C283.532 217.886 290.022 225.615 295.132 231.036C297.017 233.049 298.717 234.731 300.054 236.006L300.186 236.138L300.252 236.193C301.995 237.865 303.081 238.81 303.081 238.81C303.081 238.81 304.517 240.075 307.104 241.702H307.126L307.236 241.779C308.891 242.813 311.018 244 313.518 245.089L313.584 245.122L313.672 245.155C315.13 245.782 316.731 246.386 318.419 246.914L317.684 248.223C317.377 248.816 315.546 250.279 312.795 252.038C305.964 256.392 293.553 262.55 285.385 261.813C279.004 261.23 275.528 261.626 273.697 262.088C272.743 262.33 272.228 262.594 271.998 262.737C271.921 262.781 271.855 262.825 271.768 262.858L271.461 262.979C265.639 264.859 260.113 264.969 255.146 264.111C252.877 263.737 250.717 263.155 248.71 262.44C247.757 262.11 246.825 261.736 245.937 261.351C243.579 260.34 241.463 259.185 239.643 258.064H239.621L239.599 258.042C236.453 256.084 234.183 254.193 233.043 253.182C232.506 252.687 231.76 252.489 231.037 252.599C219.086 254.413 214.777 252.247 213.242 250.642C212.848 250.235 212.321 249.982 211.784 249.916C211.4 249.861 211.006 249.916 210.622 250.059C207.442 251.268 199.888 253.445 186.359 253.445C167.599 253.445 179.068 257.624 150.923 254.49C122.779 251.356 121.737 245.078 107.144 242.989C92.5515 240.899 86.3021 247.167 63.3656 241.944C43.9156 237.513 38.7187 236.094 28.6758 233.84C27.0312 233.477 25.255 233.082 23.2706 232.664C23.0951 232.62 22.9087 232.576 22.7224 232.543C8.12939 229.409 8.12939 217.908 8.12939 215.818C8.12939 213.729 8.12939 202.228 22.7224 199.094C24.2463 198.775 25.7045 198.522 27.1079 198.346C28.9608 198.104 30.726 197.983 32.4035 197.939C41.7119 197.742 48.4547 200.15 53.9914 200.15C61.2824 200.15 74.8338 200.15 91.5099 204.328C108.186 208.506 111.311 201.194 117.571 201.194C123.832 201.194 132.164 198.06 146.757 200.15C161.35 202.239 163.433 200.15 158.225 197.016C153.84 194.366 144.257 191.727 143.227 188.461C142.898 187.395 141.955 186.658 140.848 186.669C136.944 186.713 129.401 186.372 121.726 183.777C121.08 183.557 120.367 183.612 119.775 183.92C116.003 185.943 101.663 193.365 93.3738 193.849C92.8804 193.871 92.4199 194.014 92.0143 194.3C90.8192 195.169 87.4752 197.005 81.0942 197.005C72.7617 197.005 65.4597 195.96 60.2518 191.782C55.044 187.604 51.9193 182.37 51.9193 178.191C51.9193 174.728 53.3446 170.56 56.2061 168.042C56.2061 168.042 74.1431 164.161 87.552 175.398C88.9882 176.597 91.181 175.871 91.5538 174.024C92.2116 170.846 92.716 166.514 91.5209 163.556C89.4378 158.333 79.0111 157.289 75.8864 159.378C74.5049 160.312 72.2354 159.905 70.1742 160.708C70.1742 160.708 80.0527 153.11 81.0942 153.11C82.1358 153.11 84.2189 148.932 92.5625 148.932C100.906 148.932 111.322 142.664 111.322 142.664C111.322 142.664 118.613 134.308 129.039 138.486C129.039 138.486 131.123 137.441 143.632 138.486C143.632 138.486 151.965 141.62 159.267 141.62C159.267 141.62 160.308 137.826 165.363 132.746C165.363 132.746 164.475 137.441 166.558 138.486C168.641 139.531 190.525 141.62 205.118 151.032C205.118 151.032 207.629 151.604 206.905 145.567L206.171 137.441C206.171 137.441 205.129 125.94 195.744 122.806C186.359 119.672 178.026 120.717 171.777 128.029C171.777 128.029 175.943 109.216 191.578 102.948C207.212 96.6805 223.888 99.8143 229.096 100.859C232.615 101.574 234.238 104.18 234.907 105.807C235.466 107.159 236.146 108.446 236.935 109.677C238.591 112.261 240.816 116.682 241.595 118.639C243.678 123.862 239.512 145.072 242.636 150.68C242.636 150.68 250.816 161.632 265.726 161.951C268.884 162.028 271.932 160.873 274.388 158.894C276.712 157.036 280.506 155.045 285.374 156.266C285.374 156.266 293.706 151.043 301.008 161.489C301.008 161.489 311.435 160.444 320.809 175.079C320.809 175.079 329.142 180.302 331.236 193.893C324.986 182.392 311.435 182.392 308.31 183.436C305.186 184.481 309.352 187.615 309.352 187.615C327.07 189.704 334.229 201.194 334.229 201.194C334.898 204.174 335.402 208.264 335.402 213.751V213.74Z" fill="#D9DADD" stroke="black" stroke-width="2.08" stroke-linecap="round" stroke-linejoin="round"/>
<path opacity="0.5" d="M12.8768 203.954C12.8768 203.954 14.6749 219.392 32.25 217.611L35.9997 217.754C35.9997 217.754 66.4794 227.386 79.5154 222.658L84.4602 222.262L87.0805 226.187L93.5931 224.197L105.061 223.152L121.814 219.535L129.357 217.622H138.753L146.055 214.488L157.162 208.517L159.245 206.428C159.245 206.428 161.295 209.507 167.567 209.012L160.287 213.201L158.017 217.611L150.912 222.097L147.744 224.153L141.527 243L129.017 244.044L102.956 236.732L77.9476 237.777L61.2715 236.732L34.1687 231.509L14.4117 223.999L8.26099 218.358L8.49123 211.937L10.5744 206.736L12.8439 203.954H12.8768Z" fill="#5891A0"/>
<path d="M331.236 193.893C331.389 194.058 333.045 195.905 334.218 201.194Z" fill="#D9DADD"/>
<path d="M331.236 193.893C331.389 194.058 333.045 195.905 334.218 201.194" stroke="black" stroke-width="2.08" stroke-linecap="round" stroke-linejoin="round"/>
<path d="M205.118 151.021C190.525 141.609 168.641 139.52 166.558 138.475C164.475 137.43 165.363 132.735 165.363 132.735C166.196 131.9 167.161 131.053 168.29 130.228C167.578 131.361 167.523 132.658 167.621 133.67C167.731 134.626 168.521 135.363 169.474 135.451C174.529 135.891 191.479 137.969 204.515 146.942C205.589 147.678 207.015 146.854 206.905 145.567C207.64 151.604 205.118 151.032 205.118 151.032V151.021Z" fill="#D9DADD" stroke="black" stroke-width="2.08" stroke-linecap="round" stroke-linejoin="round"/>
<path d="M217.069 240.471L214.799 245.957L211.784 249.927C211.4 249.872 211.006 249.927 210.622 250.07C207.442 251.279 199.888 253.456 186.359 253.456C167.599 253.456 179.068 257.635 150.923 254.501C122.779 251.367 121.737 245.089 107.144 243C92.5515 240.91 86.3021 247.178 63.3656 241.955C43.9156 237.524 38.7187 236.105 28.6758 233.851C27.678 234.544 26.6036 234.929 25.4633 234.929C25.266 234.929 25.0796 234.929 24.8822 234.896C23.8626 234.786 23.128 233.862 23.2377 232.84C23.2377 232.785 23.2377 232.73 23.2706 232.675C23.0951 232.631 22.9087 232.587 22.7224 232.554C8.12939 229.42 8.12939 217.919 8.12939 215.829C8.12939 215.829 18.2052 226.275 29.3226 227.331L33.0175 228.177C33.0175 228.177 64.3962 235.687 78.9892 232.554C78.9892 232.554 99.8315 232.554 106.092 231.509C112.352 230.465 122.757 235.633 122.757 235.633C122.757 235.633 140.409 231.454 147.744 224.164L152.809 221.811L156.91 217.688L159.256 214.268L163.422 212.069L167.567 209.958L172.796 207.473L175.406 205.383L182.181 203.294C182.181 203.294 192.224 208.055 198.671 208.275L201.96 211.552L208.725 219.469L212.409 225.11L215.534 233.609L217.058 240.482L217.069 240.471Z" fill="#5891A0"/>
<path d="M383.347 277.504C379.181 278.549 373.962 280.638 364.588 276.459C355.214 272.281 346.87 260.78 346.87 260.78C336.444 259.735 323.945 248.234 323.945 248.234C322.004 247.915 320.162 247.464 318.43 246.925C309.045 244.044 303.102 238.821 303.102 238.821C303.102 238.821 287.468 225.231 279.135 209.551C279.135 209.551 260.376 197.005 273.927 201.194C287.479 205.383 284.266 204.515 291.086 204.944C291.086 204.944 292.687 213.729 299.989 217.919C307.28 222.097 316.665 225.231 326.05 222.097C335.435 218.963 335.435 213.74 335.435 213.74C340.643 217.919 345.862 223.152 351.07 225.242C356.277 227.331 362.538 231.509 367.746 236.743C372.953 241.977 365.663 241.966 381.297 252.423C396.932 262.88 387.546 276.459 383.38 277.504H383.347Z" fill="#D9DADD" stroke="black" stroke-width="1.9" stroke-linecap="round" stroke-linejoin="round"/>
<path opacity="0.5" d="M389.334 262.099C389.334 262.099 371.057 274.37 345.928 244.055C345.928 244.055 337.474 241.966 328.1 233.598C328.1 233.598 326.193 234.643 321.939 233.598C321.939 233.598 317.992 234.643 315.229 233.598C315.229 233.598 299.583 224.175 295.603 214.257L291.952 207.956L291.064 204.955L284.332 204.339L282.194 203.514L283.97 210.266L291.053 220.36L299.956 230.575L309.33 238.843L326.006 245.111L336.455 251.29L344.765 255.557L352.056 262.176L362.483 271.236L370.816 275.415L378.403 277.999H381.429L385.266 276.382L387.393 274.535L388.939 270.467L389.937 265.255L389.312 262.088L389.334 262.099Z" fill="#5891A0"/>
<path d="M206.905 145.556C207.015 146.854 205.589 147.667 204.515 146.931C191.479 137.958 174.529 135.88 169.474 135.44C168.521 135.352 167.72 134.627 167.621 133.659C167.512 132.647 167.578 131.35 168.29 130.217C169.31 129.47 170.472 128.722 171.777 128.007C178.026 120.695 186.37 119.65 195.744 122.784C205.118 125.918 206.171 137.419 206.171 137.419L206.905 145.545V145.556Z" fill="#EBECF0" stroke="black" stroke-width="1.9" stroke-linecap="round" stroke-linejoin="round"/>
<path d="M334.218 201.183C334.218 201.183 327.059 189.693 309.341 187.604C309.341 187.604 305.175 184.47 308.299 183.425C311.424 182.381 324.975 182.381 331.225 193.882L334.207 201.183H334.218Z" fill="#EBECF0" stroke="black" stroke-width="1.9" stroke-linecap="round" stroke-linejoin="round"/>
<path d="M91.5537 174.046C91.1809 175.882 88.9881 176.619 87.5519 175.42C74.143 164.183 56.2061 168.064 56.2061 168.064C56.7981 167.536 57.4559 167.086 58.1796 166.712C61.0192 165.293 65.7885 162.412 70.185 160.719C72.2463 159.927 74.5048 160.323 75.8972 159.389C79.022 157.3 89.4486 158.344 91.5318 163.567C92.7159 166.536 92.2225 170.868 91.5647 174.035L91.5537 174.046Z" fill="#EBECF0" stroke="black" stroke-width="1.9" stroke-linecap="round" stroke-linejoin="round"/>
<path opacity="0.5" d="M206.774 149.614C206.774 149.614 208.243 147.887 212.409 148.943V153.363L209.591 157.541L206.269 163.303L197.816 168.064L188.99 167.998L178.947 166.712L171.755 162.775L164.957 156.453L159.706 144.764L160.287 139.3L162.666 135.759L165.341 132.757L165.155 137.144L166.536 138.497L172.369 139.267L180.142 141.279L189.253 143.566L197.158 147.238L205.107 151.054L206.763 149.636L206.774 149.614Z" fill="#5891A0"/>
<g opacity="0.3">
<path d="M194.68 153C194.483 155.155 188.124 156.827 181.513 154.793C174.879 152.78 171.513 148.448 172.709 146.722C173.926 144.94 178.541 145.897 184.177 147.48C189.79 149.13 194.921 150.823 194.669 153H194.68Z" fill="#EBECF0"/>
</g>
<path d="M129.357 217.611C129.357 217.611 97.7702 224.186 83.1772 222.097C83.1772 222.097 86.302 226.165 83.1772 229.882C83.1772 229.882 122.691 217.765 136.703 220.217C138.709 220.568 140.749 219.92 142.284 218.567L147.766 213.74L129.368 217.611H129.357Z" fill="#5891A0"/>
<path opacity="0.5" d="M234.161 167.108C234.161 167.108 233.317 168.394 227.035 169.637C220.753 170.879 216.148 170.439 216.148 170.439L206.171 169.835C206.171 169.835 196.764 175.948 205.118 182.82C213.473 189.693 218.658 183.304 226.487 184.932C234.315 186.559 240.575 197.016 250.991 197.016C261.407 197.016 260.376 185.514 260.376 185.514C260.376 185.514 260.376 179.984 247.351 171.77L242.023 168.768L234.183 167.097L234.161 167.108Z" fill="#5891A0"/>
<path d="M202.015 168.053L199.976 166.701L205.14 163.93L209.635 158.894L212.179 152.275L212.42 148.932L215.303 148.283L224.612 139.366L227.035 137.672L226.881 141.884L227.013 148.932L227.046 154.309L227.605 157.53C227.605 157.53 227.78 163.325 234.172 167.108C234.172 167.108 232.286 169.439 227.046 169.637C221.805 169.835 218.658 170.516 218.658 170.516L211.28 170.439L204.087 168.79L202.026 168.053H202.015Z" fill="#5891A0"/>
<path d="M214.503 205.383C215.545 206.219 218.253 207.044 218.253 207.044L227.035 210.573L237.429 213.74L249.379 217.171L256.265 217.611L264.597 219.524L273.906 223.141L281.734 228.364C281.734 228.364 287.194 232.675 295.143 231.047L300.197 236.149L307.137 241.724L313.584 245.133L318.419 246.925L317.684 248.234L312.795 252.038L305.24 257.294L292.489 262.088L281.361 261.747L273.686 262.088L271.461 262.99L264.181 264.463L255.146 264.122L247.329 262.088L239.61 258.053L233.032 253.182L228.405 244.044L221.706 229.739L215.446 213.74L214.481 205.383H214.503Z" fill="#4B808C"/>
<path d="M344.261 247.717C344.261 247.717 331.751 244.836 326.017 237.392C326.017 237.392 324.252 240.13 316.796 237.392C316.796 237.392 302.039 236.743 283.28 203.294L277.074 202.184L270.09 200.347L268.983 202.371L271.91 204.46L276.515 207.473L279.662 210.782L289.101 224.219L297.237 233.51L307.126 241.735L318.408 246.936L323.923 248.245L328.144 251.873L335.939 256.887L343.877 260.241L346.848 260.791L344.765 255.568L343.877 251.741L344.239 247.728L344.261 247.717Z" fill="#5891A0"/>
<path d="M383.347 277.504C383.347 277.504 357.812 270.709 344.261 247.717L343.899 253.127L345.829 259.735L350.006 264.639L355.685 270.764L361.979 275.107L370.256 278.186H376.615L383.336 277.504H383.347Z" fill="#5891A0"/>
<path d="M175.702 242.505C174.967 242.879 172.577 243.912 171.766 244.055C167.139 244.902 155.134 246.166 155.112 240.471C155.09 233.598 161.58 229.629 165.001 228.375C170.724 226.286 169.683 223.152 173.849 221.063C178.015 218.974 193.65 217.963 197.816 225.264C201.982 232.565 194.823 244.693 188.19 244.363C182.182 244.066 179.835 240.394 175.702 242.516V242.505Z" fill="#7DACB7"/>
<path d="M200.085 209.672C200.085 209.672 205.71 214.4 214.799 212.509L218.264 221.822L227.594 242.285L232.067 251.29L231.048 252.61L225.478 253.369L217.08 252.654L212.519 249.817L213.878 246.826L216.082 242.329V236.974L215.15 229.893L210.742 222.273L205.151 215.137L200.096 209.672H200.085Z" fill="#5891A0"/>
<path d="M335.227 208.517C335.227 208.517 314.198 226.055 292.489 194.817L288.97 188.912L289.54 194.938C289.54 194.938 280.155 198.071 263.479 189.715L265.343 196.037L268.983 200.358L273.894 201.216L279.333 203.03L288.948 204.977H291.042L293.695 212.124L299.945 217.941L306.293 220.964L313.496 223.163L320.667 223.735L327.705 222.108L331.663 219.304L335.216 215.84L335.391 211.519L335.216 208.528L335.227 208.517Z" fill="#6DA3AF"/>
<path opacity="0.5" d="M332.025 198.456C332.025 198.456 315.601 211.651 288.498 187.604C288.498 187.604 287.457 193.871 263.49 187.604L264.531 192.826L277.041 200.139L292.5 201.172L298.936 209.551L314.614 218.303L328.122 216.874L332.036 214.807L335.413 211.508V204.031L332.036 198.456H332.025Z" fill="#6DA3AF"/>
<path d="M160.9 137.672C160.9 137.672 162.392 152.066 175.932 159.378C189.472 166.69 203.232 163.435 211.466 154.089L209.624 158.883L206.269 163.27L197.816 168.031L186.348 167.723L171.755 162.742L164.957 156.42L159.245 145.776V140.069L160.889 137.661L160.9 137.672Z" fill="#5891A0"/>
<path d="M51.996 176.718C51.996 176.718 61.2934 193.882 89.4268 187.615C117.571 181.347 124.467 168.801 124.467 168.801C124.467 168.801 126.759 173.386 130.498 173.188C130.498 173.188 131.123 178.268 143.621 181.897C156.12 185.525 168.63 192.837 168.63 192.837C168.63 192.837 169.387 198.918 161.186 200.062L158.203 197.027L152.831 193.86L144.762 190.968L143.194 188.483L140.815 186.691L135.245 186.35L123.733 184.437L119.742 183.942L116.815 185.481L106.07 190.759L98.779 192.662L93.3409 193.882L90.2272 195.641L84.4163 196.862L76.1605 196.796L64.9115 194.971L60.219 191.826L54.5506 185.756L51.9631 181.545V176.751L51.996 176.718Z" fill="#5891A0"/>
<path opacity="0.5" d="M65.1638 167.438C65.1638 167.438 63.3986 186.097 89.1857 181.897C114.973 177.696 125.016 166.712 125.016 166.712C125.016 166.712 125.399 171.418 131.649 171.418C137.898 171.418 163.466 188.109 172.829 188.912L168.641 192.848L162.392 193.893L146.757 186.581L132.394 180.313H118.306L108.493 184.448L93.6042 190.77L70.1743 193.079L59.2104 186.592L52.9609 180.324L52.0071 176.036L54.0025 170.923L56.2063 168.086L61.9185 167.218L65.1638 167.459V167.438Z" fill="#5891A0"/>
<path d="M69.5383 159.883C73.0468 157.289 76.3908 154.518 80.2391 152.307C80.3159 152.242 80.8312 152.088 81.0724 152.066C81.0504 152.066 81.0175 152.066 80.9956 152.066C80.9408 152.066 80.875 152.121 80.9079 152.088C80.9298 152.066 80.9627 152.066 81.0504 152C83.3419 149.921 86.4118 148.437 89.4926 148.096C91.3565 147.843 93.3519 147.964 95.1939 147.689C100.687 146.843 105.96 144.501 110.774 141.774L110.521 141.983C111.76 140.663 113.076 139.662 114.545 138.761C118.964 136.012 124.599 135.539 129.412 137.518L128.557 137.551C129.873 137.057 131.243 137.09 132.614 137.002C136.407 136.925 140.212 137.1 143.961 137.496C148.84 139.201 154.081 140.498 159.245 140.575C159.804 140.575 160.254 141.026 160.287 141.576C160.879 147.678 163.565 153.847 167.939 158.256C175.702 166.503 192.696 169.857 202.706 164.293C208.089 161.302 211.093 155.001 211.357 148.943C211.357 148.206 212.069 147.843 212.727 147.953C215.227 148.041 217.299 145.864 218.823 144.05C220.983 141.829 223.219 139.662 225.368 137.419C227.484 135.198 229.611 133.01 231.936 130.965C234.468 130.195 227.21 138.442 226.838 138.805C224.754 141.092 222.693 143.379 220.489 145.567C218.856 147.601 215.512 150.845 212.069 149.943L213.44 148.954C213.297 152.45 212.387 155.738 210.786 158.773C205.929 168.416 193.803 170.439 184.144 168.438C177.599 167.426 171.075 164.557 166.437 159.73C161.712 154.88 158.817 148.437 158.193 141.686L159.234 142.686C156.46 142.664 153.741 142.279 151.077 141.719C148.873 141.246 144.564 140.102 143.512 139.553C138.863 139.267 134.127 138.695 129.511 139.443C129.478 139.443 129.368 139.498 129.478 139.443L128.623 139.476C122.812 136.98 116.025 139.08 111.826 143.588C105.862 146.909 99.3931 149.811 92.4639 150.009C89.8435 150.031 86.9819 150.493 84.7453 151.857C83.7037 152.417 82.8595 153.374 81.7631 154.012C81.6535 154.089 81.2807 154.177 81.0833 154.188C81.0285 154.188 81.0833 154.21 81.0833 154.21C81.1381 154.232 81.2149 154.166 81.0833 154.243C80.7654 154.397 80.3487 154.65 79.976 154.891C76.8622 156.948 73.7923 159.29 70.7663 161.577C70.3058 161.929 69.6589 161.83 69.3081 161.379C68.9572 160.917 69.0559 160.257 69.5054 159.916L69.5383 159.883Z" fill="black"/>
<path d="M159.267 141.62C159.267 141.62 160.308 134.308 171.777 128.029C171.777 128.029 175.943 109.216 191.577 102.948C207.212 96.6805 223.888 99.8143 229.096 100.859C232.615 101.563 234.238 104.191 234.918 105.807C235.477 107.148 236.157 108.435 236.946 109.666C238.602 112.25 240.827 116.671 241.606 118.628C243.689 123.851 239.523 145.061 242.647 150.658C242.647 150.658 249.401 159.708 261.834 161.599C266.461 162.303 271.208 161.17 275.002 158.421C277.348 156.717 280.922 155.133 285.385 156.255C285.385 156.255 293.717 151.032 301.019 161.478C301.019 161.478 311.446 160.433 320.82 175.068C320.82 175.068 329.153 180.291 331.247 193.882C331.247 193.882 335.413 198.06 335.413 213.74" stroke="black" stroke-width="2.08" stroke-linecap="round" stroke-linejoin="round"/>
<path d="M279.113 209.562C279.113 209.562 260.354 197.016 273.905 201.205C287.457 205.394 284.244 204.537 291.053 204.955C291.053 204.955 292.665 213.74 299.956 217.93C307.247 222.108 316.632 225.242 326.017 222.108C335.402 218.974 335.402 213.751 335.402 213.751C340.61 217.93 345.829 223.163 351.037 225.253C356.244 227.342 362.505 231.52 367.713 236.754C372.921 241.988 365.63 241.977 381.264 252.434C396.899 262.891 387.514 276.47 383.347 277.515C379.181 278.56 373.962 280.649 364.588 276.47C355.214 272.292 346.87 260.791 346.87 260.791C336.444 259.746 323.945 248.245 323.945 248.245C311.435 246.155 303.102 238.832 303.102 238.832C303.102 238.832 287.468 225.242 279.135 209.562H279.113Z" stroke="black" stroke-width="1.9" stroke-linecap="round" stroke-linejoin="round"/>
<path d="M171.766 128.029C178.015 120.717 186.359 119.672 195.733 122.806C205.107 125.94 206.16 137.441 206.16 137.441L206.894 145.567C207.015 146.854 205.578 147.678 204.515 146.942C191.468 137.969 174.529 135.891 169.474 135.451C168.51 135.363 167.72 134.626 167.61 133.67C167.501 132.713 167.567 131.361 168.279 130.239" stroke="black" stroke-width="1.9" stroke-linecap="round" stroke-linejoin="round"/>
<path d="M165.363 132.746C165.363 132.746 164.475 137.441 166.558 138.486C168.641 139.531 190.525 141.62 205.118 151.032C205.118 151.032 207.629 151.604 206.894 145.567" stroke="black" stroke-width="1.9" stroke-linecap="round" stroke-linejoin="round"/>
<path d="M211.729 248.486C217.211 242.549 215.479 233.521 212.08 226.935C211.466 225.648 210.556 224.318 209.854 223.053C209.679 222.724 209.262 222.097 209.032 221.8C205.644 216.819 201.456 212.333 197.476 207.836C197.038 207.407 197.695 206.681 198.156 207.099C201.259 209.694 204.361 212.586 207.004 215.675C208.232 216.929 209.734 219.161 210.83 220.568C211.071 220.876 211.51 221.514 211.707 221.855C217.189 229.86 220.906 242.241 213.1 250.07C212.036 251.015 210.655 249.432 211.729 248.486Z" fill="black"/>
<path d="M233.262 166.36C242.582 165.051 251.813 171.77 255.464 180.093C255.651 180.489 255.092 180.83 254.828 180.489C250.629 175.486 245.553 171.396 239.446 169.087C237.429 168.328 235.357 167.745 233.23 167.042C232.89 166.943 232.923 166.415 233.262 166.36Z" fill="black"/>
<path d="M235.751 167.481C233.186 160.015 234.644 151.923 237.111 144.666C237.231 144.281 237.845 144.435 237.758 144.841C236.475 151.197 235.609 157.783 236.804 164.205C236.968 165.117 237.198 166.063 237.484 166.833C237.9 167.965 236.19 168.636 235.74 167.492L235.751 167.481Z" fill="black"/>
<path d="M334.218 201.183C334.218 201.183 327.059 189.693 309.341 187.604C309.341 187.604 305.175 184.47 308.299 183.425C311.424 182.381 324.975 182.381 331.225 193.882L334.218 201.183Z" stroke="black" stroke-width="1.9" stroke-linecap="round" stroke-linejoin="round"/>
<path d="M56.1952 168.053C56.1952 168.053 74.1321 164.172 87.541 175.409C88.9773 176.619 91.1701 175.882 91.5538 174.035C92.2007 170.857 92.705 166.536 91.5209 163.567C89.4378 158.344 79.0111 157.3 75.8864 159.389C74.5049 160.312 72.2463 159.916 70.1851 160.708C65.7886 162.401 61.0083 165.271 58.1687 166.701C54.0024 168.79 51.9193 174.013 51.9193 178.202C51.9193 182.392 55.044 187.615 60.2518 191.793C65.4597 195.971 72.7617 197.016 81.0942 197.016C87.4862 197.016 90.8083 195.18 92.0252 194.311C92.4199 194.025 92.8804 193.882 93.3738 193.849C101.663 193.376 116.003 185.954 119.775 183.931C120.378 183.612 121.08 183.568 121.726 183.788C129.412 186.383 136.933 186.724 140.858 186.68C141.966 186.669 142.898 187.406 143.227 188.461C144.257 191.727 153.829 194.377 158.225 197.016C163.433 200.15 161.35 202.239 146.757 200.15C132.164 198.06 123.832 201.194 117.571 201.194C111.311 201.194 108.186 208.506 91.5099 204.328C74.8338 200.15 61.2824 200.15 53.9914 200.15C46.7004 200.15 37.3153 195.971 22.7224 199.105C8.12939 202.239 8.12939 213.74 8.12939 215.829C8.12939 217.919 8.12939 229.42 22.7224 232.554C37.3153 235.688 40.44 236.732 63.3656 241.966C86.2911 247.189 92.5515 240.921 107.144 243.011C121.737 245.1 122.779 251.367 150.923 254.512C179.068 257.646 167.599 253.467 186.359 253.467C199.866 253.467 207.431 251.301 210.611 250.081C211.554 249.718 212.584 249.993 213.286 250.708C214.854 252.291 219.196 254.413 231.026 252.61C231.749 252.5 232.484 252.698 233.032 253.193C236.738 256.502 252.493 269.103 271.439 263.001C271.625 262.946 271.811 262.858 271.976 262.759C272.645 262.33 275.616 260.945 285.363 261.835C296.831 262.88 316.632 250.334 317.673 248.245" stroke="black" stroke-width="1.9" stroke-linecap="round" stroke-linejoin="round"/>
<path d="M306.161 240.954C300.197 250.653 287.161 251.653 277.019 249.74C276.449 249.652 276.526 248.772 277.118 248.816C277.118 248.816 280.988 249.047 280.999 249.058C283.499 249.058 286.141 249.036 288.608 248.618C294.573 247.761 300.822 245.056 304.319 239.998C304.977 238.766 306.808 239.723 306.172 240.965L306.161 240.954Z" fill="black"/>
<path d="M228.625 137.342C227.561 143.951 227.002 150.757 228.098 157.399C228.219 157.981 227.331 158.245 227.112 157.695C225.072 152.791 225.281 147.293 225.763 142.104C225.949 140.366 226.202 138.662 226.585 136.925C226.706 136.364 227.265 136.001 227.824 136.133C228.383 136.254 228.734 136.804 228.625 137.353V137.342Z" fill="black"/>
<path d="M227.66 169.857C218.022 171.88 207.289 172.583 198.222 168.042C197.717 167.767 197.52 167.141 197.794 166.624C198.057 166.129 198.66 165.931 199.154 166.162C208.067 169.868 218.044 169.956 227.55 169.23C227.923 169.175 228.043 169.769 227.66 169.846V169.857Z" fill="black"/>
<path d="M184.374 202.569C177.149 205.955 169.397 208.473 163.104 213.454C160.056 216.137 157.469 219.337 154.081 221.679C150.715 224.164 146.779 225.945 142.722 226.682C142.273 226.77 142.032 226.099 142.459 225.89C147.842 223.262 152.842 220.063 157.041 215.774C159.815 212.674 163.06 209.859 166.81 208.066C172.314 205.274 178.081 202.964 184.188 201.92C184.561 201.854 184.747 202.426 184.374 202.569Z" fill="black"/>
<path d="M160.583 205.757C158.324 208.649 155.342 210.76 152.25 212.619C146.066 216.467 138.885 218.479 131.616 218.743C129.807 218.82 127.954 218.765 126.112 218.38C124.336 218.072 122.976 216.984 121.145 217.204C120.959 217.226 120.795 217.083 120.773 216.896C120.762 216.764 120.827 216.632 120.937 216.566C121.748 216.093 122.889 215.983 123.832 216.137C133.162 217.259 142.909 215.192 151.208 210.793C154.267 209.144 157.118 207.132 160.013 205.197C160.363 204.911 160.868 205.406 160.572 205.757H160.583Z" fill="black"/>
<path d="M78.8685 205.263C84.482 210.738 85.7867 219.359 84.5807 226.825C84.3614 227.892 84.1312 228.958 83.8461 230.014C83.7474 230.377 83.3747 230.597 83.0019 230.498C82.662 230.41 82.4647 230.08 82.4976 229.75C83.2979 221.569 82.8155 212.85 78.408 205.691C78.1668 205.405 78.5944 204.999 78.8685 205.263Z" fill="black"/>
<path d="M76.6318 239.569C80.0635 231.025 79.5153 221.415 76.5989 212.806C76.5112 212.564 76.884 212.399 76.9936 212.641C81.1051 221.008 80.9516 231.344 76.9607 239.734C76.8621 239.943 76.5222 239.789 76.6318 239.569Z" fill="black"/>
<path d="M115.4 240.262C121.123 237.04 125.695 232.18 129.851 227.155C130.07 226.891 130.498 227.199 130.311 227.496C126.836 233.148 121.913 238.425 115.543 240.669C115.291 240.746 115.148 240.372 115.4 240.262Z" fill="black"/>
<path d="M167.139 193.574C171.579 186.757 180.614 186.559 187.499 189.253C194.198 191.342 200.151 196.081 206.62 198.049C210.425 199.193 216.279 199.897 220.248 200.6C229.502 201.986 238.755 203.096 248.107 202.756C256.999 202.8 267.799 208.66 273.182 215.631C273.292 215.807 273.237 216.049 273.061 216.159C272.886 216.269 272.667 216.214 272.557 216.06C271.099 214.378 269.136 213.025 267.229 211.739C260.53 207.33 252.723 204.262 244.621 205.164C236.332 205.307 228.054 204.427 219.853 203.327C212.782 202.305 205.381 201.535 199.055 197.961C189.911 192.794 177.259 185.69 168.016 194.212C167.643 194.718 166.744 194.179 167.128 193.574H167.139Z" fill="black"/>
<path d="M283.696 230.278C275.166 225.528 266.461 220.074 256.67 218.974C254.39 218.886 251.857 218.831 249.653 218.424C237.352 216.005 225.741 211.508 214.624 205.845C214.415 205.735 214.339 205.482 214.448 205.274C214.558 205.076 214.788 204.999 214.986 205.087C226.355 209.43 238.032 213.982 250.026 216.016C253.063 216.566 256.265 216.269 259.258 216.808C268.544 218.765 276.91 223.691 284.266 229.475C284.716 229.838 284.212 230.597 283.707 230.267L283.696 230.278Z" fill="black"/>
<path d="M160.298 182.359C167.665 181.633 175.165 181.006 182.105 178.334C186.732 176.432 190.854 172.573 196.15 172.748C197.038 172.825 197.959 173.001 198.704 173.716C198.814 173.826 198.814 174.002 198.704 174.112C198.584 174.244 198.397 174.211 198.277 174.101C197.016 173.298 195.185 173.639 193.792 174.09C188.99 175.684 185.328 179.599 180.438 181.072C177.182 182.194 173.816 182.919 170.428 183.282C167.04 183.645 163.642 183.667 160.254 183.249C159.738 183.194 159.749 182.37 160.287 182.359H160.298Z" fill="black"/>
<path d="M233.043 253.182C233.043 253.182 219.251 227.122 214.788 211.541Z" fill="#D9DADD"/>
<path d="M232.045 253.72C228.384 247.035 225.018 240.218 221.937 233.246C218.856 226.275 215.885 219.183 214.295 211.684C214.174 211.079 215.062 210.793 215.293 211.398C219.404 221.965 224.119 232.268 229.052 242.461C229.052 242.472 234.052 252.643 234.052 252.654C234.677 253.962 232.769 254.985 232.034 253.709L232.045 253.72Z" fill="black"/>
<path d="M132.57 166.701C133.611 172.913 128.064 178.136 122.878 180.489C122.647 180.588 122.461 180.247 122.68 180.104C127.241 176.817 131.32 172.474 132.219 166.712C132.241 166.514 132.548 166.503 132.57 166.712V166.701Z" fill="black"/>
<path d="M120.86 177.905C123.382 171.407 125.619 164.59 125.608 157.541C125.608 157.278 126.013 157.223 126.057 157.497C127.121 164.634 124.369 171.792 121.244 178.092C121.123 178.323 120.751 178.147 120.86 177.905Z" fill="black"/>
<path d="M127.296 143.687C136.67 147.799 139.422 159.521 137.657 168.823C137.613 169.175 137.054 169.131 137.076 168.757C137.427 159.741 135.541 149.097 127.055 144.27C126.682 144.127 126.912 143.522 127.285 143.687H127.296Z" fill="black"/>
<path d="M346.059 261.439C341.356 255.535 342.035 246.837 346.75 241.207C348.208 239.371 349.973 237.832 351.815 236.424C351.99 236.281 352.243 236.314 352.385 236.49C352.506 236.644 352.495 236.864 352.374 237.007C351.629 237.876 350.861 238.711 350.094 239.536C348.054 242.087 346.278 244.88 345.434 248.058C344.414 252.17 345.335 256.788 347.736 260.197C348.493 261.285 346.87 262.484 346.059 261.428V261.439Z" fill="black"/>
<path d="M324.8 244.044C324.745 238.414 327.42 230.267 334.218 230.575C334.393 230.575 334.404 230.849 334.218 230.871C328.034 231.85 326.171 238.755 325.151 244.066C325.129 244.275 324.789 244.264 324.789 244.044H324.8Z" fill="black"/>
<path d="M320.568 242.538C316.873 239.833 314.647 235.281 314.395 230.739C314.373 230.509 314.735 230.443 314.79 230.673C315.842 234.973 317.86 238.942 320.787 242.274C320.93 242.406 320.732 242.659 320.568 242.538Z" fill="black"/>
<path d="M321.774 237.414C320.765 231.993 322.684 226.374 325.579 221.833C325.732 221.591 326.05 221.514 326.302 221.668C326.532 221.822 326.609 222.13 326.478 222.361C323.802 226.891 322.059 232.059 322.081 237.359C322.103 237.546 321.818 237.59 321.774 237.403V237.414Z" fill="black"/>
<path d="M300.778 162.5C295 161.434 288.806 163.215 284.102 166.734C282.457 166.91 287.183 163.798 287.545 163.6C290.209 161.951 293.246 160.862 296.36 160.444C297.555 160.378 302.357 159.554 302.05 161.676C301.94 162.27 301.348 162.643 300.767 162.5H300.778Z" fill="black"/>
<path d="M290.044 205.186C289.189 202.25 289.014 199.204 288.729 196.18C288.498 193.156 288.378 190.1 288.794 187.076C288.816 186.944 288.937 186.845 289.069 186.867C289.189 186.889 289.277 186.988 289.277 187.109C289.31 190.089 289.748 193.046 290.275 195.982C290.768 198.918 291.656 201.81 292.084 204.746C292.259 205.999 290.406 206.406 290.044 205.197V205.186Z" fill="black"/>
<path d="M285.626 157.267C282.764 158.564 281.229 161.731 280.396 164.645C280.33 164.92 279.903 164.854 279.925 164.579L279.99 163.259C280.319 160.048 281.712 156.266 285.122 155.243C286.47 154.968 286.92 156.838 285.626 157.267Z" fill="black"/>
<path d="M268.215 201.315C264.411 197.752 262.021 192.266 263.117 187.043C263.139 186.9 263.271 186.812 263.413 186.834C263.556 186.856 263.643 186.988 263.621 187.12C263.468 189.55 264.005 191.969 265.189 194.08C266.286 196.125 268.007 197.983 269.772 199.391C271 200.446 269.476 202.316 268.204 201.315H268.215Z" fill="black"/>
<path d="M260.486 253.105C262.404 257.019 266.22 259.625 270.375 260.67C271.757 261.032 273.215 261.307 274.618 261.373C274.903 261.373 275.133 261.615 275.123 261.901C275.123 262.165 274.914 262.374 274.662 262.407C265.134 263.474 255.355 260.208 248.118 253.995L245.969 252.104C245.355 251.433 243.667 249.619 243.075 248.959C242.494 248.223 241.123 246.276 240.553 245.507C239.523 243.912 238.657 242.219 237.747 240.57C237.604 240.306 238.021 240.053 238.174 240.339C239.15 241.713 240.279 243.692 241.277 245.012C241.858 245.771 243.283 247.596 243.842 248.322C244.435 248.937 246.09 250.719 246.693 251.367C253.984 258.416 264.378 262.396 274.498 261.373L274.574 262.407C268.61 262.264 262.141 259.196 260.102 253.248C260.003 253.006 260.376 252.852 260.486 253.094V253.105Z" fill="black"/>
<path d="M206.905 103.388C218.022 102.299 231.508 108.831 232.418 121.102C232.44 121.333 232.1 121.399 232.034 121.168C229.337 109.007 218.242 104.52 206.916 103.707C206.73 103.707 206.708 103.399 206.905 103.388Z" fill="black"/>
<path d="M207.738 105.433C213.823 105.62 221.07 109.04 222.507 115.461C222.561 115.703 222.211 115.824 222.09 115.604C219.217 110.04 213.582 107.093 207.705 105.686C207.563 105.664 207.574 105.422 207.727 105.433H207.738Z" fill="black"/>
</g>
<defs>
<clipPath id="clip0_1703_880">
<rect width="384" height="182" fill="white" transform="translate(7 98)"/>
</clipPath>
</defs>
</svg>
