<svg width="896" height="597" viewBox="0 0 896 597" fill="none" xmlns="http://www.w3.org/2000/svg">
<rect width="895.5" height="597" fill="#EBECF0"/>
<path d="M34.3062 268.639L34.1315 246.798C34.1228 245.706 34.8453 244.972 35.9378 244.963C38.6691 244.941 40.2977 243.654 42.8309 241.632C44.0968 240.529 45.7254 239.242 47.7182 237.952C53.1532 234.45 59.6836 231.303 62.0449 230.556C64.4062 229.81 66.0494 230.342 66.9656 231.063C68.064 231.782 68.6219 233.234 68.635 234.872C68.6525 237.056 66.8491 239.255 64.4979 241.276L83.253 241.126C86.3485 241.101 88.7345 243.449 88.7593 246.543C88.7841 249.637 86.4358 252.022 83.3404 252.047L75.6927 252.108C75.8791 252.653 76.0656 253.197 76.0714 253.925C76.0874 255.927 75.008 257.574 73.5586 258.496C74.1107 259.22 74.3 260.128 74.3073 261.038C74.3277 263.586 72.7049 265.602 70.3436 266.349C70.5301 266.893 70.718 267.62 70.7238 268.348C70.7486 271.442 68.4004 273.827 65.3049 273.852L59.8422 273.896C55.1079 273.934 51.2768 273.054 47.6278 272.173C43.9787 271.292 40.5118 270.41 36.1417 270.445C35.0492 270.454 34.315 269.731 34.3062 268.639ZM37.7864 248.407L37.9334 266.79C41.9408 266.94 45.2257 267.824 48.5091 268.526C52.1581 269.407 55.6251 270.289 59.8131 270.255L65.2757 270.212C66.3683 270.203 67.0908 269.469 67.0821 268.377C67.0733 267.285 66.3391 266.563 65.2466 266.572L63.4257 266.586C62.3332 266.595 61.599 265.873 61.5903 264.781C61.5816 263.688 62.3041 262.955 63.3966 262.946L68.8592 262.902C69.9518 262.893 70.6743 262.16 70.6656 261.067C70.6568 259.975 69.9226 259.253 68.8301 259.262L65.1884 259.291C64.0958 259.3 63.3617 258.578 63.3529 257.485C63.3442 256.393 64.0667 255.66 65.1592 255.651L70.6219 255.607C71.7144 255.598 72.4369 254.864 72.4282 253.772C72.4195 252.68 71.6853 251.958 70.5928 251.967L66.951 251.996C65.8585 252.005 65.1243 251.283 65.1156 250.19C65.1068 249.098 65.8293 248.365 66.9219 248.356L83.3098 248.225C84.4023 248.216 85.1248 247.482 85.1161 246.39C85.1074 245.298 84.3732 244.576 83.2807 244.584L55.9675 244.803C54.875 244.812 54.1408 244.089 54.132 242.997C54.1233 241.905 54.8458 241.171 55.9384 241.163L57.3951 241.151C61.57 239.479 65.002 235.994 64.9918 234.719C64.9889 234.355 64.986 233.991 64.8024 233.811C64.6189 233.63 64.0726 233.635 63.1636 233.824C61.165 234.386 55.3601 237.163 49.5624 240.85C47.7502 241.956 46.4844 243.059 45.0364 244.162C42.8673 246.182 40.8789 248.018 37.7864 248.407Z" fill="black"/>
<g clip-path="url(#clip0_1703_811)">
<path d="M669.434 258.983C666.156 281.461 660.564 296.192 660.564 296.192C649.305 296.192 629.288 294.865 629.288 294.865C629.288 294.865 609.271 293.689 580.496 288.683C551.722 283.677 551.722 277.419 525.449 277.419C518.518 277.419 513.502 277.769 509.874 278.282C499.752 279.709 500.428 282.425 500.428 282.425C500.428 282.425 500.165 282.825 499.665 283.526C499.427 283.864 499.127 284.277 498.764 284.753C498.652 284.903 498.539 285.066 498.414 285.228C498.164 285.554 497.901 285.904 497.626 286.28C497.488 286.455 497.338 286.655 497.188 286.843C496.988 287.093 496.775 287.356 496.575 287.619C495.636 288.808 494.548 290.122 493.335 291.499L493.272 291.574L493.209 291.636C491.958 293.051 490.582 294.528 489.106 295.967C488.856 296.205 488.606 296.455 488.343 296.693C488.08 296.956 487.792 297.218 487.505 297.481C487.004 297.944 486.491 298.395 485.978 298.845L485.891 298.921L485.878 298.921C485.303 299.421 484.715 299.909 484.114 300.372C483.826 300.598 483.539 300.823 483.238 301.036C482.926 301.273 482.613 301.499 482.288 301.724C482.125 301.849 481.95 301.962 481.775 302.074C481.499 302.275 481.224 302.45 480.936 302.638C480.348 303.013 479.761 303.364 479.16 303.701C476.345 305.266 474.156 306.28 472.279 307.206C472.054 307.306 471.816 307.431 471.591 307.544C470.69 307.982 469.865 308.432 469.051 308.92C468.651 309.158 468.263 309.409 467.875 309.684C467.675 309.822 467.488 309.959 467.287 310.109C467.137 310.222 466.987 310.335 466.837 310.46C466.449 310.76 466.061 311.086 465.661 311.461C465.511 311.599 465.361 311.737 465.211 311.887C464.91 312.175 464.598 312.487 464.285 312.813C464.135 312.963 463.997 313.126 463.847 313.288C463.772 313.364 463.709 313.439 463.647 313.514C463.584 313.589 463.522 313.651 463.459 313.726C463.334 313.864 463.196 314.014 463.071 314.177C463.034 314.202 463.009 314.24 462.984 314.277C462.759 314.54 462.521 314.815 462.296 315.103C462.283 315.116 462.271 315.128 462.271 315.141C462.096 315.354 461.92 315.566 461.758 315.792C460.519 317.369 459.155 319.283 457.567 321.649C456.904 322.65 456.19 323.726 455.44 324.89C455.415 324.953 455.365 324.991 455.315 325.041C454.864 325.404 452.337 327.456 448.496 329.484C448.284 329.596 448.071 329.709 447.846 329.822C447.07 330.222 446.245 330.623 445.369 330.985C445.081 331.111 444.781 331.236 444.481 331.361C443.805 331.636 443.092 331.899 442.366 332.149C442.316 332.162 442.266 332.174 442.229 332.187C441.303 332.5 440.339 332.788 439.339 333.026L439.326 333.026C438.05 333.351 436.736 333.589 435.373 333.739C429.48 334.39 423.262 338.808 418.671 342.863C418.433 343.076 418.196 343.288 417.958 343.489C417.933 343.514 417.908 343.539 417.883 343.564C417.658 343.776 417.433 343.989 417.207 344.189C416.945 344.44 416.682 344.69 416.432 344.928C413.004 348.219 408.55 350.209 403.821 350.522L376.198 352.375C374.959 352.45 373.896 353.301 373.545 354.49C373.445 354.84 373.32 355.241 373.182 355.679C373.095 355.979 372.995 356.305 372.882 356.642C371.544 360.647 368.979 366.968 364.675 372.963C364.513 373.188 364.387 373.451 364.337 373.714C364.262 374.039 364.275 374.365 364.387 374.69C365.188 377.143 366.99 384.202 364.337 391.936C364.175 392.412 364.112 392.913 364.187 393.413C364.625 396.204 365.851 406.692 361.56 416.342C357.269 425.991 350.238 428.294 345.947 428.757C345.221 428.832 344.583 428.858 344.045 428.858L337.79 428.858C337.79 428.858 331.535 430.109 327.781 406.329C324.028 382.55 326.53 370.034 326.53 370.034L326.53 370.009C326.806 369.108 334.112 344.903 337.79 339.997C338.228 339.409 338.478 338.92 338.578 338.495C338.616 338.357 338.628 338.232 338.628 338.119C338.641 337.669 338.453 337.343 338.115 337.081C336.451 335.829 331.159 336.968 330.283 338.745C329.057 341.211 330.246 353.338 311.28 363.251C310.93 363.438 310.642 363.726 310.467 364.064C310.329 364.315 310.254 364.577 310.241 364.865C310.054 369.158 308.74 385.141 299.507 396.943C299.357 397.13 299.232 397.356 299.157 397.581C299.082 397.806 299.032 398.044 299.032 398.294L299.032 398.344C299.132 402.262 299.257 420.009 293.853 428.87C287.747 438.87 278.99 438.87 276.488 438.87C275.249 438.87 273.11 438.257 271.258 437.03C271.233 437.03 271.221 437.018 271.208 436.993C270.845 436.767 270.495 436.505 270.157 436.217C269.569 435.704 269.044 435.128 268.644 434.464C268.081 433.563 267.73 432.525 267.73 431.361L267.73 431.311C267.818 430.998 268.281 429.12 268.569 425.566C268.606 425.241 268.631 424.915 268.656 424.565C268.681 424.189 268.706 423.801 268.719 423.388C268.794 422.062 268.844 420.56 268.844 418.87L268.844 418.695C268.844 416.367 268.769 413.714 268.556 410.722L268.556 410.685L268.531 410.359C268.381 408.269 268.168 406.004 267.88 403.589C267.88 403.563 267.88 403.538 267.868 403.513C267.83 403.138 267.78 402.75 267.73 402.362L267.73 402.237C267.555 400.96 267.43 399.796 267.33 398.72C267.205 397.381 267.117 396.192 267.08 395.115C267.03 393.839 267.042 392.738 267.092 391.749L267.092 391.674L267.092 391.611C267.13 391.023 267.167 390.46 267.23 389.959C267.242 389.771 267.28 389.584 267.305 389.408C267.38 388.92 267.468 388.457 267.568 388.032C267.58 387.969 267.605 387.894 267.618 387.831C267.73 387.393 267.855 386.98 267.993 386.592L268.006 386.555C268.418 385.341 268.931 384.289 269.494 383.1L269.569 382.95C269.77 382.5 269.982 382.049 270.195 381.549L270.67 380.397L270.733 380.247L270.733 380.209C271.459 378.332 272.147 375.954 272.722 372.537C273.285 369.183 273.485 366.079 273.598 363.163L273.598 363.063C273.61 362.925 273.61 362.775 273.623 362.637C273.823 356.968 273.76 352.037 275.437 347.531C275.462 347.469 275.487 347.393 275.512 347.331C276.263 345.378 277.338 343.514 278.927 341.686C278.965 341.636 279.015 341.586 279.065 341.524C279.09 341.499 279.128 341.461 279.165 341.424C279.703 340.823 280.304 340.222 280.967 339.634C281.567 339.083 282.218 338.545 282.918 338.019C282.143 338.395 281.342 338.758 280.504 339.108C280.091 339.283 279.665 339.459 279.228 339.634C278.352 339.984 277.439 340.322 276.488 340.66L276.463 340.66C276.1 340.785 275.725 340.923 275.349 341.048C274.949 341.173 274.536 341.311 274.111 341.449L274.086 341.449C273.823 341.549 273.548 341.636 273.26 341.724L273.16 341.749C272.572 341.937 271.971 342.112 271.358 342.3C271.008 342.4 270.658 342.512 270.295 342.613C269.732 342.775 269.157 342.938 268.569 343.101C268.331 343.163 268.081 343.238 267.843 343.301L267.705 343.338C265.804 343.864 263.777 344.402 261.6 344.953C261.35 345.016 261.1 345.078 260.849 345.153C260.749 345.178 260.662 345.191 260.562 345.228C259.961 345.378 259.336 345.529 258.698 345.691C258.435 345.754 258.172 345.829 257.909 345.892C257.434 346.017 256.959 346.129 256.471 346.255C255.845 346.405 255.232 346.555 254.632 346.68C253.919 346.83 253.218 346.968 252.53 347.093C252.442 347.106 252.355 347.118 252.28 347.131C251.704 347.231 251.129 347.318 250.566 347.381C249.953 347.469 249.34 347.531 248.739 347.581C248.364 347.619 247.989 347.656 247.613 347.681C247.563 347.681 247.513 347.681 247.463 347.681C247.15 347.694 246.85 347.719 246.55 347.719C246.312 347.731 246.062 347.744 245.824 347.744L245.799 347.744C245.524 347.744 245.249 347.744 244.986 347.744L244.961 347.744C244.548 347.744 244.148 347.744 243.76 347.719C243.522 347.719 243.272 347.706 243.047 347.694C242.747 347.681 242.446 347.656 242.159 347.631C241.521 347.594 240.908 347.531 240.295 347.444L240.244 347.444C240.169 347.431 240.107 347.418 240.032 347.406C239.656 347.356 239.306 347.306 238.943 347.243C238.868 347.231 238.806 347.218 238.731 347.206C238.393 347.143 238.043 347.081 237.717 347.005C236.691 346.793 235.716 346.53 234.79 346.23C234.64 346.179 234.502 346.142 234.364 346.079C231.487 345.128 229.097 343.839 227.158 342.45C222.88 339.434 220.728 336.042 220.19 334.965C219.715 334.027 217.8 331.636 216.149 328.683C215.699 327.869 215.261 327.018 214.885 326.142C214.648 325.591 214.435 325.028 214.26 324.465C214.16 324.19 214.085 323.902 214.01 323.614C213.935 323.326 213.86 323.051 213.81 322.763C213.797 322.75 213.797 322.725 213.797 322.713C213.747 322.487 213.709 322.25 213.684 322.024C213.647 321.799 213.622 321.574 213.609 321.361C213.397 318.558 214.347 315.842 217.538 313.789C217.588 313.752 217.638 313.726 217.688 313.689C217.75 313.651 217.813 313.614 217.875 313.576C218.451 313.213 219.026 312.863 219.589 312.55C218.676 313.339 218.501 314.064 218.939 314.941C220.09 317.243 226.533 328.019 237.304 336.555C238.968 337.882 241.345 337.832 242.972 336.467C246.55 333.451 252.643 327.994 255.22 323.701C258.973 317.444 251.467 309.934 251.467 309.934C251.467 309.934 244.773 300.322 233.126 305.742C236.166 304.177 238.918 302.462 241.458 299.922C243.697 297.681 246.4 295.616 248.964 293.877C253.581 290.723 257.722 288.658 257.722 288.658C257.722 288.345 257.747 288.032 257.784 287.707C258.635 280.235 268.981 269.884 268.981 269.884C266.442 269.496 264.202 268.833 262.238 267.982C259.361 266.743 257.059 265.116 255.245 263.389C253.055 261.336 251.567 259.158 250.591 257.381C250.028 256.342 249.627 255.441 249.377 254.791C249.089 254.052 248.964 253.614 248.964 253.614C248.964 253.614 248.814 253.627 248.527 253.652C248.389 253.677 248.226 253.689 248.039 253.702C243.41 254.09 222.655 255.541 212.684 251.111C208.192 249.108 204.889 247.707 201.762 247.143C201.749 247.143 201.737 247.143 201.724 247.143C197.02 246.317 192.667 247.369 185.16 251.123C174.514 256.443 167.495 251.799 159.476 253.389L159.451 253.389C158.05 253.664 156.623 254.14 155.135 254.878C154.909 254.991 154.672 255.103 154.422 255.204C154.346 255.254 154.259 255.291 154.171 255.316C154.009 255.391 153.846 255.466 153.671 255.529C153.408 255.629 153.133 255.729 152.858 255.829C152.77 255.867 152.683 255.904 152.582 255.929C151.807 256.205 150.994 256.455 150.118 256.693C150.093 256.693 150.055 256.693 150.03 256.718C149.217 256.931 148.366 257.131 147.478 257.319C147.328 257.356 147.165 257.394 147.003 257.419C146.74 257.469 146.477 257.531 146.215 257.582C145.977 257.619 145.739 257.669 145.501 257.719C145.164 257.769 144.826 257.832 144.476 257.894C144.163 257.944 143.838 257.995 143.525 258.045C143.462 258.057 143.387 258.07 143.325 258.082C143.074 258.12 142.824 258.157 142.574 258.195C142.424 258.22 142.274 258.232 142.124 258.257C141.248 258.383 140.36 258.495 139.484 258.608C138.796 258.683 138.095 258.758 137.407 258.833C137.082 258.871 136.757 258.908 136.431 258.933C136.169 258.958 135.918 258.983 135.656 259.008C135.543 259.021 135.43 259.021 135.318 259.033C134.905 259.071 134.492 259.108 134.092 259.146C133.829 259.171 133.579 259.184 133.316 259.209L133.229 259.209C132.741 259.246 132.253 259.284 131.765 259.321C131.239 259.359 130.726 259.384 130.226 259.421C129.851 259.446 129.488 259.459 129.125 259.484C128.449 259.521 127.786 259.559 127.136 259.584C126.673 259.609 126.223 259.634 125.772 259.647C125.685 259.647 125.585 259.659 125.497 259.659C125.397 259.659 125.309 259.659 125.222 259.659L125.197 259.659C124.909 259.672 124.634 259.684 124.346 259.697C123.883 259.709 123.433 259.722 122.982 259.734C122.532 259.734 122.094 259.759 121.656 259.772C121.381 259.784 121.118 259.797 120.856 259.797C116.977 259.884 113.962 259.872 112.598 259.872C111.848 259.872 110.722 259.784 109.371 259.597L109.358 259.597C109.358 259.597 109.233 259.571 109.171 259.571C108.783 259.509 108.37 259.446 107.945 259.371C107.732 259.334 107.519 259.296 107.294 259.259C107.269 259.259 107.231 259.246 107.206 259.234C107.006 259.196 106.819 259.158 106.618 259.121C106.518 259.121 106.431 259.083 106.331 259.058C106.231 259.046 106.13 259.021 106.018 258.996C105.843 258.958 105.655 258.921 105.467 258.871C105.267 258.833 105.067 258.783 104.867 258.733C104.842 258.72 104.804 258.72 104.767 258.708C104.604 258.67 104.442 258.62 104.279 258.583C104.129 258.545 103.966 258.508 103.804 258.458C103.641 258.42 103.478 258.37 103.316 258.32C103.266 258.307 103.203 258.295 103.153 258.282C103.128 258.27 103.103 258.27 103.065 258.257C102.978 258.232 102.903 258.207 102.828 258.182C102.177 257.995 101.514 257.782 100.864 257.556C100.576 257.456 100.301 257.356 100.025 257.244C99.5124 257.056 98.9994 256.856 98.5115 256.63C98.3989 256.58 98.2988 256.543 98.1988 256.493C98.1112 256.455 98.0361 256.418 97.961 256.38C97.6483 256.23 97.3355 256.08 97.0353 255.929C96.1095 255.466 95.2212 254.941 94.408 254.365C94.2329 254.252 94.0577 254.127 93.8951 253.99C93.7575 253.889 93.6324 253.789 93.5073 253.689C92.9818 253.264 92.5064 252.813 92.0685 252.337C92.056 252.325 92.0435 252.312 92.0185 252.287C91.7683 252.012 91.5306 251.724 91.3179 251.424C90.9051 250.873 90.5798 250.297 90.3171 249.697C90.2295 249.521 90.1669 249.334 90.1044 249.146C90.0668 249.083 90.0543 249.021 90.0418 248.958C89.9668 248.745 89.9042 248.52 89.8542 248.295C89.7916 248.007 89.7291 247.707 89.6915 247.394C89.5539 246.23 89.6665 244.966 90.0794 243.602C90.9551 240.673 92.5314 238.42 94.408 236.705C100.563 231.086 110.096 231.086 110.096 231.086L122.269 222.65C124.959 220.798 128.062 219.634 131.302 219.271L145.714 217.669C147.803 217.444 149.818 216.781 151.632 215.729L168.258 206.092C170.373 204.866 172.7 204.09 175.114 203.789C175.152 203.777 175.189 203.777 175.239 203.777C176.052 203.664 176.891 203.627 177.729 203.639L181.57 203.777L183.434 203.84L196.457 204.303L200.686 204.465L244.073 206.017L245.199 206.055C246.975 206.055 248.489 205.592 249.878 204.941C251.416 204.215 252.78 203.251 254.144 202.438L259.348 199.309C261.563 197.982 264.065 197.244 266.629 197.144L288.561 196.33C293.752 196.142 298.844 194.791 303.448 192.375C306.626 190.698 309.578 189.159 312.318 187.732C322.79 182.3 330.183 178.608 335.338 176.105C341.243 173.239 347.548 171.374 354.016 170.323C360.847 169.234 369.242 166.28 379.35 163.151C381.665 162.438 384.067 161.712 386.569 160.999C389.872 160.06 392.299 159.397 394.288 158.934L394.3 158.934C402.845 156.931 403.108 158.408 428.479 155.367C459.756 151.612 465.386 144.728 476.645 140.974C480.161 139.797 484.352 138.934 488.831 138.295C498.689 136.894 509.949 136.593 518.556 136.593C531.067 136.593 554.211 120.949 567.347 117.82C572.302 116.631 582.047 115.705 592.381 115.004C609.996 113.802 629.275 113.264 629.275 113.264C634.617 119.071 639.346 125.029 643.5 131.099C674.076 175.717 674.263 225.792 669.422 258.958L669.434 258.983Z" fill="#D9DADD"/>
<path d="M670.673 259.171C669.259 268.695 667.307 278.145 664.668 287.419C663.779 290.523 662.854 293.564 661.728 296.643C661.54 297.143 661.065 297.456 660.552 297.456C633.216 297.156 605.98 294.553 579.082 289.709C568.974 288.057 559.103 284.853 549.395 281.699C539.686 278.733 529.553 278.483 519.432 278.795C514.465 279.021 509.361 279.271 504.632 280.71C503.568 281.048 502.167 281.649 501.654 282.375C501.654 282.375 501.654 282.35 501.654 282.325C501.654 282.3 501.654 282.287 501.629 282.162L501.467 283.151C500.341 284.79 499.19 286.342 497.951 287.919C494.761 291.962 490.332 296.793 486.679 299.922C483.251 303.013 478.897 305.379 474.744 307.381C470.628 309.371 466.875 311.386 464.047 314.978L463.747 315.253C463.847 315.203 463.947 315.103 464.01 315.003L463.922 315.128L463.272 315.917L463.171 316.029C463.384 315.842 463.534 315.466 463.509 315.191L463.222 315.979C462.646 316.668 462.083 317.531 461.508 318.32C459.856 320.547 457.98 323.288 456.478 325.616C455.415 326.943 451.912 329.021 449.723 330.285C446.67 332.012 443.029 333.401 439.614 334.29L440.214 333.952C440.039 334.127 439.852 334.252 439.614 334.29C435.46 335.015 431.907 335.391 428.317 337.481C423.313 340.084 419.534 343.927 415.418 347.456C411.765 350.335 406.974 351.799 402.407 351.899L384.78 353.076L376.097 353.664C374.947 353.801 374.684 355.015 374.421 355.942C373.983 357.406 373.47 358.808 372.932 360.209C371.081 364.928 368.716 369.471 365.776 373.601C365.639 373.789 365.651 373.776 365.614 373.864C365.589 373.927 365.576 373.952 365.564 374.064C365.551 374.152 365.564 374.214 365.589 374.302C367.415 380.084 367.515 386.442 365.589 392.212C365.451 392.687 365.388 392.85 365.438 393.251C367.002 404.828 365.163 418.682 355.455 426.354C351.689 429.245 346.885 430.359 342.219 430.134L337.802 430.134L338.053 430.109C337.002 430.247 336.101 429.846 335.313 429.321C328.607 424.014 327.106 409.358 325.817 401.248C324.604 390.735 323.653 380.022 325.442 369.509C327.131 363.701 329.821 355.666 332.223 349.196C333.599 345.729 334.762 342.337 336.902 339.171C337.177 338.783 337.39 338.432 337.415 338.094C337.415 338.069 337.415 338.132 337.44 338.132C337.44 338.132 337.29 338.032 337.027 337.944C336.727 337.882 336.389 337.819 336.013 337.832C334.437 337.857 332.485 338.282 331.497 339.271C331.372 339.408 331.309 339.821 331.234 340.084C329.846 350.848 322.152 359.033 312.819 363.864L312.218 364.202C311.968 364.315 311.593 364.552 311.543 364.84C310.905 375.679 308.165 386.63 301.985 395.741L300.458 397.856C300.408 397.944 300.383 397.994 300.346 398.132C300.283 399.433 300.383 401.223 300.333 402.562C299.87 413.313 299.47 425.541 291.676 433.839C286.621 439.27 277.201 442.499 270.608 438.107L271.296 438.319C271.121 438.332 270.695 438.232 270.458 438.006C270.22 437.794 270.17 437.656 270.132 437.593L270.595 438.094C269.482 437.318 268.469 436.505 267.73 435.328C266.992 434.227 266.504 432.8 266.529 431.398C266.855 429.721 267.18 427.956 267.318 426.167C267.805 421.361 267.568 415.716 267.368 410.848C267.368 410.81 267.368 410.76 267.368 410.722L267.368 410.823L266.692 403.776L266.692 403.626C266.692 403.789 266.73 403.964 266.817 404.114C266.267 401.098 266.054 397.881 265.904 394.778C265.904 391.786 265.854 389.321 266.905 386.217L266.83 386.63C266.83 386.417 266.88 386.217 266.98 386.029C266.542 387.068 268.469 382.562 268.331 382.9C270.057 379.371 271.108 375.691 271.696 371.674C273.56 361.574 270.433 349.484 278.077 340.91C278.952 339.922 280.954 338.057 282.255 337.068L283.556 339.196C279.265 341.186 276.5 342.112 272.847 343.226C269.695 344.227 264.177 345.616 260.962 346.492L258.297 347.156C258.197 347.181 258.097 347.193 258.01 347.193C257.96 347.193 258.322 347.156 258.31 347.156C252.63 348.833 244.698 349.534 239.969 348.733C231.825 347.631 223.743 343.338 219.289 335.879L219.064 335.466L218.826 335.091C216.262 331.361 213.622 327.619 212.646 323.063L212.996 323.726C212.108 322.425 212.221 319.333 213.071 317.218C213.822 315.241 215.724 313.539 217.112 312.7L219.052 311.536C219.64 311.186 220.403 311.374 220.765 311.962C221.091 312.5 220.953 313.188 220.478 313.576C220.115 313.927 219.902 314.064 220.14 314.49C224.606 322.487 230.736 329.596 237.817 335.378C239.031 336.58 240.97 336.668 242.259 335.566L243.91 334.152C244.999 333.201 246.087 332.225 247.138 331.223C249.24 329.233 251.266 327.156 252.98 324.928C254.682 322.913 255.583 320.46 254.782 317.819C253.556 313.777 250.553 310.122 247.113 307.581C243.86 305.341 239.669 304.878 235.953 306.104C235.165 306.355 234.402 306.705 233.626 306.993C232.238 307.531 231.212 305.441 232.626 304.715C237.267 302.638 240.545 299.046 244.361 295.829C248.401 292.663 252.68 289.984 257.234 287.619L256.546 288.733C256.734 284.578 258.785 281.161 260.95 277.857C263.101 274.703 265.516 271.824 268.168 269.071L268.869 271.198C260.85 270.06 252.705 265.028 249.415 257.444L249.565 258.045L248.639 256.08C248.489 255.742 248.314 255.441 248.201 255.078L247.838 254.027L249.14 254.928C247.488 255.078 244.698 255.279 242.684 255.366C232.576 255.642 222.254 256.055 212.558 252.438C208.88 250.861 205.29 249.133 201.612 248.433L201.824 248.458C201.524 248.458 201.124 248.307 200.911 248.082L201.574 248.42C198.246 247.782 194.856 248.445 191.578 249.709C188.163 250.936 185.023 252.926 181.507 254.002C177.841 255.128 173.913 255.241 170.26 254.866C164.956 254.34 160.527 253.739 156.223 255.829C154.659 256.518 154.784 256.568 152.945 257.194C153.446 257.031 150.431 257.982 150.506 257.944L150.18 257.982C150.343 257.982 150.518 257.957 150.656 257.869L150.418 257.957C144.926 259.371 139.146 260.022 133.504 260.485C128.187 260.898 121.118 261.136 115.401 261.136C112.323 261.211 108.733 260.973 106.719 260.385L107.044 260.498L106.093 260.31L106.243 260.335L105.693 260.222L105.217 260.11C105.555 260.185 104.617 259.972 104.629 259.972L104.379 259.872C104.392 259.909 104.517 259.934 104.554 259.947L103.503 259.672L103.591 259.697C103.366 259.634 103.065 259.546 102.915 259.521L102.665 259.421C102.665 259.421 102.728 259.459 102.753 259.471C102.778 259.471 102.715 259.471 102.703 259.459L102.553 259.409L102.24 259.309L101.614 259.108C99.4999 258.445 97.4106 257.619 95.5215 256.468L94.358 255.779L93.7826 255.429C92.3438 254.403 90.7675 252.976 89.7416 251.211C86.7015 246.43 89.5415 238.558 95.0086 234.678C99.4624 231.461 104.729 230.085 110.171 229.859L109.458 230.085L116.84 224.966C120.555 222.375 124.446 219.296 129.025 218.42C131.702 217.882 139.622 217.156 142.524 216.793C145.439 216.48 148.191 216.318 150.718 214.866L158.463 210.385C161.553 208.733 167.22 205.003 170.385 203.739C174.539 202.062 177.879 202.438 182.483 202.575L189.614 202.826C198.446 203.176 223.18 204.015 232.388 204.365C236.003 204.453 241.771 204.741 245.299 204.828C247.914 204.828 250.065 203.627 252.43 202.1L258.56 198.395C262.789 195.554 268.168 195.88 272.985 195.679L287.247 195.154C291.926 195.104 296.442 194.202 300.671 192.375C310.417 187.419 322.589 181.161 332.423 176.243C338.778 172.851 345.834 170.498 352.94 169.284C357.594 168.583 362.086 167.269 366.627 165.892C375.347 163.089 386.169 159.697 394.075 157.732C398.642 156.455 404.609 156.405 409.276 156.03C414.28 155.679 419.284 155.179 424.276 154.603C434.259 153.477 444.205 152.05 453.713 149.084C463.422 146.33 471.991 140.198 481.987 138.22C492.034 136.118 502.192 135.592 512.301 135.354L516.091 135.304C519.857 135.417 523.31 134.878 526.838 133.677C541.275 129.034 553.849 119.71 568.774 116.18C578.857 114.428 588.891 113.952 599.037 113.289C609.083 112.726 619.167 112.3 629.25 112C629.638 112 629.988 112.15 630.238 112.413C657.899 141.812 673 183.627 672.937 225.692C673.05 236.881 672.199 248.107 669.885 259.046L670.66 259.158L670.673 259.171ZM668.971 258.921C670.798 236.831 671.649 214.565 667.357 192.738C661.628 162.538 648.204 135.592 628.324 114.165L629.313 114.578C609.308 115.417 589.028 115.742 569.237 118.796C559.603 120.936 550.746 126.268 541.726 130.335C533.719 133.965 525.137 138.333 516.066 137.932L512.301 137.982C499.865 138.395 487.167 138.683 475.419 142.813C468.426 145.617 461.758 149.434 454.427 151.537C439.727 155.98 424.564 157.269 409.401 158.545C404.834 158.896 398.942 159.009 394.601 160.173C386.731 162.15 376.148 165.442 367.302 168.258C362.749 169.634 358.07 170.999 353.316 171.712C346.36 172.913 339.704 175.129 333.461 178.458C329.595 180.46 318.423 186.017 314.383 188.095C310.041 190.248 306.05 192.588 301.609 194.641C297.105 196.618 292.114 197.582 287.284 197.632L273.022 198.157C268.456 198.42 263.752 197.895 259.786 200.51L253.706 204.19C251.729 205.454 249.415 206.856 246.725 207.206C245.511 207.356 244.173 207.269 242.972 207.231L239.406 207.106C226.47 206.681 202.337 205.754 189.476 205.316C185.698 205.316 178.93 204.691 175.264 205.041C175.352 205.041 175.452 205.028 175.54 204.991L175.302 205.041C173.913 205.216 172.562 205.554 171.261 206.055C169.947 206.543 168.784 207.256 167.458 208.032L159.689 212.538C157.074 213.977 150.418 218.383 147.328 218.696C143.337 219.221 137.67 219.834 133.842 220.26C129.55 220.535 125.359 221.712 121.906 224.453C119.179 226.318 113.537 230.272 110.835 232.125C110.622 232.275 110.372 232.35 110.121 232.35C105.405 232.525 100.313 233.839 96.4598 236.668C92.8443 239.259 89.9043 244.403 91.2929 248.72C91.2929 248.645 91.2554 248.57 91.2054 248.508L91.318 248.758C91.4055 248.958 91.4306 249.083 91.5557 249.359C92.2938 250.986 93.72 252.287 95.1337 253.339C96.0095 253.839 96.8852 254.415 97.7484 254.891C98.8369 255.441 100.025 255.917 101.151 256.33L103.729 257.168L103.478 257.068C103.791 257.143 103.929 257.194 104.179 257.256C105.405 257.569 105.918 257.707 107.457 257.995L107.782 258.107C107.644 258.032 107.469 257.995 107.307 257.995L107.507 257.995L109.371 258.32L109.171 258.307C109.321 258.307 109.458 258.332 109.609 258.357L109.358 258.332L109.421 258.332L109.533 258.332L112.348 258.583C123.658 258.583 134.642 258.32 145.677 256.38C146.753 256.192 148.617 255.729 149.705 255.479L149.467 255.566C149.668 255.479 149.893 255.416 150.118 255.404L149.793 255.441C150.556 255.178 152.27 254.715 152.945 254.428C153.07 254.377 153.246 254.327 153.333 254.277L153.658 254.14L153.834 254.077C153.796 254.077 153.759 254.09 153.734 254.127L153.959 254.002L155.11 253.464C162.891 249.471 172.249 254.302 180.719 251.511C185.873 249.784 190.577 246.518 196.132 245.779C198.046 245.491 200.035 245.529 201.937 245.867L202.6 246.205C202.412 245.992 202.037 245.842 201.762 245.854L201.987 245.879C206.178 246.68 209.844 248.508 213.472 250.047C216.95 251.461 220.853 252.112 224.744 252.5C232.513 253.226 240.507 253.013 248.301 252.387C249.065 252.25 249.853 252.362 250.14 253.163C250.341 253.764 250.578 254.44 250.866 254.991L251.692 256.743C251.792 256.943 251.842 257.143 251.842 257.356L251.692 256.755C255.195 263.264 261.875 267.619 269.169 268.62C270.17 268.745 270.583 270.047 269.87 270.735C268.619 272.012 267.38 273.414 266.217 274.815C263.039 278.833 259.348 283.451 258.96 288.683C258.935 289.158 258.66 289.559 258.272 289.759C253.944 291.999 249.678 294.665 245.837 297.694C241.996 300.986 238.393 304.74 233.689 306.843L232.588 304.59C239.431 301.161 247.901 302.951 252.48 309.208C254.019 310.623 256.396 314.24 257.121 317.093C259.136 323.676 252.868 328.795 248.777 332.95C247.701 333.977 246.6 334.965 245.474 335.942L243.785 337.393C242.359 338.607 240.32 339.071 238.506 338.545C236.179 337.794 234.602 335.817 232.763 334.327C227.284 329.246 222.492 323.451 218.651 317.043C217.938 315.817 216.912 314.252 217.75 312.813C218.038 312.262 218.401 311.912 218.751 311.599L220.177 313.639C216.487 315.629 214.035 317.832 215.023 322.7C215.036 322.425 214.885 322.049 214.673 321.874L215.023 322.537C215.861 326.255 218.063 329.634 220.253 332.763C221.078 333.814 221.566 335.066 222.404 336.129C226.045 341.036 231.587 344.34 237.542 345.654C241.17 346.53 245.086 346.655 249.027 346.242C253.193 345.854 256.796 344.828 260.249 343.964C262.726 343.338 269.157 341.624 272.047 340.723C272.459 340.622 273.273 340.335 273.673 340.222L273.51 340.285C274.499 339.972 275.462 339.534 276.45 339.346C276.55 339.346 276.037 339.421 276.062 339.421C277.126 339.008 278.202 338.633 279.253 338.207C280.654 337.907 283.031 335.616 284.019 337.481C284.244 338.007 284.094 338.62 283.656 338.958L281.742 340.547L279.941 342.35C277.939 344.44 275.975 348.532 275.55 351.962C274.949 355.091 274.999 360.385 274.836 363.151C274.586 370.184 273.648 377.493 270.483 383.876L269.182 386.905L269.119 387.068L269.119 387.093L269.244 386.53C269.244 386.68 269.219 386.818 269.169 386.955C268.656 388.42 268.431 390.084 268.331 391.636C268.331 391.699 268.318 391.786 268.306 391.836L268.318 391.574L268.318 391.649L268.318 391.761C268.118 395.403 268.894 401.874 269.094 403.388L269.77 410.535L269.77 410.61L269.77 410.635C269.745 410.284 269.957 415.829 269.957 415.816C270.145 421.085 270.032 426.417 268.906 431.611L268.944 431.311C268.906 433.2 270.27 434.89 271.834 435.879L272.297 436.379C272.272 436.329 272.234 436.217 272.009 436.016C271.784 435.804 271.383 435.716 271.233 435.729L271.921 435.941C273.223 436.805 274.886 437.456 276.3 437.568C285.008 438.044 292.514 431.436 294.916 423.301C297.431 415.353 297.843 406.755 297.768 398.432C297.731 397.744 297.906 397.093 298.256 396.48C305.125 387.581 308.277 376.229 308.965 365.065C308.928 363.826 309.603 362.637 310.704 362.074L310.992 361.912L311.568 361.586C319.987 357.206 327.306 349.834 328.595 340.122C328.77 339.283 328.882 338.52 329.408 337.744C331.084 335.779 333.586 335.353 335.988 335.253C339.279 335.128 341.13 337.669 338.903 340.547C333.887 349.158 330.534 361.949 327.756 370.222C326.293 380.297 327.043 390.747 328.269 400.848C329.27 407.493 331.359 424.765 337.502 427.543C337.54 427.568 337.702 427.543 337.54 427.568L337.79 427.543L342.206 427.543C359.784 428.745 365.163 408.157 363.024 394.077C362.836 393.226 362.874 392.087 363.187 391.336C364.913 386.167 364.838 380.447 363.262 375.266C362.936 374.44 362.949 373.576 363.312 372.75C363.549 372.312 363.775 371.974 364.025 371.624C366.702 367.781 368.866 363.576 370.58 359.221C371.256 357.544 371.819 355.816 372.319 354.102C372.807 352.099 374.959 350.923 376.886 351.023C379.125 350.885 382.39 350.635 384.592 350.51C387.119 350.159 404.096 349.496 406.423 348.845C410.602 348.032 414.205 345.504 417.132 342.487C422.474 337.731 428.805 333.076 436.149 332.287L439.013 331.786C439.013 331.786 438.375 332.162 438.438 332.099C438.601 331.924 438.813 331.824 439.038 331.761L442.054 330.885L441.953 330.91C443.067 330.485 444.205 330.097 445.306 329.571C448.509 328.282 453.05 325.228 454.389 324.152C456.466 320.848 458.968 317.431 461.307 314.29L461.02 315.078C461.02 314.765 461.182 314.377 461.407 314.164L461.307 314.277L462.033 313.414L461.945 313.539C462.058 313.376 462.221 313.213 462.383 313.088L462.083 313.363L462.684 312.675C465.523 309.208 469.777 306.918 473.655 305.053C477.546 303.213 482.1 300.635 485.003 297.994C489.757 293.777 493.985 289.058 497.751 283.977C498.314 283.213 498.864 282.45 499.39 281.687L499.227 282.675C498.927 278.633 506.133 277.619 509.06 277.093C519.357 275.767 529.653 275.742 539.987 277.006C546.818 277.869 553.398 280.26 559.879 282.35C579.333 288.332 599.75 290.472 619.905 292.763C633.391 294.002 647.04 294.69 660.577 294.878L659.413 295.679C661.528 289.772 663.216 283.576 664.668 277.444C666.106 271.261 667.282 265.016 668.208 258.733L668.984 258.846L668.971 258.921Z" fill="black"/>
<path d="M369.066 233.614C366.264 255.128 358.57 266.155 354.867 270.347C353.603 271.774 352.803 272.412 352.803 272.412L354.004 276.08L350.613 278.783L342.031 285.629L340.342 286.981L326.68 297.869L318.649 304.277L311.73 309.797L279.027 335.879L266.492 338.745L234.452 346.079L234.364 346.104C231.487 345.153 229.097 343.864 227.158 342.475L224.569 341.198L217.875 333.051L216.149 328.708C215.699 327.894 215.261 327.043 214.885 326.167C214.648 325.616 214.435 325.053 214.26 324.49C214.16 324.215 214.085 323.927 214.01 323.639C213.935 323.351 213.86 323.076 213.809 322.788C213.797 322.775 213.797 322.75 213.797 322.738C213.747 322.512 213.709 322.275 213.684 322.049C213.647 321.824 213.622 321.599 213.609 321.386C213.397 318.583 214.347 315.867 217.538 313.814C217.588 313.777 217.638 313.752 217.688 313.714C217.75 313.676 217.813 313.639 217.875 313.601C218.451 313.238 219.026 312.888 219.589 312.575C221.278 311.086 225.482 309.334 233.001 305.829C233.038 305.817 233.076 305.792 233.113 305.779L233.126 305.779C236.166 304.202 238.918 302.487 241.458 299.947C243.697 297.707 246.4 295.641 248.964 293.902C253.581 290.748 257.722 288.683 257.722 288.683C257.722 288.37 257.747 288.057 257.784 287.732C258.635 280.26 268.981 269.909 268.981 269.909C266.442 269.521 264.202 268.858 262.238 268.007C259.361 266.768 257.059 265.141 255.245 263.414C253.055 261.361 251.567 259.183 250.591 257.406C250.028 256.367 249.627 255.466 249.377 254.816C249.089 254.077 248.964 253.639 248.964 253.639C248.964 253.639 248.814 253.652 248.526 253.677C248.389 253.702 248.226 253.714 248.039 253.727C243.41 254.115 222.654 255.566 212.684 251.136C208.192 249.133 204.889 247.732 201.762 247.169C201.749 247.169 201.737 247.169 201.724 247.169C197.02 246.342 192.667 247.394 185.16 251.148C174.514 256.468 167.495 251.824 159.476 253.414L159.451 253.414C158.05 253.689 156.623 254.165 155.135 254.903C154.934 255.003 154.722 255.103 154.509 255.204C154.396 255.254 154.284 255.304 154.171 255.341C154.009 255.416 153.846 255.491 153.671 255.554C153.496 255.629 153.308 255.692 153.133 255.767C152.945 255.829 152.77 255.892 152.582 255.954C151.807 256.23 150.994 256.48 150.118 256.718C150.093 256.718 150.055 256.718 150.03 256.743C149.217 256.956 148.366 257.156 147.478 257.344C147.315 257.381 147.165 257.419 147.003 257.444C146.74 257.494 146.477 257.556 146.215 257.607C145.977 257.657 145.739 257.694 145.501 257.744C145.164 257.794 144.826 257.857 144.476 257.919C144.163 257.969 143.838 258.02 143.525 258.07C143.462 258.082 143.387 258.095 143.325 258.107C143.074 258.145 142.824 258.182 142.574 258.22C142.424 258.245 142.274 258.257 142.124 258.282C141.248 258.408 140.36 258.52 139.484 258.633C138.796 258.708 138.095 258.783 137.407 258.858C137.082 258.896 136.757 258.933 136.431 258.958C136.169 258.983 135.918 259.008 135.656 259.033C135.13 259.083 134.617 259.133 134.092 259.171C133.829 259.196 133.579 259.209 133.316 259.234C132.791 259.271 132.278 259.309 131.765 259.346C131.239 259.384 130.726 259.409 130.226 259.446C129.851 259.471 129.488 259.484 129.125 259.509C128.449 259.546 127.786 259.584 127.136 259.609C126.673 259.634 126.223 259.659 125.772 259.672C125.685 259.672 125.585 259.684 125.497 259.684C125.397 259.684 125.309 259.684 125.222 259.684L125.197 259.684C124.909 259.697 124.634 259.709 124.346 259.722C123.883 259.734 123.433 259.747 122.982 259.759C122.532 259.759 122.094 259.784 121.656 259.797C121.381 259.809 121.118 259.822 120.855 259.822C116.977 259.909 113.962 259.897 112.598 259.897C111.848 259.897 110.722 259.809 109.371 259.622L109.358 259.622C109.358 259.622 109.233 259.597 109.171 259.597C108.783 259.534 108.37 259.471 107.945 259.396C107.732 259.359 107.519 259.321 107.294 259.284C107.069 259.246 106.844 259.196 106.618 259.146C106.518 259.146 106.431 259.108 106.331 259.083C106.231 259.071 106.13 259.046 106.018 259.021C105.843 258.983 105.655 258.946 105.467 258.896C105.267 258.858 105.067 258.808 104.867 258.758C104.842 258.745 104.804 258.745 104.767 258.733C104.604 258.695 104.442 258.645 104.279 258.608C104.129 258.57 103.966 258.533 103.804 258.483C103.591 258.433 103.378 258.37 103.153 258.307C103.128 258.295 103.103 258.295 103.065 258.282C102.978 258.257 102.903 258.232 102.828 258.207C102.177 258.02 101.514 257.807 100.864 257.582C100.576 257.481 100.301 257.381 100.025 257.269C99.5124 257.081 98.9994 256.881 98.5115 256.655C98.3989 256.605 98.2988 256.568 98.1987 256.518C98.1237 256.48 98.0361 256.455 97.961 256.405C97.8109 256.342 97.6483 256.267 97.4981 256.192C97.3355 256.117 97.1854 256.042 97.0353 255.954C96.1095 255.491 95.2212 254.966 94.408 254.39C94.2329 254.277 94.0577 254.152 93.8951 254.015C93.7575 253.914 93.6324 253.814 93.5073 253.714C92.9818 253.289 92.5064 252.838 92.0685 252.363C92.056 252.35 92.0435 252.337 92.0185 252.312C91.7683 252.037 91.5306 251.749 91.3179 251.449C90.905 250.898 90.5798 250.322 90.317 249.722C90.2295 249.546 90.1669 249.359 90.1044 249.171C90.0668 249.108 90.0543 249.046 90.0418 248.983C89.9667 248.771 89.9042 248.545 89.8542 248.32C89.7916 248.032 89.729 247.732 89.6915 247.419C89.5539 246.255 89.6665 244.991 90.0793 243.627C90.9551 240.698 92.5314 238.445 94.408 236.731C100.563 231.111 110.096 231.111 110.096 231.111L122.269 222.675C124.959 220.823 128.062 219.659 131.302 219.296L145.714 217.694C147.803 217.469 149.818 216.806 151.632 215.754L168.258 206.117C170.373 204.891 172.7 204.115 175.114 203.814L175.152 203.814L175.239 203.802C176.052 203.689 176.891 203.652 177.729 203.664L181.57 203.802L183.409 203.802C183.409 203.802 183.409 203.827 183.434 203.865L196.457 204.328L200.686 204.49L244.073 206.042L249.865 204.916C249.865 204.916 249.865 204.953 249.878 204.966C251.416 204.24 252.78 203.276 254.144 202.463L259.348 199.334C261.563 198.007 264.065 197.269 266.629 197.169L288.56 196.355C293.752 196.167 298.844 194.816 303.448 192.4C306.626 190.723 309.578 189.184 312.318 187.757L339.041 217.231L340.279 218.595C340.279 218.595 341.981 217.882 344.546 217.119C346.447 216.543 348.837 215.955 351.364 215.604C360.397 214.378 371.318 216.267 369.054 233.614L369.066 233.614Z" fill="#EBECF0"/>
<path d="M639.847 250.047C637.97 250.723 636.794 251.073 636.794 251.073L620.718 263.864L561.067 259.634L515.829 256.417L474.907 253.514L458.818 242.187L471.704 231.261L474.957 228.508L499.665 203.577L462.896 203.577L462.971 203.539C502.93 179.772 504.181 158.52 507.935 156.017C511.688 153.514 516.692 156.017 516.692 156.017C516.692 156.017 535.458 164.778 547.969 164.778C560.479 164.778 562.981 154.766 577.994 154.766C593.007 154.766 638.045 139.747 633.041 135.992C628.037 132.238 577.994 138.495 574.241 130.986C571.439 125.379 585.238 118.27 592.394 115.029C610.009 113.827 629.288 113.289 629.288 113.289C634.63 119.096 639.359 125.054 643.512 131.124C643.512 131.124 639.296 144.753 640.547 154.766C641.798 164.778 635.543 169.784 619.279 172.288C603.015 174.791 601.764 183.552 602.765 188.583C603.766 193.602 618.028 187.306 614.275 192.313C610.522 197.319 590.505 197.319 601.764 204.828C613.024 212.338 661.815 213.589 663.254 228.245C664.393 239.884 647.04 247.431 639.847 250.047Z" fill="#9AC2CC"/>
<path d="M488.843 138.32C476.02 170.686 476.658 161.024 457.567 175.179C438.776 189.096 447.671 210.635 447.946 211.311L447.959 211.311L434.81 288.057L393.287 284.603L374.183 260.36L369.517 254.453L369.517 237.331L369.529 237.331C371.356 239.609 374.321 250.085 376.573 252.388C387.119 263.176 399.28 270.548 405.347 274.916C407.236 276.28 409.376 272.012 409.376 272.012L412.979 276.08C412.979 276.08 428.192 259.972 430.369 249.884C430.369 249.872 432.871 223.602 432.871 223.602C435.861 209.772 429.23 219.634 430.369 197.319C432.32 159.184 395.101 159.084 394.313 158.959C402.858 156.956 403.12 158.433 428.492 155.392C459.769 151.637 465.398 144.753 476.658 140.999C480.173 139.822 484.364 138.959 488.843 138.32Z" fill="#9AC2CC"/>
<path d="M457.567 321.649C456.904 322.65 456.191 323.726 455.44 324.89C455.415 324.953 455.365 324.99 455.315 325.041C454.864 325.403 452.337 327.456 448.497 329.484C448.284 329.596 448.071 329.709 447.846 329.821C447.07 330.222 446.245 330.622 445.369 330.985C445.081 331.111 444.781 331.236 444.481 331.361C443.805 331.636 443.092 331.899 442.366 332.149C442.316 332.162 442.266 332.174 442.229 332.187C441.303 332.5 440.34 332.788 439.339 333.025L439.326 333.025C438.05 333.351 436.737 333.589 435.373 333.739C429.48 334.39 423.263 338.808 418.671 342.863C418.433 343.076 418.196 343.288 417.958 343.489C417.933 343.514 417.908 343.539 417.883 343.564C417.658 343.776 417.433 343.989 417.207 344.189C416.945 344.44 416.682 344.69 416.432 344.928C413.004 348.219 408.55 350.209 403.821 350.522L376.198 352.375C374.959 352.45 373.896 353.301 373.545 354.49C373.445 354.84 373.32 355.241 373.183 355.679L359.834 346.78L345.922 337.494L317.773 318.72L313.407 312.275L310.892 308.558L309.041 305.829L352.94 286.029L365.914 289.183L381.852 293.063L400.781 297.669L427.266 304.114L445.957 314.94L457.567 321.649Z" fill="#9AC2CC"/>
<path d="M463.459 313.726C463.334 313.864 463.197 314.014 463.071 314.177C463.034 314.202 463.009 314.24 462.984 314.277C462.759 314.54 462.521 314.815 462.296 315.103C462.283 315.116 462.271 315.128 462.271 315.141C462.096 315.353 461.921 315.566 461.758 315.792C460.519 317.368 459.156 319.283 457.567 321.649C456.904 322.65 456.191 323.726 455.44 324.89C455.415 324.953 455.365 324.99 455.315 325.041C454.865 325.403 452.337 327.456 448.497 329.484C448.284 329.596 448.071 329.709 447.846 329.821C447.07 330.222 446.245 330.623 445.369 330.985C445.081 331.111 444.781 331.236 444.481 331.361C443.805 331.636 443.092 331.899 442.366 332.149C442.316 332.162 442.266 332.174 442.229 332.187C441.303 332.5 440.34 332.788 439.339 333.026L439.326 333.026C438.05 333.351 436.737 333.589 435.373 333.739C429.48 334.39 423.263 338.808 418.671 342.863C418.434 343.076 418.196 343.288 417.958 343.489L415.669 342.6L412.353 341.323L411.44 340.973L410.302 340.535L408.725 339.584L406.699 338.37L396.49 332.262C396.49 332.262 440.377 328.733 425.364 322.475C410.352 316.217 380.326 298.695 371.569 308.708C362.811 318.72 355.305 297.444 355.305 297.444L356.293 296.68L360.935 293.063L365.914 289.183L380.952 277.494L414.643 292.287L421.374 295.241L459.819 312.124L463.459 313.726Z" fill="#4B808C"/>
<path d="M364.338 391.936C364.175 392.412 364.112 392.913 364.187 393.413C364.625 396.204 365.851 406.692 361.56 416.342C357.269 425.991 350.238 428.294 345.947 428.757C345.221 428.832 344.583 428.857 344.045 428.857L337.79 428.857C337.79 428.857 331.535 430.109 327.781 406.329C324.028 382.55 326.53 370.034 326.53 370.034L326.53 370.009C326.806 369.108 334.112 344.903 337.79 339.997C338.228 339.408 338.478 338.92 338.578 338.495C338.616 338.357 338.628 338.232 338.628 338.119L339.304 337.594L339.441 337.494L341.543 335.879L343.983 337.494L359.896 348.044L372.882 356.642C371.544 360.647 368.979 366.968 364.675 372.963C364.513 373.188 364.388 373.451 364.338 373.714C364.262 374.039 364.275 374.364 364.388 374.69C365.188 377.143 366.99 384.202 364.338 391.936Z" fill="#9AC2CC"/>
<path d="M268.644 434.465L268.644 429.496L268.906 419.921L267.968 404.54L267.092 395.128L267.28 388.682L270.157 382.55L272.735 375.04L273.986 368.783L273.873 360.91L274.411 353.526L276.488 345.541L279.615 340.623L283.794 337.581L291.788 331.736L297.656 326.079L302.272 320.31L307.814 315.854L311.292 313.639L317.773 318.72L319.499 338.019L310.479 355.741L304.011 376.292L297.756 392.562L294.003 413.839L288.998 430.109L276.488 436.367L271.246 437.03L268.644 434.465Z" fill="#9AC2CC"/>
<path d="M669.434 258.983C666.156 281.461 660.564 296.192 660.564 296.192C649.304 296.192 629.287 294.865 629.287 294.865C629.287 294.865 609.27 293.689 580.496 288.683C551.722 283.676 551.722 277.419 525.449 277.419C518.518 277.419 513.502 277.769 509.873 278.282C499.752 279.709 500.428 282.425 500.428 282.425C500.428 282.425 500.165 282.825 499.665 283.526C499.427 283.864 499.127 284.277 498.764 284.753C498.651 284.903 498.539 285.066 498.414 285.228C498.176 285.554 497.913 285.904 497.626 286.28C497.488 286.455 497.338 286.655 497.188 286.843C496.988 287.093 496.775 287.356 496.575 287.619C495.636 288.808 494.548 290.122 493.334 291.499L493.272 291.574L493.209 291.636C491.958 293.051 490.582 294.528 489.106 295.967C488.856 296.205 488.605 296.455 488.343 296.693C488.08 296.956 487.792 297.218 487.504 297.481C487.004 297.944 486.491 298.395 485.978 298.845L485.891 298.921L485.878 298.921C485.303 299.421 484.715 299.909 484.114 300.372L483.976 300.285L464.698 288.683L434.635 290.848L414.643 292.287L403.821 293.063L345.997 293.063L318.648 304.277L314.007 306.18L310.892 308.558L291.563 323.301L279.027 335.879L249.965 347.118L248.739 347.581L248.714 347.581L247.363 348.119L245.361 347.819L244.986 347.769L244.961 347.769L234.79 346.255L234.452 346.079L227.158 342.475L224.569 341.198L217.875 333.051L216.149 328.708L215.173 326.23L213.809 322.788C213.809 322.788 213.797 322.75 213.797 322.738L216.887 316.843L220.19 318.72C220.19 318.72 220.202 318.745 220.215 318.783C220.703 319.809 227.333 333.464 234.389 338.97C234.414 338.995 234.427 339.008 234.452 339.021C235.953 340.184 237.467 340.973 238.956 341.198C239.781 341.323 240.757 341.311 241.858 341.173C245.924 340.685 251.654 338.52 257.284 335.278C266.304 330.072 275.099 322.087 276.488 313.714C276.488 313.714 279.328 307.832 284.282 306.217C285.17 305.929 286.133 305.779 287.159 305.829L287.234 305.829C287.234 305.829 309.215 289.559 334.137 280.36C334.137 280.36 345.296 276.167 345.296 271.161C345.296 266.155 353.153 268.295 353.603 269.722C353.703 270.022 354.154 270.31 354.867 270.347C357.557 270.473 363.862 266.906 367.815 246.13C368.353 243.276 368.929 241.036 369.517 239.296C369.667 238.833 369.829 238.42 369.98 238.032C374.283 227.356 379.262 241.874 380.326 246.13C381.577 251.136 396.402 272.05 407.749 269.722C418.208 267.594 429.63 229.271 430.406 206.593C430.481 204.615 430.469 202.776 430.368 201.074C430.331 200.41 430.306 199.784 430.293 199.221C430.243 197.619 430.293 196.393 430.431 195.454L430.431 195.416C431.795 186.155 441.403 208.195 447.946 211.311L447.958 211.311C449.647 212.125 451.349 212.162 452.95 211.724C458.417 210.285 462.896 203.577 462.896 203.577L462.971 203.539C464.522 202.813 489.719 190.723 512.838 163.176C512.838 163.176 540.049 180.348 571.538 163.176C603.015 146.005 575.492 181.049 577.994 188.558C580.496 196.067 580.333 205.291 575.404 208.808C570.487 212.338 555.475 214.841 550.47 212.338C545.466 209.834 535.458 208.583 526.7 213.589C517.943 218.595 502.717 226.317 474.669 238.107C467.5 241.123 467.512 241.849 471.516 241.261C483.151 239.559 528.527 226.73 528.527 226.73C528.527 226.73 553.135 219.159 566.809 224.503C580.496 229.859 642.949 228.608 653.008 226.73C663.066 224.853 653.058 231.111 641.798 232.363C630.539 233.614 586.751 237.369 569.236 233.614C551.722 229.859 507.934 242.375 517.943 242.375C527.951 242.375 566.734 238.683 580.496 245.529C594.258 252.387 606.205 257.406 615.876 249.884C619.867 246.78 629.688 247.794 639.846 250.047C654.296 253.251 669.434 258.983 669.434 258.983Z" fill="#4B808C"/>
<path d="M282.931 338.019C270.608 347.306 275.237 357.519 272.735 372.537C270.232 387.556 265.228 382.55 267.73 402.362C270.232 422.187 267.73 431.361 267.73 431.361C267.73 431.361 265.228 443.876 248.964 441.373C232.701 438.87 238.956 413.839 236.454 403.826C233.952 393.814 228.947 397.569 231.45 375.04C233.952 352.512 234.79 346.255 234.79 346.255C240.219 347.994 247.351 348.532 256.471 346.255C268.694 343.201 276.738 341.036 282.931 338.019Z" fill="#9AC2CC"/>
<path d="M283.756 337.857C283.106 339.621 281.267 341.023 280.016 342.362C274.874 348.019 275.124 355.616 274.874 363C274.711 367.681 274.261 372.425 273.06 377.055C272.134 381.561 269.069 385.516 268.506 390.009C268.218 392.174 268.293 394.452 268.431 396.717C269.031 403.639 270.082 410.61 270.082 417.606C269.882 424.527 270.52 432.95 265.178 438.332C259.799 443.714 250.804 444.164 244.16 441.098C239.594 438.695 237.492 433.413 236.704 428.632C235.228 420.51 236.654 412.4 235.278 404.402C234.577 400.898 232.763 398.507 231.124 395.116C228.372 388.307 229.748 380.785 230.311 373.801L233.489 346.092C233.576 345.303 234.402 344.778 235.153 345.041C240.858 346.855 247.088 346.768 252.955 345.654C261.9 343.576 271.008 341.436 279.603 338.195C280.691 337.844 282.18 337.331 283.294 337.794L283.719 337.869L283.756 337.857ZM282.293 338.545C282.168 338.745 282.105 338.97 282.13 339.121C282.143 339.358 282.243 339.384 281.93 339.571C278.802 341.511 275.099 342.375 271.659 343.551C259.623 346.893 246.863 351.561 234.402 347.469L236.066 346.417L232.826 374.064C232.288 380.723 230.962 387.819 233.439 394.089C234.852 396.943 237.104 400.36 237.742 403.814C238.506 407.356 238.393 410.96 238.443 414.502C238.731 422.6 237.592 434.127 245.374 438.883C250.916 441.423 258.91 441.11 263.402 436.567C268.168 431.561 267.318 424.127 267.593 417.619C267.78 408.169 265.203 399.233 266.029 389.659C266.592 384.815 269.645 381.035 270.633 376.405C271.759 372.037 272.209 367.481 272.372 362.888C272.597 354.44 272.547 345.729 279.428 339.384C279.778 339.096 279.978 338.645 280.416 338.683C280.766 338.795 281.717 338.783 282.28 338.532L282.293 338.545Z" fill="black"/>
<path d="M255.22 323.726C252.643 328.019 246.55 333.476 242.972 336.492C241.346 337.857 238.969 337.907 237.305 336.58C226.533 328.044 220.09 317.268 218.939 314.966C218.501 314.089 218.676 313.364 219.59 312.575C224.669 309.609 229.073 307.844 233.001 305.829C233.039 305.817 233.076 305.792 233.114 305.779L233.126 305.779C244.774 300.347 251.467 309.959 251.467 309.959C251.467 309.959 258.973 317.469 255.22 323.726Z" fill="#EBECF0" stroke="black" stroke-width="2" stroke-linecap="round" stroke-linejoin="round"/>
<path d="M417.207 344.189C416.945 344.44 416.682 344.69 416.432 344.928C413.004 348.219 408.55 350.209 403.821 350.522L376.198 352.375C374.959 352.45 373.896 353.301 373.545 354.49C373.445 354.84 373.32 355.241 373.183 355.679C373.095 355.979 372.995 356.304 372.882 356.642C371.544 360.647 368.979 366.968 364.675 372.963C364.513 373.188 364.388 373.451 364.338 373.714C364.262 374.039 364.275 374.364 364.388 374.69C365.188 377.143 366.99 384.202 364.338 391.936C364.175 392.412 364.112 392.913 364.187 393.413C364.625 396.204 365.851 406.692 361.56 416.342C357.269 425.991 350.238 428.294 345.947 428.757C345.221 428.832 344.583 428.857 344.045 428.857L343.282 428.857L343.057 428.757C343.057 428.757 364.062 393.814 326.53 392.562C326.53 392.562 325.279 390.059 326.53 370.034L326.53 370.009L329.033 366.279C329.033 366.279 362.561 346.405 339.304 337.594C339.216 337.556 339.129 337.531 339.041 337.494L354.054 337.494L358.683 339.058L359.971 339.484L361.748 339.922L362.448 340.097L365.764 341.223C365.764 341.223 379.826 337.181 380.701 330.447L379.638 329.183L376.66 325.679L376.61 325.616L376.585 325.579L376.573 325.579L374.759 322.688L377.061 317.456L380.589 321.061L383.266 323.789L391.098 329.947L391.16 329.997L391.26 330.072L391.273 330.072L403.196 336.918L404.759 337.569L406.699 338.37L414.855 341.774L415.056 341.987L415.669 342.6L415.881 342.825L417.207 344.189Z" fill="#5891A0"/>
<path d="M418.671 342.863C418.433 343.076 418.196 343.288 417.958 343.489C417.933 343.514 417.908 343.539 417.883 343.564C417.658 343.776 417.433 343.989 417.207 344.189C416.945 344.44 416.682 344.69 416.432 344.928C413.004 348.219 408.55 350.209 403.821 350.522L376.197 352.375C374.959 352.45 373.896 353.301 373.545 354.49C373.445 354.84 373.32 355.241 373.182 355.679C373.095 355.979 372.995 356.305 372.882 356.643C371.544 360.647 368.979 366.968 364.675 372.963C364.513 373.188 364.387 373.451 364.337 373.714C364.262 374.039 364.275 374.365 364.387 374.69C365.188 377.143 366.99 384.202 364.337 391.937C364.175 392.412 364.112 392.913 364.187 393.413C364.625 396.204 365.851 406.692 361.56 416.342C357.269 425.991 350.238 428.294 345.947 428.757C345.947 428.757 366.389 414.039 350.838 391.411C350.838 391.411 359.146 385.666 357.844 369.096L357.857 369.096C357.919 368.795 360.296 358.482 359.896 348.044C359.884 347.619 359.859 347.206 359.834 346.78C359.683 344.177 359.333 341.599 358.72 339.183C358.708 339.146 358.695 339.096 358.683 339.058C358.67 338.996 358.658 338.945 358.645 338.883L359.971 339.484L366.627 342.512L366.639 342.512L366.689 342.537L366.739 342.587L366.752 342.587L370.48 346.054C370.48 346.054 381.802 345.679 390.447 339.696L390.36 339.609L390.335 339.584L379.638 329.171L379.012 328.57L376.66 325.666L376.61 325.604L376.585 325.566L379.1 319.784C379.1 319.784 379.112 319.809 379.125 319.809L380.589 321.048L391.098 329.934L391.16 329.984L391.26 330.059L391.273 330.059L401.444 335.867L404.759 337.556L408.725 339.571L411.44 340.96L411.928 341.211L412.353 341.311L415.056 341.974L418.671 342.85L418.671 342.863Z" fill="#214859"/>
<path d="M282.393 336.893C285.508 335.391 288.385 333.489 290.925 331.148C293.465 328.82 295.704 326.129 297.768 323.301C299.97 320.235 302.848 317.857 305.763 315.716C314.57 309.434 324.404 304.815 334.412 300.86C340.817 298.645 347.323 295.479 354.254 295.729C354.942 295.779 355.755 296.292 355.693 297.193C355.68 297.293 355.618 297.381 355.53 297.431L354.929 297.719C354.592 297.882 354.542 298.069 354.392 298.132C353.103 298.182 351.727 298.282 350.388 298.608C345.271 299.696 340.217 301.323 335.313 303.213C325.504 307.093 315.821 311.636 307.226 317.769C301.034 321.736 297.981 328.22 292.602 333.026C289.899 335.516 286.772 337.581 283.481 339.171C282.856 339.471 282.105 339.221 281.805 338.595C281.505 337.969 281.767 337.231 282.393 336.93L282.393 336.893Z" fill="black"/>
<path d="M336.539 226.105C336.539 226.105 320.275 242.375 314.02 256.142C307.764 269.909 257.722 288.683 257.722 288.683" fill="#5891A0"/>
<path d="M336.952 226.518C328.857 236.593 320.05 245.967 314.608 257.807C305.825 271.098 273.385 283.839 258.172 289.859C257.522 290.11 256.809 289.784 256.558 289.133C256.308 288.483 256.646 287.757 257.296 287.519C265.291 284.415 273.197 280.973 280.954 277.306C290.55 272.638 300.233 267.894 308.352 261.011C310.854 258.871 312.481 256.68 313.807 253.689C315.296 250.748 317.085 247.97 318.949 245.266C321.451 241.687 324.141 238.257 326.956 234.941C329.783 231.637 332.773 228.483 336.151 225.704C336.651 225.279 337.427 225.992 336.964 226.518L336.952 226.518Z" fill="black"/>
<path d="M233.001 305.829C229.072 307.844 224.669 309.609 219.589 312.575C221.278 311.086 225.482 309.333 233.001 305.829Z" stroke="black" stroke-width="2" stroke-linecap="round" stroke-linejoin="round"/>
<path d="M201.299 248.332C201.211 248.52 201.249 248.445 201.324 248.295C201.524 247.857 201.999 246.468 202.312 246.092C202.412 245.954 202.487 245.892 202.425 246.092C203.888 246.856 202.787 249.046 201.311 248.332L201.299 248.332Z" fill="black"/>
<path d="M338.115 337.081C336.451 335.829 331.159 336.968 330.283 338.745C329.057 341.211 330.246 353.338 311.28 363.251C310.929 363.438 310.642 363.726 310.466 364.064C310.329 364.315 310.254 364.577 310.241 364.865C310.054 369.158 308.74 385.153 299.495 396.955C299.182 397.356 299.019 397.844 299.032 398.344C299.132 402.262 299.257 420.009 293.852 428.87C287.747 438.87 278.99 438.87 276.488 438.87C274.999 438.87 272.196 437.981 270.157 436.217C270.157 436.217 299.782 420.197 276.488 398.032C275.712 397.293 275.749 396.054 276.563 395.366C283.856 389.196 312.881 362.65 282.931 354.377C282.931 354.377 281.692 353.751 281.592 352.5C281.492 351.248 282.743 349.997 283.994 349.997C285.245 349.997 307.764 353.751 312.768 338.733C317.773 323.714 310.466 314.027 310.466 314.027L310.554 313.977L313.819 311.999L314.52 311.586L320.813 313.927L322.539 314.565L323.315 315.103L326.83 317.581L327.331 317.944L328.019 318.42L329.958 319.784L331.659 322.162L332.01 322.638L334.512 326.129L338.102 337.068L338.115 337.081Z" fill="#5891A0"/>
<path d="M351.527 337.644C351.527 337.644 345.034 339.308 338.903 338.407L338.578 338.495C338.728 337.857 338.541 337.406 338.115 337.081C336.451 335.829 331.159 336.968 330.284 338.745C329.057 341.211 330.246 353.338 311.28 363.251C310.93 363.438 310.642 363.726 310.467 364.064C310.329 364.315 310.254 364.577 310.241 364.865C310.054 369.158 308.74 385.141 299.507 396.943C299.195 397.343 299.019 397.831 299.032 398.345C299.132 402.262 299.257 420.009 293.853 428.87C287.747 438.87 278.99 438.87 276.488 438.87C276.488 438.87 297.756 431.173 291.501 394.34C291.501 394.34 301.309 383.113 305.763 359.396C305.788 359.258 305.813 359.121 305.838 358.983C305.838 358.983 324.616 350.009 326.843 317.594C326.843 317.544 326.856 317.506 326.856 317.456L327.344 317.957L332.022 322.65L332.235 322.875L333.574 324.215C333.574 324.215 341.13 335.967 350.838 337.544L350.851 337.544C351.076 337.594 351.301 337.619 351.527 337.644Z" fill="#14303F"/>
<path d="M242.709 437.618C242.709 437.618 268.944 410.71 243.572 389.221C242.809 388.582 241.971 388.044 241.033 387.694C240.095 387.343 238.956 386.617 238.956 385.053C238.956 383.626 239.769 383.013 240.47 382.75C241.608 382.325 242.709 381.786 243.648 381.01C247.826 377.544 256.196 367.781 252.518 347.093L274.974 341.549L279.603 340.623L278.252 342.888L275.45 347.419L274.386 353.514L273.585 363.151L272.71 372.525L270.721 380.234L267.993 386.567L267.08 391.661L267.318 398.707L267.956 404.527L268.544 410.672L268.831 418.695L268.569 425.553L267.318 432.687L265.216 436.404L261.513 439.621L255.845 441.986L247.501 441.06L242.709 437.606L242.709 437.618Z" fill="#5891A0"/>
<path d="M379.363 163.176C379.363 163.176 366.564 171.036 364.062 186.055C361.785 199.759 355.33 209.296 351.377 215.604C350.989 216.217 350.626 216.793 350.301 217.344C346.81 223.164 336.927 226.68 335.563 227.144C335.563 227.144 335.551 227.144 335.538 227.156L335.526 227.156C335.451 227.181 335.413 227.194 335.413 227.194L335.138 227.569L335.125 227.569L335.125 227.594C335.125 227.594 335.088 227.644 335.05 227.669L314.971 254.453L314.921 254.453L314.858 254.453L311.255 253.952L311.242 253.952L302.923 252.813C280.554 199.409 254.169 202.475 254.169 202.475L259.373 199.346C261.588 198.02 264.09 197.281 266.655 197.181L288.586 196.368C293.778 196.18 298.869 194.828 303.473 192.413C306.651 190.736 309.604 189.196 312.343 187.769C322.815 182.338 330.209 178.646 335.363 176.142C341.268 173.276 347.573 171.412 354.041 170.36C360.872 169.271 369.267 166.318 379.375 163.189L379.363 163.176Z" fill="#9AC2CC"/>
<path d="M255.845 441.999C255.845 441.999 265.228 431.361 262.726 413.839C260.224 396.317 259.986 399.346 260.099 384.69C260.099 384.69 270.12 373.513 267.042 356.129C263.965 338.745 279.615 340.622 279.615 340.622L277.626 344.214L275.349 348.157L273.911 359.546L272.735 372.525L270.745 380.234L267.28 388.67L267.73 397.356L268.556 410.672L268.731 423.951L267.73 431.336L265.216 436.392L261.513 439.608L255.845 441.974L255.845 441.999Z" fill="#14303F"/>
<path d="M499.665 283.526C499.427 283.864 499.127 284.277 498.764 284.753C498.652 284.903 498.539 285.066 498.414 285.228C498.176 285.554 497.914 285.904 497.626 286.28C497.488 286.455 497.338 286.655 497.188 286.843C496.988 287.093 496.775 287.356 496.575 287.619C495.637 288.808 494.548 290.122 493.335 291.499L493.272 291.574L493.21 291.636C491.959 293.051 490.582 294.527 489.106 295.967C488.856 296.205 488.606 296.455 488.343 296.693C488.08 296.956 487.793 297.218 487.505 297.481C487.004 297.944 486.491 298.395 485.978 298.845L485.891 298.92L485.878 298.92C485.303 299.421 484.715 299.909 484.114 300.372C483.827 300.598 483.539 300.823 483.239 301.036C482.926 301.273 482.613 301.499 482.288 301.724C482.125 301.849 481.95 301.962 481.775 302.074C481.5 302.275 481.224 302.45 480.937 302.638C480.349 303.013 479.761 303.363 479.16 303.701C476.345 305.266 474.156 306.28 472.279 307.206C472.042 307.318 471.816 307.431 471.591 307.544C470.69 307.982 469.865 308.432 469.052 308.92C468.651 309.158 468.263 309.409 467.876 309.684C467.675 309.822 467.488 309.959 467.288 310.109C467.138 310.222 466.987 310.335 466.837 310.46C466.449 310.76 466.062 311.086 465.661 311.461C465.511 311.586 465.361 311.736 465.211 311.887C464.911 312.174 464.598 312.487 464.285 312.813C464.135 312.963 463.997 313.126 463.847 313.288C463.772 313.363 463.71 313.439 463.647 313.514C463.584 313.589 463.522 313.651 463.459 313.726C463.334 313.864 463.197 314.014 463.072 314.177C463.034 314.202 463.009 314.24 462.984 314.277C462.759 314.54 462.521 314.815 462.296 315.103C462.283 315.116 462.271 315.128 462.271 315.141C462.096 315.353 461.921 315.566 461.758 315.791C460.519 317.368 459.156 319.283 457.567 321.649C456.904 322.65 456.191 323.726 455.44 324.89C455.415 324.953 455.365 324.99 455.315 325.041C454.865 325.403 452.337 327.456 448.497 329.484C448.284 329.596 448.071 329.709 447.846 329.821C447.07 330.222 446.245 330.622 445.369 330.985C445.081 331.111 444.781 331.236 444.481 331.361C443.805 331.636 443.092 331.899 442.366 332.149C442.316 332.162 442.266 332.174 442.229 332.187C441.491 332.3 440.903 331.436 441.403 330.81C444.256 327.218 447.759 320.109 435.999 315.591C434.059 314.84 432.383 314.315 430.907 313.927L430.882 313.927C428.392 313.288 426.415 313.088 424.576 313.026L424.551 313.026C418.271 312.813 413.442 314.265 394.726 306.192C394.563 306.117 394.401 306.054 394.238 305.992C393.8 305.792 393.362 305.604 392.899 305.416C391.874 304.978 390.81 304.54 389.697 304.114C389.659 304.114 389.622 304.089 389.584 304.077C372.67 297.481 361.485 296.593 356.293 296.68C354.304 296.705 353.191 296.868 352.978 296.905L352.915 296.905L349.162 297.469L343.232 298.37C343.157 298.382 343.082 298.395 343.007 298.432L336.426 301.424L325.98 306.18L314.62 311.624L313.82 312.012L313.407 312.275L310.529 314.114L306.851 316.467L306.801 316.505L306.789 316.505L300.984 322.613L294.316 329.534L293.89 329.984L286.784 335.879L285.683 336.78C285.683 336.78 285.546 336.88 285.458 336.918L283.794 337.581L274.123 341.448L273.848 341.561L273.273 341.724L261.613 344.953L258.648 345.779L257.91 345.892L249.965 347.118L245.799 347.756L245.362 347.819L243.497 348.107C243.385 348.119 243.285 348.119 243.185 348.094L240.295 347.468L234.79 346.254C234.79 346.254 273.36 341.874 283.994 327.481C294.628 313.088 297.381 312.074 304.136 306.943C310.067 302.45 324.279 294.19 336.977 288.845C340.43 287.394 343.345 284.903 345.309 281.699L346.072 280.472C347.11 278.77 349.262 278.12 351.076 278.946C352.578 279.621 354.192 279.959 355.793 279.959C357.519 279.959 359.246 279.571 360.835 278.795C361.673 278.395 362.549 277.919 363.449 277.356C368.579 274.215 371.569 268.508 371.569 262.488L371.569 262.312C371.569 260.498 373.758 259.584 375.047 260.873L379.275 265.103C379.526 265.354 379.763 265.604 380.001 265.879C382.691 268.883 402.545 290.335 418.671 283.201C434.647 276.142 437.35 218.846 437.875 209.834C437.913 209.246 437.875 207.331 440.29 208.42L447.959 211.324C449.573 211.937 451.312 212.062 452.95 211.724C454.051 211.499 455.127 211.048 456.091 210.41L467.7 202.675C468.464 202.15 469.402 203.063 468.901 203.852L460.469 217.344C459.506 218.883 460.332 220.923 462.096 221.361L469.164 223.138C471.879 223.814 474.068 225.842 474.957 228.508L476.12 231.987C476.833 234.14 476.27 236.505 474.669 238.107L471.516 241.261L470.49 242.287C469.815 242.963 470.565 244.077 471.441 243.689L477.621 241.011C479.736 240.085 481.775 242.45 480.549 244.415L474.994 253.339C474.994 253.339 474.932 253.451 474.907 253.514C474.857 253.664 474.844 253.814 474.882 253.977C474.932 254.24 474.982 254.49 475.057 254.74C475.67 257.206 477.484 263.401 481.4 269.346C483.952 273.251 487.417 277.043 492.034 279.584L492.046 279.584C494.16 280.76 496.525 281.661 499.152 282.2C499.753 282.325 500.015 283.026 499.665 283.526Z" fill="#214859"/>
<path d="M345.296 216.092C345.096 216.405 344.846 216.756 344.558 217.119C342.281 220.11 337.84 224.791 335.563 227.144C335.413 227.306 335.263 227.456 335.125 227.594C335.1 227.619 335.088 227.644 335.05 227.669C334.837 227.894 334.65 228.082 334.5 228.232C334.45 228.295 334.4 228.345 334.362 228.383C334.224 228.533 334.149 228.608 334.149 228.608L325.967 237.995L323.741 240.798L318.824 246.993L316.86 250.786L316.797 250.898L314.971 254.453L314.783 254.715L314.583 255.016L314.558 255.041L313.845 256.017L309.954 261.374L309.941 261.374L309.666 261.774L308.39 262.763L308.378 262.763L308.265 262.876L305.6 264.953L305.362 265.128L298.407 270.535L288.398 275.541L279.053 280.31L263.377 286.805L261.951 287.043L261.938 287.043L259.248 287.494L257.81 287.732C258.66 280.26 269.007 269.909 269.007 269.909C266.467 269.521 264.227 268.858 262.263 268.007C259.386 266.768 257.084 265.141 255.27 263.414C253.081 261.361 251.592 259.183 250.616 257.406C250.053 256.367 249.653 255.466 249.402 254.816L249.427 254.778L248.977 252.438L248.827 251.687L248.827 251.637L247.388 244.252C247.388 244.252 256.396 256.03 262.076 251.073C267.755 246.13 271.359 240.197 270.183 229.396L272.56 233.639L276.701 239.772L281.767 245.729L286.997 250.473L293.165 254.503L297.768 256.48C297.768 256.48 297.956 256.505 298.256 256.518C299.52 256.58 302.86 256.38 302.935 252.801C302.96 252.325 302.91 251.762 302.785 251.136C301.534 244.878 290.562 224.828 290.562 224.828C290.562 224.828 289.349 211.925 302.948 215.88C302.948 215.88 325.555 227.394 339.079 217.231C340.417 216.23 341.668 215.016 342.794 213.552C342.794 213.552 347.824 212.338 345.321 216.092L345.296 216.092Z" fill="#5891A0"/>
<path d="M580.496 288.683C551.722 283.676 551.722 277.419 525.449 277.419C518.518 277.419 513.502 277.769 509.874 278.282C500.991 266.981 502.693 261.974 504.707 259.922C505.42 259.196 506.346 258.733 507.334 258.47C539.611 249.897 569.237 251.136 569.237 251.136C569.237 251.136 581.747 251.136 572.99 253.639C564.232 256.142 559.228 261.148 557.939 262.287C556.663 263.426 554.224 271.161 567.097 275.316C579.971 279.471 580.496 288.683 580.496 288.683Z" fill="#214859"/>
<path d="M334.137 228.608C334.137 228.608 316.922 232.363 305.463 228.608C294.003 224.853 305.262 251.136 314.02 256.142L318.811 246.993L325.955 237.995L334.137 228.608Z" fill="#214859"/>
<path d="M290.537 273.714C287.735 272.275 283.882 271.386 280.204 270.836C274.374 269.947 268.981 269.909 268.981 269.909L262.238 268.007L255.245 263.414L250.591 257.406C264.077 262.112 273.811 257.206 277.776 254.503C278.977 253.689 280.604 253.902 281.517 255.041C284.37 258.57 286.334 261.974 287.685 264.891C290.087 270.085 290.537 273.714 290.537 273.714Z" fill="#214859"/>
<path d="M248.264 251.624L248.176 252.438C248.101 253.188 247.501 253.777 246.75 253.839C240.37 254.315 221.917 255.241 212.696 251.148C208.205 249.146 204.902 247.744 201.774 247.181C201.762 247.181 201.749 247.181 201.737 247.181C197.033 246.355 192.679 247.406 185.173 251.161C174.526 256.48 167.508 251.837 159.489 253.426L159.463 253.426C158.062 253.702 156.636 254.177 155.147 254.916C154.947 255.016 154.734 255.116 154.522 255.216C154.497 255.229 154.459 255.241 154.434 255.241C154.359 255.291 154.272 255.329 154.184 255.354C154.021 255.429 153.859 255.504 153.684 255.566C153.508 255.642 153.321 255.704 153.146 255.779C153.058 255.804 152.958 255.842 152.87 255.867C152.783 255.904 152.695 255.942 152.595 255.967C151.819 256.242 151.006 256.493 150.131 256.73C150.106 256.73 150.081 256.73 150.043 256.755C149.23 256.968 148.379 257.168 147.491 257.356C147.328 257.394 147.178 257.431 147.015 257.456C146.753 257.506 146.49 257.569 146.227 257.619C145.99 257.669 145.752 257.707 145.514 257.757C145.176 257.807 144.839 257.869 144.488 257.932C144.175 257.982 143.85 258.032 143.537 258.082C143.475 258.095 143.4 258.107 143.337 258.12C143.087 258.157 142.837 258.195 142.587 258.232C142.437 258.257 142.286 258.27 142.136 258.295C141.261 258.42 140.372 258.533 139.497 258.645C138.808 258.72 138.108 258.795 137.42 258.871C137.094 258.908 136.769 258.946 136.444 258.971C136.181 258.996 135.931 259.021 135.668 259.046C135.143 259.096 134.63 259.146 134.104 259.183C133.842 259.209 133.592 259.221 133.329 259.246C132.803 259.284 132.29 259.321 131.777 259.359C131.252 259.396 130.739 259.421 130.239 259.459C129.863 259.484 129.501 259.496 129.138 259.521C128.462 259.559 127.799 259.596 127.149 259.622C126.686 259.647 126.235 259.672 125.785 259.684C125.697 259.684 125.597 259.697 125.51 259.697C125.422 259.697 125.334 259.697 125.259 259.697C125.247 259.697 125.234 259.697 125.234 259.697L125.209 259.697C124.922 259.709 124.646 259.722 124.359 259.734C123.896 259.747 123.445 259.759 122.995 259.772C122.545 259.772 122.107 259.797 121.669 259.809C121.394 259.822 121.131 259.822 120.868 259.834C116.99 259.922 113.975 259.909 112.611 259.909C111.861 259.909 110.735 259.822 109.383 259.634L109.371 259.634C109.371 259.634 109.246 259.609 109.183 259.609C108.795 259.546 108.383 259.484 107.957 259.409C107.745 259.371 107.532 259.334 107.307 259.296C107.081 259.259 106.856 259.209 106.631 259.158C106.531 259.158 106.443 259.121 106.343 259.096C106.243 259.083 106.143 259.058 106.031 259.033C105.855 258.996 105.668 258.958 105.48 258.908C105.28 258.871 105.08 258.821 104.88 258.77C104.855 258.758 104.817 258.758 104.78 258.745C104.617 258.708 104.454 258.658 104.292 258.62C104.141 258.583 103.979 258.545 103.816 258.495C103.654 258.458 103.491 258.408 103.328 258.357C103.241 258.345 103.153 258.32 103.078 258.295C102.99 258.27 102.915 258.245 102.84 258.22C102.19 258.032 101.527 257.819 100.876 257.594C100.588 257.494 100.313 257.394 100.038 257.281C99.5251 257.093 99.0121 256.893 98.5242 256.668C98.4116 256.618 98.3115 256.58 98.2114 256.53C98.1239 256.493 98.0488 256.455 97.9737 256.418C97.8236 256.355 97.661 256.28 97.5108 256.205C97.3482 256.13 97.1981 256.055 97.0479 255.967C96.1222 255.504 95.2339 254.978 94.4207 254.403C94.2456 254.29 94.0704 254.165 93.9078 254.027C93.7702 253.927 93.6451 253.827 93.52 253.727C92.9945 253.301 92.5191 252.851 92.0812 252.375C92.0687 252.362 92.0562 252.35 92.0312 252.325C91.781 252.05 91.5433 251.762 91.3306 251.461C90.9177 250.911 90.5925 250.335 90.3297 249.734C90.2422 249.559 90.1796 249.371 90.1171 249.184C90.0795 249.121 90.067 249.058 90.0545 248.996C89.9794 248.783 89.9169 248.558 89.8668 248.332C89.8043 248.045 89.7417 247.744 89.7042 247.431C89.5666 246.267 89.6792 245.003 90.092 243.639C90.8177 241.224 92.0062 239.271 93.4574 237.694C93.9703 237.131 94.8211 237.018 95.4591 237.431C100.939 240.973 126.373 255.779 130.789 228.37C130.952 227.356 131.715 226.555 132.703 226.305L139.271 224.628C140.31 224.353 141.436 224.603 142.261 225.291C145.614 228.07 155.297 234.665 165.844 228.608C175.102 223.289 177.179 222.363 178.042 220.06C178.98 217.544 180.982 215.579 183.584 214.928L183.922 214.841L187.675 214.841C187.675 214.841 191.065 214.841 195.682 216.981C196.17 217.206 196.495 217.669 196.557 218.207C196.82 220.41 197.333 225.404 202.675 228.608C209.669 232.801 217.4 225.416 220.978 223.189C222.692 222.125 224.907 222.425 226.308 223.902C229.51 227.269 236.429 223.264 244.786 222.463C245.687 222.375 246.487 223.051 246.525 223.965L247.313 245.179L247.363 245.604L248.239 251.211C248.264 251.349 248.264 251.474 248.239 251.612L248.264 251.624Z" fill="#9AC2CC"/>
<path d="M248.964 252.388L248.964 252.425L248.952 252.438L248.526 253.677C248.389 253.702 248.226 253.714 248.039 253.727C243.41 254.115 222.654 255.566 212.683 251.136C208.192 249.133 204.889 247.732 201.762 247.169C201.749 247.169 201.737 247.169 201.724 247.169C197.02 246.342 192.666 247.394 185.16 251.148C174.514 256.468 167.495 251.824 159.476 253.414L159.451 253.414C158.05 253.689 156.623 254.165 155.135 254.903C154.934 255.003 154.722 255.103 154.509 255.204C154.396 255.254 154.284 255.304 154.171 255.341C154.009 255.416 153.846 255.491 153.671 255.554C153.496 255.629 153.308 255.692 153.133 255.767C152.945 255.829 152.77 255.892 152.582 255.954C151.807 256.23 150.994 256.48 150.118 256.718C150.093 256.718 150.068 256.718 150.03 256.743C149.217 256.956 148.366 257.156 147.478 257.344C147.315 257.381 147.165 257.419 147.003 257.444C146.74 257.494 146.477 257.556 146.215 257.607C145.977 257.644 145.739 257.694 145.501 257.744C145.164 257.794 144.826 257.857 144.476 257.919C144.163 257.969 143.837 258.02 143.525 258.07C143.462 258.082 143.387 258.095 143.325 258.107C143.074 258.145 142.824 258.182 142.574 258.22C142.424 258.245 142.274 258.257 142.124 258.282C141.248 258.408 140.36 258.52 139.484 258.633C138.796 258.708 138.095 258.783 137.407 258.858C137.082 258.896 136.756 258.933 136.431 258.958C136.056 258.996 135.693 259.033 135.318 259.058C134.617 259.121 133.929 259.183 133.228 259.234C132.741 259.271 132.253 259.309 131.765 259.346C131.239 259.384 130.726 259.409 130.226 259.446C129.851 259.471 129.488 259.484 129.125 259.509C128.449 259.546 127.786 259.584 127.136 259.609C126.673 259.634 126.223 259.659 125.772 259.672C125.685 259.672 125.584 259.684 125.497 259.684C125.397 259.684 125.309 259.684 125.222 259.684C125.222 259.684 125.222 259.684 125.247 259.684C126.047 259.471 134.83 256.931 142.949 243.927C143.512 243.026 144.526 242.513 145.589 242.65C152.77 243.627 180.506 245.879 187.837 224.152C188.3 222.776 190.039 222.338 191.115 223.289C197.908 229.296 218.563 244.816 246.199 240.36L247.313 245.191L248.789 251.649L248.789 251.699L248.964 252.4L248.964 252.388Z" fill="#14303F"/>
<path d="M220.19 318.72C216.237 319.346 215.186 326.23 215.186 326.23L215.173 326.23L214.886 326.167C214.648 325.616 214.435 325.053 214.26 324.49C214.16 324.215 214.085 323.927 214.01 323.639C213.935 323.351 213.86 323.076 213.81 322.788C213.797 322.775 213.797 322.75 213.797 322.738C213.747 322.512 213.71 322.275 213.685 322.049C213.647 321.824 213.622 321.599 213.609 321.386C213.397 318.583 214.348 315.867 217.538 313.814L220.19 318.72Z" fill="#214859"/>
<path d="M499.665 283.526L493.335 291.499L493.272 291.574L493.21 291.636L485.978 298.845L485.891 298.92L485.878 298.92L483.977 300.285L479.16 303.701C479.16 303.701 472.905 302.45 467.901 304.953C462.896 307.456 466.649 308.708 458.142 313.026C452.362 315.967 438.913 314.903 430.907 313.927L430.882 313.927C427.304 313.489 424.814 313.063 424.576 313.026L424.551 313.026L419.109 313.714C409.376 313.714 403.383 309.972 394.238 305.992C393.8 305.792 393.362 305.604 392.899 305.416C391.873 304.978 390.81 304.54 389.697 304.114C377.799 299.534 385.33 297.444 385.33 297.444L390.285 297.844L398.241 297.844L404.096 297.444L410.352 297.444L422.862 294.941L427.867 293.689L434.122 291.186L434.635 290.848L437.875 288.683L441.628 286.18L449.135 278.67L451.637 274.916L454.139 267.406L455.39 262.4L455.89 255.066L455.39 246.13L452.888 234.866L450.386 227.356L453.426 225.842C456.291 224.403 459.606 224.115 462.684 225.041L466.65 226.23C469.002 226.931 470.866 228.745 471.641 231.073L472.217 232.801C472.642 234.077 472.367 235.491 471.491 236.518L465.899 243.038C465.699 243.276 465.599 243.576 465.599 243.877C465.599 244.027 465.624 244.19 465.686 244.34C466.137 245.429 467.187 246.13 468.351 246.13L473.343 246.13C474.456 246.13 475.344 247.081 475.269 248.195L474.907 253.514L474.881 253.977C474.932 254.24 474.982 254.49 475.057 254.74C476.308 260.66 478.647 265.479 481.4 269.346C484.727 274.039 488.668 277.344 492.034 279.584L492.046 279.584C496.325 282.425 499.665 283.526 499.665 283.526Z" fill="#14303F"/>
<path d="M250.028 205.942C247.714 213.589 246.4 222.776 246.4 222.776C216.324 219.434 196.458 204.328 196.458 204.328L200.686 204.49L221.166 205.266L242.209 206.405L244.073 206.042L249.865 204.916C249.865 204.916 249.865 204.953 249.878 204.966C249.928 205.304 250.103 205.629 250.016 205.942L250.028 205.942Z" fill="#9AC2CC"/>
<path d="M286.496 307.456L284.207 307.456L284.595 300.961L282.931 295.529L277.414 289.872L275.512 288.858L273.348 288.37C273.348 288.37 270.22 286.167 265.216 286.167L269.757 284.59C269.757 284.59 273.973 285.153 275.85 286.28L278.978 287.419L282.23 289.734L284.382 291.787L286.859 295.817L287.735 299.934L287.735 304.365L286.484 307.444L286.496 307.456Z" fill="#4B808C"/>
<path d="M268.894 298.883C268.894 298.883 272.122 299.884 272.747 298.708C273.373 297.531 273.998 296.655 273.373 295.178L276.063 298.395L277.514 301.399L277.226 304.114L276.513 305.466L275.012 306.18L273.123 305.691L270.896 303.138L268.907 298.87L268.894 298.883Z" fill="#4B808C"/>
<path d="M389.083 218.057C389.083 218.057 385.53 211.461 397.791 206.305C410.051 201.149 419.91 211.524 418.433 216.368C416.957 221.211 412.378 225.254 410.352 231.924C408.325 238.595 407.136 251.236 399.004 247.281C390.872 243.326 386.506 236.743 385.806 231.662C385.105 226.58 388.333 221.411 389.071 218.057L389.083 218.057Z" fill="#EBECF0"/>
<path d="M236.029 346.417C234.84 356.793 233.577 367.193 232.463 377.544C232.038 382.525 231.55 387.856 232.889 392.65C234.152 396.304 236.879 399.521 237.643 403.438C239.031 409.984 238.093 416.792 238.631 423.225C238.969 428.069 239.669 433.463 242.997 437.08C246.325 440.61 252.055 440.822 256.546 440.134C261.3 439.371 265.404 435.678 266.517 431.035C266.867 429.596 269.032 429.909 268.982 431.361C268.919 435.103 274.061 438.019 277.827 437.593C293.515 436.58 297.006 420.259 297.619 407.218C297.781 404.339 297.844 401.461 297.781 398.582C297.756 398.094 297.819 397.531 298.006 397.068C298.207 396.505 298.619 396.067 298.932 395.604C305.425 386.868 308.353 375.641 308.978 364.828C309.016 363.326 310.129 362.35 311.368 361.786C318.424 358.019 325.092 352.387 327.531 344.565C328.232 342.625 328.357 340.472 329.095 338.32C330.359 335.554 337.465 333.977 339.442 336.705C340.342 337.969 339.604 339.671 338.804 340.71C338.04 341.774 337.49 342.963 336.927 344.164C333.224 352.637 330.471 361.549 327.719 370.397C327.419 372.099 327.119 375.528 327.044 377.831C326.556 388.094 328.607 422.424 337.252 427.543C337.34 427.581 337.44 427.606 337.502 427.618C337.54 427.643 337.715 427.618 337.527 427.643L337.778 427.618C340.943 427.531 345.81 427.969 348.825 426.905C361.786 422.675 364.513 406.329 363.049 394.377C362.962 393.789 362.862 393.288 362.912 392.7C362.962 392.212 363.137 391.498 363.312 391.023C364.938 385.916 364.813 380.284 363.212 375.178C362.874 374.264 363.049 373.176 363.562 372.4L364.4 371.198C365.451 369.646 366.415 368.044 367.315 366.392C369.317 362.687 370.956 358.745 372.194 354.715L372.42 353.989C372.532 353.664 372.682 353.351 372.87 353.075C373.583 351.924 374.972 351.186 376.248 351.161L381.978 350.773C388.396 350.31 398.467 349.734 404.822 349.221C408.388 348.783 411.803 347.293 414.568 344.978C415.982 343.751 417.383 342.35 418.822 341.148C423.4 337.356 428.267 333.827 434.36 332.675C437.975 332.225 441.779 331.323 445.106 329.784C448.497 328.307 451.775 326.33 454.602 324.064L454.364 324.34C458.78 317.769 463.109 310.235 470.566 306.718C477.709 303.489 484.24 299.621 489.607 293.764C493.185 290.059 496.5 285.992 499.415 281.774L499.24 282.775C498.927 280.197 501.992 279.021 503.894 278.345C508.948 276.805 514.203 276.543 519.395 276.317C526.25 276.117 533.131 276.142 540 277.106C546.83 277.969 553.411 280.36 559.891 282.45C566.334 284.515 572.902 286.079 579.558 287.268C606.281 292.087 633.429 294.69 660.589 294.978L659.426 295.779C664.705 280.623 667.833 264.578 669.485 248.595C674.752 200.648 661.991 149.747 628.4 114.178L629.35 114.578C618.078 114.929 606.794 115.404 595.547 116.118C585.813 116.869 575.905 117.181 566.384 119.434C554.362 123.251 543.615 130.123 531.63 134.741C527.576 136.268 523.36 137.757 518.932 137.882C506.371 137.995 493.548 138.258 481.287 141.036C473.018 142.876 465.862 147.694 457.855 150.41C449.773 153.264 441.316 154.916 432.871 156.105C421.711 157.744 410.339 158.408 399.142 159.346C393.675 160.16 388.246 161.9 382.916 163.439C374.784 165.83 366.777 168.746 358.495 170.748C350.263 172.275 341.994 173.952 334.525 177.957C324.404 182.926 314.383 188.12 304.374 193.364C299.257 196.142 293.352 197.607 287.585 197.669L270.658 198.295L266.455 198.458C263.79 198.595 261.35 199.534 259.111 200.998C255.37 203.001 251.792 206.117 247.564 207.119C246.112 207.381 244.523 207.381 243.06 207.281C229.773 206.818 201.124 205.767 188.013 205.304L179.543 205.003C178.167 204.953 176.853 204.878 175.49 205.053C171.436 205.316 167.846 207.932 164.393 209.859L157.062 214.102L153.396 216.23C151.031 217.794 147.854 218.908 144.964 219.071C141.261 219.459 135.831 220.11 132.328 220.473C128.913 220.748 125.798 221.824 123.02 223.727C119.53 226.08 114.275 229.822 110.835 232.162C110.622 232.312 110.372 232.388 110.122 232.388C106.306 232.525 102.278 233.426 98.8747 235.191C95.4467 236.943 92.6944 239.822 91.4934 243.426C88.4158 251.837 98.4993 255.954 105.155 257.556C107.557 258.12 110.009 258.583 112.449 258.658C113.362 258.67 116.064 258.645 117.028 258.645C121.106 258.608 125.185 258.483 129.238 258.245C137.17 257.694 145.552 257.156 153.008 254.44C154.935 253.627 156.849 252.6 158.938 252.225C165.043 250.873 171.511 253.226 177.379 252.287C181.445 251.824 184.76 249.809 188.513 248.157C192.404 246.468 196.77 245.128 201.099 245.779C205.49 246.418 209.268 248.282 213.022 249.884C216.55 251.436 220.566 252.075 224.544 252.5C232.563 253.264 240.758 253.026 248.815 252.35C249.465 252.3 250.053 252.713 250.216 253.314C252.881 261.524 260.637 267.481 269.157 268.608C270.233 268.745 270.658 270.147 269.895 270.873C265.429 275.829 259.736 281.849 259.023 288.708C259.023 289.221 258.723 289.671 258.298 289.897C254.219 292.012 250.216 294.477 246.563 297.268C242.822 300.147 239.644 303.964 235.341 306.079C231.087 308.407 226.746 310.134 222.667 312.35C215.211 316.004 212.634 319.108 216.837 327.343C218.001 329.621 219.59 331.749 221.041 333.977C221.954 335.704 223.168 337.268 224.556 338.658C232.738 347.018 245.512 347.894 256.346 344.99C269.495 341.423 284.37 339.121 293.703 328.307C296.855 324.828 299.42 320.497 303.223 317.681C306.976 314.64 311.042 312.124 315.196 309.822C325.63 304.215 336.589 299.296 348.224 296.83C350.326 296.492 352.515 296.017 354.642 296.517C354.967 296.63 355.368 296.768 355.643 297.206C355.943 297.681 355.268 298.195 354.905 297.757C354.78 297.544 354.154 297.481 353.616 297.506C351.927 297.569 350.251 298.044 348.599 298.482C341.881 300.41 335.363 303.013 328.933 305.779C320.475 309.546 312.006 313.802 304.775 319.584C300.934 322.475 298.732 326.492 295.529 329.959C293.953 331.786 292.126 333.414 290.237 334.94C280.567 342.224 268.319 344.34 256.946 347.431C247.639 349.834 237.142 349.922 228.572 344.94C224.594 342.625 221.028 339.396 218.814 335.303C215.987 331.048 212.671 326.755 212.246 321.323C211.808 317.156 214.698 313.551 218.289 311.799C223.318 308.72 229.023 306.492 234.027 303.764C238.281 301.636 241.183 297.994 244.924 295.153C248.752 292.225 252.793 289.722 257.072 287.494L256.333 288.683C256.358 286.48 257.059 284.565 257.86 282.775C260.362 277.544 264.027 273.138 267.993 268.971L268.731 271.236C259.236 269.959 250.591 263.289 247.639 253.989L249.04 254.953C240.783 255.654 232.538 255.879 224.244 255.091C220.115 254.64 215.924 254.002 211.921 252.25C203.826 248.483 198.059 246.393 189.489 250.51C185.786 252.162 181.883 254.365 177.679 254.816C171.324 255.817 165.456 253.476 159.414 254.703C157.449 255.053 155.723 256.055 153.884 256.793C141.961 260.823 129.376 260.773 116.99 261.136C103.216 262.075 78.4823 254.152 92.4317 236.893C96.9605 232.062 103.616 230.122 110.047 229.859L109.334 230.085C112.774 227.769 118.204 223.889 121.519 221.637C124.559 219.509 128.337 218.232 131.965 217.957C135.118 217.657 141.636 216.843 144.601 216.555C148.642 216.505 152.295 213.839 155.723 211.912L163.054 207.669L166.72 205.542C170.448 203.151 175.089 202.075 179.518 202.475C196.683 203.101 225.62 204.127 243.01 204.753L245.124 204.828C248.502 204.866 250.991 202.863 254.094 201.011C257.797 198.858 261.751 195.955 266.217 195.942C268.769 195.917 284.47 195.204 287.41 195.154C292.94 195.079 298.294 193.739 303.136 191.136C313.144 185.88 323.178 180.686 333.349 175.692C338.441 173.101 343.945 171.149 349.55 169.922C355.08 168.896 360.56 167.82 365.927 166.055C376.786 162.838 387.482 158.758 398.717 156.831C410.014 155.855 421.224 155.241 432.433 153.589C443.543 152.025 454.564 149.659 464.648 144.828C467.188 143.664 469.727 142.388 472.38 141.261C485.703 135.867 500.428 135.792 514.565 135.379L518.794 135.342C522.86 135.216 526.801 133.802 530.642 132.363C542.364 127.845 553.361 120.848 565.621 116.981C569.8 115.855 574.103 115.417 578.37 114.929C595.284 113.264 612.236 112.601 629.2 112.025C652.583 134.941 666.369 167.632 671.048 199.935C675.465 232.3 672.099 265.666 661.678 296.618C661.503 297.118 661.015 297.431 660.502 297.431C646.803 297.243 633.229 296.555 619.592 295.303C599.262 292.988 578.682 290.823 559.053 284.778C552.598 282.7 546.292 280.385 539.562 279.521C532.944 278.583 526.15 278.558 519.395 278.758C514.428 278.983 509.323 279.233 504.594 280.66C503.556 281.048 502.192 281.461 501.617 282.362C501.617 282.362 501.617 282.35 501.617 282.325C501.617 282.275 501.642 282.325 501.592 282.1L501.417 283.101C495.224 291.774 488.18 300.147 478.672 305.341C476.345 306.618 473.918 307.731 471.616 308.883C464.535 312.275 460.632 319.358 456.378 325.629C450.999 330.222 444.443 333.288 437.537 334.653C431.044 335.091 425.252 338.77 420.348 342.988C418.897 344.189 417.495 345.604 416.069 346.843C412.216 350.134 407.124 351.786 402.107 351.874L399.242 352.062C395.739 352.274 385.718 352.988 382.053 353.213L376.323 353.601C375.222 353.601 374.697 354.477 374.509 355.403C372.645 361.461 369.955 367.293 366.402 372.562L365.601 373.714C365.501 373.876 365.464 374.052 365.489 374.202C367.265 379.846 367.44 386.067 365.639 391.749C365.264 392.938 365.289 392.725 365.476 394.027C367.716 408.92 361.673 430.409 343.47 430.109L337.728 430.109C326.23 429.358 323.916 387.806 324.491 377.731C324.616 375.053 324.767 372.425 325.267 369.684C328.695 359.158 331.748 347.581 337.315 338.119C335.951 337.306 331.222 338.257 331.172 339.821C330.159 347.418 325.893 354.715 319.712 359.308C317.26 361.248 314.621 362.888 311.868 364.34C311.693 364.427 311.693 364.44 311.605 364.515C311.48 364.64 311.418 364.79 311.418 364.94C310.742 376.33 307.765 387.781 300.871 397.118L300.446 397.706C300.296 397.906 300.233 398.044 300.221 398.269C300.333 405.103 299.996 411.924 298.682 418.657C297.631 424.252 295.454 430.084 291.201 434.202C285.708 439.734 275.687 442.737 269.257 437.168C267.606 435.766 266.38 433.613 266.405 431.373L268.882 431.623C266.692 440.697 257.197 444.277 248.714 442.625C242.809 441.974 238.468 436.968 237.242 431.386C235.241 423.664 236.191 415.428 235.678 407.719C235.516 405.203 234.953 402.825 233.927 400.56C232.889 398.194 231.162 396.004 230.411 393.388C228.91 388.057 229.461 382.675 229.886 377.306C231.012 366.855 232.276 356.492 233.464 346.079C233.702 344.39 236.166 344.778 235.941 346.417L236.029 346.417Z" fill="black"/>
<path d="M336.952 226.518C328.858 236.593 320.05 245.967 314.608 257.807C305.826 271.098 273.386 283.839 258.173 289.859C257.522 290.11 256.809 289.784 256.559 289.133C256.309 288.483 256.646 287.757 257.297 287.519C265.291 284.415 273.198 280.973 280.955 277.306C290.55 272.638 300.233 267.894 308.353 261.011C310.855 258.871 312.481 256.68 313.807 253.689C315.296 250.748 317.085 247.97 318.949 245.266C321.451 241.687 324.141 238.257 326.956 234.941C329.784 231.637 332.774 228.483 336.151 225.704C336.652 225.279 337.428 225.992 336.965 226.518L336.952 226.518Z" fill="black"/>
<path d="M267.731 431.361C267.731 431.361 270.233 422.187 267.731 402.362C265.229 382.537 270.233 387.556 272.735 372.537C275.237 357.519 270.608 347.306 282.931 338.019" stroke="black" stroke-width="2" stroke-linecap="round" stroke-linejoin="round"/>
<path d="M237.317 336.592C238.981 337.907 241.358 337.869 242.972 336.505C246.55 333.489 252.655 328.032 255.22 323.739C258.973 317.481 251.467 309.972 251.467 309.972C251.467 309.972 244.774 300.347 233.114 305.792C221.454 311.236 217.688 312.475 218.939 314.978C220.09 317.281 226.533 328.057 237.305 336.592L237.317 336.592Z" stroke="black" stroke-width="2" stroke-linecap="round" stroke-linejoin="round"/>
<path d="M265.817 389.959C262.514 385.891 256.396 384.515 251.404 382.975C251.179 382.913 251.041 382.675 251.104 382.45C251.167 382.249 251.342 382.137 251.542 382.149C256.771 382.662 262.701 383.313 266.817 387.018C267.543 387.794 268.106 388.52 268.294 389.671C268.456 391.311 266.029 391.599 265.804 389.972L265.817 389.959Z" fill="black"/>
<path d="M309.441 364.765C305.926 360.71 301.272 357.656 296.48 355.241C294.829 354.39 293.115 353.676 291.388 352.9C290.963 352.725 291.163 352.049 291.614 352.124C293.515 352.4 295.392 352.825 297.218 353.426C302.798 355.303 308.065 358.407 311.518 363.363C312.381 364.74 310.392 366.067 309.441 364.753L309.441 364.765Z" fill="black"/>
<path d="M298.482 398.757C294.041 396.042 289.061 394.052 283.944 392.938C283.507 392.85 283.594 392.162 284.045 392.212C288.098 392.55 292.139 393.463 295.967 394.915C297.256 395.416 298.494 395.929 299.77 396.63C300.383 396.955 300.596 397.719 300.271 398.332C299.921 398.983 299.082 399.183 298.469 398.77L298.482 398.757Z" fill="black"/>
<path d="M363.137 374.014C360.86 371.223 356.981 370.134 353.541 369.058C349.613 368.007 345.559 367.368 341.518 366.78C340.93 366.718 340.968 365.779 341.581 365.791C348.524 365.854 361.673 366.142 365.439 373.038C366.277 374.753 363.725 375.854 363.137 374.014Z" fill="black"/>
<path d="M417.495 344.753C399.943 338.37 378.938 326.73 371.256 308.858C371.094 308.457 371.707 308.157 371.907 308.57C380.039 323.927 396.277 332.663 411.54 339.621C413.78 340.597 416.069 341.574 418.334 342.387C419.835 342.95 419.072 345.253 417.508 344.753L417.495 344.753Z" fill="black"/>
<path d="M403.083 351.536C394.501 345.316 386.457 338.357 379.463 330.36C377.199 327.656 374.959 324.79 373.721 321.348C373.646 321.148 373.746 320.935 373.946 320.873C374.146 320.798 374.346 320.91 374.421 321.086C375.222 322.6 376.135 324.039 377.249 325.353C380.564 329.333 384.48 332.888 388.371 336.292C393.663 340.823 399.13 345.191 404.572 349.509C405.823 350.497 404.422 352.437 403.083 351.524L403.083 351.536Z" fill="black"/>
<path d="M247.789 254.077C244.086 243.964 243.498 232.725 246.187 222.325C246.262 222.012 246.75 222.075 246.725 222.4C246.65 230.235 247.038 238.02 248.452 245.717C248.915 248.27 249.49 250.861 250.153 253.289C250.541 254.79 248.377 255.516 247.789 254.077Z" fill="black"/>
<path d="M201.462 248.395C192.579 244.966 188.701 235.016 188.413 226.142C188.388 225.779 188.939 225.679 189.039 226.03C189.352 227.081 189.602 228.132 189.89 229.171C191.904 235.929 195.757 242.801 202.25 246.017C203.801 246.58 203.051 248.896 201.462 248.395Z" fill="black"/>
<path d="M159.526 254.653C153.471 254.015 148.73 249.058 144.939 244.715C144.439 244.065 143.926 243.414 143.438 242.75C143.25 242.5 143.313 242.137 143.563 241.949C143.788 241.787 144.101 241.812 144.288 241.987C146.678 244.127 149.017 246.28 151.595 248.195C154.009 249.909 156.661 251.762 159.614 252.162C161.19 252.287 161.115 254.64 159.526 254.653Z" fill="black"/>
<path d="M334.85 327.706C330.547 322.425 326.08 317.494 320.138 314.102C319.725 313.889 319.975 313.213 320.425 313.338C327.394 314.928 333.411 320.522 335.738 327.268C335.914 327.794 335.163 328.157 334.85 327.706Z" fill="black"/>
<path d="M371.106 347.982C366.94 342.625 360.072 340.31 353.704 338.758C352.728 338.545 351.752 338.345 350.776 338.069C350.501 337.994 350.338 337.706 350.413 337.431C350.476 337.206 350.676 337.068 350.889 337.056C351.902 337.005 352.928 337.018 353.954 337.03C361.022 337.531 369.117 340.572 372.044 347.594C372.244 348.182 371.419 348.532 371.118 348.007L371.106 347.982Z" fill="black"/>
<path d="M364.275 375.316C359.484 374.74 354.429 374.327 349.763 375.904C349.475 376.017 349.3 375.566 349.575 375.453C353.066 373.914 356.944 373.601 360.71 373.676C361.973 373.714 363.224 373.814 364.488 374.102C364.826 374.177 365.038 374.515 364.963 374.853C364.888 375.178 364.588 375.378 364.263 375.341L364.275 375.316Z" fill="black"/>
<path d="M365.113 371.523C364.137 367.594 362.361 363.789 359.471 360.898C359.208 360.635 359.571 360.184 359.884 360.385C362.761 362.037 364.6 365.053 365.626 368.132C365.964 369.17 366.227 370.209 366.339 371.336C366.377 371.674 366.127 371.987 365.789 372.024C365.464 372.062 365.163 371.836 365.101 371.523L365.113 371.523Z" fill="black"/>
<path d="M352.991 331.887C357.457 332.325 361.998 333.226 365.889 335.604C366.202 335.804 365.927 336.317 365.589 336.167C361.51 334.477 357.132 333.651 352.903 332.375C352.628 332.3 352.703 331.861 352.991 331.887Z" fill="black"/>
<path d="M310.667 363.363C309.741 359.684 308.74 355.879 306.551 352.688C306.338 352.375 306.814 352.024 307.039 352.325C309.566 355.403 311.293 359.196 311.893 363.151C311.981 363.914 310.83 364.114 310.655 363.363L310.667 363.363Z" fill="black"/>
<path d="M262.326 293.088C262.476 301.336 265.629 309.847 274.124 312.487C275.225 312.95 276.413 313.101 277.539 313.501C277.777 313.564 277.714 313.952 277.464 313.927C272.522 313.952 267.518 311.436 264.841 307.193C262.201 303.013 261.2 297.907 261.876 293.038C261.913 292.775 262.339 292.8 262.326 293.076L262.326 293.088Z" fill="black"/>
<path d="M275.062 285.779C280.329 286.668 285.02 290.285 287.247 295.166C287.51 296.042 287.948 296.981 288.048 297.894L288.31 299.759C288.285 300.961 288.36 302.3 288.098 303.489C287.848 305.266 287.197 307.143 286.584 308.808C286.534 308.946 286.396 309.008 286.259 308.971C286.121 308.92 286.059 308.77 286.096 308.633C286.534 306.943 287.072 305.128 287.197 303.376C288.36 294.79 282.268 289.296 274.924 286.292C274.636 286.205 274.749 285.729 275.049 285.779L275.062 285.779Z" fill="black"/>
<path d="M273.423 287.832C283.282 289.759 287.523 299.747 284.132 308.77C284.07 308.996 283.707 308.933 283.732 308.695C283.807 307.606 283.97 306.53 284.07 305.466C284.733 297.193 280.804 291.586 273.323 288.295C273.048 288.207 273.16 287.769 273.436 287.819L273.423 287.832Z" fill="black"/>
<path d="M269.032 298.345C269.882 300.986 271.359 303.539 273.698 305.091C274.661 305.779 275.762 305.767 276.313 304.578C277.927 301.023 274.749 296.705 271.997 294.553C271.859 294.477 271.821 294.302 271.909 294.177C271.984 294.064 272.122 294.039 272.234 294.077C273.61 294.665 274.686 295.691 275.625 296.78C277.439 299.021 278.927 302.35 277.451 305.166C276.688 306.955 274.461 307.243 273.01 306.042C270.658 304.44 268.881 301.399 268.544 298.42C268.506 298.107 268.969 298.032 269.044 298.332L269.032 298.345Z" fill="black"/>
<path d="M269.945 228.533C277.264 240.748 286.822 253.026 301.034 257.181C301.297 257.244 301.222 257.682 300.934 257.619C289.85 255.617 281.067 247.356 274.862 238.37C272.785 235.329 270.908 232.15 269.582 228.695C269.507 228.483 269.82 228.32 269.933 228.533L269.945 228.533Z" fill="black"/>
<path d="M168.108 205.517C173.876 204.565 179.155 208.232 182.233 212.826C182.308 212.926 182.295 213.076 182.183 213.164C182.07 213.251 181.92 213.214 181.845 213.114L180.569 211.562C177.604 208.22 172.938 205.779 168.421 206.731C167.583 206.993 167.245 205.692 168.108 205.517Z" fill="black"/>
<path d="M195.645 204.803C193.543 206.23 191.428 207.769 189.702 209.647C189.151 210.285 188.601 210.998 188.526 211.762C188.501 212.062 188.013 212.025 188.038 211.724C188.088 210.698 188.664 209.947 189.177 209.221C190.828 207.131 192.842 205.429 194.931 203.789C195.607 203.276 196.37 204.34 195.657 204.816L195.645 204.803Z" fill="black"/>
<path d="M120.243 223.577C122.62 224.378 125.159 224.953 127.136 226.58C127.324 226.768 127.048 227.081 126.848 226.906C124.847 225.617 122.257 225.291 119.955 224.791C119.104 224.64 119.392 223.339 120.23 223.577L120.243 223.577Z" fill="black"/>
<path d="M125.535 220.485C127.036 221.724 128.5 223.426 128.425 225.479C128.425 225.579 128.337 225.654 128.237 225.654C128.15 225.654 128.075 225.567 128.062 225.479C127.862 223.689 126.298 222.388 124.847 221.537C124.071 221.098 124.822 219.96 125.535 220.485Z" fill="black"/>
<path d="M224.569 316.843C224.569 316.843 232.901 328.908 237.492 332.262" stroke="black" stroke-linecap="round" stroke-linejoin="round"/>
<path d="M337.74 388.62C342.807 386.993 350.026 385.616 354.317 389.634L354.017 389.959C349.15 387.143 343.182 388.52 337.84 388.995L337.74 388.62Z" fill="black"/>
<path d="M380.977 296.668C410.114 299.509 453.438 295.178 455.052 257.919C455.59 247.419 453.301 236.931 450.186 226.831C450.136 226.68 450.223 226.53 450.373 226.48C450.511 226.443 450.661 226.505 450.711 226.643C454.502 236.568 456.954 247.218 456.441 257.994C455.428 282.963 435.461 294.59 412.804 297.394C402.22 298.745 391.448 298.745 380.939 296.981C380.752 296.956 380.789 296.643 380.989 296.68L380.977 296.668Z" fill="black"/>
</g>
<defs>
<clipPath id="clip0_1703_811">
<rect width="584.647" height="331" fill="white" transform="translate(88.353 112)"/>
</clipPath>
</defs>
</svg>
